<?xml version="1.0" encoding="iso-8859-1"?>
<!-- Generator: Adobe Illustrator 18.0.0, SVG Export Plug-In . SVG Version: 6.00 Build 0)  -->
<!DOCTYPE svg PUBLIC "-//W3C//DTD SVG 1.1//EN" "http://www.w3.org/Graphics/SVG/1.1/DTD/svg11.dtd">
<svg version="1.1" id="Layer_1" xmlns="http://www.w3.org/2000/svg" xmlns:xlink="http://www.w3.org/1999/xlink" x="0px" y="0px"
	 viewBox="0 0 54 58" style="enable-background:new 0 0 54 58;" xml:space="preserve">
<g>
	<path style="fill-rule:evenodd;clip-rule:evenodd;fill:#009596;" d="M0.014,57.952L50.115,58V30.255
		c-13.37,5.305-20.939,21.2-22.648,26.685l-4.798,0.021C21.073,49.952,12.818,34.815,0,30.16L0.014,57.952z"/>
	<path style="fill-rule:evenodd;clip-rule:evenodd;fill:#009596;" d="M20.641,36.15c-2.727-12.806-5.634-22.612-9.807-31.233
		L0.37,4.862C10.401,15.693,14.903,26.811,20.641,36.15z"/>
	<path style="fill-rule:evenodd;clip-rule:evenodd;fill:#009596;" d="M0.016,25.626c3.641,1.394,7.129,3.813,9.448,5.822
		c4.422,3.831,3.66,3.033,7.703,7.767c-0.719-3.69-5.133-11.512-7.08-14.589c-2.598-4.11-6.446-9.918-10.071-12.364V25.626z"/>
	<path style="fill-rule:evenodd;clip-rule:evenodd;fill:#009596;" d="M36.93,33.746c6.647-5.994,9.38-8.28,17.07-11.412
		c-0.128-5.285-1.91-7.407-2.604-9.069C46.181,15.635,37.338,30.498,36.93,33.746z"/>
	<path style="fill-rule:evenodd;clip-rule:evenodd;fill:#009596;" d="M29.556,38.665c0.139-0.547,10.606-19.64,13.166-22.949
		c-1.329-1.537-3.302-3.842-5.747-4.647C35.601,14.854,30.97,27.502,29.556,38.665z"/>
	<path style="fill-rule:evenodd;clip-rule:evenodd;fill:#009596;" d="M23.379,29.839l0.03-24.91L14.75,4.773
		C19.371,14.024,21.569,23.122,23.379,29.839z"/>
	<path style="fill-rule:evenodd;clip-rule:evenodd;fill:#CA952B;" d="M27.833,25.17c1.049-5.342,6.238-20.233,7.576-23.106
		C33.378,0.567,30.55,0.177,28.378,0L27.833,25.17z"/>
</g>
<g>
</g>
<g>
</g>
<g>
</g>
<g>
</g>
<g>
</g>
<g>
</g>
<g>
</g>
<g>
</g>
<g>
</g>
<g>
</g>
<g>
</g>
</svg>
