<?xml version="1.0" encoding="iso-8859-1"?>
<!-- Generator: Adobe Illustrator 18.0.0, SVG Export Plug-In . SVG Version: 6.00 Build 0)  -->
<!DOCTYPE svg PUBLIC "-//W3C//DTD SVG 1.1//EN" "http://www.w3.org/Graphics/SVG/1.1/DTD/svg11.dtd">
<svg version="1.1" id="Layer_1" xmlns="http://www.w3.org/2000/svg" xmlns:xlink="http://www.w3.org/1999/xlink" x="0px" y="0px"
	 viewBox="0 0 25 25" style="enable-background:new 0 0 25 25;" xml:space="preserve">
<g id="Page-1_3_" style="opacity:0.8;">
	<g id="icon-111-search_3_">
		<path id="search_3_" style="fill:#FFFFFF;" d="M16.208,17.765c-1.678,1.14-3.731,1.811-5.948,1.811C4.594,19.576,0,15.194,0,9.788
			S4.594,0,10.26,0s10.26,4.382,10.26,9.788c0,2.703-1.148,5.15-3.005,6.921l7.239,6.906c0.332,0.317,0.324,0.825-0.009,1.143
			c-0.336,0.32-0.87,0.322-1.198,0.009L16.208,17.765L16.208,17.765z M10.26,18.425c5,0,9.053-3.867,9.053-8.637
			S15.26,1.152,10.26,1.152S1.207,5.018,1.207,9.788S5.26,18.425,10.26,18.425L10.26,18.425z"/>
	</g>
</g>
<g>
</g>
<g>
</g>
<g>
</g>
<g>
</g>
<g>
</g>
<g>
</g>
<g>
</g>
<g>
</g>
<g>
</g>
<g>
</g>
<g>
</g>
</svg>
