<?xml version="1.0" encoding="iso-8859-1"?>
<!-- Generator: Adobe Illustrator 18.0.0, SVG Export Plug-In . SVG Version: 6.00 Build 0)  -->
<!DOCTYPE svg PUBLIC "-//W3C//DTD SVG 1.1//EN" "http://www.w3.org/Graphics/SVG/1.1/DTD/svg11.dtd">
<svg version="1.1" id="Layer_1" xmlns="http://www.w3.org/2000/svg" xmlns:xlink="http://www.w3.org/1999/xlink" x="0px" y="0px"
	 viewBox="0 0 66 66" style="enable-background:new 0 0 66 66;" xml:space="preserve">
<g>
	<g>
		<g>
			<g>
				<g>
					<g>
						<g>
							<path style="fill:#758586;" d="M3.55,61.834c-0.82,0-1.487-0.667-1.487-1.487v-2.104c0-0.82,0.667-1.487,1.487-1.487h3.382
								l-0.709-0.893c-0.658-0.829-1.005-1.824-1.005-2.879V40.745c0-1.679,1.078-3.139,2.683-3.633l7.375-2.269
								c0.527-0.162,0.881-0.641,0.881-1.193v-3.041L15.6,30.145c-0.706-0.588-1.175-1.412-1.32-2.319l-0.146-0.912h-0.908
								c-1.168,0-2.118-0.95-2.118-2.118v-1.683c0-0.681,0.335-1.326,0.895-1.725l0.386-0.274l-0.213-0.423
								c-0.09-0.179-0.154-0.366-0.19-0.556l-0.046-0.246l-0.216-0.127c-0.899-0.53-1.457-1.502-1.457-2.539
								c0-0.492,0.127-0.981,0.368-1.416l0.148-0.267l-0.148-0.267c-0.241-0.435-0.368-0.924-0.368-1.416
								c0-1.025,0.55-1.993,1.435-2.526l0.302-0.182l-0.038-0.35c-0.011-0.102-0.016-0.205-0.016-0.309
								c0-1.471,1.098-2.731,2.553-2.932l0.263-0.036L14.9,7.294c0.478-0.804,1.317-1.34,2.242-1.432l0.163-0.016l0.127-0.102
								c0.603-0.483,1.33-0.738,2.104-0.738c0.101,0,0.204,0.005,0.307,0.015l0.212,0.021l0.171-0.127
								c0.66-0.491,1.439-0.75,2.255-0.75c0.816,0,1.596,0.259,2.255,0.75l0.171,0.127l0.212-0.021
								c0.103-0.01,0.206-0.015,0.306-0.015c0.762,0,1.513,0.269,2.115,0.756l0.189,0.153l0.24-0.037
								c0.134-0.02,0.269-0.031,0.401-0.031c1.031,0,2.001,0.554,2.532,1.447l0.136,0.228l0.263,0.036
								c1.456,0.2,2.553,1.461,2.553,2.932c0,0.103-0.005,0.207-0.016,0.309l-0.038,0.35l0.302,0.182
								c0.886,0.533,1.435,1.501,1.435,2.526c0,0.491-0.127,0.981-0.368,1.416l-0.148,0.267l0.148,0.267
								c0.241,0.435,0.368,0.924,0.368,1.416c0,1.036-0.559,2.008-1.457,2.539l-0.216,0.127l-0.046,0.246
								c-0.065,0.344-0.217,0.671-0.441,0.945l-0.285,0.349l0.285,0.349c0.312,0.382,0.477,0.845,0.477,1.336v1.037h26.491
								c1.98,0,3.59,1.611,3.59,3.59v18.933c0,1.98-1.611,3.59-3.59,3.59h-9.952l0.866,6.493H62.45c0.82,0,1.487,0.667,1.487,1.487
								v2.104c0,0.82-0.667,1.487-1.487,1.487L3.55,61.834L3.55,61.834z M3.55,57.627c-0.34,0-0.617,0.277-0.617,0.617v2.104
								c0,0.34,0.277,0.617,0.617,0.617h58.901c0.34,0,0.617-0.277,0.617-0.617v-2.104c0-0.34-0.277-0.617-0.617-0.617H3.55z
								 M34.487,56.14l-0.042,0.617h3.433l0.866-6.493h-4.257V56.14L34.487,56.14z M42.205,41.85c-0.833,0-1.544,0.622-1.654,1.448
								l-1.794,13.459h11.628l-1.795-13.459c-0.11-0.825-0.821-1.448-1.654-1.448L42.205,41.85L42.205,41.85z M20.813,56.757h5.441
								v-1.669c0-0.726-0.283-1.409-0.797-1.923c-0.514-0.514-1.197-0.797-1.923-0.797h-2.72L20.813,56.757L20.813,56.757z
								 M11.964,44.135c0.24,0,0.435,0.195,0.435,0.435v6.311c0,0.34,0.277,0.617,0.617,0.617h10.518c1.98,0,3.59,1.611,3.59,3.59
								v1.669h6.534l-0.042-0.62v-5.873h-4.824c-1.98,0-3.59-1.611-3.59-3.59v-4.817l-0.626,0.086
								c-0.56,0.077-1.126,0.116-1.682,0.116c-3.964,0-7.697-1.937-9.986-5.181l-0.23-0.326l-4.521,1.391
								c-1.237,0.381-2.069,1.506-2.069,2.801v12.24c0,2.08,1.692,3.772,3.772,3.772h10.083v-4.389h-6.928
								c-0.82,0-1.487-0.667-1.487-1.487V44.57C11.529,44.33,11.724,44.135,11.964,44.135z M28.793,25.021
								c-1.5,0-2.72,1.22-2.72,2.72v18.933c0,1.5,1.22,2.72,2.72,2.72h9.466c0.014,0,0.031,0.001,0.053,0.004l0.539,0.064
								l0.837-6.279c0.167-1.256,1.249-2.203,2.516-2.203h4.731c1.267,0,2.349,0.947,2.516,2.203l0.837,6.278l0.539-0.063
								c0.022-0.002,0.04-0.004,0.054-0.004h9.466c1.5,0,2.72-1.221,2.72-2.72V27.741c0-1.5-1.221-2.72-2.72-2.72L28.793,25.021
								L28.793,25.021z M17.027,33.651c0,0.936-0.601,1.749-1.495,2.024l-2.008,0.618l0.506,0.633
								c2.169,2.71,5.399,4.265,8.864,4.265c0.613,0,1.234-0.051,1.846-0.151l0.462-0.075v-7.461l-0.639,0.104
								c-0.158,0.026-0.317,0.039-0.471,0.039h-3.221c-0.691,0-1.364-0.244-1.895-0.686l-1.95-1.625V33.651L17.027,33.651z
								 M15.139,27.688c0.112,0.7,0.474,1.335,1.018,1.789l3.377,2.814c0.375,0.312,0.85,0.484,1.338,0.484h3.221
								c0.258,0,0.513-0.049,0.759-0.144l0.351-0.137v-4.753c0-1.98,1.611-3.59,3.59-3.59h1.598l0.354-2.215l-0.407-0.164
								c-0.414-0.167-0.705-0.53-0.779-0.973l-0.52-3.121l-0.378-0.071c-0.44-0.083-0.862-0.27-1.221-0.539L27.11,16.82
								l-0.331,0.248c-0.514,0.387-1.128,0.591-1.773,0.591c-0.645,0-1.258-0.204-1.773-0.591l-0.331-0.248l-0.331,0.248
								c-0.515,0.387-1.128,0.591-1.773,0.591c-0.645,0-1.258-0.204-1.773-0.591l-0.331-0.248l-0.331,0.248
								c-0.359,0.269-0.781,0.456-1.221,0.539l-0.378,0.071l-0.52,3.121c-0.103,0.618-0.633,1.067-1.259,1.067h-0.78L15.139,27.688z
								 M12.591,22.043c-0.378,0.225-0.613,0.635-0.613,1.07v1.683c0,0.688,0.56,1.248,1.248,1.248h0.769l-0.707-4.417
								L12.591,22.043z M31.272,24.151h1.714v-1.037c0-0.436-0.235-0.846-0.612-1.07l-0.698-0.415L31.272,24.151z M29.402,16.769
								c0.213,0,0.393,0.153,0.428,0.363l0.646,3.873l0.477-0.011c1.008-0.023,1.026-0.028,1.103-0.048
								c0.532-0.141,0.905-0.602,0.929-1.147l0.002-0.05l-0.007-0.05c-0.003-0.021-0.005-0.042-0.007-0.062
								c-0.018-0.2,0.101-0.386,0.29-0.451c0.841-0.293,1.406-1.082,1.406-1.964c0-0.652-0.295-1.117-0.543-1.392
								c-0.149-0.166-0.149-0.417,0-0.582c0.248-0.276,0.543-0.74,0.543-1.392c0-0.936-0.636-1.761-1.546-2.007
								c-0.12-0.033-0.221-0.115-0.276-0.226c-0.055-0.111-0.061-0.241-0.014-0.356c0.102-0.253,0.153-0.514,0.153-0.776
								c0-1.126-0.915-2.063-2.041-2.089l-0.042-0.001L30.86,8.407c-0.032,0.004-0.059,0.007-0.087,0.009
								c-0.01,0.001-0.019,0.001-0.028,0.001c-0.184,0-0.349-0.117-0.41-0.292c-0.293-0.841-1.082-1.406-1.964-1.406
								c-0.206,0-0.413,0.036-0.632,0.11c-0.045,0.015-0.092,0.023-0.139,0.023c-0.123,0-0.24-0.052-0.322-0.143
								c-0.486-0.536-1.144-0.831-1.852-0.831c-0.174,0-0.355,0.021-0.552,0.066c-0.031,0.007-0.063,0.011-0.095,0.011
								c-0.111,0-0.217-0.042-0.298-0.118c-0.549-0.516-1.26-0.8-2-0.8c-0.74,0-1.45,0.284-2,0.8
								c-0.081,0.076-0.187,0.118-0.298,0.118c-0.032,0-0.064-0.004-0.095-0.011c-0.198-0.045-0.378-0.066-0.552-0.066
								c-0.659,0-1.282,0.256-1.756,0.72c-0.082,0.08-0.192,0.125-0.31,0.125c-0.014,0-0.023,0-0.031-0.001l-0.025-0.002l-0.025,0
								c-0.862,0.018-1.634,0.583-1.92,1.406c-0.061,0.174-0.226,0.292-0.412,0.292c-0.009,0-0.017,0-0.026-0.001
								c-0.028-0.002-0.057-0.005-0.085-0.009l-0.043-0.006L14.86,8.402c-1.125,0.026-2.041,0.963-2.041,2.089
								c0,0.262,0.052,0.523,0.154,0.777c0.046,0.115,0.041,0.245-0.014,0.356c-0.055,0.111-0.156,0.193-0.276,0.226
								c-0.91,0.246-1.546,1.072-1.546,2.007c0,0.652,0.295,1.117,0.543,1.392c0.15,0.166,0.15,0.417,0,0.582
								c-0.248,0.275-0.543,0.74-0.543,1.392c0,0.882,0.565,1.671,1.406,1.964c0.189,0.066,0.308,0.251,0.29,0.45
								c-0.002,0.024-0.005,0.045-0.008,0.068l-0.006,0.047l0.002,0.048c0.023,0.545,0.396,1.006,0.927,1.147
								c0.077,0.021,0.095,0.025,1.104,0.048l0.477,0.011l0.646-3.874c0.035-0.207,0.218-0.363,0.427-0.363
								c0.011,0,0.022,0,0.033,0.001c0.035,0.002,0.069,0.007,0.103,0.012l0.051,0.007l0.04-0.001
								c0.686-0.012,1.323-0.363,1.704-0.937c0.081-0.122,0.216-0.194,0.363-0.194c0.146,0,0.282,0.073,0.363,0.195
								c0.389,0.587,1.04,0.938,1.741,0.938c0.701,0,1.352-0.351,1.741-0.938c0.081-0.122,0.216-0.194,0.363-0.194
								c0.146,0,0.282,0.073,0.363,0.195c0.389,0.587,1.04,0.937,1.741,0.937c0.701,0,1.352-0.351,1.741-0.938
								c0.081-0.122,0.216-0.194,0.363-0.194c0.146,0,0.282,0.073,0.363,0.195c0.381,0.575,1.018,0.925,1.704,0.937l0.042,0.001
								l0.041-0.005c0.041-0.006,0.075-0.01,0.109-0.013C29.38,16.769,29.391,16.769,29.402,16.769z"/>
						</g>
					</g>
				</g>
			</g>
			<g>
				<g>
					<g>
						<g>
							<path style="fill:#758586;" d="M44.57,37.642c-1.4,0-2.539-1.139-2.539-2.539c0-1.4,1.139-2.539,2.539-2.539
								s2.539,1.139,2.539,2.539C47.109,36.504,45.97,37.642,44.57,37.642z M44.57,33.435c-0.92,0-1.669,0.749-1.669,1.669
								c0,0.92,0.749,1.669,1.669,1.669s1.669-0.749,1.669-1.669S45.49,33.435,44.57,33.435z"/>
						</g>
					</g>
				</g>
			</g>
		</g>
		<rect style="fill:none;" width="66" height="66"/>
	</g>
</g>
<g>
</g>
<g>
</g>
<g>
</g>
<g>
</g>
<g>
</g>
<g>
</g>
<g>
</g>
<g>
</g>
<g>
</g>
<g>
</g>
<g>
</g>
</svg>
