<?xml version="1.0" encoding="UTF-8"?>
<!DOCTYPE svg PUBLIC "-//W3C//DTD SVG 1.1//EN" "http://www.w3.org/Graphics/SVG/1.1/DTD/svg11.dtd">
<!-- Creator: CorelDRAW 2018 (64-Bit Evaluation Version) -->
<svg xmlns="http://www.w3.org/2000/svg" xml:space="preserve" width="43.3494mm" height="43.3492mm" version="1.1" style="shape-rendering:geometricPrecision; text-rendering:geometricPrecision; image-rendering:optimizeQuality; fill-rule:evenodd; clip-rule:evenodd"
viewBox="0 0 2521.88 2521.86"
 xmlns:xlink="http://www.w3.org/1999/xlink">
 <defs>
  <style type="text/css">
   <![CDATA[
    .fil0 {fill:#F3F3F4}
    .fil1 {fill:#BDBFC1}
    .fil20 {fill:#61A49E}
    .fil8 {fill:#FEFEFE;fill-rule:nonzero}
    .fil19 {fill:#F1644F;fill-rule:nonzero}
    .fil10 {fill:#E8E7E8;fill-rule:nonzero}
    .fil3 {fill:#C9C8C9;fill-rule:nonzero}
    .fil5 {fill:#C08C60;fill-rule:nonzero}
    .fil16 {fill:#B9774D;fill-rule:nonzero}
    .fil7 {fill:#A96644;fill-rule:nonzero}
    .fil18 {fill:#A3593A;fill-rule:nonzero}
    .fil2 {fill:#87CFC9;fill-rule:nonzero}
    .fil17 {fill:#483831;fill-rule:nonzero}
    .fil6 {fill:#789783;fill-rule:nonzero}
    .fil4 {fill:#6DA8A1;fill-rule:nonzero}
    .fil15 {fill:#6C8C7E;fill-rule:nonzero}
    .fil11 {fill:#595657;fill-rule:nonzero}
    .fil13 {fill:#4A4948;fill-rule:nonzero}
    .fil12 {fill:#5A8681;fill-rule:nonzero}
    .fil14 {fill:#46444F;fill-rule:nonzero}
    .fil9 {fill:#2B7098;fill-rule:nonzero}
   ]]>
  </style>
   <mask id="id0">
  <linearGradient id="id1" gradientUnits="userSpaceOnUse" x1="1261.96" y1="884.41" x2="1261.98" y2="2762.27">
   <stop offset="0" style="stop-opacity:0; stop-color:white"/>
   <stop offset="1" style="stop-opacity:1; stop-color:white"/>
  </linearGradient>
    <rect style="fill:url(#id1)" x="146.88" y="447.6" width="2228.12" height="1289.19"/>
   </mask>
    <clipPath id="id2">
     <path d="M1036.28 1688.23l0.47 0.25 0.47 0.12 0.47 0.25 -1.41 -0.62zm26.2 9.79c0.94,0.24 1.64,0.49 2.34,0.87l0.47 0c0.93,0.37 1.87,0.62 2.8,0.99 -1.87,-0.62 -3.74,-1.24 -5.61,-1.86zm13.81 4.46c2.11,0.74 4.21,1.36 6.31,2.11 -2.11,-0.74 -4.21,-1.36 -6.31,-2.11zm13.33 4.09c1.4,0.37 2.57,0.87 3.97,1.24l0.24 0c1.63,0.49 3.51,0.99 5.14,1.36 -3.28,-0.87 -6.31,-1.73 -9.35,-2.6zm13.1 3.59c3.51,0.99 7.25,1.98 11,2.85 -3.75,-0.87 -7.49,-1.86 -11,-2.85zm13.1 3.47c4.68,1.11 9.12,2.11 13.8,3.09 -4.44,-0.99 -9.12,-1.98 -13.8,-3.09zm16.14 3.59c3.98,0.87 7.96,1.74 11.93,2.48 -3.97,-0.74 -7.95,-1.61 -11.93,-2.48zm15.21 3.1c3.51,0.62 7.02,1.36 10.53,1.86 -3.51,-0.49 -7.02,-1.24 -10.53,-1.86zm16.84 2.97c2.58,0.37 4.92,0.74 7.49,1.12 -2.57,-0.37 -4.91,-0.74 -7.49,-1.12zm16.14 2.36c1.87,0.24 3.75,0.49 5.61,0.74 -1.87,-0.25 -3.74,-0.5 -5.61,-0.74zm141.06 2.36c1.41,-0.13 3.04,-0.25 4.68,-0.5 -1.64,0.25 -3.28,0.37 -4.68,0.5zm14.04 -1.61c2.58,-0.25 4.92,-0.62 7.49,-0.87 -2.57,0.24 -4.91,0.62 -7.49,0.87zm14.27 -1.86c3.51,-0.49 7.02,-0.99 10.3,-1.61 -3.28,0.62 -6.79,1.12 -10.3,1.61zm13.33 -2.11c22.23,-3.72 43.98,-8.55 65.27,-14.62l0 0c1.87,-0.5 3.74,-1.12 5.61,-1.74 -23.39,6.94 -47.02,12.39 -70.89,16.36zm74.63 -17.35c2.81,-0.87 5.61,-1.73 8.66,-2.73 -3.04,0.99 -5.85,1.86 -8.66,2.73zm16.14 -5.08c1.87,-0.74 3.98,-1.37 5.85,-2.11 -1.87,0.74 -3.97,1.36 -5.85,2.11zm30.65 -11.15l0.47 -0.25 0.23 0 0.7 -0.37 -1.4 0.62zm344.82 -344.11l0.24 -0.49 0.23 -0.25 0.23 -0.62 -0.7 1.37zm4.92 -12.76l0.7 -1.61 0 -0.49 0.7 -1.86 -1.4 3.97zm4.68 -13.14c0.23,-0.87 0.7,-1.73 0.94,-2.73l0 -0.12c0.47,-1.12 0.7,-2.23 1.17,-3.35 -0.7,2.11 -1.4,4.21 -2.11,6.2zm4.44 -13.38l0 -0.25 0 0 0 0.25z"/>
    </clipPath>
 </defs>
 <g id="Layer_x0020_1">
  <metadata id="CorelCorpID_0Corel-Layer"/>
  <rect class="fil0" x="0" y="-0" width="2521.87" height="2521.87"/>
  <path class="fil1" style="mask:url(#id0)" d="M1260.94 453.41c612.07,0 1108.24,285.99 1108.24,638.78 0,352.79 -496.18,638.78 -1108.24,638.78 -612.07,0 -1108.24,-285.99 -1108.24,-638.78 0,-352.79 496.18,-638.78 1108.24,-638.78z"/>
  <g id="_2095616424144">
   <path class="fil2" d="M1692.87 1552.06l0 0.01c-3.58,3.58 -7.2,7.1 -10.84,10.57 -1.74,1.66 -3.51,3.28 -5.27,4.91 -1.87,1.74 -3.74,3.5 -5.63,5.21 -2.49,2.26 -5.01,4.48 -7.54,6.7 -1.14,1 -2.27,2.01 -3.42,3.01 -2.96,2.56 -5.96,5.08 -8.98,7.59 -0.72,0.61 -1.44,1.22 -2.16,1.82 -3.35,2.76 -6.73,5.47 -10.14,8.16l-1.13 0.9c-3.7,2.9 -7.43,5.77 -11.19,8.58l-0.22 0.16c-23.46,17.53 -48.21,33.43 -74.1,47.49l-0.33 0.18c-4.03,2.19 -8.09,4.33 -12.17,6.42l-1.72 0.88c-3.65,1.86 -7.32,3.68 -11.01,5.47l-3.07 1.47c-3.26,1.56 -6.54,3.09 -9.84,4.6 -1.5,0.68 -3.01,1.36 -4.52,2.02 -2.79,1.24 -5.58,2.48 -8.39,3.68 -2.11,0.9 -4.22,1.78 -6.33,2.66 -2.24,0.93 -4.49,1.84 -6.73,2.75 -2.72,1.09 -5.45,2.15 -8.18,3.2 -1.67,0.64 -3.33,1.28 -5.01,1.9 -3.29,1.23 -6.59,2.43 -9.89,3.6l-3.44 1.21c-3.83,1.33 -7.66,2.62 -11.51,3.87l-1.97 0.64c-4.28,1.37 -8.57,2.71 -12.87,3.98l-0.73 0.22c-23.48,6.94 -47.29,12.44 -71.3,16.49l-0.26 0.04c-4.68,0.79 -9.37,1.52 -14.06,2.2l-0.88 0.12c-4.49,0.65 -8.98,1.23 -13.47,1.78l-1.81 0.2c-4.18,0.49 -8.36,0.95 -12.54,1.36 -1.15,0.11 -2.29,0.2 -3.44,0.3 -3.67,0.33 -7.33,0.66 -11,0.92 -1.97,0.14 -3.95,0.24 -5.93,0.37 -2.91,0.19 -5.82,0.38 -8.73,0.52 -3.14,0.15 -6.29,0.24 -9.45,0.35 -1.82,0.06 -3.64,0.15 -5.45,0.2 -5.08,0.13 -10.17,0.19 -15.28,0.19 -5.11,0 -10.21,-0.05 -15.29,-0.19 -1.79,-0.05 -3.57,-0.13 -5.35,-0.19 -3.19,-0.11 -6.38,-0.21 -9.56,-0.36 -2.86,-0.15 -5.73,-0.33 -8.59,-0.52 -2.02,-0.13 -4.05,-0.24 -6.07,-0.38 -3.64,-0.26 -7.27,-0.58 -10.91,-0.91 -1.17,-0.1 -2.34,-0.2 -3.51,-0.31 -4.15,-0.4 -8.3,-0.86 -12.45,-1.34l-1.93 -0.22c-4.46,-0.54 -8.91,-1.12 -13.36,-1.76l-1.01 -0.15c-4.65,-0.67 -9.3,-1.4 -13.94,-2.18l-0.39 -0.06c-19.26,-3.26 -38.4,-7.44 -57.34,-12.55l-0.05 -0.01c-4.61,-1.24 -9.22,-2.55 -13.82,-3.9l-0.83 -0.25c-4.27,-1.27 -8.53,-2.59 -12.79,-3.96l-2.03 -0.66c-3.82,-1.24 -7.63,-2.52 -11.43,-3.84l-3.57 -1.26c-3.26,-1.15 -6.5,-2.33 -9.74,-3.54 -1.75,-0.65 -3.48,-1.31 -5.21,-1.98 -2.65,-1.02 -5.31,-2.05 -7.95,-3.11 -2.32,-0.93 -4.63,-1.88 -6.94,-2.84 -2.06,-0.86 -4.11,-1.71 -6.17,-2.59 -2.86,-1.22 -5.71,-2.47 -8.54,-3.74l-4.36 -1.95c-3.38,-1.54 -6.74,-3.11 -10.08,-4.71l-2.77 -1.33c-3.78,-1.83 -7.54,-3.7 -11.27,-5.6l-1.48 -0.76c-4.11,-2.11 -8.2,-4.27 -12.27,-6.47l-0.33 -0.18c-30.14,-16.38 -58.75,-35.23 -85.55,-56.27l-0.97 -0.77c-3.44,-2.71 -6.86,-5.46 -10.25,-8.25l-2.16 -1.82c-3.01,-2.51 -6.02,-5.03 -8.98,-7.59 -1.15,-0.99 -2.27,-2.01 -3.41,-3.01 -2.52,-2.22 -5.06,-4.43 -7.55,-6.7 -1.88,-1.72 -3.75,-3.47 -5.63,-5.21 -1.76,-1.64 -3.53,-3.26 -5.27,-4.91 -3.65,-3.46 -7.27,-6.99 -10.84,-10.57l0 -0.01c-3.58,-3.58 -7.1,-7.19 -10.57,-10.84 -1.59,-1.67 -3.14,-3.37 -4.71,-5.06 -1.82,-1.96 -3.67,-3.91 -5.46,-5.89 -2.16,-2.38 -4.28,-4.79 -6.4,-7.21 -1.1,-1.25 -2.21,-2.49 -3.3,-3.75 -2.52,-2.91 -4.99,-5.85 -7.45,-8.81 -0.65,-0.77 -1.3,-1.54 -1.94,-2.32 -2.72,-3.3 -5.41,-6.64 -8.06,-10.01l-0.99 -1.24c-2.87,-3.67 -5.71,-7.37 -8.51,-11.09l-0.25 -0.33c-17.52,-23.44 -33.4,-48.18 -47.46,-74.05l-0.19 -0.35c-2.2,-4.05 -4.35,-8.14 -6.46,-12.26l-0.76 -1.48c-1.9,-3.72 -3.76,-7.47 -5.58,-11.23l-1.39 -2.9c-1.57,-3.29 -3.12,-6.6 -4.63,-9.92 -0.69,-1.5 -1.36,-3.01 -2.03,-4.52 -1.24,-2.79 -2.47,-5.58 -3.67,-8.39 -0.9,-2.1 -1.79,-4.22 -2.66,-6.33 -0.93,-2.24 -1.85,-4.48 -2.75,-6.73 -1.1,-2.75 -2.18,-5.5 -3.23,-8.26 -0.62,-1.61 -1.23,-3.21 -1.84,-4.83 -1.26,-3.36 -2.48,-6.73 -3.68,-10.11l-1.16 -3.29c-1.32,-3.81 -2.61,-7.63 -3.85,-11.45l-0.69 -2.12c-1.36,-4.22 -2.66,-8.46 -3.93,-12.72l-0.27 -0.91c-8.31,-28.16 -14.56,-56.8 -18.73,-85.68l-0.06 -0.45c-0.65,-4.58 -1.26,-9.17 -1.82,-13.76l-0.21 -1.81c-0.49,-4.18 -0.95,-8.37 -1.36,-12.55l-0.29 -3.33c-0.34,-3.73 -0.67,-7.46 -0.94,-11.2 -0.13,-1.73 -0.22,-3.47 -0.33,-5.21 -0.2,-3.15 -0.41,-6.29 -0.56,-9.45 -0.15,-2.96 -0.23,-5.92 -0.34,-8.88 -0.07,-1.97 -0.16,-3.94 -0.22,-5.92 -0.12,-5.08 -0.19,-10.17 -0.19,-15.28l0.01 -0.47c0,-4.29 0.06,-8.59 0.15,-12.89l0.04 -1.95c0.11,-4.46 0.27,-8.91 0.48,-13.37l0.06 -1.18c3.31,-68.11 17.96,-135.76 43.95,-199.9l0.04 -0.1 0.06 -0.15c1.59,-3.91 3.24,-7.81 4.91,-11.69l1.47 -3.38c1.34,-3.07 2.72,-6.13 4.12,-9.17 0.94,-2.07 1.9,-4.13 2.87,-6.18 1.02,-2.16 2.05,-4.32 3.11,-6.47 2.05,-4.22 4.15,-8.42 6.29,-12.58l0.24 -0.47c15.61,-30.22 33.67,-58.97 53.92,-85.98l0.34 -0.45c2.83,-3.76 5.69,-7.49 8.6,-11.18l2.41 -3.03c2.18,-2.73 4.37,-5.44 6.6,-8.13 1.66,-2.01 3.33,-4 5.01,-5.99 1.45,-1.72 2.92,-3.43 4.4,-5.13 2.43,-2.79 4.86,-5.58 7.35,-8.34l2.36 -2.59c2.81,-3.08 5.64,-6.15 8.52,-9.2l1.75 -1.82c3.09,-3.23 6.22,-6.45 9.4,-9.63l1.4 -1.39c3.19,-3.17 6.4,-6.31 9.64,-9.4l2.1 -1.98c235.17,-222.19 603.57,-222.14 838.68,0.16l1.84 1.74c3.27,3.12 6.52,6.28 9.73,9.49l1.4 1.38c3.2,3.21 6.35,6.45 9.47,9.71l1.62 1.68c2.91,3.08 5.79,6.18 8.62,9.31l2.25 2.46c2.5,2.78 4.95,5.58 7.39,8.39 1.52,1.75 3.03,3.51 4.53,5.28 1.65,1.94 3.29,3.9 4.9,5.86 2.24,2.71 4.46,5.45 6.66,8.2l2.31 2.9c2.98,3.79 5.93,7.61 8.82,11.47l0.11 0.15c23.19,30.93 43.51,64.14 60.57,99.22 0.91,1.87 1.8,3.75 2.69,5.62 1.13,2.38 2.24,4.76 3.34,7.16 1.38,3.03 2.76,6.07 4.1,9.13l1.4 3.23c1.64,3.8 3.25,7.62 4.81,11.44l0.16 0.38 0.04 0.1 0.01 0.01c25.99,64.13 40.64,131.79 43.95,199.89l0.06 1.18c0.2,4.46 0.37,8.91 0.48,13.37l0.04 1.95c0.09,4.29 0.15,8.59 0.15,12.89l0.01 0.47c0,5.11 -0.06,10.2 -0.2,15.28 -0.05,1.97 -0.14,3.94 -0.21,5.92 -0.1,2.96 -0.19,5.93 -0.34,8.88 -0.16,3.15 -0.36,6.3 -0.56,9.45 -0.11,1.73 -0.2,3.47 -0.33,5.21 -0.27,3.73 -0.59,7.47 -0.94,11.2 -0.1,1.11 -0.19,2.22 -0.3,3.33 -0.4,4.19 -0.86,8.37 -1.35,12.55l-0.21 1.81c-0.55,4.6 -1.16,9.18 -1.82,13.76l-0.06 0.45c-4.18,28.88 -10.42,57.52 -18.73,85.68l-0.27 0.91c-1.26,4.25 -2.57,8.49 -3.93,12.72l-0.69 2.12c-1.24,3.82 -2.52,7.64 -3.85,11.45l-1.16 3.29c-1.2,3.37 -2.42,6.75 -3.68,10.11 -0.61,1.62 -1.22,3.22 -1.84,4.83 -1.05,2.76 -2.13,5.52 -3.23,8.26 -0.9,2.25 -1.83,4.49 -2.75,6.73 -0.87,2.11 -1.76,4.22 -2.66,6.33 -1.2,2.81 -2.43,5.61 -3.67,8.39 -0.67,1.51 -1.34,3.02 -2.03,4.52 -1.52,3.33 -3.06,6.63 -4.63,9.92l-1.4 2.9c-1.82,3.76 -3.68,7.51 -5.58,11.23l-0.76 1.48c-2.11,4.11 -4.26,8.2 -6.46,12.26l-0.19 0.35c-14.07,25.87 -29.94,50.61 -47.47,74.05l-0.24 0.33c-2.79,3.73 -5.63,7.43 -8.51,11.09l-0.99 1.24c-2.66,3.37 -5.34,6.7 -8.06,10.01l-1.94 2.32c-2.46,2.96 -4.93,5.9 -7.45,8.81 -1.06,1.23 -2.14,2.43 -3.21,3.65 -2.16,2.47 -4.33,4.94 -6.54,7.37 -1.69,1.86 -3.42,3.69 -5.13,5.53 -1.66,1.79 -3.31,3.59 -4.99,5.36 -3.44,3.64 -6.96,7.23 -10.53,10.8l-0.03 0.03z"/>
   <g style="clip-path:url(#id2)">
    <image x="1023.64" y="1299.51" width="825.34" height="437.17" xlink:href="manager_Images\manager_ImgID1.png"/>
   </g>
   <path class="fil3" d="M1475.98 548.23c-12.05,-4.53 -24.24,-8.66 -36.51,-12.4l1.11 -26.38 0 0c-3.33,-95.5 -95.37,-170.16 -190.68,-170.16 -2.12,0 -4.22,0.03 -6.34,0.1 -97.61,3.41 -188.09,85.76 -184.68,183.38l2.23 19.96c-0.55,0.19 -1.1,0.38 -1.65,0.57 -4.03,-41.34 -5.39,-86.7 -1.66,-118.5 -6.59,-6.74 -10.82,-15.84 -11.17,-26.01 -0.76,-21.65 16.17,-39.81 37.82,-40.56 0.3,-0.01 0.59,-0.02 0.88,-0.02 0.77,0 1.53,0.03 2.29,0.07 3.53,-16.94 16.91,-30.36 34.07,-33.77 0.48,-0.84 1.06,-1.61 1.59,-2.4 1.11,-17.96 15.53,-32.52 33.88,-33.16 0.38,-0.02 0.77,-0.02 1.15,-0.02 5.45,0 10.57,1.35 15.21,3.56 7.07,-13.63 20.95,-23.24 37.4,-23.81 0.51,-0.02 1.04,-0.02 1.54,-0.02 8.34,0 16.15,2.34 22.83,6.4 7.95,-7.2 18.37,-11.75 29.93,-12.15 0.56,-0.02 1.11,-0.03 1.66,-0.03 10.16,0 19.59,3.28 27.33,8.81 7.2,-4.52 15.62,-7.31 24.73,-7.62 0.59,-0.02 1.18,-0.03 1.77,-0.03 16.09,0 30.47,7.7 39.61,19.68 4.04,-1.3 8.31,-2.11 12.76,-2.27 0.55,-0.02 1.11,-0.02 1.66,-0.02 25.12,0 45.91,19.91 46.79,45.21 0.05,1.45 0.01,2.88 -0.06,4.3 11.26,5.84 19.63,16.5 22.33,29.36 19.29,1.95 34.67,17.85 35.36,37.77 0.31,8.9 -2.39,17.19 -7.15,23.96 5.21,35.92 6.07,84.66 3.94,126.21z"/>
   <path class="fil4" d="M1229.95 1730.19l-0.94 -0.05c-4.65,-0.24 -9.27,-0.54 -13.89,-0.88l-2.34 -0.18c-4.12,-0.32 -8.24,-0.69 -12.34,-1.09l-4.08 -0.42c-3.51,-0.37 -7.02,-0.77 -10.51,-1.2 -1.9,-0.23 -3.8,-0.48 -5.7,-0.73 -2.87,-0.38 -5.74,-0.78 -8.59,-1.2 -2.55,-0.38 -5.1,-0.76 -7.64,-1.17 -2.11,-0.34 -4.21,-0.69 -6.31,-1.05 -3.51,-0.6 -7.03,-1.23 -10.53,-1.89l-3.24 -0.62c-3.99,-0.77 -7.97,-1.59 -11.94,-2.44l-0.35 -0.08 -3.52 -0.77c-3.51,-0.78 -7.03,-1.59 -10.53,-2.44l-3.5 -0.85 -0.26 -0.06c-3.72,-0.92 -7.43,-1.88 -11.13,-2.87l-3.67 -0.99c-3.14,-0.86 -6.26,-1.74 -9.38,-2.65 -2.29,-0.67 -4.57,-1.35 -6.85,-2.04 -2.17,-0.66 -4.33,-1.33 -6.5,-2.02 -2.75,-0.87 -5.49,-1.76 -8.22,-2.66 -1.8,-0.6 -3.6,-1.2 -5.4,-1.82 -3.32,-1.14 -6.61,-2.3 -9.9,-3.49l-3.27 -1.19c-3.9,-1.44 -7.8,-2.91 -11.66,-4.43l-1.58 -0.62c-11.65,-4.61 -23.11,-9.6 -34.4,-14.9 -7.68,-128.25 -12.65,-343.05 -14.19,-417.07l-138.57 69.04c-10.22,6.22 -21.69,9.29 -33.1,9.29 -14.49,0 -28.9,-4.93 -40.59,-14.61 -20.91,-17.31 -28.55,-45.98 -19.03,-71.39l170.52 -455.07 5.94 2.23 11.62 -45.82 32.65 126.56c4.9,18.99 22,31.59 40.73,31.59 0.7,0 1.41,-0.01 2.11,-0.06l-28.97 77.3c35.52,-16.77 80.72,-30.48 133.95,-48.02 4.24,-1.87 12.48,-5.5 21.71,-9.56l7.02 236.38 19.48 0 0 36.56 169.75 0 0 -36.56 19.37 0 7.07 -237.71 -26.45 -12.19 0 -70.6c37.53,-27.01 71.82,-67.85 84.77,-112.08 3.91,-13.35 5.88,-27.01 5.4,-40.69l0 0c18.94,-0.8 33.83,-16.35 33.88,-35.18 0,-0.45 0,-0.91 -0.02,-1.37l-1.29 -36.76c-0.57,-16.6 -12.55,-30.02 -28.12,-33.28l2.04 -48.47c12.26,3.73 24.46,7.87 36.51,12.4 -0.85,16.58 -2.18,32.01 -3.9,45.02 6.54,6.14 10.81,14.66 11.16,24.34l1.28 36.76c0.67,19.44 -14.47,35.73 -33.87,36.55 0.12,3.39 0.05,6.76 -0.12,10.13 -0.27,5.26 -0.84,10.48 -1.77,15.69l-0.27 1.31c-0.45,2.41 -0.94,4.82 -1.53,7.21 -0.2,0.83 -0.47,1.66 -0.69,2.49 -0.52,1.99 -1.04,3.99 -1.64,5.96l-0.58 1.7c-0.72,2.23 -1.45,4.45 -2.27,6.66 -0.74,2.02 -1.59,4.02 -2.42,6.02l-0.9 2.24c-16.02,36.89 -45.81,70.16 -77.96,93.3l0 65.91 0.83 -0.77c0,0 51.56,22.71 64.86,28.56 92.02,30.33 160.17,49.04 195.67,92.4l0.02 -0.05 0.55 0.7 0.69 0.84 220.09 274 -0.07 0.22c-0.77,2.43 -1.55,4.85 -2.36,7.27 -0.69,2.06 -1.38,4.12 -2.08,6.17 -1.06,3.08 -2.14,6.14 -3.24,9.2l-1.44 3.94c-1.4,3.79 -2.84,7.57 -4.31,11.33l-0.56 1.43c-1.64,4.15 -3.32,8.27 -5.06,12.37l-0.58 1.39c-1.76,4.15 -3.57,8.29 -5.43,12.4l-0.51 1.13c-1.86,4.08 -3.75,8.15 -5.69,12.19l-0.68 1.41c-1.93,3.99 -3.9,7.96 -5.92,11.9l-0.69 1.36c-2.05,3.99 -4.14,7.95 -6.27,11.88l-0.6 1.11c-2.18,3.99 -4.39,7.95 -6.64,11.89l-0.53 0.91c-2.29,3.97 -4.62,7.92 -7,11.84l-0.49 0.8c-2.43,3.99 -4.89,7.95 -7.41,11.88l-0.26 0.41c-2.57,4 -5.18,7.97 -7.84,11.91l-0.24 0.35c-2.67,3.96 -5.39,7.88 -8.16,11.77l-0.2 0.28c-2.78,3.91 -5.6,7.78 -8.48,11.62l-0.15 0.2c-2.9,3.87 -5.84,7.7 -8.81,11.5l-0.05 0.07c-27.16,34.56 -57.97,66.1 -91.85,94.08l-0.19 0.16c-3.68,3.04 -7.41,6.04 -11.16,8.99l-0.31 0.24c-3.71,2.92 -7.46,5.79 -11.24,8.62l-0.47 0.35c-3.73,2.8 -7.51,5.54 -11.32,8.26l-0.62 0.44c-3.75,2.66 -7.55,5.29 -11.36,7.88l-0.83 0.56c-3.79,2.55 -7.6,5.06 -11.44,7.53l-0.9 0.58c-3.78,2.42 -7.6,4.8 -11.44,7.14l-1.21 0.74c-3.78,2.29 -7.58,4.54 -11.41,6.75l-1.38 0.8c-3.83,2.19 -7.69,4.35 -11.57,6.46l-1.33 0.72c-3.86,2.09 -7.75,4.15 -11.66,6.16l-1.54 0.79c-3.89,1.98 -7.8,3.93 -11.73,5.83l-1.59 0.76c-3.94,1.9 -7.91,3.75 -11.9,5.56l-1.53 0.69c-3.99,1.8 -8,3.55 -12.04,5.27l-1.7 0.72c-3.98,1.68 -7.98,3.31 -12.01,4.91l-1.53 0.61c-3.82,1.5 -7.66,2.96 -11.51,4.37l-3.77 1.38c-3.12,1.13 -6.27,2.23 -9.41,3.31 -1.98,0.68 -3.97,1.36 -5.96,2.01 -2.51,0.83 -5.02,1.65 -7.54,2.44 -2.88,0.91 -5.76,1.8 -8.65,2.67l-3.57 1.06c-23.38,6.88 -47.1,12.33 -71,16.35l-2.92 0.49c-3.44,0.56 -6.89,1.09 -10.34,1.59 -2.26,0.33 -4.53,0.65 -6.8,0.95 -2.48,0.34 -4.96,0.65 -7.45,0.95 -3.15,0.38 -6.31,0.75 -9.48,1.08 -1.54,0.17 -3.09,0.32 -4.63,0.48 -3.93,0.38 -7.85,0.74 -11.8,1.05l-2.8 0.22c-4.58,0.34 -9.18,0.63 -13.8,0.87l-0.85 0.04c-10.27,0.52 -20.6,0.78 -31,0.78 -10.39,0 -20.72,-0.26 -30.98,-0.78zm334.06 -495.81c-0.53,27.44 -3.79,188.62 -9.3,327.67 3.49,-1.02 6.89,-1.85 10.19,-2.54l-1 -1.68 160.05 -181.25 -159.94 -142.2zm-526.85 -326.73c-2.96,0 -5.89,-0.31 -8.74,-0.88l21.08 -5.45c22.51,-5.8 36.06,-28.76 30.25,-51.28l-0.41 -1.59c-0.04,-0.15 -0.08,-0.3 -0.11,-0.44l-55.62 -215.56c-0.02,-0.08 -0.04,-0.16 -0.06,-0.24l-0.47 -1.79c-4.08,-15.83 -16.64,-27.22 -31.57,-30.57 2.34,-0.38 4.68,-0.56 7,-0.56 2.18,0 4.33,0.17 6.45,0.48 5.68,0.84 11.1,2.79 15.97,5.67 7.31,4.3 13.38,10.71 17.25,18.63 1.29,2.64 2.33,5.45 3.09,8.4l0.21 0.8 1.25 35.9c0.41,11.59 6.34,21.69 15.19,27.83l5.79 22.42c16.81,20.82 29.27,48.16 23.83,62.71l-5.66 7.71 15 58.19c0.69,2.67 1.05,5.34 1.23,7.99 0.06,0.83 0.04,1.64 0.05,2.47 0.02,1.85 -0.06,3.68 -0.26,5.49 -0.1,0.9 -0.2,1.78 -0.35,2.67 -0.34,1.89 -0.81,3.73 -1.38,5.54l-0.57 1.99c-0.81,2.22 -1.84,4.35 -2.99,6.4 -0.57,1.02 -1.24,1.95 -1.88,2.92 -0.73,1.09 -1.5,2.16 -2.32,3.19 -0.81,1 -1.63,1.97 -2.52,2.9 -0.86,0.89 -1.8,1.71 -2.73,2.54 -5.06,4.45 -11.06,7.95 -18.02,9.74l-17.13 4.42c-3.64,0.94 -7.27,1.38 -10.86,1.38zm29.55 -310.34c-2.84,-15.88 -5.34,-34.48 -7.24,-53.99 0.55,-0.19 1.1,-0.38 1.65,-0.57l6.1 54.42c-0.17,0.05 -0.34,0.09 -0.51,0.15z"/>
   <polygon class="fil5" points="1369.25,926.46 1342.81,914.27 1342.81,830.19 1173.06,830.19 1173.06,914.27 1146.5,925.73 1153.57,1164.17 1173.06,1164.17 1173.06,1200.74 1342.81,1200.74 1342.81,1164.17 1362.18,1164.17 "/>
   <path class="fil6" d="M1173.06 871.49l-0.04 -0.01 0 -26.42c0.02,0.01 0.02,0.02 0.04,0.02l0 26.41z"/>
   <path class="fil7" d="M1342.77 907.12l-169.71 -35.63 0 -26.41c29.69,19.71 61.31,31.6 86.55,31.6 0.91,0 1.81,-0.02 2.71,-0.05 23.81,-0.83 52.99,-13.18 80.45,-32.92l0 63.42z"/>
   <path class="fil8" d="M1619.41 1054c-31.12,-67.83 -118.47,-84.59 -243.66,-127.67 -4.46,-1.56 -8.98,-3.12 -13.51,-4.74l-0.15 0.7c-8.24,46.62 -31.64,106.97 -104.2,114.04 -72.54,-7.07 -95.95,-67.43 -104.2,-114.04l-0.14 -0.7c-4.53,1.62 -9.05,3.18 -13.51,4.74 -125.19,43.07 -212.54,59.83 -243.66,127.67 -38.98,86.42 72.99,176.26 72.99,176.26 0,0 5.14,275.75 14.21,434.26 83.23,42.49 177.49,66.46 277.35,66.46 97.37,0 189.4,-22.82 271.09,-63.35 9.19,-157.98 14.39,-437.37 14.39,-437.37 0,0 111.98,-89.84 72.99,-176.26z"/>
   <polygon class="fil9" points="1298.73,1021.42 1282.44,1052.64 1232.85,1052.64 1217.02,1021.42 1257.88,988.03 "/>
   <polygon class="fil10" points="1257.88,988.03 1205.67,1043 1104.13,938.7 1172.12,908.75 1193.06,928.14 "/>
   <polygon class="fil10" points="1257.88,988.03 1310.09,1043 1411.62,938.7 1343.64,908.75 1322.69,928.14 "/>
   <path class="fil9" d="M1282.44 1060.09l20.18 649.85 -18.59 20.55c-7.66,0.29 -15.35,0.48 -23.09,0.48 -9.87,0 -19.68,-0.26 -29.44,-0.72l-18.37 -20.31 19.72 -649.85 49.59 0z"/>
   <path class="fil11" d="M977.02 876.55l-56.67 -219.64c-5.81,-22.51 7.74,-45.48 30.25,-51.29l21.2 -5.46c22.51,-5.81 45.47,7.73 51.28,30.25l56.67 219.64c5.81,22.52 -7.74,45.48 -30.25,51.28l-21.19 5.47c-22.51,5.81 -45.48,-7.74 -51.29,-30.25z"/>
   <path class="fil12" d="M1079.34 848.44l-55.79 -216.25c0.02,0.09 0.04,0.16 0.06,0.24l55.62 215.56c0.03,0.15 0.07,0.29 0.11,0.44z"/>
   <path class="fil13" d="M1062.55 894.62c7.95,-10.4 11.36,-24.11 7.84,-37.78l-55.61 -215.56c-5.15,-19.94 -23.1,-33.18 -42.78,-33.18 -3.65,0 -7.37,0.47 -11.08,1.41l-17.12 4.42c-5.62,1.45 -10.66,3.98 -15.07,7.22 5.8,-7.6 13.94,-13.49 23.92,-16.06l17.12 -4.42c3.71,-0.95 7.42,-1.41 11.08,-1.41 19.59,0 37.48,13.12 42.71,32.93l55.79 216.25c4.41,17.87 -2.78,35.88 -16.8,46.18z"/>
   <path class="fil14" d="M964.2 648.48l-2.83 -10.96c-1.16,-4.51 1.58,-9.17 6.1,-10.33 4.53,-1.17 9.17,1.58 10.34,6.1l2.83 10.95c1.17,4.52 -1.58,9.17 -6.1,10.34 -4.52,1.16 -9.17,-1.57 -10.34,-6.1z"/>
   <path class="fil5" d="M1069.88 782.1l-65 88.54 -99.35 -37.23 29.63 -116.83c8.66,-23.1 52.06,-33.48 79.49,-23.2 27.43,10.28 63.88,65.63 55.23,88.72z"/>
   <path class="fil8" d="M798.23 1334.65c-14.5,0 -28.9,-4.93 -40.59,-14.61 -20.92,-17.31 -28.55,-45.96 -19.03,-71.39l170.52 -455.07 119.22 44.67 -105.87 282.52 34.15 -20.8 66.22 129.95 -191.53 95.43c-10.22,6.22 -21.69,9.29 -33.1,9.29z"/>
   <path class="fil5" d="M1495.8 1621.75l110.71 -84.41 41.93 54.99c-44.36,36.45 -93.97,66.76 -147.5,89.66 -13.96,-21.4 -23.42,-46.3 -5.14,-60.24z"/>
   <path class="fil5" d="M1498.35 1581.26c38.63,-29.44 85.1,-24.6 87.43,-23.9 9.15,2.75 14.81,12.4 12.65,21.55 -2.16,9.13 -11.29,14.31 -20.43,11.59 -0.19,-0.06 -2.32,-0.12 -5.82,0.13 -3.51,0.24 -8.38,0.8 -14.02,1.96 -11.28,2.33 -25.64,7.11 -38.36,16.79 -7.29,5.57 -18.01,3.78 -23.93,-3.99 -5.92,-7.76 -4.81,-18.56 2.48,-24.13z"/>
   <path class="fil8" d="M1591.47 1633.88l-45.25 -76.05 160.05 -181.25 -168.93 -150.19 66.84 -196.72 233.84 291.11c-45.16,129.89 -132.9,239.84 -246.55,313.11z"/>
   <path class="fil5" d="M1437.44 584.31l3.14 -74.85c-3.41,-97.62 -99.47,-173.46 -197.02,-170.05 -97.61,3.41 -188.09,85.76 -184.68,183.38l8.34 74.38c-5.42,1.51 -10.26,4.18 -14.25,7.86 -7.4,6.77 -11.87,16.55 -11.5,27.37l1.29 36.75c0.68,19.44 16.88,34.66 36.36,34.1 3.22,92.18 117.03,175.69 183.21,173.39 66.17,-2.31 173.88,-93.55 170.66,-185.73 19.4,-0.81 34.54,-17.11 33.86,-36.55l-1.29 -36.76c-0.57,-16.6 -12.55,-30.02 -28.12,-33.28z"/>
   <path class="fil15" d="M1427.58 731.59c3.92,-13.35 5.88,-27.01 5.4,-40.69 0.48,13.68 -1.49,27.35 -5.4,40.69z"/>
   <path class="fil16" d="M1262.29 876.62l-5.31 -151.97 -42.41 1.48c0,0 13.85,-80.05 37.72,-135.78l-8.73 -250.94c2.12,-0.08 4.22,-0.1 6.34,-0.1 95.31,0 187.35,74.66 190.68,170.16l-3.14 74.85 0 0c15.57,3.26 27.55,16.68 28.12,33.28l1.29 36.76c0.02,0.46 0.02,0.91 0.02,1.37 -0.05,18.83 -14.94,34.38 -33.88,35.18l0 0c0.48,13.68 -1.48,27.34 -5.4,40.69 -22.44,76.61 -108.89,143.05 -165.29,145.04zm72.07 -295.7c-0.65,0 -1.31,0.02 -1.98,0.07 -15.38,1.07 -26.99,14.42 -25.92,29.81 1.04,14.73 13.29,25.99 27.84,25.99 0.66,0 1.31,-0.03 1.98,-0.08 15.39,-1.06 26.99,-14.42 25.92,-29.8 -1.03,-14.73 -13.3,-25.99 -27.84,-25.99z"/>
   <path class="fil7" d="M1171.72 642.47c-14.54,0 -26.81,-11.26 -27.84,-25.98 -1.08,-15.39 10.52,-28.74 25.92,-29.82 0.66,-0.05 1.32,-0.06 1.98,-0.06 14.53,0 26.8,11.26 27.84,25.98 1.08,15.39 -10.52,28.74 -25.92,29.81 -0.66,0.05 -1.32,0.07 -1.98,0.07z"/>
   <path class="fil17" d="M1199.36 605.51c1.08,15.39 -10.52,28.74 -25.91,29.82 -15.39,1.08 -28.74,-10.53 -29.81,-25.92 -1.08,-15.38 10.52,-28.73 25.92,-29.8 15.38,-1.08 28.74,10.52 29.81,25.91z"/>
   <path class="fil8" d="M1187.64 597.93c0.27,3.85 -2.64,7.18 -6.49,7.45 -3.85,0.27 -7.18,-2.63 -7.45,-6.47 -0.27,-3.85 2.64,-7.18 6.48,-7.45 3.85,-0.27 7.18,2.62 7.45,6.47z"/>
   <path class="fil18" d="M1334.3 636.8c-14.54,0 -26.8,-11.26 -27.84,-25.99 -1.08,-15.39 10.54,-28.74 25.92,-29.81 0.66,-0.05 1.33,-0.07 1.98,-0.07 14.54,0 26.81,11.26 27.84,25.99 1.08,15.38 -10.52,28.74 -25.92,29.8 -0.67,0.05 -1.32,0.08 -1.98,0.08z"/>
   <path class="fil17" d="M1361.95 599.84c1.08,15.39 -10.54,28.74 -25.92,29.81 -15.39,1.08 -28.74,-10.52 -29.81,-25.92 -1.08,-15.39 10.52,-28.74 25.92,-29.81 15.39,-1.08 28.74,10.52 29.81,25.92z"/>
   <path class="fil8" d="M1350.22 592.26c0.27,3.85 -2.63,7.18 -6.47,7.45 -3.85,0.27 -7.19,-2.62 -7.46,-6.47 -0.27,-3.85 2.64,-7.19 6.48,-7.46 3.85,-0.27 7.18,2.64 7.45,6.48z"/>
   <path class="fil19" d="M1320.91 760.48c1.08,31.23 -26.52,57.55 -61.65,58.77 -35.13,1.23 -64.51,-23.1 -65.59,-54.32l127.24 -4.45z"/>
   <path class="fil8" d="M1301.93 782.39l-89.19 3.12c-4.65,0.16 -8.55,-3.48 -8.71,-8.13l-0.45 -12.79 106.04 -3.7 0.45 12.79c0.16,4.65 -3.48,8.55 -8.13,8.71z"/>
   <path class="fil17" d="M1461.51 398.07c-0.7,-19.93 -16.07,-35.82 -35.36,-37.77 -2.71,-12.86 -11.08,-23.52 -22.33,-29.36 0.08,-1.41 0.11,-2.85 0.06,-4.3 -0.9,-25.86 -22.59,-46.09 -48.45,-45.18 -4.45,0.16 -8.72,0.97 -12.76,2.27 -9.47,-12.41 -24.58,-20.23 -41.37,-19.65 -9.11,0.31 -17.53,3.1 -24.73,7.62 -8.15,-5.84 -18.2,-9.16 -28.99,-8.78 -11.57,0.41 -21.99,4.96 -29.94,12.15 -7.09,-4.31 -15.46,-6.68 -24.36,-6.38 -16.45,0.58 -30.33,10.18 -37.4,23.81 -4.97,-2.36 -10.48,-3.75 -16.36,-3.54 -18.35,0.64 -32.78,15.21 -33.89,33.16 -0.53,0.8 -1.11,1.56 -1.59,2.41 -17.17,3.41 -30.55,16.82 -34.08,33.77 -1.05,-0.05 -2.11,-0.09 -3.17,-0.05 -21.65,0.76 -38.58,18.91 -37.83,40.56 0.35,10.17 4.58,19.27 11.18,26.01 -6.6,56.03 2.65,154.29 14.46,198.36 2.14,7.98 13.87,6.38 13.89,-1.88 0.15,-53.06 8.94,-154.72 62.53,-148.82 51.18,5.62 89.02,6.83 117.39,5.62 28.4,-0.78 66.06,-4.61 116.72,-13.8 53.04,-9.62 68.9,91.17 72.75,144.1 0.61,8.24 12.42,9.03 14,0.91 8.12,-41.8 10.72,-130.55 2.49,-187.26 4.76,-6.77 7.46,-15.06 7.15,-23.96z"/>
  </g>
  <path class="fil20" d="M764.39 2075.8l-0.15 0 -4.07 0 -0.13 0 -0.01 0 -0.13 0 -0.02 0 -0.12 -0.01 -0.03 0 -0.1 0 -0.04 -0.01 -0.09 0 -0.05 -0.01c-2.72,-0.09 -5.81,-0.65 -9.35,-1.72 -3.87,-1.17 -8.01,-3.07 -12.41,-5.61 -1.8,29.31 -13.82,47.54 -35.92,54.55 -7.01,-2.6 -13.08,-5.9 -18.16,-9.88 -5.06,-3.96 -9.18,-8.51 -12.29,-13.55 -7.5,-12.18 -11.35,-29.31 -11.35,-51.42 -20.16,0 -34.99,4.21 -44.47,12.55 2.74,12.22 4.85,26.11 6.28,41.46 1.44,15.42 2.14,32.65 2.14,51.68 -1.67,3.8 -3.86,7.75 -6.68,11.89 -2.79,4.08 -6.28,8.28 -10.55,12.62 0,-9.81 -0.2,-19.9 -0.67,-30.38 -0.47,-10.42 -1.23,-21.37 -2.14,-32.72 -1.82,-22.69 -4,-38.59 -6.47,-47.61 1.34,-5.07 2.79,-10.03 4.41,-14.82 1.65,-4.88 2.97,-9.84 6.01,-13.75 10.82,-13.9 28.71,-20.17 51.74,-20.17 0,-4.14 0.17,-8.07 0.47,-11.82 0.3,-3.73 0.87,-7.28 1.73,-10.62 14.56,12.75 33.65,24.7 56.95,36.26 10.76,5.33 19.43,9.49 26.17,12.02 6.6,2.47 11.57,3.73 14.97,3.8l0.09 0 0.07 0 0.02 0 0.14 0 3.8 0 0.17 0 0.1 0 0.07 0 0.08 0 0.09 0c3.54,-0.03 7.52,-0.37 11.97,-1.06 4.74,-0.74 9.14,-2.29 13.29,-4.68 4.19,-2.41 7.74,-5.95 10.68,-10.62 2.93,-4.67 4.4,-11.01 4.4,-19.09l0 -5.81c1.07,-1.06 2.94,-1.6 5.75,-1.6 1.4,0 2.6,0.15 3.4,0.4 0.86,0.27 1.94,0.8 3.27,1.6l0 5.81c0,7.27 0.7,13.21 2.07,17.76 1.36,4.53 3.61,8.07 6.81,10.68 3.21,2.61 7.47,4.37 12.75,5.28 5.27,0.9 11.82,1.33 19.63,1.33l3.94 0c0.94,0 1.75,0.1 2.39,0.29 22.67,-1.43 34,-15.4 34,-41.95 2,-0.8 3.74,-1.2 5.34,-1.2 2.61,0 5.41,0.73 8.28,2.14 -0.8,7.01 -1.2,13.55 -1.2,19.7 0,3 0.58,5.76 1.73,8.28 1.18,2.55 2.82,4.72 4.94,6.61 2.08,1.86 4.62,3.38 7.55,4.47 2.94,1.1 6.21,1.67 9.88,1.67 10.15,0 17.6,-4.05 22.9,-11.89 5.18,-7.66 8.01,-17.49 8.01,-29.77 1.94,-0.8 3.67,-1.2 5.27,-1.2 2.61,0 5.35,0.73 8.21,2.14 -0.8,7.01 -1.2,13.55 -1.2,19.7 0,2.87 0.51,5.56 1.54,8.08 1.04,2.54 2.54,4.81 4.34,6.74 1.8,1.93 3.96,3.43 6.47,4.54 2.49,1.09 5.21,1.67 8.21,1.67 4.94,0 9.34,-0.95 13.15,-2.8 3.86,-1.88 6.92,-5.04 9.68,-9.08 5.32,-7.78 8.21,-17.63 8.21,-29.77 1.61,-0.8 3.34,-1.2 5.35,-1.2 2.47,0 5.14,0.73 8.01,2.14 -0.27,3.54 -0.57,6.95 -0.73,10.22 -0.16,3.33 -0.27,6.48 -0.27,9.48 0,3 0.54,5.74 1.67,8.28 1.13,2.54 2.66,4.76 4.67,6.61 2.05,1.88 4.49,3.39 7.28,4.47 2.7,1.06 5.64,1.63 8.88,1.67l0.08 0 0.16 0 0.16 0 3.54 0 0.14 0 0.03 0 0.12 0 0.05 0c3.58,-0.02 7.62,-0.36 12.15,-1.06 4.74,-0.74 9.14,-2.29 13.29,-4.68 4.19,-2.41 7.74,-5.95 10.68,-10.62 2.93,-4.67 4.4,-11.01 4.4,-19.09l0 -5.81c1.07,-1.06 2.94,-1.6 5.75,-1.6 1.4,0 2.6,0.15 3.4,0.4 0.86,0.27 1.94,0.8 3.27,1.6l0 5.81c0,7.27 0.7,13.21 2.07,17.76 1.36,4.53 3.61,8.07 6.81,10.68 3.21,2.61 7.47,4.37 12.75,5.28 5.27,0.9 11.82,1.33 19.63,1.33l3.94 0 1.07 0.05c23.54,-0.59 35.32,-14.67 35.32,-42.24 2,-0.8 3.74,-1.2 5.34,-1.2 2.74,0 5.54,0.8 8.28,2.34 -0.8,7.34 -1.2,13.96 -1.2,19.97 0,2.87 0.49,5.6 1.47,8.14 0.96,2.52 2.34,4.81 4.07,6.74 1.73,1.94 3.86,3.52 6.21,4.61 2.38,1.11 5,1.67 7.74,1.67 4.94,0 9.28,-0.99 13.15,-2.87 3.8,-1.86 6.93,-4.99 9.62,-9.08 2.52,-3.85 4.58,-8.22 5.94,-13.22 1.37,-5.01 2.07,-10.68 2.07,-17.09 1.67,-0.8 3.4,-1.2 5.21,-1.2 2.47,0 5.21,0.8 8.21,2.34 -0.34,3.67 -0.57,7.14 -0.67,10.48 -0.09,3.33 -0.13,6.47 -0.13,9.48 0,2.87 0.51,5.63 1.54,8.14 1.04,2.55 2.46,4.82 4.21,6.74 1.78,1.95 3.93,3.5 6.41,4.61 2.46,1.09 5.14,1.67 8.01,1.67 17.23,0 28.84,-6.47 34.99,-19.37 -0.87,-5 -2.79,-9.83 -5.74,-14.62 -2.92,-4.75 -6.74,-9.41 -11.48,-13.96l14.49 -34.25c5.88,9.15 10.41,18.24 13.68,27.38 3.27,9.15 5.35,18.56 6.28,28.17 -1.54,7.21 -3.8,13.9 -6.67,20.17 -2.87,6.27 -6.47,12.03 -10.95,17.23 -9.46,10.96 -19.69,16.42 -30.51,16.42 -17.82,0 -28.31,-8.41 -31.44,-25.24l-0.8 0c-5.07,16.82 -16.09,25.24 -33.05,25.24 -7.28,0 -13.63,-2.29 -19.3,-6.68 -5.95,-4.61 -9.62,-10.75 -10.95,-18.56l-0.6 0c-1.27,3.67 -3.07,7.01 -5.34,10.08 -2.27,3.07 -5.15,5.83 -8.74,8.14 -7.16,4.63 -15.71,6.89 -25.41,7l-0.15 0.01 -0.15 0 -0.47 0 -3.47 0 -0.38 0 -0.09 0 -0.15 0 -0.13 0 -0.02 -0.01c-7.75,-0.05 -14.43,-0.81 -20.06,-2.26 -5.79,-1.5 -10.62,-3.42 -14.42,-5.88 -3.73,-2.41 -6.63,-5.06 -8.61,-8.08 -1.95,-2.98 -3.07,-6.01 -3.28,-9.01l-1.6 0c-0.94,3.94 -2.67,7.42 -5.28,10.48 -2.6,3.07 -5.69,5.65 -9.22,7.88 -3.55,2.24 -7.33,3.99 -11.41,5.14 -4.13,1.18 -8.09,1.73 -11.89,1.73l-7.72 0 -0.16 0 -3.68 0 -0.16 0 -0.16 0 -0.08 0 -0.24 -0.01 -0.06 0 -0.09 -0.01 -0.05 0 -0.1 -0.01 -0.04 0 -0.12 -0.01 -0.02 -0.01c-3.01,-0.12 -5.97,-0.74 -8.95,-1.84 -3.33,-1.23 -6.32,-2.96 -9.01,-5.21 -2.65,-2.22 -5.01,-4.81 -6.95,-7.88 -1.94,-3.07 -3.27,-6.47 -3.87,-10.28l-0.8 0.06c-4.94,16.76 -15.56,25.17 -31.72,25.17 -17.69,0 -28.24,-8.41 -31.51,-25.17l-0.54 0c-5.34,16.76 -16.36,25.17 -33.05,25.17 -20.23,0 -31.92,-8.41 -35.06,-25.17l-0.6 0c-1.27,3.61 -3.07,6.95 -5.34,10.02 -2.27,3.07 -5.18,5.86 -8.74,8.14 -7.18,4.6 -15.71,6.89 -25.41,7l-0.15 0.01 -0.15 0 -0.47 0 -3.47 0 -0.38 0 -0.09 0 -0.15 0 -0.13 0 -0.02 -0.01c-7.75,-0.05 -14.43,-0.81 -20.06,-2.26 -5.79,-1.5 -10.62,-3.42 -14.42,-5.88 -3.73,-2.41 -6.63,-5.06 -8.61,-8.08 -1.95,-2.98 -3.07,-6.01 -3.28,-9.01l-1.6 0c-0.94,3.94 -2.67,7.42 -5.28,10.48 -2.6,3.07 -5.69,5.65 -9.22,7.88 -3.55,2.24 -7.33,3.99 -11.41,5.14 -4.13,1.18 -8.09,1.73 -11.89,1.73l-7.59 0zm1158.99 -43.53c-0.37,5.9 -4.03,11.49 -7.34,17.16 -3.34,5.72 -7.34,11.55 -12.02,17.42 -2.2,0.87 -6.61,1.34 -13.08,1.34 -19.97,0 -37.26,-5.95 -51.88,-17.83 -12.15,16.68 -23.72,25.16 -34.66,25.43l-0.02 0.01 -0.13 0 -0.16 0.01 -0.16 0 -0.07 0 -3.94 0 -0.15 0c-50.57,0 -72.06,0 -122.63,0l-0.16 0 -3.34 0 -0.15 0 -0.25 0c-13.69,0 -24.9,-13.22 -33.65,-39.66l-0.61 0c-1.4,9.81 -4,18.63 -7.81,26.44 -3.4,1.87 -7.48,3.6 -12.28,5.34 -4.88,1.67 -10.62,3.4 -17.23,5.07 -7.08,1.54 -13.29,2.74 -18.77,3.54 -5.54,0.87 -10.35,1.27 -14.49,1.27 -7.95,0 -15.49,-1.06 -22.5,-3.21 -0.27,-4.47 -0.47,-8.28 -0.6,-11.35 -0.13,-3 -0.2,-5.27 -0.2,-6.74 0,-2.34 0.2,-5.67 0.67,-9.81 0.47,-4.21 1.13,-9.22 2.07,-15.09 1.07,-0.27 1.94,-0.47 2.74,-0.6 0.8,-0.13 1.47,-0.2 1.93,-0.2 0.94,0 1.8,0.2 2.54,0.47 0.8,0.33 1.67,0.8 2.61,1.27l0 5.34c0,4.4 0.2,7.48 0.54,9.15 5.28,2.34 11.29,3.54 18.23,3.54 4.94,0 10.29,-0.54 15.96,-1.54 5.68,-1.07 11.69,-2.47 18.1,-4.34 5.94,-2.07 11.22,-4.14 15.62,-6.21 4.41,-2.14 8.14,-4.34 11.15,-6.67 -4.81,-13.29 -9.68,-27.51 -14.49,-42.67 -4.81,-15.22 -9.74,-31.52 -14.89,-48.94l15.29 -33.05c6.95,31.44 12.96,57.15 18.16,77.25 5.28,20.09 9.62,34.85 13.15,44.2 5.21,13.29 11.48,19.96 18.76,19.96l0.25 0 0.15 0 3.34 0 0.16 0c50.57,0 72.06,0 122.63,0l0.15 0 3.94 0 0.07 0c12.39,-0.03 23.54,-7.93 33.18,-23.83 7.62,-12.55 14.22,-22.9 19.97,-30.78 5.74,-7.88 10.68,-13.29 14.82,-16.29 2.27,-0.27 4.28,-0.48 6.07,-0.61 1.86,-0.12 3.34,-0.2 4.54,-0.2 11.82,0 21.52,4.54 28.91,13.69 7.95,9.85 13.07,23.82 11.95,41.73zm-17.23 10.28c0,-28.04 -11.15,-42.06 -33.45,-42.06 -3,3 -6.28,6.82 -9.74,11.41 -3.52,4.67 -7.28,10.08 -11.15,16.36 5.74,5.47 11.83,9.64 18.23,12.42 6.47,2.8 13.55,4.21 21.23,4.21 8.35,0 13.35,-0.8 14.89,-2.34zm-371.33 -20.57c-2.87,15.82 -9.52,28.69 -20.16,38.4 -11.2,10.22 -24.55,15.25 -39.8,15.41l0 0.01 -0.15 0 -0.15 0.01 -0.16 0 -0.27 0 -3.67 0 -0.2 0 -0.12 0 -0.03 0 -0.15 -0.01 -0.13 -0.01 -0.01 0 -0.15 -0.01c-6.5,-0.24 -13.31,-3.5 -20.31,-9.73 -2.6,20.63 -8.42,39.43 -17.63,56.35 -4.34,7.98 -10.17,16.41 -17.23,25.5 -7.03,9.06 -15.42,18.7 -25.24,28.84 -8.35,0 -17.18,-1.58 -26.57,-4.07 -9.23,-2.44 -15.96,-5.07 -20.16,-8.41 27.38,-13.08 49.7,-28.96 66.9,-47.8 14.24,-15.6 22.3,-29.18 24.24,-40.66 -1.94,-15.49 -10.81,-30.91 -26.57,-46.14l11.96 -35.18 17.56 27.58c10.97,17.22 22.05,26 32.79,26.55l0.86 -0.05 9.15 0c19.36,0 32.05,-6.47 38.19,-19.36 -0.94,-4.94 -2.87,-9.81 -5.81,-14.56 -2.94,-4.74 -6.75,-9.41 -11.42,-13.96l14.29 -34.25c11.35,18.16 18.03,36.66 20.16,55.55zm-71.24 105.23l18.76 -19.23 19.36 19.23 -19.36 18.77 -18.76 -18.77zm44.2 0l18.83 -19.23 19.37 19.23 -19.37 18.77 -18.83 -18.77zm-431.61 0l18.76 -19.23 19.36 19.23 -19.36 18.77 -18.76 -18.77zm44.2 0l18.83 -19.23 19.37 19.23 -19.37 18.77 -18.83 -18.77zm-351.6 -176.67l18.76 -19.23 19.36 19.23 -19.36 18.76 -18.76 -18.76zm44.2 0l18.83 -19.23 19.37 19.23 -19.37 18.76 -18.83 -18.76zm-88.74 112.04c-9.28,-3.41 -18.09,-7.24 -26.44,-11.55 -8.33,-4.3 -16.29,-9.08 -23.84,-14.42 0,30.38 10.09,48.81 30.32,55.35 13.29,-5.74 19.97,-15.56 19.97,-29.37z"/>
 </g>
</svg>
