<?xml version="1.0" encoding="iso-8859-1"?>
<!-- Generator: Adobe Illustrator 18.0.0, SVG Export Plug-In . SVG Version: 6.00 Build 0)  -->
<!DOCTYPE svg PUBLIC "-//W3C//DTD SVG 1.1//EN" "http://www.w3.org/Graphics/SVG/1.1/DTD/svg11.dtd">
<svg version="1.1" id="Layer_1" xmlns="http://www.w3.org/2000/svg" xmlns:xlink="http://www.w3.org/1999/xlink" x="0px" y="0px"
	 viewBox="0 0 200 200" style="enable-background:new 0 0 200 200;" xml:space="preserve">
<g>
	<path style="fill:#B3B3B3;" d="M180.563,140.553c1.579-2.145,2.437-4.845,2.437-7.691V81.788c0-2.845-0.861-5.197-2.448-7.029
		c-1.586-1.833-3.903-2.759-6.76-2.759H103v-2.695c0-1.469-0.481-3.305-1.425-4.305h-0.055l-0.39-0.365l0.429-0.444l-0.005-0.168
		c0.674-0.825,1.147-2.023,1.344-3.023h-0.002l-0.07-0.233L103,60.605v0.05v0.025c3-1.26,4.175-4.319,4.176-7.356
		c0-1.445-0.176-2.83-1.176-4.105v0.019l-0.213-0.375l0.213-0.38v0.002c1-1.275,1.32-2.672,1.32-4.117
		c-0.001-3.011-1.491-6.369-4.086-7.369h0.06l-0.406-0.379l0.07-0.621h0.008c0.033,0,0.051-0.527,0.051-0.829
		c-0.001-4.316-3.215-7.969-7.484-8.557l-0.358-0.032L95,26.264v0.005c-2-2.617-4.419-4.239-7.446-4.24
		c-0.381,0-0.79,0.032-1.197,0.093l-0.35,0.054l-0.274-0.219c-1.748-1.414-3.93-2.194-6.143-2.194c-0.292,0-0.593,0.015-0.894,0.044
		l-0.001,0l-0.306,0.03l-0.246-0.182l0,0c-1.896-1.413-4.145-2.161-6.497-2.161c-2.35,0-4.599,0.748-6.497,2.16l0,0l-0.246,0.183
		l-0.306-0.03h0c-0.326-0.032-0.649-0.048-0.97-0.048c-2.223,0-4.308,0.763-6.035,2.147l-0.182,0.146l-0.235,0.023l0,0
		c-2.716,0.27-5.172,1.839-6.577,4.201l0,0.001l-0.191,0.325l-0.377,0.052l0,0c-4.269,0.591-7.281,4.284-7.281,8.596
		c0,0.305,0.252,0.607,0.252,0.908v0.001L42.851,36.7L42.243,37h-0.016c-2.596,1-4.214,4.117-4.215,7.126
		c0,1.445,0.369,2.874,1.075,3.874h-0.002l0.212,0.629l-0.213,0.506c-0.706,1.275-1.218,2.772-1.218,4.217
		c0,3.041,2.134,5.923,4.134,7.477v0.015l0.622,0.19L43,61.195V61h-0.313c0.109,1,0.286,2,0.558,2h-0.008l0.278,0.6l-1.177,0.449
		l-0.024,0.027c-0.836,0.596-1.643,1.378-2.276,2.268C39.404,67.233,39,68.247,39,69.303v4.54c0,1.795,1.04,3.609,2.525,4.913
		C43.014,80.059,44.902,81,46.68,81h1.864l0.296,1.507c0.41,2.572,1.304,4.77,3.336,6.47L53,89.826v7.902
		c0,0.623-0.169,1.191-0.369,1.629c-0.203,0.438-0.566,0.55-1.122,0.725L31.468,106h-0.013c-2.298,1-4.404,2.153-5.946,3.83
		c-1.542,1.676-2.509,3.996-2.509,6.425v33.017c0,1.525,0.497,3.195,1.231,4.781c0.734,1.585,1.693,3.085,2.624,4.258l0.002,0.093
		L28.225,160h-7.649c-1.283,0-1.283,0-2.17,0.969c-0.872,0.952-1.406,1.777-1.406,3.104v5.676c0,1.31,0.207,2.948,1.167,3.793
		c0.96,0.846,1.292,0.911,1.988,0.911l158.518,0.003c1.297,0.001,2.388-0.532,3.145-1.389c0.759-0.856,1.182-2.03,1.182-3.316
		v-5.676c0-1.261-0.21-2.315-0.772-3.074c-0.28-0.378-0.65-0.589-1.11-0.788c-0.46-0.199-1.006-0.213-1.648-0.213h-29.585l-2.149-16
		h26.055C176.668,144,178.986,142.698,180.563,140.553z M180,169.028c0,0.537-0.435,0.972-2.471,0.972H20.625
		c-0.391,0.016-0.625-0.435-0.625-0.972v-5.056c0-0.537,0.435-0.972,0.971-0.972h158.057c0.536,0,0.971,0.435,0.971,0.972V169.028z
		 M114.726,144l-2.149,16h-7.951L104,158.387V144H114.726z M67.843,149h6.645c1.793,0,3.39,0.662,4.632,1.905
		c1.269,1.272,1.881,2.892,1.881,4.656V160H67.84L67.843,149z M32.32,109.972l12.189-3.615l0.538,0.498
		c6.309,8.926,16.803,14.357,27.713,14.358c1.533,0,3.153-0.213,4.694-0.213h-0.001L78,120.661v12.202
		c0,2.859,1.338,5.563,3.179,7.703c1.841,2.139,4.617,3.434,7.493,3.434H100v14.473l0.941,1.527H84v-4.439
		c0-2.847-0.97-5.234-2.608-6.924c-1.637-1.69-4.055-2.637-6.905-2.637H46.113c-0.089,0-0.186-0.061-0.295-0.17
		c-0.162-0.161-0.436-0.462-0.538-0.769c-0.104-0.306-0.28-0.638-0.28-0.849v-17.025c0-0.534-0.164-1.002-0.557-1.332
		c-0.395-0.33-0.848-0.534-1.362-0.535c-0.512,0.001-1.016,0.204-1.412,0.534c-0.394,0.329-0.67,0.797-0.67,1.332v17.022
		c0,1.307,0.644,2.417,1.582,3.367c0.938,0.949,2.22,1.423,3.529,1.423H64v11H37.599c-2.609,0-5.609-1.267-7.773-3.108
		C27.66,155.051,26,152.474,26,149.885v-33.02c0-1.573,0.89-3.058,2.004-4.273C29.116,111.379,30.79,110.442,32.32,109.972z
		 M46,60.345v-0.017l-0.021-0.034L46,59.994v-0.003v-0.003c0-0.057,0.163-0.142,0.163-0.198c0-0.788-0.294-1.79-1.05-1.79h-0.024
		c-1.991-1-3.34-2.595-3.34-4.677c0-1.542,0.691-2.323,1.279-3.323h-0.004c0.323,0,0.472-0.74,0.471-1.188
		c0-0.447-0.496-0.864-0.496-1.22v0.016c-1-0.654-1.473-1.741-1.474-3.283c0-2.21,1.474-4.096,3.474-4.679V40h0.2
		c0.516-1,1.045-0.701,1.28-1.177c0.129-0.261,0.424-0.648,0.424-0.933c0-0.236,0.096-0.561,0.096-0.785v-0.008v-0.004
		c-1-0.622-0.641-1.246-0.64-1.84c0-1.326,0.489-2.549,1.374-3.447c0.885-0.899,2.029-1.467,3.226-1.497l0.014-0.003L51,30.32v0.059
		C51,30.393,51.389,30,51.46,30h0.003h0.136h0.004h0.004C52.401,30,53,29.908,53,29.157v-0.028v-0.014
		c1-1.946,2.691-3.18,4.789-3.223L58.117,26h0.005h0.005C58.624,26,59,25.623,59,25.278v-0.016c2-1.126,2.865-1.752,4.458-1.753
		c0.421,0,1.542,0.048,1.542,0.157v-0.002c0,0.032,0.301-0.055,0.44-0.055c0.476,0,0.933,0.391,1.276-0.609h0.005
		c1.355-1,3.321-1.869,5.14-1.869c1.822,0,3.139,0.749,5.139,2.021v0.026c0,0.321,0.572,0.688,1.049,0.688
		c0.139,0-0.063,0.134,0.079,0.134H78v-0.296c1-0.109,1.002-0.182,1.426-0.182C81.141,23.523,83,24.224,84,25.524v-0.006
		c0,0.393,0.898,0.595,1.423,0.596c0.198,0,0.39-0.114,0.584-0.114H86v-0.062c1-0.176,1.032-0.214,1.509-0.214
		c2.083,0,3.963,1.184,4.658,3.176c0.262,0.749,0.981,1.1,1.773,1.1h0.004h0.112h0.003h0.003c0.09,0,0.176,0.157,0.281,0.144
		l0.018,0.084l0.023,0.036l0.079,0.023c2.66,0.06,4.865,2.292,4.864,4.954c0,0.62-0.327,1.24-0.327,1.836v0.003
		c0,0.224-0.171,0.463-0.171,0.701c0,0.285,0.048,0.778,0.178,1.04c0.235,0.476,0.562,0.18,1.08,1.18H100v-0.355
		c2,0.582,3.973,2.506,3.973,4.715c0,1.537-0.973,2.62-0.973,3.276v-0.008c-1,0.354-0.801,0.738-0.801,1.184
		c0,0.446,0.274,1.187,0.274,1.187h-0.057c0.84,1,1.352,1.782,1.352,3.324c0,2.083-1.257,3.676-3.247,4.676h-0.006
		c-0.757,0-1.389,0.998-1.388,1.799c0,0.058-0.127,0.177-0.127,0.236v-0.01l0.164,0.202l0.061,0.109
		c-0.052,1.167-0.816,2.149-1.957,2.452c-0.033,0.008-0.039,0.013-0.108,0.02c-0.211,0.022-0.775,0.042-2.683,0.085l-0.76,0.016
		L92,53.054v-0.015C92,52.137,91.23,51,90.317,51h-0.006l-0.193,0.259l-0.039,0.126L90.05,51.46c-0.065,0.007-0.13,0.046-0.2,0.056
		l-0.012,0.017l0.114-0.03L90,51.462V51h-0.12C88.257,51,87,50.652,86,49.291v0.021c-1-0.522-0.873-0.825-1.5-0.824
		c-0.627,0-1.5,0.317-1.5,0.838v0.003c-1,1.391-2.67,2.055-4.328,2.055c-1.659,0-3.302-0.384-4.224-2.384h-0.052
		c-0.346,0-0.955-0.835-1.582-0.835c-0.627,0-1.223,0.835-1.57,0.835h-0.007c-0.922,2-2.464,2.386-4.122,2.386
		c-1.658,0-3.199-0.746-4.121-2.137c-0.346-0.523-0.87-0.795-1.497-0.794c-0.628,0-1.497,0.353-1.497,0.875v-0.041
		C59,50.649,57.468,51,55.843,51h-0.023l0.129,0.277L56,51.518V51.51c0-0.016-0.503-0.51-0.61-0.51h-0.002h-0.133h-0.004h-0.004
		C54.346,51,54,52.147,53,53.038v0.008l-1.438,9.915L50.979,63h0.051c-1.283,0-1.935-0.099-2.308-0.115
		c-0.186-0.008-0.283,0.064-0.35,0.057C48.305,62.934,48.293,63,48.261,63h0.003h-0.139C46.983,62,46,61.509,46,60.345z
		 M96.96,66.812l0.432,0.337l0.022-0.033c0.367,0.221,0.458,0.467,0.559,0.814C98.072,68.276,98,68.679,98,69.148
		c0,0.052,0,0.105,0,0.158V72h-1.826L96.96,66.812z M173.797,140h-25.495c-0.037,0-0.139-0.233-0.245-0.233L148,139.685v-0.042
		l-0.762,0.039l-2.158-16.203c-0.497-3.734-3.701-6.479-7.463-6.479h-12.763c-3.762,0-6.977,2.715-7.474,6.449l-2.115,16.226
		l-0.724-0.049v0l-0.092-0.003c-0.079,0-0.165,0.189-0.199,0.201L114.195,140H88.674c-1.829,0-3.445-0.951-4.712-2.196
		C82.694,136.559,82,134.69,82,132.863V81.788c0-1.827,0.688-3.217,1.948-4.254c1.26-1.036,2.88-1.534,4.726-1.534h85.123
		c1.847,0,3.477,0.494,4.473,1.518c0.996,1.025,1.73,2.421,1.73,4.27v51.075c0,1.848-0.737,3.722-1.742,4.959
		C177.251,139.057,175.626,140,173.797,140z M120.872,124.578l0.208,0.028c0.126-0.94,0.588-1.484,1.259-2.001
		c0.671-0.516,1.555-0.605,2.517-0.605h12.763c0.962,0,1.846,0.089,2.517,0.605c0.671,0.517,1.132,1.247,1.259,2.187L146.131,160
		h-29.785l4.734-35.307L120.872,124.578z M51.425,67c1.021,0,1.96-0.413,2.682-1.074c0.722-0.661,1.231-1.567,1.398-2.566l0,0
		l1.325-8.045l0.556,0.071C58.67,55.142,59.902,54,60.953,54h0.001l0.479-0.36L61.909,54h-0.001c1.508,1,3.308,1.508,5.199,1.508
		c1.891,0,3.691-0.713,5.199-1.846l0.347-0.414L73,53.578v-0.014c2,1.134,3.61,1.727,5.5,1.726c1.893,0,3.5-0.604,5.5-1.737v-0.001
		l0.501-0.358L85,53.55v0.058C86,54.399,87.098,55,88.386,55h-0.097l0.466,0.167L90,63.203v-0.014c0,1.423,1,2.591,3,3.135v-0.003
		l0.392,0.521L92.394,72h-3.72c-2.858,0-5.633,0.921-7.482,2.747C79.343,76.572,78,78.929,78,81.788V94.17l-0.38,0.335
		C77.002,94.749,76.542,95,75.996,95h-8.689c-1.124,0-2.262-0.554-3.166-1.308l0.001,0.009L55.031,86h-0.072
		C53.612,85,53,83.471,52,81.752v0.011L50.134,67H51.425z M57.626,98h-0.21H57.626l0.124-4.896L62,96.432v0.008
		c1,1.295,3.275,2.56,5.304,2.56h8.689c0.471,0,0.996-1,1.445-1h0.003L78,98.156v18.714L77.483,117h0.104
		c-1.618,0-3.438,0.388-5.05,0.388c-9.134,0-17.537-4.107-23.537-11.254v-0.001l-0.587-0.912L53,103.853v-0.033
		C56,102.99,57.627,101,57.626,98z M43,69.303c0-0.432,0.284-0.879,0.619-1.283c0.326-0.394,0.794-0.741,1.205-0.989l1.254,0.028
		L47.939,78H46.68c-0.695,0-1.679-0.776-2.39-1.523C43.574,75.737,43,74.544,43,73.843V69.303z"/>
	<polygon style="fill:#B3B3B3;" points="46.58,38.617 46.58,38.617 46.58,38.617 	"/>
	<polygon style="fill:#B3B3B3;" points="98.99,38.614 98.99,38.613 98.99,38.613 	"/>
	<path style="fill:#B3B3B3;" d="M131.236,94.106c-4.159,0-7.542,3.383-7.542,7.542c0,4.159,3.383,7.542,7.542,7.542
		c4.16,0,7.542-3.383,7.542-7.542C138.778,97.489,135.395,94.106,131.236,94.106z M133.928,104.343
		c-0.691,0.69-1.642,1.117-2.692,1.117c-1.051,0-2.002-0.427-2.692-1.117c-0.69-0.691-1.117-1.642-1.117-2.692
		c0-1.051,0.427-2.002,1.117-2.692c0.691-0.69,1.642-1.117,2.692-1.117c1.051,0,2.002,0.427,2.692,1.117
		c0.69,0.691,1.117,1.642,1.117,2.692C135.045,102.701,134.619,103.652,133.928,104.343z"/>
</g>
</svg>
