<?xml version="1.0" encoding="iso-8859-1"?>
<!-- Generator: Adobe Illustrator 18.0.0, SVG Export Plug-In . SVG Version: 6.00 Build 0)  -->
<!DOCTYPE svg PUBLIC "-//W3C//DTD SVG 1.1//EN" "http://www.w3.org/Graphics/SVG/1.1/DTD/svg11.dtd">
<svg version="1.1" id="Layer_1" xmlns="http://www.w3.org/2000/svg" xmlns:xlink="http://www.w3.org/1999/xlink" x="0px" y="0px"
	 viewBox="0 0 200 200" style="enable-background:new 0 0 200 200;" xml:space="preserve">
<g>
	<polygon style="fill:#B3B3B3;" points="17.939,61.477 17.939,63.383 180.521,63.383 180.521,171.187 19.845,171.187 19.845,61.477 
		17.939,61.477 17.939,63.383 17.939,61.477 16.033,61.477 16.033,175 184.333,175 184.333,59.57 16.033,59.57 16.033,61.477 	"/>
	<polygon style="fill:#B3B3B3;" points="17.939,37.979 17.939,39.885 180.521,39.885 180.521,59.57 19.845,59.57 19.845,37.979 
		17.939,37.979 17.939,39.885 17.939,37.979 16.033,37.979 16.033,63.383 184.333,63.383 184.333,36.072 16.033,36.072 
		16.033,37.979 	"/>
	<path style="fill:#B3B3B3;" d="M29.688,46.79v1.906c0.569,0.001,1.03,0.462,1.031,1.031c-0.001,0.569-0.462,1.03-1.031,1.031
		c-0.569-0.001-1.03-0.462-1.031-1.031c0.001-0.569,0.462-1.03,1.031-1.031V46.79v-1.906c-2.676,0.001-4.842,2.168-4.844,4.844
		c0.001,2.676,2.168,4.842,4.844,4.844c2.676-0.001,4.842-2.168,4.844-4.844c-0.001-2.676-2.168-4.842-4.844-4.844V46.79z"/>
	<path style="fill:#B3B3B3;" d="M44.375,46.79v1.906c0.569,0.001,1.03,0.462,1.031,1.031c-0.001,0.569-0.462,1.03-1.031,1.031
		c-0.569-0.001-1.03-0.462-1.031-1.031c0.001-0.569,0.462-1.03,1.031-1.031V46.79v-1.906c-2.676,0.001-4.842,2.168-4.844,4.844
		c0.001,2.676,2.168,4.842,4.844,4.844c2.676-0.001,4.842-2.168,4.844-4.844c-0.001-2.676-2.168-4.842-4.844-4.844V46.79z"/>
	<path style="fill:#B3B3B3;" d="M59.061,46.79v1.906c0.569,0.001,1.03,0.462,1.031,1.031c-0.001,0.569-0.462,1.03-1.031,1.031
		c-0.569-0.001-1.03-0.462-1.031-1.031c0.001-0.569,0.462-1.03,1.031-1.031V46.79v-1.906c-2.676,0.001-4.842,2.168-4.844,4.844
		c0.001,2.676,2.168,4.842,4.844,4.844c2.676-0.001,4.842-2.168,4.844-4.844c-0.001-2.676-2.168-4.842-4.844-4.844V46.79z"/>
	<path style="fill:#B3B3B3;" d="M44.375,79.101v1.906h11.749c1.102,0.001,2.082,0.441,2.806,1.162
		c0.721,0.724,1.161,1.704,1.162,2.806v20.561c-0.001,1.102-0.441,2.082-1.162,2.806c-0.724,0.721-1.704,1.161-2.806,1.162H44.375
		c-1.102-0.001-2.082-0.441-2.806-1.162c-0.721-0.724-1.161-1.704-1.162-2.806V84.975c0.001-1.102,0.441-2.082,1.162-2.806
		c0.724-0.721,1.704-1.161,2.806-1.162V79.101v-1.906c-4.298,0.001-7.78,3.483-7.781,7.781v20.561
		c0.001,4.298,3.483,7.78,7.781,7.781h11.749c4.298-0.001,7.78-3.483,7.781-7.781V84.975c-0.001-4.298-3.483-7.78-7.781-7.781
		H44.375V79.101z"/>
	<path style="fill:#B3B3B3;" d="M109,79.101v1.906h11.749c1.102,0.001,2.082,0.441,2.806,1.162c0.721,0.724,1.161,1.704,1.162,2.806
		v20.561c-0.001,1.102-0.441,2.082-1.162,2.806c-0.724,0.721-1.704,1.161-2.806,1.162H109c-1.102-0.001-2.082-0.441-2.806-1.162
		c-0.721-0.724-1.161-1.704-1.162-2.806V84.975c0.001-1.102,0.441-2.082,1.162-2.806c0.724-0.721,1.704-1.161,2.806-1.162V79.101
		v-1.906c-4.298,0.001-7.78,3.483-7.781,7.781v20.561c0.001,4.298,3.483,7.78,7.781,7.781h11.749
		c4.298-0.001,7.78-3.483,7.781-7.781V84.975c-0.001-4.298-3.483-7.78-7.781-7.781H109V79.101z"/>
	<path style="fill:#B3B3B3;" d="M129.567,126.074v1.906h11.749c1.102,0.001,2.082,0.441,2.806,1.162
		c0.721,0.724,1.161,1.704,1.162,2.806v20.561c-0.001,1.102-0.441,2.082-1.162,2.806c-0.724,0.721-1.704,1.161-2.806,1.162h-11.749
		c-1.102-0.001-2.082-0.441-2.806-1.162c-0.721-0.724-1.161-1.704-1.162-2.806v-20.561c0.001-1.102,0.441-2.082,1.162-2.806
		c0.724-0.721,1.704-1.161,2.806-1.162V126.074v-1.906c-4.298,0.001-7.78,3.483-7.781,7.781v20.561
		c0.001,4.298,3.483,7.78,7.781,7.781h11.749c4.298-0.001,7.78-3.483,7.781-7.781v-20.561c-0.001-4.298-3.483-7.78-7.781-7.781
		h-11.749V126.074z"/>
	<path style="fill:#B3B3B3;" d="M44.375,126.074v1.906h11.749c1.102,0.001,2.082,0.441,2.806,1.162
		c0.721,0.724,1.161,1.704,1.162,2.806v20.561c-0.001,1.102-0.441,2.082-1.162,2.806c-0.724,0.721-1.704,1.161-2.806,1.162H44.375
		c-1.102-0.001-2.082-0.441-2.806-1.162c-0.721-0.724-1.161-1.704-1.162-2.806v-20.561c0.001-1.102,0.441-2.082,1.162-2.806
		c0.724-0.721,1.704-1.161,2.806-1.162V126.074v-1.906c-4.298,0.001-7.78,3.483-7.781,7.781v20.561
		c0.001,4.298,3.483,7.78,7.781,7.781h11.749c4.298-0.001,7.78-3.483,7.781-7.781v-20.561c-0.001-4.298-3.483-7.78-7.781-7.781
		H44.375V126.074z"/>
	<path style="fill:#B3B3B3;" d="M79.628,81.007c1.097,0.001,2.077,0.443,2.802,1.165c0.722,0.725,1.16,1.703,1.161,2.78v26.482
		h3.813l0-26.482c0-2.13-0.876-4.077-2.277-5.476c-1.399-1.402-3.353-2.282-5.498-2.281V81.007L79.628,81.007z"/>
	<path style="fill:#B3B3B3;" d="M100.194,127.98c1.097,0.001,2.077,0.443,2.802,1.165c0.722,0.725,1.16,1.703,1.161,2.78v26.482
		h3.813l0-26.482c0-2.13-0.876-4.077-2.277-5.476c-1.399-1.402-3.353-2.282-5.498-2.281V127.98L100.194,127.98z"/>
	<path style="fill:#B3B3B3;" d="M79.628,127.98c1.097,0.001,2.077,0.443,2.802,1.165c0.722,0.725,1.16,1.703,1.161,2.78v26.482
		h3.813l0-26.482c0-2.13-0.876-4.077-2.277-5.476c-1.399-1.402-3.353-2.282-5.498-2.281V127.98L79.628,127.98z"/>
	<path style="fill:#B3B3B3;" d="M144.253,81.007c1.097,0.001,2.077,0.443,2.802,1.165c0.722,0.725,1.16,1.703,1.161,2.78v26.482
		h3.813l0-26.482c0-2.13-0.876-4.077-2.277-5.476c-1.399-1.402-3.353-2.282-5.498-2.281V81.007L144.253,81.007z"/>
</g>
</svg>
