<?xml version="1.0" encoding="iso-8859-1"?>
<!-- Generator: Adobe Illustrator 18.0.0, SVG Export Plug-In . SVG Version: 6.00 Build 0)  -->
<!DOCTYPE svg PUBLIC "-//W3C//DTD SVG 1.1//EN" "http://www.w3.org/Graphics/SVG/1.1/DTD/svg11.dtd">
<svg version="1.1" id="Layer_1" xmlns="http://www.w3.org/2000/svg" xmlns:xlink="http://www.w3.org/1999/xlink" x="0px" y="0px"
	 viewBox="0 0 200 200" style="enable-background:new 0 0 200 200;" xml:space="preserve">
<g>
	<polygon style="fill:#B3B3B3;" points="17.071,58.574 17.071,60.453 181.05,60.453 181.05,169.241 18.95,169.241 18.95,58.574 
		17.071,58.574 17.071,60.453 17.071,58.574 15.191,58.574 15.191,173 184.809,173 184.809,56.694 15.191,56.694 15.191,58.574 	"/>
	<polygon style="fill:#B3B3B3;" points="17.071,34.879 17.071,36.759 181.05,36.759 181.05,56.694 18.95,56.694 18.95,34.879 
		17.071,34.879 17.071,36.759 17.071,34.879 15.191,34.879 15.191,60.453 184.809,60.453 184.809,33 15.191,33 15.191,34.879 	"/>
	<path style="fill:#B3B3B3;" d="M28.918,43.765v1.879c0.597,0.001,1.081,0.485,1.082,1.082c-0.001,0.597-0.485,1.081-1.082,1.082
		c-0.597-0.001-1.081-0.485-1.083-1.082c0.001-0.597,0.485-1.081,1.083-1.082V43.765v-1.879c-2.675,0.001-4.84,2.167-4.841,4.841
		c0.001,2.674,2.167,4.84,4.841,4.841c2.674-0.001,4.84-2.167,4.841-4.841c-0.001-2.674-2.167-4.84-4.841-4.841V43.765z"/>
	<path style="fill:#B3B3B3;" d="M43.726,43.765v1.879c0.597,0.001,1.081,0.485,1.082,1.082c-0.001,0.597-0.485,1.081-1.082,1.082
		c-0.597-0.001-1.081-0.485-1.082-1.082c0.001-0.597,0.485-1.081,1.082-1.082V43.765v-1.879c-2.674,0.001-4.84,2.167-4.841,4.841
		c0.001,2.674,2.167,4.84,4.841,4.841c2.674-0.001,4.84-2.167,4.841-4.841c-0.001-2.674-2.167-4.84-4.841-4.841V43.765z"/>
	<path style="fill:#B3B3B3;" d="M58.535,43.765v1.879c0.597,0.001,1.081,0.485,1.082,1.082c-0.001,0.597-0.485,1.081-1.082,1.082
		c-0.597-0.001-1.081-0.485-1.083-1.082c0.001-0.597,0.485-1.081,1.083-1.082V43.765v-1.879c-2.675,0.001-4.84,2.167-4.841,4.841
		c0.001,2.674,2.167,4.84,4.841,4.841c2.674-0.001,4.84-2.167,4.841-4.841c-0.001-2.674-2.167-4.84-4.841-4.841V43.765z"/>
	<path style="fill:#B3B3B3;" d="M105.012,139.405h-1.879v3.017c-0.001,0.873-0.346,1.641-0.911,2.211
		c-0.569,0.566-1.336,0.913-2.221,0.915c-0.871-0.001-1.643-0.348-2.216-0.917c-0.57-0.572-0.916-1.342-0.917-2.208v-3.017
		c0-0.896-0.627-1.663-1.505-1.842c-2.861-0.581-5.63-1.705-8.146-3.372c-0.747-0.495-1.733-0.396-2.367,0.238l-2.132,2.132
		c-0.619,0.617-1.406,0.917-2.21,0.919c-0.803-0.003-1.59-0.3-2.215-0.924c-0.616-0.618-0.917-1.41-0.919-2.218
		c0.002-0.807,0.301-1.594,0.913-2.207l2.132-2.132c0.634-0.634,0.733-1.62,0.238-2.367c-1.667-2.516-2.791-5.285-3.372-8.146
		c-0.178-0.879-0.945-1.505-1.842-1.505h-3.017c-0.873-0.001-1.642-0.345-2.211-0.911c-0.566-0.569-0.913-1.336-0.915-2.222
		c0.001-0.871,0.348-1.643,0.917-2.216c0.572-0.57,1.342-0.916,2.208-0.917h3.017c0.896,0,1.663-0.627,1.842-1.505
		c0.581-2.861,1.705-5.63,3.372-8.146c0.495-0.747,0.396-1.733-0.238-2.367l-2.132-2.132c-0.617-0.619-0.917-1.406-0.919-2.209
		c0.003-0.803,0.3-1.589,0.924-2.215c0.618-0.616,1.409-0.917,2.218-0.919c0.806,0.002,1.594,0.301,2.208,0.914l2.132,2.132
		c0.634,0.634,1.619,0.733,2.367,0.238c2.517-1.667,5.285-2.791,8.146-3.372c0.878-0.178,1.505-0.945,1.505-1.842v-3.017
		c0.001-0.873,0.346-1.641,0.911-2.211c0.569-0.566,1.336-0.913,2.222-0.915c0.871,0.001,1.643,0.348,2.216,0.917
		c0.57,0.572,0.916,1.342,0.917,2.208v3.017c0,0.896,0.627,1.663,1.505,1.842c2.861,0.581,5.63,1.705,8.146,3.372
		c0.747,0.495,1.733,0.396,2.367-0.238l2.132-2.132c0.619-0.617,1.406-0.917,2.209-0.919c0.802,0.003,1.589,0.3,2.216,0.924
		c0.615,0.617,0.916,1.409,0.918,2.218c-0.002,0.806-0.302,1.595-0.914,2.208l-2.131,2.131c-0.634,0.634-0.733,1.62-0.238,2.367
		c1.667,2.516,2.791,5.285,3.372,8.146c0.178,0.879,0.945,1.505,1.842,1.505h3.017c0.873,0.001,1.641,0.345,2.211,0.911
		c0.566,0.569,0.913,1.336,0.915,2.222c-0.001,0.871-0.348,1.643-0.917,2.216c-0.572,0.57-1.342,0.916-2.208,0.917h-3.017
		c-0.897,0-1.664,0.627-1.842,1.505c-0.581,2.861-1.705,5.63-3.372,8.146c-0.495,0.747-0.396,1.733,0.238,2.367l2.132,2.132
		c0.617,0.618,0.916,1.406,0.919,2.209c-0.003,0.802-0.3,1.59-0.924,2.216c-0.617,0.615-1.409,0.916-2.218,0.918
		c-0.807-0.002-1.594-0.302-2.207-0.913l-2.132-2.132c-0.634-0.634-1.62-0.733-2.367-0.238c-2.517,1.667-5.285,2.791-8.146,3.372
		c-0.879,0.178-1.505,0.945-1.505,1.842H105.012l0.374,1.842c3.323-0.675,6.547-1.983,9.474-3.922l-1.038-1.567l-1.329,1.329
		l2.132,2.132c1.338,1.339,3.11,2.016,4.865,2.014c1.758,0.002,3.534-0.676,4.876-2.019c1.345-1.343,2.027-3.118,2.025-4.874
		c0.002-1.759-0.68-3.53-2.019-4.867l-2.132-2.132l-1.329,1.329l1.567,1.038c1.939-2.927,3.247-6.151,3.922-9.474l-1.842-0.374
		v1.879h3.017c3.803-0.002,6.882-3.086,6.884-6.892c0.002-1.902-0.772-3.641-2.017-4.881c-1.242-1.244-2.976-2.012-4.867-2.01
		h-3.017v1.879l1.842-0.374c-0.675-3.323-1.983-6.547-3.922-9.474l-1.567,1.038l1.329,1.329l2.132-2.132
		c1.339-1.339,2.016-3.11,2.014-4.865c0.002-1.757-0.676-3.533-2.019-4.876c-1.343-1.345-3.118-2.028-4.874-2.025
		c-1.759-0.002-3.53,0.681-4.867,2.02l-2.132,2.132l1.329,1.329l1.038-1.567c-2.927-1.939-6.151-3.247-9.474-3.922l-0.374,1.842
		h1.879v-3.017c-0.002-3.803-3.086-6.883-6.891-6.884c-1.902-0.002-3.641,0.772-4.881,2.017c-1.244,1.242-2.012,2.976-2.01,4.867
		v3.017h1.879l-0.374-1.842c-3.323,0.675-6.547,1.983-9.474,3.922l1.038,1.567l1.329-1.329l-2.132-2.132
		c-1.339-1.339-3.11-2.016-4.865-2.014c-1.758-0.002-3.534,0.676-4.876,2.02c-1.346,1.343-2.028,3.118-2.025,4.874
		c-0.002,1.759,0.681,3.53,2.02,4.867l2.132,2.132l1.329-1.329l-1.567-1.038c-1.939,2.927-3.247,6.151-3.922,9.474l1.842,0.374
		v-1.879h-3.017c-3.803,0.002-6.883,3.086-6.884,6.892c-0.002,1.902,0.772,3.641,2.017,4.881c1.242,1.244,2.976,2.012,4.867,2.01
		h3.017v-1.879l-1.842,0.374c0.675,3.323,1.983,6.547,3.922,9.474l1.567-1.038l-1.329-1.329l-2.132,2.132
		c-1.34,1.338-2.017,3.11-2.014,4.865c-0.002,1.758,0.676,3.534,2.02,4.876c1.342,1.345,3.117,2.028,4.873,2.025
		c1.759,0.002,3.53-0.681,4.867-2.02l2.132-2.132l-1.329-1.329l-1.038,1.567c2.927,1.939,6.151,3.247,9.474,3.922l0.374-1.842
		h-1.879v3.017c0.002,3.803,3.086,6.883,6.892,6.884c1.902,0.002,3.641-0.772,4.881-2.017c1.244-1.242,2.012-2.976,2.01-4.867
		v-3.017H105.012l0.374,1.842L105.012,139.405z M105.316,120.163l1.329,1.329c1.831-1.83,2.755-4.246,2.752-6.645
		c0.002-2.399-0.921-4.815-2.752-6.645c-1.83-1.832-4.246-2.755-6.645-2.753c-2.399-0.002-4.815,0.921-6.645,2.753
		c-1.831,1.83-2.755,4.246-2.752,6.645c-0.002,2.399,0.921,4.815,2.753,6.645c1.83,1.831,4.246,2.755,6.645,2.752
		c2.399,0.002,4.815-0.921,6.645-2.752L105.316,120.163l-1.329-1.329c-1.107,1.105-2.539,1.65-3.988,1.652
		c-1.449-0.002-2.881-0.547-3.987-1.651c-1.105-1.106-1.65-2.538-1.652-3.987c0.002-1.449,0.547-2.881,1.652-3.987
		c1.106-1.105,2.537-1.65,3.987-1.652c1.449,0.002,2.881,0.547,3.987,1.652c1.104,1.106,1.649,2.538,1.652,3.987
		c-0.002,1.449-0.547,2.881-1.652,3.987L105.316,120.163z"/>
</g>
</svg>
