<?xml version="1.0" encoding="iso-8859-1"?>
<!-- Generator: Adobe Illustrator 18.0.0, SVG Export Plug-In . SVG Version: 6.00 Build 0)  -->
<!DOCTYPE svg PUBLIC "-//W3C//DTD SVG 1.1//EN" "http://www.w3.org/Graphics/SVG/1.1/DTD/svg11.dtd">
<svg version="1.1" id="Layer_1" xmlns="http://www.w3.org/2000/svg" xmlns:xlink="http://www.w3.org/1999/xlink" x="0px" y="0px"
	 viewBox="0 0 200 200" style="enable-background:new 0 0 200 200;" xml:space="preserve">
<g>
	<path style="fill:#B3B3B3;" d="M158.461,173.736c-10.687-0.003-19.381-8.674-19.381-19.329V97.625h-18.168v56.782
		c0,5.184-2.007,10.043-5.651,13.681c-3.64,3.642-8.486,5.648-13.645,5.648c-10.615-0.003-19.246-8.674-19.246-19.329V97.625H63.904
		v56.782c0,5.187-2.005,10.046-5.646,13.681c-3.64,3.642-8.484,5.648-13.64,5.648c-10.62-0.003-19.256-8.674-19.256-19.329V97.625
		H9.542v-3.621h15.819V47.183h-6.566v-3.919h51.377v3.919h-6.268v46.821H82.37V47.183h-6.566v-3.919h51.377v3.919h-6.268v46.821
		h18.168V47.183h-6.268v-3.919h51.377v3.919h-6.268v46.821h12.536v3.621h-12.536v56.782c0,5.134-2.035,9.993-5.73,13.681
		c-3.588,3.59-8.59,5.648-13.725,5.648H158.461z M143,154.406c0,4.137,1.619,8.036,4.558,10.98c2.936,2.932,6.831,4.547,10.97,4.548
		c8.552-0.002,15.511-6.965,15.513-15.521l-0.001-85.144H143V154.406z M85.991,154.406c0,4.131,1.623,8.03,4.569,10.98
		c2.935,2.932,6.834,4.547,10.979,4.548c8.553-0.002,15.512-6.965,15.513-15.521l-0.001-85.144H85.991V154.406z M28.982,154.406
		c0,4.124,1.626,8.024,4.578,10.98c2.935,2.932,6.838,4.547,10.989,4.548c8.552-0.002,15.511-6.965,15.513-15.521L60.063,69.27
		h-31.08V154.406z M143,65.35h31.041l0-18.168H143V65.35z M85.991,65.35h31.061l-0.001-18.168H85.991V65.35z M28.982,65.35h31.081
		l0-18.168h-31.08V65.35z"/>
</g>
</svg>
