<?xml version="1.0" encoding="iso-8859-1"?>
<!-- Generator: Adobe Illustrator 18.0.0, SVG Export Plug-In . SVG Version: 6.00 Build 0)  -->
<!DOCTYPE svg PUBLIC "-//W3C//DTD SVG 1.1//EN" "http://www.w3.org/Graphics/SVG/1.1/DTD/svg11.dtd">
<svg version="1.1" id="Layer_1" xmlns="http://www.w3.org/2000/svg" xmlns:xlink="http://www.w3.org/1999/xlink" x="0px" y="0px"
	 viewBox="0 0 200 200" style="enable-background:new 0 0 200 200;" xml:space="preserve">
<g>
	<path style="fill:#B3B3B3;" d="M117.064,173.815c-0.495,0-1.008-0.24-1.444-0.676c-0.36-0.36-0.574-0.937-0.574-1.545V90.93
		c0-0.604,0.215-1.179,0.574-1.539c0.432-0.432,0.945-0.67,1.444-0.67h58.947c0.534,0,1.103,0.251,1.523,0.67
		c0.403,0.403,0.654,0.993,0.654,1.539v80.664c0,0.55-0.251,1.141-0.654,1.545c-0.423,0.423-0.993,0.676-1.523,0.676H117.064z
		 M119.239,169.375h54.756V92.914h-54.756V169.375z"/>
	<path style="fill:#B3B3B3;" d="M154.293,117.826c-0.545,0-1.042-0.209-1.437-0.604c-0.366-0.365-0.567-0.888-0.567-1.472v-3.103
		c0-0.612,0.212-1.19,0.567-1.545c0.309-0.308,0.809-0.676,1.437-0.676h3.103c0.646,0,1.149,0.368,1.458,0.676
		c0.369,0.369,0.588,0.946,0.588,1.545v3.103c0,0.578-0.204,1.087-0.588,1.472c-0.395,0.395-0.899,0.604-1.458,0.604H154.293z"/>
	<rect x="130.584" y="107.466" style="fill:#B3B3B3;" width="4.193" height="19.732"/>
	<rect x="130.584" y="132.378" style="fill:#B3B3B3;" width="4.193" height="13.319"/>
	<path style="fill:#B3B3B3;" d="M23.99,173.815c-0.523,0-1.107-0.259-1.524-0.676c-0.397-0.397-0.654-1.004-0.654-1.545V38.188
		c0-0.647,0.356-1.138,0.654-1.436c0.36-0.36,0.916-0.567,1.524-0.567h74.459c0.59,0,1.08,0.191,1.457,0.567
		c0.395,0.395,0.587,0.865,0.587,1.436v133.406c0,0.6-0.22,1.177-0.587,1.545c-0.309,0.308-0.812,0.676-1.457,0.676H23.99z
		 M26.006,169.375H96.3v-20.472H26.006V169.375z M26.006,144.71H96.3V40.378H26.006V144.71z"/>
	<path style="fill:#B3B3B3;" d="M37.865,69.845c-0.56,0-1.087-0.218-1.484-0.614c-0.818-0.818-0.818-2.149,0-2.967l14.047-14.047
		c0.396-0.396,0.923-0.614,1.484-0.614c0.56,0,1.087,0.218,1.484,0.614c0.818,0.818,0.818,2.149,0,2.967L39.348,69.231
		C38.952,69.627,38.425,69.845,37.865,69.845z"/>
	<path style="fill:#B3B3B3;" d="M41.008,85.317c-0.56,0-1.087-0.218-1.484-0.614c-0.818-0.818-0.818-2.149,0-2.967l26.417-26.417
		c0.396-0.396,0.923-0.614,1.484-0.614s1.087,0.218,1.484,0.614c0.818,0.818,0.818,2.149,0,2.967L42.491,84.703
		C42.095,85.099,41.568,85.317,41.008,85.317z"/>
	<path style="fill:#B3B3B3;" d="M61.22,167.487c-4.577-0.001-8.302-3.726-8.303-8.303c0.001-4.577,3.726-8.301,8.303-8.303
		c4.577,0.001,8.301,3.726,8.302,8.303C69.521,163.761,65.797,167.486,61.22,167.487L61.22,167.487z M61.219,155.077
		c-1.094,0.001-2.125,0.428-2.904,1.202c-0.775,0.779-1.202,1.81-1.204,2.904c0.002,1.095,0.429,2.126,1.203,2.904
		c0.779,0.775,1.81,1.202,2.904,1.203c1.094-0.001,2.125-0.428,2.904-1.202c0.775-0.779,1.202-1.81,1.204-2.904
		c-0.002-1.095-0.429-2.126-1.203-2.904C63.345,155.505,62.314,155.078,61.219,155.077L61.219,155.077z"/>
</g>
</svg>
