<?xml version="1.0" encoding="iso-8859-1"?>
<!-- Generator: Adobe Illustrator 18.0.0, SVG Export Plug-In . SVG Version: 6.00 Build 0)  -->
<!DOCTYPE svg PUBLIC "-//W3C//DTD SVG 1.1//EN" "http://www.w3.org/Graphics/SVG/1.1/DTD/svg11.dtd">
<svg version="1.1" id="Layer_1" xmlns="http://www.w3.org/2000/svg" xmlns:xlink="http://www.w3.org/1999/xlink" x="0px" y="0px"
	 viewBox="0 0 200 200" style="enable-background:new 0 0 200 200;" xml:space="preserve">
<g>
	<path style="fill:#B3B3B3;" d="M46.86,142.953v2.136c2.831,0.001,5.374,1.141,7.231,2.995c1.854,1.857,2.994,4.401,2.995,7.231
		c-0.001,2.831-1.142,5.374-2.995,7.231c-1.857,1.854-4.401,2.994-7.231,2.995c-2.831-0.001-5.374-1.141-7.231-2.995
		c-1.854-1.857-2.994-4.401-2.995-7.231c0.001-2.831,1.142-5.374,2.995-7.231c1.857-1.854,4.401-2.994,7.231-2.995V142.953v-2.136
		c-8.008,0.001-14.496,6.49-14.498,14.498c0.001,8.008,6.49,14.496,14.498,14.498c8.008-0.001,14.496-6.49,14.497-14.498
		c-0.001-8.008-6.49-14.496-14.497-14.498V142.953z"/>
	<path style="fill:#B3B3B3;" d="M142.667,142.953v2.136c2.831,0.001,5.374,1.141,7.231,2.995c1.854,1.857,2.994,4.401,2.995,7.231
		c-0.001,2.831-1.142,5.374-2.995,7.231c-1.857,1.854-4.401,2.994-7.231,2.995c-2.831-0.001-5.374-1.141-7.232-2.995
		c-1.854-1.857-2.994-4.401-2.995-7.231c0.001-2.831,1.142-5.374,2.995-7.231c1.857-1.854,4.401-2.994,7.232-2.995V142.953v-2.136
		c-8.008,0.001-14.497,6.49-14.498,14.498c0.001,8.008,6.49,14.496,14.498,14.498c8.008-0.001,14.496-6.49,14.497-14.498
		c-0.001-8.008-6.49-14.496-14.497-14.498V142.953z"/>
	<polyline style="fill:#B3B3B3;" points="58.632,157.451 130.895,157.451 130.895,153.18 58.632,153.18 	"/>
	<polyline style="fill:#B3B3B3;" points="20,135.817 150.983,135.817 150.983,131.546 20,131.546 	"/>
	<path style="fill:#B3B3B3;" d="M150.835,144.11l21.425-75.644h20.969c1.179,0,2.135-0.956,2.135-2.136
		c0-1.179-0.956-2.136-2.135-2.136l-22.584,0c-0.955,0-1.795,0.635-2.055,1.554l-21.865,77.197
		c-0.321,1.135,0.338,2.315,1.473,2.637C149.333,145.904,150.514,145.245,150.835,144.11L150.835,144.11z"/>
	<path style="fill:#B3B3B3;" d="M25.226,56.418v2.136h127.122l-16.722,72.992H44.628l-17.32-75.605L25.226,56.418v2.136V56.418
		l-2.082,0.477l17.7,77.263c0.222,0.968,1.089,1.659,2.082,1.659h94.402c0.993,0,1.86-0.691,2.082-1.659l17.7-77.263
		c0.145-0.632-0.008-1.301-0.412-1.808c-0.404-0.507-1.022-0.805-1.67-0.805H25.226c-0.649,0-1.266,0.298-1.67,0.805
		c-0.404,0.507-0.557,1.176-0.412,1.808L25.226,56.418z"/>
	<polygon style="fill:#B3B3B3;" points="96.309,87.324 98.444,87.324 98.444,72.826 81.811,72.826 81.811,85.188 69.449,85.188 
		69.449,101.821 81.811,101.821 81.811,114.184 98.444,114.184 98.444,101.821 110.806,101.821 110.806,85.188 96.309,85.188 
		96.309,87.324 98.444,87.324 96.309,87.324 96.309,89.459 106.535,89.459 106.535,97.55 94.173,97.55 94.173,109.912 
		86.082,109.912 86.082,97.55 73.719,97.55 73.719,89.459 86.082,89.459 86.082,77.097 94.173,77.097 94.173,89.459 96.309,89.459 	
		"/>
</g>
</svg>
