<?xml version="1.0" encoding="iso-8859-1"?>
<!-- Generator: Adobe Illustrator 18.0.0, SVG Export Plug-In . SVG Version: 6.00 Build 0)  -->
<!DOCTYPE svg PUBLIC "-//W3C//DTD SVG 1.1//EN" "http://www.w3.org/Graphics/SVG/1.1/DTD/svg11.dtd">
<svg version="1.1" id="Layer_1" xmlns="http://www.w3.org/2000/svg" xmlns:xlink="http://www.w3.org/1999/xlink" x="0px" y="0px"
	 viewBox="0 0 200 200" style="enable-background:new 0 0 200 200;" xml:space="preserve">
<g>
	<rect x="23.809" y="34.474" style="fill:#B3B3B3;" width="4.191" height="140.526"/>
	<polyline style="fill:#B3B3B3;" points="32.701,175 176.191,175 176.191,170.809 32.701,170.809 	"/>
	<polyline style="fill:#B3B3B3;" points="32.701,32.737 176.191,32.737 176.191,28.546 32.701,28.546 	"/>
	<path style="fill:#B3B3B3;" d="M49.615,113.628v2.095h15.687v40.267H51.71v-42.362H49.615v2.095V113.628H47.52v44.457
		c0,0.552,0.223,1.091,0.614,1.482c0.39,0.39,0.93,0.614,1.482,0.614h17.783c0.552,0,1.091-0.224,1.481-0.614
		c0.39-0.39,0.614-0.93,0.614-1.482v-44.457c0-0.552-0.223-1.091-0.614-1.482c-0.39-0.39-0.93-0.614-1.481-0.614H49.615
		c-0.552,0-1.092,0.224-1.482,0.614c-0.39,0.39-0.614,0.93-0.614,1.482H49.615z"/>
	<path style="fill:#B3B3B3;" d="M108.891,92.882v2.095h15.687v61.013h-13.592V92.882H108.891v2.095V92.882h-2.095v65.204
		c0,0.552,0.223,1.091,0.614,1.482c0.39,0.39,0.93,0.614,1.482,0.614h17.783c0.552,0,1.091-0.224,1.481-0.614
		c0.39-0.39,0.614-0.93,0.614-1.482V92.882c0-0.552-0.223-1.091-0.614-1.482c-0.39-0.39-0.93-0.614-1.481-0.614h-17.783
		c-0.552,0-1.092,0.224-1.482,0.614c-0.39,0.39-0.614,0.93-0.614,1.482H108.891z"/>
	<path style="fill:#B3B3B3;" d="M79.253,63.243v2.095H94.94v90.651H81.348V63.243H79.253v2.095V63.243h-2.095v94.842
		c0,0.552,0.223,1.091,0.614,1.482c0.39,0.39,0.93,0.614,1.482,0.614h17.783c0.552,0,1.091-0.224,1.481-0.614
		c0.39-0.39,0.614-0.93,0.614-1.482V63.243c0-0.552-0.223-1.091-0.614-1.482c-0.39-0.39-0.93-0.614-1.481-0.614H79.253
		c-0.552,0-1.092,0.224-1.482,0.614c-0.39,0.39-0.614,0.93-0.614,1.482H79.253z"/>
	<path style="fill:#B3B3B3;" d="M138.53,137.339v2.095h15.687v16.556h-13.592v-18.651H138.53v2.095V137.339h-2.095v20.747
		c0,0.552,0.223,1.091,0.614,1.482c0.39,0.39,0.93,0.614,1.482,0.614h17.783c0.552,0,1.091-0.224,1.482-0.614
		c0.39-0.39,0.614-0.93,0.614-1.482v-20.747c0-0.552-0.223-1.091-0.614-1.482c-0.39-0.39-0.93-0.614-1.482-0.614H138.53
		c-0.552,0-1.092,0.224-1.482,0.614c-0.39,0.39-0.614,0.93-0.614,1.482H138.53z"/>
</g>
</svg>
