<?xml version="1.0" encoding="iso-8859-1"?>
<!-- Generator: Adobe Illustrator 18.0.0, SVG Export Plug-In . SVG Version: 6.00 Build 0)  -->
<!DOCTYPE svg PUBLIC "-//W3C//DTD SVG 1.1//EN" "http://www.w3.org/Graphics/SVG/1.1/DTD/svg11.dtd">
<svg version="1.1" id="Layer_1" xmlns="http://www.w3.org/2000/svg" xmlns:xlink="http://www.w3.org/1999/xlink" x="0px" y="0px"
	 viewBox="0 0 200 200" style="enable-background:new 0 0 200 200;" xml:space="preserve">
<rect x="-17.691" y="188.458" style="fill:#FF0000;" width="4.167" height="4.167"/>
<g>
	<polygon style="fill:#B3B3B3;" points="15.372,58.117 15.372,60.148 182.596,60.148 182.596,170.938 17.403,170.938 17.403,58.117 
		15.372,58.117 15.372,60.148 15.372,58.117 13.341,58.117 13.341,175 186.659,175 186.659,56.086 13.341,56.086 13.341,58.117 	"/>
	<polygon style="fill:#B3B3B3;" points="15.372,33.938 15.372,35.969 182.597,35.969 182.597,56.086 17.403,56.086 17.403,33.938 
		15.372,33.938 15.372,35.969 15.372,33.938 13.341,33.938 13.341,60.148 186.659,60.148 186.659,31.907 13.341,31.907 
		13.341,33.938 	"/>
	<path style="fill:#B3B3B3;" d="M27.462,43.005v2.031c0.546,0.001,0.99,0.445,0.991,0.991c-0.001,0.547-0.445,0.99-0.991,0.991
		c-0.547-0.001-0.991-0.445-0.992-0.991c0.001-0.547,0.445-0.99,0.992-0.991V43.005v-2.031c-2.792,0.001-5.052,2.262-5.054,5.053
		c0.001,2.792,2.262,5.052,5.054,5.053c2.791-0.001,5.052-2.262,5.053-5.053c-0.001-2.792-2.262-5.052-5.053-5.053V43.005z"/>
	<path style="fill:#B3B3B3;" d="M42.574,43.005v2.031c0.547,0.001,0.99,0.445,0.991,0.991c-0.001,0.547-0.445,0.99-0.991,0.991
		c-0.547-0.001-0.991-0.445-0.992-0.991c0.001-0.547,0.445-0.99,0.992-0.991V43.005v-2.031c-2.792,0.001-5.052,2.262-5.054,5.053
		c0.001,2.792,2.262,5.052,5.054,5.053c2.792-0.001,5.052-2.262,5.053-5.053c-0.001-2.792-2.262-5.052-5.053-5.053V43.005z"/>
	<path style="fill:#B3B3B3;" d="M57.686,43.005v2.031c0.547,0.001,0.99,0.445,0.991,0.991c-0.001,0.547-0.445,0.99-0.991,0.991
		c-0.547-0.001-0.99-0.445-0.991-0.991c0.001-0.547,0.445-0.99,0.991-0.991V43.005v-2.031c-2.792,0.001-5.052,2.262-5.053,5.053
		c0.001,2.792,2.262,5.052,5.053,5.053c2.792-0.001,5.052-2.262,5.053-5.053c-0.001-2.792-2.262-5.052-5.053-5.053V43.005z"/>
	<path style="fill:#B3B3B3;" d="M105.045,118.753l-0.992,1.772c4.001,2.24,8.457,3.359,12.911,3.359
		c6.761,0.002,13.541-2.586,18.701-7.746c5.153-5.152,7.748-11.922,7.746-18.678c0-2.642-0.389-5.285-1.175-7.837
		c-0.21-0.681-0.76-1.202-1.452-1.373c-0.692-0.172-1.422,0.031-1.925,0.535l-16.139,16.139l-13.241-13.241l16.139-16.139
		c0.504-0.504,0.707-1.234,0.535-1.925c-0.172-0.692-0.692-1.242-1.373-1.452c-2.543-0.784-5.179-1.176-7.815-1.176
		c-6.762-0.002-13.542,2.586-18.7,7.746c-5.172,5.17-7.749,11.968-7.746,18.739c0,5.021,1.437,10.041,4.287,14.405l1.701-1.111
		l-1.352-1.516l-40.541,36.158c-0.417,0.371-0.662,0.9-0.678,1.458c-0.016,0.558,0.199,1.1,0.594,1.494l12.66,12.66
		c0.394,0.395,0.936,0.61,1.494,0.594c0.558-0.016,1.086-0.262,1.458-0.678l36.421-40.835L105.045,118.753l-0.992,1.772
		L105.045,118.753l-1.516-1.352L68.54,156.631l-9.62-9.619l38.936-34.727c0.75-0.669,0.898-1.785,0.349-2.627
		c-2.411-3.69-3.625-7.935-3.626-12.183c0.002-5.752,2.174-11.483,6.557-15.867c4.375-4.375,10.092-6.554,15.828-6.556
		c2.234,0,4.467,0.332,6.618,0.996l0.599-1.941l-1.436-1.436l-17.575,17.575c-0.793,0.793-0.793,2.079,0,2.872l16.113,16.113
		c0.793,0.793,2.079,0.793,2.872,0l17.575-17.575l-1.436-1.436l-1.941,0.598c0.665,2.157,0.995,4.398,0.995,6.641
		c-0.002,5.726-2.186,11.434-6.556,15.806c-4.377,4.375-10.093,6.554-15.828,6.556c-3.774,0-7.546-0.948-10.926-2.841
		c-0.83-0.464-1.876-0.289-2.508,0.42L105.045,118.753z"/>
</g>
</svg>
