<?xml version="1.0" encoding="iso-8859-1"?>
<!-- Generator: Adobe Illustrator 18.0.0, SVG Export Plug-In . SVG Version: 6.00 Build 0)  -->
<!DOCTYPE svg PUBLIC "-//W3C//DTD SVG 1.1//EN" "http://www.w3.org/Graphics/SVG/1.1/DTD/svg11.dtd">
<svg version="1.1" id="Layer_1" xmlns="http://www.w3.org/2000/svg" xmlns:xlink="http://www.w3.org/1999/xlink" x="0px" y="0px"
	 viewBox="0 0 200 200" style="enable-background:new 0 0 200 200;" xml:space="preserve">
<rect x="-17.691" y="188.458" style="fill:#FF0000;" width="4.167" height="4.167"/>
<g>
	<polygon style="fill:#B3B3B3;" points="16.33,58.034 16.33,60.03 181.674,60.03 181.674,169.591 18.325,169.591 18.326,58.034 
		16.33,58.034 16.33,60.03 16.33,58.034 14.333,58.034 14.333,173.583 185.667,173.583 185.667,56.038 14.333,56.038 14.333,58.034 
			"/>
	<polygon style="fill:#B3B3B3;" points="16.33,34.128 16.33,36.125 181.674,36.125 181.674,56.038 18.326,56.038 18.326,34.128 
		16.33,34.128 16.33,36.125 16.33,34.128 14.333,34.128 14.333,60.03 185.667,60.03 185.667,32.132 14.333,32.132 14.333,34.128 	
		"/>
	<path style="fill:#B3B3B3;" d="M28.282,43.093v1.996c0.547,0.001,0.991,0.445,0.992,0.992c-0.001,0.547-0.445,0.991-0.992,0.992
		c-0.547-0.001-0.991-0.445-0.992-0.992c0.001-0.547,0.445-0.991,0.992-0.992V43.093v-1.996c-2.754,0.001-4.983,2.231-4.984,4.984
		c0.001,2.754,2.231,4.983,4.984,4.984c2.754-0.001,4.983-2.231,4.984-4.984c-0.001-2.754-2.231-4.983-4.984-4.984V43.093z"/>
	<path style="fill:#B3B3B3;" d="M43.224,43.093v1.996c0.547,0.001,0.991,0.445,0.992,0.992c-0.001,0.547-0.445,0.991-0.992,0.992
		c-0.547-0.001-0.991-0.445-0.992-0.992c0.001-0.547,0.445-0.991,0.992-0.992V43.093v-1.996c-2.754,0.001-4.983,2.231-4.985,4.984
		c0.001,2.754,2.231,4.983,4.985,4.984c2.753-0.001,4.983-2.231,4.984-4.984c-0.001-2.754-2.23-4.983-4.984-4.984V43.093z"/>
	<path style="fill:#B3B3B3;" d="M58.165,43.093v1.996c0.547,0.001,0.991,0.445,0.992,0.992c-0.001,0.547-0.445,0.991-0.992,0.992
		c-0.547-0.001-0.991-0.445-0.992-0.992c0.001-0.547,0.445-0.991,0.992-0.992V43.093v-1.996c-2.754,0.001-4.983,2.231-4.985,4.984
		c0.001,2.754,2.231,4.983,4.985,4.984c2.753-0.001,4.983-2.231,4.984-4.984c-0.001-2.754-2.231-4.983-4.984-4.984V43.093z"/>
	<path style="fill:#B3B3B3;" d="M35.25,135.235l18.722-28.066l13.376,16.289c0.428,0.521,1.084,0.79,1.755,0.718
		c0.67-0.071,1.255-0.473,1.563-1.072l15.985-31.077l16.774,64.068c0.223,0.852,0.976,1.456,1.855,1.489
		c0.88,0.033,1.676-0.512,1.963-1.344l17.077-49.555l9.026,18.052c0.336,0.672,1.026,1.1,1.777,1.103
		c0.751,0.003,1.445-0.419,1.786-1.088l24.526-48.007c0.501-0.982,0.112-2.184-0.87-2.686c-0.982-0.502-2.184-0.112-2.686,0.869
		l-22.729,44.49l-9.384-18.769c-0.358-0.717-1.118-1.152-1.917-1.099c-0.799,0.053-1.495,0.584-1.756,1.342l-16.477,47.812
		L89.192,85.971c-0.209-0.799-0.892-1.388-1.713-1.479c-0.821-0.09-1.616,0.337-1.993,1.071l-16.98,33.012l-13.156-16.022
		c-0.402-0.49-1.009-0.758-1.642-0.727c-0.633,0.031-1.21,0.359-1.562,0.886l-20.217,30.306c-0.612,0.917-0.364,2.157,0.553,2.768
		C33.399,136.399,34.638,136.152,35.25,135.235L35.25,135.235z"/>
</g>
</svg>
