<?xml version="1.0" encoding="iso-8859-1"?>
<!-- Generator: Adobe Illustrator 18.0.0, SVG Export Plug-In . SVG Version: 6.00 Build 0)  -->
<!DOCTYPE svg PUBLIC "-//W3C//DTD SVG 1.1//EN" "http://www.w3.org/Graphics/SVG/1.1/DTD/svg11.dtd">
<svg version="1.1" id="Layer_1" xmlns="http://www.w3.org/2000/svg" xmlns:xlink="http://www.w3.org/1999/xlink" x="0px" y="0px"
	 viewBox="0 0 200 200" style="enable-background:new 0 0 200 200;" xml:space="preserve">
<rect x="-17.691" y="188.458" style="fill:#FF0000;" width="4.167" height="4.167"/>
<g>
	<path style="fill:#B3B3B3;" d="M125.167,174.257c-0.243,0-0.484-0.043-0.717-0.129l-48.624-18.103l-48.613,18.104
		c-0.254,0.088-0.472,0.128-0.714,0.128c-0.393,0-0.788-0.126-1.143-0.364c-0.535-0.38-0.852-0.983-0.852-1.644V47.116
		c0-0.84,0.526-1.595,1.309-1.878L75.08,26.898l0.02,0.001c0.067,0,0.137-0.005,0.21-0.017l0.081-0.018
		c0.133-0.038,0.261-0.053,0.442-0.053c0.178,0,0.304,0.015,0.449,0.055l0.074,0.016c0.073,0.012,0.142,0.017,0.21,0.017
		l0.021-0.001l48.587,18.071l48.613-18.091c0.233-0.091,0.464-0.135,0.7-0.135c0.407,0,0.801,0.127,1.142,0.368
		c0.555,0.377,0.867,0.975,0.867,1.648v125.119c0,0.852-0.514,1.589-1.309,1.879l-49.32,18.372
		C125.639,174.212,125.394,174.257,125.167,174.257z M127.19,48.506v120.846l45.303-16.87V31.65L127.19,48.506z M28.521,48.506
		v120.846l45.303-16.87V31.65L28.521,48.506z M77.849,152.482l45.316,16.87V48.499L77.849,31.643V152.482z"/>
</g>
</svg>
