<?xml version="1.0" encoding="iso-8859-1"?>
<!-- Generator: Adobe Illustrator 18.0.0, SVG Export Plug-In . SVG Version: 6.00 Build 0)  -->
<!DOCTYPE svg PUBLIC "-//W3C//DTD SVG 1.1//EN" "http://www.w3.org/Graphics/SVG/1.1/DTD/svg11.dtd">
<svg version="1.1" id="Layer_1" xmlns="http://www.w3.org/2000/svg" xmlns:xlink="http://www.w3.org/1999/xlink" x="0px" y="0px"
	 viewBox="0 0 200 200" style="enable-background:new 0 0 200 200;" xml:space="preserve">
<rect x="-17.691" y="188.458" style="fill:#FF0000;" width="4.167" height="4.167"/>
<g>
	<path style="fill:#B3B3B3;" d="M147.159,187.125c-0.536,0-1.063-0.219-1.445-0.601l-37.532-37.512H23.238
		c-1.131,0-2.052-0.92-2.052-2.052V32.548c0-1.135,0.921-2.059,2.052-2.059h152.532c1.128,0,2.045,0.924,2.045,2.059V146.96
		c0,1.131-0.917,2.052-2.045,2.052h-26.558v36.06c0,0.832-0.496,1.573-1.264,1.89C147.705,187.073,147.45,187.125,147.159,187.125z
		 M25.303,144.908h83.737c0.544,0,1.063,0.217,1.462,0.611l34.611,34.612v-33.164c0-1.135,0.921-2.059,2.052-2.059h26.558V34.6
		H25.303V144.908z"/>
	<path style="fill:#B3B3B3;" d="M70.048,101.315c-6.39,0-11.589-5.199-11.589-11.589c0-6.386,5.199-11.582,11.589-11.582
		c6.386,0,11.582,5.196,11.582,11.582C81.63,96.116,76.435,101.315,70.048,101.315z M70.048,82.249
		c-4.131,0-7.492,3.358-7.492,7.485c0,4.127,3.361,7.485,7.492,7.485c4.123,0,7.478-3.358,7.478-7.485
		C77.526,85.606,74.172,82.249,70.048,82.249z"/>
	<path style="fill:#B3B3B3;" d="M99.088,101.315c-6.39,0-11.588-5.199-11.588-11.589c0-6.386,5.199-11.582,11.588-11.582
		c6.386,0,11.582,5.196,11.582,11.582C110.67,96.116,105.474,101.315,99.088,101.315z M99.088,82.249
		c-4.127,0-7.485,3.358-7.485,7.485c0,4.127,3.358,7.485,7.485,7.485c4.123,0,7.478-3.358,7.478-7.485
		C106.565,85.606,103.211,82.249,99.088,82.249z"/>
	<path style="fill:#B3B3B3;" d="M128.106,101.315c-6.386,0-11.582-5.199-11.582-11.589c0-6.386,5.196-11.582,11.582-11.582
		c6.386,0,11.582,5.196,11.582,11.582C139.688,96.116,134.493,101.315,128.106,101.315z M128.106,82.249
		c-4.127,0-7.485,3.358-7.485,7.485c0,4.127,3.358,7.485,7.485,7.485c4.127,0,7.485-3.358,7.485-7.485
		C135.583,85.606,132.226,82.249,128.106,82.249z"/>
</g>
</svg>
