<?xml version="1.0" encoding="iso-8859-1"?>
<!-- Generator: Adobe Illustrator 18.0.0, SVG Export Plug-In . SVG Version: 6.00 Build 0)  -->
<!DOCTYPE svg PUBLIC "-//W3C//DTD SVG 1.1//EN" "http://www.w3.org/Graphics/SVG/1.1/DTD/svg11.dtd">
<svg version="1.1" id="Layer_1" xmlns="http://www.w3.org/2000/svg" xmlns:xlink="http://www.w3.org/1999/xlink" x="0px" y="0px"
	 viewBox="0 0 200 200" style="enable-background:new 0 0 200 200;" xml:space="preserve">
<rect x="-17.691" y="188.458" style="fill:#FF0000;" width="4.167" height="4.167"/>
<g>
	<path style="fill:#B3B3B3;" d="M26.665,175.333c-1.102,0-1.998-0.896-1.998-1.998V26.658c0-1.079,0.915-1.991,1.998-1.991h146.671
		c1.102,0,1.998,0.893,1.998,1.991v146.677c0,1.102-0.896,1.998-1.998,1.998H26.665z M141.483,171.344h29.854v-29.832
		L141.483,171.344z M28.662,171.344h106.005v-34.658c0-1.102,0.891-1.998,1.985-1.998h34.685V74.137H28.663L28.662,171.344z
		 M138.658,168.51l29.854-29.833h-29.854V168.51z M28.663,70.14h142.675V28.663H28.663V70.14z"/>
	<path style="fill:#B3B3B3;" d="M68.043,55.848c-3.548,0-6.434-2.895-6.434-6.454c0-3.547,2.886-6.433,6.434-6.433
		c3.555,0,6.447,2.886,6.447,6.433C74.49,52.953,71.598,55.848,68.043,55.848z M68.043,46.957c-1.337,0-2.424,1.093-2.424,2.437
		c0,1.435,1.225,2.186,2.435,2.186c1.209,0,2.435-0.75,2.44-2.184C70.493,48.051,69.394,46.957,68.043,46.957z"/>
	<path style="fill:#B3B3B3;" d="M131.918,55.848c-3.548,0-6.434-2.895-6.434-6.454c0-3.547,2.886-6.433,6.434-6.433
		c1.729,0,3.352,0.672,4.571,1.894c1.212,1.214,1.878,2.826,1.876,4.539C138.365,52.953,135.473,55.848,131.918,55.848z
		 M131.924,46.957c-1.344,0-2.437,1.093-2.437,2.437c0,1.258,1.024,2.171,2.434,2.171c1.215,0,2.452-0.743,2.467-2.164
		C134.388,48.051,133.283,46.957,131.924,46.957z"/>
</g>
</svg>
