<?xml version="1.0" encoding="iso-8859-1"?>
<!-- Generator: Adobe Illustrator 18.0.0, SVG Export Plug-In . SVG Version: 6.00 Build 0)  -->
<!DOCTYPE svg PUBLIC "-//W3C//DTD SVG 1.1//EN" "http://www.w3.org/Graphics/SVG/1.1/DTD/svg11.dtd">
<svg version="1.1" id="Layer_1" xmlns="http://www.w3.org/2000/svg" xmlns:xlink="http://www.w3.org/1999/xlink" x="0px" y="0px"
	 viewBox="0 0 200 200" style="enable-background:new 0 0 200 200;" xml:space="preserve">
<rect x="-17.691" y="188.458" style="fill:#FF0000;" width="4.167" height="4.167"/>
<g>
	<path style="fill:#B3B3B3;" d="M44.286,176.667c-1.136,0-2.061-0.924-2.061-2.061V26.811c0-6.472,5.073-11.7,11.55-11.902
		c0.12-0.003,0.238-0.005,0.356-0.005c0.118,0,0.236,0.002,0.36,0.005l13.923,0V7.107c0-1.136,0.924-2.06,2.061-2.06
		c1.136,0,2.061,0.924,2.061,2.06v7.803h15.562V7.107c0-1.136,0.924-2.06,2.061-2.06s2.061,0.924,2.061,2.06v7.803h15.576V7.107
		c0-1.136,0.931-2.06,2.075-2.06c1.136,0,2.061,0.924,2.061,2.06v7.803h15.562V7.107c0-1.136,0.924-2.06,2.061-2.06
		s2.061,0.924,2.061,2.06v7.803H145.5c0.169-0.011,0.265-0.02,0.361-0.02l0.175,0.019l0.101,0.027l0.105,0.003
		c6.352,0.172,11.525,5.499,11.532,11.874v147.794c0,1.136-0.918,2.061-2.046,2.061H44.286z M46.332,172.553h107.306v-15.591H46.332
		V172.553z M46.332,152.841h107.306v-15.591H46.332V152.841z M46.332,133.137h107.306v-15.591H46.332V133.137z M46.332,113.432
		h107.306V97.842H46.332V113.432z M46.332,93.728h107.306V78.166H46.332V93.728z M46.332,74.038h107.306V58.433H46.332V74.038z
		 M54.113,19.038c-4.29,0-7.781,3.487-7.781,7.774v27.5h107.306v-27.5c0-4.286-3.477-7.774-7.752-7.774h-14.28v7.788
		c0,1.132-0.924,2.053-2.061,2.053s-2.061-0.921-2.061-2.053v-7.788h-15.562v7.788c0,1.132-0.924,2.053-2.061,2.053
		c-1.144,0-2.075-0.921-2.075-2.053v-7.788H92.212v7.788c0,1.132-0.924,2.053-2.061,2.053s-2.061-0.921-2.061-2.053v-7.788H72.529
		v7.788c0,1.132-0.924,2.053-2.061,2.053s-2.061-0.921-2.061-2.053v-7.788H54.113z"/>
</g>
</svg>
