<?xml version="1.0" encoding="iso-8859-1"?>
<!-- Generator: Adobe Illustrator 18.0.0, SVG Export Plug-In . SVG Version: 6.00 Build 0)  -->
<!DOCTYPE svg PUBLIC "-//W3C//DTD SVG 1.1//EN" "http://www.w3.org/Graphics/SVG/1.1/DTD/svg11.dtd">
<svg version="1.1" id="Layer_1" xmlns="http://www.w3.org/2000/svg" xmlns:xlink="http://www.w3.org/1999/xlink" x="0px" y="0px"
	 viewBox="0 0 200 200" style="enable-background:new 0 0 200 200;" xml:space="preserve">
<rect x="-17.691" y="188.458" style="fill:#FF0000;" width="4.167" height="4.167"/>
<g>
	<path style="fill:#B3B3B3;" d="M99.979,182.364c-1.1,0-2.028-0.926-2.028-2.021c0-8.139-30.75-17.207-74.874-17.207
		c-1.111,0-2.015-0.91-2.015-2.028V26.511c0-1.118,0.904-2.028,2.015-2.028c36.941,0,67.601,6.26,76.291,15.576l0.61,0.654
		l0.611-0.653c8.71-9.317,39.381-15.577,76.32-15.577c1.118,0,2.028,0.91,2.028,2.028v134.596c0,1.118-0.91,2.028-2.028,2.028
		c-44.14,0-74.901,9.069-74.901,17.207C102.008,181.457,101.098,182.364,99.979,182.364z M25.119,159.085l0.828,0.008
		c32.014,0.301,59.76,5.454,70.688,13.126l1.315,0.923V45.754c0-7.999-28.927-16.819-71.989-17.201l-0.843-0.007V159.085z
		 M174.052,28.546c-43.091,0.381-72.038,9.202-72.038,17.201v127.396l1.315-0.923c10.93-7.673,38.696-12.825,70.737-13.126
		l0.828-0.008V28.539L174.052,28.546z"/>
</g>
</svg>
