<?xml version="1.0" encoding="iso-8859-1"?>
<!-- Generator: Adobe Illustrator 18.0.0, SVG Export Plug-In . SVG Version: 6.00 Build 0)  -->
<!DOCTYPE svg PUBLIC "-//W3C//DTD SVG 1.1//EN" "http://www.w3.org/Graphics/SVG/1.1/DTD/svg11.dtd">
<svg version="1.1" id="Layer_1" xmlns="http://www.w3.org/2000/svg" xmlns:xlink="http://www.w3.org/1999/xlink" x="0px" y="0px"
	 viewBox="0 0 200 200" style="enable-background:new 0 0 200 200;" xml:space="preserve">
<rect x="-32.922" y="192.916" style="fill:#03B2FF;" width="3.773" height="3.773"/>
<g>
	<path style="fill:#B3B3B3;" d="M100.01,129.607c-16.317,0-29.593-13.281-29.593-29.607c0-16.321,13.275-29.599,29.593-29.599
		c16.321,0,29.599,13.278,29.599,29.599C129.61,116.325,116.331,129.607,100.01,129.607z M100.01,74.32
		c-14.153,0-25.668,11.52-25.668,25.681c0,14.164,11.514,25.688,25.668,25.688c14.16,0,25.681-11.524,25.681-25.688
		C125.691,85.84,114.171,74.32,100.01,74.32z"/>
	<path style="fill:#B3B3B3;" d="M81.583,175.666c-0.985,0-1.821-0.735-1.946-1.71l-2.38-19.046l-15.139,11.762
		c-0.354,0.28-0.771,0.425-1.212,0.425c-0.517,0-1.004-0.203-1.37-0.572l-26.064-26.05c-0.7-0.695-0.769-1.805-0.163-2.583
		l11.777-15.153l-19.028-2.373c-0.993-0.125-1.715-0.941-1.715-1.938V81.574c0-0.983,0.733-1.813,1.706-1.931l19.037-2.396
		L33.31,62.116c-0.607-0.778-0.537-1.888,0.161-2.582l26.064-26.057c0.369-0.359,0.865-0.561,1.39-0.561
		c0.438,0,0.852,0.141,1.197,0.406L77.258,45.09l2.38-19.035c0.123-0.981,0.96-1.722,1.945-1.722h36.847
		c0.986,0,1.822,0.741,1.945,1.722l2.373,19.021L137.895,33.3c0.342-0.26,0.776-0.406,1.215-0.406c0.522,0,1.008,0.199,1.367,0.561
		l26.05,26.077c0.704,0.694,0.772,1.803,0.164,2.584l-11.77,15.131l19.034,2.395c0.977,0.119,1.707,0.947,1.702,1.927v36.858
		c0,0.998-0.722,1.813-1.716,1.939l-19.014,2.373l11.764,15.119c0.605,0.782,0.536,1.899-0.163,2.598l-26.049,26.069
		c-0.365,0.372-0.846,0.574-1.362,0.574c-0.443,0-0.865-0.147-1.221-0.424l-15.147-11.764l-2.373,19.048
		c-0.124,0.973-0.96,1.708-1.945,1.708H81.583z M78.777,149.296c0.254,0,0.501,0.051,0.735,0.152
		c0.656,0.275,1.115,0.878,1.206,1.576l2.589,20.725H116.7l2.596-20.729c0.091-0.695,0.55-1.298,1.198-1.569
		c0.23-0.092,0.484-0.141,0.743-0.141c0.438,0,0.865,0.144,1.204,0.406l16.496,12.82l23.607-23.615l-12.82-16.497
		c-0.43-0.552-0.53-1.3-0.262-1.951c0.27-0.649,0.87-1.107,1.566-1.193l19.956-2.487h0.767l0.007-0.818v-32.67l-20.728-2.61
		c-0.697-0.087-1.295-0.541-1.561-1.187c-0.269-0.653-0.169-1.403,0.262-1.957l12.82-16.483l-23.608-23.629l-16.498,12.849
		c-0.345,0.265-0.779,0.413-1.217,0.413c-0.254,0-0.501-0.048-0.733-0.144c-0.642-0.274-1.103-0.88-1.194-1.578l-2.596-20.725
		H83.313l-2.589,20.729c-0.091,0.694-0.552,1.3-1.203,1.577c-0.227,0.096-0.471,0.145-0.724,0.145c-0.435,0-0.868-0.149-1.22-0.42
		L61.09,37.466L37.475,61.067l12.828,16.484c0.436,0.561,0.54,1.309,0.27,1.952c-0.272,0.649-0.873,1.105-1.567,1.191l-20.737,2.611
		v33.393l20.729,2.582c0.702,0.087,1.288,0.535,1.57,1.201c0.263,0.64,0.16,1.387-0.272,1.943l-12.827,16.518l23.615,23.593
		l16.49-12.82C77.922,149.445,78.349,149.296,78.777,149.296z"/>
</g>
</svg>
