<?xml version="1.0" encoding="iso-8859-1"?>
<!-- Generator: Adobe Illustrator 18.0.0, SVG Export Plug-In . SVG Version: 6.00 Build 0)  -->
<!DOCTYPE svg PUBLIC "-//W3C//DTD SVG 1.1//EN" "http://www.w3.org/Graphics/SVG/1.1/DTD/svg11.dtd">
<svg version="1.1" id="Layer_1" xmlns="http://www.w3.org/2000/svg" xmlns:xlink="http://www.w3.org/1999/xlink" x="0px" y="0px"
	 viewBox="0 0 200 200" style="enable-background:new 0 0 200 200;" xml:space="preserve">
<rect x="-32.922" y="192.916" style="fill:#03B2FF;" width="3.773" height="3.773"/>
<g>
	<g>
		<path style="fill:#B3B3B3;" d="M144.117,174.829c-0.237,0-0.495-0.05-0.729-0.14l-43.385-17.339l-43.385,17.341
			c-0.235,0.086-0.498,0.138-0.722,0.138c-0.784,0-1.51-0.495-1.805-1.233c-0.398-0.99,0.091-2.127,1.088-2.535l42.876-17.14
			v-14.368H33.842c-1.074,0-1.948-0.874-1.948-1.948V42.196l-0.426-0.171c-2.42-0.973-3.984-3.279-3.984-5.875
			c0-3.506,2.852-6.358,6.358-6.358h132.322c1.697,0,3.293,0.663,4.494,1.866c1.201,1.202,1.86,2.797,1.857,4.491
			c0,2.597-1.564,4.903-3.984,5.876l-0.426,0.171v95.409c0,1.074-0.871,1.948-1.942,1.948h-64.219v14.368l42.894,17.142
			c0.988,0.405,1.476,1.543,1.082,2.535C145.622,174.346,144.913,174.829,144.117,174.829z M35.791,135.657h128.425V42.501H35.791
			V135.657z M33.842,33.689c-0.666,0-1.288,0.258-1.753,0.726c-0.461,0.464-0.712,1.079-0.707,1.732
			c0,1.352,1.104,2.456,2.461,2.456h132.322c1.357,0,2.461-1.104,2.461-2.461c0-1.353-1.104-2.454-2.461-2.454H33.842z"/>
	</g>
	<g>
		<path style="fill:#B3B3B3;" d="M99.991,117.487c-15.659,0-28.399-12.74-28.399-28.399c0-15.67,12.74-28.418,28.399-28.418
			c15.67,0,28.418,12.748,28.418,28.418C128.408,104.748,115.66,117.487,99.991,117.487z M97.294,64.834
			c-12.431,1.38-21.805,11.807-21.805,24.254c0,13.514,10.991,24.508,24.502,24.508c12.444,0,22.868-9.38,24.248-21.818l0.084-0.754
			H98.055l-0.007-26.273L97.294,64.834z M101.946,87.14h22.377l-0.084-0.754c-1.274-11.408-10.133-20.27-21.544-21.551l-0.755-0.085
			L101.946,87.14z"/>
	</g>
</g>
</svg>
