<?xml version="1.0" encoding="iso-8859-1"?>
<!-- Generator: Adobe Illustrator 18.0.0, SVG Export Plug-In . SVG Version: 6.00 Build 0)  -->
<!DOCTYPE svg PUBLIC "-//W3C//DTD SVG 1.1//EN" "http://www.w3.org/Graphics/SVG/1.1/DTD/svg11.dtd">
<svg version="1.1" id="Layer_1" xmlns="http://www.w3.org/2000/svg" xmlns:xlink="http://www.w3.org/1999/xlink" x="0px" y="0px"
	 viewBox="0 0 200 200" style="enable-background:new 0 0 200 200;" xml:space="preserve">
<rect x="-32.922" y="192.916" style="fill:#03B2FF;" width="3.773" height="3.773"/>
<g>
	<g>
		<path style="fill:#B3B3B3;" d="M143.199,173.951c-0.226,0-0.465-0.046-0.708-0.137l-42.479-16.988L57.506,173.82
			c-0.218,0.084-0.458,0.131-0.686,0.131c-0.76,0-1.43-0.453-1.706-1.155c-0.383-0.952,0.079-2.034,1.028-2.416l42.026-16.798
			v-14.164H35.227c-1.02,0-1.85-0.83-1.85-1.851V44.099l-0.452-0.183c-2.348-0.95-3.866-3.187-3.866-5.7
			c0-3.401,2.767-6.168,6.168-6.168H164.78c3.397,0,6.161,2.767,6.161,6.168c0,2.514-1.522,4.751-3.877,5.699l-0.453,0.182v93.468
			c0,1.021-0.827,1.851-1.844,1.851h-62.911v14.164l42.028,16.799c0.943,0.383,1.407,1.466,1.028,2.412
			C144.63,173.495,143.957,173.951,143.199,173.951z M37.077,135.717h125.859V44.385H37.077V135.717z M35.227,35.75
			c-1.36,0-2.467,1.107-2.467,2.467c0,1.364,1.107,2.473,2.467,2.473H164.78c1.364,0,2.473-1.109,2.473-2.473
			c0-1.361-1.109-2.467-2.473-2.467H35.227z"/>
	</g>
	<g>
		<path style="fill:#B3B3B3;" d="M52.502,122.142c-0.417,0-0.83-0.145-1.165-0.409c-0.789-0.641-0.918-1.81-0.281-2.6l32.905-41.057
			l25.343,20.681l32.454-40.105c0.351-0.435,0.873-0.683,1.435-0.683c0.428,0,0.831,0.142,1.167,0.41
			c0.793,0.641,0.919,1.81,0.278,2.603l-34.791,42.992l-25.33-20.667l-30.571,38.139C53.592,121.888,53.066,122.142,52.502,122.142z
			"/>
	</g>
</g>
</svg>
