<?xml version="1.0" encoding="iso-8859-1"?>
<!-- Generator: Adobe Illustrator 18.0.0, SVG Export Plug-In . SVG Version: 6.00 Build 0)  -->
<!DOCTYPE svg PUBLIC "-//W3C//DTD SVG 1.1//EN" "http://www.w3.org/Graphics/SVG/1.1/DTD/svg11.dtd">
<svg version="1.1" id="Layer_1" xmlns="http://www.w3.org/2000/svg" xmlns:xlink="http://www.w3.org/1999/xlink" x="0px" y="0px"
	 viewBox="0 0 200 200" style="enable-background:new 0 0 200 200;" xml:space="preserve">
<rect x="-32.922" y="192.916" style="fill:#03B2FF;" width="3.773" height="3.773"/>
<g>
	<path style="fill:#B3B3B3;" d="M99.988,176.974c-24.202,0-43.891-19.687-43.891-43.885c0-11.04,4.475-21.738,12.6-30.121
		l0.736-0.759l-38.518-9.63V38.814h138.172v53.764l-38.542,9.629l0.735,0.76c8.121,8.386,12.593,19.084,12.593,30.121
		C143.873,157.287,124.186,176.974,99.988,176.974z M73.269,103.437c-8.509,7.643-13.389,18.448-13.389,29.645
		c0,22.116,17.992,40.108,40.107,40.108s40.107-17.992,40.107-40.108c0-11.178-4.88-21.983-13.388-29.644l-0.241-0.217
		l-26.478,6.614l-26.478-6.614L73.269,103.437z M79.474,100.816l20.514,5.119l20.514-5.119v-58.23H79.474L79.474,100.816z
		 M124.286,99.87l41.01-10.251V42.585h-41.01V99.87z M34.698,89.618L75.69,99.869V42.585H34.698V89.618z"/>
</g>
</svg>
