<?xml version="1.0" encoding="iso-8859-1"?>
<!-- Generator: Adobe Illustrator 18.0.0, SVG Export Plug-In . SVG Version: 6.00 Build 0)  -->
<!DOCTYPE svg PUBLIC "-//W3C//DTD SVG 1.1//EN" "http://www.w3.org/Graphics/SVG/1.1/DTD/svg11.dtd">
<svg version="1.1" id="Layer_1" xmlns="http://www.w3.org/2000/svg" xmlns:xlink="http://www.w3.org/1999/xlink" x="0px" y="0px"
	 viewBox="0 0 200 200" style="enable-background:new 0 0 200 200;" xml:space="preserve">
<rect x="-32.922" y="192.916" style="fill:#03B2FF;" width="3.773" height="3.773"/>
<g>
	<g>
		<path style="fill:#B3B3B3;" d="M47.316,57.542c-3.272,0-5.934-2.659-5.934-5.927c0-3.258,2.662-5.908,5.934-5.908
			s5.934,2.651,5.934,5.908C53.25,54.884,50.588,57.542,47.316,57.542z M47.316,49.493c-1.175,0-2.139,0.952-2.148,2.123
			c0,1.097,0.902,1.889,2.145,1.889c1.243,0,2.145-0.792,2.145-1.883C49.458,50.448,48.497,49.493,47.316,49.493z"/>
	</g>
	<g>
		<path style="fill:#B3B3B3;" d="M30.586,175c-1.044,0-1.893-0.849-1.893-1.893V34.274c0-1.04,0.849-1.887,1.893-1.887h138.827
			c0.508,0,0.986,0.199,1.345,0.56c0.355,0.357,0.55,0.827,0.548,1.324v138.836c0,1.044-0.849,1.893-1.893,1.893H30.586z
			 M32.479,171.221h135.042V70.863H32.479V171.221z M32.479,67.083h135.042v-30.91H32.479V67.083z"/>
	</g>
	<g>
		<path style="fill:#B3B3B3;" d="M99.77,57.744c-1.632,0-3.168-0.639-4.325-1.798c-1.158-1.159-1.794-2.697-1.791-4.329
			c0-3.371,2.744-6.112,6.116-6.112c3.386,0,6.142,2.741,6.142,6.11C105.912,54.995,103.156,57.744,99.77,57.744z M99.77,49.291
			c-1.278,0-2.318,1.046-2.318,2.331c0,1.188,0.977,2.051,2.324,2.051c1.354,0,2.337-0.863,2.337-2.051
			C102.113,50.337,101.062,49.291,99.77,49.291z"/>
	</g>
	<g>
		<path style="fill:#B3B3B3;" d="M47.947,122.938c-0.501,0-0.981-0.199-1.352-0.56c-0.732-0.732-0.732-1.933,0.006-2.672
			l15.999-15.999L46,87.711c-0.744-0.721-0.764-1.921-0.044-2.674c0.354-0.367,0.835-0.57,1.353-0.57
			c0.496,0,0.967,0.188,1.326,0.53l19.353,18.671L49.28,122.384C48.922,122.741,48.449,122.938,47.947,122.938z"/>
	</g>
	<g>
		<path style="fill:#B3B3B3;" d="M65.307,122.938c-1.044,0-1.893-0.849-1.893-1.893c0-1.044,0.849-1.893,1.893-1.893h17.335
			c1.037,0,1.881,0.849,1.881,1.893c0,1.026-0.861,1.893-1.881,1.893H65.307z"/>
	</g>
	<g>
		<path style="fill:#B3B3B3;" d="M73.446,57.744c-3.373,0-6.116-2.749-6.116-6.129c0-3.369,2.744-6.11,6.116-6.11
			c3.379,0,6.129,2.741,6.129,6.11C79.574,54.995,76.825,57.744,73.446,57.744z M73.446,49.291c-0.623,0-1.209,0.245-1.65,0.688
			c-0.439,0.442-0.679,1.027-0.674,1.647c0,1.183,0.979,2.046,2.327,2.046c1.356,0,2.34-0.863,2.34-2.051
			C75.789,50.337,74.738,49.291,73.446,49.291z"/>
	</g>
</g>
</svg>
