<?xml version="1.0" encoding="iso-8859-1"?>
<!-- Generator: Adobe Illustrator 18.0.0, SVG Export Plug-In . SVG Version: 6.00 Build 0)  -->
<!DOCTYPE svg PUBLIC "-//W3C//DTD SVG 1.1//EN" "http://www.w3.org/Graphics/SVG/1.1/DTD/svg11.dtd">
<svg version="1.1" id="Layer_1" xmlns="http://www.w3.org/2000/svg" xmlns:xlink="http://www.w3.org/1999/xlink" x="0px" y="0px"
	 viewBox="0 0 200 200" style="enable-background:new 0 0 200 200;" xml:space="preserve">
<rect x="-32.922" y="192.916" style="fill:#03B2FF;" width="3.773" height="3.773"/>
<g>
	<path style="fill:#B3B3B3;" d="M176.571,28H155v10h-10v26h4V42h6v111.482l11.5,23.791l11.5-23.791V28H176.571z M166,168.247
		l-8-15.719V32h16v120.528L166,168.247z"/>
	<path style="fill:#B3B3B3;" d="M95.917,28H21v146h105V58.333l-0.225-0.35L95.917,28z M97,34.407L119.842,56H97V34.407z M25,170V32
		h67v29h30v109H25z"/>
	<rect x="41" y="52" style="fill:#B3B3B3;" width="29" height="3"/>
	<rect x="41" y="77" style="fill:#B3B3B3;" width="66" height="3"/>
	<rect x="41" y="97" style="fill:#B3B3B3;" width="66" height="4"/>
	<rect x="41" y="117" style="fill:#B3B3B3;" width="66" height="4"/>
	<rect x="41" y="136" style="fill:#B3B3B3;" width="66" height="5"/>
</g>
</svg>
