<?xml version="1.0" encoding="iso-8859-1"?>
<!-- Generator: Adobe Illustrator 18.0.0, SVG Export Plug-In . SVG Version: 6.00 Build 0)  -->
<!DOCTYPE svg PUBLIC "-//W3C//DTD SVG 1.1//EN" "http://www.w3.org/Graphics/SVG/1.1/DTD/svg11.dtd">
<svg version="1.1" id="Layer_1" xmlns="http://www.w3.org/2000/svg" xmlns:xlink="http://www.w3.org/1999/xlink" x="0px" y="0px"
	 viewBox="0 0 200 200" style="enable-background:new 0 0 200 200;" xml:space="preserve">
<rect x="-32.922" y="192.916" style="fill:#03B2FF;" width="3.773" height="3.773"/>
<g>
	<path style="fill:#B3B3B3;" d="M114.433,180.058c-0.806-0.044-1.493-0.597-1.708-1.375l-11.717-42.237l-0.195-0.029l-0.081-0.007
		l-24.376-4.87c-0.748-0.15-1.327-0.727-1.475-1.471l-4.873-24.355c-0.042-0.23-0.044-0.441-0.005-0.678l0.044-0.269L26.804,92.762
		c-0.779-0.216-1.331-0.903-1.376-1.709c-0.045-0.807,0.429-1.55,1.179-1.85l145.385-58.156c0.225-0.09,0.461-0.136,0.701-0.136
		c0.5,0,0.972,0.196,1.328,0.552c0.533,0.533,0.696,1.329,0.416,2.029l-58.156,145.386c-0.287,0.718-0.973,1.182-1.746,1.182
		C114.537,180.06,114.468,180.06,114.433,180.058z M97.7,110.45l16.918,60.991l0.575,0.031L166.704,42.7l-0.496-0.328L97.7,110.45z
		 M78.323,128.091l21.564,4.313l-5.821-20.984l-20.198-5.603L78.323,128.091z M34.014,90.293l0.032,0.575l60.997,16.92l69.526-69.09
		l-0.327-0.497L34.014,90.293z"/>
</g>
</svg>
