<?xml version="1.0" encoding="iso-8859-1"?>
<!-- Generator: Adobe Illustrator 18.0.0, SVG Export Plug-In . SVG Version: 6.00 Build 0)  -->
<!DOCTYPE svg PUBLIC "-//W3C//DTD SVG 1.1//EN" "http://www.w3.org/Graphics/SVG/1.1/DTD/svg11.dtd">
<svg version="1.1" id="Layer_1" xmlns="http://www.w3.org/2000/svg" xmlns:xlink="http://www.w3.org/1999/xlink" x="0px" y="0px"
	 viewBox="0 0 200 200" style="enable-background:new 0 0 200 200;" xml:space="preserve">
<rect x="-32.922" y="192.916" style="fill:#03B2FF;" width="3.773" height="3.773"/>
<g>
	<path style="fill:#B3B3B3;" d="M61.69,85.588h1.939c-0.001-9.535-7.728-17.262-17.263-17.263
		c-9.535,0.001-17.262,7.728-17.263,17.263c0.001,9.535,7.728,17.262,17.263,17.263c9.535-0.001,17.262-7.728,17.263-17.263H61.69
		h-1.939c-0.001,3.702-1.495,7.036-3.921,9.464c-2.428,2.425-5.762,3.919-9.464,3.92c-3.703-0.001-7.036-1.495-9.465-3.92
		c-2.425-2.428-3.919-5.762-3.92-9.464c0.001-3.702,1.495-7.036,3.92-9.464c2.428-2.425,5.762-3.919,9.465-3.92
		c3.702,0.001,7.036,1.495,9.464,3.92c2.426,2.428,3.919,5.762,3.921,9.464H61.69z"/>
	<path style="fill:#B3B3B3;" d="M119.155,54.94h1.939c-0.001-9.535-7.728-17.262-17.263-17.263
		c-9.535,0.001-17.263,7.728-17.264,17.263c0.001,9.535,7.728,17.262,17.264,17.263c9.534-0.001,17.262-7.728,17.263-17.263H119.155
		h-1.939c-0.001,3.702-1.495,7.036-3.921,9.464c-2.428,2.425-5.762,3.919-9.464,3.92c-3.703-0.001-7.037-1.495-9.465-3.92
		c-2.426-2.428-3.919-5.762-3.921-9.464c0.001-3.702,1.495-7.036,3.921-9.464c2.428-2.425,5.762-3.919,9.465-3.92
		c3.702,0.001,7.036,1.495,9.464,3.92c2.426,2.428,3.919,5.762,3.921,9.464H119.155z"/>
	<path style="fill:#B3B3B3;" d="M168.958,108.574h1.939c-0.001-9.535-7.728-17.262-17.263-17.263
		c-9.535,0.001-17.262,7.728-17.263,17.263c0.001,9.535,7.728,17.262,17.263,17.263c9.535-0.001,17.262-7.728,17.263-17.263H168.958
		h-1.939c-0.001,3.702-1.495,7.036-3.921,9.464c-2.428,2.425-5.762,3.919-9.464,3.92c-3.703-0.001-7.036-1.495-9.465-3.92
		c-2.425-2.428-3.919-5.762-3.92-9.464c0.001-3.702,1.495-7.036,3.92-9.464c2.428-2.425,5.762-3.919,9.465-3.92
		c3.702,0.001,7.036,1.495,9.464,3.92c2.426,2.428,3.919,5.762,3.921,9.464H168.958z"/>
	<polyline style="fill:#B3B3B3;" points="47.1,112.599 47.1,151.386 50.979,151.386 50.979,112.599 	"/>
	<polyline style="fill:#B3B3B3;" points="47.1,24.36 47.1,69.934 50.979,69.934 50.979,24.36 	"/>
	<polyline style="fill:#B3B3B3;" points="104.31,80.601 104.31,151.386 108.189,151.386 108.189,80.601 	"/>
	<polyline style="fill:#B3B3B3;" points="104.31,24.36 104.31,39.875 108.189,39.875 108.189,24.36 	"/>
	<polyline style="fill:#B3B3B3;" points="153.763,134.902 153.763,151.386 157.641,151.386 157.641,134.902 	"/>
	<polyline style="fill:#B3B3B3;" points="153.763,24.36 153.763,92.237 157.641,92.237 157.641,24.36 	"/>
	<polygon style="fill:#B3B3B3;" points="54.028,158.377 54.028,156.437 36.765,156.437 36.765,175.64 55.967,175.64 55.967,156.437 
		54.028,156.437 54.028,158.377 52.089,158.377 52.089,171.761 40.643,171.761 40.643,160.316 54.028,160.316 54.028,158.377 
		52.089,158.377 	"/>
	<polygon style="fill:#B3B3B3;" points="111.493,158.377 111.493,156.437 94.23,156.437 94.23,175.64 113.432,175.64 
		113.432,156.437 111.493,156.437 111.493,158.377 109.554,158.377 109.554,171.761 98.108,171.761 98.108,160.316 111.493,160.316 
		111.493,158.377 109.554,158.377 	"/>
	<polygon style="fill:#B3B3B3;" points="161.296,158.377 161.296,156.437 144.033,156.437 144.033,175.64 163.235,175.64 
		163.235,156.437 161.296,156.437 161.296,158.377 159.357,158.377 159.357,171.761 147.911,171.761 147.911,160.316 
		161.296,160.316 161.296,158.377 159.357,158.377 	"/>
</g>
</svg>
