<?xml version="1.0" encoding="iso-8859-1"?>
<!-- Generator: Adobe Illustrator 18.0.0, SVG Export Plug-In . SVG Version: 6.00 Build 0)  -->
<!DOCTYPE svg PUBLIC "-//W3C//DTD SVG 1.1//EN" "http://www.w3.org/Graphics/SVG/1.1/DTD/svg11.dtd">
<svg version="1.1" id="Layer_1" xmlns="http://www.w3.org/2000/svg" xmlns:xlink="http://www.w3.org/1999/xlink" x="0px" y="0px"
	 viewBox="0 0 200 200" style="enable-background:new 0 0 200 200;" xml:space="preserve">
<rect x="-32.922" y="192.916" style="fill:#03B2FF;" width="3.773" height="3.773"/>
<path style="fill:#B3B3B3;" d="M52.703,132L52.703,132h111.38c0.805,0,1.514-0.7,1.741-1.473l16.785-57.302
	c0.282-0.961-0.269-2.012-1.23-2.294c-0.961-0.282-1.969,0.248-2.251,1.209l-2.574,8.763c-0.222-0.154-0.478-0.271-0.763-0.313
	L46.097,61.516c-0.143-0.021-0.285-0.021-0.423-0.009l-1.847-21.242c-0.063-0.72-0.549-1.336-1.234-1.564l-22.887-7.629
	c-0.951-0.317-1.978,0.197-2.295,1.147c-0.317,0.951,0.197,1.978,1.148,2.295l21.756,7.252l7.369,84.736
	c-6.388,0.952-11.292,6.443-11.293,13.096c0,2.875,0.921,5.552,2.482,7.724c1.56,2.173,3.76,3.854,6.332,4.77
	c1.391,0.495,2.89,0.764,4.444,0.764c0.643,0,1.205-0.337,1.527-0.842c0.218,0.342,0.549,0.601,0.939,0.736
	c-2.626,2.422-4.28,5.881-4.28,9.735c0.001,7.323,5.935,13.256,13.257,13.257c7.322-0.001,13.256-6.362,13.257-13.685
	C74.349,158.259,72.744,154,70.186,152h61.916c-2.558,2-4.163,6.259-4.164,10.057c0.001,7.323,5.935,13.47,13.257,13.471
	c7.322-0.001,13.257-6.256,13.258-13.578c0-3.798-1.605-7.95-4.164-9.95h16.708c1.002,0,1.815-0.998,1.815-2s-0.812-2-1.815-2
	H52.703c-0.643,0-1.205,0.95-1.527,1.455c-0.322-0.505-0.883-0.535-1.527-0.535l0,0c-1.137,0-2.221-0.042-3.229-0.401
	c-1.861-0.662-3.465-1.809-4.6-3.39c-1.135-1.582-1.8-3.471-1.801-5.57c0.002-2.665,1.075-5.041,2.82-6.79
	c1.749-1.745,4.145-2.81,6.81-2.811c0.493,0,0.955-0.196,1.298-0.548c-0.034,0.139-0.058,0.454-0.058,0.604
	C50.889,131.016,51.701,132,52.703,132z M148.005,155.248c1.745,1.748,2.819,4.358,2.821,7.023
	c-0.002,2.665-1.075,5.167-2.821,6.916c-1.748,1.746-4.144,2.873-6.809,2.874c-2.665-0.001-5.061-1.048-6.809-2.794
	c-1.745-1.748-2.819-4.131-2.82-6.795c0.001-2.665,1.075-5.482,2.82-7.23c1.748-1.745,4.144-3.241,6.808-3.241h0.003
	C143.861,152,146.256,153.503,148.005,155.248z M67.901,155.248c1.745,1.748,2.819,4.358,2.82,7.023
	c-0.002,2.665-1.075,5.167-2.82,6.916c-1.748,1.746-4.144,2.873-6.809,2.874c-2.665-0.001-5.061-1.048-6.809-2.794
	c-1.745-1.748-2.819-4.131-2.82-6.795c0.002-2.665,1.075-5.482,2.82-7.23c1.748-1.745,4.144-3.241,6.808-3.241h0.003
	C63.757,152,66.153,153.503,67.901,155.248z M175.262,84.175c0.109,0.016,0.217,0.018,0.323,0.015l-3.432,11.698
	c-0.057-0.014-0.112-0.035-0.171-0.044L47.013,76.91l-1.021-11.745L175.262,84.175z M47.337,80.629l123.792,19.24L162.724,129
	H52.703c-0.511,0-0.972-0.27-1.302,0.07c0.047-0.191,0.072-0.63,0.055-0.832L47.337,80.629z"/>
</svg>
