<?xml version="1.0" encoding="iso-8859-1"?>
<!-- Generator: Adobe Illustrator 18.0.0, SVG Export Plug-In . SVG Version: 6.00 Build 0)  -->
<!DOCTYPE svg PUBLIC "-//W3C//DTD SVG 1.1//EN" "http://www.w3.org/Graphics/SVG/1.1/DTD/svg11.dtd">
<svg version="1.1" id="Layer_1" xmlns="http://www.w3.org/2000/svg" xmlns:xlink="http://www.w3.org/1999/xlink" x="0px" y="0px"
	 viewBox="0 0 200 200" style="enable-background:new 0 0 200 200;" xml:space="preserve">
<rect x="-32.922" y="192.916" style="fill:#03B2FF;" width="3.773" height="3.773"/>
<g>
	<path style="fill:#B3B3B3;" d="M173.161,88.717C170.185,85.815,166.074,84,161.57,84h-0.332c-1.451-5-3.585-10.695-6.375-15.591
		l0.334-0.339l-0.002,0.013c3.159-3.196,4.746-7.385,4.744-11.564c0.002-4.21-1.604-8.435-4.808-11.639
		c-3.209-3.21-7.434-4.826-11.642-4.824c-4.066-0.002-8.14,1.523-11.297,4.541c-2.411-1.23-5.075-2.296-7.465-3.234
		c-1.571-0.615-2.604-1.169-3.743-1.649c-0.555-0.233-0.988-0.448-0.988-0.635v-0.703c0-4.603-2.527-8.728-5.701-11.66
		c-3.178-2.937-7.66-4.753-12.186-4.757c-4.527,0.004-8.726,1.82-11.904,4.757c-3.174,2.933-5.21,7.058-5.21,11.66v0.286
		c-6,1.463-11.347,3.8-16.182,6.605L68.123,45h-0.002c-3.191-3-7.374-4.839-11.54-4.837c-4.225-0.002-8.472,1.524-11.678,4.732
		c-3.218,3.217-4.845,7.417-4.844,11.638c-0.003,4.109,1.55,8.211,4.644,11.378l0.405,0.434C42.295,73.254,40.121,79,38.657,84
		h-0.333c-4.56,0-8.681,2.017-11.632,5.074c-2.954,3.057-4.784,7.271-4.786,11.798c0.001,4.527,1.831,8.883,4.786,11.94
		c2.951,3.058,7.072,5.187,11.632,5.187h0.339c1.426,4.979,3.511,9.65,6.173,14.279l-0.072,0.042
		c-3.196,3.193-4.811,7.348-4.808,11.51c-0.003,4.162,1.613,8.326,4.808,11.52c3.181,3.184,7.365,4.767,11.531,4.764
		c4.154,0.002,8.319-1.585,11.519-4.699l0.922-0.535c4.86,2.825,10.259,4.992,16.259,6.457v0.285c0,4.603,1.932,8.727,5.106,11.66
		c3.178,2.937,7.362,4.753,11.889,4.757c4.526-0.004,9.172-1.82,12.35-4.757c3.174-2.933,5.656-7.058,5.656-11.66v-0.703
		c0-0.33,1.229-0.743,2.388-1.201c1.767-0.699,3.729-1.511,5.918-2.427c1.539-0.645,2.978-1.343,4.423-2.101
		c3.183,3.182,7.255,4.803,11.373,4.8c4.121,0.003,8.224-1.62,11.408-4.808c3.161-3.159,4.712-7.308,4.709-11.437
		c0.001-4.112-1.562-8.229-4.584-11.427l-0.34-0.924l-3.605,1.315l0.607,1.667l0.3,0.3c2.506,2.507,3.772,5.793,3.773,9.068
		c-0.003,3.177-1.184,6.308-3.599,8.725c-2.479,2.474-5.597,3.681-8.722,3.685c-3.031-0.003-6.049-1.15-8.49-3.475l-1.299-2.895
		l-1.859,1.136c-2.473,1.517-5.962,2.943-9.067,4.15c-1.556,0.607-3.019,1.163-4.25,1.68c-0.617,0.259-1.175,0.507-1.673,0.757
		c-0.5,0.254-0.599,0.495-1.02,0.824l-0.393,0.576v2.715c0,3.405-1.892,6.53-4.388,8.845c-2.493,2.311-6.058,3.741-9.539,3.737
		c-3.482,0.004-6.703-1.426-9.195-3.737c-2.496-2.315-3.877-5.44-3.877-8.845v-3.32l-1.755-0.338
		c-6.524-1.477-12.476-3.836-17.661-7.004l-1.151-0.664l-3.016,2.141l-0.127,0.111c-2.483,2.481-5.735,3.723-8.983,3.725
		c-3.204-0.003-6.381-1.206-8.822-3.645c-2.467-2.469-3.684-5.637-3.687-8.817c0.003-3.149,1.198-6.284,3.616-8.742l2.526-1.896
		l-0.91-1.488c-3.186-5.211-5.592-10.769-7.06-16.333L41.588,114h-3.264c-3.448,0-6.577-1.547-8.874-3.92
		c-2.294-2.373-3.71-5.66-3.708-9.14c-0.001-3.481,1.415-6.726,3.708-9.099C31.748,89.468,34.876,88,38.324,88h3.264l0.377-1.451
		c1.476-5.605,3.951-12.186,7.095-17.322l0.703-1.156l-2.144-2.674l-0.073-0.074c-2.443-2.444-3.648-5.622-3.651-8.829
		c0.002-3.245,1.242-6.485,3.72-8.965c2.454-2.455,5.699-3.684,8.965-3.685c3.266,0.002,6.511,1.23,8.966,3.685l0.066,0.066
		l2.673,2.194l1.163-0.711c5.191-3.172,11.274-5.569,17.791-7.044l1.755-0.338v-3.32c0-3.405,1.297-6.53,3.793-8.845
		c2.493-2.311,5.76-3.741,9.242-3.736c3.481-0.004,7.149,1.426,9.641,3.736c2.496,2.315,4.323,5.44,4.323,8.845v2.715l0.393,0.576
		c0.42,0.328,0.685,0.57,1.185,0.824c0.869,0.437,1.85,0.877,3.064,1.359c1.816,0.721,3.912,1.524,6.014,2.407
		c2.1,0.88,4.146,1.845,5.767,2.837l3.299,2.024l-0.437-4.145c2.354-2.049,5.267-3.077,8.209-3.079
		c3.235,0.002,6.458,1.233,8.928,3.702c2.457,2.458,3.682,5.684,3.684,8.93c-0.002,3.245-1.228,6.472-3.685,8.93l-0.037,0.036
		l-2.26,2.5l0.748,1.224c3.141,5.131,5.582,11.721,7.06,17.333L158.305,88h3.265c3.504,0,6.642,1.334,8.914,3.546
		c2.269,2.217,3.664,5.253,3.667,8.734c-0.003,3.48-1.185,6.522-3.455,8.739c-2.272,2.212-4.701,3.562-8.701,3.563v3.836
		c5,0.001,8.403-1.755,11.379-4.657c2.978-2.897,4.723-6.994,4.72-11.522C178.096,95.711,176.14,91.613,173.161,88.717z"/>
	<path style="fill:#B3B3B3;" d="M99.995,127.081v3.836c16-0.001,27.267-12.218,27.268-27.292
		c-0.001-15.074-12.23-27.103-27.304-27.105C84.885,76.522,72.656,89,72.655,104h3.836c0.001-6,2.622-12.523,6.87-16.774
		c4.251-4.248,10.103-6.963,16.586-6.964c6.483,0.001,12.335,2.576,16.586,6.823c4.248,4.251,6.869,10.079,6.87,16.563
		c-0.001,6.483-2.599,12.323-6.846,16.574C112.306,124.47,106.995,127.08,99.995,127.081z"/>
	<path style="fill:#B3B3B3;" d="M77.553,119.229L77.553,119.229c2.195,3.145,5.035,5.805,8.33,7.79l1.979-3.286
		c-2.832-1.706-5.277-3.995-7.164-6.699L77.553,119.229z"/>
</g>
</svg>
