<?xml version="1.0" encoding="iso-8859-1"?>
<!-- Generator: Adobe Illustrator 18.0.0, SVG Export Plug-In . SVG Version: 6.00 Build 0)  -->
<!DOCTYPE svg PUBLIC "-//W3C//DTD SVG 1.1//EN" "http://www.w3.org/Graphics/SVG/1.1/DTD/svg11.dtd">
<svg version="1.1" id="Layer_1" xmlns="http://www.w3.org/2000/svg" xmlns:xlink="http://www.w3.org/1999/xlink" x="0px" y="0px"
	 viewBox="0 0 200 200" style="enable-background:new 0 0 200 200;" xml:space="preserve">
<rect x="-32.922" y="192.916" style="fill:#03B2FF;" width="3.773" height="3.773"/>
<g>
	<path style="fill:#B3B3B3;" d="M48.855,94.898c-0.711,0.711-0.711,1.863,0,2.574c0.711,0.711,1.863,0.711,2.574,0l7.775-7.775
		l0.001-0.001l0-0.001l51.836-51.836l0.001-0.001l0-0.001l7.775-7.775c0.711-0.711,0.711-1.863,0-2.574
		c-0.711-0.711-1.863-0.711-2.574,0l-6.521,6.521c-7.323-6.672-16.611-10.016-25.886-10.014c-9.841-0.002-19.698,3.76-27.206,11.269
		c-7.509,7.508-11.271,17.365-11.269,27.206c-0.002,9.275,3.343,18.563,10.014,25.886L48.855,94.898z M49.001,62.491
		c0.002-8.921,3.398-17.825,10.203-24.632c6.806-6.805,15.711-10.201,24.632-10.203c8.355,0.002,16.695,2.981,23.311,8.949
		L57.951,85.802C51.982,79.186,49.003,70.846,49.001,62.491z"/>
	
		<rect x="82.226" y="77.518" transform="matrix(-0.7071 0.7071 -0.7071 -0.7071 205.8546 73.4108)" style="fill:#B3B3B3;" width="10.996" height="3.64"/>
	
		<rect x="95.185" y="64.559" transform="matrix(-0.7071 0.7071 -0.7071 -0.7071 218.8139 42.1222)" style="fill:#B3B3B3;" width="10.996" height="3.64"/>
	
		<rect x="65.169" y="53.105" transform="matrix(0.7071 0.7071 -0.7071 0.7071 61.0616 -30.2039)" style="fill:#B3B3B3;" width="3.64" height="10.996"/>
	
		<rect x="78.128" y="40.146" transform="matrix(0.7071 0.7071 -0.7071 0.7071 55.6925 -43.1633)" style="fill:#B3B3B3;" width="3.64" height="10.996"/>
	<path style="fill:#B3B3B3;" d="M176.371,127.288c0-0.486-0.189-0.943-0.533-1.287l-54.429-54.429l-0.27,0.27
		c0.779-3.118,1.172-6.312,1.171-9.502c0-4.73-0.904-9.449-2.649-13.904c-0.367-0.936-1.423-1.397-2.358-1.031
		c-0.936,0.367-1.397,1.422-1.031,2.358c1.582,4.039,2.398,8.311,2.398,12.577c-0.002,8.98-3.364,17.943-10.202,24.783
		c-6.807,6.805-15.711,10.201-24.632,10.203c-4.32,0-8.638-0.798-12.715-2.394c-0.936-0.366-1.992,0.096-2.358,1.032
		c-0.366,0.936,0.095,1.992,1.032,2.358c4.505,1.763,9.274,2.644,14.041,2.644c3.132,0.001,6.266-0.384,9.325-1.145l-0.244,0.244
		l54.429,54.429c0.339,0.339,0.808,0.533,1.287,0.533c0.479,0,0.948-0.194,1.287-0.533l13.388-13.388
		c2.054,5.43,2.979,10.474,2.979,15.016c-0.007,8.058-2.847,14.556-7.422,19.094c-4.582,4.533-10.942,7.123-18.152,7.127
		c-8.116-0.001-17.319-3.304-26.092-10.996c-8.107-7.112-16.184-11.534-23.667-14.164c-7.483-2.632-14.366-3.474-20.096-3.473
		c-6.327,0.001-11.249,1.022-14.079,1.797l-1.065-4.386c-0.113-0.466-0.412-0.875-0.822-1.125c-0.409-0.249-0.911-0.328-1.376-0.215
		l-28.496,6.917c-0.977,0.237-1.577,1.221-1.339,2.198l3.459,14.248c0.113,0.466,0.412,0.876,0.822,1.125
		c0.409,0.249,0.911,0.327,1.376,0.214l28.496-6.917c0.472-0.115,0.872-0.406,1.125-0.822c0.253-0.415,0.329-0.904,0.214-1.376
		l-1.535-6.322c2.553-0.708,7.199-1.699,13.219-1.698c5.376,0,11.837,0.788,18.889,3.268c7.053,2.481,14.704,6.652,22.474,13.467
		c9.328,8.185,19.38,11.901,28.493,11.9c8.084,0.004,15.421-2.937,20.713-8.18c5.298-5.237,8.508-12.761,8.501-21.681
		c0-5.252-1.101-10.987-3.497-17.063l-1.775,0.7l11.184-11.184C176.182,128.231,176.371,127.774,176.371,127.288z M30.247,170.517
		l-2.6-10.71l24.959-6.059l2.6,10.711L30.247,170.517z M148.633,150.633L96.741,98.741c5.221-1.855,10.125-4.868,14.3-9.044
		c4.181-4.18,7.181-9.089,9.031-14.313l51.904,51.904L148.633,150.633z"/>
</g>
</svg>
