<?xml version="1.0" encoding="iso-8859-1"?>
<!-- Generator: Adobe Illustrator 18.0.0, SVG Export Plug-In . SVG Version: 6.00 Build 0)  -->
<!DOCTYPE svg PUBLIC "-//W3C//DTD SVG 1.1//EN" "http://www.w3.org/Graphics/SVG/1.1/DTD/svg11.dtd">
<svg version="1.1" id="Layer_1" xmlns="http://www.w3.org/2000/svg" xmlns:xlink="http://www.w3.org/1999/xlink" x="0px" y="0px"
	 viewBox="0 0 200 200" style="enable-background:new 0 0 200 200;" xml:space="preserve">
<rect x="-32.922" y="192.916" style="fill:#03B2FF;" width="3.773" height="3.773"/>
<g>
	<path style="fill:#B3B3B3;" d="M48.774,31.137H29.073c-0.464,0-0.99,0.261-1.318,0.589c-0.328,0.328-0.588,0.855-0.588,1.318
		v19.702c0,0.464,0.26,1.043,0.588,1.371c0.328,0.328,0.854,0.641,1.318,0.641h19.702c0.464,0,1.044-0.313,1.372-0.641
		c0.328-0.328,0.642-0.907,0.642-1.371V33.044c0-0.464-0.314-0.99-0.642-1.318C49.818,31.398,49.238,31.137,48.774,31.137z
		 M31.104,35.074h15.747v15.747H31.104V35.074z"/>
	<path style="fill:#B3B3B3;" d="M48.774,90.189H29.073c-0.464,0-0.99,0.287-1.318,0.615c-0.328,0.328-0.588,0.881-0.588,1.345
		v19.702c0,0.464,0.26,1.017,0.588,1.345c0.328,0.328,0.854,0.615,1.318,0.615h19.702c0.464,0,1.044-0.287,1.372-0.615
		c0.328-0.328,0.642-0.881,0.642-1.345V92.149c0-0.464-0.314-1.017-0.642-1.345C49.818,90.477,49.238,90.189,48.774,90.189z
		 M31.104,94.126h15.747v15.747H31.104V94.126z"/>
	<path style="fill:#B3B3B3;" d="M48.774,149.242H29.073c-0.464,0-0.99,0.313-1.318,0.641c-0.328,0.328-0.588,0.907-0.588,1.371
		v19.702c0,0.464,0.26,0.99,0.588,1.318c0.328,0.328,0.854,0.589,1.318,0.589h19.702c0.464,0,1.044-0.261,1.372-0.589
		c0.328-0.328,0.642-0.855,0.642-1.318v-19.702c0-0.464-0.314-1.043-0.642-1.371C49.818,149.555,49.238,149.242,48.774,149.242z
		 M31.104,153.179h15.747v15.747H31.104V153.179z"/>
	<path style="fill:#B3B3B3;" d="M72.325,54.507c0.973,0,1.923-0.789,1.923-1.761h0.161V35.074h96.516
		c0.973,0,1.761-0.996,1.761-1.968c0-0.973-0.788-1.968-1.761-1.968H72.417c-0.464,0-1.009,0.261-1.337,0.589
		c-0.328,0.328-0.607,0.855-0.607,1.318v19.702C70.473,53.718,71.352,54.507,72.325,54.507z"/>
	<path style="fill:#B3B3B3;" d="M170.925,90.189H72.417c-0.464,0-1.009,0.287-1.337,0.615c-0.328,0.328-0.607,0.881-0.607,1.345
		v19.702c0,0.973,0.88,1.761,1.853,1.761c0.973,0,1.923-0.789,1.923-1.761h0.161V94.126h96.516c0.973,0,1.761-0.996,1.761-1.968
		C172.686,91.185,171.898,90.189,170.925,90.189z"/>
	<path style="fill:#B3B3B3;" d="M170.925,149.242H72.417c-0.464,0-1.009,0.313-1.337,0.641c-0.328,0.328-0.607,0.907-0.607,1.371
		v19.702c0,0.973,0.88,1.761,1.853,1.761c0.973,0,1.923-0.789,1.923-1.761h0.161v-17.777h96.516c0.973,0,1.761-0.996,1.761-1.968
		C172.686,150.238,171.898,149.242,170.925,149.242z"/>
</g>
</svg>
