<?xml version="1.0" encoding="iso-8859-1"?>
<!-- Generator: Adobe Illustrator 18.0.0, SVG Export Plug-In . SVG Version: 6.00 Build 0)  -->
<!DOCTYPE svg PUBLIC "-//W3C//DTD SVG 1.1//EN" "http://www.w3.org/Graphics/SVG/1.1/DTD/svg11.dtd">
<svg version="1.1" id="Layer_1" xmlns="http://www.w3.org/2000/svg" xmlns:xlink="http://www.w3.org/1999/xlink" x="0px" y="0px"
	 viewBox="0 0 200 200" style="enable-background:new 0 0 200 200;" xml:space="preserve">
<rect x="-32.922" y="192.916" style="fill:#03B2FF;" width="3.773" height="3.773"/>
<g>
	<polygon style="fill:#B3B3B3;" points="123.14,85.6 124.538,84.202 99.854,59.518 123.14,36.232 146.426,59.518 121.742,84.202 
		123.14,85.6 124.538,84.202 123.14,85.6 124.538,86.998 152.018,59.518 123.14,30.641 94.262,59.518 123.14,88.396 124.538,86.998 
			"/>
	<polygon style="fill:#B3B3B3;" points="111.31,94.635 54.377,151.567 26.434,156.224 31.091,128.282 88.023,71.349 85.228,68.553 
		27.399,126.381 21.623,161.035 56.277,155.259 114.105,97.431 111.31,94.635 	"/>
	<polyline style="fill:#B3B3B3;" points="25.158,174.328 124.009,174.328 124.009,170.374 25.158,170.374 	"/>
	<polyline style="fill:#B3B3B3;" points="79.526,159.5 178.377,159.5 178.377,155.546 79.526,155.546 	"/>
</g>
</svg>
