<?xml version="1.0" encoding="iso-8859-1"?>
<!-- Generator: Adobe Illustrator 18.0.0, SVG Export Plug-In . SVG Version: 6.00 Build 0)  -->
<!DOCTYPE svg PUBLIC "-//W3C//DTD SVG 1.1//EN" "http://www.w3.org/Graphics/SVG/1.1/DTD/svg11.dtd">
<svg version="1.1" id="Layer_1" xmlns="http://www.w3.org/2000/svg" xmlns:xlink="http://www.w3.org/1999/xlink" x="0px" y="0px"
	 viewBox="0 0 200 200" style="enable-background:new 0 0 200 200;" xml:space="preserve">
<rect x="-32.922" y="192.916" style="fill:#03B2FF;" width="3.773" height="3.773"/>
<g>
	<polygon style="fill:#B3B3B3;" points="55.49,172.616 55.488,172.638 55.49,172.656 	"/>
	<path style="fill:#B3B3B3;" d="M53.535,174.596c-0.929,0-1.727-0.768-1.817-1.749l-7.004-76.999H17.557
		c-0.824,0-1.496-0.414-1.754-1.081c-0.275-0.712-0.105-1.419,0.468-1.94l82.421-75.011c0.344-0.313,0.778-0.485,1.222-0.485
		c0.444,0,0.878,0.172,1.222,0.485l51.747,47.191l0.26-0.115V33.733c0-1.01,0.9-1.863,1.965-1.863c1.065,0,1.964,0.853,1.964,1.863
		v31.283c0,1.039-0.691,1.82-1.643,1.856l-0.098,0.27l28.385,25.685c0.58,0.528,0.756,1.235,0.484,1.94
		c-0.262,0.677-0.911,1.081-1.737,1.081h-27.158l-7.005,76.809c-0.085,0.935-0.865,1.614-1.855,1.614H67.863
		c-0.523,0-0.865-0.024-1.196-0.355c-0.321-0.321-0.424-0.595-0.424-1.127v-57.151c0-0.591,0.111-1.335,0.424-1.647
		c0.067-0.067,0.135-0.139,0.204-0.213c0.305-0.326,0.621-0.663,0.992-0.663h32.148c0.488,0,1.057,0.569,1.363,0.875
		c0.339,0.339,0.592,1.149,0.592,1.647v32.147c0,1.01-0.9,1.863-1.964,1.863c-1.065,0-1.964-0.853-1.964-1.863v-30.741H70.171
		v53.299h74.572l6.819-74.494H48.456l6.878,76.804c-0.009,1.064-0.667,1.848-1.638,1.937
		C53.642,174.593,53.588,174.596,53.535,174.596z M22.67,91.649l0.104,0.27h154.47l0.104-0.27l-77.339-70.359L22.67,91.649z"/>
	<path style="fill:#B3B3B3;" d="M116.156,118.102c-1.01,0-1.863-0.9-1.863-1.964c0-1.065,0.853-1.964,1.863-1.964h21.192
		c1.01,0,1.863,0.9,1.863,1.964c0,1.065-0.853,1.964-1.863,1.964H116.156z"/>
	<path style="fill:#B3B3B3;" d="M100.01,74.636c-3.751-0.002-7.29-1.278-9.966-3.594c-2.713-2.341-4.268-5.616-4.265-8.985
		c-0.002-3.369,1.552-6.644,4.265-8.985c2.676-2.316,6.215-3.592,9.966-3.594c3.751,0.001,7.29,1.278,9.965,3.594
		c2.713,2.342,4.268,5.617,4.266,8.985c0.003,3.369-1.552,6.644-4.265,8.985C107.299,73.358,103.76,74.635,100.01,74.636
		L100.01,74.636z M100.016,53.205c-2.867,0-5.537,0.953-7.532,2.684c-1.919,1.672-2.977,3.863-2.979,6.169
		c0.003,2.307,1.061,4.497,2.979,6.169c1.995,1.731,4.665,2.684,7.519,2.684h0.013c2.854,0,5.524-0.953,7.519-2.684
		c1.919-1.672,2.977-3.862,2.979-6.169c-0.003-2.307-1.061-4.498-2.979-6.169C105.541,54.158,102.87,53.205,100.016,53.205z"/>
</g>
</svg>
