<?xml version="1.0" encoding="iso-8859-1"?>
<!-- Generator: Adobe Illustrator 18.0.0, SVG Export Plug-In . SVG Version: 6.00 Build 0)  -->
<!DOCTYPE svg PUBLIC "-//W3C//DTD SVG 1.1//EN" "http://www.w3.org/Graphics/SVG/1.1/DTD/svg11.dtd">
<svg version="1.1" id="Layer_1" xmlns="http://www.w3.org/2000/svg" xmlns:xlink="http://www.w3.org/1999/xlink" x="0px" y="0px"
	 viewBox="0 0 200 200" style="enable-background:new 0 0 200 200;" xml:space="preserve">
<rect x="-32.922" y="192.916" style="fill:#03B2FF;" width="3.773" height="3.773"/>
<g>
	<path style="fill:#B3B3B3;" d="M142.125,33.06l0.107-1.792c-0.896-0.054-1.787-0.08-2.671-0.08
		c-9.595-0.001-18.473,3.112-25.661,8.378c-7.19,5.266-12.702,12.684-15.601,21.311l1.702,0.572l1.701-0.572
		C98.803,52.251,93.29,44.832,86.1,39.567c-7.188-5.266-16.066-8.379-25.661-8.378c-0.885,0-1.776,0.026-2.671,0.08
		c-11.856,0.706-22.095,6.27-29.318,14.542c-7.228,8.273-11.485,19.259-11.487,30.908c0,1.378,0.059,2.767,0.182,4.162
		c0.87,10.036,3.957,18.362,8.695,25.977c4.738,7.621,11.09,14.547,18.543,22.003c3.506,3.506,6.217,6.026,8.754,8.28
		c3.809,3.384,7.194,6.147,12.358,10.817c5.165,4.671,12.125,11.261,23.046,22.272c3.148,3.175,7.314,4.772,11.462,4.77
		c4.107,0.002,8.232-1.565,11.365-4.696c9.786-9.783,15.303-14.605,21.171-19.773c5.87-5.169,12.079-10.674,23.075-21.67
		c7.453-7.456,13.806-14.382,18.543-22.003c4.738-7.615,7.824-15.941,8.695-25.979c0.121-1.394,0.181-2.782,0.181-4.161
		c-0.001-11.648-4.259-22.634-11.487-30.908c-7.223-8.272-17.461-13.836-29.317-14.542L142.125,33.06l-0.107,1.792
		c10.85,0.652,20.169,5.708,26.828,13.321c6.653,7.612,10.601,17.776,10.6,28.545c0,1.276-0.055,2.56-0.167,3.849
		c-0.834,9.484-3.684,17.169-8.168,24.396c-4.485,7.222-10.64,13.969-18.033,21.359c-10.948,10.947-17.048,16.353-22.909,21.514
		c-5.862,5.162-11.496,10.09-21.337,19.929c-2.438,2.435-5.622,3.643-8.827,3.645c-3.237-0.002-6.461-1.236-8.913-3.708
		c-14.601-14.722-22.206-21.626-27.889-26.579c-2.84-2.475-5.187-4.452-7.679-6.666c-2.493-2.215-5.14-4.675-8.601-8.135
		c-7.393-7.39-13.548-14.137-18.033-21.359c-4.484-7.227-7.334-14.912-8.168-24.396c-0.114-1.29-0.168-2.573-0.169-3.849
		c-0.001-10.769,3.947-20.933,10.6-28.545c6.659-7.612,15.979-12.669,26.829-13.321c0.823-0.05,1.642-0.074,2.456-0.074
		c8.815,0.001,16.939,2.852,23.54,7.684c6.599,4.833,11.662,11.647,14.32,19.558l1.7,5.065l1.703-5.065
		c2.657-7.911,7.72-14.725,14.319-19.558c6.601-4.833,14.725-7.684,23.54-7.684c0.813,0,1.632,0.024,2.456,0.074L142.125,33.06z"/>
	<path style="fill:#B3B3B3;" d="M164.713,77.099c-0.001-15.282-12.387-27.669-27.669-27.67v3.59
		c6.655,0.001,12.663,2.692,17.026,7.053c4.36,4.363,7.052,10.372,7.053,17.027H164.713L164.713,77.099z"/>
	<path style="fill:#B3B3B3;" d="M39.036,77.099c0.001-6.655,2.693-12.664,7.053-17.027c4.363-4.36,10.372-7.052,17.027-7.053v-3.59
		c-15.282,0.001-27.669,12.387-27.67,27.67H39.036L39.036,77.099z"/>
</g>
</svg>
