<?xml version="1.0" encoding="iso-8859-1"?>
<!-- Generator: Adobe Illustrator 18.0.0, SVG Export Plug-In . SVG Version: 6.00 Build 0)  -->
<!DOCTYPE svg PUBLIC "-//W3C//DTD SVG 1.1//EN" "http://www.w3.org/Graphics/SVG/1.1/DTD/svg11.dtd">
<svg version="1.1" id="Layer_1" xmlns="http://www.w3.org/2000/svg" xmlns:xlink="http://www.w3.org/1999/xlink" x="0px" y="0px"
	 viewBox="0 0 200 200" style="enable-background:new 0 0 200 200;" xml:space="preserve">
<rect x="-32.922" y="192.916" style="fill:#03B2FF;" width="3.773" height="3.773"/>
<g>
	<path style="fill:#B3B3B3;" d="M148.586,109.619c-0.729,0.711-0.744,1.878-0.033,2.607c0.711,0.729,1.878,0.744,2.608,0.033
		l29.94-29.185c1-0.969,1.492-2.267,1.485-3.498c-0.002-1.142-0.392-2.246-1.117-3.137c-0.72-0.891-1.814-1.556-3.088-1.736
		l-50.484-7.336c-0.397-0.058-0.741-0.308-0.919-0.668l-22.577-45.746c-0.436-0.888-1.111-1.593-1.888-2.051
		c-0.777-0.46-1.648-0.685-2.513-0.685c-0.866,0-1.736,0.225-2.514,0.685c-0.777,0.458-1.452,1.163-1.888,2.051L73.022,66.7
		c-0.178,0.36-0.522,0.61-0.919,0.668L21.62,74.703c-1.274,0.18-2.367,0.846-3.088,1.736c-0.726,0.891-1.116,1.996-1.117,3.138
		c-0.007,1.231,0.485,2.53,1.486,3.498l36.53,35.608c0.237,0.231,0.369,0.548,0.369,0.874l-0.018,0.208l-8.624,50.278l0.001-0.008
		c-0.051,0.29-0.075,0.577-0.075,0.858c-0.002,1.385,0.591,2.633,1.486,3.496c0.895,0.866,2.107,1.396,3.424,1.398
		c0.763,0.001,1.554-0.185,2.284-0.57l45.154-23.739c0.177-0.093,0.371-0.14,0.568-0.14c0.196,0,0.39,0.047,0.569,0.14
		l45.153,23.739c0.73,0.385,1.521,0.571,2.284,0.57c1.316-0.002,2.529-0.532,3.424-1.398c0.895-0.862,1.488-2.11,1.486-3.495
		c0-0.278-0.023-0.563-0.072-0.85l-0.027-0.128l-19.37-79.2c-0.242-0.989-1.24-1.595-2.229-1.353
		c-0.989,0.242-1.595,1.24-1.353,2.229l0,0l19.346,79.102l0.017,0.199c-0.002,0.339-0.132,0.616-0.365,0.848
		c-0.233,0.227-0.554,0.36-0.857,0.358c-0.179-0.001-0.36-0.039-0.567-0.147l-45.154-23.739c-0.715-0.376-1.501-0.564-2.284-0.564
		c-0.784,0-1.57,0.188-2.285,0.564l-45.153,23.738c-0.208,0.108-0.389,0.145-0.569,0.147c-0.304,0.002-0.624-0.131-0.858-0.358
		c-0.233-0.231-0.363-0.509-0.365-0.848l0.02-0.22l0.001-0.008l8.624-50.28c0.047-0.278,0.07-0.555,0.07-0.83
		c0-1.313-0.527-2.583-1.482-3.514l-36.53-35.608c-0.276-0.276-0.366-0.545-0.372-0.857c-0.002-0.285,0.106-0.587,0.286-0.805
		c0.185-0.218,0.405-0.364,0.763-0.42l50.484-7.336c1.599-0.232,2.981-1.236,3.696-2.685l22.577-45.746
		c0.126-0.251,0.278-0.4,0.462-0.511c0.183-0.109,0.405-0.169,0.633-0.169c0.227,0,0.45,0.06,0.632,0.169
		c0.184,0.111,0.336,0.26,0.462,0.511l22.577,45.746c0.715,1.449,2.097,2.453,3.695,2.685l50.484,7.336
		c0.357,0.056,0.577,0.202,0.762,0.42c0.18,0.218,0.287,0.519,0.286,0.805c-0.007,0.312-0.097,0.581-0.372,0.858L148.586,109.619z"
		/>
	<path style="fill:#B3B3B3;" d="M51.513,89.85c-0.72,0.72-0.72,1.887,0,2.607l15.828,15.828c0.72,0.72,1.887,0.72,2.607,0
		c0.72-0.72,0.72-1.887,0-2.607L54.121,89.85C53.401,89.13,52.233,89.13,51.513,89.85z"/>
</g>
</svg>
