<?xml version="1.0" encoding="iso-8859-1"?>
<!-- Generator: Adobe Illustrator 18.0.0, SVG Export Plug-In . SVG Version: 6.00 Build 0)  -->
<!DOCTYPE svg PUBLIC "-//W3C//DTD SVG 1.1//EN" "http://www.w3.org/Graphics/SVG/1.1/DTD/svg11.dtd">
<svg version="1.1" id="Layer_1" xmlns="http://www.w3.org/2000/svg" xmlns:xlink="http://www.w3.org/1999/xlink" x="0px" y="0px"
	 viewBox="0 0 200 200" style="enable-background:new 0 0 200 200;" xml:space="preserve">
<rect x="-20.438" y="211.541" style="fill:#FF00FF;" width="3.773" height="3.773"/>
<g>
	<path style="fill:#B3B3B3;" d="M178.542,96.303v63.177c-0.001,3.239-1.308,6.154-3.429,8.279c-2.125,2.122-5.04,3.428-8.279,3.429
		H33.166c-3.239-0.001-6.154-1.308-8.279-3.429c-2.122-2.125-3.428-5.04-3.429-8.279V92.647c0-1.052-0.853-1.905-1.905-1.905
		c-1.052,0-1.905,0.853-1.905,1.905l0,66.834c0.001,8.572,6.947,15.518,15.519,15.519h133.668
		c8.572-0.001,15.518-6.948,15.519-15.519V96.303c0-1.052-0.853-1.905-1.905-1.905C179.396,94.398,178.543,95.251,178.542,96.303
		L178.542,96.303z"/>
	<path style="fill:#B3B3B3;" d="M22.046,79.529l62.953,48.513l0.047,0.035c4.57,3.301,9.951,4.958,15.332,4.957
		c5.158,0.001,10.326-1.523,14.787-4.574l0.039-0.027l62.703-45.212c0.854-0.616,1.047-1.807,0.431-2.66
		c-0.616-0.854-1.807-1.047-2.66-0.431l-62.703,45.211l1.115,1.546l-1.076-1.573c-3.814,2.609-8.224,3.908-12.635,3.909
		c-4.601-0.001-9.193-1.414-13.1-4.236l-1.116,1.545l1.163-1.509L24.372,76.51c-0.834-0.642-2.03-0.487-2.673,0.346
		C21.057,77.69,21.212,78.887,22.046,79.529L22.046,79.529z"/>
	<path style="fill:#B3B3B3;" d="M131.853,134.941l-32.911,21.94c-0.876,0.584-1.112,1.767-0.529,2.643
		c0.584,0.876,1.767,1.112,2.643,0.529l32.911-21.94c0.876-0.584,1.112-1.767,0.529-2.643
		C133.912,134.594,132.729,134.358,131.853,134.941"/>
	<path style="fill:#B3B3B3;" d="M161.107,134.941l-32.911,21.94c-0.876,0.584-1.112,1.767-0.529,2.643
		c0.584,0.876,1.767,1.112,2.643,0.529l32.911-21.94c0.876-0.584,1.112-1.767,0.529-2.643
		C163.166,134.594,161.983,134.358,161.107,134.941"/>
	<path style="fill:#B3B3B3;" d="M164.07,74.363V48.766c0-0.509-0.198-0.988-0.558-1.348l-9.142-9.142l-9.141-9.142
		c-0.355-0.355-0.846-0.558-1.347-0.558H41.493c-0.502,0-0.993,0.203-1.348,0.558c-0.355,0.355-0.558,0.846-0.558,1.348v43.881
		c0,1.052,0.853,1.906,1.906,1.906c1.052,0,1.906-0.853,1.906-1.906l0-41.975h99.694l8.583,8.584l8.583,8.584l0,24.808
		c0,1.052,0.853,1.906,1.906,1.906C163.217,76.269,164.07,75.415,164.07,74.363L164.07,74.363z"/>
	<path style="fill:#B3B3B3;" d="M109.528,48.354H58.076c-1.053,0-1.906,0.853-1.906,1.906c0,1.052,0.853,1.906,1.906,1.906h51.453
		c1.052,0,1.906-0.853,1.906-1.906C111.434,49.207,110.581,48.354,109.528,48.354"/>
	<path style="fill:#B3B3B3;" d="M109.528,63.599H58.076c-1.053,0-1.906,0.853-1.906,1.906c0,1.052,0.853,1.906,1.906,1.906h51.453
		c1.052,0,1.906-0.853,1.906-1.906C111.434,64.452,110.581,63.599,109.528,63.599"/>
</g>
</svg>
