<?xml version="1.0" encoding="iso-8859-1"?>
<!-- Generator: Adobe Illustrator 18.0.0, SVG Export Plug-In . SVG Version: 6.00 Build 0)  -->
<!DOCTYPE svg PUBLIC "-//W3C//DTD SVG 1.1//EN" "http://www.w3.org/Graphics/SVG/1.1/DTD/svg11.dtd">
<svg version="1.1" id="Layer_1" xmlns="http://www.w3.org/2000/svg" xmlns:xlink="http://www.w3.org/1999/xlink" x="0px" y="0px"
	 viewBox="0 0 200 200" style="enable-background:new 0 0 200 200;" xml:space="preserve">
<rect x="-20.438" y="211.541" style="fill:#FF00FF;" width="3.773" height="3.773"/>
<g>
	<path style="fill:#B3B3B3;" d="M183.732,75.99c-0.389-0.49-0.958-0.99-1.641-0.99h-33.08c-1.445-25-23.145-46.685-49.461-46.692
		C72.315,28.309,50,50.315,50,77.553v0.029c0,12.193,3.744,25.186,10.21,35.784c3.234,5.291,7.013,9.957,11.728,13.578
		C76.151,130.177,82,132.477,86,133.615v12.622V149H57.873C49.533,149,42,153.628,39,161.568v-0.112l-6.191,17.353L37,180.001
		v-0.524l6.233-16.764l0.1,0.036c2.014-6.053,8.109-9.748,14.539-9.748H75.92c1.146,12,11.387,21.711,23.865,21.712
		c12.478-0.001,22.719-9.712,23.865-21.712h18.048c6.427,0,12.096,3.675,14.119,9.741l0.001-0.017l5.874,17.409l4.309-1.563
		l-5.871-17.168l0.001,0.225C157.485,153.683,150.044,149,141.699,149H112v-15.364c6-1.131,10.539-3.495,14.73-6.717
		c7.051-5.418,12.737-12.873,16.453-21.591c3.464-8.14,5.611-17.328,5.86-25.328h33.049c0.682,0,1.252-0.153,1.641-0.643
		c0.39-0.495,0.63-1.059,0.633-1.684C184.362,77.048,184.123,76.485,183.732,75.99z M68.13,45.827
		c8.109-8.105,19.286-13.111,31.656-13.113c12.363,0.001,23.543,5.144,31.656,13.254C138.931,53.458,143.774,64,144.461,75H55.325
		c-0.001,0-0.052,0.106-0.146,0.07c-0.021-0.007-0.052,0.04-0.077,0.031C55.746,63.755,60.595,53.363,68.13,45.827z
		 M135.246,111.546c-2.988,4.89-6.63,8.845-10.826,12.066c-4.177,3.204-9.067,5.237-14.293,6.05L108,129.774v15.174l0.382,8.052
		h10.69c-0.519,5-2.493,7.975-5.542,11.036c-3.518,3.514-8.358,5.474-13.745,5.475c-5.393-0.002-10.23-1.855-13.745-5.367
		C82.995,161.088,81.018,158,80.499,153H91v-6.764v-16.411l-1.817-0.309l-0.096-0.001c-5.221-0.81-9.834-2.986-14.029-6.203
		c-6.279-4.814-11.298-11.993-14.762-20.133c-3.155-7.403-4.921-15.255-5.219-23.009c0.072,0.034,0.143-0.17,0.249-0.17H98v12.551
		c0,0.612,0.034,1.18,0.422,1.597c0.386,0.417,0.853,0.679,1.479,0.677c0.627,0.001,1.144-0.26,1.531-0.677
		c0.388-0.417,0.567-0.984,0.567-1.597V80h42.513c-0.319,12-3.582,22.021-9.267,31.313l0.372,0.344L135.246,111.546z"/>
	<path style="fill:#B3B3B3;" d="M117.875,93.303c-1.256,0-2.273,1.018-2.273,2.273c-0.002,4.376-1.767,8.315-4.634,11.186
		c-2.87,2.867-6.81,4.632-11.186,4.633c-4.376-0.001-8.316-1.767-11.186-4.634c-2.867-2.87-4.632-6.81-4.634-11.186
		c0-1.256-1.018-2.343-2.273-2.343c-1.106,0-2.025,0.767-2.229,1.767H79v0.576c0,11.249,9.325,20.365,20.575,20.367
		c11.249-0.001,20.469-9.118,20.47-20.367C120.045,94.32,119.131,93.303,117.875,93.303z"/>
</g>
</svg>
