<?xml version="1.0" encoding="iso-8859-1"?>
<!-- Generator: Adobe Illustrator 18.0.0, SVG Export Plug-In . SVG Version: 6.00 Build 0)  -->
<!DOCTYPE svg PUBLIC "-//W3C//DTD SVG 1.1//EN" "http://www.w3.org/Graphics/SVG/1.1/DTD/svg11.dtd">
<svg version="1.1" id="Layer_1" xmlns="http://www.w3.org/2000/svg" xmlns:xlink="http://www.w3.org/1999/xlink" x="0px" y="0px"
	 viewBox="0 0 200 200" style="enable-background:new 0 0 200 200;" xml:space="preserve">
<rect x="-20.438" y="211.541" style="fill:#FF00FF;" width="3.773" height="3.773"/>
<g>
	<path style="fill:#B3B3B3;" d="M89.396,179.805c-3.823,0-7.269-2.445-8.575-6.083l-0.354-0.986H62.98l-0.354,0.987
		c-1.306,3.638-4.753,6.083-8.576,6.083c-5.026,0-9.114-4.089-9.114-9.114c0-2.094,0.746-4.148,2.1-5.783l0.673-0.812
		l-12.022-20.034l-1.035,0.213c-0.591,0.122-1.2,0.183-1.811,0.183c-5.025,0-9.114-4.088-9.114-9.114
		c0-5.025,4.088-9.113,9.114-9.113c0.612,0,1.222,0.062,1.812,0.183l1.035,0.213l12.019-20.032l-0.673-0.812
		c-1.353-1.634-2.098-3.688-2.098-5.785c0-2.095,0.746-4.149,2.1-5.784l0.673-0.812L33.792,70.209l-0.973,0.016
		c-0.963,0-1.924-0.257-2.769-0.742c-1.287-0.743-2.208-1.945-2.594-3.387c-0.386-1.441-0.189-2.944,0.555-4.233
		c0.993-1.715,2.843-2.781,4.826-2.781l0.955,0.015l15.804-26.339l-0.418-0.752c-0.944-1.701-0.929-3.805,0.041-5.491
		c0.993-1.72,2.847-2.789,4.837-2.789c0.972,0,1.934,0.259,2.783,0.749c0.843,0.488,1.547,1.194,2.034,2.04l0.43,0.747h21.159
		l0.349-0.998c0.184-0.526,0.417-1.036,0.693-1.518c1.517-2.628,4.231-4.323,7.259-4.532l0.199-0.008
		c0.146-0.007,0.289-0.01,0.431-0.01c1.598,0,3.174,0.423,4.558,1.222c2.108,1.217,3.616,3.183,4.246,5.534
		c0.63,2.351,0.306,4.807-0.911,6.916c-0.249,0.426-0.541,0.842-0.868,1.233l-0.678,0.813l13.935,23.226l1.006-0.067
		c1.918,0.005,3.751,1.075,4.742,2.792l0.43,0.745h24.84l0.43-0.745c0.992-1.719,2.841-2.788,4.825-2.79
		c3.076,0,5.578,2.503,5.578,5.579c-0.001,0.945-0.243,1.88-0.702,2.706l-0.418,0.752l13.909,23.183l1.037-0.216
		c0.595-0.124,1.205-0.189,1.811-0.192c5.019,0,9.106,4.088,9.106,9.114c0,5.026-4.088,9.114-9.114,9.114
		c-0.607,0-1.219-0.061-1.816-0.183l-1.032-0.21l-13.905,23.172l0.419,0.752c0.459,0.825,0.703,1.76,0.705,2.703
		c0,3.074-2.503,5.576-5.579,5.576c-1.981-0.003-3.828-1.072-4.82-2.79l-0.431-0.745h-21.165l-0.354,0.987
		c-1.306,3.638-4.752,6.083-8.576,6.083c-0.611,0-1.22-0.062-1.811-0.183l-1.035-0.213l-12.02,20.032l0.673,0.813
		c1.353,1.633,2.098,3.688,2.098,5.784C98.51,175.716,94.422,179.805,89.396,179.805z M89.396,165.666
		c-2.818,0-5.025,2.207-5.025,5.024c0,2.818,2.207,5.025,5.025,5.025c2.817,0,5.024-2.207,5.024-5.025
		C94.421,167.873,92.214,165.666,89.396,165.666z M54.05,165.666c-2.818,0-5.025,2.207-5.025,5.024c0,2.818,2.207,5.025,5.025,5.025
		s5.025-2.207,5.025-5.025C59.075,167.873,56.867,165.666,54.05,165.666z M54.05,161.577c3.823,0,7.27,2.445,8.577,6.083
		l0.354,0.986h17.488l0.353-0.987c1.307-3.638,4.753-6.083,8.575-6.083c0.611,0,1.221,0.062,1.812,0.184l1.035,0.213l12.018-20.032
		l-0.673-0.812c-1.353-1.633-2.098-3.688-2.098-5.785c0-2.094,0.746-4.148,2.1-5.783l0.673-0.812l-12.02-20.033l-1.035,0.213
		c-0.591,0.122-1.2,0.184-1.812,0.184c-3.823,0-7.269-2.444-8.575-6.083l-0.354-0.987H62.98l-0.355,0.986
		c-1.306,3.639-4.752,6.083-8.576,6.083c-0.61,0-1.22-0.062-1.811-0.184l-1.035-0.213l-12.02,20.032l0.673,0.812
		c1.353,1.634,2.098,3.688,2.098,5.785c0,2.097-0.745,4.152-2.098,5.786l-0.673,0.812l12.018,20.032l1.035-0.212
		C52.834,161.639,53.444,161.577,54.05,161.577z M110.604,130.32c-2.818,0-5.025,2.207-5.025,5.025s2.207,5.025,5.025,5.025
		s5.025-2.207,5.025-5.025S113.421,130.32,110.604,130.32z M32.842,130.32c-2.818,0-5.025,2.207-5.025,5.025
		s2.207,5.025,5.025,5.025s5.025-2.207,5.025-5.025S35.66,130.32,32.842,130.32z M110.604,126.226c3.823,0,7.27,2.445,8.577,6.083
		l0.353,0.987h21.163l0.43-0.745c0.992-1.719,2.841-2.788,4.825-2.79l0.922,0.067l13.935-23.222l-0.672-0.812
		c-1.347-1.628-2.09-3.687-2.092-5.799c0.001-2.112,0.743-4.172,2.089-5.8l0.671-0.813l-13.928-23.215l-1.006,0.067
		c-1.917-0.006-3.75-1.075-4.741-2.792l-0.431-0.745h-22.489v-4.07l-2.78,4.812c-0.992,1.719-2.841,2.788-4.826,2.79l-0.923-0.066
		L95.737,93.397l0.673,0.813c1.354,1.635,2.1,3.689,2.1,5.785c0,2.097-0.745,4.152-2.098,5.786l-0.673,0.812l12.018,20.031
		l1.035-0.212C109.387,126.289,109.996,126.226,110.604,126.226z M89.396,94.975c-2.818,0-5.025,2.207-5.025,5.024
		c0,2.818,2.207,5.025,5.025,5.025c2.817,0,5.024-2.207,5.024-5.025C94.421,97.181,92.214,94.975,89.396,94.975z M54.05,94.975
		c-2.818,0-5.025,2.207-5.025,5.024c0,2.818,2.207,5.025,5.025,5.025s5.025-2.207,5.025-5.025
		C59.075,97.181,56.867,94.975,54.05,94.975z M54.05,90.885c3.823,0,7.27,2.445,8.577,6.083l0.354,0.987h17.488l0.353-0.987
		c1.307-3.638,4.753-6.082,8.575-6.082c0.612,0,1.221,0.062,1.812,0.183l1.035,0.213l13.906-23.179l-0.419-0.752
		c-0.459-0.825-0.703-1.759-0.704-2.701c0-0.941,0.243-1.876,0.702-2.702l0.418-0.752l-13.909-23.18l-1.033,0.211
		c-0.599,0.123-1.213,0.185-1.824,0.185c-1.592,0-3.163-0.419-4.542-1.213c-1.875-1.084-3.306-2.807-4.028-4.852l-0.351-0.994
		H59.316l-0.431,0.743c-0.994,1.717-2.844,2.783-4.827,2.783l-0.956-0.015L37.301,61.199l0.417,0.752
		c0.939,1.694,0.939,3.716,0,5.409l-0.417,0.752l13.902,23.17l1.035-0.212C52.836,90.947,53.445,90.885,54.05,90.885z"/>
</g>
</svg>
