<?xml version="1.0" encoding="iso-8859-1"?>
<!-- Generator: Adobe Illustrator 18.0.0, SVG Export Plug-In . SVG Version: 6.00 Build 0)  -->
<!DOCTYPE svg PUBLIC "-//W3C//DTD SVG 1.1//EN" "http://www.w3.org/Graphics/SVG/1.1/DTD/svg11.dtd">
<svg version="1.1" id="Layer_1" xmlns="http://www.w3.org/2000/svg" xmlns:xlink="http://www.w3.org/1999/xlink" x="0px" y="0px"
	 viewBox="0 0 200 200" style="enable-background:new 0 0 200 200;" xml:space="preserve">
<rect x="-20.438" y="211.541" style="fill:#FF00FF;" width="3.773" height="3.773"/>
<g>
	<path style="fill:#B3B3B3;" d="M103.033,180.819c-5.301,0-10.621-2.308-15.385-6.674c-4.518-4.14-8.558-10.028-12.008-17.501
		c-0.587-1.272-1.196-2.702-1.862-4.372l-0.378-0.948l-1.01,0.146c-1.778,0.258-3.32,0.446-4.715,0.573
		c-2.349,0.215-4.64,0.324-6.809,0.324c-5.376,0-10.204-0.663-14.35-1.97c-1.51-0.476-2.958-1.056-4.302-1.723l-0.65-0.323
		l-0.614,0.386c-1.737,1.092-3.721,1.669-5.737,1.669c-5.994,0-10.87-4.876-10.87-10.87c0-3.838,2.088-7.438,5.451-9.395
		l0.617-0.359l0.026-0.713c0.062-1.734,0.296-3.525,0.695-5.323c1.327-5.982,4.406-12.425,9.153-19.147
		c0.809-1.147,1.743-2.389,2.855-3.799l0.633-0.802l-0.633-0.802c-1.117-1.417-2.05-2.658-2.853-3.795
		c-4.748-6.724-7.827-13.167-9.154-19.147c-1.399-6.309-0.737-12.071,1.914-16.662c2.651-4.591,7.31-8.045,13.473-9.988
		c4.029-1.27,8.704-1.932,13.897-1.968l0.45-0.002c2.175,0,4.468,0.109,6.812,0.323c1.395,0.128,2.936,0.315,4.713,0.573l1.01,0.147
		l0.378-0.949c0.676-1.694,1.285-3.125,1.862-4.375c3.449-7.473,7.489-13.361,12.007-17.501c4.763-4.365,10.083-6.673,15.385-6.673
		c5.302,0,10.622,2.307,15.385,6.673c4.519,4.14,8.558,10.029,12.008,17.501c0.584,1.266,1.193,2.697,1.862,4.372l0.378,0.948
		l1.01-0.147c1.787-0.259,3.331-0.447,4.721-0.575c2.355-0.215,4.648-0.324,6.816-0.324l0.446,0.002
		c5.191,0.036,9.867,0.698,13.897,1.969c6.163,1.942,10.821,5.396,13.471,9.987c2.652,4.593,3.314,10.354,1.915,16.662
		c-1.326,5.981-4.406,12.423-9.155,19.148c-0.809,1.146-1.743,2.389-2.856,3.8L162.298,100l0.632,0.802
		c1.115,1.414,2.05,2.657,2.858,3.801c4.749,6.725,7.829,13.168,9.155,19.148c1.398,6.307,0.736,12.068-1.916,16.661
		c-2.651,4.592-7.309,8.045-13.472,9.988c-1.138,0.359-2.343,0.673-3.582,0.934l-0.809,0.17l-0.186,0.806
		c-0.815,3.532-4.021,6.095-7.624,6.095c-3.342,0-6.404-2.237-7.447-5.441l-0.267-0.822l-1.248-0.096
		c-1.382-0.127-2.928-0.314-4.717-0.574l-1.01-0.146l-0.378,0.948c-0.666,1.669-1.275,3.098-1.861,4.37
		c-3.448,7.472-7.488,13.36-12.007,17.501C113.653,178.511,108.333,180.819,103.033,180.819z M102.533,142.827
		c-8.237,3.422-16.346,5.97-24.099,7.575l-1.534,0.317l0.6,1.447c0.47,1.133,0.899,2.119,1.312,3.014
		c3.209,6.952,7.08,12.62,11.195,16.391c4.168,3.819,8.55,5.755,13.026,5.755c4.475,0,8.858-1.936,13.026-5.755
		c4.116-3.773,7.987-9.441,11.194-16.391c0.423-0.917,0.852-1.902,1.312-3.012l0.599-1.447l-1.533-0.317
		c-7.758-1.606-15.868-4.156-24.103-7.577l-0.497-0.207L102.533,142.827z M147.354,146.24c-2.432,0-4.336,1.905-4.336,4.336
		c0,2.432,1.905,4.336,4.336,4.336c2.431,0,4.336-1.905,4.336-4.336C151.69,148.144,149.786,146.24,147.354,146.24z M45.091,103.971
		c-0.742,0.967-1.381,1.832-1.954,2.644c-4.416,6.254-7.389,12.44-8.597,17.891c-0.205,0.924-0.363,1.837-0.469,2.715l-0.174,1.434
		l1.444,0.017c5.923,0.07,10.741,4.944,10.741,10.867c0,1.743-0.416,3.422-1.235,4.99l-0.664,1.27l1.33,0.532
		c0.7,0.28,1.371,0.521,2.052,0.735c3.796,1.197,8.297,1.804,13.377,1.804c2.056,0,4.214-0.102,6.414-0.303
		c1.003-0.092,2.071-0.213,3.264-0.369l1.554-0.204l-0.493-1.487c-2.489-7.523-4.336-15.82-5.491-24.661l-0.07-0.534l-0.428-0.327
		c-7.078-5.421-13.34-11.169-18.609-17.086l-1.041-1.169L45.091,103.971z M158.655,104.267
		c-5.196,5.782-11.347,11.407-18.284,16.718l-0.427,0.327l-0.07,0.534c-1.155,8.845-3.002,17.144-5.49,24.665l-0.492,1.486
		l1.552,0.205c1.186,0.156,2.256,0.278,3.271,0.371l0.134,0.005l0.896,0l0.323-0.82c1.178-2.996,4.106-5.008,7.286-5.008
		c2.915,0,5.659,1.709,6.992,4.353l0.455,0.902l0.985-0.221c1.081-0.242,1.946-0.469,2.72-0.713
		c5.391-1.699,9.259-4.526,11.497-8.403c2.238-3.877,2.752-8.641,1.529-14.158c-1.208-5.447-4.18-11.633-8.597-17.888
		c-0.571-0.809-1.211-1.675-1.958-2.648l-2.322-3.026V104.267z M133.514,125.953c-3.711,2.545-7.532,4.955-11.358,7.163
		c-3.83,2.212-7.83,4.317-11.887,6.257l-2.765,1.322l2.875,1.061c6.472,2.389,12.832,4.212,18.904,5.418l1.113,0.221l0.366-1.074
		c1.991-5.859,3.593-12.278,4.761-19.081l0.518-3.02L133.514,125.953z M70.546,127.24c1.167,6.804,2.769,13.223,4.759,19.079
		l0.365,1.074l1.113-0.221c6.065-1.204,12.424-3.027,18.901-5.417l2.875-1.061l-2.764-1.322c-4.055-1.938-8.052-4.042-11.879-6.252
		c-3.82-2.205-7.643-4.616-11.362-7.167l-2.527-1.733L70.546,127.24z M35.212,132.158c-4.137,0-7.377,3.241-7.377,7.377
		c0,4.137,3.241,7.378,7.377,7.378c4.137,0,7.378-3.241,7.378-7.378C42.59,135.399,39.35,132.158,35.212,132.158z M95.901,64.457
		c-3.459,1.691-6.904,3.526-10.241,5.452c-5.48,3.164-10.794,6.647-15.793,10.352l-0.452,0.334l-0.064,0.559
		c-0.709,6.189-1.068,12.532-1.068,18.851c0,6.319,0.359,12.661,1.068,18.85l0.064,0.559l0.452,0.335
		c5,3.706,10.314,7.189,15.794,10.353c5.479,3.163,11.15,6.023,16.855,8.5l0.516,0.224l0.516-0.224
		c5.703-2.476,11.376-5.337,16.861-8.504c5.474-3.16,10.786-6.642,15.789-10.349l0.452-0.335l0.064-0.558
		c0.708-6.181,1.067-12.523,1.067-18.85c0-6.326-0.359-12.668-1.067-18.85l-0.064-0.558l-0.452-0.335
		c-5.004-3.707-10.315-7.188-15.788-10.348c-3.35-1.933-6.8-3.77-10.255-5.459l-0.846-0.413l-0.654,0.678
		c-1.465,1.519-3.514,2.391-5.624,2.394c-2.111,0-4.162-0.872-5.629-2.391l-0.654-0.678L95.901,64.457z M63.198,85.488
		c-5.307,4.412-10.065,9.008-14.143,13.661l-0.748,0.854l0.748,0.854c4.076,4.651,8.834,9.248,14.142,13.662l2.357,1.959
		l-0.238-3.056c-0.348-4.475-0.525-8.989-0.525-13.418c0-4.418,0.177-8.934,0.526-13.42l0.237-3.055L63.198,85.488z M140.75,86.584
		c0.348,4.472,0.524,8.986,0.524,13.418c0,4.433-0.176,8.947-0.524,13.419l-0.237,3.055l2.356-1.958
		c5.305-4.411,10.063-9.008,14.143-13.663L157.76,100l-0.748-0.853c-4.073-4.648-8.832-9.244-14.143-13.659l-2.356-1.959
		L140.75,86.584z M60.94,51.135c-5.08,0-9.579,0.607-13.374,1.803c-5.39,1.699-9.258,4.526-11.497,8.403
		c-2.238,3.877-2.752,8.641-1.529,14.159c1.208,5.447,4.18,11.633,8.597,17.888c0.573,0.812,1.212,1.676,1.953,2.642l0.953,1.242
		l1.041-1.169c5.266-5.912,11.528-11.659,18.61-17.083l0.427-0.327l0.07-0.534c1.155-8.845,3.002-17.142,5.489-24.661l0.492-1.486
		l-1.552-0.205c-1.193-0.156-2.26-0.277-3.262-0.368c-1.9-0.174-3.777-0.274-5.581-0.298C61.498,51.137,61.218,51.135,60.94,51.135z
		 M145.129,51.129c-0.277,0-0.555,0.002-0.835,0.005c-1.804,0.024-3.681,0.124-5.582,0.298c-0.998,0.091-2.067,0.212-3.268,0.37
		l-1.552,0.203l0.492,1.487c2.488,7.521,4.335,15.819,5.491,24.665l0.07,0.534l0.428,0.327c7.084,5.424,13.346,11.172,18.612,17.083
		l1.041,1.17l0.953-1.243c0.745-0.971,1.384-1.836,1.955-2.644c4.416-6.255,7.389-12.441,8.597-17.891
		c1.224-5.518,0.71-10.282-1.528-14.158c-2.238-3.876-6.106-6.703-11.497-8.402C154.707,51.736,150.207,51.129,145.129,51.129z
		 M75.305,53.686c-1.991,5.859-3.592,12.277-4.759,19.077l-0.519,3.021l2.528-1.734c3.705-2.542,7.528-4.953,11.36-7.166
		c3.468-2.003,7.036-3.902,10.605-5.646l0.806-0.394l-0.085-0.893c-0.022-0.228-0.034-0.456-0.036-0.678l0.075-1.168l-0.919-0.329
		c-6.053-2.166-11.966-3.829-17.576-4.943l-1.113-0.221L75.305,53.686z M129.281,52.826c-5.614,1.115-11.527,2.777-17.573,4.942
		l-0.908,0.324l0.051,0.962l0.009,0.26c-0.002,0.192-0.013,0.419-0.034,0.638l-0.084,0.89l0.804,0.393
		c3.564,1.742,7.134,3.642,10.609,5.649c3.827,2.209,7.648,4.619,11.356,7.163l2.527,1.733l-0.518-3.02
		c-1.167-6.8-2.769-13.221-4.761-19.083l-0.365-1.074L129.281,52.826z M103.031,51.45c2.269,0.005,4.421,0.991,5.905,2.705
		l0.582,0.672l0.836-0.301c5.891-2.118,11.704-3.778,17.278-4.931l1.533-0.318l-0.599-1.446c-0.46-1.111-0.89-2.097-1.312-3.014
		c-3.209-6.951-7.08-12.618-11.195-16.389c-4.168-3.819-8.55-5.755-13.026-5.755c-4.476,0-8.859,1.936-13.026,5.755
		c-4.115,3.77-7.986,9.437-11.195,16.389c-0.417,0.905-0.847,1.891-1.313,3.016L76.9,49.28l1.533,0.317
		c5.574,1.154,11.385,2.812,17.271,4.928l0.836,0.3l0.581-0.671C98.607,52.439,100.762,51.453,103.031,51.45z"/>
</g>
</svg>
