<?xml version="1.0" encoding="iso-8859-1"?>
<!-- Generator: Adobe Illustrator 18.0.0, SVG Export Plug-In . SVG Version: 6.00 Build 0)  -->
<!DOCTYPE svg PUBLIC "-//W3C//DTD SVG 1.1//EN" "http://www.w3.org/Graphics/SVG/1.1/DTD/svg11.dtd">
<svg version="1.1" id="Layer_1" xmlns="http://www.w3.org/2000/svg" xmlns:xlink="http://www.w3.org/1999/xlink" x="0px" y="0px"
	 viewBox="0 0 200 200" style="enable-background:new 0 0 200 200;" xml:space="preserve">
<rect x="-20.438" y="211.541" style="fill:#FF00FF;" width="3.773" height="3.773"/>
<g>
	<polygon style="fill:#B3B3B3;" points="85.002,23.754 85.002,23.755 85.002,23.755 	"/>
	<path style="fill:#B3B3B3;" d="M127.596,80.673l-0.698-0.437l25.005-54.891L152,25.28v0.001c0-0.307,0.255-0.662,0.255-1.023
		c0-0.123-0.04-0.247-0.065-0.37c-0.097-0.484-0.394-0.606-0.806-0.879c-0.31-0.207-0.689-0.009-1.08-0.009h-33.602
		c-0.832,0-1.703-0.044-1.703,0.756v0.001l-0.062,0.071L99.981,56.688L85.032,23.825l-0.025,0.23C84.782,23.244,84.035,23,83.178,23
		H49.579c-1.012,0-1.703,0.52-1.717,1.532L48,24.231v0.026c0,0.36-0.034,0.71,0.163,1.012l-0.03,0.06l24.922,55.071L72.338,81
		h-0.007c-15.379,9-24.567,26.02-24.567,44.107c0,28.784,23.414,52.117,52.198,52.118c28.784,0,52.198-23.457,52.199-52.241
		C152.161,106.897,142.975,90.303,127.596,80.673z M99.96,173.431c-13.368,0-25.489-5.437-34.27-14.218
		c-8.78-8.781-14.218-20.901-14.218-34.27c0-13.369,5.437-25.489,14.218-34.27c8.781-8.78,20.901-14.218,34.27-14.218
		c13.369,0,25.489,5.437,34.27,14.218c8.78,8.781,14.218,20.901,14.218,34.27c0,13.369-5.437,25.489-14.218,34.27
		C125.449,167.993,113.328,173.431,99.96,173.431z M101.701,72.776L101.701,72.776c-0.677-0.022-1.23-0.033-1.742-0.033
		c-4.534,0-9.045,0.588-13.408,1.747l-0.769,0.149L63.685,26h18.297l21.234,46.771L101.701,72.776z M114.149,74.643l-0.77-0.177
		c-1.776-0.472-3.584-0.839-5.375-1.117l-0.502-0.071l-5.505-12.162L117.936,26h18.297L114.149,74.643z M123.645,78.365l-0.87-0.396
		c-1.328-0.648-2.719-1.239-4.137-1.784l-0.932-0.407L140.311,26h7.109L123.645,78.365z M52.499,26h7.11l22.615,49.781l-0.933,0.386
		c-1.411,0.542-2.806,1.162-4.147,1.816l-0.869,0.375L52.499,26z"/>
	<path style="fill:#B3B3B3;" d="M118.749,119.674c-0.251-0.225-0.558-0.377-0.888-0.441l-10.396-2.048l-5.466-9.81v0.2
		c-1-0.566-1.358-0.574-2.031-0.574h-0.004h-0.004c-0.675,0-1.297,0.092-1.624,0.683l-5.239,9.323L82,119.29v-0.025
		c0,0.103-0.89,0.379-1.158,0.794c-0.196,0.303-0.091,0.644-0.091,0.998c0,0.131,0.249,0.259,0.249,0.39v-0.002
		c0,0.329,0.028,0.555,0.258,0.555h-0.1l7.332,8.056l-1.195,11.357l-0.023,0.468c0.001,0.939,0.695,2.119,1.636,2.119h0.006h0.188
		h0.007h0.007c0.271,0,0.885-0.365,0.885-0.48v-0.077l9.713-4.619L110,143.4v0.145c0,0.104,0.54,0.455,0.794,0.455h0.002h0.011
		c1.019,0,2.193-1.285,2.193-2.303v-0.008v-0.216v-0.008l-1.509-10.734l7.487-8.435c0.307-0.342,0.431-0.781,0.431-1.238
		l-0.025-0.102C119.359,120.462,119.117,120.004,118.749,119.674z M107.514,130.121l0.014,0.228l1.034,8.31l-8.139-3.61l0,0
		c-0.238-0.105-0.493-0.159-0.752-0.159c-0.273,0-0.54,0.059-0.787,0.175l0,0l-7.583,3.551l0.918-8.856l0.01-0.191
		c0-0.469-0.177-0.922-0.5-1.268l-5.719-6.116l8.705-1.864h0c0.525-0.112,0.976-0.446,1.235-0.916l4.049-7.33l4.462,7.704
		c0.27,0.465,0.727,0.79,1.255,0.892l8.221,1.586l-5.948,6.624C107.682,129.223,107.514,129.665,107.514,130.121z"/>
	<path style="fill:#B3B3B3;" d="M99.96,86.094c-21.422,0-38.848,17.427-38.849,38.849c0,21.421,17.427,38.847,38.849,38.848
		c21.422,0,38.848-17.426,38.849-38.848C138.808,103.521,121.381,86.095,99.96,86.094z M99.96,160.079
		c-9.688,0-18.471-3.94-24.834-10.303c-6.363-6.363-10.303-15.146-10.303-24.833c0-9.688,3.94-18.471,10.303-24.834
		c6.363-6.363,15.146-10.303,24.834-10.303c9.688,0,18.47,3.94,24.834,10.303c6.363,6.363,10.303,15.146,10.303,24.834
		c0,9.687-3.94,18.47-10.303,24.833C118.43,156.139,109.647,160.079,99.96,160.079z"/>
</g>
</svg>
