<?xml version="1.0" encoding="iso-8859-1"?>
<!-- Generator: Adobe Illustrator 18.0.0, SVG Export Plug-In . SVG Version: 6.00 Build 0)  -->
<!DOCTYPE svg PUBLIC "-//W3C//DTD SVG 1.1//EN" "http://www.w3.org/Graphics/SVG/1.1/DTD/svg11.dtd">
<svg version="1.1" id="Layer_1" xmlns="http://www.w3.org/2000/svg" xmlns:xlink="http://www.w3.org/1999/xlink" x="0px" y="0px"
	 viewBox="0 0 200 200" style="enable-background:new 0 0 200 200;" xml:space="preserve">
<rect x="-20.438" y="211.541" style="fill:#FF00FF;" width="3.773" height="3.773"/>
<g>
	<path style="fill:#B3B3B3;" d="M138.474,182c-1.004,0-1.821-0.817-1.821-1.821v-8.752H73.92v8.752c0,1.004-0.817,1.821-1.821,1.821
		c-1.004,0-1.821-0.817-1.821-1.821v-8.752H30.394c-1.004,0-1.821-0.817-1.821-1.821v-23.144h-8.752
		c-1.004,0-1.821-0.817-1.821-1.821c0-1.004,0.817-1.82,1.821-1.82h8.752v-21.322h-8.752c-1.004,0-1.821-0.817-1.821-1.821
		c0-1.004,0.817-1.82,1.821-1.82h8.752V96.534h-8.752c-1.004,0-1.821-0.817-1.821-1.821c0-1.004,0.817-1.821,1.821-1.821h8.752
		V71.569h-8.752c-1.004,0-1.821-0.817-1.821-1.821c0-1.004,0.817-1.82,1.821-1.82h8.752V46.606h-8.752
		c-1.004,0-1.821-0.817-1.821-1.821c0-1.004,0.817-1.82,1.821-1.82h8.752V19.821c0-1.004,0.817-1.821,1.821-1.821
		c1.004,0,1.82,0.817,1.82,1.821v147.965h147.966c1.004,0,1.821,0.817,1.821,1.821c0,1.004-0.817,1.821-1.821,1.821h-39.885v8.752
		C140.294,181.183,139.477,182,138.474,182z"/>
	<path style="fill:#B3B3B3;" d="M98.238,160.854c-1.004,0-1.821-0.817-1.821-1.821v-37.534H73.92v37.534
		c0,1.004-0.817,1.821-1.821,1.821c-1.004,0-1.821-0.817-1.821-1.821V96.534H46.311v62.499c0,1.004-0.817,1.821-1.82,1.821
		c-1.004,0-1.821-0.817-1.821-1.821v-64.32c0-1.004,0.817-1.821,1.821-1.821h27.608c1.004,0,1.821,0.817,1.821,1.821v23.144h24.318
		c1.004,0,1.821,0.817,1.821,1.82v39.355C100.058,160.037,99.242,160.854,98.238,160.854z"/>
	<path style="fill:#B3B3B3;" d="M166.082,160.854c-1.004,0-1.821-0.817-1.821-1.821V71.569h-23.967v87.464
		c0,1.004-0.817,1.821-1.82,1.821c-1.004,0-1.821-0.817-1.821-1.821V46.606h-22.497v112.427c0,1.004-0.817,1.821-1.821,1.821
		s-1.821-0.817-1.821-1.821V44.785c0-1.004,0.817-1.82,1.821-1.82h26.139c1.004,0,1.82,0.817,1.82,1.82v23.143h25.788
		c1.004,0,1.821,0.817,1.821,1.82v89.285C167.903,160.037,167.086,160.854,166.082,160.854z"/>
</g>
</svg>
