<?xml version="1.0" encoding="iso-8859-1"?>
<!-- Generator: Adobe Illustrator 18.0.0, SVG Export Plug-In . SVG Version: 6.00 Build 0)  -->
<!DOCTYPE svg PUBLIC "-//W3C//DTD SVG 1.1//EN" "http://www.w3.org/Graphics/SVG/1.1/DTD/svg11.dtd">
<svg version="1.1" id="Layer_1" xmlns="http://www.w3.org/2000/svg" xmlns:xlink="http://www.w3.org/1999/xlink" x="0px" y="0px"
	 viewBox="0 0 200 200" style="enable-background:new 0 0 200 200;" xml:space="preserve">
<rect x="-20.438" y="211.541" style="fill:#FF00FF;" width="3.773" height="3.773"/>
<g>
	<path style="fill:#B3B3B3;" d="M32.689,107.395c-0.251,0-0.496-0.049-0.727-0.145c-0.469-0.195-0.834-0.56-1.029-1.029
		l-7.455-17.996c-0.4-0.968,0.062-2.082,1.03-2.484L50.74,74.875l-0.543-1.31c-0.194-0.47-0.194-0.987,0-1.455
		c0.192-0.462,0.566-0.837,1.028-1.029l68.271-28.279l-0.544-1.311c-0.401-0.968,0.061-2.082,1.03-2.483l41.52-17.199
		c0.233-0.096,0.476-0.145,0.725-0.145c0.773,0,1.463,0.462,1.759,1.176l12.536,30.263c0.192,0.462,0.191,0.993-0.001,1.455
		c-0.192,0.463-0.567,0.838-1.029,1.029c-30.735,12.731-32.348,13.399-32.458,13.448l0.045-0.022l-9.107,3.772
		c-0.233,0.096-0.478,0.145-0.728,0.145c-0.252,0-0.496-0.049-0.727-0.145c-0.463-0.192-0.838-0.567-1.029-1.029l-10.537-25.44
		L54.438,73.867l8.54,20.616l59.161-24.504c0.233-0.097,0.478-0.146,0.728-0.146c0.772,0,1.461,0.461,1.757,1.174
		c0.195,0.469,0.195,0.985,0.001,1.455s-0.56,0.835-1.029,1.029L62.675,98.723c-0.233,0.097-0.477,0.146-0.726,0.146
		c-0.771,0-1.46-0.461-1.756-1.175l-0.544-1.31l-26.232,10.866C33.184,107.347,32.94,107.395,32.689,107.395z M27.72,88.526
		l5.998,14.484l24.476-10.138l-5.998-14.484L27.72,88.526z M123.194,41.794l11.08,26.75l5.596-2.319l-11.079-26.75L123.194,41.794z
		 M132.304,38.02l11.08,26.75l28.899-11.971l-11.08-26.749L132.304,38.02z"/>
	<path style="fill:#B3B3B3;" d="M73.957,175c-0.171,0-0.343-0.023-0.51-0.07c-0.489-0.136-0.896-0.454-1.146-0.897
		c-0.25-0.442-0.312-0.955-0.176-1.443l13.02-46.827h-0.742c-1.092,0-1.944-0.853-1.944-1.901c0-1.048,0.853-1.901,1.901-1.901
		h1.842l2.355-8.469c0.228-0.819,0.981-1.391,1.83-1.391h7.711V94.722l-6.984,2.892c-0.234,0.097-0.478,0.146-0.726,0.146
		c-0.772,0-1.462-0.461-1.758-1.175c-0.401-0.969,0.061-2.083,1.03-2.484l9.614-3.982l0.026-0.014l9.582-3.967
		c0.233-0.097,0.477-0.145,0.726-0.145c0.772,0,1.462,0.461,1.758,1.174c0.195,0.469,0.195,0.986,0.001,1.456
		c-0.194,0.469-0.559,0.834-1.029,1.028l-8.439,3.497V112.1h7.711c0.851,0,1.604,0.573,1.832,1.393l2.355,8.467h1.842
		c1.048,0,1.901,0.853,1.901,1.901c0,1.048-0.853,1.901-1.901,1.901h-0.742l0.156,0.715l12.821,46.112
		c0.28,1.009-0.313,2.06-1.322,2.342c-0.166,0.045-0.339,0.069-0.511,0.069c-0.85,0-1.603-0.573-1.83-1.392l-13.303-47.846h-9.008
		v47.337c0,1.048-0.853,1.901-1.901,1.901c-1.048,0-1.901-0.853-1.901-1.901v-47.335h-9.007l-13.304,47.844
		C75.559,174.427,74.807,175,73.957,175z M90.15,121.959h19.704l-1.686-6.057H91.833L90.15,121.959z"/>
</g>
</svg>
