<?xml version="1.0" encoding="iso-8859-1"?>
<!-- Generator: Adobe Illustrator 18.0.0, SVG Export Plug-In . SVG Version: 6.00 Build 0)  -->
<!DOCTYPE svg PUBLIC "-//W3C//DTD SVG 1.1//EN" "http://www.w3.org/Graphics/SVG/1.1/DTD/svg11.dtd">
<svg version="1.1" id="Layer_1" xmlns="http://www.w3.org/2000/svg" xmlns:xlink="http://www.w3.org/1999/xlink" x="0px" y="0px"
	 viewBox="0 0 200 200" style="enable-background:new 0 0 200 200;" xml:space="preserve">
<rect x="-20.438" y="211.541" style="fill:#FF00FF;" width="3.773" height="3.773"/>
<g>
	<polygon style="fill:#B3B3B3;" points="126.081,142.072 126.081,142.072 126.081,142.072 	"/>
	<polygon style="fill:#B3B3B3;" points="128.887,148.724 128.846,148.742 128.845,148.742 	"/>
	<path style="fill:#B3B3B3;" d="M139.536,170h-1.57l-0.096-0.433c-1.135-5.565-6.08-9.567-11.762-9.567H104v-5.898l0.416,0.11
		c8.454-0.29,16.699-2.211,24.554-5.211h-0.062c0.475,0,0.817-1,1.014-1h-0.015c0.097,0,0.138-0.64,0.138-0.892
		c0-0.252-0.052-0.579-0.15-0.815l-1.288-3.14c-0.299-0.724-1.001-1.212-1.785-1.212c-0.253,0-0.503,0.04-0.74,0.139
		c-0.475,0.196-0.848,0.564-1.045,1.04c-0.099,0.238-0.148,0.487-0.148,0.738c0,0.251,0.049,0.5,0.148,0.738l0.002,0.005
		l0.535,1.288l-0.571,0.212c-6.663,2.472-13.476,3.858-20.544,4.118L104,150.24v-1.403c0-1.066-0.934-1.932-2-1.932
		c-1.066,0-2,0.866-2,1.932v1.396l-0.691-0.024c-26.046-1.03-49.347-17.218-59.297-41.238c-3.495-8.439-5.176-17.169-5.176-25.747
		c0-25.353,14.495-49.379,39.017-60.631L74.4,22.34l0.534,1.293c0.3,0.725,1.001,1.195,1.785,1.194c0.253,0,0.501-0.05,0.737-0.148
		c0.476-0.197,0.849-0.57,1.046-1.046c0.099-0.238,0.148-0.488,0.148-0.739c0-0.251-0.05-0.502-0.148-0.74l-1.283-3.101
		c-0.3-0.725-1.003-1.194-1.787-1.194c-0.253,0-0.502,0.05-0.737,0.147l0,0C47.475,29.282,31.016,55.691,31.016,83.468
		c0,9.007,1.731,18.158,5.386,26.983c10.558,25.489,35.317,42.615,62.952,43.63l0.646,0.021V160H77.429
		c-5.682,0-10.627,4.002-11.761,9.567L65.573,170h-1.572c-1.066,0-1.932,0.934-1.932,2c0,1.066,0.866,2,1.932,2h75.535
		c1.066,0,1.932-0.934,1.932-2C141.468,170.934,140.602,170,139.536,170z M77.429,164h48.678c3.438,0,6.522,2.077,7.673,5.322
		l0.277,0.678H69.479l0.278-0.678C70.909,166.077,73.994,164,77.429,164z"/>
	<polygon style="fill:#B3B3B3;" points="131.738,85.431 131.738,85.431 131.737,85.431 	"/>
	<path style="fill:#B3B3B3;" d="M154.73,61.438c-8.908-21.505-29.706-35.401-52.982-35.401c-7.527,0-14.901,1.473-21.915,4.378
		c-14.146,5.859-25.164,16.878-31.023,31.023c-2.93,7.072-4.395,14.503-4.395,21.935c0,7.432,1.465,14.865,4.395,21.938
		c8.908,21.506,29.705,35.403,52.983,35.403c7.527,0,14.901-1.473,21.914-4.378c12.778-5.294,23.209-15.044,29.37-27.455
		l0.017-0.034l-0.153-0.031c0.099-0.148,0.06-0.299,0.06-0.478v-0.001l0.187-0.044l0.106-0.04
		c3.787-7.867,5.733-16.404,5.733-24.944C159.027,75.873,157.628,68.435,154.73,61.438z M69.3,42.26
		c-1.358,3.527-2.212,7.661-2.54,12.286c-0.1,1.412-0.151,2.889-0.151,4.396c0,0.131,0,0.262,0.001,0.393l0.004,0.635l-0.633-0.048
		c-3.538-0.266-7.067-0.89-10.488-1.855l-0.714-0.201l0.362-0.648c3.387-6.065,7.845-11.322,13.248-15.627l1.687-1.343L69.3,42.26z
		 M113.039,44.442c2.857-3.252,5.346-6.835,7.399-10.65l0.245-0.456l0.483,0.187c12.805,4.97,23.088,14.582,28.959,27.067
		l0.261,0.556l-21.999,9.112l-0.231-0.525c-4.084-9.286-9.312-17.765-15.121-24.523l-0.332-0.386L113.039,44.442L113.039,44.442z
		 M100.723,85.9l9.134,22.046l-0.509,0.237c-5.679,2.646-10.855,6.182-15.384,10.51l-0.449,0.429l-0.402-0.474
		c-5.4-6.358-10.294-14.343-14.151-23.087l-0.242-0.548L100.723,85.9z M111.334,111.517l9.057,21.864l-0.715,0.129
		c-0.778,0.14-1.59,0.212-2.415,0.212c-5.192,0.001-11.192-2.8-17.331-8.125c-1.121-0.972-2.263-2.047-3.394-3.195l-0.417-0.423
		l0.428-0.411c4.191-4.022,8.979-7.315,14.23-9.788L111.334,111.517z M107.419,44.77l-0.428,0.411
		c-4.192,4.023-8.98,7.317-14.23,9.79l-0.556,0.262l-9.057-21.865l0.716-0.129c0.778-0.14,1.59-0.211,2.415-0.211
		c5.193-0.001,11.192,2.799,17.331,8.124c1.128,0.978,2.27,2.053,3.394,3.195v0L107.419,44.77z M102.815,80.851l-9.134-22.047
		l0.509-0.237c5.681-2.648,10.858-6.184,15.384-10.511v0l0.449-0.43l0.402,0.474c5.4,6.36,10.294,14.345,14.151,23.089l0.242,0.548
		L102.815,80.851z M116.605,32.744c-1.739,3.107-3.795,6.047-6.113,8.74l-0.414,0.482l-0.447-0.452h0
		c-1.158-1.171-2.332-2.274-3.491-3.279h0c-3.5-3.035-7.022-5.352-10.47-6.886l-1.972-0.877l2.145-0.24
		c1.962-0.22,3.948-0.332,5.904-0.332c4.905,0,9.785,0.671,14.505,1.994l0.717,0.201L116.605,32.744z M89.585,60.472l0.527-0.192
		l9.133,22.051l-22.005,9.113l-0.217-0.559c-3.454-8.905-5.639-18.011-6.32-26.329l-0.051-0.619l0.621-0.014
		C77.532,63.78,83.692,62.619,89.585,60.472l-0.047-0.129L89.585,60.472z M75.152,96.492l0.231,0.525
		c4.087,9.29,9.314,17.767,15.121,24.521l0.332,0.386l-0.336,0.383c-2.855,3.251-5.345,6.835-7.399,10.653l-0.245,0.456
		l-0.483-0.187c-12.805-4.97-23.089-14.582-28.959-27.068l-0.262-0.556L75.152,96.492z M86.934,134.007
		c1.738-3.105,3.794-6.046,6.112-8.741l0.415-0.482l0.447,0.452c1.148,1.162,2.323,2.266,3.492,3.28
		c3.496,3.032,7.02,5.348,10.476,6.884l1.975,0.878l-2.148,0.24c-1.978,0.221-3.966,0.333-5.91,0.333
		c-4.897,0-9.777-0.671-14.504-1.994l-0.717-0.201L86.934,134.007z M134.237,124.47c0.505-1.313,0.944-2.719,1.306-4.179
		c0.922-3.723,1.388-7.913,1.388-12.461c0-0.137,0-0.275-0.001-0.413l-0.004-0.635l0.634,0.047
		c3.522,0.263,7.042,0.885,10.462,1.847l0.716,0.201l-0.363,0.649c-3.389,6.052-7.837,11.304-13.223,15.613l-1.69,1.352
		L134.237,124.47z M135.464,93.009c-0.172-0.913-0.969-1.575-1.897-1.575c-0.118,0-0.238,0.011-0.357,0.033
		c-0.507,0.095-0.949,0.384-1.239,0.81c-0.221,0.323-0.336,0.698-0.336,1.082c0,0.121,0.011,0.243,0.035,0.365
		c0.538,2.861,0.926,5.712,1.152,8.473l0.051,0.619l-0.621,0.014c-6.256,0.143-12.412,1.301-18.298,3.445l-0.527,0.192
		l-9.132-22.046l22.003-9.114l0.217,0.559c1.064,2.745,2.013,5.525,2.823,8.261c0.242,0.817,1.001,1.385,1.85,1.385
		c0.185,0,0.371-0.027,0.551-0.08c0.494-0.146,0.904-0.478,1.15-0.93c0.156-0.286,0.235-0.601,0.235-0.919
		c0-0.185-0.027-0.37-0.08-0.551c-0.849-2.868-1.848-5.784-2.969-8.668l-0.207-0.535l22.003-9.114l0.208,0.578
		c2.11,5.859,3.16,11.954,3.16,18.044c0,7.334-1.524,14.661-4.557,21.558l-0.209,0.474l-0.496-0.148
		c-4.128-1.235-8.404-2.004-12.71-2.284l-0.508-0.033l-0.039-0.507C136.487,99.351,136.064,96.193,135.464,93.009z M78.98,35.262
		l0.597-0.415l9.058,21.863l-0.578,0.208c-5.462,1.965-11.176,3.022-16.985,3.141l-0.593,0.012l-0.005-0.593
		c-0.001-0.172-0.002-0.344-0.002-0.516c0-1.414,0.048-2.805,0.143-4.143C71.287,45.337,74.195,38.583,78.98,35.262l-0.078-0.113
		L78.98,35.262z M52.834,61.853l0.207-0.476l0.498,0.149c4.138,1.24,8.422,2.011,12.733,2.291l0.508,0.033l0.038,0.508
		c0.671,8.885,2.969,18.576,6.647,28.03l0.208,0.534l-22.003,9.116l-0.209-0.577c-2.113-5.857-3.166-11.97-3.166-18.079
		c0-6.952,1.364-13.9,4.083-20.463C52.525,62.561,52.679,62.207,52.834,61.853l-0.126-0.055L52.834,61.853z M132.455,106.691
		l0.593-0.012l0.005,0.594c0.001,0.167,0.002,0.334,0.002,0.499c0.002,11.295-3.108,19.916-8.499,23.702l-0.598,0.421l-9.054-21.856
		l0.578-0.208C120.943,107.865,126.654,106.81,132.455,106.691L132.455,106.691z"/>
</g>
</svg>
