<?xml version="1.0" encoding="iso-8859-1"?>
<!-- Generator: Adobe Illustrator 18.0.0, SVG Export Plug-In . SVG Version: 6.00 Build 0)  -->
<!DOCTYPE svg PUBLIC "-//W3C//DTD SVG 1.1//EN" "http://www.w3.org/Graphics/SVG/1.1/DTD/svg11.dtd">
<svg version="1.1" id="Layer_1" xmlns="http://www.w3.org/2000/svg" xmlns:xlink="http://www.w3.org/1999/xlink" x="0px" y="0px"
	 viewBox="0 0 200 200" style="enable-background:new 0 0 200 200;" xml:space="preserve">
<rect x="234.125" y="71.041" style="fill:#F15A24;" width="3.773" height="3.773"/>
<g>
	<path style="fill:#B3B3B3;" d="M53.604,175.294l17.447-52.344H29.454v-11.549h7.932V35.707h-7.932V24.158h55.518v-7.932h30.056
		v7.932h55.518v11.549h-7.932v75.69h7.932v11.552h-41.598l17.446,52.341l-3.432,1.146l-17.828-53.488H101.81v52.872h-3.62V122.95
		H74.867l-17.831,53.491L53.604,175.294z M33.074,119.33h133.852v-4.312H33.074V119.33z M41.004,111.401h117.993V35.707H41.004
		V111.401z M33.074,32.09h133.852v-4.315H33.074V32.09z M88.592,24.158h22.817v-4.312H88.592V24.158z"/>
	<path style="fill:#B3B3B3;" d="M47.961,104.443v-27.41h48.56v27.41H47.961z M51.578,100.825h41.326V80.65H51.578V100.825z"/>
	<path style="fill:#B3B3B3;" d="M103.479,104.443v-27.41h48.56v27.41H103.479z M107.096,100.825h41.326V80.65h-41.326V100.825z"/>
	<path style="fill:#B3B3B3;" d="M47.961,70.075V42.662h30.057v27.413H47.961z M51.578,66.455h22.819V46.282H51.578V66.455z"/>
	<path style="fill:#B3B3B3;" d="M84.972,70.075V42.662h30.056v27.413H84.972z M88.589,66.455h22.819V46.282H88.589V66.455z"/>
	<path style="fill:#B3B3B3;" d="M121.983,70.075V42.662h30.057v27.413H121.983z M125.603,66.455h22.819V46.282h-22.819V66.455z"/>
</g>
<g>
</g>
<g>
</g>
<g>
</g>
<g>
</g>
<g>
</g>
<g>
</g>
<g>
</g>
<g>
</g>
<g>
</g>
<g>
</g>
<g>
</g>
<g>
</g>
<g>
</g>
<g>
</g>
<g>
</g>
</svg>
