<?xml version="1.0" encoding="iso-8859-1"?>
<!-- Generator: Adobe Illustrator 18.0.0, SVG Export Plug-In . SVG Version: 6.00 Build 0)  -->
<!DOCTYPE svg PUBLIC "-//W3C//DTD SVG 1.1//EN" "http://www.w3.org/Graphics/SVG/1.1/DTD/svg11.dtd">
<svg version="1.1" id="Layer_1" xmlns="http://www.w3.org/2000/svg" xmlns:xlink="http://www.w3.org/1999/xlink" x="0px" y="0px"
	 viewBox="0 0 200 200" style="enable-background:new 0 0 200 200;" xml:space="preserve">
<rect x="234.125" y="71.041" style="fill:#F15A24;" width="3.773" height="3.773"/>
<g>
	<circle style="fill:#B3B3B3;" cx="41.301" cy="67.506" r="1.797"/>
	<circle style="fill:#B3B3B3;" cx="51.508" cy="67.506" r="1.797"/>
	<circle style="fill:#B3B3B3;" cx="61.716" cy="67.506" r="1.797"/>
	<path style="fill:#B3B3B3;" d="M69.687,159L39,130.209V159h1.006H69.687z M60.631,155H43v-16.479L60.631,155z"/>
	<path style="fill:#B3B3B3;" d="M178,34V20h-14v5h-53v-5H98v14h13v-6h12.884l-2.288,1.622C113.211,35.191,108,44.734,108,54.747V56
		H36.198C32.392,56,29,58.596,29,62.402v33.59l-1.094-1.047c-0.973-0.82-1.921-1.278-2.957-1.279c-0.57,0-0.954,0.143-1.17,0.236
		c-0.346,0.149-1.203,0.479-1.664,1.148C21.654,95.719,21,96.712,21,98.127v71.452c0,3.806,3.736,6.421,7.542,6.421h76.555
		c1.029,0,1.913,0.074,2.633-0.283c0.719-0.354,1.266-0.799,1.55-1.52c0.109-0.274,0.204-0.581,0.204-1.021
		c0.004-0.913-0.421-2.204-1.77-3.464L103.885,166h67.559c3.806,0,6.556-2.822,6.556-6.628V62.402c0-3.806-2.75-6.402-6.556-6.402
		H168v-1.253c0-10.014-4.941-19.557-13.326-25.125L152.655,28H164v6H178z M25,166h5v-3h-5v-7h5v-4h-5v-6h5v-4h-5v-6h5v-4h-5v-7h5v-3
		h-5v-7h5v-3h-5V97.182L105.673,173H28.542c-0.913,0-1.854-0.427-2.455-1.027c-0.6-0.601-1.087-1.482-1.087-2.394V166z
		 M167.594,60.109l0.013-0.074l0.028-0.069l0.003-0.008l0.047-0.13l0.016-0.045l0.007-0.095L167.808,59h3.636
		c0.913,0,1.361,0.418,1.962,1.018c0.6,0.601,0.594,1.472,0.594,2.385V76h-14.688l1.138-1.303
		C164.138,70.606,166.609,65.534,167.594,60.109z M36.198,59h72.537l0.025,0.21l0.029,0.213l0.104,0.047L109,59.755v0.004
		c1,5.547,3.371,10.741,7.152,14.936L117.228,76H32V62.402c0-0.912,0.814-1.784,1.415-2.385C34.016,59.418,35.285,59,36.198,59z
		 M171.444,163h-71.375l-34.141-32H104V86H39v19.676l-7-6.223V80h89.718l0.429-0.123c0.193,0.125-0.148,0.136,0.852,0.295v-0.06
		c0,0.185,0.284,0.338,0.575,0.506l-0.477-0.015L123,80.804v3.693l0.058,0.227c-1.425,1.08-2.075,2.716-2.074,4.469
		c-0.001,1.212,0.493,2.383,1.246,3.37l0.393,0.458l-0.326,0.458c-0.753,0.989-1.146,1.923-1.146,3.136
		c0.001,3.102,2.533,5.385,5.635,5.385h22.966c3.103,0,5.625-2.283,5.626-5.385c0.001-1.21-0.404-2.262-1.157-3.252l-0.347-0.397
		l0.346-0.427c0.753-0.992,1.158-2.149,1.158-3.357c0.001-1.755-1.24-3.383-2.666-4.461L152,84.502v-3.694l0.791-0.233
		c0.293-0.169,0.887-0.575,1.184-0.575h0.041c0.195,0,0.407-0.012,0.597-0.136L154.821,80H174v79.375
		c0,0.912,0.006,1.895-0.594,2.496C172.805,162.47,172.357,163,171.444,163z M100,90v37H62.109L43,109.059V90H100z M126.789,95
		h22.966c1.118,0,2.028,0.882,2.03,2.001c-0.002,1.118-0.912,1.999-2.03,1.999h-22.966c-1.12,0-2.031-0.881-2.033-1.999
		C124.757,95.882,125.669,95,126.789,95z M149.755,91h-22.971c-1.117,0-2.026-0.88-2.028-1.999c0.002-1.12,0.913-2.001,2.033-2.001
		h22.966c1.118,0,2.028,0.881,2.03,2.001C151.783,90.119,150.873,91,149.755,91z M144.131,54.747c0,1.617-0.656,3.079-1.719,4.142
		c-1.063,1.062-2.526,1.719-4.142,1.719c-1.616,0-3.077-0.656-4.14-1.719c-1.062-1.063-1.718-2.525-1.718-4.142
		c0-1.616,0.656-3.078,1.718-4.141c1.063-1.062,2.524-1.718,4.14-1.718c1.617,0,3.079,0.656,4.142,1.718
		C143.475,51.669,144.131,53.131,144.131,54.747z M150.212,78.129l-0.822,0.361L149,78.63V84h-9V64.008l0.599-0.147
		c4.173-1.084,7.107-4.83,7.107-9.115c-0.001-5.213-4.231-9.451-9.444-9.452c-5.213,0.001-9.446,4.239-9.447,9.452
		c0,4.284,2.682,8.031,6.855,9.115l0.33,0.147V84h-9v-5.371l-0.822-0.5c-8.845-4.528-14.257-13.482-14.258-23.383
		c0-7.245,2.984-13.81,7.742-18.569c4.759-4.759,11.344-7.704,18.588-7.704c7.245,0,13.821,2.946,18.581,7.704
		c4.759,4.759,7.71,11.325,7.71,18.569C164.541,64.645,159.057,73.6,150.212,78.129z M174,23v7h-6v-7H174z M101,30v-7h7v7H101z"/>
	<polygon style="fill:#B3B3B3;" points="110,115 111.458,115 168,115 168,112 110,112 	"/>
	<polygon style="fill:#B3B3B3;" points="110,125 111.458,125 168,125 168,122 110,122 	"/>
	<polygon style="fill:#B3B3B3;" points="110,136 111.458,136 168,136 168,132 110,132 	"/>
	<polygon style="fill:#B3B3B3;" points="110,146 111.458,146 168,146 168,142 110,142 	"/>
</g>
<g>
</g>
<g>
</g>
<g>
</g>
<g>
</g>
<g>
</g>
<g>
</g>
<g>
</g>
<g>
</g>
<g>
</g>
<g>
</g>
<g>
</g>
<g>
</g>
<g>
</g>
<g>
</g>
<g>
</g>
</svg>
