<?xml version="1.0" encoding="iso-8859-1"?>
<!-- Generator: Adobe Illustrator 18.0.0, SVG Export Plug-In . SVG Version: 6.00 Build 0)  -->
<!DOCTYPE svg PUBLIC "-//W3C//DTD SVG 1.1//EN" "http://www.w3.org/Graphics/SVG/1.1/DTD/svg11.dtd">
<svg version="1.1" id="Layer_1" xmlns="http://www.w3.org/2000/svg" xmlns:xlink="http://www.w3.org/1999/xlink" x="0px" y="0px"
	 viewBox="0 0 200 200" style="enable-background:new 0 0 200 200;" xml:space="preserve">
<rect x="234.125" y="71.041" style="fill:#F15A24;" width="3.773" height="3.773"/>
<g>
	<path style="fill:#B3B3B3;" d="M167.451,175.389v-28.177h-6.826v28.177h-3.42v-28.177H42.796v28.177h-3.42v-28.177H32.55v28.177
		h-3.42v-28.177h-7.685v-13.667H31.69v-3.411c0-3.833,2.936-6.835,6.685-6.835h10.106L26.513,82.067l-0.219-0.122
		c-2.992-1.67-4.851-4.799-4.851-8.166c0-4.631,3.337-8.517,7.936-9.24l0.358-0.056l17.392-24.851l-3.412-4.548l17.817-14.849
		l8.383,8.383l0.618-0.042c0.378-0.026,0.756-0.053,1.14-0.053c6.976,0,13.49,3.767,17.001,9.829l0.698,1.208l-6.198,5.51
		l0.115,0.494c0.231,0.983,0.343,1.834,0.343,2.6c0,6.593-5.365,11.956-11.959,11.956c-1.313,0-2.645-0.241-3.958-0.716
		l-0.476-0.172l-6.184,5.495l-1.115-0.834c-3.875-2.895-6.534-7.079-7.487-11.78l-0.463-2.286l-11.984,21.97l0.055,0.296
		c0.118,0.642,0.173,1.177,0.173,1.685c0,1.908-0.582,3.755-1.682,5.34l-0.317,0.457l26.858,43.724h9.14
		c3.786,0,6.985,3.13,6.985,6.835v3.411h45.246v-6.826H99.999c-3.767,0-6.832-3.066-6.832-6.834V78.903
		c0-3.768,3.065-6.834,6.832-6.834h71.723c3.768,0,6.834,3.066,6.834,6.834v40.982c0,3.769-3.066,6.834-6.834,6.834h-26.465v6.826
		h33.299v13.667h-7.685v28.177H167.451z M24.867,143.792h150.266v-6.827H24.867V143.792z M129.887,133.545h11.947v-6.826h-11.947
		V133.545z M35.113,133.545h42.684v-3.411c0-1.851-1.631-3.415-3.562-3.415h-35.86c-1.831,0-3.265,1.5-3.265,3.415l0.002,0.851
		V133.545z M96.587,119.885c0,1.883,1.53,3.414,3.412,3.414h71.723c1.881,0,3.411-1.532,3.411-3.414v-3.412H96.587V119.885z
		 M34.928,82.195c-0.852,0.417-1.771,0.7-2.733,0.842L31,83.212l21.357,40.087h8.721L35.622,81.855L34.928,82.195z M99.999,75.491
		c-1.881,0-3.412,1.53-3.412,3.411v34.15h78.546v-34.15c0-1.881-1.53-3.411-3.411-3.411H99.999z M30.839,67.806
		c-3.293,0-5.972,2.679-5.972,5.973c0,3.295,2.679,5.975,5.972,5.975c3.295,0,5.975-2.68,5.975-5.975
		C36.814,70.485,34.134,67.806,30.839,67.806z M33.695,64.786l0.943,0.419c1.059,0.471,1.999,1.109,2.794,1.897l0.804,0.796
		l12.671-23.23l-1.622-2.158L33.695,64.786z M71.677,31.946c-8.943,0-16.218,7.275-16.218,16.218c0,4.401,1.732,8.511,4.877,11.572
		l0.567,0.552l24.081-21.404l-0.487-0.629c-3.062-3.951-7.851-6.31-12.811-6.31H71.677z M69.874,56.894l2.567-0.228
		c3.703-0.33,6.824-3.104,7.588-6.745l0.53-2.524L69.874,56.894z M48.404,35.631l4.626,6.177l0.58-1.353
		c2.073-4.834,6.087-8.697,11.01-10.6l1.218-0.471l-4.517-4.52L48.404,35.631z"/>
	<rect x="95.728" y="61.822" style="fill:#B3B3B3;" width="80.265" height="3.42"/>
	<path style="fill:#B3B3B3;" d="M111.096,57.56V18.278h18.791V57.56H111.096z M114.518,54.137h11.948V42.189h-11.948V54.137z
		 M114.518,38.769h11.948V21.7h-11.948V38.769z"/>
	<circle style="fill:#B3B3B3;" cx="120.491" cy="48.165" r="1.71"/>
	<path style="fill:#B3B3B3;" d="M134.151,57.56V18.278h18.788V57.56H134.151z M137.572,54.137h11.948V42.189h-11.948V54.137z
		 M137.572,38.769h11.948V21.7h-11.948V38.769z"/>
	<circle style="fill:#B3B3B3;" cx="143.544" cy="48.165" r="1.71"/>
	<path style="fill:#B3B3B3;" d="M157.205,57.56V18.278h18.788V57.56H157.205z M160.625,54.137h11.948V42.189h-11.948V54.137z
		 M160.625,38.769h11.948V21.7h-11.948V38.769z"/>
	<path style="fill:#B3B3B3;" d="M166.6,49.875c-0.945,0-1.713-0.767-1.713-1.71c0-0.943,0.769-1.71,1.713-1.71
		c0.943,0,1.71,0.767,1.71,1.71C168.31,49.108,167.543,49.875,166.6,49.875z"/>
</g>
<g>
</g>
<g>
</g>
<g>
</g>
<g>
</g>
<g>
</g>
<g>
</g>
<g>
</g>
<g>
</g>
<g>
</g>
<g>
</g>
<g>
</g>
<g>
</g>
<g>
</g>
<g>
</g>
<g>
</g>
</svg>
