<?xml version="1.0" encoding="iso-8859-1"?>
<!-- Generator: Adobe Illustrator 18.0.0, SVG Export Plug-In . SVG Version: 6.00 Build 0)  -->
<!DOCTYPE svg PUBLIC "-//W3C//DTD SVG 1.1//EN" "http://www.w3.org/Graphics/SVG/1.1/DTD/svg11.dtd">
<svg version="1.1" id="Layer_1" xmlns="http://www.w3.org/2000/svg" xmlns:xlink="http://www.w3.org/1999/xlink" x="0px" y="0px"
	 viewBox="0 0 200 200" style="enable-background:new 0 0 200 200;" xml:space="preserve">
<rect x="234.125" y="71.041" style="fill:#F15A24;" width="3.773" height="3.773"/>
<g>
	<path style="fill:#B3B3B3;" d="M74.761,174.837v-23.968H48.127v-33.377l-19.576-4.473l17.718-31.584l-0.048-0.315
		c-1.041-6.781-0.922-13.57,0.352-20.179l0.273-1.435h6.609v-5.429l-0.41-0.275c-6.414-4.299-10.243-11.454-10.243-19.14
		c0-12.706,10.337-23.043,23.044-23.043c12.535,0,22.865,10.201,23.027,22.738l1.814,0.242l5.989-20.96l23.901,10.237l-7.17,3.573
		l7.43,16.079h6.263c3.446,0,6.249-2.781,6.249-6.2v-11.63h-5.325V11.569h14.129v14.128h-5.325v11.63
		c0,5.336-4.364,9.676-9.728,9.676h-4.656l5.768,12.502h13.719l15.714-36.631l13.804-10.334v17.143L159,59.505h5.843l0.257,1.446
		c0.666,3.617,1.004,7.306,1.004,10.969l-0.005,9.715c0.016,22.421-10.78,43.452-28.881,56.259l-0.391,0.276v36.665H74.761z
		 M78.236,171.359h55.113v-35l0.768-0.525c17.881-12.308,28.544-32.57,28.528-54.203l-0.006-9.732c0-2.7-0.199-5.434-0.591-8.124
		l-0.116-0.791H49.736l-0.126,0.778c-0.886,5.489-0.819,11.771,0.187,17.689l0.098,0.622l-16.038,28.596l17.748,4.049v32.673h26.631
		V171.359z M145.714,59.505h9.521l12.246-29.376l-7.555-3.764L145.714,59.505z M112.239,59.505h12.142l-5.768-12.502h-12.055
		L112.239,59.505z M100.467,47.006c-3.446,0-6.25,2.827-6.25,6.301v6.198h14.205l-5.437-11.96l-1.766,0.382l0.925-0.922H100.467z
		 M88.508,38.59l-0.088,0.446c-1.182,6.013-4.744,11.394-9.774,14.765l-0.41,0.275v5.429h12.502v-6.201
		c0-5.074,3.988-9.315,9.08-9.657l1.332-0.089l-4.18-9.198L88.508,38.59z M65.846,27.596c3.896,0,7.066,3.17,7.066,7.066
		c0,2.959-1.895,5.623-4.714,6.628l-0.614,0.219v17.997h7.177v-7.412l0.867-0.501c6.036-3.497,9.785-9.983,9.785-16.928
		c0-10.79-8.778-19.568-19.568-19.568c-10.788,0-19.565,8.778-19.565,19.568c0,6.945,3.749,13.43,9.784,16.925l0.866,0.503v7.413
		h7.177V41.509l-0.614-0.219c-2.819-1.006-4.714-3.67-4.714-6.628C58.78,30.765,61.95,27.596,65.846,27.596z M104.978,43.527h12.03
		l-8.169-17.675l3.495-1.716l-13.401-5.741l-3.706,12.944l3.412-1.723L104.978,43.527z M65.846,31.074
		c-1.978,0-3.587,1.611-3.587,3.59c0,1.978,1.609,3.588,3.587,3.588c1.978,0,3.587-1.61,3.587-3.588
		C69.433,32.685,67.824,31.074,65.846,31.074z M162.346,23.71l5.625,2.811v-7.022L162.346,23.71z M131.5,22.271h7.178v-7.175H131.5
		V22.271z"/>
	<path style="fill:#B3B3B3;" d="M71.173,84.289c-6.869,0-11.936-4.768-12.363-11.466h3.484c0.378,4.884,3.779,7.987,8.879,7.987
		c5.099,0,8.499-3.103,8.877-7.987h3.484C83.108,79.522,78.041,84.289,71.173,84.289z"/>
</g>
<g>
</g>
<g>
</g>
<g>
</g>
<g>
</g>
<g>
</g>
<g>
</g>
<g>
</g>
<g>
</g>
<g>
</g>
<g>
</g>
<g>
</g>
<g>
</g>
<g>
</g>
<g>
</g>
<g>
</g>
</svg>
