<?xml version="1.0" encoding="iso-8859-1"?>
<!-- Generator: Adobe Illustrator 18.0.0, SVG Export Plug-In . SVG Version: 6.00 Build 0)  -->
<!DOCTYPE svg PUBLIC "-//W3C//DTD SVG 1.1//EN" "http://www.w3.org/Graphics/SVG/1.1/DTD/svg11.dtd">
<svg version="1.1" id="Layer_1" xmlns="http://www.w3.org/2000/svg" xmlns:xlink="http://www.w3.org/1999/xlink" x="0px" y="0px"
	 viewBox="0 0 200 200" style="enable-background:new 0 0 200 200;" xml:space="preserve">
<rect x="234.125" y="71.041" style="fill:#F15A24;" width="3.773" height="3.773"/>
<g>
	<path style="fill:#B3B3B3;" d="M82.662,175.787c-4.653,0-8.439-3.785-8.439-8.439c0-1.749,0.554-3.445,1.601-4.904l0.558-0.777
		l-0.813-0.505c-2.513-1.562-4.013-4.235-4.013-7.152c0-1.753,0.553-3.447,1.599-4.899l0.56-0.778l-0.813-0.506
		c-2.513-1.563-4.014-4.237-4.014-7.151c0-0.537,0.057-1.095,0.168-1.659l0.126-0.635l-0.862-0.483
		c-0.126-0.069-0.252-0.137-0.369-0.206l-0.597-0.35l-6.962,6.959L39.03,122.939l6.957-6.96l-0.352-0.597
		c-3.006-5.091-5.275-10.565-6.744-16.27l-0.173-0.672h-9.836V68.224h9.836l0.173-0.673c1.464-5.698,3.733-11.172,6.743-16.27
		l0.352-0.597l-6.957-6.96l21.362-21.362l6.961,6.957l0.597-0.353c5.09-3.006,10.564-5.274,16.27-6.743l0.672-0.173v-9.836h30.215
		v9.836l0.673,0.173c5.692,1.463,11.166,3.731,16.27,6.743l0.598,0.352l6.96-6.957l21.359,21.362l-6.958,6.96l0.353,0.598
		c3.007,5.087,5.277,10.561,6.747,16.27l0.173,0.672h9.836v30.215h-9.836l-0.173,0.673c-1.466,5.705-3.735,11.179-6.743,16.269
		l-0.353,0.598l6.958,6.96l-21.362,21.363l-6.962-6.959l-0.597,0.35c-0.117,0.069-0.243,0.137-0.369,0.205l-0.864,0.484l0.126,0.635
		c0.11,0.555,0.166,1.113,0.166,1.659c0,2.915-1.499,5.589-4.011,7.151l-0.812,0.505l0.558,0.777
		c1.046,1.457,1.599,3.152,1.599,4.901c0,2.917-1.5,5.59-4.013,7.151l-0.813,0.505l0.558,0.777c1.048,1.459,1.601,3.155,1.601,4.904
		c0,4.653-3.786,8.439-8.439,8.439H82.662z M82.662,162.448c-2.7,0-4.897,2.197-4.897,4.897c0,2.7,2.197,4.897,4.897,4.897h34.673
		c2.7,0,4.896-2.197,4.896-4.897c0-2.7-2.196-4.897-4.896-4.897H82.662z M79.995,149.114c-2.7,0-4.896,2.196-4.896,4.896
		c0,2.7,2.196,4.897,4.896,4.897h40.009c1.307,0,2.537-0.511,3.463-1.438c0.925-0.926,1.433-2.155,1.431-3.46
		c0-2.698-2.195-4.895-4.894-4.895H79.995z M77.33,135.779c-2.7,0-4.897,2.196-4.897,4.896c0,2.7,2.197,4.896,4.897,4.896h45.341
		c2.7,0,4.897-2.196,4.897-4.896c0-2.7-2.197-4.896-4.897-4.896H77.33z M139.609,139.291l16.352-16.352l-6.457-6.455l0.766-1.202
		c3.724-5.846,6.374-12.238,7.875-18.998l0.309-1.386h9.124V71.769h-9.124l-0.309-1.388c-1.501-6.763-4.15-13.156-7.875-18.999
		l-0.763-1.201l6.454-6.457l-16.352-16.352l-6.457,6.454l-1.202-0.763c-5.85-3.728-12.242-6.377-18.998-7.875l-1.387-0.309v-9.12
		H88.437v9.12l-1.388,0.309c-6.757,1.497-13.15,4.147-19.002,7.876l-1.199,0.763l-6.457-6.454L44.04,43.723l6.454,6.457
		l-0.763,1.199c-3.729,5.856-6.379,12.249-7.875,19.002l-0.308,1.387h-9.124v23.126h9.124l0.309,1.385
		c1.496,6.755,4.146,13.148,7.875,18.999l0.763,1.201l-6.454,6.457l16.352,16.351l6.458-6.455l1.199,0.767
		c0.715,0.456,1.43,0.886,2.185,1.319l0.6,0.343l0.484-0.493c0.632-0.644,1.411-1.196,2.318-1.641l0.544-0.267l-0.045-0.604
		c-0.434-5.764-3.035-11.286-7.323-15.547C56.3,106.286,51.375,91.827,53.297,77.037c2.746-21.136,20.128-38.179,41.333-40.525
		c1.816-0.201,3.65-0.303,5.453-0.303c11.725,0,22.56,4.155,31.336,12.015c9.975,8.93,15.695,21.725,15.695,35.104
		c0,12.735-5.025,24.668-14.149,33.601c-4.144,4.056-6.666,9.499-7.101,15.328l-0.045,0.604l0.544,0.266
		c0.905,0.443,1.686,0.996,2.32,1.641l0.484,0.493l0.6-0.344c0.778-0.446,1.492-0.877,2.182-1.319l1.199-0.767L139.609,139.291z
		 M100.083,39.752c-1.674,0-3.378,0.095-5.063,0.284c-19.6,2.166-35.671,17.921-38.213,37.46
		c-1.776,13.684,2.779,27.06,12.496,36.699c4.836,4.799,7.72,10.757,8.34,17.231l0.078,0.81h44.557l0.078-0.81
		c0.622-6.456,3.509-12.505,8.131-17.031c8.436-8.257,13.082-19.289,13.082-31.065c0-12.373-5.293-24.207-14.52-32.465
		C120.937,43.595,110.921,39.752,100.083,39.752z"/>
	<path style="fill:#B3B3B3;" d="M97.332,109.108c-9.802,0-17.776-7.974-17.776-17.775V75.33c0-9.801,7.974-17.775,17.776-17.775
		h5.335c9.8,0,17.773,7.974,17.773,17.775v4.438h-14.21V75.33c0-1.965-1.598-3.565-3.562-3.565h-5.335
		c-1.964,0-3.562,1.599-3.562,3.565v16.002c0,1.964,1.598,3.562,3.562,3.562h5.335c1.964,0,3.562-1.598,3.562-3.562v-4.44h14.21
		v4.44c0,9.802-7.973,17.775-17.773,17.775H97.332z M97.332,61.097c-7.847,0-14.231,6.385-14.231,14.233v16.002
		c0,7.847,6.384,14.231,14.231,14.231h5.335c7.847,0,14.231-6.384,14.231-14.231v-0.896h-7.126v0.896
		c0,3.919-3.187,7.107-7.105,7.107h-5.335c-3.919,0-7.107-3.188-7.107-7.107V75.33c0-3.918,3.188-7.106,7.107-7.106h5.335
		c3.917,0,7.105,3.188,7.105,7.106v0.896h7.126V75.33c0-7.848-6.384-14.233-14.231-14.233H97.332z"/>
</g>
<g>
</g>
<g>
</g>
<g>
</g>
<g>
</g>
<g>
</g>
<g>
</g>
<g>
</g>
<g>
</g>
<g>
</g>
<g>
</g>
<g>
</g>
<g>
</g>
<g>
</g>
<g>
</g>
<g>
</g>
</svg>
