<?xml version="1.0" encoding="iso-8859-1"?>
<!-- Generator: Adobe Illustrator 18.0.0, SVG Export Plug-In . SVG Version: 6.00 Build 0)  -->
<!DOCTYPE svg PUBLIC "-//W3C//DTD SVG 1.1//EN" "http://www.w3.org/Graphics/SVG/1.1/DTD/svg11.dtd">
<svg version="1.1" id="Layer_1" xmlns="http://www.w3.org/2000/svg" xmlns:xlink="http://www.w3.org/1999/xlink" x="0px" y="0px"
	 viewBox="0 0 200 200" style="enable-background:new 0 0 200 200;" xml:space="preserve">
<rect x="234.125" y="71.041" style="fill:#F15A24;" width="3.773" height="3.773"/>
<g>
	<path style="fill:#B3B3B3;" d="M51.701,68.546H38.157l-1.836,8.265l-3.369-0.751l3.911-17.606c0.845-3.811,4.162-6.472,8.066-6.472
		c3.906,0,7.224,2.663,8.068,6.474l3.913,17.604l-3.371,0.751L51.701,68.546z M44.932,55.435c-2.276,0-4.208,1.549-4.696,3.766
		l-1.31,5.892h12.009l-1.309-5.891C49.136,56.984,47.206,55.435,44.932,55.435z"/>
	<path style="fill:#B3B3B3;" d="M82.226,176.064l13.021-78.096c0.037-0.233,0.108-0.451,0.175-0.665l0.475-1.508L51.79,106.297
		c-0.531,0.129-1.079,0.193-1.632,0.193c-1.567,0-3.055-0.52-4.304-1.504c-1.685-1.33-2.651-3.323-2.651-5.47v-2.122H26.574
		c-3.844,0-6.972-3.127-6.972-6.972v-6.971h6.181L24.7,82.014c-3.335-4.423-5.098-9.677-5.098-15.194
		c0-13.965,11.361-25.327,25.326-25.327c13.966,0,25.329,11.362,25.329,25.327c0,5.513-1.763,10.767-5.098,15.194l-1.082,1.436h6.18
		v6.971c0,3.844-3.127,6.972-6.971,6.972h-16.63v2.122c0,1.079,0.485,2.085,1.33,2.76c0.636,0.499,1.387,0.76,2.178,0.76
		c0.274,0,0.549-0.032,0.819-0.095l99.653-23.728c1.593-0.379,2.706-1.787,2.706-3.424v-4.621h-16.629
		c-3.844,0-6.972-3.127-6.972-6.971v-6.969h6.18l-1.082-1.436c-3.335-4.425-5.098-9.68-5.098-15.196
		c0-13.965,11.363-25.326,25.329-25.326c13.965,0,25.326,11.361,25.326,25.326c0,5.516-1.763,10.771-5.098,15.196l-1.082,1.436h6.18
		v6.972c0,3.842-3.127,6.968-6.971,6.968h-16.63v4.621c0,3.244-2.203,6.032-5.358,6.78l-49.121,11.697l1.114,1.133
		c0.704,0.716,1.162,1.605,1.325,2.572l13.014,78.094H82.226z M99.999,97.443c-0.688,0-1.243,0.45-1.35,1.093l-12.347,74.075h27.393
		l-12.347-74.077C101.242,97.892,100.687,97.443,99.999,97.443z M23.056,90.422c0,1.94,1.578,3.518,3.518,3.518h36.713
		c1.94,0,3.518-1.578,3.518-3.518v-3.518H23.056V90.422z M44.929,44.945c-12.061,0-21.873,9.813-21.873,21.876
		c0,6.28,2.705,12.26,7.422,16.407l0.254,0.223h28.396l0.254-0.223c4.717-4.147,7.422-10.127,7.422-16.407
		C66.804,54.758,56.991,44.945,44.929,44.945z M133.196,64.196c0,1.941,1.578,3.521,3.518,3.521h36.713
		c1.94,0,3.518-1.58,3.518-3.521v-3.518h-43.749V64.196z M155.069,18.722c-12.061,0-21.873,9.812-21.873,21.873
		c0,6.281,2.705,12.261,7.419,16.409l0.254,0.223h28.399l0.254-0.223c4.717-4.147,7.422-10.128,7.422-16.409
		C176.944,28.535,167.131,18.722,155.069,18.722z"/>
	<path style="fill:#B3B3B3;" d="M145.475,50.189v-24.43h12.218c3.843,0,6.969,3.128,6.969,6.972c0,1.717-0.632,3.366-1.779,4.644
		l-0.537,0.599l0.537,0.599c1.147,1.279,1.779,2.929,1.779,4.647c0,3.843-3.126,6.969-6.969,6.969H145.475z M148.929,46.738h8.764
		c1.94,0,3.518-1.578,3.518-3.518c0-1.941-1.578-3.521-3.518-3.521h-8.764V46.738z M148.929,36.248h8.764
		c1.94,0,3.518-1.578,3.518-3.517c0-1.942-1.578-3.521-3.518-3.521h-8.764V36.248z"/>
</g>
<g>
</g>
<g>
</g>
<g>
</g>
<g>
</g>
<g>
</g>
<g>
</g>
<g>
</g>
<g>
</g>
<g>
</g>
<g>
</g>
<g>
</g>
<g>
</g>
<g>
</g>
<g>
</g>
<g>
</g>
</svg>
