<?xml version="1.0" encoding="iso-8859-1"?>
<!-- Generator: Adobe Illustrator 18.0.0, SVG Export Plug-In . SVG Version: 6.00 Build 0)  -->
<!DOCTYPE svg PUBLIC "-//W3C//DTD SVG 1.1//EN" "http://www.w3.org/Graphics/SVG/1.1/DTD/svg11.dtd">
<svg version="1.1" id="Layer_1" xmlns="http://www.w3.org/2000/svg" xmlns:xlink="http://www.w3.org/1999/xlink" x="0px" y="0px"
	 viewBox="0 0 200 200" style="enable-background:new 0 0 200 200;" xml:space="preserve">
<rect x="234.125" y="71.041" style="fill:#F15A24;" width="3.773" height="3.773"/>
<g>
	<path style="fill:#B3B3B3;" d="M126.036,175.539c-6.68,0-12.114-5.436-12.114-12.118v-50.369H86.079v50.369
		c0,6.682-5.435,12.118-12.115,12.118s-12.115-5.436-12.115-12.118v-50.369H20.191V78.405h41.658V37.996l12.115-21.201
		l12.115,21.201v40.409h27.843v-7.226l-0.6-0.214c-2.757-0.98-4.609-3.584-4.609-6.481c0-2.716,1.614-5.191,4.11-6.303l0.692-0.308
		l-4.964-19.865l17.486-20.399l17.487,20.402l-4.965,19.866l0.693,0.308c2.497,1.11,4.11,3.583,4.11,6.301
		c0,2.895-1.852,5.5-4.609,6.481l-0.6,0.213v7.226h41.658v34.644h-41.658v38.257h3.506c1.934,0,3.508-1.573,3.508-3.508v-12.834
		l-0.3-0.269c-1.465-1.311-2.305-3.178-2.305-5.12s0.84-3.809,2.305-5.122l0.3-0.269v-4.122h3.402v6.007l-0.844,0.491
		c-1.101,0.64-1.759,1.767-1.759,3.015c0,1.251,0.659,2.378,1.762,3.016l0.841,0.49v14.72c0,3.808-3.099,6.906-6.909,6.906h-3.506
		v8.714C138.151,170.103,132.716,175.539,126.036,175.539z M117.323,163.421c0,4.805,3.909,8.714,8.713,8.714
		c4.805,0,8.714-3.909,8.714-8.714v-0.902h-0.003v-7.812h-17.424V163.421z M65.25,163.421c0,4.805,3.909,8.714,8.714,8.714
		c4.805,0,8.714-3.909,8.714-8.714v-6.108H65.25V163.421z M65.25,153.909h17.428v-7.011H65.25V153.909z M117.323,151.306h17.424
		v-7.013h-17.424V151.306z M75.665,143.495h7.013V40.15h-7.013V143.495z M65.25,143.495h7.014V40.15H65.25V143.495z
		 M117.323,140.892h17.424V71.394h-17.424V140.892z M138.151,109.648h38.254v-27.84h-7.011v10.415h-3.404V81.808h-7.011v7.812
		h-3.404v-7.812h-7.011v10.415h-3.405V81.808h-7.01V109.648z M86.079,109.648h27.843v-27.84h-7.014v10.415h-3.401V81.808h-7.013
		v7.812h-3.401v-7.812h-7.013V109.648z M23.595,109.648h38.254v-27.84h-7.011v7.812h-3.404v-7.812h-7.011v10.415H41.02V81.808
		h-7.011v7.812h-3.404v-7.812h-7.011V109.648z M115.622,60.98c-1.933,0-3.505,1.573-3.505,3.505c0,1.933,1.572,3.506,3.505,3.506
		h20.829c1.933,0,3.505-1.573,3.505-3.506c0-1.933-1.573-3.505-3.505-3.505H115.622z M112.277,38.89l4.673,18.686h18.172
		l4.67-18.689l-12.054-14.065v9.537l0.6,0.213c2.757,0.981,4.609,3.585,4.609,6.481c0,3.81-3.1,6.91-6.91,6.91
		c-3.809,0-6.908-3.1-6.908-6.91c0-2.896,1.851-5.5,4.606-6.481l0.6-0.213v-9.537L112.277,38.89z M126.036,37.548
		c-1.934,0-3.508,1.572-3.508,3.505c0,1.933,1.573,3.506,3.508,3.506c1.933,0,3.506-1.573,3.506-3.506
		C129.542,39.12,127.969,37.548,126.036,37.548z M66.479,36.746h14.97l-7.485-13.092L66.479,36.746z"/>
</g>
<g>
</g>
<g>
</g>
<g>
</g>
<g>
</g>
<g>
</g>
<g>
</g>
<g>
</g>
<g>
</g>
<g>
</g>
<g>
</g>
<g>
</g>
<g>
</g>
<g>
</g>
<g>
</g>
<g>
</g>
</svg>
