<?xml version="1.0" encoding="iso-8859-1"?>
<!-- Generator: Adobe Illustrator 18.0.0, SVG Export Plug-In . SVG Version: 6.00 Build 0)  -->
<!DOCTYPE svg PUBLIC "-//W3C//DTD SVG 1.1//EN" "http://www.w3.org/Graphics/SVG/1.1/DTD/svg11.dtd">
<svg version="1.1" id="Layer_1" xmlns="http://www.w3.org/2000/svg" xmlns:xlink="http://www.w3.org/1999/xlink" x="0px" y="0px"
	 viewBox="0 0 200 200" style="enable-background:new 0 0 200 200;" xml:space="preserve">
<rect x="234.125" y="71.041" style="fill:#F15A24;" width="3.773" height="3.773"/>
<g>
	<path style="fill:#B3B3B3;" d="M161.5,66.03c-5.522,0-9.5,4.492-9.5,10.014v2.795c0,0.898,0.208,2.161,1.106,2.161H160v14.609
		c0,2.634-1.139,4.94-2.869,6.671c-1.73,1.73-4.186,2.72-6.819,2.72H149v-1.005c0-6.062-4.218-11.338-10.157-12.55L138,91.254
		V22.937C138,15.874,132.219,10,125.156,10H74.844C67.781,10,62,15.874,62,22.937v68.317L61.078,91h0.02
		C55.159,93,51,97.933,51,103.995V105h-1.312c-2.634,0-5.089-0.99-6.819-2.72c-1.73-1.73-2.869-4.037-2.869-6.671V81h6.894
		C47.792,81,48,79.737,48,78.839v-2.795c0-5.523-3.978-10.014-9.5-10.014c-5.522,0-9.5,4.492-9.5,10.014v2.795
		C29,79.737,29.225,81,30.123,81H37v14.609C37,102.673,42.626,108,49.688,108H51v7.175c0,0.898,0.585,1.825,1.484,1.825H90v17.74
		c0,0.898,0.716,1.26,1.615,1.26H98v11H69.254C62.191,147,57,152.833,57,159.896v1.336l-1.052,0.276
		c-2.88,1.027-4.954,3.747-4.954,6.772c0,3.981,3.169,7.219,7.15,7.219c3.981,0,7.184-3.238,7.184-7.219
		c0-3.025-1.804-5.745-4.684-6.772L60,161.232v-1.336c0-2.634,0.922-5.193,2.652-6.923c1.73-1.73,3.968-2.973,6.602-2.973H98v11.232
		l-0.589,0.276c-2.881,1.027-4.723,3.747-4.723,6.772c0,3.981,3.284,7.219,7.265,7.219c3.981,0,7.242-3.238,7.242-7.219
		c0-3.025-1.738-5.745-4.618-6.772L102,161.232V150h28.746c2.634,0,4.872,1.243,6.602,2.973c1.73,1.73,2.652,4.289,2.652,6.923
		v1.336l-0.626,0.276c-2.88,1.027-4.741,3.747-4.741,6.772c0,3.981,3.275,7.219,7.256,7.219c3.981,0,7.237-3.238,7.238-7.219
		c0-3.025-2.204-5.745-5.084-6.772L143,161.232v-1.336c0-7.064-5.191-12.896-12.254-12.896H102v-11h6.385
		c0.898,0,1.615-0.361,1.615-1.26V117h37.516c0.898,0,1.484-0.927,1.484-1.825V108h1.312c7.063,0,12.688-5.327,12.688-12.391V81
		h6.877c0.899,0,1.123-1.263,1.123-2.161v-2.795C171,70.521,167.022,66.03,161.5,66.03z M161.492,69.287
		c1.863,0,3.427,0.757,4.651,1.981c1.224,1.224,1.857,2.912,1.857,4.776V77h-13v-0.956c0-1.863,0.625-3.552,1.849-4.776
		C158.073,70.044,159.629,69.287,161.492,69.287z M107,117v16H93v-16H107z M102.8,171.081c-0.718,0.718-1.707,1.162-2.8,1.162
		c-1.092,0-2.082-0.444-2.8-1.162c-0.718-0.718-1.162-1.708-1.162-2.8c0-1.092,0.444-2.082,1.162-2.8
		c0.718-0.718,1.707-1.162,2.8-1.162c1.093,0,2.082,0.444,2.8,1.162c0.718,0.718,1.162,1.707,1.162,2.799
		C103.962,169.374,103.518,170.363,102.8,171.081z M74.844,13h50.312c2.634,0,5.167,1.264,6.897,2.994
		c1.73,1.73,2.947,4.31,2.947,6.943V58H65V22.937c0-2.634,1.217-5.213,2.947-6.943C69.677,14.264,72.211,13,74.844,13z M65,69v-8h70
		v8H65z M65,80v-8h70v8H65z M65,91v-8h70v8H65z M146,103.995V114H54v-10.005c0-2.634,1.127-5.242,2.857-6.972
		C58.587,95.292,61.03,94,63.664,94h72.672c2.634,0,5.077,1.292,6.807,3.022C144.873,98.752,146,101.361,146,103.995z
		 M38.508,69.287c1.863,0,3.419,0.757,4.643,1.981C44.375,72.492,45,74.181,45,76.044V77H32v-0.956c0-1.863,0.633-3.552,1.857-4.776
		C35.081,70.044,36.645,69.287,38.508,69.287z M60.874,171.081c-0.718,0.718-1.707,1.162-2.8,1.162c-1.093,0-2.082-0.444-2.8-1.162
		c-0.718-0.718-1.162-1.707-1.162-2.8c0-1.092,0.444-2.082,1.162-2.799c0.718-0.718,1.707-1.162,2.8-1.162
		c1.093,0,2.082,0.444,2.8,1.162c0.718,0.718,1.162,1.707,1.162,2.799C62.036,169.374,61.592,170.363,60.874,171.081z
		 M144.726,171.081c-0.718,0.718-1.707,1.162-2.8,1.162c-1.092,0-2.082-0.444-2.799-1.162c-0.718-0.718-1.162-1.708-1.162-2.8
		c0-1.092,0.444-2.082,1.162-2.8c0.718-0.718,1.707-1.162,2.8-1.162c1.093,0,2.082,0.444,2.8,1.162
		c0.718,0.718,1.162,1.707,1.162,2.799C145.888,169.374,145.444,170.363,144.726,171.081z"/>
	<polygon style="fill:#B3B3B3;" points="54,130 51,130 51,134 51.034,134 54,134 	"/>
	<polygon style="fill:#B3B3B3;" points="40,134 39.854,134 43,134 43,130 40,130 	"/>
	<polygon style="fill:#B3B3B3;" points="29,134 28.674,134 32,134 32,130 29,130 	"/>
	<polygon style="fill:#B3B3B3;" points="168,134 168.428,134 171,134 171,130 168,130 	"/>
	<polygon style="fill:#B3B3B3;" points="157,134 157.247,134 160,134 160,130 157,130 	"/>
	<polygon style="fill:#B3B3B3;" points="146,134 146.067,134 149,134 149,130 146,130 	"/>
</g>
<g>
</g>
<g>
</g>
<g>
</g>
<g>
</g>
<g>
</g>
<g>
</g>
<g>
</g>
<g>
</g>
<g>
</g>
<g>
</g>
<g>
</g>
<g>
</g>
<g>
</g>
<g>
</g>
<g>
</g>
</svg>
