<?xml version="1.0" encoding="iso-8859-1"?>
<!-- Generator: Adobe Illustrator 18.0.0, SVG Export Plug-In . SVG Version: 6.00 Build 0)  -->
<!DOCTYPE svg PUBLIC "-//W3C//DTD SVG 1.1//EN" "http://www.w3.org/Graphics/SVG/1.1/DTD/svg11.dtd">
<svg version="1.1" id="Layer_1" xmlns="http://www.w3.org/2000/svg" xmlns:xlink="http://www.w3.org/1999/xlink" x="0px" y="0px"
	 viewBox="0 0 200 200" style="enable-background:new 0 0 200 200;" xml:space="preserve">
<rect x="234.125" y="71.041" style="fill:#F15A24;" width="3.773" height="3.773"/>
<g>
	<path style="fill:#B3B3B3;" d="M38.062,75.436c-3.804,0-6.899-3.095-6.899-6.899s3.095-6.899,6.899-6.899s6.899,3.095,6.899,6.899
		S41.867,75.436,38.062,75.436z M38.062,64.671c-2.131,0-3.866,1.734-3.866,3.866s1.734,3.865,3.866,3.865
		c2.131,0,3.865-1.734,3.865-3.865S40.194,64.671,38.062,64.671z"/>
	<path style="fill:#B3B3B3;" d="M38.062,75.436v-0.25c-1.834,0-3.495-0.745-4.7-1.95c-1.205-1.205-1.95-2.866-1.95-4.7
		c0-1.834,0.745-3.495,1.95-4.7c1.205-1.205,2.866-1.95,4.7-1.95c1.834,0,3.495,0.745,4.7,1.95c1.205,1.205,1.95,2.866,1.95,4.7
		c0,1.834-0.745,3.495-1.95,4.7c-1.205,1.205-2.866,1.95-4.7,1.95V75.436v0.25c3.943,0,7.149-3.207,7.149-7.149
		c0-3.943-3.207-7.149-7.149-7.149c-3.943,0-7.149,3.207-7.149,7.149c0,3.943,3.207,7.149,7.149,7.149V75.436z M38.062,64.671v-0.25
		c-2.27,0-4.115,1.846-4.116,4.116c0,2.27,1.846,4.115,4.116,4.115c2.27,0,4.115-1.845,4.115-4.115c0-2.27-1.845-4.115-4.115-4.116
		V64.671v0.25c0.997,0,1.9,0.405,2.555,1.06c0.655,0.656,1.06,1.558,1.06,2.555c0,0.997-0.405,1.9-1.06,2.555
		c-0.655,0.655-1.558,1.06-2.555,1.06c-0.997,0-1.9-0.405-2.555-1.06c-0.655-0.655-1.06-1.558-1.06-2.555
		c0-0.997,0.405-1.9,1.06-2.555c0.656-0.655,1.558-1.06,2.555-1.06V64.671z"/>
	<path style="fill:#B3B3B3;" d="M103.304,164.244c-2.564,0-4.973-0.998-6.782-2.81l-0.765-0.765l-0.729,0.308
		c-0.899,0.381-1.847,0.574-2.817,0.574c-3.897,0-7.058-3.062-7.196-6.97l-0.039-1.093l-1.093-0.039
		c-3.759-0.134-6.809-3.183-6.942-6.942l-0.039-1.093l-1.093-0.039c-3.76-0.134-6.809-3.183-6.942-6.942l-0.039-1.093l-1.093-0.039
		c-3.909-0.138-6.97-3.299-6.97-7.196c0-1.53,0.495-3.007,1.432-4.271l0.603-0.813l-12.355-12.355
		c-0.283-0.282-0.444-0.672-0.444-1.073v-7.406L19.064,75.833l2.052-2.238L40.24,91.125L76.285,55.08L51.275,30.071l2.145-2.145
		l41.784,41.784h10.137c0.401,0,0.791,0.161,1.07,0.442l4.312,4.312l49.226-49.227l2.145,2.145l-50.429,50.43L91.185,98.134
		l1.252,0.786c2.219,1.394,4.79,2.131,7.435,2.131c3.735,0,7.238-1.445,9.862-4.067l7.16-7.161l2.145,2.145l-3.479,3.48
		l23.473,23.473l0.138,0.171l0.23,0.285l0.827,0.935l38.563-38.563l2.145,2.145l-39.388,39.387l0.116,0.611
		c0.119,0.623,0.179,1.233,0.179,1.812c0,2.56-0.998,4.969-2.81,6.781l-28.949,28.949
		C108.275,163.246,105.867,164.244,103.304,164.244z M80.795,110.078c3.897,0,7.058,3.062,7.196,6.97l0.039,1.093l1.093,0.039
		c3.76,0.134,6.808,3.182,6.942,6.942l0.039,1.093l1.093,0.039c3.76,0.134,6.808,3.182,6.942,6.942l0.039,1.093l1.093,0.039
		c3.909,0.138,6.97,3.299,6.97,7.196c0,1.93-0.751,3.744-2.114,5.11l-12.09,12.09l0.944,0.826c1.179,1.031,2.724,1.599,4.351,1.599
		c1.773,0,3.409-0.66,4.607-1.859l28.949-28.949c1.239-1.239,1.921-2.885,1.921-4.636c0-1.752-0.682-3.399-1.921-4.638
		l-23.472-23.472l-1.535,1.529c-3.195,3.197-7.458,4.957-12.008,4.957c-4.499,0-8.729-1.727-11.912-4.861
		c-0.285-0.281-0.45-0.674-0.451-1.078c-0.002-0.402,0.162-0.796,0.448-1.081l20.616-20.455l-3.861-3.86H94.577
		c-0.401,0-0.791-0.161-1.071-0.443l-4.312-4.312l-36.159,36.159v6.817l11.939,11.939l10.712-10.712
		C77.05,110.829,78.864,110.078,80.795,110.078z M105.016,137.332c-1.117,0-2.17,0.435-2.963,1.225l-12.806,12.806
		c-0.792,0.795-1.227,1.847-1.227,2.964c0,2.311,1.88,4.191,4.191,4.191c1.117,0,2.169-0.435,2.963-1.225l12.806-12.807
		c0.792-0.795,1.226-1.847,1.226-2.964C109.206,139.213,107.326,137.332,105.016,137.332z M96.942,129.259
		c-1.117,0-2.17,0.435-2.963,1.225L81.174,143.29c-0.792,0.795-1.227,1.847-1.227,2.964c0,2.311,1.88,4.191,4.191,4.191
		c1.117,0,2.169-0.435,2.963-1.225l12.806-12.807c0.792-0.795,1.226-1.847,1.226-2.964
		C101.133,131.139,99.253,129.259,96.942,129.259z M88.869,121.185c-1.117,0-2.17,0.435-2.963,1.225L73.1,135.217
		c-0.792,0.795-1.227,1.847-1.227,2.964c0,2.311,1.88,4.191,4.191,4.191c1.117,0,2.169-0.435,2.962-1.225l12.807-12.807
		c0.792-0.795,1.226-1.847,1.226-2.964C93.059,123.066,91.18,121.185,88.869,121.185z M80.795,113.112
		c-1.117,0-2.17,0.435-2.963,1.225l-12.806,12.806c-0.792,0.795-1.227,1.847-1.227,2.964c0,2.311,1.88,4.191,4.191,4.191
		c1.117,0,2.169-0.435,2.963-1.225l12.806-12.807c0.792-0.795,1.226-1.847,1.226-2.964
		C84.986,114.992,83.106,113.112,80.795,113.112z M42.479,93.178l8.994,8.244l35.577-35.577l-8.619-8.619L42.479,93.178z"/>
	<path style="fill:#B3B3B3;" d="M103.304,164.244v-0.25c-2.499,0-4.842-0.971-6.606-2.736l-0.884-0.884l-0.884,0.374
		c-0.869,0.368-1.783,0.555-2.72,0.555c-3.763-0.001-6.812-2.953-6.946-6.729l-0.039-1.093l-0.008-0.233l-1.325-0.047
		c-3.627-0.128-6.574-3.074-6.701-6.701l-0.039-1.093l-0.008-0.233l-1.325-0.047c-3.627-0.128-6.574-3.074-6.701-6.701l-0.039-1.093
		l-0.008-0.233l-1.326-0.047c-3.776-0.134-6.729-3.184-6.729-6.947c0-1.476,0.477-2.899,1.383-4.123l0.731-0.986l-12.508-12.508l0,0
		c-0.235-0.234-0.371-0.562-0.371-0.895v-7.516L19.417,75.817l1.714-1.87l19.116,17.524L76.638,55.08L51.629,30.071l1.792-1.791
		l41.68,41.68h10.24c0.334,0,0.663,0.136,0.893,0.368l4.49,4.49l49.226-49.227l1.792,1.792l-50.252,50.253L90.786,98.179
		l1.519,0.953c2.259,1.419,4.877,2.169,7.568,2.169c3.799,0,7.368-1.471,10.039-4.141l6.984-6.984l1.791,1.792l-3.479,3.48
		l23.641,23.641l0.129,0.161l0.002,0.002l0.228,0.283l0.003,0.004l1.007,1.139l38.574-38.574l1.792,1.792l-39.304,39.304
		l0.141,0.741c0.116,0.608,0.174,1.203,0.174,1.765c0,2.495-0.971,4.837-2.737,6.604l-28.949,28.949
		c-1.764,1.766-4.106,2.737-6.604,2.737V164.244v0.25c2.628,0,5.102-1.025,6.958-2.884l28.949-28.949
		c1.858-1.858,2.884-4.332,2.883-6.958c0-0.597-0.062-1.222-0.183-1.859l-0.092-0.481l39.471-39.47l-2.499-2.499l-38.552,38.552
		l-0.647-0.732l-0.226-0.281l0,0l-0.138-0.171l-0.009-0.011l-23.306-23.306l3.479-3.48l-2.498-2.499l-7.337,7.338
		c-2.578,2.576-6.015,3.994-9.685,3.994c-2.598,0-5.123-0.724-7.302-2.093l-0.985-0.619l20.257-20.099l50.606-50.608l-2.499-2.499
		l-49.226,49.227l-4.135-4.135l0.001,0.001c-0.328-0.329-0.78-0.515-1.248-0.516H95.308L53.421,27.573l-2.499,2.498L75.931,55.08
		L40.232,90.779L21.1,73.241l-2.39,2.607l31.04,28.451v7.296c0,0.468,0.187,0.92,0.518,1.25l12.202,12.202l-0.475,0.64
		c-0.967,1.306-1.482,2.836-1.481,4.42c-0.001,4.031,3.17,7.304,7.212,7.446l0.861,0.031l0.031,0.86
		c0.139,3.891,3.291,7.044,7.183,7.183l0.86,0.031l0.031,0.86c0.139,3.891,3.292,7.043,7.183,7.183l0.86,0.031l0.031,0.861
		c0.142,4.041,3.414,7.212,7.446,7.211c1.003,0,1.985-0.2,2.915-0.594l0.573-0.243l0.646,0.646c1.855,1.858,4.33,2.883,6.959,2.883
		V164.244z M80.795,110.078v0.25c3.763,0.001,6.812,2.953,6.946,6.729l0.039,1.093l0.008,0.233l1.325,0.047
		c3.627,0.128,6.573,3.074,6.701,6.701l0.039,1.093l0.008,0.233l1.325,0.047c3.627,0.128,6.573,3.074,6.701,6.701l0.039,1.093
		l0.008,0.233l1.326,0.047c3.776,0.134,6.729,3.184,6.729,6.947c0,1.865-0.724,3.613-2.041,4.933l-12.279,12.279l1.145,1.002
		c1.226,1.073,2.83,1.661,4.516,1.661c1.834,0,3.537-0.685,4.784-1.932l28.949-28.949c1.285-1.285,1.995-2.996,1.994-4.812
		c0-1.817-0.709-3.53-1.994-4.815l-23.648-23.648l-1.712,1.705l0,0c-3.149,3.15-7.346,4.883-11.831,4.883
		c-4.435,0-8.6-1.701-11.736-4.79c-0.237-0.233-0.376-0.564-0.377-0.901l0-0.002l0,0.001l0-0.004c0-0.332,0.137-0.662,0.374-0.897
		l20.794-20.632l-4.112-4.111h-10.24c-0.334,0-0.662-0.136-0.894-0.369l0,0l-4.488-4.488l-36.409,36.409v7.025l12.189,12.189
		l10.889-10.889c1.318-1.318,3.066-2.042,4.932-2.042V110.078v-0.25c-1.996,0-3.876,0.778-5.286,2.189l-10.535,10.535
		l-11.689-11.689v-6.61l35.909-35.909l4.135,4.135l0,0c0.329,0.33,0.78,0.516,1.248,0.516h10.033l3.61,3.61L87.782,96.882
		c-0.332,0.331-0.521,0.784-0.522,1.252l0,0.008v-0.001c0.002,0.472,0.192,0.926,0.526,1.256c3.228,3.181,7.524,4.934,12.087,4.933
		c4.614,0,8.944-1.786,12.185-5.03l0,0l1.358-1.353l23.295,23.295c1.193,1.193,1.847,2.774,1.848,4.461
		c0,1.686-0.655,3.266-1.848,4.459l-28.949,28.949c-1.151,1.15-2.72,1.785-4.431,1.786c-1.57,0-3.055-0.547-4.187-1.537l-0.743-0.65
		l11.901-11.901c1.409-1.411,2.187-3.292,2.187-5.286c0.001-4.031-3.17-7.304-7.212-7.446l-0.861-0.031l-0.031-0.86
		c-0.139-3.892-3.291-7.044-7.183-7.183l-0.86-0.031l-0.031-0.86c-0.139-3.892-3.291-7.044-7.183-7.183l-0.86-0.031l-0.031-0.861
		c-0.142-4.041-3.414-7.212-7.446-7.211V110.078z M105.016,137.332v-0.25c-1.182,0-2.301,0.462-3.139,1.298L89.07,151.187
		c-0.838,0.84-1.3,1.958-1.3,3.141c0,2.449,1.991,4.441,4.441,4.441c1.182,0,2.299-0.462,3.139-1.297l12.807-12.808
		c0.838-0.841,1.3-1.959,1.299-3.141c0-2.449-1.991-4.441-4.441-4.441V137.332v0.25c1.087,0,2.071,0.442,2.785,1.156
		c0.714,0.715,1.155,1.698,1.156,2.785c0,1.052-0.408,2.038-1.153,2.787l-12.806,12.807l0.001-0.001
		c-0.748,0.744-1.735,1.151-2.786,1.152c-1.087,0-2.071-0.442-2.785-1.156c-0.714-0.715-1.155-1.698-1.156-2.785
		c0-1.052,0.408-2.038,1.154-2.787l12.806-12.806c0.747-0.744,1.734-1.151,2.786-1.152V137.332z M96.942,129.259v-0.25
		c-1.182,0-2.301,0.462-3.139,1.298l-12.806,12.807l0,0c-0.838,0.84-1.3,1.958-1.3,3.14c0,2.449,1.991,4.441,4.441,4.441
		c1.182,0,2.299-0.462,3.139-1.297l0.001-0.001l12.806-12.807c0.838-0.841,1.3-1.959,1.299-3.141c0-2.449-1.991-4.441-4.441-4.441
		V129.259v0.25c1.087,0,2.071,0.442,2.785,1.156c0.714,0.715,1.155,1.698,1.156,2.785c0,1.052-0.408,2.038-1.153,2.787l-0.005,0.005
		l-12.801,12.801l0.001-0.001c-0.748,0.744-1.735,1.151-2.786,1.152c-1.087,0-2.071-0.442-2.785-1.156
		c-0.714-0.715-1.155-1.698-1.156-2.785c0-1.052,0.408-2.038,1.154-2.787l0.006-0.006l12.799-12.8
		c0.747-0.744,1.734-1.151,2.786-1.152V129.259z M88.869,121.185v-0.25c-1.182,0-2.301,0.462-3.139,1.298L72.923,135.04l0,0
		c-0.838,0.84-1.3,1.958-1.3,3.14c0,2.449,1.991,4.441,4.441,4.441c1.182,0,2.299-0.462,3.138-1.297l12.807-12.807l0,0
		c0.838-0.841,1.3-1.958,1.299-3.14c0-2.449-1.991-4.441-4.441-4.441V121.185v0.25c1.087,0,2.071,0.442,2.785,1.156
		c0.714,0.715,1.155,1.698,1.156,2.785c0,1.052-0.408,2.038-1.153,2.787l-0.005,0.005l-12.802,12.802l0,0
		c-0.748,0.743-1.734,1.151-2.786,1.152c-1.087,0-2.071-0.442-2.785-1.156c-0.714-0.715-1.155-1.698-1.156-2.785
		c0-1.052,0.408-2.038,1.154-2.787l0.006-0.006l12.799-12.8c0.747-0.744,1.734-1.151,2.786-1.152V121.185z M80.795,113.112v-0.25
		c-1.182,0-2.301,0.462-3.139,1.298L64.85,126.967l0,0c-0.838,0.84-1.3,1.958-1.3,3.14c0,2.449,1.991,4.441,4.441,4.441
		c1.182,0,2.299-0.462,3.139-1.297l12.807-12.808l0,0c0.838-0.841,1.3-1.958,1.299-3.14c0-2.449-1.991-4.441-4.441-4.441V113.112
		v0.25c1.087,0,2.071,0.442,2.785,1.156c0.714,0.715,1.155,1.698,1.156,2.785c0,1.052-0.408,2.038-1.153,2.787l-12.806,12.807
		l0.001-0.001c-0.748,0.744-1.735,1.151-2.786,1.152c-1.087,0-2.071-0.442-2.785-1.156c-0.714-0.715-1.155-1.698-1.156-2.785
		c0-1.052,0.408-2.038,1.154-2.787l12.806-12.806l0,0c0.747-0.744,1.734-1.152,2.786-1.152V113.112z M42.479,93.178l-0.169,0.184
		l9.17,8.405l35.923-35.923l-8.973-8.973L42.118,93.186l0.192,0.176L42.479,93.178l0.177,0.177L78.43,57.579l8.266,8.266
		l-35.23,35.231l-8.817-8.082L42.479,93.178l0.177,0.177L42.479,93.178z"/>
	<path style="fill:#B3B3B3;" d="M34.654,138.704c-0.553-0.888-1.09-1.79-1.605-2.698l2.662-1.457c0.48,0.846,0.98,1.686,1.494,2.513
		L34.654,138.704z"/>
	<path style="fill:#B3B3B3;" d="M34.654,138.704l0.212-0.132c-0.551-0.885-1.086-1.784-1.6-2.69l-0.217,0.123l0.12,0.219
		l2.662-1.457l-0.12-0.219l-0.217,0.123c0.482,0.848,0.983,1.692,1.499,2.522l0.212-0.132l-0.135-0.21l-2.551,1.642L34.654,138.704
		l0.212-0.132L34.654,138.704l0.135,0.21l2.758-1.775l-0.13-0.209c-0.512-0.824-1.01-1.662-1.489-2.505l-0.122-0.214l-3.101,1.697
		l0.125,0.221c0.517,0.912,1.055,1.816,1.61,2.707l0.134,0.215l0.213-0.137L34.654,138.704z"/>
	<path style="fill:#B3B3B3;" d="M77.18,171.577c-1-0.31-1.997-0.641-2.982-0.992l1.063-2.842c0.912,0.323,1.838,0.632,2.771,0.922
		L77.18,171.577z"/>
	<path style="fill:#B3B3B3;" d="M77.18,171.577l0.074-0.239c-0.997-0.309-1.991-0.639-2.972-0.988l-0.084,0.235l0.234,0.088
		l1.063-2.842l-0.234-0.088l-0.084,0.236c0.915,0.324,1.844,0.634,2.781,0.925l0.074-0.239l-0.24-0.07l-0.853,2.912L77.18,171.577
		l0.074-0.239L77.18,171.577l0.24,0.07l0.922-3.148l-0.235-0.073c-0.93-0.289-1.853-0.596-2.762-0.919l-0.232-0.082l-1.239,3.31
		l0.239,0.085c0.988,0.352,1.988,0.685,2.992,0.995l0.242,0.075l0.071-0.244L77.18,171.577z"/>
	<path style="fill:#B3B3B3;" d="M57.409,162.168c-0.875-0.582-1.738-1.183-2.581-1.795l1.822-2.428c0.78,0.566,1.583,1.124,2.4,1.67
		L57.409,162.168z"/>
	<path style="fill:#B3B3B3;" d="M57.409,162.168l0.138-0.208c-0.873-0.581-1.733-1.179-2.572-1.789l-0.147,0.202l0.2,0.15
		l1.822-2.428l-0.2-0.15l-0.147,0.202c0.783,0.568,1.588,1.128,2.408,1.676l0.139-0.208l-0.21-0.135l-1.642,2.553L57.409,162.168
		l0.138-0.208L57.409,162.168l0.21,0.135l1.775-2.76l-0.204-0.136c-0.815-0.544-1.615-1.1-2.392-1.664l-0.199-0.145l-2.123,2.828
		l0.205,0.149c0.846,0.614,1.711,1.216,2.589,1.801l0.211,0.141l0.137-0.214L57.409,162.168z"/>
	<path style="fill:#B3B3B3;" d="M66.959,167.583c-0.941-0.448-1.881-0.92-2.811-1.41l1.457-2.662
		c0.865,0.455,1.74,0.894,2.619,1.313L66.959,167.583z"/>
	<path style="fill:#B3B3B3;" d="M66.959,167.583l0.108-0.226c-0.938-0.447-1.875-0.917-2.802-1.406l-0.117,0.221l0.219,0.12
		l1.457-2.662l-0.219-0.12l-0.116,0.221c0.868,0.456,1.746,0.897,2.627,1.318l0.108-0.226l-0.227-0.104l-1.264,2.759L66.959,167.583
		l0.108-0.226L66.959,167.583l0.227,0.104l1.367-2.982l-0.222-0.106c-0.875-0.418-1.748-0.856-2.61-1.309l-0.218-0.114l-1.697,3.1
		l0.225,0.118c0.933,0.492,1.877,0.965,2.82,1.415l0.229,0.109l0.106-0.231L66.959,167.583z"/>
	<path style="fill:#B3B3B3;" d="M48.728,155.45c-0.783-0.7-1.551-1.416-2.299-2.142l2.148-2.145
		c0.709,0.686,1.424,1.353,2.141,1.994L48.728,155.45z"/>
	<path style="fill:#B3B3B3;" d="M48.728,155.45l0.167-0.186c-0.78-0.698-1.546-1.411-2.291-2.135l-0.174,0.179l0.177,0.177
		l2.148-2.145l-0.177-0.177l-0.174,0.18c0.711,0.688,1.429,1.357,2.148,2.001l0.167-0.186l-0.189-0.164l-1.99,2.293L48.728,155.45
		l0.167-0.186L48.728,155.45l0.189,0.164l2.151-2.479l-0.183-0.164c-0.714-0.639-1.427-1.304-2.133-1.988l-0.177-0.171l-2.502,2.498
		l0.182,0.177c0.75,0.729,1.521,1.447,2.306,2.149l0.189,0.169l0.166-0.192L48.728,155.45z"/>
	<path style="fill:#B3B3B3;" d="M41.091,147.576c-0.671-0.799-1.33-1.616-1.97-2.443l2.429-1.822c0.6,0.773,1.214,1.534,1.834,2.275
		L41.091,147.576z"/>
	<path style="fill:#B3B3B3;" d="M41.091,147.576l0.191-0.161c-0.669-0.797-1.326-1.611-1.964-2.436l-0.198,0.153l0.15,0.2
		l2.429-1.822l-0.15-0.2l-0.197,0.153c0.602,0.776,1.217,1.539,1.84,2.283l0.192-0.161l-0.164-0.189l-2.293,1.99L41.091,147.576
		l0.191-0.161L41.091,147.576l0.164,0.189l2.479-2.151l-0.158-0.188c-0.619-0.739-1.23-1.497-1.829-2.268l-0.151-0.194l-2.829,2.122
		l0.155,0.201c0.642,0.83,1.303,1.649,1.977,2.451l0.163,0.195l0.192-0.166L41.091,147.576z"/>
	<path style="fill:#B3B3B3;" d="M23.706,107.927c-0.132-1.041-0.243-2.084-0.333-3.122l3.027-0.216
		c0.084,0.965,0.187,1.938,0.31,2.91L23.706,107.927z"/>
	<path style="fill:#B3B3B3;" d="M23.706,107.927l0.248-0.031c-0.131-1.037-0.242-2.078-0.331-3.112l-0.249,0.021l0.018,0.249
		l3.027-0.216l-0.018-0.249l-0.249,0.022c0.085,0.969,0.188,1.945,0.311,2.92l0.248-0.031l-0.035-0.248l-3.005,0.428L23.706,107.927
		l0.248-0.031L23.706,107.927l0.035,0.248l3.249-0.462l-0.031-0.244c-0.122-0.968-0.225-1.938-0.309-2.9l-0.021-0.245l-3.526,0.251
		l0.022,0.253c0.09,1.041,0.201,2.088,0.334,3.132l0.032,0.252l0.251-0.036L23.706,107.927z"/>
	<path style="fill:#B3B3B3;" d="M23.098,96.971c0.015-1.057,0.052-2.106,0.109-3.137l3.027,0.216
		c-0.053,0.967-0.087,1.942-0.103,2.917L23.098,96.971z"/>
	<path style="fill:#B3B3B3;" d="M23.098,96.971l0.25,0.004c0.015-1.053,0.052-2.099,0.109-3.127l-0.25-0.014l-0.018,0.249
		l3.027,0.216l0.018-0.249l-0.25-0.014c-0.053,0.97-0.087,1.949-0.103,2.926l0.25,0.004l0-0.25l-3.034,0.005L23.098,96.971
		l0.25,0.004L23.098,96.971l0,0.25l3.28-0.005l0.004-0.246c0.015-0.971,0.05-1.943,0.102-2.907l0.013-0.246l-3.526-0.251
		l-0.014,0.254c-0.058,1.035-0.094,2.087-0.11,3.147l-0.004,0.254l0.254,0L23.098,96.971z"/>
	<path style="fill:#B3B3B3;" d="M25.866,118.68c-0.278-1.006-0.537-2.023-0.775-3.043l2.966-0.646
		c0.224,0.953,0.465,1.9,0.722,2.835L25.866,118.68z"/>
	<path style="fill:#B3B3B3;" d="M25.866,118.68l0.241-0.067c-0.277-1.002-0.535-2.017-0.773-3.033l-0.243,0.057l0.053,0.244
		l2.966-0.646l-0.053-0.244l-0.243,0.057c0.224,0.956,0.466,1.907,0.725,2.845l0.241-0.066l-0.07-0.24l-2.913,0.853L25.866,118.68
		l0.241-0.067L25.866,118.68l0.07,0.24l3.149-0.922l-0.065-0.237c-0.257-0.932-0.497-1.876-0.72-2.826l-0.056-0.239l-3.454,0.752
		l0.058,0.247c0.239,1.023,0.499,2.044,0.778,3.053l0.068,0.245l0.244-0.071L25.866,118.68z"/>
	<path style="fill:#B3B3B3;" d="M29.538,129.008c-0.417-0.951-0.818-1.919-1.2-2.895l2.843-1.062
		c0.353,0.901,0.726,1.802,1.117,2.696L29.538,129.008z"/>
	<path style="fill:#B3B3B3;" d="M29.538,129.008l0.229-0.1c-0.415-0.947-0.815-1.913-1.196-2.886l-0.233,0.091l0.087,0.234
		l2.843-1.062l-0.087-0.234l-0.233,0.091c0.354,0.904,0.729,1.808,1.121,2.705l0.229-0.1l-0.104-0.227l-2.761,1.261L29.538,129.008
		l0.229-0.1L29.538,129.008l0.104,0.227l2.985-1.363l-0.099-0.225c-0.39-0.89-0.762-1.788-1.114-2.687l-0.09-0.229l-3.312,1.237
		l0.092,0.236c0.383,0.979,0.786,1.951,1.204,2.904l0.102,0.232l0.231-0.105L29.538,129.008z"/>
	<path style="fill:#B3B3B3;" d="M165.327,132.499c0.453-0.861,0.893-1.736,1.315-2.619l2.759,1.264
		c-0.449,0.943-0.921,1.883-1.41,2.812L165.327,132.499z"/>
	<path style="fill:#B3B3B3;" d="M165.327,132.499l0.221,0.116c0.455-0.864,0.896-1.742,1.319-2.627l-0.226-0.108l-0.104,0.227
		l2.759,1.264l0.104-0.227l-0.226-0.107c-0.447,0.94-0.918,1.877-1.406,2.803l0.221,0.117l0.12-0.219l-2.663-1.457L165.327,132.499
		l0.221,0.116L165.327,132.499l-0.12,0.219l2.886,1.579l0.118-0.225c0.491-0.932,0.964-1.875,1.415-2.821l0.109-0.229l-3.213-1.472
		l-0.106,0.222c-0.42,0.879-0.858,1.752-1.31,2.61l-0.115,0.218l0.216,0.118L165.327,132.499z"/>
	<path style="fill:#B3B3B3;" d="M159.761,141.452c0.575-0.792,1.135-1.596,1.673-2.403l2.553,1.644
		c-0.587,0.882-1.188,1.745-1.797,2.583L159.761,141.452z"/>
	<path style="fill:#B3B3B3;" d="M159.761,141.452l0.202,0.147c0.577-0.795,1.138-1.601,1.678-2.411l-0.208-0.139l-0.135,0.21
		l2.553,1.644l0.135-0.21l-0.208-0.139c-0.585,0.879-1.184,1.739-1.791,2.574l0.202,0.147l0.15-0.2l-2.429-1.824L159.761,141.452
		l0.202,0.147L159.761,141.452l-0.15,0.2l2.632,1.976l0.149-0.205c0.611-0.84,1.214-1.707,1.803-2.591l0.141-0.211l-2.973-1.914
		l-0.137,0.205c-0.536,0.804-1.094,1.605-1.667,2.395l-0.144,0.199l0.197,0.148L159.761,141.452z"/>
	<path style="fill:#B3B3B3;" d="M152.982,149.521c0.676-0.697,1.342-1.413,1.993-2.141l2.293,1.989
		c-0.7,0.782-1.416,1.551-2.142,2.299L152.982,149.521z"/>
	<path style="fill:#B3B3B3;" d="M152.982,149.521l0.179,0.174c0.678-0.7,1.347-1.418,2-2.148l-0.186-0.167l-0.164,0.189l2.293,1.989
		l0.164-0.189l-0.186-0.167c-0.698,0.779-1.412,1.546-2.135,2.291l0.179,0.174l0.177-0.177l-2.143-2.147L152.982,149.521
		l0.179,0.174L152.982,149.521l-0.177,0.177l2.323,2.327l0.177-0.182c0.729-0.751,1.447-1.522,2.149-2.306l0.169-0.189l-2.67-2.316
		l-0.164,0.183c-0.649,0.725-1.313,1.439-1.986,2.133l-0.171,0.177l0.174,0.174L152.982,149.521z"/>
	<path style="fill:#B3B3B3;" d="M169.562,122.84c0.322-0.909,0.63-1.836,0.922-2.773l2.912,0.852
		c-0.314,1.015-0.646,2.012-0.991,2.983L169.562,122.84z"/>
	<path style="fill:#B3B3B3;" d="M169.562,122.84l0.236,0.084c0.323-0.912,0.632-1.842,0.925-2.782l-0.239-0.074l-0.07,0.24
		l2.912,0.852l0.07-0.24l-0.239-0.074c-0.313,1.012-0.644,2.006-0.988,2.973l0.236,0.084l0.087-0.234l-2.843-1.062L169.562,122.84
		l0.236,0.084L169.562,122.84l-0.088,0.234l3.081,1.151l0.085-0.239c0.346-0.974,0.679-1.974,0.994-2.993l0.075-0.243l-3.392-0.993
		l-0.073,0.235c-0.291,0.934-0.598,1.858-0.919,2.764l-0.082,0.232l0.23,0.086L169.562,122.84z"/>
	<path style="fill:#B3B3B3;" d="M172.36,112.687c0.191-0.956,0.364-1.918,0.517-2.877l3.003,0.428
		c-0.163,1.03-0.347,2.064-0.554,3.092L172.36,112.687z"/>
	<path style="fill:#B3B3B3;" d="M172.36,112.687l0.245,0.049c0.192-0.959,0.365-1.924,0.519-2.887l-0.247-0.039l-0.035,0.247
		l3.003,0.428l0.035-0.247l-0.247-0.039c-0.162,1.027-0.346,2.057-0.552,3.082l0.245,0.049l0.053-0.244l-2.966-0.642L172.36,112.687
		l0.245,0.049L172.36,112.687l-0.053,0.244l3.214,0.696l0.05-0.249c0.207-1.031,0.392-2.068,0.556-3.102l0.04-0.251l-3.498-0.498
		l-0.039,0.243c-0.153,0.956-0.325,1.915-0.515,2.868l-0.048,0.241l0.24,0.052L172.36,112.687z"/>
	<path style="fill:#B3B3B3;" d="M145.126,156.551c0.776-0.601,1.537-1.215,2.277-1.836l1.988,2.294
		c-0.8,0.672-1.618,1.331-2.444,1.97L145.126,156.551z"/>
	<path style="fill:#B3B3B3;" d="M145.126,156.551l0.153,0.198c0.778-0.603,1.542-1.219,2.285-1.842l-0.161-0.191l-0.189,0.164
		l1.988,2.294l0.189-0.164l-0.161-0.191c-0.798,0.67-1.613,1.327-2.436,1.964l0.153,0.198l0.2-0.15l-1.821-2.428L145.126,156.551
		l0.153,0.198L145.126,156.551l-0.2,0.15l1.974,2.631l0.201-0.155c0.829-0.641,1.649-1.302,2.452-1.977l0.194-0.163l-2.316-2.672
		l-0.188,0.158c-0.738,0.619-1.496,1.231-2.269,1.83l-0.195,0.151l0.148,0.197L145.126,156.551z"/>
	<path style="fill:#B3B3B3;" d="M87.865,174.063c-1.034-0.163-2.067-0.349-3.092-0.554l0.642-2.965
		c0.961,0.191,1.923,0.364,2.878,0.516L87.865,174.063z"/>
	<path style="fill:#B3B3B3;" d="M87.865,174.063l0.039-0.247c-1.03-0.163-2.061-0.347-3.082-0.552l-0.049,0.245l0.244,0.053
		l0.642-2.965l-0.244-0.053l-0.049,0.245c0.964,0.192,1.929,0.365,2.887,0.518l0.039-0.247l-0.248-0.035l-0.428,3.003
		L87.865,174.063l0.039-0.247L87.865,174.063l0.247,0.035l0.462-3.246l-0.243-0.039c-0.952-0.151-1.911-0.323-2.868-0.514
		l-0.241-0.048l-0.747,3.453l0.249,0.05c1.028,0.206,2.065,0.392,3.102,0.556l0.251,0.04l0.036-0.251L87.865,174.063z"/>
	<path style="fill:#B3B3B3;" d="M173.685,102.235c0.052-0.963,0.085-1.939,0.1-2.923h3.035c-0.015,1.049-0.052,2.098-0.109,3.137
		L173.685,102.235z"/>
	<path style="fill:#B3B3B3;" d="M173.685,102.235l0.25,0.014c0.052-0.966,0.086-1.946,0.101-2.932l-0.25-0.004v0.25h3.035v-0.25
		l-0.25-0.004c-0.015,1.045-0.052,2.091-0.109,3.127l0.25,0.014l0.018-0.249l-3.026-0.214L173.685,102.235l0.25,0.014
		L173.685,102.235l-0.018,0.249l3.28,0.232l0.014-0.254c0.057-1.043,0.094-2.095,0.109-3.147l0.004-0.254h-3.535l-0.004,0.246
		c-0.015,0.98-0.048,1.954-0.1,2.913l-0.013,0.246l0.245,0.017L173.685,102.235z"/>
	<path style="fill:#B3B3B3;" d="M106.404,171.696c0.966-0.084,1.939-0.187,2.909-0.31l0.428,3.005
		c-1.043,0.132-2.087,0.244-3.122,0.333L106.404,171.696z"/>
	<path style="fill:#B3B3B3;" d="M106.404,171.696l0.022,0.249c0.969-0.084,1.945-0.188,2.919-0.311l-0.031-0.248l-0.248,0.035
		l0.428,3.005l0.248-0.035l-0.031-0.248c-1.04,0.132-2.081,0.243-3.111,0.331l0.021,0.249l0.249-0.018l-0.216-3.027L106.404,171.696
		l0.022,0.249L106.404,171.696l-0.249,0.018l0.234,3.281l0.253-0.022c1.038-0.089,2.085-0.201,3.132-0.334l0.252-0.032l-0.498-3.499
		l-0.244,0.031c-0.967,0.122-1.937,0.225-2.9,0.309l-0.245,0.021l0.017,0.246L106.404,171.696z"/>
	<path style="fill:#B3B3B3;" d="M98.787,175c-1.048-0.015-2.096-0.052-3.134-0.109l0.214-3.026c0.961,0.052,1.937,0.085,2.917,0.1
		L98.787,175z"/>
	<path style="fill:#B3B3B3;" d="M98.787,175l0.004-0.25c-1.045-0.015-2.089-0.052-3.124-0.109l-0.014,0.25l0.249,0.018l0.214-3.026
		l-0.249-0.018l-0.014,0.25c0.965,0.052,1.943,0.086,2.927,0.101l0.004-0.25l-0.25,0L98.537,175L98.787,175l0.004-0.25L98.787,175
		l0.25,0l-0.002-3.281l-0.246-0.004c-0.978-0.015-1.95-0.048-2.908-0.1l-0.246-0.013l-0.25,3.525l0.254,0.014
		c1.041,0.057,2.092,0.094,3.144,0.109l0.254,0.004l0-0.254L98.787,175z"/>
	<path style="fill:#B3B3B3;" d="M136.367,162.388c0.847-0.481,1.686-0.98,2.51-1.492l1.642,2.552
		c-0.879,0.547-1.78,1.082-2.696,1.602L136.367,162.388z"/>
	<path style="fill:#B3B3B3;" d="M136.367,162.388l0.123,0.217c0.85-0.483,1.692-0.983,2.518-1.497l-0.132-0.212l-0.21,0.135
		l1.642,2.552l0.21-0.135l-0.132-0.212c-0.876,0.545-1.774,1.079-2.687,1.597l0.123,0.217l0.219-0.12l-1.456-2.663L136.367,162.388
		l0.123,0.217L136.367,162.388l-0.219,0.12l1.578,2.886l0.221-0.125c0.918-0.522,1.822-1.059,2.704-1.607l0.215-0.134l-1.912-2.973
		l-0.209,0.13c-0.821,0.51-1.657,1.007-2.501,1.487l-0.214,0.121l0.118,0.216L136.367,162.388z"/>
	<path style="fill:#B3B3B3;" d="M126.868,166.917c0.893-0.35,1.794-0.723,2.694-1.117l1.261,2.76c-0.95,0.417-1.918,0.818-2.895,1.2
		L126.868,166.917z"/>
	<path style="fill:#B3B3B3;" d="M126.868,166.917l0.091,0.233c0.896-0.351,1.8-0.726,2.703-1.121l-0.1-0.229l-0.227,0.104
		l1.261,2.76l0.227-0.104l-0.1-0.229c-0.947,0.415-1.912,0.815-2.886,1.196l0.091,0.233l0.234-0.087l-1.06-2.842L126.868,166.917
		l0.091,0.233L126.868,166.917l-0.234,0.087l1.149,3.08l0.237-0.092c0.98-0.383,1.951-0.786,2.904-1.204l0.232-0.102l-1.469-3.214
		l-0.225,0.099c-0.897,0.393-1.795,0.765-2.685,1.114l-0.229,0.09l0.086,0.23L126.868,166.917z"/>
	<path style="fill:#B3B3B3;" d="M116.806,170.044c0.95-0.222,1.898-0.464,2.835-0.722l0.853,2.913
		c-1.006,0.278-2.024,0.537-3.044,0.775L116.806,170.044z"/>
	<path style="fill:#B3B3B3;" d="M116.806,170.044l0.057,0.243c0.953-0.223,1.904-0.465,2.845-0.725l-0.066-0.241l-0.24,0.07
		l0.853,2.913l0.24-0.07l-0.067-0.241c-1.003,0.277-2.017,0.535-3.034,0.773l0.057,0.243l0.244-0.053l-0.645-2.966L116.806,170.044
		l0.057,0.243L116.806,170.044l-0.244,0.053l0.699,3.214l0.247-0.058c1.023-0.239,2.044-0.499,3.053-0.778l0.245-0.068l-0.994-3.393
		l-0.237,0.065c-0.934,0.258-1.879,0.498-2.826,0.72l-0.24,0.056l0.052,0.24L116.806,170.044z"/>
	<path style="fill:#B3B3B3;" d="M133.12,32.61c-0.862-0.486-1.723-0.949-2.573-1.384l1.337-2.725
		c0.913,0.467,1.837,0.964,2.765,1.488L133.12,32.61z"/>
	<path style="fill:#B3B3B3;" d="M133.12,32.61l0.123-0.218c-0.865-0.488-1.728-0.952-2.582-1.389l-0.114,0.222l0.224,0.11
		l1.337-2.725l-0.224-0.11l-0.114,0.223c0.91,0.466,1.831,0.961,2.757,1.483l0.123-0.218l-0.216-0.126l-1.529,2.622L133.12,32.61
		l0.123-0.218L133.12,32.61l0.216,0.126l1.657-2.841l-0.221-0.125c-0.931-0.525-1.859-1.024-2.774-1.492l-0.226-0.116l-1.557,3.174
		l0.219,0.112c0.847,0.434,1.705,0.895,2.564,1.38l0.215,0.121l0.124-0.213L133.12,32.61z"/>
	<path style="fill:#B3B3B3;" d="M103.007,24.354c-0.968-0.033-1.951-0.05-2.938-0.051l-0.044-3.034
		c1.039,0.001,2.087,0.019,3.124,0.054L103.007,24.354z"/>
	<path style="fill:#B3B3B3;" d="M103.007,24.354l0.008-0.25c-0.971-0.033-1.957-0.05-2.946-0.051l0,0.25l0.25-0.004l-0.044-3.034
		l-0.25,0.004l0,0.25c1.037,0.001,2.081,0.019,3.116,0.054l0.008-0.25l-0.25-0.012l-0.142,3.031L103.007,24.354l0.008-0.25
		L103.007,24.354l0.25,0.012l0.154-3.284l-0.253-0.009c-1.04-0.035-2.09-0.053-3.132-0.054l-0.254,0l0.051,3.534l0.246,0
		c0.984,0.001,1.964,0.018,2.93,0.051l0.247,0.008l0.012-0.246L103.007,24.354z"/>
	<path style="fill:#B3B3B3;" d="M123.59,28.164c-0.905-0.333-1.821-0.646-2.741-0.934l0.851-2.913
		c1.008,0.316,2.009,0.658,2.995,1.022L123.59,28.164z"/>
	<path style="fill:#B3B3B3;" d="M123.59,28.164l0.086-0.235c-0.909-0.334-1.829-0.648-2.752-0.938l-0.075,0.239l0.24,0.07
		l0.851-2.913l-0.24-0.07l-0.075,0.239c1.004,0.315,2.001,0.655,2.983,1.018l0.087-0.234l-0.233-0.091l-1.106,2.826L123.59,28.164
		l0.086-0.235L123.59,28.164l0.233,0.091l1.199-3.063l-0.239-0.088c-0.99-0.366-1.995-0.709-3.007-1.026l-0.243-0.076l-0.992,3.393
		l0.234,0.073c0.916,0.288,1.828,0.599,2.729,0.931l0.23,0.085l0.089-0.228L123.59,28.164z"/>
	<path style="fill:#B3B3B3;" d="M113.478,25.424c-0.94-0.169-1.902-0.319-2.877-0.451l0.352-3.013
		c1.057,0.141,2.099,0.304,3.116,0.487L113.478,25.424z"/>
	<path style="fill:#B3B3B3;" d="M113.478,25.424l0.044-0.246c-0.943-0.169-1.909-0.321-2.887-0.453l-0.033,0.248l0.248,0.029
		l0.352-3.013l-0.248-0.029l-0.033,0.248c1.053,0.141,2.092,0.303,3.105,0.486l0.044-0.246l-0.245-0.049l-0.592,2.977
		L113.478,25.424l0.044-0.246L113.478,25.424l0.245,0.049l0.641-3.227l-0.25-0.045c-1.021-0.184-2.067-0.348-3.128-0.489
		l-0.252-0.034l-0.41,3.509l0.243,0.033c0.972,0.131,1.93,0.282,2.866,0.449l0.242,0.043l0.048-0.241L113.478,25.424z"/>
	<path style="fill:#B3B3B3;" d="M68.078,28.171c0.95-0.433,1.914-0.85,2.883-1.245l1.105,2.827
		c-0.897,0.367-1.795,0.755-2.687,1.161L68.078,28.171z"/>
	<path style="fill:#B3B3B3;" d="M68.078,28.171l0.104,0.227c0.947-0.432,1.908-0.847,2.874-1.241l-0.094-0.231l-0.233,0.091
		l1.105,2.827l0.233-0.091l-0.095-0.231c-0.9,0.368-1.801,0.758-2.696,1.165l0.104,0.228l0.226-0.107l-1.301-2.743L68.078,28.171
		l0.104,0.227L68.078,28.171l-0.226,0.107l1.406,2.965l0.224-0.102c0.889-0.405,1.784-0.791,2.678-1.157l0.228-0.093l-1.287-3.293
		l-0.235,0.096c-0.972,0.396-1.939,0.814-2.892,1.249l-0.231,0.105l0.109,0.229L68.078,28.171z"/>
	<path style="fill:#B3B3B3;" d="M78.359,24.348c0.995-0.291,2.008-0.564,3.033-0.819l0.686,2.955
		c-0.949,0.236-1.893,0.491-2.822,0.762L78.359,24.348z"/>
	<path style="fill:#B3B3B3;" d="M78.359,24.348l0.07,0.24c0.991-0.29,2.002-0.562,3.023-0.816l-0.06-0.243l-0.244,0.056l0.686,2.955
		l0.244-0.056l-0.06-0.243c-0.953,0.237-1.899,0.493-2.831,0.765l0.07,0.24l0.239-0.074l-0.897-2.899L78.359,24.348l0.07,0.24
		L78.359,24.348l-0.239,0.074l0.969,3.134l0.236-0.069c0.925-0.27,1.866-0.524,2.812-0.76l0.239-0.059l-0.799-3.442l-0.246,0.061
		c-1.028,0.255-2.044,0.53-3.042,0.821l-0.244,0.071l0.075,0.243L78.359,24.348z"/>
	<path style="fill:#B3B3B3;" d="M89.082,22.034c1.026-0.146,2.068-0.271,3.119-0.377l0.256,3.023
		c-0.972,0.098-1.942,0.216-2.902,0.352L89.082,22.034z"/>
	<path style="fill:#B3B3B3;" d="M89.082,22.034l0.035,0.248c1.022-0.145,2.062-0.27,3.109-0.376l-0.025-0.249l-0.249,0.021
		l0.256,3.023l0.249-0.021l-0.025-0.249c-0.975,0.098-1.949,0.216-2.912,0.353l0.035,0.248l0.247-0.039l-0.474-2.998L89.082,22.034
		l0.035,0.248L89.082,22.034l-0.247,0.039l0.512,3.241l0.244-0.035c0.956-0.136,1.923-0.253,2.892-0.351l0.245-0.025l-0.299-3.521
		l-0.253,0.026c-1.054,0.106-2.1,0.232-3.129,0.378l-0.251,0.036l0.04,0.251L89.082,22.034z"/>
</g>
<g>
</g>
<g>
</g>
<g>
</g>
<g>
</g>
<g>
</g>
<g>
</g>
<g>
</g>
<g>
</g>
<g>
</g>
<g>
</g>
<g>
</g>
<g>
</g>
<g>
</g>
<g>
</g>
<g>
</g>
</svg>
