<?xml version="1.0" encoding="iso-8859-1"?>
<!-- Generator: Adobe Illustrator 18.0.0, SVG Export Plug-In . SVG Version: 6.00 Build 0)  -->
<!DOCTYPE svg PUBLIC "-//W3C//DTD SVG 1.1//EN" "http://www.w3.org/Graphics/SVG/1.1/DTD/svg11.dtd">
<svg version="1.1" id="Layer_1" xmlns="http://www.w3.org/2000/svg" xmlns:xlink="http://www.w3.org/1999/xlink" x="0px" y="0px"
	 viewBox="0 0 200 200" style="enable-background:new 0 0 200 200;" xml:space="preserve">
<rect x="234.125" y="71.041" style="fill:#F15A24;" width="3.773" height="3.773"/>
<g>
	<path style="fill:#B3B3B3;" d="M58.559,174.965c-8.199,0-14.87-6.671-14.87-14.87v-5.612h-4.19c-0.84,0-1.524-0.683-1.524-1.523
		c0-0.84,0.684-1.524,1.524-1.524h4.19V43.565h-4.19c-0.84,0-1.524-0.684-1.524-1.524c0-0.84,0.684-1.524,1.524-1.524h4.19v-5.612
		c0-8.2,6.671-14.87,14.87-14.87h88.595c8.2,0,14.87,6.671,14.87,14.87V48.07c0,0.792-0.595,1.445-1.385,1.518
		c-0.422,0.038-0.866,0.097-1.357,0.181l-1.355,0.23v91.734c0,6.398-5.001,11.695-11.385,12.058l-1.535,0.087v11.98
		c0,5.021-4.085,9.107-9.107,9.107H58.559z M65.013,171.918h70.889c3.341,0,6.059-2.719,6.059-6.06V66.736
		c0-5.088,1.893-9.953,5.331-13.699c2.801-3.052,6.404-5.149,10.419-6.063l1.266-0.289v-11.78c0-6.519-5.303-11.823-11.822-11.823
		H65.013V171.918z M46.736,160.095c0,6.519,5.304,11.823,11.823,11.823h3.407V23.083h-3.407c-6.519,0-11.823,5.304-11.823,11.823
		v5.612h3.476c0.84,0,1.524,0.684,1.524,1.524c0,0.84-0.684,1.524-1.524,1.524h-3.476v107.871h3.476c0.84,0,1.524,0.684,1.524,1.524
		c0,0.84-0.684,1.523-1.524,1.523h-3.476V160.095z M145.009,150.905l1.799-0.191c4.602-0.489,8.073-4.351,8.073-8.982v-8.402h-9.872
		V150.905z M145.009,130.283h9.872v-17.435h-9.872V130.283z M145.009,109.801h9.872V92.366h-9.872V109.801z M145.009,89.318h9.872
		V71.884h-9.872V89.318z M152.32,52.62c-4.578,3.203-7.312,8.48-7.312,14.116v2.1h9.872V50.829L152.32,52.62z"/>
	<path style="fill:#B3B3B3;" d="M58.559,174.965v-0.25c-4.031,0-7.685-1.639-10.333-4.287c-2.648-2.648-4.287-6.302-4.287-10.333
		v-5.862h-4.44c-0.702-0.001-1.272-0.572-1.274-1.273c0.001-0.702,0.572-1.272,1.274-1.274h4.44V43.315h-4.44
		c-0.702-0.001-1.272-0.572-1.274-1.274c0.001-0.702,0.572-1.272,1.274-1.274h4.44v-5.862c0-4.031,1.639-7.685,4.287-10.333
		c2.648-2.648,6.302-4.287,10.333-4.287h88.595c4.031,0,7.685,1.639,10.333,4.287c2.648,2.648,4.287,6.302,4.287,10.333V48.07
		c-0.001,0.665-0.496,1.207-1.158,1.269c-0.429,0.039-0.88,0.099-1.376,0.183l-1.563,0.265v91.945
		c0,6.265-4.898,11.453-11.149,11.809l-1.77,0.101v12.216c0,2.442-0.993,4.655-2.597,6.26c-1.605,1.604-3.817,2.597-6.26,2.597
		H58.559V174.965v0.25h77.343c5.16,0,9.356-4.197,9.357-9.357v-11.744l1.299-0.074c6.517-0.372,11.62-5.777,11.621-12.308V50.21
		l1.146-0.194c0.486-0.083,0.923-0.141,1.338-0.178c0.917-0.084,1.613-0.847,1.612-1.767V34.905c0-8.338-6.782-15.12-15.12-15.12
		H58.559c-8.338,0-15.12,6.782-15.12,15.12v5.362h-3.94c-0.979,0-1.773,0.795-1.774,1.774c0,0.979,0.795,1.773,1.774,1.774h3.94
		v107.371l-3.94,0c-0.979,0-1.773,0.795-1.774,1.774c0,0.979,0.795,1.773,1.774,1.773h3.94l0,5.362c0,8.338,6.782,15.12,15.12,15.12
		V174.965z M65.013,171.918v0.25h70.889c3.48,0,6.309-2.83,6.309-6.31V66.736c0-5.026,1.87-9.829,5.265-13.53
		c2.768-3.016,6.324-5.085,10.29-5.989l1.46-0.333v-11.98c0-6.658-5.415-12.072-12.072-12.073H64.763v149.336h0.25V171.918h0.25
		V23.333l81.891,0c3.191,0,6.083,1.297,8.179,3.394c2.096,2.096,3.393,4.988,3.393,8.179v11.581l-1.071,0.244
		c-4.064,0.925-7.713,3.049-10.548,6.138c-3.48,3.792-5.397,8.718-5.396,13.868v99.122c0,1.602-0.651,3.053-1.704,4.106
		c-1.053,1.053-2.504,1.704-4.106,1.704H65.013V171.918h0.25H65.013z M46.736,160.095h-0.25c0,6.658,5.415,12.073,12.073,12.073
		h3.657V22.833h-3.657c-6.658,0-12.072,5.415-12.073,12.073v5.862h3.726c0.702,0.001,1.273,0.572,1.274,1.274
		c-0.001,0.701-0.572,1.272-1.274,1.274h-3.726v108.371h3.726c0.702,0.001,1.273,0.572,1.274,1.274
		c-0.001,0.701-0.572,1.272-1.274,1.273h-3.726v5.862H46.736h0.25v-5.362l3.226,0c0.979,0,1.774-0.795,1.774-1.773
		c0-0.979-0.795-1.773-1.774-1.774h-3.226V43.815l3.226,0c0.979,0,1.774-0.795,1.774-1.774c0-0.979-0.795-1.773-1.774-1.774h-3.226
		l0-5.362c0-3.191,1.297-6.083,3.394-8.179c2.096-2.096,4.988-3.393,8.179-3.394h3.157v148.336l-3.157,0
		c-3.191,0-6.083-1.297-8.179-3.394c-2.096-2.097-3.393-4.988-3.394-8.18H46.736z M145.009,150.905l0.026,0.249l1.799-0.191
		c4.729-0.502,8.297-4.472,8.297-9.23v-8.652h-10.372v18.103l0.276-0.029L145.009,150.905h0.25V133.58h9.372l0,8.152
		c0,4.504-3.374,8.257-7.849,8.733l-1.799,0.191L145.009,150.905h0.25H145.009z M145.009,130.283v0.25h10.122v-17.935h-10.372
		v17.935h0.25V130.283h0.25v-17.185h9.372v16.935l-9.622,0V130.283h0.25H145.009z M145.009,109.801v0.25h10.122V92.116h-10.372
		v17.935h0.25V109.801h0.25V92.616h9.372v16.935l-9.622,0V109.801h0.25H145.009z M145.009,89.318v0.25h10.122V71.634h-10.372v17.935
		h0.25V89.318h0.25V72.134h9.372v16.935l-9.622,0V89.318h0.25H145.009z M152.32,52.62l-0.143-0.205
		c-4.646,3.25-7.418,8.604-7.418,14.321v2.35h10.372V50.349l-2.954,2.066L152.32,52.62l0.143,0.205l2.167-1.516v17.277h-9.372
		l0-1.85c0-5.555,2.694-10.755,7.205-13.911L152.32,52.62z"/>
	<path style="fill:#B3B3B3;" d="M117.419,125.778c-5.503,0-10.683-2.149-14.585-6.05L79.623,96.517
		c-7.434-7.434-8.098-19.226-1.545-27.43c0.483-0.605,1.003-1.187,1.545-1.729c0.156-0.156,0.338-0.273,0.54-0.348l2.43-0.912
		c0.17-0.064,0.35-0.096,0.533-0.096c0.408,0,0.791,0.159,1.079,0.446l14.261,14.26c0.391,0.391,0.539,0.964,0.387,1.496
		l-0.607,2.125c-0.071,0.247-0.205,0.475-0.388,0.659l-4.008,4.008l0.755,1.113c3.682,5.428,8.462,10.29,13.823,14.059l0.912,0.641
		l5.255-3.506c0.132-0.089,0.275-0.155,0.424-0.198l2.127-0.608c0.136-0.039,0.277-0.059,0.418-0.059
		c0.406,0,0.789,0.159,1.078,0.447l14.261,14.26c0.421,0.421,0.558,1.054,0.349,1.612l-0.91,2.428
		c-0.076,0.202-0.196,0.39-0.35,0.543c-0.539,0.539-1.121,1.059-1.728,1.544c-3.637,2.905-8.198,4.506-12.843,4.507H117.419z
		 M81.177,70.144c-0.245,0.27-0.486,0.554-0.717,0.843c-5.584,6.99-5.017,17.038,1.319,23.373l23.211,23.212
		c3.325,3.325,7.74,5.157,12.432,5.157c3.957,0,7.843-1.363,10.941-3.837c0.29-0.232,0.574-0.473,0.844-0.718l1.268-1.147
		l-13.589-13.589l-6.684,4.459c-0.25,0.168-0.542,0.256-0.845,0.256c-0.294,0-0.58-0.084-0.827-0.244
		c-7.228-4.666-13.418-11.012-17.903-18.351c-0.369-0.602-0.277-1.372,0.222-1.872l5.142-5.142L82.324,68.876L81.177,70.144z"/>
	<path style="fill:#B3B3B3;" d="M117.419,125.778v-0.25c-5.438,0-10.552-2.122-14.408-5.977L79.8,96.34
		c-3.962-3.962-5.977-9.176-5.977-14.411c0-4.47,1.469-8.953,4.45-12.686c0.477-0.597,0.991-1.173,1.526-1.708
		c0.131-0.131,0.282-0.227,0.45-0.29l2.431-0.913c0.142-0.053,0.291-0.08,0.445-0.08c0.343,0,0.66,0.132,0.902,0.373l14.261,14.26
		c0.242,0.242,0.373,0.568,0.373,0.901c0,0.117-0.016,0.234-0.049,0.349l-0.607,2.125c-0.059,0.206-0.172,0.398-0.325,0.551
		l-4.154,4.154l0.871,1.284c3.699,5.454,8.499,10.336,13.887,14.123l1.052,0.74l5.397-3.601l0.001,0
		c0.111-0.075,0.229-0.13,0.353-0.165l2.127-0.608c0.114-0.033,0.232-0.049,0.349-0.049c0.341,0,0.658,0.132,0.901,0.374
		l14.261,14.26c0.242,0.242,0.372,0.569,0.372,0.902c0,0.15-0.026,0.301-0.081,0.446l-0.91,2.428
		c-0.063,0.168-0.165,0.326-0.292,0.454c-0.533,0.533-1.107,1.046-1.707,1.525c-3.592,2.87-8.099,4.451-12.687,4.452l-0.002,0
		V125.778v0.25h0.002c4.703-0.001,9.318-1.62,12.999-4.561c0.614-0.491,1.202-1.016,1.748-1.562
		c0.179-0.179,0.319-0.396,0.407-0.632l0.91-2.428c0.076-0.202,0.113-0.413,0.113-0.621c0-0.462-0.18-0.917-0.518-1.255
		l-14.261-14.26c-0.334-0.334-0.783-0.521-1.255-0.52c-0.164,0-0.328,0.023-0.487,0.068l-2.127,0.608
		c-0.175,0.05-0.342,0.127-0.495,0.231l0.001,0l-5.112,3.411l-0.772-0.543c-5.336-3.751-10.096-8.592-13.76-13.995l-0.639-0.942
		l3.862-3.862c0.213-0.214,0.369-0.478,0.452-0.767l0.607-2.125c0.046-0.16,0.068-0.324,0.068-0.487
		c0-0.464-0.182-0.917-0.519-1.254l-14.261-14.26c-0.334-0.334-0.783-0.52-1.256-0.52c-0.213,0-0.423,0.038-0.621,0.112
		l-2.431,0.913l0.001,0c-0.236,0.088-0.45,0.225-0.63,0.405c-0.549,0.549-1.075,1.138-1.564,1.75
		c-3.054,3.824-4.56,8.419-4.56,12.998c0,5.363,2.065,10.707,6.124,14.765l23.211,23.211c3.948,3.948,9.193,6.124,14.762,6.123
		V125.778z M81.177,70.144l-0.185-0.168c-0.248,0.274-0.493,0.562-0.727,0.855c-2.608,3.264-3.893,7.188-3.893,11.097
		c0,4.58,1.764,9.143,5.23,12.609l23.211,23.212c3.37,3.372,7.851,5.23,12.609,5.23c4.014,0,7.954-1.382,11.097-3.892
		c0.294-0.235,0.582-0.48,0.856-0.729l1.463-1.323l-13.92-13.92l-6.854,4.573c-0.21,0.14-0.452,0.214-0.706,0.214
		c-0.246,0-0.485-0.07-0.692-0.204c-7.196-4.645-13.361-10.965-17.825-18.271c-0.127-0.208-0.188-0.437-0.188-0.665
		c0-0.328,0.127-0.653,0.374-0.9l5.319-5.319l-14.03-14.029l-1.324,1.463L81.177,70.144l0.185,0.168l0.971-1.073l13.305,13.304
		l-4.965,4.966c-0.342,0.342-0.521,0.796-0.521,1.254c0,0.318,0.086,0.639,0.262,0.926c4.504,7.371,10.72,13.743,17.98,18.431
		c0.287,0.185,0.621,0.284,0.963,0.283c0.351,0,0.693-0.103,0.984-0.298l6.513-4.345l13.258,13.258l-1.073,0.971
		c-0.267,0.242-0.547,0.48-0.833,0.709c-3.054,2.439-6.886,3.783-10.785,3.783c-4.627,0-8.976-1.804-12.255-5.083L81.955,94.184
		c-3.37-3.37-5.083-7.803-5.084-12.255c0-3.8,1.249-7.611,3.783-10.785c0.228-0.285,0.466-0.565,0.707-0.831L81.177,70.144z"/>
	<path style="fill:#B3B3B3;" d="M95.588,165.156c-0.84,0-1.524-0.684-1.524-1.524c0-0.84,0.684-1.524,1.524-1.524h1.575
		c0.84,0,1.524,0.684,1.524,1.524c0,0.84-0.684,1.524-1.524,1.524H95.588z"/>
	<path style="fill:#B3B3B3;" d="M95.588,165.156v-0.25c-0.702-0.001-1.272-0.572-1.274-1.274c0.001-0.702,0.572-1.273,1.274-1.274
		h1.575c0.702,0.001,1.272,0.572,1.274,1.274c-0.001,0.702-0.572,1.272-1.274,1.274h-1.575V165.156v0.25h1.575
		c0.979,0,1.773-0.795,1.774-1.774c0-0.979-0.795-1.773-1.774-1.774h-1.575c-0.979,0-1.773,0.795-1.774,1.774
		c0,0.979,0.795,1.773,1.774,1.774V165.156z"/>
	<path style="fill:#B3B3B3;" d="M108.193,165.156c-0.84,0-1.524-0.684-1.524-1.524c0-0.84,0.684-1.524,1.524-1.524h25.208
		c0.84,0,1.524,0.684,1.524,1.524c0,0.84-0.684,1.524-1.524,1.524H108.193z"/>
	<path style="fill:#B3B3B3;" d="M108.193,165.156v-0.25c-0.702-0.001-1.272-0.572-1.274-1.274c0.001-0.702,0.572-1.273,1.274-1.274
		h25.208c0.702,0.001,1.273,0.572,1.274,1.274c-0.001,0.701-0.572,1.272-1.274,1.274h-25.208V165.156v0.25h25.208
		c0.979,0,1.774-0.795,1.774-1.774c0-0.979-0.795-1.773-1.774-1.774h-25.208c-0.979,0-1.773,0.795-1.774,1.774
		c0,0.979,0.795,1.773,1.774,1.774V165.156z"/>
</g>
<g>
</g>
<g>
</g>
<g>
</g>
<g>
</g>
<g>
</g>
<g>
</g>
<g>
</g>
<g>
</g>
<g>
</g>
<g>
</g>
<g>
</g>
<g>
</g>
<g>
</g>
<g>
</g>
<g>
</g>
</svg>
