<?xml version="1.0" encoding="iso-8859-1"?>
<!-- Generator: Adobe Illustrator 18.0.0, SVG Export Plug-In . SVG Version: 6.00 Build 0)  -->
<!DOCTYPE svg PUBLIC "-//W3C//DTD SVG 1.1//EN" "http://www.w3.org/Graphics/SVG/1.1/DTD/svg11.dtd">
<svg version="1.1" id="Layer_1" xmlns="http://www.w3.org/2000/svg" xmlns:xlink="http://www.w3.org/1999/xlink" x="0px" y="0px"
	 viewBox="0 0 200 200" style="enable-background:new 0 0 200 200;" xml:space="preserve">
<rect x="234.125" y="71.041" style="fill:#F15A24;" width="3.773" height="3.773"/>
<g>
	<path style="fill:#B3B3B3;" d="M100.001,48.2c-1.512,0-2.98-0.435-4.245-1.256c-2.049-1.331-3.369-3.625-3.533-6.138l-0.493-7.556
		c-0.149-2.278,0.661-4.54,2.222-6.206c1.562-1.666,3.766-2.621,6.048-2.621c2.283,0,4.487,0.955,6.047,2.621
		c1.562,1.667,2.372,3.928,2.223,6.206l-0.492,7.556c-0.164,2.512-1.485,4.807-3.533,6.139C102.98,47.766,101.512,48.2,100.001,48.2
		z M100.001,27.547c-1.443,0-2.781,0.58-3.767,1.632c-0.986,1.054-1.479,2.427-1.386,3.866l0.493,7.556
		c0.101,1.536,0.892,2.927,2.118,3.723c0.758,0.492,1.637,0.752,2.542,0.752c0.905,0,1.784-0.26,2.542-0.753
		c1.225-0.795,2.017-2.187,2.117-3.722l0.493-7.555c0.093-1.442-0.399-2.814-1.386-3.867
		C102.781,28.126,101.443,27.547,100.001,27.547z"/>
	<path style="fill:#B3B3B3;" d="M100.001,48.2v-0.125c-1.488,0-2.932-0.428-4.177-1.236c-2.014-1.308-3.315-3.567-3.476-6.042
		l-0.493-7.556c-0.012-0.176-0.017-0.352-0.017-0.528c0-2.062,0.789-4.073,2.206-5.585c1.538-1.64,3.71-2.582,5.957-2.582
		c2.248,0,4.42,0.941,5.956,2.582c1.417,1.512,2.206,3.523,2.206,5.585c0,0.176-0.006,0.352-0.017,0.528l-0.492,7.556
		c-0.161,2.474-1.463,4.733-3.476,6.042c-1.245,0.808-2.689,1.235-4.176,1.235V48.2v0.125c1.535,0,3.027-0.441,4.312-1.276
		c2.083-1.354,3.423-3.685,3.589-6.236l0.492-7.556c0.012-0.181,0.018-0.363,0.018-0.544c0-2.125-0.813-4.197-2.274-5.756
		c-1.584-1.691-3.82-2.66-6.139-2.661c-2.317,0-4.554,0.969-6.139,2.661c-1.46,1.559-2.273,3.631-2.273,5.756
		c0,0.181,0.006,0.362,0.018,0.544l0.493,7.556c0.166,2.552,1.506,4.881,3.589,6.235c1.285,0.835,2.777,1.276,4.313,1.276V48.2z
		 M100.001,27.547v-0.125c-1.476,0-2.849,0.594-3.858,1.671c-0.929,0.992-1.431,2.263-1.431,3.607c0,0.117,0.004,0.234,0.011,0.352
		l0.493,7.556c0.103,1.573,0.914,3.001,2.174,3.819c0.778,0.505,1.681,0.772,2.61,0.772c0.929,0,1.832-0.267,2.61-0.773
		c1.26-0.818,2.071-2.246,2.173-3.819l0.493-7.555c0.008-0.118,0.011-0.236,0.011-0.353c0-1.346-0.502-2.617-1.431-3.608
		c-1.009-1.077-2.381-1.672-3.858-1.671V27.547v0.125c1.409,0,2.712,0.565,3.675,1.592c0.886,0.946,1.363,2.153,1.363,3.437
		c0,0.112-0.004,0.224-0.011,0.337l-0.493,7.555c-0.097,1.497-0.87,2.854-2.06,3.625c-0.738,0.479-1.593,0.733-2.474,0.733
		c-0.881,0-1.736-0.253-2.474-0.732c-1.19-0.772-1.963-2.128-2.061-3.626l-0.493-7.556c-0.007-0.112-0.011-0.225-0.011-0.336
		c0-1.282,0.477-2.49,1.363-3.436c0.964-1.027,2.267-1.592,3.676-1.592V27.547z"/>
	<path style="fill:#B3B3B3;" d="M78.693,69.894c-0.464,0-0.902-0.205-1.2-0.561c-0.297-0.356-0.421-0.822-0.338-1.28l0.855-4.719
		c1.013-5.59,5.442-10.051,11.02-11.102c0.841-0.158,1.702-0.239,2.56-0.239h2.575c0.412,0,0.814,0.166,1.105,0.457
		c1.264,1.264,2.944,1.96,4.731,1.96c1.786,0,3.467-0.696,4.731-1.96c0.295-0.294,0.688-0.457,1.105-0.457h2.574
		c0.858,0,1.72,0.081,2.56,0.239c5.579,1.051,10.007,5.512,11.02,11.102l0.855,4.719c0.083,0.458-0.041,0.924-0.339,1.281
		c-0.296,0.356-0.733,0.56-1.199,0.56H78.693z M91.591,55.117c-0.662,0-1.329,0.063-1.984,0.186
		c-4.314,0.812-7.739,4.263-8.522,8.588l-0.521,2.878h38.873l-0.521-2.878c-0.783-4.325-4.209-7.776-8.523-8.588
		c-0.654-0.123-1.321-0.186-1.982-0.186h-1.938l-0.413,0.325c-1.735,1.369-3.831,2.092-6.059,2.092c-2.229,0-4.325-0.723-6.06-2.092
		l-0.413-0.325H91.591z"/>
	<path style="fill:#B3B3B3;" d="M78.693,69.894v-0.125c-0.427,0-0.83-0.188-1.104-0.516c-0.218-0.261-0.334-0.585-0.334-0.92
		l0.023-0.258l0.855-4.719c1.003-5.538,5.394-9.961,10.921-11.001c0.833-0.157,1.687-0.237,2.537-0.237h2.575
		c0.378,0,0.75,0.154,1.016,0.42c1.286,1.287,3,1.997,4.819,1.997c1.819,0,3.532-0.709,4.819-1.997
		c0.272-0.271,0.632-0.42,1.017-0.42h2.574c0.851,0,1.704,0.08,2.537,0.237c5.527,1.04,9.917,5.463,10.921,11.001l0.855,4.719
		l0.023,0.258c0,0.334-0.116,0.659-0.335,0.921c-0.273,0.327-0.674,0.515-1.103,0.515H78.693V69.894v0.125h42.615
		c0.502,0,0.974-0.221,1.295-0.605c0.256-0.307,0.393-0.689,0.393-1.081c0-0.101-0.009-0.202-0.027-0.302l-0.855-4.719
		c-1.023-5.641-5.49-10.141-11.12-11.202c-0.848-0.16-1.717-0.241-2.584-0.241h-2.574c-0.45,0-0.876,0.176-1.194,0.493
		c-1.241,1.241-2.888,1.923-4.642,1.924c-1.754,0-3.401-0.682-4.642-1.923c-0.315-0.314-0.748-0.493-1.193-0.494h-2.575
		c-0.866,0-1.735,0.081-2.584,0.241c-5.63,1.061-10.097,5.561-11.12,11.202l-0.855,4.719c-0.018,0.101-0.027,0.202-0.027,0.302
		c0,0.392,0.137,0.774,0.392,1.08c0.322,0.385,0.795,0.606,1.296,0.606V69.894z M91.591,55.117v-0.125
		c-0.67,0-1.345,0.064-2.007,0.188c-4.365,0.822-7.829,4.312-8.622,8.688l-0.548,3.026h39.172l-0.548-3.026
		c-0.793-4.376-4.257-7.866-8.623-8.688c-0.661-0.124-1.336-0.188-2.005-0.188h-1.981l-0.447,0.352
		c-1.714,1.351-3.78,2.065-5.982,2.065c-2.202,0-4.269-0.714-5.983-2.065l-0.413-0.325l-0.034-0.027h-1.98V55.117v0.125h1.894
		l0.379,0.298c1.757,1.386,3.881,2.119,6.137,2.119c2.256,0,4.38-0.733,6.137-2.119l0.379-0.298h1.895
		c0.654,0,1.313,0.062,1.959,0.183c4.263,0.802,7.65,4.214,8.423,8.487l0.495,2.731H80.714l0.495-2.731
		c0.773-4.273,4.16-7.686,8.422-8.487c0.647-0.121,1.307-0.183,1.961-0.183V55.117z"/>
	<path style="fill:#B3B3B3;" d="M100.001,153.884c-1.512,0-2.98-0.434-4.245-1.255c-2.049-1.332-3.369-3.626-3.533-6.139
		l-0.493-7.556c-0.149-2.278,0.661-4.54,2.222-6.206c1.562-1.666,3.766-2.621,6.048-2.621c2.283,0,4.487,0.955,6.047,2.621
		c1.562,1.667,2.372,3.928,2.223,6.205l-0.492,7.557c-0.164,2.512-1.485,4.807-3.533,6.139
		C102.981,153.45,101.514,153.884,100.001,153.884z M100.001,133.231c-1.445,0-2.783,0.58-3.769,1.634
		c-0.985,1.051-1.477,2.424-1.384,3.864l0.493,7.556c0.101,1.535,0.892,2.926,2.118,3.722c0.757,0.492,1.636,0.753,2.542,0.753
		c0.905,0,1.784-0.26,2.542-0.753c1.225-0.795,2.017-2.186,2.117-3.721l0.493-7.556c0.093-1.441-0.399-2.814-1.386-3.865
		C102.782,133.811,101.443,133.231,100.001,133.231z"/>
	<path style="fill:#B3B3B3;" d="M100.001,153.884v-0.125c-1.488,0-2.933-0.427-4.177-1.235c-2.014-1.309-3.315-3.568-3.476-6.042
		l-0.493-7.556c-0.012-0.176-0.017-0.352-0.017-0.528c0-2.062,0.789-4.073,2.206-5.585c1.538-1.64,3.709-2.582,5.957-2.582
		c2.248,0,4.42,0.941,5.956,2.582c1.417,1.512,2.206,3.523,2.206,5.584c0,0.175-0.006,0.351-0.017,0.527l-0.492,7.557
		c-0.161,2.474-1.463,4.733-3.476,6.042c-1.244,0.808-2.687,1.235-4.176,1.235V153.884v0.125c1.537,0,3.028-0.441,4.312-1.276
		c2.083-1.354,3.423-3.685,3.589-6.236l0.492-7.557c0.012-0.181,0.018-0.363,0.018-0.544c0-2.124-0.813-4.196-2.274-5.755
		c-1.584-1.691-3.82-2.66-6.139-2.661c-2.317,0-4.554,0.969-6.139,2.661c-1.46,1.559-2.273,3.631-2.273,5.756
		c0,0.181,0.006,0.362,0.018,0.544l0.493,7.556c0.166,2.552,1.506,4.881,3.589,6.236c1.285,0.835,2.777,1.276,4.313,1.276V153.884z
		 M100.001,133.231v-0.125c-1.478,0-2.852,0.595-3.86,1.674c-0.927,0.99-1.429,2.26-1.429,3.605c0,0.117,0.004,0.235,0.011,0.353
		l0.493,7.556c0.104,1.573,0.914,3,2.174,3.819c0.777,0.506,1.68,0.773,2.61,0.773c0.929,0,1.832-0.267,2.61-0.774
		c1.26-0.818,2.071-2.245,2.173-3.818l0.493-7.556c0.008-0.118,0.011-0.236,0.011-0.353c0-1.345-0.502-2.617-1.431-3.606
		c-1.007-1.077-2.381-1.672-3.857-1.672V133.231v0.125c1.409,0,2.712,0.566,3.674,1.593c0.887,0.945,1.363,2.152,1.364,3.435
		c0,0.112-0.004,0.224-0.011,0.337l-0.493,7.556c-0.097,1.497-0.87,2.853-2.06,3.625c-0.738,0.48-1.593,0.733-2.474,0.733
		c-0.882,0-1.737-0.253-2.474-0.732c-1.19-0.772-1.962-2.128-2.061-3.625l-0.493-7.556c-0.007-0.113-0.011-0.225-0.011-0.336
		c0-1.282,0.477-2.489,1.362-3.434c0.963-1.029,2.266-1.594,3.677-1.594V133.231z"/>
	<path style="fill:#B3B3B3;" d="M78.693,175.579c-0.464,0-0.901-0.205-1.199-0.561c-0.298-0.356-0.421-0.823-0.339-1.28l0.855-4.719
		c1.013-5.59,5.442-10.052,11.02-11.102c0.841-0.159,1.702-0.24,2.56-0.24h2.575c0.411,0,0.813,0.167,1.105,0.458
		c1.263,1.262,2.943,1.957,4.731,1.957c1.789,0,3.468-0.695,4.731-1.957c0.295-0.295,0.688-0.458,1.105-0.458h2.575
		c0.86,0,1.721,0.081,2.559,0.239c5.579,1.051,10.008,5.512,11.022,11.102l0.855,4.719c0.082,0.456-0.041,0.923-0.339,1.281
		c-0.296,0.356-0.733,0.56-1.198,0.56H78.693z M91.591,160.803c-0.664,0-1.331,0.062-1.983,0.185
		c-4.314,0.812-7.739,4.263-8.523,8.588l-0.52,2.878h38.872l-0.521-2.878c-0.783-4.325-4.208-7.776-8.523-8.589
		c-0.653-0.122-1.319-0.184-1.982-0.184h-1.939l-0.412,0.324c-1.712,1.346-3.865,2.088-6.059,2.088c-2.195,0-4.348-0.742-6.06-2.088
		l-0.412-0.324H91.591z"/>
	<path style="fill:#B3B3B3;" d="M78.693,175.579v-0.125c-0.427,0-0.829-0.188-1.103-0.516c-0.218-0.261-0.335-0.586-0.335-0.92
		l0.023-0.257l0.855-4.719c1.003-5.539,5.394-9.961,10.921-11.001c0.833-0.158,1.687-0.237,2.537-0.237h2.575
		c0.377,0,0.749,0.154,1.016,0.421c1.286,1.285,2.999,1.994,4.819,1.994c1.821,0,3.534-0.708,4.819-1.994
		c0.272-0.272,0.632-0.421,1.016-0.421h2.575c0.852,0,1.706,0.08,2.536,0.237c5.528,1.04,9.918,5.463,10.922,11.002l0.855,4.719
		l0.023,0.256c0,0.334-0.116,0.66-0.335,0.923c-0.273,0.328-0.674,0.515-1.102,0.516H78.693V175.579v0.125h42.615
		c0.501,0,0.974-0.221,1.294-0.605c0.256-0.307,0.393-0.69,0.393-1.083c0-0.1-0.009-0.2-0.027-0.3l-0.855-4.719
		c-1.024-5.642-5.491-10.142-11.122-11.203c-0.845-0.16-1.714-0.241-2.582-0.241h-2.575c-0.45,0-0.875,0.176-1.193,0.494
		c-1.239,1.239-2.886,1.92-4.642,1.921c-1.755,0-3.402-0.682-4.642-1.921c-0.315-0.314-0.748-0.494-1.193-0.494h-2.575
		c-0.866,0-1.735,0.081-2.584,0.242c-5.63,1.06-10.097,5.56-11.12,11.202l-0.855,4.719c-0.018,0.101-0.027,0.202-0.027,0.302
		c0,0.392,0.137,0.774,0.393,1.08c0.321,0.385,0.794,0.606,1.295,0.606V175.579z M91.591,160.803v-0.125
		c-0.672,0-1.346,0.063-2.006,0.187c-4.365,0.822-7.829,4.312-8.623,8.688l-0.546,3.025h39.171l-0.548-3.025
		c-0.793-4.376-4.256-7.866-8.623-8.689c-0.661-0.123-1.334-0.186-2.005-0.186h-1.982l-0.446,0.351
		c-1.69,1.329-3.816,2.061-5.982,2.061c-2.167,0-4.293-0.732-5.983-2.061l-0.412-0.324l-0.034-0.027h-1.982V160.803v0.125h1.895
		l0.378,0.297c1.735,1.364,3.914,2.115,6.137,2.115c2.223,0,4.401-0.751,6.136-2.115l0.378-0.297l1.895,0
		c0.655,0,1.314,0.061,1.959,0.182c4.263,0.802,7.65,4.215,8.423,8.488l0.495,2.73H80.715l0.493-2.73
		c0.774-4.273,4.161-7.686,8.423-8.487c0.644-0.121,1.304-0.183,1.96-0.183V160.803z"/>
	<path style="fill:#B3B3B3;" d="M47.159,101.041c-1.512,0-2.98-0.434-4.245-1.255c-2.049-1.331-3.369-3.626-3.533-6.139
		l-0.493-7.556c-0.149-2.279,0.661-4.54,2.222-6.206c1.561-1.666,3.766-2.622,6.048-2.622s4.487,0.956,6.049,2.622
		c1.56,1.666,2.37,3.928,2.221,6.205l-0.493,7.557c-0.163,2.512-1.484,4.807-3.532,6.138
		C50.138,100.607,48.671,101.041,47.159,101.041z M47.159,80.389c-1.443,0-2.781,0.58-3.767,1.632
		c-0.988,1.055-1.479,2.428-1.386,3.867l0.493,7.555c0.101,1.534,0.892,2.926,2.117,3.722c0.759,0.492,1.638,0.753,2.543,0.753
		c0.904,0,1.783-0.26,2.541-0.752c1.227-0.797,2.018-2.189,2.118-3.723l0.493-7.556c0.094-1.439-0.398-2.812-1.384-3.865
		C49.939,80.969,48.601,80.389,47.159,80.389z"/>
	<path style="fill:#B3B3B3;" d="M47.159,101.041v-0.125c-1.488,0-2.933-0.427-4.177-1.235c-2.014-1.308-3.315-3.568-3.476-6.042
		l-0.493-7.556c-0.011-0.175-0.017-0.351-0.017-0.526c0-2.063,0.789-4.075,2.205-5.586c1.537-1.64,3.709-2.582,5.957-2.582
		c2.248,0,4.42,0.942,5.958,2.582c1.416,1.511,2.205,3.523,2.205,5.584c0,0.176-0.006,0.351-0.017,0.527L54.81,93.64
		c-0.161,2.474-1.462,4.733-3.475,6.042c-1.244,0.808-2.687,1.235-4.176,1.235V101.041v0.125c1.537,0,3.028-0.441,4.312-1.276
		c2.083-1.354,3.423-3.684,3.589-6.235l0.493-7.557c0.012-0.181,0.018-0.363,0.018-0.544c0-2.125-0.813-4.196-2.272-5.755
		c-1.586-1.691-3.823-2.661-6.14-2.661c-2.317,0-4.555,0.97-6.139,2.661c-1.461,1.558-2.273,3.63-2.273,5.757
		c0,0.18,0.006,0.361,0.018,0.542l0.493,7.556c0.166,2.552,1.506,4.882,3.589,6.236c1.285,0.835,2.777,1.276,4.313,1.276V101.041z
		 M47.159,80.389v-0.125c-1.476,0-2.849,0.594-3.858,1.671c-0.929,0.992-1.431,2.263-1.431,3.606c0,0.118,0.004,0.236,0.012,0.355
		l0.493,7.555c0.103,1.572,0.913,2.999,2.173,3.819c0.779,0.506,1.682,0.773,2.611,0.773c0.928,0,1.831-0.267,2.609-0.772
		c1.262-0.82,2.072-2.248,2.174-3.819l0.493-7.556c0.008-0.119,0.012-0.237,0.012-0.355c0-1.343-0.501-2.613-1.429-3.604
		c-1.01-1.078-2.383-1.672-3.859-1.672V80.389v0.125c1.409,0,2.712,0.565,3.677,1.593c0.885,0.946,1.361,2.153,1.362,3.433
		c0,0.112-0.004,0.225-0.011,0.339l-0.493,7.556c-0.097,1.497-0.87,2.852-2.061,3.626c-0.738,0.479-1.593,0.732-2.473,0.732
		c-0.881,0-1.736-0.253-2.475-0.733c-1.19-0.773-1.962-2.129-2.06-3.625l-0.493-7.555c-0.007-0.113-0.011-0.226-0.011-0.339
		c0-1.28,0.476-2.487,1.363-3.435c0.964-1.027,2.267-1.592,3.676-1.592V80.389z"/>
	<path style="fill:#B3B3B3;" d="M25.85,122.736c-0.464,0-0.901-0.205-1.199-0.561c-0.297-0.356-0.421-0.823-0.339-1.281l0.855-4.718
		c1.014-5.59,5.443-10.051,11.02-11.102c0.843-0.159,1.705-0.24,2.56-0.24h2.575c0.417,0,0.81,0.163,1.106,0.458
		c1.261,1.261,2.94,1.956,4.729,1.956c1.788,0,3.468-0.695,4.731-1.957c0.296-0.295,0.688-0.458,1.105-0.458h2.575
		c0.856,0,1.718,0.081,2.56,0.24c5.579,1.051,10.007,5.512,11.02,11.102l0.855,4.719c0.083,0.457-0.041,0.923-0.338,1.279
		c-0.298,0.358-0.735,0.562-1.199,0.562H25.85z M38.748,107.96c-0.665,0-1.332,0.062-1.982,0.186
		c-4.314,0.813-7.74,4.263-8.523,8.588l-0.521,2.878h38.873l-0.521-2.878c-0.784-4.325-4.209-7.776-8.524-8.589
		c-0.651-0.123-1.318-0.185-1.982-0.185h-1.937l-0.413,0.325c-1.736,1.369-3.831,2.092-6.06,2.092c-2.228,0-4.323-0.723-6.059-2.092
		l-0.413-0.325H38.748z"/>
	<path style="fill:#B3B3B3;" d="M25.85,122.736v-0.125c-0.427,0-0.829-0.188-1.103-0.516l-0.004-0.005l0.004,0.005
		c-0.218-0.262-0.334-0.587-0.334-0.922l0.023-0.256l0.855-4.718c1.004-5.538,5.394-9.961,10.921-11.001
		c0.835-0.158,1.69-0.237,2.537-0.237h2.575c0.384,0,0.744,0.149,1.018,0.422c1.283,1.284,2.996,1.993,4.817,1.993
		c1.82,0,3.534-0.708,4.819-1.994c0.273-0.272,0.632-0.421,1.016-0.421h2.575c0.848,0,1.702,0.08,2.537,0.237
		c5.527,1.04,9.917,5.463,10.921,11.001l0.855,4.719l0.023,0.258c0,0.334-0.116,0.659-0.334,0.919
		c-0.275,0.33-0.676,0.517-1.103,0.517H25.85L25.85,122.736v0.125h42.615c0.501,0,0.974-0.221,1.295-0.607
		c0.255-0.305,0.392-0.687,0.392-1.079c0-0.1-0.009-0.202-0.027-0.302l-0.855-4.719c-1.023-5.641-5.49-10.141-11.12-11.202
		c-0.851-0.16-1.72-0.242-2.584-0.242h-2.575c-0.45,0-0.874,0.176-1.193,0.494c-1.239,1.239-2.887,1.92-4.642,1.921
		c-1.756,0-3.403-0.682-4.641-1.92c-0.319-0.319-0.745-0.495-1.195-0.495h-2.575c-0.863,0-1.733,0.081-2.584,0.242
		c-5.629,1.061-10.097,5.561-11.12,11.202l-0.855,4.718c-0.018,0.1-0.027,0.201-0.027,0.301c0,0.393,0.137,0.776,0.392,1.082l0,0
		c0.321,0.385,0.794,0.606,1.295,0.606V122.736z M38.748,107.96v-0.125c-0.672,0-1.347,0.063-2.006,0.188l-0.005,0.001l0.006-0.001
		c-4.366,0.823-7.83,4.312-8.623,8.688l-0.548,3.025h39.173l-0.548-3.025c-0.794-4.376-4.257-7.866-8.623-8.689
		c-0.658-0.124-1.334-0.187-2.005-0.187h-1.981l-0.447,0.352c-1.715,1.351-3.781,2.065-5.983,2.065
		c-2.201,0-4.267-0.714-5.982-2.065l-0.413-0.325l-0.034-0.027h-1.982V107.96v0.125h1.895l0.379,0.298
		c1.758,1.386,3.882,2.119,6.137,2.119c2.256,0,4.38-0.733,6.137-2.119l0.379-0.298h1.894c0.656,0,1.316,0.061,1.959,0.183
		c4.263,0.802,7.65,4.215,8.424,8.488l0.495,2.73H27.872l0.495-2.73c0.773-4.273,4.16-7.685,8.423-8.487l0,0
		c0.643-0.122,1.302-0.183,1.959-0.183V107.96z"/>
	<path style="fill:#B3B3B3;" d="M152.843,101.041c-1.512,0-2.98-0.434-4.245-1.256c-2.047-1.33-3.368-3.625-3.531-6.138
		l-0.493-7.556c-0.149-2.278,0.662-4.54,2.222-6.206c1.561-1.666,3.765-2.621,6.048-2.621c2.282,0,4.487,0.955,6.047,2.621
		c1.562,1.667,2.372,3.928,2.223,6.206l-0.492,7.556c-0.164,2.513-1.485,4.808-3.533,6.139
		C155.823,100.607,154.355,101.041,152.843,101.041z M152.843,80.389c-1.443,0-2.782,0.58-3.767,1.633
		c-0.987,1.053-1.479,2.426-1.385,3.866l0.493,7.555c0.1,1.533,0.891,2.925,2.117,3.722c0.759,0.492,1.638,0.753,2.543,0.753
		c0.904,0,1.783-0.26,2.541-0.753c1.226-0.796,2.018-2.188,2.118-3.722l0.493-7.556c0.093-1.441-0.399-2.813-1.386-3.866
		C155.625,80.969,154.287,80.389,152.843,80.389z"/>
	<path style="fill:#B3B3B3;" d="M152.843,101.041v-0.125c-1.488,0-2.932-0.427-4.177-1.236c-2.013-1.307-3.314-3.567-3.475-6.042
		l-0.493-7.556c-0.011-0.175-0.017-0.351-0.017-0.525c0-2.063,0.789-4.075,2.205-5.587c1.537-1.64,3.709-2.582,5.957-2.582
		c2.248,0,4.419,0.941,5.956,2.582c1.417,1.512,2.206,3.523,2.206,5.585c0,0.176-0.006,0.352-0.017,0.528l-0.492,7.556
		c-0.161,2.475-1.463,4.734-3.477,6.042c-1.243,0.808-2.687,1.235-4.176,1.235V101.041v0.125c1.537,0,3.028-0.441,4.312-1.276
		c2.083-1.354,3.423-3.684,3.59-6.236l0.492-7.556c0.012-0.181,0.018-0.363,0.018-0.544c0-2.125-0.813-4.197-2.274-5.756
		c-1.585-1.691-3.821-2.66-6.139-2.661c-2.318,0-4.555,0.969-6.139,2.661c-1.46,1.559-2.273,3.632-2.273,5.758
		c0,0.18,0.006,0.361,0.018,0.542l0.493,7.556c0.166,2.552,1.506,4.882,3.588,6.235c1.286,0.835,2.778,1.276,4.314,1.276V101.041z
		 M152.843,80.389v-0.125c-1.477,0-2.85,0.594-3.858,1.672c-0.929,0.99-1.43,2.261-1.43,3.604c0,0.118,0.004,0.236,0.012,0.355
		l0.493,7.555c0.102,1.571,0.912,2.998,2.173,3.819c0.779,0.506,1.682,0.773,2.611,0.773c0.928,0,1.831-0.267,2.609-0.773
		c1.261-0.82,2.072-2.247,2.174-3.819l0.493-7.556c0.008-0.118,0.011-0.236,0.011-0.353c0-1.345-0.502-2.616-1.431-3.607
		c-1.008-1.077-2.381-1.672-3.858-1.671V80.389v0.125c1.41,0,2.714,0.565,3.676,1.592c0.886,0.946,1.363,2.153,1.363,3.436
		c0,0.112-0.004,0.224-0.011,0.337l-0.493,7.556c-0.097,1.497-0.87,2.852-2.061,3.625c-0.738,0.479-1.593,0.732-2.473,0.733
		c-0.881,0-1.735-0.253-2.475-0.733c-1.191-0.774-1.963-2.129-2.06-3.625l-0.493-7.555c-0.007-0.114-0.011-0.227-0.011-0.339
		c0-1.281,0.476-2.488,1.362-3.434c0.963-1.028,2.266-1.593,3.676-1.593V80.389z"/>
	<path style="fill:#B3B3B3;" d="M131.535,122.736c-0.464,0-0.902-0.205-1.201-0.562c-0.296-0.356-0.42-0.821-0.337-1.279
		l0.855-4.719c1.013-5.59,5.442-10.051,11.02-11.102c0.843-0.159,1.704-0.24,2.56-0.24h2.574c0.417,0,0.81,0.163,1.106,0.458
		c1.261,1.261,2.94,1.956,4.729,1.956c1.789,0,3.468-0.695,4.731-1.957c0.296-0.295,0.688-0.458,1.105-0.458h2.575
		c0.855,0,1.717,0.081,2.56,0.24c5.578,1.051,10.007,5.512,11.02,11.102l0.854,4.719c0.083,0.458-0.041,0.923-0.338,1.28
		c-0.297,0.357-0.734,0.561-1.199,0.561H131.535z M144.433,107.96c-0.665,0-1.332,0.062-1.982,0.186
		c-4.314,0.812-7.74,4.263-8.523,8.588l-0.521,2.878h38.873l-0.521-2.878c-0.783-4.325-4.209-7.776-8.524-8.589
		c-0.65-0.123-1.317-0.185-1.982-0.185h-1.938l-0.413,0.325c-1.736,1.369-3.831,2.092-6.06,2.092c-2.228,0-4.323-0.723-6.059-2.092
		l-0.413-0.325H144.433z"/>
	<path style="fill:#B3B3B3;" d="M131.535,122.736v-0.125c-0.427,0-0.83-0.188-1.105-0.517c-0.217-0.261-0.333-0.585-0.333-0.919
		l0.023-0.258l0.855-4.719c1.003-5.538,5.394-9.961,10.921-11.001c0.835-0.158,1.689-0.237,2.537-0.237h2.574
		c0.384,0,0.744,0.149,1.018,0.422c1.283,1.284,2.996,1.993,4.817,1.993c1.821,0,3.534-0.708,4.819-1.994
		c0.273-0.272,0.632-0.421,1.016-0.421h2.575c0.848,0,1.701,0.08,2.537,0.237c5.526,1.04,9.917,5.463,10.921,11.001l0.854,4.719
		l0.023,0.258c0,0.334-0.116,0.658-0.334,0.92c-0.274,0.329-0.675,0.516-1.103,0.516h-42.615V122.736v0.125h42.615
		c0.501,0,0.974-0.221,1.295-0.606c0.255-0.306,0.392-0.688,0.392-1.08c0-0.1-0.009-0.202-0.027-0.302l-0.854-4.719
		c-1.024-5.641-5.491-10.141-11.12-11.202c-0.851-0.16-1.72-0.242-2.584-0.242h-2.575c-0.45,0-0.874,0.176-1.193,0.494
		c-1.239,1.239-2.886,1.92-4.642,1.921c-1.756,0-3.403-0.682-4.641-1.92c-0.319-0.319-0.745-0.495-1.195-0.495h-2.574
		c-0.864,0-1.733,0.081-2.584,0.242c-5.63,1.061-10.097,5.561-11.12,11.202l-0.855,4.719c-0.018,0.101-0.027,0.202-0.027,0.302
		c0,0.392,0.137,0.773,0.391,1.079c0.322,0.385,0.796,0.607,1.297,0.607V122.736z M144.433,107.96v-0.125
		c-0.673,0-1.347,0.063-2.006,0.188c-4.366,0.822-7.83,4.312-8.622,8.688l-0.548,3.025h39.172l-0.548-3.025
		c-0.793-4.376-4.257-7.866-8.623-8.689c-0.658-0.124-1.332-0.187-2.005-0.187h-1.981l-0.447,0.352
		c-1.715,1.351-3.781,2.065-5.982,2.065c-2.201,0-4.267-0.714-5.982-2.065l-0.413-0.325l-0.034-0.027h-1.981V107.96v0.125h1.895
		l0.379,0.298c1.758,1.386,3.882,2.119,6.137,2.119c2.256,0,4.38-0.733,6.137-2.119l0.379-0.298h1.895
		c0.657,0,1.316,0.061,1.958,0.183c4.263,0.802,7.651,4.215,8.424,8.488l0.495,2.73h-38.573l0.495-2.73
		c0.773-4.273,4.16-7.686,8.423-8.487c0.643-0.122,1.302-0.183,1.959-0.183V107.96z"/>
	<path style="fill:#B3B3B3;" d="M52.053,66.867c-0.326,0-0.64-0.101-0.908-0.293c-0.339-0.243-0.563-0.603-0.631-1.015
		c-0.068-0.412,0.029-0.826,0.271-1.165c7.341-10.252,17.931-18.113,29.819-22.135c0.163-0.055,0.332-0.083,0.501-0.083
		c0.671,0,1.265,0.427,1.48,1.062c0.134,0.396,0.106,0.819-0.079,1.193c-0.185,0.375-0.505,0.654-0.901,0.788
		c-11.273,3.814-21.316,11.27-28.279,20.995C53.034,66.623,52.557,66.867,52.053,66.867z"/>
	<path style="fill:#B3B3B3;" d="M52.053,66.867v-0.125c-0.3,0-0.588-0.093-0.835-0.269c-0.312-0.224-0.517-0.554-0.581-0.934
		l-0.02-0.237c0-0.298,0.092-0.587,0.269-0.835c7.325-10.231,17.894-18.076,29.757-22.09l0,0c0.151-0.051,0.306-0.076,0.461-0.076
		c0.617,0,1.164,0.392,1.362,0.978c0.051,0.152,0.077,0.308,0.077,0.463c0,0.218-0.05,0.434-0.149,0.635
		c-0.171,0.346-0.464,0.602-0.829,0.725c-11.299,3.822-21.362,11.294-28.34,21.04c-0.269,0.377-0.708,0.601-1.172,0.601V66.867
		v0.125c0.545,0,1.058-0.263,1.375-0.706c6.947-9.703,16.969-17.144,28.217-20.949c0.426-0.144,0.773-0.447,0.973-0.851
		c0.116-0.235,0.175-0.489,0.175-0.745c0-0.182-0.03-0.365-0.09-0.543c-0.232-0.686-0.874-1.147-1.599-1.147
		c-0.182,0-0.365,0.03-0.54,0.089l0,0C68.65,46.171,58.04,54.047,50.684,64.321c-0.207,0.289-0.316,0.631-0.316,0.98
		c0,0.092,0.008,0.185,0.023,0.278c0.074,0.444,0.317,0.835,0.682,1.096c0.288,0.206,0.629,0.316,0.981,0.316V66.867z"/>
	<path style="fill:#B3B3B3;" d="M148.042,66.867c-0.504,0-0.98-0.244-1.272-0.654c-4.903-6.846-11.371-12.634-18.706-16.739
		c-0.752-0.421-1.021-1.375-0.601-2.127c0.277-0.493,0.799-0.8,1.366-0.8c0.268,0,0.523,0.067,0.76,0.2
		c7.734,4.327,14.553,10.429,19.721,17.647c0.243,0.339,0.339,0.753,0.271,1.165c-0.069,0.412-0.293,0.773-0.632,1.016
		C148.681,66.765,148.367,66.867,148.042,66.867z"/>
	<path style="fill:#B3B3B3;" d="M148.042,66.867v-0.125c-0.464,0-0.902-0.225-1.171-0.601c-4.914-6.861-11.395-12.662-18.747-16.775
		c-0.47-0.263-0.735-0.753-0.735-1.258c0-0.237,0.059-0.477,0.182-0.699c0.254-0.454,0.735-0.736,1.257-0.736
		c0.247,0,0.48,0.061,0.699,0.184c7.718,4.318,14.523,10.408,19.68,17.61c0.177,0.247,0.269,0.536,0.269,0.834l-0.02,0.238
		c-0.064,0.38-0.269,0.71-0.582,0.935c-0.247,0.177-0.534,0.269-0.834,0.269V66.867v0.125c0.351,0,0.691-0.11,0.979-0.316
		c0.366-0.262,0.609-0.653,0.683-1.097c0.015-0.093,0.023-0.186,0.023-0.279c0-0.349-0.109-0.69-0.316-0.979
		c-5.178-7.233-12.011-13.347-19.761-17.683c-0.254-0.142-0.532-0.216-0.821-0.216c-0.612,0-1.177,0.331-1.475,0.864
		c-0.145,0.26-0.214,0.543-0.214,0.821c0,0.592,0.311,1.167,0.863,1.476c7.319,4.095,13.774,9.872,18.666,16.702
		c0.316,0.443,0.829,0.706,1.374,0.706V66.867z"/>
	<path style="fill:#B3B3B3;" d="M120.497,45.835c-0.183,0-0.365-0.033-0.538-0.097c-0.487-0.18-0.98-0.354-1.471-0.52
		c-0.815-0.277-1.254-1.165-0.978-1.982c0.215-0.635,0.81-1.062,1.479-1.062c0.169,0,0.337,0.028,0.501,0.084
		c0.518,0.175,1.039,0.359,1.549,0.547c0.392,0.145,0.704,0.433,0.878,0.812c0.174,0.379,0.191,0.804,0.047,1.196
		C121.738,45.424,121.149,45.835,120.497,45.835z"/>
	<path style="fill:#B3B3B3;" d="M120.497,45.835V45.71c-0.169,0-0.335-0.03-0.495-0.089c-0.488-0.18-0.983-0.355-1.475-0.521
		c-0.597-0.202-0.976-0.764-0.976-1.364c0-0.152,0.024-0.307,0.076-0.459c0.198-0.584,0.745-0.978,1.361-0.978
		c0.155,0,0.31,0.026,0.46,0.077c0.517,0.175,1.037,0.359,1.546,0.546c0.361,0.134,0.647,0.398,0.808,0.747
		c0.088,0.192,0.132,0.396,0.132,0.601c0,0.168-0.03,0.336-0.09,0.499c-0.207,0.562-0.75,0.941-1.349,0.941V45.835v0.125
		c0.704,0,1.339-0.443,1.583-1.104c0.07-0.19,0.105-0.388,0.105-0.586c0-0.241-0.052-0.481-0.155-0.705
		c-0.188-0.408-0.526-0.721-0.949-0.877c-0.511-0.188-1.033-0.373-1.552-0.548c-0.176-0.06-0.358-0.09-0.541-0.09
		c-0.724,0-1.366,0.462-1.598,1.147c-0.06,0.178-0.089,0.361-0.089,0.539c0,0.704,0.443,1.362,1.145,1.601
		c0.49,0.165,0.983,0.339,1.468,0.519c0.187,0.069,0.383,0.105,0.582,0.105V45.835z"/>
	<path style="fill:#B3B3B3;" d="M81.105,154.617c-0.169,0-0.339-0.028-0.503-0.084c-11.887-4.022-22.477-11.883-29.818-22.135
		c-0.501-0.701-0.339-1.679,0.362-2.181c0.266-0.191,0.58-0.292,0.906-0.292c0.504,0,0.98,0.245,1.273,0.654
		c6.963,9.724,17.006,17.181,28.28,20.995c0.816,0.276,1.255,1.165,0.979,1.981C82.371,154.19,81.775,154.617,81.105,154.617z"/>
	<path style="fill:#B3B3B3;" d="M81.105,154.617v-0.125c-0.155,0-0.311-0.026-0.463-0.077
		c-11.861-4.013-22.431-11.859-29.756-22.089c-0.181-0.253-0.268-0.545-0.268-0.835c0-0.449,0.209-0.891,0.601-1.172
		c0.246-0.176,0.533-0.269,0.834-0.269c0.464,0,0.903,0.225,1.172,0.601c6.979,9.746,17.042,17.218,28.342,21.04
		c0.598,0.202,0.976,0.763,0.976,1.363c0,0.152-0.024,0.307-0.076,0.459c-0.198,0.584-0.746,0.977-1.362,0.977V154.617v0.125
		c0.724,0,1.366-0.462,1.599-1.147c0.06-0.179,0.089-0.361,0.089-0.539c0-0.704-0.444-1.362-1.146-1.6
		c-11.249-3.805-21.271-11.246-28.219-20.949c-0.317-0.442-0.83-0.706-1.375-0.706c-0.353,0-0.692,0.11-0.979,0.315
		c-0.46,0.329-0.705,0.849-0.705,1.375c0,0.34,0.102,0.684,0.315,0.98c7.356,10.273,17.967,18.149,29.879,22.18
		c0.177,0.06,0.36,0.09,0.543,0.09V154.617z"/>
	<path style="fill:#B3B3B3;" d="M118.99,154.617c-0.671,0-1.265-0.427-1.48-1.062c-0.276-0.816,0.164-1.704,0.98-1.981
		c11.273-3.814,21.316-11.27,28.28-20.995c0.293-0.409,0.769-0.653,1.273-0.653c0.326,0,0.64,0.101,0.906,0.292
		c0.701,0.502,0.863,1.48,0.362,2.18c-7.447,10.401-17.759,18.056-29.819,22.135C119.327,154.589,119.159,154.617,118.99,154.617z"
		/>
	<path style="fill:#B3B3B3;" d="M118.99,154.617v-0.125c-0.617,0-1.164-0.393-1.362-0.978c-0.051-0.152-0.076-0.307-0.076-0.459
		c0-0.6,0.379-1.161,0.977-1.364c11.299-3.822,21.362-11.294,28.341-21.04c0.269-0.376,0.708-0.601,1.172-0.601
		c0.3,0,0.587,0.093,0.833,0.269c0.392,0.281,0.6,0.723,0.601,1.172c0,0.29-0.087,0.581-0.268,0.834
		c-7.432,10.38-17.722,18.018-29.757,22.09c-0.15,0.05-0.305,0.076-0.46,0.076V154.617v0.125c0.183,0,0.365-0.03,0.54-0.089
		c12.085-4.088,22.419-11.759,29.881-22.181c0.212-0.297,0.315-0.64,0.315-0.98c0-0.526-0.245-1.046-0.705-1.375
		c-0.287-0.206-0.627-0.316-0.979-0.315c-0.545,0-1.058,0.263-1.375,0.705c-6.948,9.703-16.97,17.144-28.218,20.949
		c-0.703,0.239-1.147,0.896-1.147,1.6c0,0.179,0.029,0.361,0.089,0.539c0.232,0.686,0.874,1.147,1.599,1.147V154.617z"/>
</g>
<g>
</g>
<g>
</g>
<g>
</g>
<g>
</g>
<g>
</g>
<g>
</g>
<g>
</g>
<g>
</g>
<g>
</g>
<g>
</g>
<g>
</g>
<g>
</g>
<g>
</g>
<g>
</g>
<g>
</g>
</svg>
