<?xml version="1.0" encoding="iso-8859-1"?>
<!-- Generator: Adobe Illustrator 18.0.0, SVG Export Plug-In . SVG Version: 6.00 Build 0)  -->
<!DOCTYPE svg PUBLIC "-//W3C//DTD SVG 1.1//EN" "http://www.w3.org/Graphics/SVG/1.1/DTD/svg11.dtd">
<svg version="1.1" id="Layer_1" xmlns="http://www.w3.org/2000/svg" xmlns:xlink="http://www.w3.org/1999/xlink" x="0px" y="0px"
	 viewBox="0 0 200 200" style="enable-background:new 0 0 200 200;" xml:space="preserve">
<rect x="234.125" y="71.041" style="fill:#F15A24;" width="3.773" height="3.773"/>
<g>
	<path style="fill:#B3B3B3;" d="M99.921,74.803c-2.694,0-5.382-0.695-7.773-2.009c-4.851-2.669-7.962-7.56-8.322-13.083
		l-1.52-23.309c-0.225-3.44,0.998-6.856,3.355-9.371c2.357-2.516,5.686-3.958,9.133-3.958h10.255c3.447,0,6.776,1.443,9.133,3.958
		c2.357,2.516,3.579,5.932,3.355,9.371l-1.52,23.309c-0.359,5.524-3.47,10.415-8.322,13.084
		C105.305,74.108,102.617,74.803,99.921,74.803z M102.794,38.313c-2.628,2.244-7.465,5.123-15.588,6.098l-1.611,0.193l0.973,14.927
		c0.299,4.583,2.881,8.641,6.905,10.854c1.979,1.089,4.208,1.664,6.448,1.664c2.24,0,4.47-0.575,6.449-1.663
		c4.024-2.214,6.605-6.272,6.905-10.855l1.139-17.474l-1.374-0.354c-2.667-0.687-4.645-1.359-5.877-1.996
		c-0.845-0.437-1.569-0.908-2.151-1.4L103.9,37.37L102.794,38.313z M94.794,25.822c-2.73,0-5.26,1.097-7.126,3.088
		c-1.866,1.99-2.796,4.588-2.619,7.313l0.368,5.649l1.807-0.23c11.334-1.448,15.33-6.759,16.015-7.809l0.103-0.159l2.944-7.852
		H94.794z M105.716,35.174l0.787,0.78c0.448,0.443,1.094,0.884,1.919,1.311c0.86,0.444,2.291,0.95,4.139,1.465l2.032,0.566
		l0.201-3.073c0.177-2.724-0.753-5.321-2.618-7.313c-0.405-0.432-0.854-0.831-1.335-1.187l-1.826-1.349L105.716,35.174z"/>
	<path style="fill:#B3B3B3;" d="M99.921,74.803v-0.375c-2.63,0-5.257-0.679-7.592-1.963c-4.74-2.608-7.776-7.382-8.128-12.779
		l-1.52-23.309v0c-0.017-0.261-0.026-0.522-0.026-0.783c0-3.067,1.173-6.06,3.28-8.308c2.285-2.439,5.517-3.84,8.859-3.84h10.255
		c3.342,0,6.574,1.4,8.859,3.84l0,0c2.106,2.248,3.28,5.242,3.28,8.308c0,0.26-0.008,0.521-0.025,0.783v0l-1.52,23.309
		c-0.352,5.397-3.388,10.171-8.128,12.779c-2.335,1.284-4.962,1.963-7.593,1.962V74.803v0.375c2.76,0,5.509-0.711,7.954-2.055
		c4.963-2.729,8.148-7.738,8.515-13.388l1.52-23.309v0c0.018-0.277,0.027-0.555,0.027-0.831c0-3.257-1.244-6.431-3.482-8.821l0,0
		c-2.429-2.592-5.855-4.076-9.407-4.077H94.794c-3.552,0-6.978,1.485-9.407,4.077c-2.238,2.39-3.482,5.563-3.482,8.821
		c0,0.277,0.009,0.554,0.027,0.832l0.008,0.125l1.512,23.184c0.367,5.65,3.553,10.659,8.515,13.388
		c2.446,1.345,5.195,2.055,7.954,2.055V74.803z M102.794,38.313l-0.244-0.285c-2.576,2.198-7.336,5.043-15.389,6.011l-1.963,0.235
		l0.996,15.281c0.307,4.71,2.963,8.885,7.098,11.158c2.034,1.119,4.325,1.71,6.629,1.71c2.304,0,4.595-0.591,6.63-1.71
		c4.135-2.274,6.791-6.45,7.098-11.159l1.159-17.784l-1.675-0.431l0,0c-2.653-0.683-4.614-1.353-5.799-1.966l0,0
		c-0.825-0.426-1.526-0.884-2.081-1.353l0,0l-1.354-1.143l-1.348,1.15l0,0L102.794,38.313l0.243,0.285l0.864-0.737l0.868,0.732l0,0
		c0.609,0.515,1.356,1,2.221,1.447l0,0c1.281,0.661,3.273,1.334,5.956,2.026l1.073,0.276L112.9,59.507
		c-0.292,4.457-2.798,8.397-6.711,10.551c-1.924,1.058-4.092,1.617-6.268,1.617c-2.175,0-4.344-0.559-6.267-1.618
		c-3.913-2.153-6.419-6.093-6.711-10.55l-0.95-14.572l1.258-0.151c8.192-0.982,13.107-3.895,15.787-6.185l0,0L102.794,38.313z
		 M94.794,25.822v-0.375c-2.83-0.001-5.466,1.141-7.4,3.207l0,0c-1.78,1.897-2.743,4.337-2.742,6.914
		c0,0.226,0.007,0.452,0.022,0.68l0.394,6.047l2.203-0.28l0,0c11.441-1.456,15.554-6.851,16.282-7.976l0.104-0.161l0.022-0.034
		l3.148-8.396H94.794V25.822v0.375h10.952l-2.74,7.307l-0.081,0.125l-0.003,0.004l0.004-0.005
		c-0.644,0.976-4.521,6.203-15.749,7.642l0,0l-1.412,0.18l-0.342-5.251c-0.014-0.211-0.021-0.421-0.021-0.631
		c0.001-2.391,0.887-4.638,2.539-6.401l0,0c1.797-1.917,4.223-2.969,6.852-2.97V25.822z M105.716,35.174l-0.264,0.266l0.787,0.78
		l0,0c0.488,0.482,1.163,0.939,2.01,1.377l0.011,0.006l-0.01-0.005c0.905,0.466,2.348,0.973,4.211,1.493l2.476,0.69l0.232-3.534l0,0
		c0.015-0.227,0.022-0.454,0.022-0.679c0.001-2.576-0.962-5.015-2.741-6.914l-0.026-0.027l0.025,0.027
		c-0.421-0.449-0.887-0.863-1.386-1.232l-2.225-1.644l-3.559,9.492l0.172,0.171L105.716,35.174l0.351,0.132l3.125-8.334l1.426,1.054
		l0,0c0.463,0.342,0.895,0.727,1.284,1.142l0,0c1.652,1.765,2.538,4.012,2.539,6.402c0,0.209-0.007,0.419-0.021,0.631l-0.171,2.612
		l-1.587-0.442l0,0c-1.834-0.51-3.253-1.015-4.068-1.437l0,0c-0.802-0.414-1.419-0.84-1.827-1.244l-0.787-0.78L105.716,35.174
		l0.351,0.132L105.716,35.174z"/>
	<path style="fill:#B3B3B3;" d="M57.59,111.879c-0.409,0-0.794-0.18-1.057-0.495c-0.26-0.313-0.368-0.722-0.295-1.123l1.698-9.376
		C59.82,90.48,68.063,82.176,78.445,80.22c1.567-0.296,3.171-0.445,4.769-0.445h6.719c0.363,0,0.705,0.14,0.963,0.394l9.015,8.853
		l8.814-8.843c0.26-0.261,0.605-0.404,0.973-0.404h6.93c1.597,0,3.201,0.15,4.767,0.445c10.384,1.956,18.627,10.26,20.512,20.665
		l1.699,9.374c0.073,0.402-0.036,0.813-0.298,1.127c-0.262,0.313-0.646,0.492-1.055,0.492H57.59z M77.279,83.303
		c-8.534,2.292-15.065,9.386-16.638,18.072l-1.406,7.755h81.372l-1.405-7.755c-1.573-8.686-8.104-15.78-16.638-18.072l-0.956-0.257
		l-20.714,20.716c-0.261,0.259-0.606,0.403-0.972,0.403c-0.367,0-0.712-0.143-0.972-0.403L78.234,83.047L77.279,83.303z
		 M99.922,100.846l18.323-18.323h-7.975l-9.374,9.405c-0.26,0.261-0.605,0.404-0.973,0.404c-0.363,0-0.705-0.14-0.963-0.394
		l-9.588-9.415h-7.772L99.922,100.846z"/>
	<path style="fill:#B3B3B3;" d="M57.59,111.879v-0.375c-0.298,0-0.576-0.13-0.769-0.361l0.001,0.001
		c-0.151-0.181-0.231-0.406-0.231-0.637l0.016-0.179l1.698-9.377c1.856-10.249,9.983-18.438,20.21-20.363
		c1.544-0.291,3.125-0.439,4.699-0.439h6.719c0.266,0.001,0.51,0.101,0.7,0.286l9.28,9.114l9.077-9.106l0,0
		c0.191-0.191,0.437-0.293,0.707-0.294h6.93c1.573,0,3.154,0.148,4.697,0.439c10.229,1.925,18.356,10.113,20.212,20.363l1.699,9.374
		l0,0l0.016,0.179c0,0.233-0.081,0.458-0.233,0.641l0,0c-0.191,0.228-0.469,0.358-0.767,0.358H57.59V111.879v0.375h84.664
		c0.519,0,1.01-0.229,1.342-0.627l0,0c0.265-0.317,0.407-0.715,0.407-1.121c0-0.104-0.009-0.208-0.028-0.312l0,0l-1.699-9.374
		c-1.914-10.56-10.272-18.981-20.811-20.967c-1.589-0.3-3.216-0.452-4.836-0.452h-6.93c-0.466-0.001-0.911,0.184-1.239,0.515
		l-8.551,8.579l-8.749-8.592c-0.327-0.322-0.767-0.502-1.226-0.501h-6.719c-1.621,0-3.248,0.152-4.838,0.452
		c-10.538,1.987-18.895,10.407-20.809,20.967l-1.698,9.376l0-0.001c-0.019,0.105-0.028,0.21-0.028,0.314
		c0,0.405,0.141,0.801,0.405,1.117l0.001,0.001c0.333,0.399,0.825,0.629,1.345,0.629V111.879z M77.279,83.303l-0.097-0.362
		c-8.675,2.331-15.309,9.537-16.909,18.367l-1.486,8.197h82.27l-1.485-8.197c-1.6-8.831-8.234-16.036-16.91-18.367l-0.956-0.257
		l-0.209-0.056l-20.874,20.875l0.007-0.007c-0.192,0.191-0.44,0.293-0.708,0.293c-0.269-0.001-0.515-0.103-0.707-0.294
		L78.346,82.628l-1.164,0.313L77.279,83.303l0.097,0.362l0.746-0.2l20.562,20.562c0.329,0.329,0.773,0.514,1.237,0.513
		c0.464,0.001,0.908-0.184,1.237-0.512l20.562-20.563l0.747,0.2c8.393,2.253,14.821,9.235,16.366,17.776l1.325,7.313H59.684
		l1.326-7.313c1.546-8.542,7.973-15.523,16.366-17.777L77.279,83.303z M99.922,100.846l0.265,0.265l18.963-18.963h-9.036
		l-9.484,9.515c-0.191,0.191-0.437,0.293-0.708,0.294c-0.266-0.001-0.511-0.101-0.701-0.286l-9.697-9.523h-8.831l19.228,19.228
		l0.265-0.265L99.922,100.846l0.265-0.265L82.504,82.898h6.713l9.478,9.308c0.327,0.322,0.767,0.502,1.226,0.501
		c0.466,0.001,0.911-0.184,1.239-0.515l9.264-9.295l6.914,0l-17.683,17.683L99.922,100.846l0.265-0.265L99.922,100.846z"/>
	<path style="fill:#B3B3B3;" d="M110.589,131.644c-0.758,0-1.375-0.617-1.375-1.375c0-0.758,0.617-1.374,1.375-1.374h1.882
		c0.758,0,1.375,0.617,1.375,1.374c0,0.758-0.617,1.375-1.375,1.375H110.589z"/>
	<path style="fill:#B3B3B3;" d="M110.589,131.644v-0.375c-0.55-0.001-0.999-0.45-1-1c0.001-0.55,0.449-0.998,1-0.999h1.882
		c0.55,0.001,0.999,0.45,1,0.999c-0.001,0.55-0.45,0.999-1,1h-1.882V131.644v0.375h1.882c0.966-0.001,1.749-0.784,1.75-1.75
		c-0.001-0.966-0.784-1.749-1.75-1.749h-1.882c-0.966,0.001-1.749,0.784-1.75,1.749c0.001,0.966,0.784,1.749,1.75,1.75V131.644z"/>
	<path style="fill:#B3B3B3;" d="M99.921,174.625c-5.428,0-9.845-4.417-9.845-9.845c0-4.405,2.967-8.306,7.216-9.485l1.254-0.348
		v-23.303H50.901c-5.34,0-9.684,4.344-9.684,9.684v13.618l1.255,0.348c4.249,1.179,7.216,5.08,7.216,9.486
		c0,5.429-4.417,9.845-9.845,9.845c-2.626,0-5.097-1.025-6.958-2.888c-1.862-1.862-2.887-4.333-2.887-6.958
		c0-4.405,2.967-8.306,7.216-9.485l1.255-0.348v-13.618c0-6.856,5.578-12.434,12.433-12.434h47.646v-6.469
		c0-0.758,0.617-1.374,1.374-1.374c0.758,0,1.375,0.617,1.375,1.374v32.52l1.255,0.348c4.248,1.18,7.215,5.081,7.215,9.486
		C109.766,170.208,105.35,174.625,99.921,174.625z M99.921,157.683c-3.913,0-7.096,3.183-7.096,7.096
		c0,3.913,3.183,7.097,7.096,7.097c3.913,0,7.097-3.184,7.097-7.097C107.018,160.867,103.834,157.683,99.921,157.683z
		 M39.842,157.683c-3.913,0-7.096,3.183-7.096,7.096c0,3.913,3.183,7.097,7.096,7.097c3.913,0,7.096-3.184,7.096-7.097
		C46.938,160.867,43.755,157.683,39.842,157.683z"/>
	<path style="fill:#B3B3B3;" d="M99.921,174.625v-0.375c-2.611,0-4.977-1.061-6.693-2.777c-1.716-1.716-2.777-4.082-2.777-6.693
		c-0.001-4.235,2.856-7.991,6.942-9.124l1.529-0.424v-23.963H50.901c-5.548,0.001-10.059,4.511-10.059,10.059v13.903l1.529,0.424
		c4.085,1.133,6.942,4.889,6.941,9.125c0,2.612-1.061,4.977-2.777,6.693c-1.716,1.716-4.082,2.777-6.693,2.777
		c-2.528-0.001-4.9-0.985-6.693-2.778c-1.792-1.793-2.777-4.166-2.777-6.693c-0.001-4.235,2.856-7.991,6.941-9.124l1.529-0.424
		v-13.903c0-3.325,1.352-6.338,3.536-8.523c2.185-2.184,5.197-3.536,8.522-3.536h48.021v-6.844c0.001-0.55,0.449-0.998,0.999-0.999
		c0.551,0.001,0.999,0.45,1,0.999v32.805l1.529,0.424c4.085,1.134,6.942,4.889,6.941,9.125c0,2.612-1.061,4.977-2.777,6.693
		c-1.716,1.716-4.082,2.777-6.693,2.777V174.625V175c5.636-0.001,10.219-4.584,10.22-10.22c-0.001-4.575-3.079-8.621-7.49-9.847
		l-0.98-0.272v-32.235c-0.001-0.966-0.784-1.749-1.75-1.749c-0.966,0.001-1.749,0.784-1.749,1.749v6.094H50.901
		c-7.064,0.001-12.808,5.745-12.808,12.809v13.332l-0.98,0.272c-4.412,1.226-7.49,5.271-7.49,9.847
		c-0.001,2.723,1.066,5.293,2.997,7.223c1.93,1.931,4.5,2.998,7.223,2.997c5.636-0.001,10.219-4.584,10.22-10.22
		c-0.001-4.576-3.079-8.622-7.491-9.847l-0.98-0.272l0-13.332c0-2.567,1.043-4.892,2.73-6.579c1.687-1.686,4.012-2.73,6.579-2.73
		h47.271v22.642l-0.98,0.272c-4.412,1.226-7.49,5.271-7.491,9.847c0.001,5.636,4.584,10.219,10.22,10.22V174.625z M99.921,157.683
		v-0.375c-4.12,0.001-7.47,3.351-7.471,7.471c0.001,4.121,3.35,7.471,7.471,7.472c4.121-0.001,7.471-3.351,7.472-7.472
		c-0.001-4.121-3.351-7.471-7.472-7.471V157.683v0.375c1.854,0,3.532,0.753,4.751,1.971c1.218,1.218,1.971,2.897,1.971,4.75
		c0,1.854-0.753,3.532-1.971,4.751c-1.219,1.218-2.897,1.971-4.751,1.971c-1.854,0-3.532-0.753-4.75-1.971
		c-1.218-1.219-1.971-2.897-1.971-4.751c0-1.854,0.753-3.532,1.971-4.75c1.218-1.218,2.896-1.971,4.75-1.971V157.683z
		 M39.842,157.683v-0.375c-4.12,0.001-7.47,3.351-7.471,7.471c0.001,4.121,3.35,7.471,7.471,7.472
		c4.121-0.001,7.471-3.351,7.471-7.472c-0.001-4.121-3.351-7.471-7.471-7.471V157.683v0.375c1.854,0,3.532,0.753,4.75,1.971
		c1.218,1.218,1.971,2.897,1.971,4.75c0,1.854-0.753,3.532-1.971,4.751c-1.218,1.218-2.897,1.971-4.75,1.971
		c-1.854,0-3.532-0.753-4.75-1.971c-1.218-1.219-1.971-2.897-1.971-4.751c0-1.854,0.753-3.532,1.971-4.75
		c1.218-1.218,2.896-1.971,4.75-1.971V157.683z"/>
	<path style="fill:#B3B3B3;" d="M160.158,174.624c-5.429,0-9.845-4.417-9.845-9.845c0-4.34,2.913-8.225,7.083-9.447l1.231-0.36
		v-13.643c0-5.34-4.344-9.684-9.684-9.684h-25.491c-0.758,0-1.374-0.617-1.374-1.375c0-0.758,0.617-1.374,1.374-1.374h25.491
		c6.856,0,12.433,5.578,12.433,12.434v13.592l1.278,0.335c4.327,1.136,7.349,5.052,7.349,9.523
		C170.003,170.208,165.586,174.624,160.158,174.624z M160.158,157.683c-3.913,0-7.096,3.183-7.096,7.096
		c0,3.913,3.183,7.097,7.096,7.097c3.913,0,7.096-3.184,7.096-7.097C167.254,160.867,164.071,157.683,160.158,157.683z"/>
	<path style="fill:#B3B3B3;" d="M160.158,174.624v-0.375c-2.612,0-4.977-1.061-6.693-2.777c-1.716-1.716-2.777-4.082-2.777-6.693
		c-0.001-4.171,2.804-7.914,6.813-9.087l1.501-0.439v-13.924c-0.001-5.548-4.511-10.059-10.059-10.059h-25.491
		c-0.55-0.001-0.998-0.449-0.999-1c0.001-0.55,0.449-0.998,0.999-0.999h25.491c3.325,0,6.338,1.352,8.522,3.536
		c2.184,2.185,3.536,5.197,3.536,8.523v13.881l1.558,0.409c4.162,1.092,7.07,4.86,7.069,9.161c0,2.612-1.061,4.977-2.777,6.693
		c-1.716,1.716-4.082,2.777-6.693,2.777V174.624v0.375c5.636-0.001,10.219-4.584,10.22-10.22c0-4.642-3.137-8.707-7.629-9.886
		l-0.998-0.262v-13.303c-0.001-7.064-5.745-12.808-12.808-12.809h-25.491c-0.966,0.001-1.749,0.784-1.749,1.749
		c0.001,0.966,0.784,1.749,1.749,1.75h25.491c2.567,0,4.892,1.043,6.579,2.73c1.686,1.687,2.73,4.012,2.73,6.579v13.362
		l-0.961,0.282c-4.332,1.271-7.351,5.298-7.353,9.807c0.001,5.636,4.584,10.219,10.22,10.22V174.624z M160.158,157.683v-0.375
		c-4.121,0.001-7.471,3.351-7.471,7.471c0.001,4.121,3.351,7.471,7.471,7.472c4.121-0.001,7.471-3.351,7.471-7.472
		c-0.001-4.121-3.351-7.471-7.471-7.471V157.683v0.375c1.854,0,3.532,0.753,4.75,1.971c1.218,1.218,1.971,2.897,1.971,4.75
		c0,1.854-0.753,3.532-1.971,4.751c-1.218,1.218-2.897,1.971-4.75,1.971c-1.854,0-3.532-0.753-4.75-1.971
		c-1.218-1.219-1.971-2.897-1.971-4.751c0-1.854,0.753-3.532,1.971-4.75c1.218-1.218,2.897-1.971,4.751-1.971V157.683z"/>
</g>
<g>
</g>
<g>
</g>
<g>
</g>
<g>
</g>
<g>
</g>
<g>
</g>
<g>
</g>
<g>
</g>
<g>
</g>
<g>
</g>
<g>
</g>
<g>
</g>
<g>
</g>
<g>
</g>
<g>
</g>
</svg>
