<?xml version="1.0" encoding="iso-8859-1"?>
<!-- Generator: Adobe Illustrator 18.0.0, SVG Export Plug-In . SVG Version: 6.00 Build 0)  -->
<!DOCTYPE svg PUBLIC "-//W3C//DTD SVG 1.1//EN" "http://www.w3.org/Graphics/SVG/1.1/DTD/svg11.dtd">
<svg version="1.1" id="Layer_1" xmlns="http://www.w3.org/2000/svg" xmlns:xlink="http://www.w3.org/1999/xlink" x="0px" y="0px"
	 viewBox="0 0 200 200" style="enable-background:new 0 0 200 200;" xml:space="preserve">
<rect x="234.125" y="71.041" style="fill:#F15A24;" width="3.773" height="3.773"/>
<g>
	<path style="fill:#B3B3B3;" d="M139.381,174.718c-0.779,0-1.412-0.634-1.412-1.412v-52.559c0-0.778,0.633-1.412,1.412-1.412h2.484
		v-6.071l-0.409-0.343c-2.782-2.332-9.3-8.544-9.744-15.855c-0.33-5.456-0.673-11.097,2.458-13.718
		c1.147-0.961,2.598-1.427,4.438-1.427c0.419,0,0.863,0.025,1.322,0.074l1.265,0.136v-7.963c0-3.198,2.601-5.799,5.799-5.799h0.266
		c1.953,0,3.765,0.977,4.846,2.614l0.527,0.799l0.88-0.38c0.728-0.314,1.502-0.473,2.302-0.473h0.267
		c1.712,0,3.327,0.754,4.435,2.068l0.594,0.705l0.814-0.43c0.836-0.442,1.782-0.675,2.734-0.675h0.266
		c1.774,0,3.428,0.8,4.539,2.195l0.601,0.755l0.845-0.466c0.852-0.469,1.818-0.717,2.792-0.717h0.266c3.198,0,5.799,2.601,5.799,5.8
		v11.891c0.106,1.329,0.833,12.328-5.122,18.355l-0.33,0.334v8.594h2.732c0.779,0,1.412,0.634,1.412,1.412v52.557
		c0,0.778-0.633,1.412-1.412,1.412H139.381z M140.794,171.895h34.841v-36.59h-34.841V171.895z M140.794,132.482h34.841V122.16
		h-34.841V132.482z M138.626,84.749c-1.146,0-2.034,0.257-2.64,0.765c-1.895,1.586-1.798,5.718-1.453,11.381
		c0.459,7.583,9.209,14.258,9.582,14.539c0.362,0.27,0.575,0.694,0.575,1.139v6.765h26.799v-9.235c0-0.417,0.182-0.811,0.499-1.08
		c6.012-5.088,4.972-16.607,4.961-16.722l-0.004-0.136V80.165c0-1.641-1.335-2.975-2.975-2.975H173.7
		c-1.64,0-2.975,1.335-2.975,2.975v5.124c0,0.778-0.633,1.412-1.411,1.412c-0.779,0-1.412-0.634-1.412-1.412v-6.891
		c0-1.641-1.335-2.975-2.975-2.975h-0.267c-1.128,0-2.145,0.624-2.654,1.628l-0.123,0.243v6.741c0,0.779-0.633,1.412-1.412,1.412
		s-1.413-0.634-1.413-1.412v-7.306c0-1.641-1.334-2.975-2.974-2.975h-0.266c-1.1,0-2.103,0.602-2.619,1.57l-0.134,0.252v8.459
		c0,0.779-0.634,1.412-1.413,1.412s-1.412-0.634-1.412-1.412v-9.867c0-1.641-1.335-2.975-2.975-2.975h-0.266
		c-1.64,0-2.975,1.335-2.975,2.975v15.318c0,0.779-0.633,1.413-1.412,1.413c-0.778,0-1.411-0.634-1.411-1.413v-4.449l-0.967-0.151
		C139.652,84.795,139.111,84.749,138.626,84.749z"/>
	<path style="fill:#B3B3B3;" d="M139.381,174.718v-0.385c-0.566-0.001-1.027-0.462-1.028-1.027v-52.559
		c0.001-0.565,0.462-1.026,1.028-1.027h2.869v-6.635l-0.546-0.458c-1.376-1.153-3.681-3.271-5.686-5.994
		c-2.008-2.723-3.707-6.044-3.92-9.59c-0.103-1.699-0.206-3.409-0.206-5.031c0-1.793,0.127-3.478,0.511-4.915
		c0.384-1.438,1.016-2.617,2.017-3.455c1.07-0.894,2.413-1.335,4.191-1.337c0.404,0,0.835,0.024,1.281,0.072l1.691,0.181v-8.391
		c0-1.493,0.607-2.845,1.588-3.827c0.982-0.981,2.333-1.588,3.827-1.588h0.266c1.824,0,3.514,0.911,4.525,2.441l0,0l0.527,0.799
		l0.177,0.269l1.176-0.507c0.68-0.294,1.4-0.442,2.15-0.442h0.267c1.598,0,3.105,0.703,4.141,1.931l0.594,0.705l0.2,0.237
		l1.088-0.575c0.78-0.412,1.665-0.631,2.554-0.631h0.266c1.658,0.001,3.198,0.745,4.238,2.05l0.02,0.025l0.581,0.73l0.202,0.254
		l1.13-0.622c0.794-0.438,1.697-0.67,2.607-0.67h0.266c1.493,0,2.845,0.606,3.827,1.588c0.981,0.982,1.588,2.333,1.588,3.827v11.906
		l0.001,0.015c0.024,0.302,0.082,1.123,0.082,2.28c0.008,3.826-0.652,11.298-5.094,15.774l-0.33,0.334l-0.111,0.112v9.137h3.117
		c0.566,0.001,1.027,0.462,1.028,1.028v52.557c-0.001,0.565-0.461,1.026-1.028,1.027h-37.665V174.718v0.385h37.665
		c0.992-0.001,1.796-0.805,1.797-1.796v-52.557c-0.001-0.992-0.805-1.796-1.797-1.797h-2.347V110.9l0.219-0.222
		c4.699-4.776,5.309-12.413,5.316-16.314c0-1.183-0.059-2.025-0.084-2.342l-0.383,0.031h0.385V80.162
		c-0.001-3.411-2.773-6.184-6.184-6.184h-0.266c-1.04,0-2.069,0.264-2.978,0.765l-0.561,0.309l-0.398-0.501l0,0
		c-1.182-1.485-2.949-2.341-4.839-2.34h-0.266c-1.015,0-2.021,0.248-2.914,0.72l-0.54,0.285l-0.394-0.468
		c-1.18-1.4-2.904-2.205-4.729-2.205h-0.267c-0.851,0-1.679,0.17-2.455,0.505l-0.584,0.252l-0.349-0.53l0,0
		c-1.151-1.744-3.085-2.787-5.167-2.786h-0.266c-3.411,0.001-6.183,2.773-6.184,6.184v7.535l-0.839-0.09
		c-0.472-0.05-0.929-0.076-1.363-0.076c-1.902-0.002-3.462,0.489-4.685,1.517c-1.156,0.967-1.857,2.309-2.266,3.846
		c-0.41,1.539-0.537,3.284-0.537,5.113c0,1.654,0.105,3.378,0.208,5.077c0.23,3.765,2.011,7.206,4.069,10
		c2.06,2.794,4.405,4.948,5.812,6.127l0.271,0.227v5.507h-2.1c-0.992,0.001-1.796,0.805-1.797,1.796v52.559
		c0.001,0.991,0.805,1.796,1.797,1.796V174.718z M140.794,171.895v0.385h35.226v-37.359h-35.61v37.359h0.385V171.895h0.385V135.69
		h34.072v35.821h-34.456V171.895h0.385H140.794z M140.794,132.482v0.385h35.226v-11.091h-35.61v11.091h0.385V132.482h0.385v-9.937
		h34.072v9.552h-34.456V132.482h0.385H140.794z M138.626,84.749v-0.385c-1.2,0-2.184,0.268-2.888,0.855
		c-0.729,0.612-1.169,1.523-1.432,2.645c-0.263,1.125-0.355,2.477-0.356,4.032c0,1.496,0.086,3.18,0.199,5.022
		c0.244,3.935,2.6,7.551,4.916,10.236c2.32,2.684,4.618,4.435,4.818,4.587l0.001,0.001c0.265,0.197,0.421,0.509,0.42,0.83v7.149
		h27.568v-9.62c0-0.305,0.132-0.59,0.363-0.786l0,0c2.312-1.96,3.595-4.799,4.31-7.583c0.714-2.786,0.861-5.531,0.862-7.343
		c0-1.274-0.073-2.085-0.077-2.126l-0.383,0.036l0.384-0.013l-0.004-0.13V80.165c-0.001-1.854-1.507-3.359-3.36-3.36H173.7
		c-1.853,0.001-3.359,1.506-3.36,3.36v5.124c-0.001,0.565-0.462,1.026-1.027,1.027c-0.566-0.001-1.027-0.462-1.028-1.027v-6.891
		c-0.001-1.854-1.507-3.359-3.36-3.36h-0.267c-1.27-0.001-2.424,0.706-2.997,1.839l0,0.001l-0.123,0.243l-0.041,0.082v6.833
		c-0.001,0.566-0.462,1.027-1.028,1.028c-0.566-0.001-1.028-0.462-1.029-1.028v-7.306c-0.001-1.854-1.506-3.359-3.359-3.36h-0.266
		c-1.241,0-2.377,0.68-2.959,1.774l-0.134,0.252l-0.045,0.085v8.555c-0.001,0.565-0.462,1.027-1.029,1.028
		c-0.566-0.001-1.027-0.462-1.028-1.028v-9.867c-0.001-1.854-1.507-3.359-3.36-3.36h-0.266c-1.853,0.001-3.359,1.506-3.36,3.36
		v15.318c-0.001,0.567-0.462,1.028-1.028,1.029c-0.565-0.001-1.026-0.462-1.027-1.029v-4.778l-1.292-0.201
		c-0.595-0.094-1.154-0.141-1.664-0.141V84.749v0.385c0.462,0,0.983,0.044,1.545,0.132l0.642,0.1v4.119
		c0.001,0.992,0.804,1.797,1.796,1.798c0.993-0.001,1.796-0.806,1.797-1.798V74.168c0.003-1.427,1.164-2.588,2.591-2.591h0.266
		c1.427,0.003,2.588,1.163,2.591,2.591v9.867c0.001,0.992,0.805,1.796,1.797,1.797c0.992-0.001,1.797-0.805,1.798-1.797v-8.363
		l0.089-0.167c0.449-0.843,1.321-1.366,2.28-1.366h0.266c1.427,0.003,2.587,1.163,2.59,2.591v7.306
		c0.001,0.992,0.806,1.796,1.798,1.797c0.992-0.001,1.796-0.805,1.797-1.797v-6.65l0.082-0.162l0,0.001
		c0.445-0.876,1.326-1.416,2.311-1.417h0.267c1.427,0.003,2.588,1.163,2.591,2.591v6.891c0.001,0.991,0.805,1.796,1.797,1.796
		c0.992-0.001,1.795-0.805,1.796-1.796v-5.124c0.003-1.427,1.164-2.588,2.591-2.591h0.268c1.427,0.003,2.588,1.163,2.591,2.591
		v12.008l0.005,0.141l0,0.012l0.001,0.011c0.002,0.019,0.074,0.81,0.074,2.054c0,1.77-0.146,4.459-0.838,7.152
		c-0.691,2.695-1.926,5.382-4.062,7.187l0,0c-0.403,0.342-0.635,0.844-0.635,1.373v8.85h-26.03v-6.38
		c0-0.568-0.271-1.105-0.73-1.447l0.002,0.001c-0.173-0.129-2.436-1.856-4.699-4.475c-2.267-2.619-4.515-6.131-4.73-9.78
		c-0.112-1.837-0.197-3.509-0.197-4.976c0-1.524,0.093-2.828,0.335-3.856c0.242-1.032,0.627-1.771,1.177-2.231
		c0.509-0.429,1.302-0.676,2.394-0.676V84.749z"/>
	<path style="fill:#B3B3B3;" d="M82.907,174.719c-0.779,0-1.412-0.634-1.412-1.412V77.57c0-0.778,0.633-1.412,1.412-1.412h3.271
		l-0.01-13.149l-0.234-0.306c-1.747-2.292-7.348-10.359-6.023-17.951c0.429-2.462,0.916-5.253,1.697-7.547l0.344-1.008
		l-11.925-5.036c-0.274-0.115-0.55-0.263-0.847-0.454l-0.121-0.074l-0.105-0.075l-0.045-0.04l-0.029-0.04l-0.075-0.057
		L56.811,18.704c-0.421-0.411-0.543-1.048-0.304-1.585c0.227-0.509,0.73-0.838,1.281-0.838l17.216,1.106l0.121,0.016l0.136,0.027
		l0.145,0.044l19.249,8.089l0.798-2.953c0.368-1.519,1.288-2.785,2.597-3.592c0.918-0.566,1.965-0.865,3.028-0.865
		c0.452,0,0.908,0.054,1.354,0.16l0.26,0.061c1.506,0.358,2.785,1.282,3.597,2.601c0.208,0.336,0.381,0.693,0.517,1.062l0.329,0.9
		l0.945-0.169c0.327-0.059,0.662-0.088,0.996-0.088c0.45,0,0.902,0.054,1.344,0.16l0.263,0.063c1.505,0.357,2.781,1.281,3.594,2.6
		c0.089,0.145,0.172,0.294,0.249,0.444l0.419,0.813l0.885-0.23c0.47-0.122,0.957-0.184,1.446-0.184c0.457,0,0.916,0.054,1.365,0.161
		l0.263,0.061c1.719,0.409,3.145,1.57,3.903,3.185l0.411,0.873l0.929-0.257c0.505-0.14,1.024-0.21,1.543-0.21
		c0.448,0,0.898,0.053,1.339,0.157l0.263,0.062c1.503,0.357,2.779,1.28,3.593,2.6c0.813,1.319,1.064,2.874,0.706,4.382l-0.923,3.34
		l14.805,6.222c1.377,0.581,2.445,1.663,3.007,3.046c0.562,1.384,0.552,2.904-0.029,4.279l-1.422,3.366
		c-0.581,1.374-1.662,2.442-3.047,3.006c-0.675,0.274-1.383,0.413-2.103,0.413c-0.746,0-1.477-0.15-2.173-0.444l-12.828-5.418
		l-0.393,1.169c-1.2,3.574-3.492,8.404-7.593,11.121l-0.509,0.338l-0.03,8.36h2.22c0.779,0,1.412,0.634,1.412,1.412v22.802
		c0,0.778-0.633,1.412-1.412,1.412c-0.778,0-1.411-0.634-1.411-1.412v-8.244H84.32v79.767h34.841v-62.537
		c0-0.779,0.633-1.412,1.411-1.412c0.779,0,1.412,0.633,1.412,1.412v63.949c0,0.779-0.633,1.412-1.412,1.412H82.907z M84.32,89.304
		h34.841V78.983H84.32V89.304z M84.158,38.484c-0.634,1.998-1.073,4.509-1.46,6.725c-1.306,7.495,5.663,16.025,5.96,16.385
		c0.217,0.259,0.334,0.582,0.335,0.914l0.009,13.387h26.528l0.032-8.953c0.002-0.533,0.298-1.014,0.774-1.255
		c6.941-3.519,8.62-14.647,8.689-15.119l0.035-0.171l3.784-13.683c0.356-1.635-0.641-3.215-2.206-3.586l-0.255-0.062
		c-0.231-0.055-0.462-0.082-0.693-0.082c-1.383,0-2.574,0.941-2.893,2.289l-2.233,7.127c-0.186,0.593-0.728,0.991-1.348,0.991
		c-0.141,0-0.282-0.022-0.421-0.066c-0.362-0.113-0.655-0.36-0.831-0.694c-0.174-0.334-0.209-0.717-0.096-1.076l2.179-6.944
		l0.408-1.71c0.184-0.772,0.056-1.571-0.362-2.248c-0.416-0.677-1.072-1.151-1.844-1.334l-0.259-0.061
		c-0.227-0.054-0.459-0.082-0.69-0.082c-0.938,0-1.832,0.454-2.392,1.216l-0.118,0.161l-2.534,8.562
		c-0.176,0.596-0.732,1.012-1.352,1.012c-0.136,0-0.274-0.02-0.406-0.059c-0.358-0.106-0.656-0.347-0.837-0.679
		c-0.18-0.331-0.22-0.713-0.112-1.075l2.677-9.043c0.188-0.842,0.056-1.625-0.351-2.284c-0.414-0.677-1.071-1.152-1.847-1.334
		l-0.262-0.062c-0.222-0.053-0.453-0.08-0.684-0.08c-0.878,0-1.705,0.386-2.271,1.06l-0.156,0.185l-2.977,10.312
		c-0.173,0.601-0.731,1.021-1.357,1.021c-0.132,0-0.265-0.019-0.395-0.056c-0.745-0.216-1.178-1.001-0.962-1.75l3.011-10.429
		l0.274-1.147c0.183-0.775,0.055-1.574-0.362-2.25c-0.414-0.675-1.071-1.15-1.848-1.333l-0.247-0.06
		c-0.236-0.056-0.469-0.083-0.7-0.083c-0.548,0-1.086,0.152-1.557,0.441c-0.675,0.415-1.15,1.071-1.334,1.846l-4.572,16.991
		c-0.165,0.615-0.726,1.044-1.363,1.044c-0.123,0-0.247-0.016-0.367-0.049c-0.444-0.119-0.792-0.438-0.953-0.873l-0.172-0.463
		l-6.234-2.63L84.158,38.484z M136.732,56.266l4.074,1.72c0.343,0.145,0.704,0.219,1.074,0.219c0.358,0,0.71-0.07,1.044-0.207
		c0.679-0.273,1.215-0.801,1.504-1.483l1.422-3.369c0.288-0.681,0.293-1.433,0.013-2.118c-0.275-0.682-0.804-1.218-1.487-1.504
		l-3.823-1.607L136.732,56.266z M127.809,51.046l-0.223,1.348l0.831,0.361l5.712,2.412l3.82-8.344l-8.035-3.377L127.809,51.046z
		 M71.717,28.806l19.813,8.368l2.386-8.859l-18.31-7.695L71.717,28.806z M69.415,27.067l3.325-6.996l-11.228-0.725L69.415,27.067z"
		/>
	<path style="fill:#B3B3B3;" d="M82.907,174.719v-0.385c-0.566-0.001-1.027-0.462-1.028-1.028V77.57
		c0.001-0.565,0.462-1.026,1.028-1.027h3.656l-0.01-13.664l-0.314-0.41l0,0c-1.55-2.021-6.157-8.683-6.145-15.34
		c0-0.773,0.061-1.546,0.195-2.312l0,0c0.428-2.461,0.915-5.238,1.682-7.489l0,0l0.344-1.008l0.116-0.339l-12.255-5.176l-0.001,0
		c-0.25-0.105-0.507-0.242-0.788-0.423l-0.004-0.002l-0.112-0.068l-0.076-0.055l-0.029-0.026l-0.257,0.286l0.312-0.225l-0.029-0.04
		l-0.033-0.046l-0.101-0.078L57.079,18.429c-0.201-0.196-0.309-0.465-0.309-0.738c0-0.141,0.029-0.283,0.088-0.416l0,0
		c0.165-0.371,0.534-0.61,0.929-0.61v-0.385l-0.025,0.384l17.204,1.105l0.095,0.012l0.105,0.021l0.108,0.033l19.637,8.252
		l0.915-3.383l0.001-0.004c0.346-1.424,1.202-2.599,2.425-3.355l0,0c0.858-0.529,1.835-0.808,2.826-0.808
		c0.421,0,0.847,0.051,1.265,0.15l0,0l0.26,0.061l-0.001,0c1.409,0.335,2.598,1.195,3.359,2.428l0,0.001
		c0.194,0.313,0.356,0.647,0.483,0.993l0.329,0.9l0.111,0.303l1.262-0.225c0.305-0.055,0.617-0.082,0.928-0.082
		c0.419,0,0.842,0.05,1.255,0.149l0.002,0l0.262,0.062c1.407,0.334,2.594,1.193,3.355,2.427l0,0
		c0.083,0.136,0.161,0.275,0.234,0.418l0.419,0.814l0.141,0.274l1.183-0.307l0,0c0.438-0.113,0.893-0.171,1.349-0.171
		c0.426,0,0.855,0.051,1.277,0.15l0.001,0l0.265,0.061l-0.003-0.001c1.606,0.383,2.934,1.464,3.644,2.974l0,0l0.411,0.873
		l0.138,0.293l1.242-0.344l0,0c0.472-0.13,0.956-0.197,1.44-0.197c0.417,0,0.838,0.049,1.25,0.147l0.264,0.062l-0.001,0
		c1.405,0.334,2.592,1.193,3.354,2.428c0.534,0.867,0.807,1.839,0.808,2.83c0,0.419-0.049,0.842-0.149,1.262l0.374,0.089
		l-0.371-0.102l-1.014,3.666l15.117,6.353l-0.001,0c1.284,0.543,2.275,1.547,2.8,2.837l0,0c0.258,0.635,0.386,1.299,0.386,1.961
		c0,0.686-0.137,1.371-0.413,2.023l0,0l-1.422,3.366c-0.542,1.282-1.546,2.272-2.838,2.799l0,0
		c-0.631,0.256-1.288,0.385-1.959,0.385c-0.694,0-1.373-0.139-2.023-0.413l-13.211-5.579l-0.543,1.614l0.018-0.052
		c-1.184,3.536-3.46,8.292-7.441,10.923l-0.509,0.338l-0.171,0.114l-0.032,8.951h2.606c0.566,0.001,1.027,0.462,1.028,1.027v22.802
		c-0.001,0.565-0.461,1.026-1.028,1.027c-0.565-0.001-1.026-0.462-1.027-1.027v-8.628h-35.61v80.537h35.61v-62.922
		c0.001-0.566,0.462-1.026,1.027-1.027c0.566,0.001,1.027,0.461,1.028,1.027v63.949c-0.001,0.566-0.462,1.027-1.028,1.028H82.907
		V174.719v0.385h37.665c0.992-0.001,1.796-0.805,1.797-1.797v-63.949c-0.001-0.992-0.805-1.796-1.797-1.796
		c-0.991,0.001-1.795,0.805-1.796,1.796v62.152H84.704V92.513l34.072,0l0,7.859c0.001,0.991,0.804,1.796,1.796,1.796
		c0.992-0.001,1.796-0.805,1.797-1.796V77.57c-0.001-0.991-0.805-1.796-1.797-1.796h-1.834l0.028-7.768l0.338-0.224l0,0
		c4.22-2.803,6.529-7.708,7.745-11.32l0,0l0.261-0.776l12.446,5.256c0.741,0.314,1.525,0.474,2.322,0.474
		c0.77,0,1.528-0.149,2.248-0.441l0,0c1.477-0.601,2.637-1.745,3.256-3.212l1.422-3.366l0,0c0.315-0.746,0.473-1.534,0.473-2.323
		c0-0.762-0.148-1.525-0.442-2.251l0,0c-0.599-1.477-1.745-2.637-3.214-3.256l-14.493-6.091l0.835-3.021l0.002-0.006
		c0.113-0.477,0.17-0.96,0.17-1.44c0-1.133-0.314-2.247-0.922-3.233c-0.866-1.405-2.231-2.393-3.831-2.773l-0.001,0l-0.263-0.062
		l0.001,0c-0.47-0.111-0.949-0.168-1.427-0.168c-0.554,0-1.108,0.076-1.646,0.224l0,0l-0.616,0.171l-0.273-0.579l0,0
		c-0.806-1.719-2.33-2.96-4.162-3.395l-0.002,0l-0.264-0.061l0.002,0.001c-0.479-0.113-0.967-0.171-1.454-0.171
		c-0.522,0-1.041,0.066-1.542,0.196l0,0l-0.588,0.153l-0.278-0.54l0,0.001c-0.081-0.158-0.168-0.315-0.264-0.47l0,0
		c-0.865-1.404-2.23-2.393-3.833-2.772l-0.263-0.063l0.001,0c-0.471-0.113-0.954-0.17-1.434-0.17c-0.357,0-0.714,0.032-1.064,0.094
		l-0.626,0.112l-0.218-0.597l0-0.001c-0.145-0.393-0.329-0.774-0.551-1.132l0,0.001c-0.865-1.405-2.232-2.393-3.836-2.773
		L102.778,18l-0.257-0.061l0.001,0c-0.475-0.113-0.96-0.171-1.443-0.171c-1.135,0-2.252,0.32-3.23,0.922l0,0
		c-1.394,0.859-2.378,2.214-2.769,3.828l0.374,0.091l-0.371-0.1l-0.683,2.528l-18.862-7.926l-0.164-0.05l-0.018-0.005L75.2,17.025
		l-0.013-0.003l-0.134-0.017l-0.012-0.002L57.8,15.896h-0.012c-0.705,0.001-1.344,0.42-1.632,1.066l0,0
		c-0.104,0.234-0.154,0.482-0.154,0.728c0,0.475,0.187,0.943,0.541,1.289l12.011,11.729l0.093,0.071l0.234-0.305L68.568,30.7
		l0.029,0.04l0.024,0.033l0.075,0.068l0.016,0.014l0.122,0.088l0.012,0.008l0.133,0.081l0.201-0.328l-0.208,0.324
		c0.312,0.201,0.609,0.361,0.906,0.485l-0.001,0l11.595,4.897l-0.228,0.668l0,0c-0.795,2.337-1.282,5.142-1.712,7.605l0,0
		c-0.142,0.813-0.206,1.631-0.206,2.444c0.012,7.004,4.722,13.721,6.303,15.806l0,0l0.155,0.203l0.01,12.634h-2.886
		c-0.992,0.001-1.796,0.805-1.797,1.796v95.737c0.001,0.992,0.805,1.796,1.797,1.797V174.719z M84.32,89.304v0.385h35.226V78.598
		h-35.61v11.091h0.385V89.304h0.385v-9.937h34.072v9.552l-34.456,0V89.304h0.385H84.32z M84.158,38.484l-0.367-0.116
		c-0.646,2.036-1.085,4.559-1.473,6.775l0,0c-0.116,0.665-0.169,1.336-0.169,2.006c0.003,3.586,1.496,7.161,3.008,9.893
		c1.514,2.732,3.058,4.62,3.203,4.796l0.002,0.003l-0.001-0.001c0.159,0.191,0.244,0.426,0.245,0.668v-0.001l0.009,13.772h27.295
		l0.034-9.336v0c0.003-0.391,0.215-0.736,0.563-0.913c3.608-1.836,5.791-5.584,7.105-8.904c1.313-3.325,1.753-6.249,1.79-6.503
		l-0.381-0.055l0.377,0.076l0.032-0.158l3.783-13.68l0.002-0.01c0.055-0.251,0.081-0.502,0.081-0.748
		c0.001-1.552-1.045-2.931-2.574-3.294l0.002,0.001l-0.255-0.062l-0.001,0l-0.002,0c-0.259-0.061-0.52-0.092-0.782-0.092
		c-1.56-0.001-2.908,1.065-3.267,2.585l0.374,0.089l-0.367-0.115l-2.233,7.127l0,0c-0.138,0.435-0.528,0.721-0.981,0.722
		c-0.1,0-0.203-0.016-0.306-0.048l0,0c-0.266-0.084-0.475-0.259-0.605-0.505l0,0.001c-0.079-0.151-0.118-0.313-0.118-0.475
		c0-0.103,0.016-0.206,0.048-0.308l0,0l2.183-6.957l0.411-1.724l0,0c0.062-0.259,0.092-0.522,0.092-0.783
		c0-0.615-0.171-1.221-0.501-1.756l0,0c-0.468-0.762-1.213-1.301-2.083-1.506l-0.259-0.061l0.001,0
		c-0.256-0.061-0.518-0.092-0.779-0.092c-1.062,0.001-2.069,0.513-2.702,1.373l-0.118,0.162l-0.04,0.054l-2.553,8.626v0
		c-0.126,0.431-0.537,0.738-0.983,0.736c-0.098,0-0.2-0.015-0.298-0.044l-0.014-0.004l0.014,0.004
		c-0.261-0.077-0.474-0.25-0.608-0.494l0,0.001c-0.083-0.154-0.125-0.319-0.125-0.486c0-0.098,0.014-0.197,0.044-0.294l2.682-9.057
		l0.003-0.013c0.062-0.279,0.093-0.554,0.093-0.824c0.001-0.629-0.17-1.226-0.492-1.745l0.001,0.001
		c-0.466-0.763-1.213-1.303-2.087-1.508l-0.262-0.062l0.001,0c-0.252-0.06-0.512-0.091-0.774-0.091
		c-0.991,0-1.927,0.437-2.565,1.197l-0.156,0.185l-0.053,0.063l-2.999,10.391l0,0c-0.124,0.435-0.535,0.744-0.987,0.743
		c-0.095,0-0.193-0.014-0.291-0.041l0.003,0.001c-0.446-0.128-0.74-0.544-0.74-0.99c0-0.094,0.013-0.189,0.04-0.284l3.014-10.437
		l0.276-1.155l0-0.001c0.061-0.259,0.092-0.521,0.092-0.782c0-0.616-0.171-1.223-0.5-1.758l0,0.001
		c-0.467-0.762-1.213-1.301-2.087-1.506l0.003,0.001l-0.247-0.06l-0.001,0l-0.002,0c-0.264-0.063-0.528-0.093-0.789-0.093
		c-0.62,0-1.227,0.172-1.758,0.498l-0.001,0c-0.761,0.467-1.3,1.212-1.507,2.084l0.374,0.089l-0.371-0.1l-4.572,16.991l0,0
		c-0.119,0.446-0.529,0.76-0.992,0.76l-0.266-0.036l-0.001,0c-0.326-0.089-0.571-0.313-0.693-0.636l0,0l-0.172-0.463l-0.058-0.156
		l-6.776-2.859l-0.506,1.598l0,0L84.158,38.484l0.367,0.116l0.251-0.793l5.692,2.402l0.114,0.307l0,0
		c0.202,0.547,0.651,0.961,1.214,1.11l-0.001,0c0.154,0.042,0.312,0.063,0.469,0.063c0.812,0,1.524-0.545,1.735-1.329l0.011-0.041
		l4.563-16.955l0.001-0.005c0.162-0.677,0.572-1.244,1.161-1.607l-0.001,0c0.411-0.252,0.88-0.384,1.357-0.384
		c0.201,0,0.404,0.023,0.611,0.072l-0.003-0.001l0.247,0.06l0.002,0l0.001,0c0.679,0.161,1.246,0.571,1.608,1.16l0,0.001
		c0.256,0.415,0.386,0.88,0.386,1.355c0,0.201-0.023,0.403-0.071,0.605l-0.271,1.137l-3.009,10.42l0,0
		c-0.048,0.165-0.07,0.333-0.07,0.497c0,0.781,0.51,1.5,1.295,1.729l0.001,0l0.002,0.001c0.163,0.046,0.331,0.07,0.5,0.07
		c0.799-0.001,1.504-0.531,1.726-1.299l0,0L107,26.942l0.104-0.123l0-0.001c0.494-0.587,1.212-0.923,1.976-0.923
		c0.201,0,0.402,0.024,0.595,0.07l0.263,0.062l0,0c0.678,0.16,1.245,0.571,1.607,1.161l0.001,0.001
		c0.248,0.402,0.377,0.85,0.377,1.342c0,0.211-0.024,0.43-0.075,0.657l0.375,0.084l-0.369-0.109l-2.677,9.043l0-0.001
		c-0.051,0.169-0.076,0.343-0.076,0.515c0,0.296,0.074,0.589,0.218,0.853l0,0.001c0.228,0.419,0.61,0.73,1.066,0.864l0,0
		c0.167,0.049,0.341,0.075,0.515,0.075c0.793-0.002,1.494-0.526,1.721-1.287l2.515-8.498l0.079-0.107l0,0
		c0.486-0.663,1.268-1.059,2.082-1.059c0.201,0,0.403,0.024,0.601,0.071l0.26,0.062c0.675,0.161,1.241,0.57,1.606,1.161l0,0
		c0.256,0.416,0.386,0.88,0.386,1.353c0,0.201-0.024,0.403-0.071,0.604l-0.404,1.697L117.5,41.44l0,0
		c-0.055,0.176-0.083,0.358-0.083,0.538c0,0.287,0.07,0.572,0.205,0.831l0,0.001c0.221,0.423,0.599,0.74,1.056,0.882l0,0
		c0.174,0.055,0.355,0.084,0.536,0.084c0.787,0.001,1.479-0.51,1.715-1.261l0,0l2.237-7.139l0.003-0.013
		c0.279-1.175,1.312-1.992,2.519-1.993c0.201,0,0.402,0.024,0.605,0.072l-0.002-0.001l0.255,0.062l0.001,0l0.001,0
		c1.172,0.277,1.982,1.34,1.982,2.546c0,0.192-0.02,0.387-0.063,0.584l0.376,0.082l-0.371-0.103l-3.787,13.695l-0.037,0.184
		l-0.002,0.011l-0.002,0.011c-0.031,0.217-0.465,3.094-1.744,6.33c-1.277,3.241-3.404,6.817-6.738,8.5
		c-0.603,0.305-0.983,0.921-0.984,1.596l-0.031,8.57h-25.76l-0.009-13.003v-0.001c-0.001-0.422-0.151-0.832-0.425-1.159l0.001,0.002
		c-0.126-0.152-1.644-2.009-3.123-4.679c-1.481-2.669-2.914-6.152-2.911-9.521c0-0.63,0.05-1.257,0.157-1.874l0.006-0.034
		l-0.006,0.035c0.387-2.215,0.826-4.715,1.448-6.675l0.01-0.031l-0.01,0.03L84.158,38.484z M136.732,56.266l-0.15,0.354l4.083,1.724
		l-0.01-0.004c0.389,0.165,0.803,0.249,1.224,0.249c0.408,0,0.811-0.08,1.19-0.235l-0.002,0.001c0.773-0.31,1.387-0.915,1.715-1.689
		l0-0.001l1.422-3.369l0,0c0.166-0.392,0.25-0.807,0.25-1.223c0-0.403-0.078-0.807-0.234-1.19l0.001,0.001
		c-0.312-0.777-0.919-1.391-1.695-1.716l-4.166-1.752l-4.142,9.048l0.365,0.154L136.732,56.266l0.35,0.16l3.667-8.01l3.479,1.463
		l0,0c0.59,0.248,1.042,0.706,1.279,1.293l0.001,0.001c0.119,0.292,0.178,0.596,0.178,0.9c0,0.312-0.063,0.624-0.189,0.923
		l-0.012,0.027l-1.411,3.342l0-0.001c-0.251,0.59-0.709,1.04-1.293,1.276l-0.002,0.001l-0.001,0
		c-0.289,0.118-0.59,0.178-0.898,0.178c-0.318,0-0.628-0.063-0.924-0.188l0,0l-4.074-1.72L136.732,56.266l0.35,0.16L136.732,56.266z
		 M127.809,51.046l-0.38-0.063l-0.272,1.644l1.107,0.481l6.059,2.558l4.14-9.044l-8.804-3.701l-2.226,8.042l-0.003,0.02
		L127.809,51.046l0.371,0.103l1.987-7.18l7.266,3.054l-3.499,7.644l-5.366-2.266l-0.553-0.24l0.174-1.052L127.809,51.046
		l0.371,0.103L127.809,51.046z M71.717,28.806l-0.15,0.354l20.219,8.54l2.588-9.61l-18.959-7.968l-4.219,8.882l0.37,0.156
		L71.717,28.806l0.347,0.165l3.731-7.855l17.662,7.423l-2.184,8.109l-19.407-8.196L71.717,28.806l0.347,0.165L71.717,28.806z
		 M69.415,27.067l0.347,0.165l3.568-7.508l-12.831-0.828l9.032,8.823l0.231-0.486L69.415,27.067l0.269-0.275l-7.16-6.995
		l9.626,0.621l-3.081,6.483L69.415,27.067l0.269-0.275L69.415,27.067z"/>
	<path style="fill:#B3B3B3;" d="M28.025,174.719c-0.779,0-1.413-0.634-1.413-1.412v-38.465c0-0.778,0.634-1.412,1.413-1.412h2.482
		v-6.072l-0.409-0.342c-2.782-2.332-9.299-8.546-9.741-15.855c-0.33-5.456-0.673-11.098,2.457-13.72
		c1.148-0.959,2.597-1.426,4.432-1.426c0.42,0,0.866,0.025,1.327,0.075l1.266,0.137v-7.966c0-3.198,2.601-5.8,5.799-5.8h0.267
		c1.952,0,3.763,0.977,4.844,2.614l0.527,0.798l0.879-0.378c0.73-0.314,1.504-0.474,2.302-0.474h0.266
		c1.713,0,3.33,0.754,4.439,2.07l0.595,0.706l0.816-0.434c0.828-0.441,1.772-0.674,2.729-0.674h0.266
		c1.775,0,3.429,0.799,4.539,2.193l0.601,0.755l0.845-0.466c0.852-0.469,1.817-0.717,2.791-0.717h0.266
		c3.199,0,5.801,2.602,5.801,5.801v11.889c0.105,1.329,0.825,12.335-5.125,18.357l-0.33,0.334v8.592h2.733
		c0.779,0,1.412,0.634,1.412,1.412v38.465c0,0.779-0.633,1.412-1.412,1.412H28.025z M29.436,171.895h34.842V149.4H29.436V171.895z
		 M29.436,146.575h34.842v-10.321H29.436V146.575z M27.268,98.842c-1.147,0-2.036,0.258-2.642,0.766
		c-1.895,1.587-1.796,5.719-1.45,11.383c0.466,7.69,9.493,14.472,9.585,14.539c0.356,0.265,0.569,0.688,0.569,1.133v6.766h26.801
		v-9.236c0-0.417,0.182-0.809,0.499-1.077c6.009-5.089,4.972-16.608,4.961-16.724l-0.004-0.136V94.257
		c0-1.641-1.335-2.976-2.977-2.976h-0.267c-1.64,0-2.975,1.335-2.975,2.976v5.126c0,0.778-0.633,1.412-1.412,1.412
		c-0.778,0-1.411-0.634-1.411-1.412V92.49c0-1.641-1.335-2.975-2.975-2.975h-0.268c-1.13,0-2.146,0.624-2.653,1.629l-0.123,0.243
		v6.742c0,0.779-0.634,1.412-1.413,1.412c-0.779,0-1.412-0.633-1.412-1.412v-7.307c0-1.641-1.335-2.975-2.975-2.975h-0.266
		c-1.094,0-2.097,0.6-2.617,1.566l-0.136,0.253v8.462c0,0.778-0.633,1.412-1.411,1.412c-0.779,0-1.413-0.634-1.413-1.412v-9.865
		c0-1.641-1.335-2.976-2.975-2.976H35.64c-1.64,0-2.975,1.335-2.975,2.976v15.317c0,0.779-0.634,1.413-1.413,1.413
		c-0.779,0-1.412-0.634-1.412-1.413V99.13l-0.967-0.151C28.293,98.889,27.754,98.842,27.268,98.842z"/>
	<path style="fill:#B3B3B3;" d="M28.025,174.719v-0.385c-0.566-0.001-1.028-0.462-1.029-1.028v-38.465
		c0.001-0.565,0.462-1.026,1.029-1.027h2.867v-6.636l-0.546-0.457c-1.376-1.153-3.68-3.272-5.685-5.994
		c-2.007-2.723-3.706-6.043-3.919-9.589c-0.103-1.699-0.206-3.41-0.206-5.032c0-1.793,0.127-3.478,0.511-4.915
		c0.384-1.438,1.016-2.617,2.016-3.455l0.008-0.006l-0.008,0.007c1.071-0.893,2.413-1.334,4.186-1.336
		c0.404,0,0.838,0.024,1.286,0.073l1.692,0.183v-8.394c0-1.494,0.607-2.845,1.588-3.827c0.982-0.981,2.333-1.588,3.827-1.588h0.267
		c1.823,0,3.512,0.911,4.524,2.442l0.527,0.798l0.177,0.269l1.174-0.506c0.683-0.294,1.403-0.442,2.15-0.443h0.266
		c1.599,0,3.108,0.703,4.145,1.933l0.595,0.706l0.2,0.238l1.091-0.58c0.771-0.411,1.654-0.629,2.548-0.629h0.266
		c1.659,0.001,3.199,0.745,4.238,2.048l0.601,0.755l0.202,0.254l1.13-0.622c0.795-0.438,1.696-0.67,2.606-0.67h0.266
		c1.494,0,2.846,0.607,3.828,1.588c0.982,0.982,1.588,2.334,1.588,3.828v11.905l0.001,0.015c0.024,0.3,0.08,1.114,0.08,2.262
		c0.008,3.822-0.65,11.315-5.095,15.794l-0.33,0.334l-0.111,0.112v9.135h3.118c0.566,0.001,1.027,0.462,1.028,1.027v38.465
		c-0.001,0.566-0.462,1.027-1.028,1.028H28.025V174.719v0.385H65.69c0.992-0.001,1.796-0.805,1.797-1.797v-38.465
		c-0.001-0.991-0.805-1.796-1.797-1.796h-2.349v-8.05l0.219-0.221c4.703-4.78,5.31-12.438,5.317-16.335
		c0-1.173-0.058-2.008-0.083-2.323l-0.383,0.03h0.385V94.257c-0.001-3.412-2.774-6.185-6.186-6.185h-0.266
		c-1.04,0-2.068,0.264-2.977,0.765l-0.561,0.309l-0.398-0.501c-1.181-1.484-2.948-2.339-4.84-2.339h-0.266
		c-1.019,0-2.024,0.247-2.909,0.719l-0.541,0.288l-0.395-0.469c-1.181-1.402-2.907-2.207-4.733-2.207h-0.266
		c-0.85,0-1.677,0.171-2.454,0.505l-0.583,0.251l-0.35-0.53l0,0c-1.152-1.743-3.085-2.787-5.165-2.787H35.64
		c-3.411,0.001-6.183,2.773-6.184,6.184v7.537l-0.84-0.091c-0.474-0.051-0.934-0.077-1.369-0.077
		c-1.898-0.002-3.455,0.49-4.679,1.515l0,0c-1.155,0.967-1.856,2.31-2.265,3.847c-0.41,1.539-0.536,3.284-0.537,5.113
		c0,1.655,0.105,3.379,0.208,5.079c0.23,3.764,2.01,7.204,4.067,9.998c2.059,2.794,4.404,4.948,5.811,6.128l0.271,0.227v5.508
		l-2.097,0c-0.992,0.001-1.797,0.805-1.798,1.796v38.465c0.001,0.992,0.806,1.796,1.798,1.797V174.719z M29.436,171.895v0.385
		h35.227v-23.264H29.051v23.264h0.385V171.895h0.385v-22.11h34.073v21.726l-34.457,0V171.895h0.385H29.436z M29.436,146.575v0.385
		h35.227v-11.091H29.051v11.091h0.385V146.575h0.385v-9.937h34.073v9.552H29.436V146.575h0.385H29.436z M27.268,98.842v-0.385
		c-1.201,0-2.186,0.268-2.889,0.856l-0.008,0.006l0.008-0.007c-0.728,0.612-1.168,1.522-1.431,2.643
		c-0.263,1.123-0.355,2.474-0.356,4.027c0,1.499,0.087,3.186,0.2,5.031c0.248,3.991,2.676,7.66,5.027,10.358
		c2.356,2.698,4.65,4.42,4.714,4.468l-0.001-0.001c0.258,0.191,0.415,0.503,0.414,0.824v7.151h27.571v-9.62
		c0-0.305,0.132-0.588,0.363-0.784c2.313-1.962,3.595-4.804,4.311-7.59c0.714-2.788,0.861-5.534,0.861-7.345
		c0-1.27-0.073-2.078-0.077-2.119l-0.383,0.036l0.384-0.013l-0.004-0.13l0-11.994c-0.001-1.854-1.507-3.36-3.361-3.361h-0.267
		c-1.853,0.001-3.359,1.506-3.36,3.361v5.126c-0.001,0.565-0.461,1.026-1.028,1.027c-0.565-0.001-1.026-0.462-1.027-1.027V92.49
		c-0.001-1.854-1.507-3.359-3.36-3.36h-0.268c-1.272-0.001-2.425,0.707-2.996,1.84l-0.123,0.243l-0.041,0.082v6.833
		c-0.001,0.565-0.462,1.026-1.029,1.027c-0.566-0.001-1.027-0.461-1.028-1.027v-7.307c-0.001-1.854-1.507-3.359-3.36-3.36h-0.266
		c-1.236,0-2.369,0.679-2.956,1.768l0,0l-0.136,0.253l-0.046,0.085v8.559c-0.001,0.565-0.462,1.026-1.027,1.027
		c-0.566-0.001-1.028-0.463-1.029-1.027v-9.865c-0.001-1.854-1.507-3.36-3.36-3.361H35.64c-1.853,0.001-3.359,1.506-3.36,3.361
		v15.317c-0.001,0.566-0.463,1.028-1.029,1.029c-0.566-0.001-1.027-0.462-1.028-1.029v-4.778l-1.292-0.201
		c-0.594-0.093-1.152-0.141-1.663-0.141V98.842v0.385c0.461,0,0.982,0.044,1.544,0.132l0.642,0.1l0,4.119
		c0.001,0.992,0.804,1.797,1.797,1.798c0.993-0.001,1.797-0.806,1.798-1.798V88.262c0.003-1.428,1.164-2.589,2.591-2.591h0.266
		c1.427,0.003,2.588,1.163,2.591,2.591v9.865c0.001,0.992,0.806,1.796,1.798,1.796c0.992-0.001,1.795-0.805,1.796-1.796v-8.365
		l0.09-0.168l0,0c0.454-0.842,1.326-1.363,2.278-1.364h0.266c1.427,0.003,2.588,1.163,2.591,2.591v7.307
		c0.001,0.992,0.805,1.796,1.797,1.796c0.992-0.001,1.797-0.804,1.798-1.796v-6.65l0.082-0.162c0.443-0.876,1.322-1.417,2.309-1.418
		h0.268c1.427,0.003,2.588,1.163,2.591,2.591v6.893c0.001,0.991,0.804,1.796,1.796,1.796c0.992-0.001,1.796-0.805,1.797-1.796
		v-5.126c0.003-1.428,1.164-2.589,2.591-2.591h0.267c1.428,0.003,2.589,1.163,2.592,2.591v12.008l0.005,0.141l0,0.012l0.001,0.012
		c0.002,0.019,0.073,0.807,0.073,2.047c0,1.768-0.146,4.459-0.837,7.154c-0.69,2.698-1.926,5.386-4.062,7.193
		c-0.403,0.34-0.635,0.842-0.635,1.371v8.851H33.716l0-6.382c-0.001-0.568-0.27-1.103-0.725-1.442l-0.001-0.001
		c-0.028-0.02-2.294-1.722-4.591-4.355c-2.303-2.632-4.621-6.199-4.839-9.899c-0.113-1.841-0.198-3.515-0.198-4.984
		c0-1.522,0.093-2.824,0.335-3.852c0.242-1.031,0.627-1.77,1.177-2.229l0,0c0.508-0.428,1.302-0.676,2.394-0.676V98.842z"/>
</g>
<g>
</g>
<g>
</g>
<g>
</g>
<g>
</g>
<g>
</g>
<g>
</g>
<g>
</g>
<g>
</g>
<g>
</g>
<g>
</g>
<g>
</g>
<g>
</g>
<g>
</g>
<g>
</g>
<g>
</g>
</svg>
