<?xml version="1.0" encoding="iso-8859-1"?>
<!-- Generator: Adobe Illustrator 18.0.0, SVG Export Plug-In . SVG Version: 6.00 Build 0)  -->
<!DOCTYPE svg PUBLIC "-//W3C//DTD SVG 1.1//EN" "http://www.w3.org/Graphics/SVG/1.1/DTD/svg11.dtd">
<svg version="1.1" id="Layer_1" xmlns="http://www.w3.org/2000/svg" xmlns:xlink="http://www.w3.org/1999/xlink" x="0px" y="0px"
	 viewBox="0 0 200 200" style="enable-background:new 0 0 200 200;" xml:space="preserve">
<rect x="234.125" y="71.041" style="fill:#F15A24;" width="3.773" height="3.773"/>
<g>
	<path style="fill:#B3B3B3;" d="M124.37,174.419c-0.682,0-1.236-0.554-1.236-1.236c0-0.683,0.554-1.238,1.236-1.238h4.213v-16.503
		c0-0.682,0.555-1.236,1.238-1.236c0.683,0,1.238,0.554,1.238,1.236v16.503h13.811v-15.731c0-16.041-12.985-20.442-13.116-20.484
		l-10.898-4.539l-7.776,15.983c-0.161,0.332-0.458,0.573-0.814,0.66c-0.097,0.024-0.197,0.036-0.299,0.036
		c-0.263,0-0.522-0.085-0.73-0.239l-3.395-2.497l-2.038,5.426l3.449,21.384h6.876c0.682,0,1.236,0.555,1.236,1.238
		c0,0.681-0.554,1.236-1.236,1.236H53.892c-0.682,0-1.238-0.557-1.238-1.241v-16.964c0-2.285,0.252-4.492,0.748-6.557l0.419-1.742
		H18.768c-0.683,0-1.238-0.557-1.238-1.241v-16.1c0-8.758,3.81-14.195,7.007-17.214c3.184-3.006,6.385-4.261,6.995-4.482
		l11.493-4.786l8.667-5.719V94.1l-0.757-0.396c-5.626-2.943-9.58-8.418-10.578-14.647l-0.166-1.037l-1.041-0.139
		c-4.329-0.576-7.593-4.305-7.593-8.674c0-2.189,0.817-4.287,2.301-5.907l0.371-0.404V52.603c0-14.9,12.122-27.022,27.022-27.022
		h2.149c12.287,0,23.037,8.292,26.142,20.164l0.365,1.396l1.388-0.396c2.546-0.726,5.167-1.095,7.789-1.095h2.263
		c2.493,0,4.987,0.333,7.414,0.99l1.368,0.37l0.365-1.37c3.141-11.81,13.878-20.059,26.111-20.059h2.148
		c14.9,0,27.022,12.122,27.022,27.022v10.292l0.371,0.405c1.484,1.62,2.301,3.718,2.301,5.907c0,4.369-3.263,8.098-7.591,8.674
		l-1.041,0.139l-0.166,1.037c-0.999,6.229-4.954,11.705-10.578,14.647l-0.757,0.396v4.273l8.667,5.719l11.431,4.763
		c0.633,0.231,3.883,1.508,7.057,4.505c3.197,3.019,7.007,8.457,7.007,17.214v16.072c0,0.687-0.567,1.268-1.238,1.268H146.18
		l0.417,1.74c0.496,2.069,0.747,4.276,0.747,6.56v16.936c0,0.688-0.566,1.269-1.237,1.269H124.37z M93.779,171.945h12.968
		l-3.27-20.275h-6.426L93.779,171.945z M70.179,154.206c0.682,0,1.237,0.554,1.237,1.236v16.503h19.857l3.446-21.36l-2.301-5.487
		l-3.441,2.532c-0.213,0.158-0.467,0.241-0.733,0.241c-0.101,0-0.201-0.012-0.297-0.036c-0.357-0.087-0.655-0.329-0.817-0.662
		l-7.81-16.055l-11.006,4.586l-0.117,0.043c-0.526,0.182-13.067,4.698-13.067,20.468v15.731h13.812v-16.503
		C68.941,154.76,69.496,154.206,70.179,154.206z M94.47,143.588l2.351,5.608h6.852l2.096-5.587l-5.665-4.169L94.47,143.588z
		 M165.775,128.605c0.682,0,1.238,0.555,1.238,1.237v15.598h12.981v-14.865c0-15.002-12.263-19.334-12.387-19.376l-0.099-0.037
		l-10.21-4.253l-7.356,15.114c-0.16,0.332-0.456,0.572-0.813,0.66c-0.101,0.025-0.198,0.038-0.298,0.038
		c-0.265,0-0.518-0.083-0.732-0.241l-3.156-2.322l-1.896,5.058l3.262,20.224h18.227v-15.598
		C164.537,129.16,165.093,128.605,165.775,128.605z M34.225,128.605c0.682,0,1.236,0.555,1.236,1.237v15.598h18.227l3.262-20.224
		l-1.898-5.059l-3.152,2.321c-0.215,0.158-0.469,0.241-0.734,0.241c-0.098,0-0.195-0.012-0.289-0.036
		c-0.362-0.088-0.661-0.329-0.822-0.661l-7.354-15.115l-10.234,4.262l-0.09,0.033c-0.499,0.173-12.373,4.473-12.373,19.371v14.865
		h12.983v-15.598C32.986,129.16,33.542,128.605,34.225,128.605z M81.573,130.095l7.135,14.662l9.593-7.062l-8.749-8.526
		c-0.317-0.309-0.443-0.752-0.336-1.186l0.864-3.505L81.573,130.095z M111.337,127.71c-0.034,0.265-0.15,0.506-0.334,0.697
		l-9.007,9.35l9.51,6.999l7.131-14.663l-7.01-4.627L111.337,127.71z M56.901,141.077l3.115-2.952
		c2.068-1.952,4.151-3.199,5.533-3.901l0.919-0.467l-1.199-7.432h-5.991L56.901,141.077z M133.53,133.757l0.919,0.466
		c1.382,0.701,3.464,1.948,5.535,3.902l3.108,2.894l-2.372-14.695h-5.989L133.53,133.757z M91.653,127.01l-0.039,0.607l0.445,0.541
		l8.125,7.913l8.691-9.021v-7.993l-1.609,0.103l-0.23,0.031c-1.538,0.341-3.081,0.512-4.613,0.512h-4.32
		c-1.573,0-3.163-0.181-4.725-0.539l-1.727-0.396V127.01z M67.601,125.239l1.221,7.571l10.653-4.44l0.177-0.055l0.208-0.055
		l9.317-6.15v-4.375l-0.762-0.395c-2.532-1.311-4.739-3.086-6.561-5.276l-1.398-1.68l-5.662,11.638
		c-0.161,0.331-0.458,0.572-0.816,0.66c-0.095,0.023-0.199,0.035-0.296,0.035c-0.261,0-0.522-0.085-0.733-0.241l-3.2-2.359
		L67.601,125.239z M120.515,128.367l10.662,4.443l1.221-7.571l-2.145-5.117l-3.202,2.356c-0.213,0.157-0.466,0.24-0.733,0.24
		c-0.101,0-0.2-0.012-0.303-0.037c-0.354-0.087-0.649-0.327-0.81-0.658l-5.447-11.197l-1.401,1.606
		c-1.767,2.027-3.868,3.678-6.244,4.909l-0.762,0.395v4.415l0.576,0.569l0.131,0.067L120.515,128.367z M132.303,118.611l2.195,5.24
		h6.417l1.959-5.216l-5.3-3.902L132.303,118.611z M57.125,118.633l1.956,5.218H65.5l2.196-5.24l-5.272-3.878L57.125,118.633z
		 M148.278,103.628c-0.048,0.228-0.157,0.435-0.314,0.598l-8.501,8.824l8.905,6.555l6.713-13.797l-6.374-4.209L148.278,103.628z
		 M72.848,103.915c0.046,0.389-0.086,0.768-0.364,1.039l-8.251,8.037l8.986,6.614l5.805-11.934l-0.266-0.6
		c-0.325-0.733-0.606-1.477-0.836-2.21l-0.15-0.48l-5.283-3.485L72.848,103.915z M122.864,103.96l-0.145,0.5
		c-0.314,1.084-0.714,2.141-1.19,3.139l-0.292,0.613l5.543,11.392l8.986-6.614l-8.252-8.039c-0.277-0.27-0.409-0.648-0.363-1.036
		l0.363-3.021L122.864,103.96z M44.916,105.809l6.713,13.796l8.905-6.552l-8.498-8.823c-0.159-0.166-0.269-0.374-0.317-0.601
		l-0.429-2.028L44.916,105.809z M108.039,71.83c-8.769,8.694-22.007,10.523-27.292,10.906l-1.31,0.095v15.731
		c0,10.293,8.375,18.666,18.668,18.666h4.318c10.291,0,18.665-8.374,18.667-18.668V82.595l-0.919-0.342
		c-5.241-1.953-8.253-6.521-9.856-10.01l-0.843-1.834L108.039,71.83z M131.18,96.388c-0.336,0.537-0.73,1.041-1.17,1.5l-0.394,0.409
		v5.132l0.408,0.511l7.624,7.427l8.188-8.498v-7.741l-1.716,0.379c-1.431,0.316-2.893,0.477-4.345,0.477h-4.099
		c-0.998,0-2.036-0.082-3.083-0.243l-0.919-0.142L131.18,96.388z M54.165,102.87l8.185,8.498l8.072-7.861l-0.036-0.642l-0.003-5.095
		l-0.325-0.392c-0.274-0.33-0.526-0.682-0.75-1.049l-0.503-0.822l-0.948,0.169c-1.154,0.205-2.344,0.309-3.535,0.309h-4.098
		c-1.454,0-2.915-0.16-4.344-0.477l-1.717-0.379V102.87z M75.131,85.172c-2.808,0.876-4.695,3.441-4.695,6.381
		c0,2.942,1.887,5.505,4.696,6.38l1.831,0.569V84.6L75.131,85.172z M123.563,98.496l1.827-0.563
		c0.511-0.157,1.017-0.389,1.504-0.688l0.272-0.167l0.174-0.268c0.138-0.213,0.331-0.375,0.558-0.47l0.298-0.125l0.214-0.243
		c1.084-1.227,1.681-2.796,1.681-4.419c0-2.941-1.888-5.505-4.697-6.379l-1.831-0.569V98.496z M145.016,50.66
		c-4.251,4.156-10.054,7.146-17.247,8.888l-1.714,0.415l0.781,1.581c1.933,3.917,2.913,8.127,2.913,12.512v10.877l0.376,0.406
		c1.574,1.699,2.44,3.905,2.44,6.213c0,0.13-0.004,0.258-0.011,0.386l-0.061,1.331l1.324,0.139c0.66,0.069,1.267,0.102,1.857,0.102
		h4.099c9.733,0,17.652-7.919,17.652-17.652V60.757l-0.911-0.345c-4.879-1.85-7.714-6.101-9.233-9.342l-0.843-1.8L145.016,50.66z
		 M68.192,51.257c-7.898,7.632-19.635,9.285-24.315,9.641l-1.305,0.099v14.863c0,9.733,7.92,17.652,17.654,17.652h4.098
		c0.781,0,1.599-0.058,2.43-0.173l1.264-0.176L67.96,91.54c0-2.246,0.835-4.419,2.352-6.105l0.362-0.403V74.056
		c0-5.221,1.437-10.331,4.157-14.777l0.598-0.978l-0.834-0.786c-1.634-1.54-3.03-3.509-4.149-5.852l-0.845-1.768L68.192,51.257z
		 M99.082,48.124c-14.299,0-25.932,11.633-25.932,25.932v9.06l1.76-0.449c0.28-0.071,0.572-0.129,0.894-0.175l1-0.144l0.188-1.003
		l0.04-0.136l0.025-0.067l0.101-0.192l0.053-0.081l0.073-0.088l0.072-0.074l0.072-0.065l0.076-0.055l0.082-0.049l0.13-0.065
		l0.085-0.032l0.134-0.038l0.101-0.018l0.188-0.013c0.279,0,21.172-0.182,30.758-13.434c0.233-0.321,0.607-0.513,1.002-0.513
		l0.25,0.025c0.475,0.097,0.852,0.466,0.959,0.939c0.023,0.107,2.624,11.016,11.408,13.014l0.11,0.031l0.083,0.032l0.111,0.052
		l0.112,0.066l0.083,0.062l0.086,0.077l0.051,0.053l0.089,0.11L123.401,81l0.037,0.066l0.043,0.099l0.038,0.113l0.246,1.003
		l0.939,0.209c0.286,0.041,0.55,0.091,0.831,0.158l1.739,0.414v-9.006c0-14.299-11.633-25.932-25.932-25.932H99.082z M159.9,75.79
		l1.884-0.669c2.503-0.889,4.185-3.265,4.185-5.914c0-2.648-1.682-5.025-4.185-5.914l-1.884-0.669V75.79z M38.215,63.293
		c-2.503,0.888-4.184,3.265-4.184,5.914c0,2.649,1.682,5.026,4.184,5.914l1.884,0.669V62.625L38.215,63.293z M61.249,28.055
		c-13.535,0-24.546,11.012-24.546,24.547v8.444l1.72-0.386c0.179-0.04,0.362-0.077,0.545-0.104l0.946-0.14l0.221-0.931
		c0.133-0.561,0.628-0.953,1.203-0.953c0.78-0.003,19.177-0.209,27.769-12.088c0.232-0.32,0.607-0.512,1.004-0.512l0.249,0.025
		c0.474,0.097,0.851,0.466,0.959,0.94c0.008,0.04,1.168,4.873,4.482,8.327l1.057,1.101l1.015-1.14
		c2.473-2.775,5.407-5.008,8.722-6.638l1.224-0.602l-0.56-1.244l-0.086-0.236c-2.782-10.84-12.559-18.412-23.774-18.412H61.249z
		 M146.951,45.298l0.248,0.025c0.475,0.097,0.852,0.466,0.959,0.94c0.025,0.106,2.521,10.424,10.779,12.303
		c0.463,0.106,0.818,0.458,0.928,0.921l0.218,0.925l0.939,0.145c0.19,0.03,0.376,0.067,0.563,0.108l1.711,0.372v-8.433
		c0-13.535-11.012-24.547-24.548-24.547h-2.148c-11.214,0-20.992,7.575-23.778,18.422l-0.05,0.155l-0.451,1.199l1.172,0.557
		c4.135,1.965,7.782,4.943,10.547,8.611l0.536,0.711l0.873-0.178c6.434-1.315,15.212-4.416,20.497-11.723
		C146.179,45.489,146.554,45.298,146.951,45.298z"/>
	<path style="fill:#B3B3B3;" d="M124.37,174.419v-0.375c-0.474-0.001-0.86-0.387-0.861-0.861c0.001-0.475,0.388-0.862,0.861-0.863
		h4.588v-16.878c0.001-0.473,0.388-0.86,0.863-0.861c0.475,0.001,0.862,0.388,0.863,0.861v16.878h14.561v-16.106
		c0.004-8.124-3.302-13.351-6.625-16.513c-3.324-3.167-6.644-4.293-6.75-4.328l-0.116,0.357l0.144-0.346l-11.224-4.675
		l-7.931,16.302c-0.114,0.234-0.318,0.399-0.566,0.46l-0.009,0.002l0.009-0.002l-0.209,0.025c-0.182,0-0.366-0.06-0.508-0.166
		l-0.001,0l-3.794-2.79l-2.247,5.983l3.516,21.798h7.195c0.473,0.001,0.86,0.388,0.861,0.863c-0.001,0.474-0.387,0.86-0.861,0.861
		H53.892c-0.474-0.001-0.862-0.389-0.863-0.866v-16.964c0-2.258,0.249-4.435,0.738-6.47l0.53-2.204H18.768
		c-0.474-0.001-0.862-0.389-0.863-0.866v-16.1c0.003-8.645,3.748-13.97,6.889-16.941c3.129-2.956,6.287-4.193,6.865-4.402
		l0.008-0.003l11.533-4.803l8.865-5.85v-4.702l-0.959-0.502c-5.521-2.887-9.404-8.264-10.382-14.374l-0.166-1.037l-0.044-0.276
		l-1.318-0.175c-4.141-0.549-7.269-4.122-7.267-8.302c0-2.096,0.781-4.102,2.202-5.654l0.371-0.404l0.099-0.108V52.603
		c0-7.347,2.988-14.007,7.814-18.833c4.827-4.826,11.486-7.814,18.833-7.814h2.149c12.117,0,22.717,8.177,25.779,19.884l0.462,1.767
		l1.757-0.502c2.513-0.717,5.099-1.08,7.686-1.08h2.263c2.46,0,4.921,0.329,7.316,0.977l1.732,0.469l0.462-1.734
		c3.097-11.646,13.686-19.781,25.749-19.78h2.148c7.347,0,14.007,2.988,18.833,7.814c4.826,4.827,7.814,11.486,7.814,18.833v10.438
		l0.469,0.512c1.421,1.551,2.202,3.558,2.202,5.654c0.001,4.18-3.126,7.753-7.266,8.302l-1.042,0.139l-0.277,0.037l-0.21,1.313
		c-0.98,6.11-4.863,11.488-10.382,14.374l-0.757,0.396l-0.201,0.105v4.702l8.865,5.85l11.471,4.78l0.008,0.003
		c0.603,0.219,3.809,1.479,6.928,4.426c3.141,2.972,6.887,8.297,6.89,16.941v16.072c0,0.239-0.099,0.465-0.261,0.63
		c-0.162,0.165-0.377,0.264-0.602,0.263h-35.527l0.528,2.203c0.488,2.038,0.737,4.216,0.737,6.473v16.936
		c0,0.24-0.099,0.465-0.261,0.631c-0.162,0.165-0.376,0.264-0.601,0.263H124.37V174.419v0.375h21.738
		c0.892-0.007,1.607-0.75,1.611-1.644v-16.936c0-2.312-0.254-4.548-0.757-6.648l-0.306-1.278l34.576,0
		c0.892-0.007,1.609-0.749,1.613-1.643v-16.072c0.003-8.87-3.873-14.42-7.125-17.487c-3.229-3.048-6.523-4.343-7.185-4.585
		l-0.129,0.352l0.144-0.346l-11.398-4.749l-8.469-5.588v-3.845l0.556-0.291c5.729-2.998,9.755-8.571,10.775-14.92l0.122-0.762
		l0.765-0.102c4.516-0.602,7.916-4.487,7.917-9.046c0-2.283-0.853-4.472-2.399-6.16l-0.272-0.297l0-10.146
		c-0.001-15.108-12.289-27.396-27.397-27.397h-2.148c-12.403,0-23.288,8.362-26.474,20.338l-0.268,1.006l-1.005-0.272
		c-2.458-0.665-4.985-1.003-7.511-1.003H99.08c-2.657,0-5.312,0.373-7.891,1.109l-1.019,0.291l-0.268-1.025
		c-3.148-12.038-14.047-20.444-26.504-20.444h-2.149c-15.108,0.001-27.396,12.289-27.397,27.397v10.146l-0.272,0.297
		c-1.547,1.688-2.4,3.878-2.4,6.161c0.001,4.559,3.402,8.444,7.919,9.046l0.765,0.102l0.122,0.762
		c1.018,6.348,5.044,11.921,10.775,14.92l0.556,0.291v3.845l-8.469,5.588l-11.46,4.773l0.144,0.346l-0.128-0.352
		c-0.64,0.233-3.886,1.506-7.124,4.562c-3.252,3.066-7.127,8.615-7.124,17.487v16.1c0.001,0.892,0.722,1.615,1.613,1.616h34.577
		l-0.308,1.279c-0.504,2.097-0.758,4.332-0.758,6.645v16.964c0.001,0.891,0.722,1.615,1.613,1.616h62.237
		c0.889-0.001,1.61-0.722,1.611-1.611c-0.001-0.89-0.721-1.612-1.611-1.613h-6.556L106.19,150.6l1.829-4.869l2.996,2.203l-0.001,0
		c0.275,0.203,0.61,0.312,0.953,0.312c0.131,0,0.262-0.016,0.389-0.047l-0.001,0c0.464-0.113,0.853-0.429,1.062-0.86l7.621-15.665
		l10.585,4.408l0.014,0.005c0.025,0.007,3.263,1.103,6.464,4.158c3.203,3.059,6.389,8.054,6.392,15.97v15.356h-13.061l0-16.128
		c-0.001-0.89-0.723-1.61-1.613-1.611c-0.89,0.001-1.612,0.721-1.613,1.611v16.128l-3.838,0c-0.89,0.001-1.61,0.723-1.611,1.613
		c0.001,0.889,0.722,1.61,1.611,1.611V174.419z M93.779,171.945v0.375h13.408l-3.391-21.025h-7.065l-3.392,21.025h0.44V171.945
		l0.37,0.06l3.221-19.96h5.787l3.149,19.525l-12.527,0V171.945l0.37,0.06L93.779,171.945z M70.179,154.206v0.375
		c0.474,0.001,0.861,0.387,0.862,0.861v16.878h20.552l3.514-21.781l-2.527-6.026l-3.83,2.818l0.005-0.003
		c-0.15,0.11-0.322,0.167-0.51,0.167l-0.207-0.025l-0.001,0c-0.248-0.061-0.454-0.227-0.57-0.463l-7.965-16.373l-11.326,4.72
		l-0.11,0.041l0.131,0.352l-0.122-0.354c-0.296,0.103-3.61,1.296-6.87,4.474c-3.26,3.175-6.453,8.361-6.449,16.348v16.106h14.562
		v-16.878c0.001-0.473,0.388-0.86,0.863-0.861V154.206v-0.375c-0.89,0.001-1.612,0.721-1.613,1.611v16.128H55.505l0-15.356
		c0.003-7.783,3.081-12.74,6.223-15.811c3.142-3.067,6.362-4.224,6.592-4.302l0.004-0.001l0.121-0.045l0.007-0.003l10.685-4.453
		l7.655,15.737c0.211,0.432,0.6,0.749,1.065,0.863l-0.001,0c0.126,0.031,0.257,0.047,0.387,0.047c0.344,0,0.679-0.109,0.956-0.315
		l3.056-2.249l2.075,4.949l-3.378,20.939H71.79v-16.128c-0.001-0.89-0.722-1.61-1.612-1.611V154.206z M94.47,143.588l-0.346,0.145
		l2.447,5.838h7.362l2.287-6.096l-6.115-4.5l-6.095,4.486l0.114,0.272L94.47,143.588l0.222,0.302l5.413-3.984l5.214,3.837
		l-1.906,5.078h-6.343l-2.255-5.378L94.47,143.588l0.222,0.302L94.47,143.588z M165.775,128.605v0.375
		c0.475,0.001,0.862,0.388,0.863,0.862v15.973h13.731v-15.24c0.003-7.606-3.122-12.554-6.262-15.568
		c-3.142-3.019-6.278-4.127-6.38-4.163l-0.12,0.355l0.132-0.351l-0.092-0.035l-10.53-4.386l-7.51,15.432l-0.001,0.001
		c-0.113,0.232-0.316,0.397-0.565,0.458l-0.002,0l0,0l-0.207,0.026c-0.187,0-0.358-0.057-0.509-0.167l-3.555-2.616l-2.105,5.615
		l3.329,20.637h18.921v-15.973c0.001-0.474,0.388-0.861,0.863-0.862V128.605v-0.375c-0.89,0.001-1.612,0.721-1.613,1.612v15.223
		H146.63l-3.195-19.81l1.687-4.501l2.756,2.028c0.276,0.204,0.61,0.314,0.954,0.314c0.13,0,0.26-0.017,0.389-0.049l-0.002,0
		c0.465-0.113,0.854-0.429,1.062-0.861l-0.001,0.001l7.201-14.796l9.889,4.119l0.105,0.039l0.006,0.002l0.006,0.002
		c0.022,0.006,3.079,1.085,6.1,3.993c3.023,2.913,6.029,7.632,6.032,15.028v14.49h-12.231l0-15.223
		c-0.001-0.89-0.723-1.611-1.613-1.612V128.605z M34.225,128.605v0.375c0.474,0.001,0.86,0.387,0.861,0.862v15.973h18.922
		l3.329-20.637l-2.107-5.616l-3.551,2.616c-0.152,0.111-0.325,0.168-0.512,0.168l-0.196-0.024l-0.003-0.001l-0.001,0
		c-0.256-0.063-0.46-0.229-0.574-0.461l-7.509-15.433l-10.554,4.395l-0.083,0.031l0.13,0.352l-0.123-0.354
		c-0.282,0.099-3.423,1.235-6.512,4.25c-3.09,3.011-6.116,7.924-6.112,15.475v15.24h13.733v-15.973
		c0.001-0.474,0.388-0.861,0.863-0.862V128.605v-0.375c-0.89,0.001-1.612,0.721-1.613,1.612v15.223H20.379l0-14.49
		c0.003-7.347,2.914-12.032,5.886-14.939c2.972-2.903,6.018-4.004,6.235-4.078l0.004-0.001l0.093-0.034l0.007-0.003l9.914-4.129
		l7.199,14.797c0.209,0.432,0.601,0.747,1.07,0.861l0.089-0.364l-0.093,0.363c0.124,0.032,0.253,0.048,0.382,0.048
		c0.344,0,0.679-0.11,0.957-0.314l2.753-2.028l1.689,4.501l-3.195,19.81H35.836v-15.223c-0.001-0.89-0.722-1.611-1.611-1.612
		V128.605z M81.573,130.095l-0.337,0.164l7.331,15.067l10.312-7.591l-9.066-8.834c-0.171-0.167-0.26-0.382-0.26-0.612l0.026-0.215
		l1.094-4.436l-9.581,6.326l0.144,0.296L81.573,130.095l0.207,0.313l7.706-5.088l-0.634,2.573c-0.032,0.131-0.048,0.263-0.048,0.394
		c-0.001,0.429,0.172,0.844,0.487,1.15l8.432,8.217l-8.875,6.534l-6.938-14.257L81.573,130.095l0.207,0.313L81.573,130.095z
		 M111.337,127.71l-0.372-0.048c-0.025,0.187-0.103,0.351-0.232,0.485l-9.305,9.658l10.218,7.52l7.472-15.364l-7.787-5.139
		l-0.366,2.839L111.337,127.71l0.372,0.048l0.212-1.647l6.234,4.115l-6.79,13.963l-8.803-6.479l8.71-9.042
		c0.24-0.248,0.392-0.567,0.436-0.909L111.337,127.71z M56.901,141.077l0.258,0.272l3.115-2.952l0,0
		c2.034-1.921,4.087-3.15,5.446-3.84l1.163-0.591l-1.293-8.017h-6.63l-2.605,16.161l0.804-0.762L56.901,141.077l0.37,0.06
		l2.327-14.436h5.352l1.104,6.846l-0.675,0.343c-1.407,0.715-3.519,1.979-5.621,3.963l-3.116,2.952L56.901,141.077l0.37,0.06
		L56.901,141.077z M133.53,133.757l-0.17,0.334l0.919,0.466c1.358,0.689,3.41,1.917,5.447,3.84l3.91,3.641l-2.597-16.089h-6.628
		l-1.295,8.018l0.244,0.124L133.53,133.757l0.37,0.06l1.149-7.117h5.351l2.147,13.3l-2.308-2.149l0.002,0.002
		c-2.104-1.986-4.216-3.25-5.622-3.963l-0.919-0.466L133.53,133.757l0.37,0.06L133.53,133.757z M91.653,127.01l-0.374-0.024
		l-0.039,0.607l-0.009,0.148l0.539,0.655l0.013,0.016l8.41,8.19l9.058-9.401v-8.544l-2.02,0.13l-0.243,0.032l-0.016,0.002
		l-0.016,0.003c-1.512,0.335-3.028,0.503-4.531,0.503h-4.32c-1.544,0-3.106-0.178-4.641-0.53l-2.185-0.501v8.712H91.653
		l-0.374-0.024L91.653,127.01h0.375v-7.771l1.268,0.291c1.589,0.364,3.207,0.548,4.809,0.548h4.32c1.56,0,3.13-0.174,4.694-0.521
		l-0.081-0.366l0.05,0.372l0.217-0.029l1.197-0.077v7.442l-8.325,8.64l-7.84-7.635l-0.338-0.411l0.029-0.459l0.001-0.012v-0.012
		H91.653z M67.601,125.239l-0.37,0.06l1.297,8.04l11.075-4.616l0.152-0.047l0.2-0.053l0.06-0.016l9.537-6.295v-4.805l-0.965-0.5
		c-2.488-1.289-4.655-3.031-6.445-5.183l-1.769-2.127l-5.916,12.16c-0.113,0.232-0.318,0.398-0.569,0.461l0.003-0.001l-0.209,0.025
		c-0.18,0-0.366-0.06-0.511-0.168l-3.584-2.641l-2.372,5.659l0.017,0.106L67.601,125.239l0.346,0.145l1.962-4.68l2.817,2.076
		l0.001,0c0.277,0.203,0.612,0.313,0.955,0.313c0.129,0,0.259-0.016,0.384-0.046l0.003-0.001c0.465-0.115,0.854-0.43,1.063-0.861
		l5.408-11.116l1.026,1.234c1.853,2.228,4.101,4.035,6.677,5.369l0.56,0.29v3.945l-9.097,6.005l-0.148,0.039l-0.008,0.002
		l-0.185,0.058l-0.017,0.005l-10.23,4.264l-1.146-7.102L67.601,125.239l0.346,0.145L67.601,125.239z M120.515,128.367l-0.144,0.346
		l11.101,4.626l1.313-8.146l-2.37-5.656l-3.586,2.639c-0.15,0.11-0.321,0.167-0.511,0.167l-0.214-0.027l0.001,0
		c-0.245-0.061-0.45-0.226-0.563-0.458l-5.695-11.707l-1.773,2.033c-1.737,1.992-3.799,3.613-6.134,4.822l-0.762,0.395l-0.202,0.105
		v4.8l0.729,0.719l0.164,0.084l8.47,5.589l0.033,0.014L120.515,128.367l0.207-0.313l-8.474-5.592l-0.098-0.05l-0.424-0.418v-4.03
		l0.56-0.29c2.418-1.251,4.557-2.933,6.354-4.995l1.029-1.18l5.2,10.688c0.208,0.43,0.595,0.744,1.057,0.858l0.001,0
		c0.129,0.032,0.26,0.048,0.392,0.048c0.345,0,0.679-0.109,0.956-0.313l2.818-2.073l1.919,4.579l-1.128,6.996l-10.223-4.261
		L120.515,128.367l0.207-0.313L120.515,128.367z M132.303,118.611l-0.346,0.145l2.291,5.47h6.927l2.15-5.725l-5.751-4.234
		l-5.732,4.217l0.114,0.272L132.303,118.611l0.222,0.302l5.049-3.715l4.849,3.57l-1.768,4.707l-5.908,0l-2.099-5.009
		L132.303,118.611l0.222,0.302L132.303,118.611z M57.125,118.633l-0.351,0.132l2.048,5.461h6.928l2.406-5.742l-5.732-4.217
		l-5.75,4.232l0.1,0.266L57.125,118.633l0.222,0.302l5.077-3.737l4.812,3.54l-1.986,4.737h-5.909l-1.865-4.974L57.125,118.633
		l0.222,0.302L57.125,118.633z M148.278,103.628l-0.367-0.077c-0.034,0.161-0.11,0.304-0.217,0.415l-8.798,9.132l9.612,7.076
		l7.054-14.497l-7.108-4.693l-0.55,2.596l0.006-0.029L148.278,103.628l0.367,0.078l0.315-1.489l5.64,3.724l-6.373,13.096
		l-8.198-6.035l8.204-8.515c0.208-0.215,0.349-0.486,0.411-0.781l0,0L148.278,103.628z M72.848,103.915l-0.372,0.044l0.006,0.108
		c-0.001,0.235-0.091,0.452-0.26,0.619l-8.567,8.346l9.705,7.143l6.078-12.496l-0.337-0.759c-0.319-0.72-0.596-1.451-0.821-2.17
		l-0.15-0.479l-0.04-0.128l-6.068-4.003l0.454,3.82L72.848,103.915l0.372-0.044l-0.263-2.216l4.497,2.966l0.11,0.352
		c0.235,0.747,0.521,1.504,0.851,2.25l0.195,0.44l-5.532,11.373l-8.268-6.085l7.934-7.729c0.314-0.306,0.487-0.722,0.487-1.155
		l-0.012-0.196L72.848,103.915z M122.864,103.96l-0.36-0.104l-0.145,0.5c-0.309,1.065-0.702,2.103-1.168,3.083l-0.292,0.613
		l-0.077,0.163l5.818,11.959l9.704-7.143l-8.571-8.349l0.003,0.003c-0.168-0.165-0.258-0.381-0.259-0.615l0.006-0.107l0.459-3.824
		l-5.441,3.586l-0.038,0.133L122.864,103.96l0.206,0.313l3.976-2.62l-0.267,2.219l-0.012,0.197
		c-0.001,0.432,0.172,0.847,0.485,1.152l7.936,7.731l-8.267,6.085l-5.267-10.825l0.214-0.45c0.484-1.018,0.891-2.092,1.211-3.196
		l0.145-0.5L122.864,103.96l0.206,0.313L122.864,103.96z M44.916,105.809l-0.337,0.164l6.91,14.2l9.612-7.073l-8.795-9.132
		c-0.11-0.115-0.187-0.259-0.22-0.418l-0.543-2.567l-7.108,4.693l0.144,0.296L44.916,105.809l0.207,0.313l5.915-3.905l0.315,1.489
		c0.062,0.295,0.205,0.566,0.414,0.783l8.201,8.515l-8.198,6.032l-6.516-13.391L44.916,105.809l0.207,0.313L44.916,105.809z
		 M108.039,71.83l-0.264-0.266C99.13,80.148,85.967,81.987,80.72,82.362l-1.658,0.12v16.08c0.001,10.5,8.542,19.041,19.043,19.041
		h4.318c10.499-0.001,19.039-8.542,19.042-19.043l0-16.226l-1.163-0.433c-5.1-1.896-8.064-6.37-9.646-9.815l-1.067-2.321
		l-1.814,1.798L108.039,71.83l0.264,0.266l1.053-1.043l0.619,1.347c1.625,3.532,4.684,8.195,10.066,10.205l0.675,0.251l0,15.705
		c-0.001,10.086-8.209,18.293-18.292,18.293h-4.318c-5.044,0-9.615-2.051-12.929-5.364c-3.313-3.313-5.364-7.884-5.364-12.928
		V83.179l0.962-0.07c5.322-0.391,18.636-2.209,27.529-11.013L108.039,71.83z M131.18,96.388l-0.318-0.199
		c-0.322,0.515-0.7,0.999-1.123,1.439l-0.394,0.409l-0.105,0.109v5.415l0.49,0.613l0.015,0.018l7.911,7.707l8.554-8.878v-8.359
		l-2.172,0.48c-1.405,0.311-2.839,0.468-4.264,0.468h-4.099c-0.978,0-1.996-0.08-3.026-0.239l-0.919-0.142l-0.244-0.038
		l-0.624,0.997L131.18,96.388l0.318,0.199l0.362-0.578l0.675,0.104c1.066,0.164,2.122,0.248,3.141,0.248h4.099
		c1.48,0,2.968-0.163,4.426-0.486l1.26-0.278v7.123l-7.821,8.117l-7.337-7.148l-0.311-0.39v-4.85l0.289-0.301
		c0.459-0.477,0.868-1.002,1.218-1.561L131.18,96.388z M54.165,102.87l-0.27,0.26l8.447,8.769l8.464-8.243l-0.045-0.802
		l-0.003-5.219l-0.411-0.496c-0.262-0.316-0.504-0.654-0.719-1.005l-0.503-0.822l-0.134-0.218l-1.2,0.214
		c-1.132,0.201-2.3,0.303-3.47,0.303h-4.098c-1.426,0-2.861-0.157-4.262-0.468l-2.173-0.48v8.359l0.105,0.109L54.165,102.87h0.375
		v-7.274l1.261,0.279c1.455,0.322,2.943,0.486,4.424,0.486h4.098c1.213,0,2.425-0.106,3.601-0.315l0.696-0.124l0.369,0.604
		c0.233,0.382,0.496,0.749,0.781,1.093l0.238,0.288l0.003,4.97l0.027,0.481l-7.68,7.479l-7.924-8.226L54.165,102.87h0.375H54.165z
		 M75.131,85.172l-0.112-0.358c-2.963,0.924-4.959,3.636-4.958,6.739c-0.001,3.104,1.996,5.816,4.96,6.738l2.317,0.721V84.09
		l-2.319,0.724L75.131,85.172l0.112,0.358l1.345-0.42v12.883l-1.344-0.418c-2.654-0.827-4.432-3.242-4.433-6.022
		c0.001-2.778,1.779-5.194,4.432-6.023L75.131,85.172z M123.563,98.496l0.11,0.358l1.827-0.563c0.543-0.167,1.078-0.413,1.59-0.727
		l0.272-0.168l0.072-0.044l0.22-0.339c0.099-0.152,0.232-0.263,0.388-0.329l0.298-0.124l0.08-0.033l0.271-0.308
		c1.144-1.294,1.775-2.952,1.775-4.667c0.001-3.104-1.996-5.816-4.961-6.737l-2.317-0.721v14.91l0.485-0.15L123.563,98.496h0.375
		V85.113l1.344,0.418c2.654,0.827,4.433,3.242,4.434,6.021c0,1.53-0.563,3.011-1.587,4.171l-0.157,0.178l-0.219,0.091
		c-0.298,0.125-0.551,0.339-0.728,0.612l-0.128,0.197l-0.2,0.123c-0.462,0.284-0.939,0.502-1.418,0.649l-1.827,0.563L123.563,98.496
		h0.375H123.563z M145.016,50.66l-0.262-0.268c-4.192,4.099-9.929,7.062-17.073,8.791l-2.17,0.525l0.989,2.002
		c1.908,3.867,2.874,8.017,2.874,12.346V85.08l0.475,0.514c1.51,1.631,2.34,3.745,2.341,5.959c0,0.122-0.004,0.244-0.01,0.367
		l-0.078,1.686l1.676,0.176c0.672,0.07,1.292,0.105,1.896,0.105h4.099c9.941-0.001,18.026-8.086,18.027-18.027V60.498l-1.153-0.437
		c-4.741-1.793-7.529-5.953-9.026-9.15l-1.067-2.279l-1.8,1.76L145.016,50.66l0.262,0.268l1.044-1.021l0.619,1.322
		c1.54,3.284,4.422,7.627,9.44,9.534l0.669,0.253l0,14.843c0,4.764-1.937,9.081-5.066,12.211c-3.13,3.129-7.447,5.066-12.211,5.066
		h-4.099c-0.575,0-1.169-0.033-1.818-0.1l-0.972-0.102l0.045-0.978l0,0.002c0.007-0.133,0.011-0.267,0.011-0.405
		c0-2.402-0.903-4.701-2.54-6.468l-0.276-0.298l0-10.73c0-4.441-0.994-8.711-2.952-12.678l-0.574-1.161l1.259-0.305
		c7.243-1.754,13.111-4.771,17.421-8.984L145.016,50.66z M68.192,51.257l-0.261-0.27c-7.776,7.526-19.441,9.188-24.083,9.536
		l-1.651,0.126v15.21c0.001,9.941,8.087,18.026,18.029,18.027h4.098c0.8,0,1.634-0.06,2.482-0.177l1.599-0.222l-0.069-1.961
		L67.96,91.54l0.375,0c0-2.153,0.801-4.236,2.256-5.855l0.362-0.403l0.096-0.107v-11.12c0-5.153,1.418-10.195,4.102-14.582
		l0.757-1.238l-1.056-0.995c-1.595-1.504-2.966-3.433-4.068-5.74l-1.069-2.238l-1.784,1.724L68.192,51.257l0.261,0.27l1.035-1
		l0.62,1.299c1.136,2.378,2.558,4.386,4.23,5.963l0.612,0.577l-0.439,0.718c-2.756,4.505-4.212,9.683-4.212,14.973v10.832
		l-0.266,0.296c-1.578,1.755-2.448,4.016-2.448,6.356l0,0.006l0.045,1.291l-0.929,0.129c-0.815,0.113-1.616,0.17-2.379,0.17h-4.098
		c-4.764,0-9.082-1.937-12.212-5.066c-3.13-3.13-5.067-7.447-5.067-12.211V61.344l0.958-0.073
		c4.717-0.364,16.527-2.007,24.547-9.745L68.192,51.257z M99.082,48.124v-0.375c-14.507,0.001-26.306,11.8-26.307,26.307v9.543
		l2.228-0.569c0.266-0.068,0.544-0.122,0.855-0.168l1-0.144l0.266-0.038l0.234-1.248l0.031-0.105l0.012-0.032l0.081-0.155
		l0.032-0.048l0.05-0.06l0.053-0.054l0.049-0.044l0.046-0.034l0.055-0.033l0.1-0.05l0.052-0.019l0.1-0.028l0.063-0.011l0.168-0.012
		l-0.026-0.374v0.375c0.165-0.001,5.48-0.046,11.985-1.76c6.5-1.715,14.204-5.097,19.077-11.829
		c0.162-0.224,0.426-0.359,0.698-0.358v-0.375l-0.038,0.373l0.25,0.025l0.038-0.373l-0.075,0.367
		c0.33,0.067,0.595,0.326,0.669,0.655l0.366-0.083l-0.367,0.079c0.021,0.09,0.681,2.862,2.462,5.908
		c1.778,3.037,4.694,6.359,9.23,7.393l0.083-0.366l-0.102,0.361l0.092,0.026l0.055,0.021l0.083,0.039l0.079,0.047l0.055,0.041
		l0.065,0.057l0.03,0.031l0.066,0.081l0.055,0.086l0.022,0.039l0.03,0.068l0.028,0.082l0.242,0.987l0.056,0.226l1.181,0.262
		l0.014,0.002c0.276,0.04,0.527,0.087,0.798,0.152l2.201,0.524v-9.48c-0.001-14.507-11.8-26.306-26.307-26.307h-2.262V48.124v0.375
		h2.262c7.047,0,13.434,2.865,18.063,7.494c4.628,4.629,7.494,11.016,7.494,18.063v8.531l-1.277-0.304
		c-0.291-0.069-0.568-0.122-0.865-0.165l-0.053,0.371l0.081-0.366l-0.712-0.158l-0.191-0.777l-0.004-0.016l-0.044-0.128
		l-0.005-0.015l-0.05-0.113l-0.007-0.016l-0.045-0.081l-0.006-0.011l-0.08-0.123l-0.011-0.017l-0.102-0.126l-0.011-0.013
		l-0.063-0.065l-0.01-0.01l-0.096-0.086l-0.012-0.011l-0.096-0.072l-0.016-0.012l-0.129-0.077l-0.016-0.009l-0.127-0.06
		l-0.011-0.005l-0.095-0.037l-0.017-0.007l-0.127-0.036l-0.01-0.003l-0.009-0.002c-4.248-0.964-7.025-4.096-8.749-7.04
		c-1.721-2.935-2.374-5.671-2.376-5.687l0-0.002l0-0.002c-0.141-0.618-0.63-1.096-1.25-1.223l-0.018-0.004l-0.269-0.027
		l-0.019-0.002h-0.019c-0.516,0-1.002,0.25-1.305,0.668c-4.713,6.52-12.248,9.855-18.661,11.544
		c-6.408,1.69-11.679,1.736-11.793,1.735h-0.013l-0.201,0.014l-0.019,0.001l-0.121,0.021l-0.019,0.003L77.7,80.08l-0.015,0.004
		l-0.099,0.037l-0.018,0.007l-0.148,0.074l-0.013,0.006l-0.094,0.056l-0.015,0.009l-0.09,0.066l-0.016,0.011l-0.086,0.077
		l-0.008,0.008l-0.08,0.082l-0.011,0.011l-0.083,0.1l-0.013,0.016l-0.065,0.097l-0.01,0.016l-0.11,0.209l-0.011,0.021l-0.033,0.089
		l-0.005,0.013l-0.044,0.149l-0.005,0.018l-0.142,0.758l-0.735,0.106c-0.334,0.048-0.64,0.108-0.933,0.183l-1.293,0.33l0-8.577
		c0-7.047,2.865-13.434,7.494-18.063c4.629-4.628,11.016-7.494,18.063-7.494V48.124z M159.9,75.79l0.126,0.353l1.884-0.669
		c2.653-0.942,4.434-3.459,4.435-6.268c-0.001-2.808-1.782-5.325-4.435-6.267l-2.384-0.847v14.229l0.501-0.178L159.9,75.79h0.375
		V63.155l1.383,0.491c2.354,0.835,3.936,3.072,3.936,5.56c0.001,2.489-1.582,4.726-3.936,5.561l-1.884,0.669L159.9,75.79h0.375
		H159.9z M38.215,63.293l-0.125-0.353c-2.652,0.942-4.433,3.458-4.434,6.267c0.001,2.809,1.781,5.326,4.434,6.268l2.384,0.846
		V62.094l-2.384,0.846L38.215,63.293l0.125,0.353l1.383-0.491v12.103l-1.383-0.491c-2.353-0.835-3.935-3.072-3.935-5.561
		c-0.001-2.489,1.582-4.725,3.935-5.56L38.215,63.293z M61.249,28.055V27.68C47.506,27.681,36.328,38.86,36.327,52.603v8.913
		l2.177-0.489c0.174-0.039,0.347-0.074,0.518-0.099l-0.001,0l0.946-0.14l0.251-0.037l0.279-1.178
		c0.094-0.394,0.435-0.663,0.838-0.664h0.001h0c0.411-0.002,5.232-0.054,11.05-1.603c5.815-1.55,12.646-4.596,17.021-10.64
		c0.16-0.222,0.424-0.357,0.7-0.356v-0.375l-0.037,0.373l0.249,0.025l0.037-0.373l-0.075,0.367c0.329,0.067,0.594,0.326,0.669,0.655
		l0.366-0.083l-0.367,0.075c0.007,0.031,0.023,0.099,0.065,0.251c0.284,1.029,1.539,5.153,4.514,8.261l1.338,1.394l1.285-1.443
		c2.441-2.74,5.336-4.942,8.607-6.551l1.549-0.763l-0.702-1.561l-0.081-0.223l-0.352,0.128l0.363-0.093
		C84.71,35.368,74.783,27.68,63.397,27.68h-2.149V28.055v0.375h2.149c11.045,0,20.671,7.457,23.411,18.13l0.005,0.018l0.092,0.253
		l0.005,0.013l0.417,0.926l-0.899,0.443c-3.358,1.65-6.332,3.914-8.836,6.725l-0.745,0.837l-0.777-0.809
		c-1.612-1.679-2.713-3.714-3.406-5.332c-0.347-0.809-0.592-1.513-0.751-2.016c-0.079-0.251-0.137-0.452-0.175-0.591l-0.042-0.159
		l-0.01-0.041l-0.002-0.01l-0.185,0.044l0.186-0.038l-0.001-0.006l-0.185,0.044l0.186-0.038l-0.001-0.004l-0.001-0.004
		c-0.141-0.618-0.63-1.097-1.25-1.224l-0.019-0.004l-0.268-0.027l-0.019-0.002h-0.019c-0.517,0-1.004,0.248-1.307,0.667
		c-4.217,5.835-10.88,8.831-16.607,10.355c-5.723,1.525-10.491,1.577-10.86,1.578h0.001c-0.748-0.001-1.396,0.513-1.567,1.241
		l-0.162,0.683l-0.694,0.103l-0.001,0c-0.196,0.029-0.387,0.068-0.571,0.109l-1.263,0.284v-7.976c0-6.665,2.71-12.706,7.088-17.084
		c4.378-4.378,10.419-7.088,17.084-7.088L61.249,28.055z M146.951,45.298l-0.038,0.373l0.248,0.025l0.038-0.373l-0.075,0.367
		c0.33,0.067,0.594,0.325,0.669,0.655l0.001,0.004l0-0.002c0.019,0.08,0.655,2.711,2.344,5.591c1.686,2.873,4.444,6.018,8.717,6.992
		c0.325,0.075,0.568,0.316,0.646,0.642l0.218,0.924l0.058,0.246l1.189,0.184c0.178,0.028,0.357,0.064,0.541,0.104l2.166,0.471
		v-8.898c-0.001-13.743-11.179-24.922-24.923-24.922h-2.148c-11.385,0-21.312,7.691-24.141,18.704l0.363,0.093l-0.357-0.115
		l-0.047,0.146l-0.569,1.513l1.483,0.705c4.08,1.939,7.68,4.878,10.408,8.498l0.536,0.711l0.142,0.189l1.105-0.225
		c6.477-1.326,15.347-4.443,20.726-11.871c0.16-0.222,0.424-0.357,0.7-0.357V45.298l-0.038,0.373L146.951,45.298v-0.375
		c-0.517,0-1.004,0.249-1.307,0.667c-5.191,7.186-13.877,10.272-20.268,11.576l-0.641,0.13l-0.394-0.522
		c-2.802-3.717-6.495-6.732-10.685-8.724l-0.86-0.409l0.33-0.876l0.003-0.009l0.053-0.164l0.003-0.011l0.003-0.011
		c2.743-10.681,12.371-18.14,23.414-18.14h2.148c6.665,0,12.706,2.71,17.085,7.088c4.378,4.378,7.088,10.419,7.088,17.084v7.967
		l-1.256-0.273c-0.191-0.041-0.384-0.081-0.585-0.112l-0.69-0.107l-0.16-0.679l0,0c-0.141-0.599-0.609-1.064-1.209-1.2
		c-3.985-0.904-6.604-3.859-8.237-6.64c-1.63-2.776-2.255-5.356-2.26-5.382l0,0.002c-0.141-0.618-0.629-1.097-1.25-1.224
		l-0.019-0.004l-0.267-0.027l-0.019-0.002h-0.019V45.298z"/>
</g>
<g>
</g>
<g>
</g>
<g>
</g>
<g>
</g>
<g>
</g>
<g>
</g>
<g>
</g>
<g>
</g>
<g>
</g>
<g>
</g>
<g>
</g>
<g>
</g>
<g>
</g>
<g>
</g>
<g>
</g>
</svg>
