<?xml version="1.0" encoding="iso-8859-1"?>
<!-- Generator: Adobe Illustrator 18.0.0, SVG Export Plug-In . SVG Version: 6.00 Build 0)  -->
<!DOCTYPE svg PUBLIC "-//W3C//DTD SVG 1.1//EN" "http://www.w3.org/Graphics/SVG/1.1/DTD/svg11.dtd">
<svg version="1.1" id="Layer_1" xmlns="http://www.w3.org/2000/svg" xmlns:xlink="http://www.w3.org/1999/xlink" x="0px" y="0px"
	 viewBox="0 0 200 200" style="enable-background:new 0 0 200 200;" xml:space="preserve">
<rect x="234.125" y="71.041" style="fill:#F15A24;" width="3.773" height="3.773"/>
<g>
	<path style="fill:#B3B3B3;" d="M147.743,175.336c-0.861,0-1.563-0.701-1.563-1.563v-9.504H53.819v9.504
		c0,0.861-0.701,1.563-1.563,1.563H30.124c-0.861,0-1.563-0.701-1.563-1.563v-9.504h-4.761c-0.861,0-1.563-0.701-1.563-1.563V41.715
		c0-7.196,5.854-13.05,13.05-13.05h129.424c7.196,0,13.05,5.854,13.05,13.05v120.992c0,0.861-0.701,1.563-1.563,1.563h-4.761v9.504
		c0,0.861-0.701,1.563-1.563,1.563H147.743z M149.306,172.211h19.007v-7.942h-19.007V172.211z M31.687,172.211h19.007v-7.942H31.687
		V172.211z M35.288,31.79c-5.472,0-9.925,4.453-9.925,9.925v119.429h149.274V41.715c0-5.472-4.453-9.925-9.925-9.925H35.288z"/>
	<path style="fill:#B3B3B3;" d="M147.743,175.336v-0.118c-0.796-0.001-1.443-0.649-1.445-1.445v-9.622H53.701v9.622
		c-0.001,0.796-0.649,1.443-1.445,1.445H30.124c-0.796-0.001-1.443-0.649-1.445-1.445v-9.622h-4.879
		c-0.796-0.001-1.443-0.649-1.445-1.445V41.715c0-3.566,1.45-6.798,3.792-9.14c2.342-2.342,5.574-3.792,9.14-3.792h129.424
		c3.566,0,6.798,1.45,9.14,3.792c2.342,2.342,3.792,5.574,3.792,9.14v120.992c-0.001,0.796-0.649,1.443-1.445,1.445h-4.879v9.622
		c-0.001,0.796-0.649,1.443-1.445,1.445h-22.132V175.336v0.118h22.132c0.927,0,1.681-0.754,1.681-1.681v-9.386h4.643
		c0.927,0,1.68-0.754,1.681-1.681V41.715c0-7.261-5.907-13.168-13.168-13.168H35.288c-7.261,0-13.168,5.907-13.168,13.168v120.992
		c0,0.927,0.754,1.68,1.681,1.681h4.643l0,9.386c0,0.927,0.754,1.68,1.681,1.681h22.133c0.927,0,1.68-0.754,1.681-1.681v-9.386
		h92.125v9.386c0,0.927,0.754,1.68,1.681,1.681V175.336z M149.306,172.211v0.118h19.126v-8.178h-19.244v8.178h0.118V172.211h0.118
		v-7.824h18.771v7.706l-18.889,0V172.211h0.118H149.306z M31.687,172.211v0.118h19.126v-8.178H31.569v8.178h0.118V172.211h0.118
		v-7.824h18.771v7.706l-18.889,0V172.211h0.118H31.687z M35.288,31.79v-0.118c-5.538,0-10.043,4.505-10.043,10.043v119.547h149.51
		V41.715c0-5.538-4.505-10.043-10.043-10.043H35.288L35.288,31.79v0.118h129.424c2.704,0,5.155,1.1,6.931,2.876
		c1.776,1.776,2.876,4.227,2.876,6.931v119.311H25.481V41.715c0-2.704,1.1-5.155,2.876-6.931c1.776-1.776,4.227-2.876,6.931-2.876
		V31.79z"/>
	<path style="fill:#B3B3B3;" d="M35.499,150.358c-0.861,0-1.563-0.701-1.563-1.563v-46.794c0-0.861,0.701-1.563,1.563-1.563h49.43
		l15.629-10.155H35.499c-0.861,0-1.563-0.701-1.563-1.563V41.927c0-0.861,0.701-1.563,1.563-1.563H164.5
		c0.861,0,1.563,0.701,1.563,1.563v46.794c0,0.861-0.701,1.563-1.563,1.563h-12.758l7.267,10.155h5.491
		c0.861,0,1.563,0.701,1.563,1.563v46.794c0,0.861-0.701,1.563-1.563,1.563H35.499z M37.062,147.233h125.877v-43.669H37.062V147.233
		z M131.931,87.75c0.498,0,0.955,0.228,1.253,0.625l9.016,12.022h12.936l-20.442-28.564l-43.965,28.564h31.596l-2.391-3.191
		c-0.251-0.334-0.356-0.746-0.298-1.159c0.059-0.413,0.276-0.779,0.609-1.028c0.273-0.205,0.597-0.313,0.936-0.313
		c0.497,0,0.953,0.227,1.252,0.625l3.8,5.066h12.061l-7.61-10.148c-0.251-0.334-0.356-0.745-0.297-1.158
		c0.059-0.413,0.275-0.779,0.608-1.028C131.269,87.858,131.592,87.75,131.931,87.75z M135.094,68.146
		c0.504,0,0.979,0.244,1.272,0.654l13.14,18.359h13.433V43.489H37.062v43.669h68.308l28.875-18.76
		C134.499,68.234,134.792,68.146,135.094,68.146z"/>
	<path style="fill:#B3B3B3;" d="M35.499,150.358v-0.118c-0.796-0.001-1.443-0.649-1.445-1.445v-46.794
		c0.001-0.796,0.649-1.443,1.445-1.445h49.465l15.993-10.391H35.499c-0.796-0.001-1.443-0.649-1.445-1.445V41.927
		c0.001-0.796,0.649-1.443,1.445-1.445H164.5c0.796,0.001,1.443,0.649,1.445,1.445v46.794c-0.001,0.796-0.649,1.443-1.445,1.445
		h-12.988l7.436,10.391h5.552c0.796,0.001,1.443,0.649,1.445,1.445v46.794c-0.001,0.796-0.649,1.443-1.445,1.445H35.499V150.358
		v0.118H164.5c0.927,0,1.68-0.754,1.681-1.681v-46.794c0-0.927-0.754-1.68-1.681-1.681h-5.431l-7.098-9.919H164.5
		c0.927,0,1.68-0.754,1.681-1.681V41.927c0-0.927-0.754-1.68-1.681-1.681H35.499c-0.927,0-1.68,0.754-1.681,1.681v46.794
		c0,0.927,0.754,1.68,1.681,1.681h64.661l-15.266,9.919H35.499c-0.927,0-1.68,0.754-1.681,1.681v46.794
		c0,0.927,0.754,1.68,1.681,1.681V150.358z M37.062,147.233v0.118h125.995v-43.905H36.944v43.905h0.118V147.233h0.118v-43.551
		H162.82l0,43.433H37.062V147.233h0.118H37.062z M131.931,87.75v0.118c0.462,0,0.882,0.21,1.159,0.578l9.051,12.069h13.225
		l-20.641-28.842l-44.394,28.842h32.23l-2.533-3.38c-0.19-0.254-0.29-0.554-0.29-0.865l0.015-0.206l0,0
		c0.055-0.383,0.254-0.719,0.563-0.951l0,0c0.253-0.19,0.552-0.289,0.865-0.289c0.461,0,0.881,0.209,1.157,0.578l3.835,5.114h12.356
		l-7.752-10.336c-0.19-0.253-0.289-0.552-0.289-0.862l0.015-0.208l0,0c0.054-0.383,0.254-0.719,0.562-0.951l0,0
		c0.253-0.19,0.551-0.289,0.865-0.289V87.75v-0.118c-0.364,0-0.713,0.116-1.006,0.337l-0.009,0.006l0.009-0.007
		c-0.358,0.268-0.592,0.663-0.654,1.106l0,0l-0.017,0.242c0,0.361,0.116,0.711,0.337,1.004l7.469,9.959h-11.766l-3.764-5.019
		c-0.32-0.427-0.813-0.672-1.346-0.672c-0.364,0-0.714,0.116-1.007,0.337l0,0c-0.358,0.268-0.592,0.663-0.655,1.106l0,0l-0.017,0.24
		c0,0.361,0.116,0.713,0.337,1.007l2.25,3.002H91.128l43.537-28.285l20.243,28.285H142.26l-8.981-11.974
		c-0.32-0.427-0.813-0.673-1.348-0.673V87.75z M135.094,68.146v0.118c0.465,0,0.906,0.226,1.176,0.604l13.175,18.408h13.611V43.371
		H36.944v43.905h68.461l28.905-18.779l0,0c0.236-0.153,0.506-0.233,0.785-0.233V68.146v-0.118c-0.324,0-0.64,0.094-0.913,0.271
		l-28.846,18.741H37.18V43.607H162.82v43.433h-13.254l-13.105-18.309c-0.315-0.44-0.826-0.703-1.368-0.703V68.146z"/>
	<path style="fill:#B3B3B3;" d="M100,133.6c-4.523,0-8.202-3.68-8.202-8.202c0-4.522,3.68-8.202,8.202-8.202
		c4.523,0,8.202,3.68,8.202,8.202C108.202,129.921,104.523,133.6,100,133.6z M100,120.32c-2.799,0-5.077,2.278-5.077,5.077
		s2.278,5.077,5.077,5.077c2.799,0,5.077-2.278,5.077-5.077S102.799,120.32,100,120.32z"/>
	<path style="fill:#B3B3B3;" d="M100,133.6v-0.118c-2.229,0-4.249-0.906-5.714-2.371c-1.464-1.464-2.37-3.485-2.371-5.714
		c0-2.229,0.906-4.249,2.371-5.713c1.464-1.464,3.485-2.37,5.714-2.37c2.229,0,4.25,0.906,5.714,2.37
		c1.464,1.464,2.37,3.484,2.371,5.713c0,2.229-0.906,4.25-2.371,5.714c-1.464,1.464-3.485,2.37-5.714,2.371V133.6v0.118
		c4.588,0,8.32-3.732,8.32-8.32c0-4.588-3.732-8.319-8.32-8.32c-4.588,0-8.32,3.732-8.32,8.32c0,4.588,3.732,8.32,8.32,8.32V133.6z
		 M100,120.32v-0.118c-2.865,0-5.195,2.33-5.195,5.195c0,2.865,2.33,5.195,5.195,5.195c2.865,0,5.195-2.33,5.195-5.195
		c0-2.865-2.33-5.195-5.195-5.195V120.32v0.118c1.367,0,2.607,0.556,3.505,1.454c0.898,0.898,1.454,2.138,1.454,3.505
		c0,1.367-0.556,2.607-1.454,3.505c-0.898,0.898-2.138,1.454-3.505,1.454c-1.367,0-2.607-0.556-3.505-1.454
		c-0.898-0.898-1.454-2.138-1.454-3.505c0-1.367,0.556-2.607,1.454-3.505c0.898-0.898,2.138-1.454,3.505-1.454V120.32z"/>
	<path style="fill:#B3B3B3;" d="M100,73.526c-4.523,0-8.202-3.68-8.202-8.202s3.68-8.202,8.202-8.202
		c4.523,0,8.202,3.68,8.202,8.202S104.523,73.526,100,73.526z M100,60.246c-2.799,0-5.077,2.278-5.077,5.077
		c0,2.799,2.278,5.077,5.077,5.077c2.799,0,5.077-2.278,5.077-5.077C105.077,62.524,102.799,60.246,100,60.246z"/>
	<path style="fill:#B3B3B3;" d="M100,73.526v-0.118c-2.229,0-4.249-0.906-5.714-2.371c-1.464-1.464-2.37-3.485-2.371-5.714
		c0-2.229,0.906-4.25,2.371-5.714c1.464-1.464,3.485-2.371,5.714-2.371c2.229,0,4.25,0.906,5.714,2.371
		c1.464,1.464,2.37,3.485,2.371,5.714c0,2.229-0.906,4.25-2.371,5.714c-1.464,1.464-3.485,2.37-5.714,2.371L100,73.526v0.118
		c4.588,0,8.32-3.732,8.32-8.32c0-4.588-3.732-8.32-8.32-8.32c-4.588,0-8.32,3.732-8.32,8.32c0,4.588,3.732,8.32,8.32,8.32
		L100,73.526z M100,60.246v-0.118c-2.865,0-5.195,2.33-5.195,5.195c0,2.865,2.33,5.195,5.195,5.195c2.865,0,5.195-2.33,5.195-5.195
		c0-2.865-2.33-5.195-5.195-5.195V60.246v0.118c1.367,0,2.607,0.556,3.505,1.454c0.898,0.898,1.454,2.138,1.454,3.505
		c0,1.367-0.556,2.607-1.454,3.505c-0.898,0.898-2.138,1.454-3.505,1.454c-1.367,0-2.607-0.556-3.505-1.454
		c-0.898-0.898-1.454-2.138-1.454-3.505c0-1.367,0.556-2.607,1.454-3.505c0.898-0.898,2.138-1.454,3.505-1.454V60.246z"/>
	<path style="fill:#B3B3B3;" d="M129.089,140.872c-0.862,0-1.563-0.701-1.563-1.563c0-0.861,0.701-1.563,1.563-1.563h25.61
		c0.861,0,1.563,0.701,1.563,1.563c0,0.861-0.701,1.563-1.563,1.563H129.089z"/>
	<path style="fill:#B3B3B3;" d="M129.089,140.872v-0.118c-0.797-0.001-1.444-0.649-1.445-1.445c0.001-0.796,0.649-1.443,1.445-1.445
		h25.61c0.796,0.001,1.443,0.649,1.445,1.445c-0.001,0.796-0.649,1.443-1.445,1.445h-25.61V140.872v0.118h25.61
		c0.927,0,1.68-0.754,1.681-1.681c0-0.927-0.754-1.68-1.681-1.681h-25.61c-0.928,0-1.681,0.754-1.681,1.681
		c0,0.927,0.754,1.68,1.681,1.681V140.872z"/>
	<path style="fill:#B3B3B3;" d="M116.758,140.872c-0.861,0-1.563-0.701-1.563-1.563c0-0.861,0.701-1.563,1.563-1.563h1.58
		c0.861,0,1.563,0.701,1.563,1.563c0,0.861-0.701,1.563-1.563,1.563H116.758z"/>
	<path style="fill:#B3B3B3;" d="M116.758,140.872v-0.118c-0.796-0.001-1.443-0.649-1.445-1.445c0.001-0.796,0.649-1.443,1.445-1.445
		h1.58c0.796,0.001,1.443,0.649,1.445,1.445c-0.001,0.796-0.649,1.443-1.445,1.445h-1.58V140.872v0.118h1.58
		c0.927,0,1.68-0.754,1.681-1.681c0-0.927-0.754-1.68-1.681-1.681h-1.58c-0.927,0-1.68,0.754-1.681,1.681
		c0,0.927,0.754,1.68,1.681,1.681V140.872z"/>
</g>
</svg>
