<?xml version="1.0" encoding="iso-8859-1"?>
<!-- Generator: Adobe Illustrator 18.0.0, SVG Export Plug-In . SVG Version: 6.00 Build 0)  -->
<!DOCTYPE svg PUBLIC "-//W3C//DTD SVG 1.1//EN" "http://www.w3.org/Graphics/SVG/1.1/DTD/svg11.dtd">
<svg version="1.1" id="Layer_1" xmlns="http://www.w3.org/2000/svg" xmlns:xlink="http://www.w3.org/1999/xlink" x="0px" y="0px"
	 viewBox="0 0 200 200" style="enable-background:new 0 0 200 200;" xml:space="preserve">
<rect x="234.125" y="71.041" style="fill:#F15A24;" width="3.773" height="3.773"/>
<g>
	<path style="fill:#B3B3B3;" d="M18.72,173.886c-0.761,0-1.38-0.619-1.38-1.38c0-0.761,0.619-1.381,1.38-1.381h162.56
		c0.761,0,1.38,0.62,1.38,1.381c0,0.761-0.619,1.38-1.38,1.38H18.72z"/>
	<path style="fill:#B3B3B3;" d="M18.72,173.886v-0.375c-0.553-0.001-1.004-0.452-1.005-1.005c0.001-0.554,0.452-1.005,1.005-1.006
		h162.56c0.553,0.001,1.004,0.452,1.005,1.006c-0.001,0.553-0.452,1.004-1.005,1.005H18.72L18.72,173.886v0.375h162.56
		c0.969-0.001,1.754-0.786,1.755-1.755c-0.001-0.969-0.786-1.755-1.755-1.756H18.72c-0.969,0.001-1.754,0.787-1.755,1.756
		c0.001,0.969,0.786,1.754,1.755,1.755V173.886z"/>
	<path style="fill:#B3B3B3;" d="M24.718,87.83c-0.486,0-0.927-0.247-1.18-0.661c-0.396-0.65-0.189-1.501,0.46-1.897l75.297-45.926
		c0.217-0.133,0.465-0.202,0.718-0.202c0.254,0,0.502,0.07,0.719,0.202l75.298,45.926c0.314,0.192,0.535,0.495,0.622,0.853
		c0.087,0.358,0.029,0.729-0.163,1.044c-0.253,0.414-0.694,0.661-1.181,0.661c-0.252,0-0.499-0.07-0.716-0.202l-74.58-45.488
		L25.436,87.628C25.219,87.76,24.97,87.83,24.718,87.83z"/>
	<path style="fill:#B3B3B3;" d="M24.718,87.83v-0.375c-0.358-0.001-0.673-0.178-0.86-0.482l0,0c-0.1-0.164-0.146-0.342-0.146-0.521
		c0-0.341,0.171-0.672,0.481-0.861L99.49,39.666l0,0c0.159-0.097,0.338-0.147,0.523-0.147c0.185,0,0.366,0.051,0.524,0.147
		l75.298,45.926c0.231,0.142,0.389,0.358,0.453,0.621l0.029,0.239c0,0.182-0.049,0.359-0.148,0.521
		c-0.187,0.304-0.501,0.48-0.86,0.482c-0.183,0-0.362-0.05-0.52-0.147l-74.775-45.607L25.241,87.308
		c-0.159,0.097-0.34,0.148-0.523,0.148V87.83v0.375c0.322,0,0.637-0.089,0.913-0.257l74.382-45.369l74.384,45.369
		c0.275,0.168,0.59,0.257,0.911,0.257c0.614,0.001,1.182-0.316,1.501-0.841c0.169-0.277,0.257-0.592,0.257-0.911
		c0-0.139-0.017-0.278-0.05-0.416c-0.109-0.453-0.393-0.842-0.791-1.085l-75.298-45.926l0,0c-0.275-0.168-0.592-0.257-0.915-0.257
		c-0.322,0-0.638,0.089-0.914,0.257L23.803,84.952c-0.542,0.33-0.841,0.91-0.841,1.501c0,0.311,0.083,0.627,0.256,0.911l0,0
		c0.319,0.524,0.886,0.842,1.5,0.841V87.83z"/>
	<path style="fill:#B3B3B3;" d="M179.323,81.247c-0.252,0-0.499-0.07-0.716-0.202l-75.299-45.927
		c-0.996-0.607-2.135-0.928-3.294-0.928c-1.16,0-2.301,0.322-3.299,0.93L21.421,81.045c-0.216,0.133-0.464,0.202-0.718,0.202
		c-0.486,0-0.927-0.248-1.181-0.662c-0.395-0.649-0.189-1.499,0.461-1.895l75.295-45.926c1.434-0.875,3.072-1.338,4.736-1.338
		c1.663,0,3.299,0.463,4.732,1.338l75.299,45.926c0.314,0.192,0.535,0.495,0.622,0.853c0.087,0.358,0.028,0.729-0.164,1.043
		C180.251,81,179.81,81.247,179.323,81.247z"/>
	<path style="fill:#B3B3B3;" d="M179.323,81.247v-0.375c-0.182,0-0.362-0.051-0.52-0.147l-75.299-45.927
		c-1.054-0.643-2.261-0.983-3.489-0.983c-1.229,0-2.438,0.341-3.495,0.985L21.226,80.725l-0.001,0
		c-0.158,0.096-0.337,0.147-0.522,0.147c-0.357-0.001-0.673-0.178-0.861-0.483l0,0.001c-0.099-0.163-0.146-0.341-0.146-0.52
		c0-0.341,0.171-0.672,0.482-0.86l75.295-45.926c1.376-0.84,2.946-1.283,4.541-1.283c1.594,0,3.162,0.443,4.536,1.283l0,0
		l75.299,45.926c0.231,0.141,0.388,0.358,0.453,0.621l0.029,0.238c0,0.182-0.05,0.36-0.148,0.521l0,0
		c-0.187,0.304-0.501,0.481-0.86,0.482L179.323,81.247l0,0.375c0.614,0.001,1.182-0.317,1.501-0.842l0,0
		c0.169-0.277,0.258-0.593,0.258-0.912c0-0.138-0.016-0.278-0.05-0.415c-0.109-0.453-0.393-0.843-0.791-1.085l-75.299-45.926l0,0
		c-1.491-0.911-3.195-1.393-4.927-1.393c-1.733,0-3.439,0.482-4.931,1.393L19.788,78.369c-0.542,0.33-0.842,0.91-0.841,1.501
		c0,0.31,0.083,0.627,0.256,0.91l0,0.001c0.319,0.525,0.887,0.843,1.501,0.842c0.322,0,0.638-0.089,0.913-0.257l0.005-0.003
		L96.911,35.44l0,0c0.94-0.573,2.014-0.875,3.104-0.875c1.09,0,2.162,0.302,3.099,0.873l75.299,45.927
		c0.274,0.168,0.589,0.257,0.911,0.257V81.247z"/>
	<path style="fill:#B3B3B3;" d="M36.933,173.886c-0.761,0-1.38-0.619-1.38-1.38v-93.11c0-0.761,0.619-1.38,1.38-1.38
		s1.38,0.619,1.38,1.38v91.729h123.404V79.396c0-0.761,0.619-1.38,1.38-1.38c0.761,0,1.38,0.619,1.38,1.38v93.11
		c0,0.761-0.619,1.38-1.38,1.38H36.933z"/>
	<path style="fill:#B3B3B3;" d="M36.933,173.886v-0.375c-0.553-0.001-1.004-0.452-1.005-1.005v-93.11
		c0.001-0.553,0.452-1.004,1.005-1.005c0.553,0.001,1.004,0.452,1.005,1.005V171.5h124.154V79.396
		c0.001-0.553,0.452-1.004,1.005-1.005c0.553,0.001,1.004,0.452,1.005,1.005v93.11c-0.001,0.553-0.452,1.004-1.005,1.005H36.933
		V173.886v0.375h126.163c0.969-0.001,1.754-0.786,1.755-1.755v-93.11c-0.001-0.969-0.786-1.754-1.755-1.755
		c-0.969,0.001-1.754,0.786-1.755,1.755v91.354H38.688l0-91.354c-0.001-0.969-0.786-1.754-1.755-1.755
		c-0.969,0.001-1.754,0.786-1.755,1.755v93.11c0.001,0.969,0.786,1.754,1.755,1.755V173.886z"/>
	<path style="fill:#B3B3B3;" d="M51.541,92.887c-0.761,0-1.38-0.619-1.38-1.38V78.398c0-0.761,0.619-1.38,1.38-1.38h14.814
		c0.761,0,1.38,0.619,1.38,1.38v13.109c0,0.761-0.619,1.38-1.38,1.38H51.541z M52.921,90.127h12.054V79.778H52.921V90.127z"/>
	<path style="fill:#B3B3B3;" d="M51.541,92.887v-0.375c-0.553-0.001-1.004-0.452-1.005-1.005V78.398
		c0.001-0.553,0.452-1.004,1.005-1.005h14.814c0.553,0.001,1.004,0.452,1.005,1.005v13.109c-0.001,0.553-0.452,1.004-1.005,1.005
		H51.541V92.887v0.375h14.814c0.969-0.001,1.754-0.786,1.755-1.755V78.398c-0.001-0.969-0.786-1.754-1.755-1.755H51.541
		c-0.969,0.001-1.754,0.786-1.755,1.755v13.109c0.001,0.969,0.786,1.754,1.755,1.755V92.887z M52.921,90.127v0.375H65.35V79.403
		H52.546v11.099h0.375V90.127h0.375v-9.974H64.6v9.599H52.921V90.127h0.375H52.921z"/>
	<path style="fill:#B3B3B3;" d="M78.92,92.887c-0.761,0-1.38-0.619-1.38-1.38V78.398c0-0.761,0.62-1.38,1.38-1.38h14.813
		c0.761,0,1.38,0.619,1.38,1.38v13.109c0,0.761-0.62,1.38-1.38,1.38H78.92z M80.3,90.127h12.054V79.778H80.3V90.127z"/>
	<path style="fill:#B3B3B3;" d="M78.92,92.887v-0.375c-0.553-0.001-1.004-0.452-1.005-1.005V78.398
		c0.001-0.553,0.452-1.004,1.005-1.005h14.813c0.553,0.001,1.004,0.452,1.005,1.005v13.109c-0.001,0.553-0.452,1.004-1.005,1.005
		H78.92V92.887v0.375h14.813c0.969-0.001,1.755-0.786,1.755-1.755V78.398c-0.001-0.969-0.787-1.754-1.755-1.755H78.92
		c-0.969,0.001-1.755,0.786-1.755,1.755v13.109c0.001,0.969,0.787,1.754,1.755,1.755V92.887z M80.3,90.127v0.375h12.429V79.403
		H79.925v11.099H80.3V90.127h0.375v-9.974h11.304v9.599l-11.679,0V90.127h0.375H80.3z"/>
	<path style="fill:#B3B3B3;" d="M106.298,92.887c-0.761,0-1.38-0.619-1.38-1.38V78.398c0-0.761,0.619-1.38,1.38-1.38h14.814
		c0.761,0,1.38,0.619,1.38,1.38v13.109c0,0.761-0.619,1.38-1.38,1.38H106.298z M107.678,90.127h12.054V79.778h-12.054V90.127z"/>
	<path style="fill:#B3B3B3;" d="M106.298,92.887v-0.375c-0.553-0.001-1.004-0.452-1.005-1.005V78.398
		c0.001-0.553,0.452-1.004,1.005-1.005h14.814c0.553,0.001,1.004,0.452,1.005,1.005v13.109c-0.001,0.553-0.452,1.004-1.005,1.005
		h-14.814V92.887v0.375h14.814c0.969-0.001,1.754-0.786,1.755-1.755V78.398c-0.001-0.969-0.786-1.754-1.755-1.755h-14.814
		c-0.969,0.001-1.754,0.786-1.755,1.755v13.109c0.001,0.969,0.786,1.754,1.755,1.755V92.887z M107.678,90.127v0.375h12.429V79.403
		h-12.804v11.099h0.375V90.127h0.375v-9.974h11.304v9.599h-11.679V90.127h0.375H107.678z"/>
	<path style="fill:#B3B3B3;" d="M133.677,92.887c-0.761,0-1.38-0.619-1.38-1.38V78.398c0-0.761,0.62-1.38,1.38-1.38h14.813
		c0.761,0,1.38,0.619,1.38,1.38v13.109c0,0.761-0.62,1.38-1.38,1.38H133.677z M135.057,90.127h12.054V79.778h-12.054V90.127z"/>
	<path style="fill:#B3B3B3;" d="M133.677,92.887v-0.375c-0.553-0.001-1.004-0.452-1.005-1.005V78.398
		c0.001-0.553,0.452-1.004,1.005-1.005h14.813c0.553,0.001,1.004,0.452,1.005,1.005v13.109c-0.001,0.553-0.452,1.004-1.005,1.005
		h-14.813V92.887v0.375h14.813c0.969-0.001,1.755-0.786,1.755-1.755V78.398c-0.001-0.969-0.787-1.754-1.755-1.755h-14.813
		c-0.969,0.001-1.755,0.786-1.755,1.755v13.109c0.001,0.969,0.787,1.754,1.755,1.755V92.887z M135.057,90.127v0.375h12.429V79.403
		h-12.804v11.099h0.375V90.127h0.375v-9.974h11.304v9.599l-11.679,0V90.127h0.375H135.057z"/>
	<path style="fill:#B3B3B3;" d="M51.541,120.496c-0.761,0-1.38-0.619-1.38-1.38v-13.109c0-0.761,0.619-1.38,1.38-1.38h14.814
		c0.761,0,1.38,0.619,1.38,1.38v13.109c0,0.761-0.619,1.38-1.38,1.38H51.541z M52.921,117.736h12.054v-10.349H52.921V117.736z"/>
	<path style="fill:#B3B3B3;" d="M51.541,120.496v-0.375c-0.553-0.001-1.004-0.452-1.005-1.005v-13.109
		c0.001-0.553,0.452-1.004,1.005-1.005h14.814c0.553,0.001,1.004,0.452,1.005,1.005v13.109c-0.001,0.553-0.452,1.004-1.005,1.005
		H51.541V120.496v0.375h14.814c0.969-0.001,1.754-0.786,1.755-1.755v-13.109c-0.001-0.969-0.786-1.754-1.755-1.755H51.541
		c-0.969,0.001-1.754,0.786-1.755,1.755v13.109c0.001,0.969,0.786,1.754,1.755,1.755V120.496z M52.921,117.736v0.375H65.35v-11.099
		H52.546v11.099h0.375V117.736h0.375v-9.974H64.6v9.599H52.921V117.736h0.375H52.921z"/>
	<path style="fill:#B3B3B3;" d="M78.92,120.496c-0.761,0-1.38-0.619-1.38-1.38v-13.109c0-0.761,0.62-1.38,1.38-1.38h14.813
		c0.761,0,1.38,0.619,1.38,1.38v13.109c0,0.761-0.62,1.38-1.38,1.38H78.92z M80.3,117.736h12.054v-10.349H80.3V117.736z"/>
	<path style="fill:#B3B3B3;" d="M78.92,120.496v-0.375c-0.553-0.001-1.004-0.452-1.005-1.005v-13.109
		c0.001-0.553,0.452-1.004,1.005-1.005h14.813c0.553,0.001,1.004,0.452,1.005,1.005v13.109c-0.001,0.553-0.452,1.004-1.005,1.005
		H78.92V120.496v0.375h14.813c0.969-0.001,1.755-0.786,1.755-1.755v-13.109c-0.001-0.969-0.787-1.754-1.755-1.755H78.92
		c-0.969,0.001-1.755,0.786-1.755,1.755v13.109c0.001,0.969,0.787,1.754,1.755,1.755V120.496z M80.3,117.736v0.375h12.429v-11.099
		H79.925v11.099H80.3V117.736h0.375v-9.974h11.304v9.599l-11.679,0V117.736h0.375H80.3z"/>
	<path style="fill:#B3B3B3;" d="M106.298,120.496c-0.761,0-1.38-0.619-1.38-1.38v-13.109c0-0.761,0.619-1.38,1.38-1.38h14.814
		c0.761,0,1.38,0.619,1.38,1.38v13.109c0,0.761-0.619,1.38-1.38,1.38H106.298z M107.678,117.736h12.054v-10.349h-12.054V117.736z"/>
	<path style="fill:#B3B3B3;" d="M106.298,120.496v-0.375c-0.553-0.001-1.004-0.452-1.005-1.005v-13.109
		c0.001-0.553,0.452-1.004,1.005-1.005h14.814c0.553,0.001,1.004,0.452,1.005,1.005v13.109c-0.001,0.553-0.452,1.004-1.005,1.005
		h-14.814V120.496v0.375h14.814c0.969-0.001,1.754-0.786,1.755-1.755v-13.109c-0.001-0.969-0.786-1.754-1.755-1.755h-14.814
		c-0.969,0.001-1.754,0.786-1.755,1.755v13.109c0.001,0.969,0.786,1.754,1.755,1.755V120.496z M107.678,117.736v0.375h12.429
		v-11.099h-12.804v11.099h0.375V117.736h0.375v-9.974h11.304v9.599h-11.679V117.736h0.375H107.678z"/>
	<path style="fill:#B3B3B3;" d="M133.677,120.496c-0.761,0-1.38-0.619-1.38-1.38v-13.109c0-0.761,0.62-1.38,1.38-1.38h14.813
		c0.761,0,1.38,0.619,1.38,1.38v13.109c0,0.761-0.62,1.38-1.38,1.38H133.677z M135.057,117.736h12.054v-10.349h-12.054V117.736z"/>
	<path style="fill:#B3B3B3;" d="M133.677,120.496v-0.375c-0.553-0.001-1.004-0.452-1.005-1.005v-13.109
		c0.001-0.553,0.452-1.004,1.005-1.005h14.813c0.553,0.001,1.004,0.452,1.005,1.005v13.109c-0.001,0.553-0.452,1.004-1.005,1.005
		h-14.813V120.496v0.375h14.813c0.969-0.001,1.755-0.786,1.755-1.755v-13.109c-0.001-0.969-0.787-1.754-1.755-1.755h-14.813
		c-0.969,0.001-1.755,0.786-1.755,1.755v13.109c0.001,0.969,0.787,1.754,1.755,1.755V120.496z M135.057,117.736v0.375h12.429
		v-11.099h-12.804v11.099h0.375V117.736h0.375v-9.974h11.304v9.599l-11.679,0V117.736h0.375H135.057z"/>
	<path style="fill:#B3B3B3;" d="M51.541,148.104c-0.761,0-1.38-0.619-1.38-1.38v-13.109c0-0.761,0.619-1.38,1.38-1.38h14.814
		c0.761,0,1.38,0.619,1.38,1.38v13.109c0,0.761-0.619,1.38-1.38,1.38H51.541z M52.921,145.344h12.054v-10.35H52.921V145.344z"/>
	<path style="fill:#B3B3B3;" d="M51.541,148.104v-0.375c-0.553-0.001-1.004-0.452-1.005-1.005v-13.109
		c0.001-0.553,0.452-1.004,1.005-1.005h14.814c0.553,0.001,1.004,0.452,1.005,1.005v13.109c-0.001,0.553-0.452,1.004-1.005,1.005
		H51.541V148.104v0.375h14.814c0.969-0.001,1.754-0.786,1.755-1.755v-13.109c-0.001-0.969-0.786-1.754-1.755-1.755H51.541
		c-0.969,0.001-1.754,0.786-1.755,1.755v13.109c0.001,0.969,0.786,1.754,1.755,1.755V148.104z M52.921,145.344v0.375H65.35v-11.1
		H52.546v11.1h0.375V145.344h0.375v-9.975H64.6v9.6H52.921V145.344h0.375H52.921z"/>
	<path style="fill:#B3B3B3;" d="M133.677,148.104c-0.761,0-1.38-0.619-1.38-1.38v-13.109c0-0.761,0.62-1.38,1.38-1.38h14.813
		c0.761,0,1.38,0.619,1.38,1.38v13.109c0,0.761-0.62,1.38-1.38,1.38H133.677z M135.057,145.344h12.054v-10.35h-12.054V145.344z"/>
	<path style="fill:#B3B3B3;" d="M133.677,148.104v-0.375c-0.553-0.001-1.004-0.452-1.005-1.005v-13.109
		c0.001-0.553,0.452-1.004,1.005-1.005h14.813c0.553,0.001,1.004,0.452,1.005,1.005v13.109c-0.001,0.553-0.452,1.004-1.005,1.005
		h-14.813V148.104v0.375h14.813c0.969-0.001,1.755-0.786,1.755-1.755v-13.109c-0.001-0.969-0.787-1.754-1.755-1.755h-14.813
		c-0.969,0.001-1.755,0.786-1.755,1.755v13.109c0.001,0.969,0.787,1.754,1.755,1.755V148.104z M135.057,145.344v0.375h12.429v-11.1
		h-12.804v11.1h0.375V145.344h0.375v-9.975h11.304v9.6h-11.679V145.344h0.375H135.057z"/>
	<path style="fill:#B3B3B3;" d="M150.822,63.524c-0.761,0-1.38-0.619-1.38-1.38V41.219h-14.668v10.294c0,0.761-0.619,1.38-1.38,1.38
		c-0.761,0-1.38-0.619-1.38-1.38V39.84c0-0.761,0.62-1.381,1.38-1.381h17.428c0.761,0,1.38,0.62,1.38,1.381v22.305
		C152.202,62.905,151.582,63.524,150.822,63.524z"/>
	<path style="fill:#B3B3B3;" d="M150.822,63.524v-0.375c-0.553-0.001-1.004-0.452-1.005-1.005v-21.3h-15.418v10.669
		c-0.001,0.553-0.452,1.004-1.005,1.005c-0.553-0.001-1.004-0.452-1.005-1.005V39.84c0.001-0.553,0.452-1.005,1.005-1.006h17.428
		c0.553,0.001,1.004,0.452,1.005,1.006v22.305c-0.001,0.553-0.452,1.004-1.005,1.005V63.524v0.375
		c0.969-0.001,1.755-0.786,1.755-1.755V39.84c-0.001-0.969-0.787-1.755-1.755-1.756h-17.428c-0.969,0.001-1.755,0.787-1.755,1.756
		v11.674c0.001,0.969,0.787,1.754,1.755,1.755c0.969-0.001,1.754-0.786,1.755-1.755v-9.919l13.918,0v20.55
		c0.001,0.969,0.786,1.754,1.755,1.755V63.524z"/>
	<path style="fill:#B3B3B3;" d="M86.848,173.886c-0.761,0-1.38-0.619-1.38-1.38v-28.522c0-8.019,6.524-14.544,14.543-14.544
		c8.019,0,14.544,6.524,14.544,14.544v28.522c0,0.761-0.619,1.38-1.38,1.38H86.848z M100.012,132.2
		c-6.498,0-11.784,5.286-11.784,11.784v27.142h23.568v-27.142C111.796,137.486,106.51,132.2,100.012,132.2z"/>
	<path style="fill:#B3B3B3;" d="M86.848,173.886v-0.375c-0.553-0.001-1.004-0.452-1.005-1.005v-28.522
		c0-3.907,1.588-7.447,4.155-10.014c2.567-2.566,6.107-4.155,10.014-4.155c3.907,0,7.447,1.588,10.014,4.155
		c2.566,2.567,4.155,6.107,4.155,10.014v28.522c-0.001,0.553-0.452,1.004-1.005,1.005H86.848V173.886v0.375h26.328
		c0.969-0.001,1.754-0.786,1.755-1.755v-28.522c-0.001-8.227-6.692-14.918-14.919-14.919c-8.227,0.001-14.918,6.691-14.918,14.919
		v28.522c0.001,0.969,0.786,1.754,1.755,1.755V173.886z M100.012,132.2v-0.375c-6.705,0.001-12.158,5.453-12.159,12.159V171.5
		h24.318v-27.517c-0.001-6.705-5.453-12.158-12.159-12.159V132.2v0.375c3.146,0,5.996,1.279,8.063,3.346
		c2.067,2.067,3.345,4.917,3.346,8.063v26.767H88.603v-26.767c0-3.146,1.279-5.996,3.346-8.063c2.067-2.067,4.917-3.345,8.063-3.346
		V132.2z"/>
</g>
</svg>
