<?xml version="1.0" encoding="iso-8859-1"?>
<!-- Generator: Adobe Illustrator 18.0.0, SVG Export Plug-In . SVG Version: 6.00 Build 0)  -->
<!DOCTYPE svg PUBLIC "-//W3C//DTD SVG 1.1//EN" "http://www.w3.org/Graphics/SVG/1.1/DTD/svg11.dtd">
<svg version="1.1" id="Layer_1" xmlns="http://www.w3.org/2000/svg" xmlns:xlink="http://www.w3.org/1999/xlink" x="0px" y="0px"
	 viewBox="0 0 200 200" style="enable-background:new 0 0 200 200;" xml:space="preserve">
<rect x="234.125" y="71.041" style="fill:#F15A24;" width="3.773" height="3.773"/>
<g>
	<path style="fill:#B3B3B3;" d="M67.122,173.109c-0.686,0-1.331-0.363-1.685-0.948l-13.811-22.832H18.079
		c-1.085,0-1.968-0.883-1.968-1.968s0.883-1.968,1.968-1.968h18.377l-2.482-3.531c-1.527-2.171-2.863-4.452-3.973-6.781
		l-0.052-0.103l-0.086-0.186c-1.415-3.05-2.445-6.108-3.107-9.19c-0.057-0.268-0.057-0.558,0.002-0.835
		c5.132-23.881,30.291-41.22,59.821-41.22c20.082,0.002,38.834,8.14,50.161,21.77l1.725,2.076l1.723-2.078
		c7.467-9.001,18.05-15.612,30.603-19.12c0.174-0.049,0.351-0.073,0.529-0.073c0.508,0,0.991,0.194,1.36,0.546
		c0.499,0.477,0.713,1.19,0.559,1.863c-2.645,11.499-4.501,23.772-5.515,36.479l-0.014,0.178l0.014,0.178
		c0.489,6.123,1.182,12.218,2.06,18.114l0.285,1.911h11.852c1.085,0,1.968,0.883,1.968,1.968s-0.883,1.968-1.968,1.968h-33.546
		l-13.811,22.832c-0.359,0.594-0.988,0.949-1.683,0.949H67.122z M68.23,169.173h63.54l12.004-19.845H56.226L68.23,169.173z
		 M138.465,137.454c0.668,0,1.283,0.332,1.646,0.889c1.445,2.211,3.127,4.345,5.001,6.342l0.664,0.708h20.303l-0.369-2.561
		c-0.825-5.729-1.476-11.613-1.937-17.489c-0.009-0.107-0.009-0.2-0.002-0.292c0.815-10.378,2.189-20.518,4.085-30.153l0.802-4.076
		l-3.847,1.568c-10.577,4.31-19.118,11.102-24.701,19.643c-0.365,0.559-0.982,0.893-1.648,0.893s-1.282-0.333-1.646-0.891
		c-9.895-15.142-29.145-24.549-50.239-24.551c-27.124,0-50.574,15.637-55.759,37.181l-0.126,0.525l0.126,0.525
		c0.401,1.659,0.923,3.321,1.554,4.94l0.556,1.429h11.059c1.085,0,1.968,0.883,1.968,1.968c0,1.085-0.883,1.968-1.968,1.968h-9.302
		l2.471,3.527c1.247,1.779,2.653,3.508,4.182,5.137l0.664,0.708h89.146l0.664-0.707c1.874-1.995,3.557-4.128,5.003-6.341
		C137.181,137.787,137.797,137.454,138.465,137.454z M102.859,134.455c-0.371,0-0.732-0.105-1.044-0.303
		c-0.92-0.582-1.195-1.801-0.615-2.719l3.949-6.245l-7.896-12.484c-0.281-0.444-0.372-0.971-0.256-1.485
		c0.116-0.513,0.424-0.951,0.868-1.231c0.316-0.2,0.679-0.306,1.048-0.306c0.681,0,1.305,0.343,1.667,0.917l8.561,13.539
		c0.404,0.639,0.404,1.464-0.001,2.104l-4.614,7.298C104.165,134.113,103.542,134.455,102.859,134.455z M83.711,134.455
		c-0.368,0-0.732-0.106-1.05-0.306c-0.913-0.578-1.189-1.797-0.609-2.714l3.949-6.246l-7.896-12.486
		c-0.281-0.444-0.372-0.971-0.256-1.483c0.115-0.513,0.424-0.95,0.868-1.23c0.317-0.201,0.68-0.306,1.049-0.306
		c0.681,0,1.303,0.343,1.665,0.915l8.562,13.54c0.404,0.639,0.404,1.463,0.001,2.101l-4.615,7.3
		C85.016,134.113,84.393,134.455,83.711,134.455z M51.443,120.682c-1.085,0-1.968-0.883-1.968-1.968
		c0-1.085,0.883-1.968,1.968-1.968h0.927c1.085,0,1.968,0.883,1.968,1.968c0,1.085-0.883,1.968-1.968,1.968H51.443z M136.975,88.591
		c-0.705,0-1.36-0.378-1.709-0.986l-3.694-6.415l-1.468,0.173c-0.634,0.075-1.285,0.113-1.934,0.113
		c-7.229,0-14.594-4.678-18.762-11.917c-5.283-9.177-4.339-20.147,2.245-26.083c0.21-0.188,0.453-0.328,0.718-0.414
		c1.57-0.504,3.225-0.76,4.918-0.76c7.231,0,14.596,4.678,18.765,11.917c4.593,7.977,4.519,17.552-0.184,23.827l-0.886,1.182
		l3.693,6.413c0.541,0.941,0.217,2.147-0.723,2.688C137.655,88.5,137.317,88.591,136.975,88.591z M117.281,46.24
		c-0.891,0-1.771,0.093-2.615,0.276l-0.698,0.152l-0.482,0.528c-4.409,4.832-4.69,13.411-0.667,20.398
		c2.762,4.801,7.264,8.365,12.041,9.532l5.087,1.243l-9.106-15.817c-0.541-0.94-0.216-2.147,0.726-2.69
		c0.3-0.173,0.629-0.262,0.975-0.262c0.705,0,1.361,0.379,1.712,0.988l9.101,15.817l1.481-5.022
		c1.39-4.714,0.57-10.395-2.195-15.198C129.166,50.143,123.137,46.24,117.281,46.24z M151.365,82.346
		c-0.346,0-0.676-0.089-0.981-0.263c-0.937-0.541-1.262-1.747-0.721-2.687l3.693-6.416l-0.886-1.183
		c-4.704-6.271-4.779-15.845-0.186-23.824c4.169-7.24,11.534-11.918,18.763-11.918c1.695,0,3.35,0.256,4.921,0.76
		c0.266,0.085,0.512,0.226,0.716,0.41c6.585,5.939,7.529,16.909,2.246,26.085c-4.167,7.24-11.534,11.918-18.767,11.919
		c-0.646,0-1.295-0.038-1.928-0.112l-1.467-0.172l-3.693,6.414C152.725,81.969,152.07,82.346,151.365,82.346z M165.795,53.355
		c0.345,0,0.673,0.089,0.975,0.263c0.459,0.264,0.785,0.687,0.922,1.195c0.136,0.507,0.067,1.038-0.195,1.493l-9.105,15.819
		l5.086-1.243c4.773-1.166,9.274-4.729,12.039-9.531c4.024-6.988,3.743-15.568-0.668-20.4l-0.482-0.528l-0.699-0.152
		c-0.842-0.183-1.72-0.275-2.61-0.275c-5.857,0-11.888,3.903-15.365,9.943c-2.765,4.803-3.585,10.485-2.195,15.198l1.481,5.021
		l9.105-15.814C164.437,53.734,165.092,53.355,165.795,53.355z M43.421,78.353c-1.085,0-1.968-0.883-1.968-1.968v-6.791
		c0-4.829,3.928-8.757,8.757-8.757h27.035c2.66,0,4.824-2.163,4.824-4.821s-2.164-4.821-4.824-4.821H29.483
		c-4.829,0-8.757-3.928-8.757-8.757c0-4.829,3.928-8.758,8.757-8.758h29.653c2.658,0,4.821-2.163,4.821-4.82
		c0-1.085,0.883-1.968,1.968-1.968c1.085,0,1.968,0.883,1.968,1.968c0,4.829-3.928,8.757-8.758,8.757H29.483
		c-2.613,0-4.821,2.207-4.821,4.821c0,2.613,2.207,4.821,4.821,4.821h47.761c4.83,0,8.76,3.928,8.76,8.757s-3.93,8.757-8.76,8.757
		H50.21c-2.658,0-4.821,2.163-4.821,4.821v6.791C45.389,77.47,44.506,78.353,43.421,78.353z"/>
</g>
</svg>
