<?xml version="1.0" encoding="iso-8859-1"?>
<!-- Generator: Adobe Illustrator 18.0.0, SVG Export Plug-In . SVG Version: 6.00 Build 0)  -->
<!DOCTYPE svg PUBLIC "-//W3C//DTD SVG 1.1//EN" "http://www.w3.org/Graphics/SVG/1.1/DTD/svg11.dtd">
<svg version="1.1" id="Layer_1" xmlns="http://www.w3.org/2000/svg" xmlns:xlink="http://www.w3.org/1999/xlink" x="0px" y="0px"
	 viewBox="0 0 200 200" style="enable-background:new 0 0 200 200;" xml:space="preserve">
<rect x="234.125" y="71.041" style="fill:#F15A24;" width="3.773" height="3.773"/>
<g>
	<path style="fill:#B3B3B3;" d="M151.636,175.774c-0.953,0-1.728-0.775-1.728-1.728v-43.892h-6.688l-1.743,6.974
		c-0.847,3.39-4.248,6.045-7.742,6.045H86.933c-3.495,0-6.896-2.655-7.742-6.045l-1.743-6.974H70.76v43.892
		c0,0.953-0.775,1.728-1.728,1.728c-0.953,0-1.728-0.775-1.728-1.728v-57.074l-0.523-0.145c-2.842-0.786-5.097-3.041-5.886-5.884
		l-0.145-0.523h-5.325c-6.337,0-11.492-5.155-11.492-11.492V73.113h-2.285c-0.953,0-1.728-0.775-1.728-1.728v-9.764
		c0-0.953,0.775-1.728,1.728-1.728h79.197c0.953,0,1.728,0.775,1.728,1.728v9.764c0,0.953-0.775,1.728-1.728,1.728H47.39v25.815
		c0,4.431,3.605,8.037,8.037,8.037h5.325l0.145-0.523c0.807-2.909,3.122-5.182,6.042-5.93l0.492-0.126l0.175-2.095
		c0.308-3.703,0.832-9.988,1.438-17.286c0.073-0.888,0.83-1.583,1.722-1.583c0.048,0,0.096,0.002,0.144,0.006
		c0.459,0.038,0.877,0.253,1.175,0.605s0.441,0.799,0.402,1.259c-0.658,7.929-1.576,18.959-1.576,18.959h78.847l-0.064-0.773
		c-1.219-14.651-4.173-50.181-5.262-63.651c-0.358-4.416-4.392-8.146-8.81-8.146H85.047c-4.42,0-8.454,3.73-8.81,8.146
		c-0.316,3.909-0.788,9.662-1.325,16.171c-0.074,0.889-0.829,1.585-1.719,1.585c-0.048,0-0.096-0.002-0.145-0.006
		c-0.949-0.079-1.658-0.915-1.581-1.864c0.537-6.506,1.009-12.257,1.326-16.163c0.505-6.244,6.002-11.324,12.254-11.324h50.573
		c6.252,0,11.749,5.08,12.254,11.324c1.309,16.195,5.279,63.852,5.319,64.331l0.042,0.506l0.492,0.126
		c3.739,0.956,6.351,4.32,6.351,8.18c0,3.78-2.546,7.124-6.192,8.135l-0.523,0.145v57.074
		C153.364,174.999,152.589,175.774,151.636,175.774z M122.574,139.718h11.161c1.881,0,3.933-1.602,4.39-3.428l1.534-6.136h-17.086
		V139.718z M101.548,139.718h17.57v-9.564h-17.57V139.718z M82.543,136.29c0.455,1.826,2.507,3.428,4.39,3.428h11.159v-9.564H81.008
		L82.543,136.29z M70.76,126.699h79.149v-9.564H70.76V126.699z M69.03,103.706c-2.749,0-4.985,2.237-4.985,4.987
		c0,2.75,2.237,4.987,4.987,4.987h82.604c2.75,0,4.987-2.237,4.987-4.987c0-2.658-2.087-4.843-4.75-4.973l-0.041-0.002l-0.041,0.003
		c-0.053,0.003-0.105,0.006-0.158,0.006c-0.074,0-0.149-0.008-0.22-0.016l-0.041-0.005H69.03z M43.377,69.656h75.741v-6.309H43.377
		V69.656z"/>
</g>
</svg>
