<?xml version="1.0" encoding="UTF-8"?>
<!DOCTYPE svg PUBLIC "-//W3C//DTD SVG 1.1//EN" "http://www.w3.org/Graphics/SVG/1.1/DTD/svg11.dtd">
<!-- Creator: CorelDRAW 2018 (64-Bit Evaluation Version) -->
<svg xmlns="http://www.w3.org/2000/svg" xml:space="preserve" width="43.3494mm" height="43.3492mm" version="1.1" style="shape-rendering:geometricPrecision; text-rendering:geometricPrecision; image-rendering:optimizeQuality; fill-rule:evenodd; clip-rule:evenodd"
viewBox="0 0 1006.53 1006.52"
 xmlns:xlink="http://www.w3.org/1999/xlink">
 <defs>
  <style type="text/css">
   <![CDATA[
    .fil0 {fill:#F3F3F4}
    .fil1 {fill:#BDBFC1}
    .fil2 {fill:#897AA2}
    .fil9 {fill:#FEFEFE;fill-rule:nonzero}
    .fil7 {fill:#F5CDBB;fill-rule:nonzero}
    .fil18 {fill:#EEA789;fill-rule:nonzero}
    .fil20 {fill:#E88867;fill-rule:nonzero}
    .fil11 {fill:#E8E7E8;fill-rule:nonzero}
    .fil8 {fill:#D79479;fill-rule:nonzero}
    .fil16 {fill:#D17A5D;fill-rule:nonzero}
    .fil4 {fill:#C9C8C9;fill-rule:nonzero}
    .fil3 {fill:#C1B3D8;fill-rule:nonzero}
    .fil17 {fill:#C3A496;fill-rule:nonzero}
    .fil10 {fill:#983B34;fill-rule:nonzero}
    .fil14 {fill:#B6B7B9;fill-rule:nonzero}
    .fil5 {fill:#9A90AD;fill-rule:nonzero}
    .fil19 {fill:#483830;fill-rule:nonzero}
    .fil21 {fill:#594940;fill-rule:nonzero}
    .fil15 {fill:#6E6C77;fill-rule:nonzero}
    .fil12 {fill:#595657;fill-rule:nonzero}
    .fil6 {fill:#414047;fill-rule:nonzero}
    .fil13 {fill:#39393E;fill-rule:nonzero}
   ]]>
  </style>
   <mask id="id0">
  <linearGradient id="id1" gradientUnits="userSpaceOnUse" x1="503.67" y1="352.98" x2="503.68" y2="1102.47">
   <stop offset="0" style="stop-opacity:0; stop-color:white"/>
   <stop offset="1" style="stop-opacity:1; stop-color:white"/>
  </linearGradient>
    <rect style="fill:url(#id1)" x="58.62" y="178.64" width="889.29" height="514.54"/>
   </mask>
 </defs>
 <g id="Layer_x0020_1">
  <metadata id="CorelCorpID_0Corel-Layer"/>
  <rect class="fil0" x="0" y="-0" width="1006.53" height="1006.53"/>
  <path class="fil1" style="mask:url(#id0)" d="M503.26 180.97c244.29,0 442.32,114.14 442.32,254.95 0,140.8 -198.03,254.95 -442.32,254.95 -244.29,0 -442.32,-114.14 -442.32,-254.95 0,-140.8 198.03,-254.95 442.32,-254.95z"/>
  <path class="fil2" d="M403.16 828.26c-3.73,-0.45 -6.53,-2.93 -8.4,-7.44l-0.48 0 0 15.32c-0.93,3.44 -1.89,6.64 -2.88,9.59 -0.98,2.93 -2.08,5.73 -3.28,8.39 -2.56,2.08 -5.33,3.98 -8.37,5.65 -3,1.65 -6.13,3.07 -9.33,4.21 -3.19,1.14 -6.46,2.02 -9.75,2.61 -3.3,0.59 -6.51,0.93 -9.57,0.91 -4.21,-0.03 -8.02,-0.54 -11.41,-1.44 -3.38,-0.9 -6.25,-2.2 -8.61,-3.92 -2.35,-1.71 -4.18,-3.83 -5.44,-6.32 -1.27,-2.49 -1.89,-5.3 -1.89,-8.42 0,-1.79 0.17,-3.76 0.51,-6 0.33,-2.21 0.92,-4.69 1.65,-7.43 0.67,-2.49 1.27,-4.73 1.97,-6.61 0.7,-1.89 1.44,-3.6 2.21,-5.12 1.81,0 3.28,0.85 4.37,2.59 -2.24,4.21 -3.36,9.22 -3.36,14.98 0,10.69 7.78,16.02 23.34,16.02 11.3,0 22.7,-4.16 34.19,-12.5l-4.69 -98.63 8.05 -13.11c0.21,15.08 0.6,28.81 1.14,41.17 0.55,12.36 1.22,23.64 1.97,33.77 0.54,7.27 3.62,10.92 9.3,10.92l13.18 0c0.33,0 0.61,0.05 0.86,0.16l1.41 0c7.14,0 13.03,-0.9 17.7,-2.66 4.65,-1.76 8.23,-4.27 10.74,-7.54 -0.11,-2.03 -0.61,-4.11 -1.49,-6.18 -0.88,-2.08 -2.44,-4.26 -4.61,-6.53 -2.18,-2.28 -5.12,-4.73 -8.82,-7.27 -3.69,-2.54 -8.37,-5.36 -14.05,-8.42l1.63 -15.59c2.08,-1.52 4.67,-3.26 7.73,-5.22 3.06,-1.96 6.37,-4.02 9.89,-6.16 3.52,-2.13 7.12,-4.3 10.85,-6.45 3.72,-2.15 7.33,-4.17 10.77,-6 3.45,-1.84 6.67,-3.48 9.57,-4.88 2.92,-1.41 5.33,-2.45 7.27,-3.12l-5.54 13.35c-1.36,0.45 -3.29,1.31 -5.76,2.53 -2.45,1.21 -5.21,2.63 -8.23,4.24 -3.01,1.6 -6.18,3.36 -9.49,5.2 -3.3,1.84 -6.46,3.65 -9.43,5.41 -2.98,1.77 -5.69,3.44 -8.08,4.96 -2.4,1.53 -4.24,2.77 -5.46,3.7 4.77,2.72 8.87,5.32 12.29,7.78 3.4,2.45 6.24,4.86 8.5,7.14 2.25,2.26 4.07,4.53 5.33,6.74 1.26,2.2 2.13,4.4 2.61,6.58 -0.11,1.2 -0.25,2.48 -0.4,3.84 -0.15,1.33 -0.34,2.73 -0.53,4.13 -0.19,1.38 -0.45,2.78 -0.67,4.08 -0.22,1.33 -0.48,2.58 -0.75,3.73 -2.45,2.53 -4.91,4.67 -7.36,6.39 -2.41,1.7 -5.04,3.1 -7.76,4.16 -2.74,1.06 -5.63,1.83 -8.71,2.26 -3.06,0.43 -6.46,0.67 -10.15,0.67l-13.15 0c-0.45,0 -0.85,-0.08 -1.14,-0.23zm279.14 -17.14c-0.15,2.36 -1.61,4.58 -2.93,6.85 -1.34,2.28 -2.93,4.61 -4.8,6.95 -0.88,0.35 -2.64,0.53 -5.22,0.53 -7.97,0 -14.87,-2.37 -20.71,-7.12 -4.85,6.66 -9.47,10.04 -13.83,10.15l-0.01 0 -0.05 0 -0.06 0 -0.06 0 -0.03 0 -1.57 0 -0.06 0c-30.52,0 -14.59,0 -45.11,0l-0.06 0 -1.33 0 -0.06 0 -0.1 0c-5.46,0 -9.94,-5.28 -13.43,-15.83l-0.24 0c-0.56,3.92 -1.6,7.43 -3.12,10.55 -1.36,0.75 -2.98,1.44 -4.9,2.13 -1.95,0.67 -4.24,1.36 -6.88,2.02 -2.83,0.61 -5.3,1.09 -7.49,1.41 -2.21,0.35 -4.13,0.51 -5.78,0.51 -3.17,0 -6.18,-0.42 -8.98,-1.28 -0.11,-1.79 -0.19,-3.3 -0.24,-4.53 -0.05,-1.2 -0.08,-2.1 -0.08,-2.69 0,-0.93 0.08,-2.26 0.27,-3.92 0.19,-1.68 0.45,-3.68 0.83,-6.02 0.43,-0.11 0.77,-0.19 1.09,-0.24 0.32,-0.05 0.59,-0.08 0.77,-0.08 0.37,0 0.72,0.08 1.01,0.19 0.32,0.13 0.67,0.32 1.04,0.51l0 2.13c0,1.76 0.08,2.98 0.21,3.65 2.11,0.93 4.5,1.41 7.27,1.41 1.97,0 4.11,-0.21 6.37,-0.61 2.27,-0.43 4.66,-0.99 7.22,-1.73 2.37,-0.83 4.48,-1.65 6.23,-2.48 1.76,-0.85 3.25,-1.73 4.45,-2.66 -1.92,-5.3 -3.86,-10.98 -5.78,-17.03 -1.92,-6.08 -3.89,-12.58 -5.94,-19.53l6.1 -13.19c2.77,12.55 5.17,22.81 7.25,30.83 2.11,8.02 3.84,13.91 5.25,17.64 2.08,5.3 4.58,7.97 7.49,7.97l0.1 0 0.06 0 1.33 0 0.06 0c30.52,0 14.59,0 45.11,0l0.06 0 1.57 0 0.03 0c4.95,-0.01 9.39,-3.16 13.24,-9.51 3.04,-5.01 5.68,-9.14 7.97,-12.29 2.29,-3.14 4.26,-5.3 5.92,-6.5 0.91,-0.11 1.71,-0.19 2.42,-0.24 0.74,-0.05 1.33,-0.08 1.81,-0.08 4.72,0 8.59,1.81 11.54,5.46 3.17,3.93 5.22,9.51 4.77,16.65zm-6.88 4.1c0,-11.19 -4.45,-16.79 -13.35,-16.79 -1.2,1.2 -2.51,2.72 -3.89,4.56 -1.41,1.86 -2.9,4.02 -4.45,6.53 2.29,2.18 4.72,3.85 7.27,4.96 2.58,1.12 5.41,1.68 8.47,1.68 3.33,0 5.33,-0.32 5.94,-0.93zm-149.94 -8.21c-1.14,6.32 -3.84,11.41 -8.05,15.32 -4.51,4.04 -9.8,6.09 -15.89,6.15l0 0 -0.06 0 -0.06 0 -0.06 0 -0.11 0 -1.47 0 -0.08 0 -0.05 0 -0.01 0 -0.06 -0 -0.05 -0 -0 0 -0.06 -0c-2.6,-0.1 -5.31,-1.4 -8.11,-3.88 -1.04,8.24 -3.38,15.72 -7.04,22.49 -1.76,3.17 -4.05,6.55 -6.88,10.18 -2.8,3.62 -6.16,7.46 -10.07,11.51 -3.33,0 -6.88,-0.56 -10.61,-1.63 -3.7,-0.91 -6.37,-2.02 -8.05,-3.36 10.93,-5.22 19.83,-11.57 26.7,-19.08 5.68,-6.24 8.9,-11.65 9.67,-16.23 -0.77,-6.18 -4.32,-12.34 -10.61,-18.41l4.77 -14.04 7.01 11.01c4.44,6.84 8.8,10.38 13.09,10.6l0.34 -0.02 3.65 0c7.73,0 12.79,-2.58 15.24,-7.73 -0.37,-1.97 -1.14,-3.92 -2.32,-5.81 -1.17,-1.89 -2.69,-3.76 -4.56,-5.57l5.7 -13.67c4.53,7.25 7.2,14.63 8.05,22.17zm-28.43 42l7.49 -7.67 7.73 7.67 -7.73 7.49 -7.49 -7.49zm17.64 0l7.51 -7.67 7.73 7.67 -7.73 7.49 -7.51 -7.49z"/>
  <g id="_2095620762272">
   <path class="fil3" d="M675.66 619.45c-2.93,2.93 -5.91,5.76 -8.94,8.51 -0.35,0.32 -0.71,0.63 -1.06,0.95 -1.11,0.99 -2.23,1.98 -3.35,2.95 -0.7,0.61 -1.42,1.2 -2.13,1.8 -0.77,0.65 -1.53,1.29 -2.3,1.92 -0.95,0.78 -1.9,1.54 -2.86,2.31 -0.56,0.45 -1.12,0.9 -1.69,1.34 -1.1,0.86 -2.21,1.71 -3.33,2.55 -0.42,0.32 -0.83,0.64 -1.25,0.95 -1.26,0.93 -2.52,1.86 -3.79,2.77l-0.87 0.62c-1.35,0.95 -2.71,1.89 -4.07,2.82l-0.73 0.49c-1.41,0.95 -2.83,1.88 -4.26,2.8l-0.64 0.41c-1.42,0.91 -2.86,1.81 -4.3,2.69l-0.78 0.48c-1.4,0.85 -2.81,1.68 -4.23,2.5l-0.95 0.54c-1.36,0.78 -2.73,1.54 -4.11,2.3l-1.21 0.65c-1.27,0.68 -2.54,1.36 -3.83,2.02 -0.57,0.29 -1.14,0.58 -1.71,0.87 -1.12,0.57 -2.25,1.13 -3.39,1.68 -0.74,0.36 -1.48,0.72 -2.22,1.07 -0.98,0.46 -1.96,0.92 -2.95,1.37 -0.94,0.43 -1.88,0.85 -2.83,1.27 -0.77,0.34 -1.54,0.68 -2.31,1.01 -1.19,0.51 -2.38,1.01 -3.58,1.5l-1.65 0.67c-1.42,0.57 -2.84,1.13 -4.27,1.67l-1 0.38c-1.65,0.62 -3.29,1.22 -4.95,1.8l-0.36 0.13c-18.56,6.48 -37.75,10.65 -57.12,12.5l-0.09 0.01c-1.88,0.18 -3.75,0.34 -5.63,0.47l-0.85 0.06c-1.65,0.11 -3.31,0.22 -4.96,0.29 -0.55,0.03 -1.09,0.04 -1.64,0.06 -1.43,0.06 -2.86,0.12 -4.29,0.15 -0.74,0.02 -1.48,0.02 -2.22,0.03 -2.31,0.03 -4.61,0.04 -6.92,0.01 -0.91,-0.02 -1.83,-0.02 -2.74,-0.04 -1.25,-0.03 -2.49,-0.08 -3.74,-0.13 -0.74,-0.03 -1.48,-0.05 -2.22,-0.08 -1.47,-0.07 -2.93,-0.17 -4.4,-0.26 -0.48,-0.03 -0.97,-0.06 -1.45,-0.09 -1.68,-0.12 -3.36,-0.26 -5.04,-0.42l-0.72 -0.06c-1.84,-0.18 -3.67,-0.38 -5.51,-0.59l-0.23 -0.03c-13.53,-1.63 -26.95,-4.38 -40.11,-8.28l-0.11 -0.03c-1.78,-0.53 -3.56,-1.08 -5.33,-1.65l-0.58 -0.19c-1.59,-0.52 -3.18,-1.05 -4.76,-1.6l-1.25 -0.44c-1.36,-0.48 -2.71,-0.97 -4.06,-1.48 -0.63,-0.24 -1.26,-0.48 -1.89,-0.72 -1.13,-0.43 -2.26,-0.87 -3.39,-1.32 -0.85,-0.34 -1.69,-0.68 -2.53,-1.03 -0.9,-0.37 -1.8,-0.75 -2.7,-1.13 -1.06,-0.46 -2.12,-0.92 -3.18,-1.39 -0.65,-0.29 -1.31,-0.59 -1.97,-0.88 -1.26,-0.58 -2.51,-1.16 -3.76,-1.76l-1.4 -0.67c-1.4,-0.68 -2.79,-1.37 -4.17,-2.08l-0.93 -0.48c-1.53,-0.79 -3.05,-1.59 -4.56,-2.41l-0.47 -0.26c-1.61,-0.88 -3.21,-1.77 -4.79,-2.68l-0.26 -0.15c-1.64,-0.95 -3.28,-1.91 -4.9,-2.9l-0.09 -0.05c-3.33,-2.02 -6.61,-4.12 -9.83,-6.3l-0.05 -0.03c-1.58,-1.07 -3.15,-2.16 -4.71,-3.26l-0.23 -0.16c-1.47,-1.05 -2.94,-2.12 -4.39,-3.2l-0.65 -0.49c-1.31,-0.98 -2.61,-1.98 -3.9,-2.99 -0.37,-0.29 -0.73,-0.59 -1.1,-0.88 -1.15,-0.91 -2.3,-1.83 -3.43,-2.77 -0.53,-0.44 -1.05,-0.88 -1.58,-1.32 -0.95,-0.79 -1.9,-1.59 -2.84,-2.4 -0.84,-0.73 -1.67,-1.47 -2.51,-2.21 -0.63,-0.56 -1.26,-1.11 -1.88,-1.67 -1.33,-1.2 -2.65,-2.43 -3.95,-3.67l-0.41 -0.38c-1.5,-1.43 -3,-2.88 -4.47,-4.36 -1.48,-1.48 -2.93,-2.97 -4.37,-4.48l-0.33 -0.35c-1.26,-1.34 -2.51,-2.68 -3.74,-4.04 -0.51,-0.56 -1,-1.13 -1.5,-1.7 -0.8,-0.89 -1.6,-1.79 -2.38,-2.7 -0.72,-0.84 -1.43,-1.69 -2.14,-2.53 -0.55,-0.65 -1.1,-1.3 -1.64,-1.96 -0.86,-1.04 -1.7,-2.1 -2.54,-3.16 -0.35,-0.44 -0.71,-0.88 -1.06,-1.33 -0.92,-1.18 -1.83,-2.37 -2.73,-3.56l-0.82 -1.09c-0.97,-1.3 -1.92,-2.61 -2.87,-3.94l-0.5 -0.7c-0.99,-1.4 -1.97,-2.8 -2.93,-4.22l-0.4 -0.6c-0.97,-1.44 -1.93,-2.9 -2.88,-4.37l-0.33 -0.52c-0.95,-1.48 -1.88,-2.98 -2.8,-4.48l-0.33 -0.54c-0.89,-1.47 -1.76,-2.95 -2.62,-4.44l-0.45 -0.79c-0.79,-1.38 -1.57,-2.77 -2.33,-4.17l-0.65 -1.21c-0.7,-1.29 -1.38,-2.59 -2.05,-3.89l-0.81 -1.59c-0.58,-1.14 -1.15,-2.28 -1.71,-3.44 -0.37,-0.76 -0.73,-1.52 -1.09,-2.28 -0.45,-0.95 -0.9,-1.89 -1.33,-2.85 -0.45,-0.98 -0.89,-1.96 -1.32,-2.95 -0.32,-0.73 -0.64,-1.46 -0.96,-2.19 -0.54,-1.25 -1.07,-2.51 -1.58,-3.77l-0.57 -1.4c-0.6,-1.5 -1.19,-3 -1.76,-4.5l-0.3 -0.79c-0.65,-1.74 -1.29,-3.48 -1.9,-5.23l-0.01 -0.03c-20.78,-59.44 -17.86,-125.31 8.77,-182.94l0.27 -0.59c0.69,-1.49 1.4,-2.97 2.13,-4.44l0.61 -1.24c0.64,-1.28 1.29,-2.56 1.95,-3.83l1 -1.9c0.59,-1.11 1.18,-2.21 1.79,-3.3 0.4,-0.73 0.81,-1.45 1.21,-2.18 0.56,-0.99 1.13,-1.98 1.7,-2.97 0.49,-0.84 0.99,-1.68 1.49,-2.52l0.84 -1.38c0.79,-1.3 1.59,-2.59 2.4,-3.87 0.27,-0.42 0.54,-0.85 0.82,-1.27 0.83,-1.28 1.66,-2.56 2.51,-3.83 0.37,-0.55 0.74,-1.1 1.11,-1.64 0.75,-1.11 1.52,-2.21 2.29,-3.3 0.55,-0.77 1.1,-1.54 1.65,-2.31 0.59,-0.81 1.18,-1.62 1.78,-2.43 0.77,-1.04 1.55,-2.07 2.34,-3.1 0.4,-0.52 0.81,-1.04 1.22,-1.56 0.94,-1.2 1.88,-2.39 2.84,-3.57l0.79 -0.96c1.09,-1.33 2.2,-2.66 3.32,-3.97l0.42 -0.48c3.96,-4.6 8.12,-9.09 12.49,-13.46 95.21,-95.22 249.57,-95.22 344.78,0 4.4,4.4 8.59,8.92 12.58,13.56l0.27 0.32c1.17,1.36 2.31,2.73 3.44,4.11l0.67 0.82c1,1.23 1.98,2.47 2.95,3.71 0.35,0.45 0.7,0.9 1.05,1.35 0.84,1.09 1.66,2.18 2.48,3.29 0.55,0.74 1.09,1.47 1.63,2.22 0.61,0.83 1.21,1.67 1.8,2.51 0.72,1.02 1.44,2.05 2.14,3.09 0.42,0.62 0.85,1.24 1.26,1.86 0.79,1.19 1.58,2.38 2.35,3.59 0.33,0.51 0.65,1.01 0.97,1.52 0.74,1.16 1.46,2.33 2.18,3.5 0.35,0.58 0.71,1.16 1.06,1.74 0.49,0.81 0.97,1.63 1.45,2.45 0.58,1 1.15,2 1.72,3 0.41,0.72 0.81,1.45 1.21,2.18 0.61,1.11 1.21,2.22 1.8,3.33 0.33,0.62 0.66,1.24 0.98,1.87 0.66,1.28 1.32,2.56 1.96,3.85l0.6 1.22c0.73,1.48 1.45,2.97 2.14,4.47l0.26 0.55c27.42,59.35 29.71,127.45 6.85,188.26l-0.27 0.72c-0.58,1.52 -1.17,3.03 -1.78,4.54l-0.57 1.4c-0.52,1.27 -1.05,2.53 -1.59,3.78 -0.31,0.71 -0.62,1.42 -0.93,2.12 -0.45,1.01 -0.9,2.03 -1.37,3.04 -0.43,0.93 -0.86,1.86 -1.3,2.79 -0.36,0.77 -0.73,1.54 -1.11,2.31 -0.55,1.13 -1.11,2.25 -1.67,3.37l-0.87 1.71c-0.65,1.26 -1.31,2.52 -1.99,3.77l-0.72 1.33c-0.74,1.36 -1.5,2.71 -2.27,4.05l-0.52 0.91c-0.83,1.43 -1.67,2.85 -2.52,4.27l-0.46 0.76c-0.87,1.43 -1.76,2.85 -2.66,4.26l-0.48 0.75c-0.9,1.39 -1.81,2.78 -2.73,4.15l-0.55 0.82c-0.91,1.35 -1.84,2.69 -2.78,4.01l-0.66 0.93c-0.89,1.25 -1.79,2.49 -2.71,3.72 -0.33,0.45 -0.67,0.89 -1.01,1.33 -0.84,1.11 -1.68,2.21 -2.53,3.3 -0.45,0.57 -0.9,1.14 -1.36,1.71 -0.75,0.93 -1.49,1.87 -2.25,2.79 -0.66,0.81 -1.34,1.61 -2.02,2.41 -0.58,0.69 -1.16,1.38 -1.75,2.06 -0.95,1.11 -1.93,2.21 -2.91,3.3 -0.33,0.37 -0.66,0.75 -0.99,1.12 -2.74,3.03 -5.57,6.01 -8.5,8.94z"/>
   <path class="fil4" d="M591.6 219.74c-4.6,-1.79 -9.28,-3.43 -13.95,-4.93l1.85 -24.1 0 0c0,-38.99 -37.27,-70.58 -76.22,-70.58l-0.03 0c-38.95,0.01 -76.19,31.59 -76.19,70.58l1.85 24.09c-0.34,0.11 -0.67,0.21 -1.01,0.32 -10.35,-36.28 -18.72,-100.84 48.3,-111.38 7.53,-6.07 17.17,-10.02 28.63,-10.02 9.48,0 20.2,2.71 32.03,9.16 8.67,4.73 16.03,7.17 22.32,7.17 6.59,0 11.96,-2.67 16.33,-8.18 1.31,-1.63 3.16,-2.42 4.98,-2.42 2.38,0 4.74,1.36 5.71,3.93 9.14,23.53 11.7,38.47 8.57,47.89 8.5,23.6 2.82,50.55 -3.16,68.46z"/>
   <path class="fil5" d="M622.86 659.55c-0.3,-82.6 0.71,-180.1 0.71,-180.1 0,0 0,0 0.03,0 0.57,0 29.34,-22.37 20.63,-73.18 -4.54,-26.67 -30.18,-30.87 -71.15,-43.93l0.1 -2.12 -28.53 -14.66 -7.5 0 0 -23.8c18.89,-13.06 35.76,-34.45 36.73,-56.77 0,-0.08 0,-0.17 0,-0.25 0,-0.05 0.03,-0.1 0.03,-0.15 0,-0.19 0,-0.37 0,-0.56 0,-0.36 0,-0.71 0,-1.06l0 0c7.76,-0.06 14.01,-6.34 14.01,-14.11l0 -14.68c0,-6.63 -4.57,-12.15 -10.72,-13.66l0.44 -5.72c4.67,1.5 9.34,3.14 13.95,4.93 -0.5,1.44 -0.98,2.83 -1.45,4.15 2.76,2.57 4.5,6.22 4.5,10.3l0 14.68c0,7.76 -6.25,14.05 -14.01,14.11 0,1.89 -0.13,3.77 -0.37,5.64 -0.3,2.66 -0.81,5.3 -1.55,7.91l-0.03 0.1c-0.1,0.42 -0.27,0.84 -0.37,1.26 -0.3,0.99 -0.64,1.97 -1.01,2.95 -0.64,1.76 -1.34,3.5 -2.15,5.21l-0.2 0.47c-0.2,0.43 -0.44,0.86 -0.67,1.29 -0.3,0.64 -0.64,1.28 -0.97,1.92 -0.98,1.85 -2.09,3.66 -3.26,5.44l-0.47 0.75c-0.3,0.44 -0.61,0.87 -0.91,1.3 -0.4,0.57 -0.77,1.14 -1.17,1.69 -1.31,1.78 -2.69,3.51 -4.1,5.19l-0.47 0.57c-0.61,0.69 -1.21,1.36 -1.85,2.03l-0.64 0.72c-0.5,0.56 -1.04,1.1 -1.58,1.64 -0.33,0.34 -0.64,0.68 -0.97,1.01 -0.4,0.39 -0.81,0.77 -1.21,1.16 -0.47,0.46 -0.94,0.94 -1.45,1.39 -1.75,1.61 -3.53,3.15 -5.34,4.62l-0.17 0.15c-1.75,1.4 -3.53,2.72 -5.31,3.98l-0.44 0.32 -0.1 0.06 0 23.8 7.5 0 28.53 14.66 -0.1 2.1c29.37,9.37 50.88,14.25 62.34,26.08l0.03 -0.04c28.7,27.1 59.39,61.79 78.17,100.07 10.07,20.47 11.42,37.23 8.88,50.28 -3.6,8.87 -7.7,17.48 -12.29,25.8 -2.06,2.4 -4.05,4.29 -5.74,5.67 -10.22,8.3 -37.04,9.56 -58.28,9.56 -9.28,0 -17.48,-0.24 -22.75,-0.24l-0.57 -0c-0.1,24.5 -0.13,50.93 -0.07,76.16l-0.31 0.19 -0.1 0.06c-2.07,1.25 -4.17,2.46 -6.28,3.65zm7.43 -180.1c0,0 -0.17,17.22 -0.37,43.28 8.67,0.68 19.06,1.4 27.22,1.4 6.65,0 11.83,-0.48 13.51,-1.84 0.2,-0.15 3.23,-3.03 -4.37,-11.46 -16.26,-18.12 -24.33,-23.46 -35.25,-31.88 -0.4,0.33 -0.67,0.49 -0.71,0.49 -0.03,0 -0.03,-0 -0.03,-0zm-263.25 100.28c-21.24,0 -48.06,-1.26 -58.28,-9.56 -10.28,-8.38 -31.76,-35.67 -9.14,-81.74 15.59,-31.75 39.35,-61.04 63.38,-85.57 -0.27,1.1 -0.5,2.23 -0.71,3.41 -8.7,50.81 20.06,73.18 20.67,73.18 0,0 0,0 0,-0 0,0 0,1.4 0.03,4.02 -8.37,6.42 -16.33,12.96 -29.31,27.37 -7.56,8.43 -4.57,11.31 -4.37,11.46 1.68,1.37 6.89,1.84 13.51,1.84 6.15,0 13.54,-0.41 20.5,-0.9 0.1,16.09 0.23,35.5 0.3,56.31 -4.67,0.07 -10.42,0.18 -16.6,0.18zm62.24 -359.96c-0.44,-1.49 -0.91,-3.04 -1.38,-4.65 0.34,-0.11 0.67,-0.22 1.01,-0.32l0.37 4.97z"/>
   <polygon class="fil6" points="461.88,380.68 544.65,380.68 544.65,345.57 461.88,345.57 "/>
   <polygon class="fil7" points="547.71,356.1 537.16,351.24 537.16,317.68 469.4,317.68 469.4,351.24 458.82,355.81 461.64,450.99 469.4,450.99 469.4,465.58 537.16,465.58 537.16,450.99 544.89,450.99 "/>
   <path class="fil8" d="M537.16 349.01l-67.75 -5.01 0 -22.23c11.63,8.03 23.99,12.9 33.84,12.91l0.03 0 0 0 0.03 0c0.03,0 0.03,0 0.03,0 0.03,0 0.03,0 0.07,0 0,0 0,0 0.03,0l0.03 0 0.03 0 0.03 0c0.03,0 0.03,0 0.03,0 0.03,0 0.03,0 0.07,0l0 0c0.03,0 0.07,0 0.07,-0l0.03 0c0,0 0.03,0 0.07,0l0 0c0.03,0 0.03,0 0.07,0 0,0 0,0 0,-0 0.03,0 0.07,0 0.07,0l0.03 0 0.03 0c0.03,0 0.03,-0 0.03,-0 0.03,0 0.03,0 0.07,0l0 0c0.03,0 0.03,0 0.07,-0 0,0 0,0 0.03,0l0.03 0 0.03 -0c0.03,0 0.03,0 0.03,0 0.03,0 0.03,0 0.07,0 0,-0 0,-0 0.03,-0 0,0 0,0 0.03,0l0.03 -0 0.03 0c0.03,0 0.03,-0 0.03,-0 0.03,0 0.03,0 0.07,0 0,0 0,-0 0.03,-0 0,0 0,0 0.03,0l0.03 -0 0.03 0c0.03,0 0.03,-0 0.03,-0 0.03,0 0.03,0 0.07,-0l0 0c0.03,0 0.03,0 0.07,-0l0 0c0.03,0 0.07,-0 0.07,-0 0.03,0 0.03,0 0.03,0 0,-0 0.03,-0 0.07,-0l0 -0c0.03,0 0.07,0 0.07,-0l0.03 0c0,0 0.03,-0 0.07,-0l0 0c0.03,-0 0.03,-0 0.07,-0l0 0c0.07,-0 0.1,-0.01 0.17,-0.01l0 0c0.07,-0 0.1,-0 0.13,-0.01 0.03,0 0.03,0 0.03,0 0.03,-0.01 0.1,-0.01 0.13,-0.01l0 0c0.03,-0 0.07,-0 0.1,-0.01l0 0c0.03,-0 0.03,-0 0.07,-0.01l0 0c0.03,0 0.07,-0 0.07,-0l0.03 0c0,-0 0.03,-0 0.07,-0.01l0 0c0.07,-0 0.1,-0.01 0.17,-0.01l0 0c0.03,-0 0.03,-0.01 0.07,-0.01 0,-0 0,-0 0,-0 0.03,0 0.07,-0 0.1,-0l0 0c0.03,-0.01 0.1,-0.01 0.13,-0.02 0,0 0,0 0.03,0 0,0 0.03,-0 0.07,-0.01l0 0c9.24,-0.96 20.13,-5.61 30.45,-12.74l0 27.25z"/>
   <path class="fil9" d="M548.69 356.33l-2.52 9.46c-4.37,12.48 -15.53,32.89 -42.04,32.89 -29.95,0 -41.34,-25.98 -44.9,-37.24l-1.34 -5.1c-55.12,20.7 -38.21,193.28 -38.21,193.28l-0.3 126.43c26.16,9.59 54.43,14.82 83.91,14.82 31.19,0 61.01,-5.87 88.42,-16.54l-2.02 -124.71c0,0 14.08,-172.58 -41,-193.28z"/>
   <polygon class="fil10" points="519.58,394.01 513.06,406.47 493.27,406.47 486.95,394.01 503.28,380.68 "/>
   <polygon class="fil11" points="503.28,380.68 482.44,402.62 446.82,360.11 469.03,349.04 477.4,356.78 "/>
   <polygon class="fil11" points="537.53,349.05 503.28,380.68 524.12,402.63 559.74,360.1 "/>
   <polygon class="fil10" points="513.06,409.45 521.13,668.82 503.28,688.57 485.4,668.82 493.27,409.45 "/>
   <path class="fil6" d="M644.23 406.28c-5.38,-31.64 -40.46,-31.65 -95.55,-52.35l-45.4 183.79 -45.4 -183.79c-55.12,20.71 -90.17,20.71 -95.58,52.35 -8.74,51.13 20.43,73.46 20.67,73.17 0,0 1.02,97.5 0.72,180.1 35.34,19.93 76.14,31.31 119.6,31.31 43.45,0 84.23,-11.38 119.56,-31.31 -0.31,-82.6 0.72,-180.1 0.72,-180.1 0.23,0.29 29.41,-22.04 20.67,-73.17z"/>
   <polygon class="fil12" points="433.38,360.23 434.48,392.6 450.65,405.9 438.05,423.1 502.84,537.71 461.88,345.57 "/>
   <polygon class="fil12" points="573.19,360.23 572.08,392.6 555.91,405.9 568.48,423.1 503.68,537.71 544.65,345.57 "/>
   <path class="fil11" d="M571 589.58l-135.31 0c-10.89,0 -19.76,-8.85 -19.76,-19.76l-8.47 -112.92c0,-10.91 8.87,-19.76 19.76,-19.76l152.24 0c10.92,0 19.76,8.85 19.76,19.76l-8.47 112.92c0,10.91 -8.84,19.76 -19.76,19.76z"/>
   <path class="fil13" d="M582.02 586.38c0.03,-0.09 0.1,-0.19 0.17,-0.28 5.18,-3.57 8.57,-9.53 8.57,-16.28l4.3 -57.55 -4.3 57.91c0,6.78 -3.5,12.73 -8.74,16.2zm17.21 -129.8c-0.17,-10.77 -8.97,-19.45 -19.76,-19.45l0.34 0c10.72,0 19.42,8.69 19.42,19.4l0 0.05zm-188.54 -10.71c3.46,-5.26 9.41,-8.74 16.2,-8.74l0.33 0c-6.75,0 -12.7,3.39 -16.26,8.56 -0.1,0.06 -0.2,0.12 -0.27,0.18z"/>
   <path class="fil14" d="M582.19 586.1c1.92,-3 3.02,-6.56 3.02,-10.38l8.47 -113.64c0,-10.72 -8.7,-19.41 -19.39,-19.41l-152.95 0c-3.83,0 -7.4,1.11 -10.39,3.02 3.56,-5.17 9.51,-8.56 16.26,-8.56l152.24 0c10.79,0 19.59,8.68 19.76,19.45l-4.17 55.69 -4.3 57.55c0,6.75 -3.39,12.72 -8.57,16.28z"/>
   <path class="fil15" d="M431.9 521.67l-0.77 0c-4.37,0 -7.93,-3.56 -7.93,-7.92l0 -0.79c0,-4.36 3.56,-7.92 7.93,-7.92l0.77 0c4.37,0 7.93,3.56 7.93,7.92l0 0.79c0,4.36 -3.56,7.92 -7.93,7.92z"/>
   <path class="fil7" d="M421.65 524.84c0,0 -13.28,1.48 -23.59,2.25 -2.59,0.16 -5.14,0.31 -7.56,0.46 -2.39,0.07 -4.6,0.14 -6.49,0.2 -3.76,-0.02 -6.25,-0.03 -6.25,-0.03l-1.01 42.34c0,0 3.16,0.01 7.83,0.03 2.28,-0.07 4.97,-0.15 7.83,-0.24 2.82,-0.17 5.81,-0.35 8.8,-0.53 11.86,-0.88 26.05,-2.5 26.05,-2.5 9.11,-1.2 14.72,-11.82 12.81,-23.3 -1.95,-11.57 -10.22,-19.74 -18.42,-18.67z"/>
   <path class="fil7" d="M407.56 513.89c-7.02,0.79 -12.44,5.75 -16.53,10.69 -4.03,4.86 -6.65,9.73 -6.86,10.14 -1.65,3.07 -1.28,7.55 1.08,9.87 2.35,2.29 5.68,1.67 7.29,-1.52 0.03,-0.06 0.5,-0.98 1.34,-2.34 0.84,-1.35 2.02,-3.14 3.49,-4.93 2.96,-3.64 6.92,-7.32 11.7,-7.87 2.76,-0.31 4.6,-3.7 4.13,-7.57 -0.47,-3.87 -3.02,-6.76 -5.64,-6.46z"/>
   <path class="fil6" d="M383.06 579.5c-17.37,0 -66.38,2.61 -81.03,-9.32 -10.28,-8.38 -31.76,-35.66 -9.14,-81.74 18.82,-38.28 49.47,-72.97 78.17,-100.07l34.04 71.07c-26.65,25.15 -33.1,23.54 -58.14,51.4 -7.56,8.43 -4.57,11.31 -4.37,11.46 4,3.26 28.2,1.45 44.09,0.18l4.07 56.3c-5.24,0.42 -2.22,0.72 -7.7,0.72z"/>
   <path class="fil7" d="M584.88 524.84c0,0 13.31,1.48 23.63,2.25 2.55,0.16 5.11,0.31 7.53,0.46 2.39,0.07 4.6,0.14 6.52,0.2 3.73,-0.02 6.22,-0.03 6.22,-0.03l1.01 42.34c0,0 -3.13,0.01 -7.83,0.03 -2.28,-0.07 -4.97,-0.15 -7.83,-0.24 -2.79,-0.17 -5.78,-0.35 -8.8,-0.53 -11.83,-0.88 -26.05,-2.5 -26.05,-2.5 -9.11,-1.2 -14.72,-11.82 -12.8,-23.3 1.98,-11.57 10.22,-19.74 18.42,-18.67z"/>
   <path class="fil7" d="M599 513.89c6.99,0.79 12.43,5.75 16.5,10.69 4.03,4.86 6.65,9.73 6.86,10.14 1.65,3.07 1.28,7.55 -1.08,9.87 -2.32,2.29 -5.68,1.67 -7.26,-1.52 -0.03,-0.06 -0.54,-0.98 -1.38,-2.34 -0.84,-1.35 -2.02,-3.14 -3.5,-4.93 -2.92,-3.64 -6.89,-7.32 -11.7,-7.87 -2.76,-0.31 -4.6,-3.7 -4.13,-7.57 0.47,-3.87 3.02,-6.76 5.68,-6.46z"/>
   <path class="fil6" d="M623.46 579.5c17.38,0 66.38,2.61 81.03,-9.32 10.28,-8.38 31.79,-35.66 9.14,-81.74 -18.79,-38.28 -49.47,-72.97 -78.17,-100.07l-33.07 71.87c26.65,25.15 32.13,22.74 57.17,50.61 7.59,8.43 4.57,11.31 4.37,11.46 -4,3.26 -28.2,1.45 -44.06,0.18l-4.1 56.3c5.28,0.42 2.22,0.72 7.69,0.72z"/>
   <path class="fil7" d="M577.22 220.53l2.29 -29.81c0,-38.99 -37.27,-70.58 -76.22,-70.58 -38.98,0 -76.22,31.59 -76.22,70.58l2.28 29.78c-2.18,0.52 -4.13,1.53 -5.78,2.93 -3.06,2.6 -4.97,6.44 -4.97,10.75l0 14.68c0,7.76 6.25,14.05 14.01,14.11 0,36.81 44.23,71.71 70.68,71.71 26.42,0 70.64,-34.89 70.64,-71.71 7.76,-0.06 14.01,-6.34 14.01,-14.11l0 -14.68c0,-6.63 -4.57,-12.15 -10.72,-13.66z"/>
   <path class="fil16" d="M503.28 334.69l-0.03 0c0.03,0 0.03,0 0.03,0l0.03 0 -0.03 0zm0.07 0c0.03,0 0.03,0 0.07,0 -0.03,0 -0.03,0 -0.07,0zm0.1 0l0.03 0 -0.03 0zm0.07 0l0.03 0 -0.03 0zm0.07 0c0.03,0 0.03,0 0.07,0 -0.03,0 -0.03,0 -0.07,0zm0.07 0c0.03,0 0.07,-0 0.07,-0 0,0 -0.03,0 -0.07,0zm0.1 -0c0,0 0.03,0 0.07,0 -0.03,0 -0.07,0 -0.07,0zm0.07 0c0.03,0 0.03,0 0.07,0 -0.03,0 -0.03,0 -0.07,0zm0.07 -0c0.03,0 0.07,0 0.07,0 0,0 -0.03,0 -0.07,0zm0.1 0l0.03 0 -0.03 0zm0.07 -0c0.03,0 0.03,0 0.07,0 -0.03,0 -0.03,0 -0.07,0zm0.07 0c0.03,0 0.03,0 0.07,-0 -0.03,0 -0.03,0 -0.07,0zm0.1 -0l0.03 0 -0.03 0zm0.07 -0c0.03,0 0.03,0 0.03,0 0,0 0,0 -0.03,0zm0.1 0c0,-0 0,-0 0.03,-0 -0.03,0 -0.03,0 -0.03,0zm0.07 -0l0.03 -0 -0.03 0zm0.07 -0c0.03,0 0.03,-0 0.03,-0 0,0 0,0 -0.03,0zm0.1 -0c0,0 0,-0 0.03,-0 -0.03,0 -0.03,0 -0.03,0zm0.07 -0l0.03 -0 -0.03 0zm0.07 -0c0.03,0 0.03,-0 0.03,-0 0,0 0,0 -0.03,0zm0.1 -0.01l0 0 0 0zm0.07 -0l0 0 0 0zm0.07 -0c0.03,0 0.03,0 0.03,0 0,0 0,0 -0.03,0zm0.1 -0l0 -0 0 0zm0.07 -0.01l0.03 0 -0.03 0zm0.1 -0l0 0 0 0zm0.07 -0l0 0 0 0zm0.17 -0.01l0 0 0 0zm0.13 -0.01c0.03,0 0.03,0 0.03,0 0,0 0,0 -0.03,0zm0.17 -0.01l0 0 0 0zm0.1 -0.01l0 0 0 0zm0.07 -0.01l0 0zm0.07 -0l0.03 0 -0.03 0zm0.1 -0.01l0 0 0 0zm0.17 -0.01l0 0 0 0zm0.07 -0.01l0 -0c0,0 0,0 0,0zm0.1 -0.01l0 0 0 0zm0.13 -0.02c0,0 0,0 0.03,0 -0.03,0 -0.03,0 -0.03,0zm0.1 -0.01l0 0 0 0z"/>
   <path class="fil17" d="M503.25 120.14l0.03 0c0,0 0,0 -0.03,0z"/>
   <path class="fil18" d="M503.28 334.69c0,0 0,0 -0.03,0l0 -60.69 -16.94 0c0,0 6.65,-31.74 16.94,-53.64l0 -100.22c0.03,0 0.03,0 0.03,0l0 0c38.95,0 76.22,31.59 76.22,70.58l-2.29 29.81 0 0c6.15,1.51 10.72,7.04 10.72,13.66l0 14.68c0,7.76 -6.25,14.05 -14.01,14.11l0 0c0,0.35 0,0.7 0,1.06 0,0.19 0,0.37 0,0.56 0,0.05 -0.03,0.1 -0.03,0.15 0,0.08 0,0.17 0,0.25 -1.48,34.51 -41.03,66.81 -67.18,69.51l0 0c-0.03,0 -0.07,0.01 -0.07,0.01 -0.03,0 -0.03,0 -0.03,0 -0.03,0.01 -0.1,0.01 -0.13,0.02l0 0c-0.03,0 -0.07,0 -0.1,0l0 0c-0.03,0 -0.03,0 -0.07,0.01l0 0c-0.07,0 -0.1,0.01 -0.17,0.01l0 0c-0.03,0 -0.07,0 -0.07,0.01l-0.03 0c0,0 -0.03,0 -0.07,0l0 0c-0.03,0 -0.03,0 -0.07,0.01l0 0c-0.03,0 -0.07,0 -0.1,0.01l0 0c-0.03,0 -0.1,0.01 -0.13,0.01 0,0 0,0 -0.03,0 -0.03,0 -0.1,0.01 -0.13,0.01l0 0c-0.07,0 -0.1,0.01 -0.17,0.01l0 0c-0.03,0 -0.03,0 -0.07,0l0 0c-0.03,0 -0.07,0 -0.07,0l-0.03 0c0,0 -0.03,0 -0.07,0l0 0c-0.03,0 -0.07,0 -0.07,0 0,0 0,0 -0.03,0 0,0 -0.03,0 -0.07,0l0 0c-0.03,0 -0.03,0 -0.07,0l0 0c-0.03,0 -0.03,0 -0.07,0 0,0 0,0 -0.03,0l-0.03 0 -0.03 0c-0.03,0 -0.03,0 -0.03,0 -0.03,0 -0.03,0 -0.03,0 -0.03,0 -0.03,0 -0.07,0 0,0 0,0 -0.03,0l-0.03 0 -0.03 0c-0.03,0 -0.03,0 -0.03,0 -0.03,0 -0.03,0 -0.03,0 -0.03,0 -0.03,0 -0.07,0 0,0 0,0 -0.03,0l-0.03 0 -0.03 0c-0.03,0 -0.03,0 -0.03,0 -0.03,0 -0.03,0 -0.07,0l0 0c-0.03,0 -0.03,0 -0.07,0 0,0 0,0 -0.03,0l-0.03 0 -0.03 0c0,0 -0.03,0 -0.07,0 0,0 0,0 0,0 -0.03,0 -0.03,0 -0.07,0l0 0c-0.03,0 -0.07,0 -0.07,0l-0.03 0c0,0 -0.03,0 -0.07,0l0 0c-0.03,0 -0.03,0 -0.07,0 0,0 0,0 -0.03,0l-0.03 0 -0.03 0 -0.03 0c-0.03,0 -0.03,0 -0.03,0 -0.03,0 -0.03,0 -0.07,0 0,0 0,0 -0.03,0l-0.03 0zm32.46 -108.49c-0.13,0 -0.27,0 -0.4,0.01 -6.15,0.22 -10.96,5.38 -10.76,11.53 0.2,6.02 5.14,10.76 11.12,10.76 0.13,0 0.27,-0 0.4,-0.01 6.15,-0.21 10.96,-5.38 10.76,-11.53 -0.2,-6.02 -5.14,-10.76 -11.12,-10.76z"/>
   <path class="fil18" d="M470.78 248.5c-5.98,0 -10.92,-4.74 -11.12,-10.76 -0.2,-6.15 4.6,-11.31 10.76,-11.53 0.13,-0 0.27,-0.01 0.4,-0.01 5.98,0 10.92,4.74 11.12,10.76 0.2,6.15 -4.6,11.32 -10.76,11.53 -0.13,0 -0.27,0.01 -0.4,0.01z"/>
   <path class="fil19" d="M481.94 234.14c0.2,6.15 -4.6,11.32 -10.76,11.53 -6.15,0.21 -11.33,-4.6 -11.53,-10.76 -0.2,-6.16 4.6,-11.32 10.76,-11.53 6.15,-0.22 11.33,4.6 11.53,10.75z"/>
   <path class="fil9" d="M477.37 239.42c0.07,1.54 -1.14,2.83 -2.69,2.88 -1.54,0.05 -2.82,-1.15 -2.89,-2.69 -0.03,-1.54 1.14,-2.83 2.69,-2.88 1.55,-0.05 2.82,1.15 2.89,2.69z"/>
   <path class="fil20" d="M535.71 248.5c-5.98,0 -10.92,-4.74 -11.12,-10.76 -0.2,-6.15 4.6,-11.31 10.76,-11.53 0.13,-0 0.27,-0.01 0.4,-0.01 5.98,0 10.92,4.74 11.12,10.76 0.2,6.15 -4.6,11.32 -10.76,11.53 -0.13,0 -0.27,0.01 -0.4,0.01z"/>
   <path class="fil19" d="M546.87 234.14c0.2,6.15 -4.6,11.32 -10.76,11.53 -6.15,0.21 -11.32,-4.6 -11.53,-10.76 -0.2,-6.16 4.6,-11.32 10.76,-11.53 6.15,-0.22 11.32,4.6 11.53,10.75z"/>
   <path class="fil9" d="M542.3 239.42c0.07,1.54 -1.14,2.83 -2.69,2.88 -1.55,0.05 -2.82,-1.15 -2.89,-2.69 -0.03,-1.54 1.14,-2.83 2.69,-2.88 1.55,-0.05 2.82,1.15 2.89,2.69z"/>
   <path class="fil21" d="M525.76 317.33c-2.05,1.34 -9.44,3.94 -15.46,5.23l0 -7.57c0,-3.9 -3.16,-7.06 -7.06,-7.06 -3.9,0 -7.06,3.16 -7.06,7.06l0 7.57c-5.98,-1.3 -13.38,-3.9 -15.39,-5.24 -1.14,-3.4 -0.94,-11.94 -1.41,-21 6.52,-4.96 18.99,-6.61 23.89,-6.85 4.91,0.24 17.34,1.89 23.89,6.84 -0.5,9.02 -0.27,17.59 -1.41,21.01zm11.22 -27.36c-10.11,-10.57 -31.12,-11.69 -33.5,-11.79l-0.44 0c-2.35,0.1 -23.36,1.22 -33.47,11.79 -1.04,1.06 -1.58,2.48 -1.58,3.95 0.13,14.57 2.59,28.43 2.79,29.01 0.37,0.93 0.98,1.75 1.75,2.37 0.47,0.38 14.62,9.34 30.72,9.34 16.13,0 30.28,-8.95 30.75,-9.33 0.77,-0.62 1.38,-1.44 1.75,-2.38 0.23,-0.59 2.66,-14.44 2.79,-29.01 0.03,-1.47 -0.54,-2.89 -1.55,-3.95z"/>
   <path class="fil21" d="M588.04 151.28c3.13,-9.42 0.57,-24.36 -8.57,-47.89 -1.75,-4.52 -7.66,-5.31 -10.69,-1.52 -8.57,10.78 -20.94,10.68 -38.65,1.01 -26.15,-14.25 -46.88,-10.21 -60.66,0.87 -94.1,14.8 -39.59,136.08 -39.59,136.08 0,0 -6.45,-73.01 26.65,-68.2 20.33,2.96 35.42,3.97 46.75,3.88 11.33,0.09 26.42,-0.92 46.75,-3.88 33.07,-4.82 26.62,68.2 26.62,68.2 0,0 25.64,-49.01 11.39,-88.55z"/>
   <path class="fil6" d="M546 256.89c-20.4,0 -26.79,-10.71 -30.15,-26.79 -0.74,-3.71 -0.13,-6.83 1.85,-9.27 2.82,-3.47 10.05,-7.6 28.3,-7.6 26.45,0 26.45,13.13 26.45,17.45 0,13.61 -3.19,26.21 -26.45,26.21zm-55.22 -26.79c-3.33,16.08 -9.71,26.79 -30.11,26.79 -23.26,0 -26.48,-12.6 -26.48,-26.21 0,-4.32 0,-17.45 26.48,-17.45 18.25,0 25.44,4.14 28.26,7.6 2.02,2.45 2.62,5.57 1.85,9.27zm91.55 -18.38l-15.29 0c-4.84,-2.53 -11.6,-4.14 -21.04,-4.14 -15.73,0 -26.42,3.01 -31.89,8.9 -2.59,-1.43 -6.45,-3.05 -10.82,-3.05 -4.33,0 -8.17,1.59 -10.79,3.01 -5.48,-5.86 -16.13,-8.86 -31.83,-8.86 -9.48,0 -16.23,1.61 -21.04,4.14l-15.39 0 0 11.01 5.04 1.77c-0.5,2.07 -0.74,4.16 -0.74,6.18 0,13.67 3.33,31.86 32.13,31.86 25.71,0 32.43,-15.81 35.66,-31.29 0.47,-2.35 0.54,-4.58 0.2,-6.68 1.24,-0.8 3.33,-1.51 6.75,-1.51 3.49,0 5.58,0.74 6.82,1.57 -0.3,2.08 -0.23,4.3 0.23,6.62 3.19,15.47 9.95,31.29 35.66,31.29 28.77,0 32.1,-18.18 32.1,-31.86 0,-2.03 -0.2,-4.14 -0.74,-6.21l4.98 -1.74 0 -11.01z"/>
  </g>
 </g>
</svg>
