<?xml version="1.0" encoding="UTF-8"?>
<!DOCTYPE svg PUBLIC "-//W3C//DTD SVG 1.1//EN" "http://www.w3.org/Graphics/SVG/1.1/DTD/svg11.dtd">
<!-- Creator: CorelDRAW 2018 (64-Bit Evaluation Version) -->
<svg xmlns="http://www.w3.org/2000/svg" xml:space="preserve" width="43.3494mm" height="43.3492mm" version="1.1" style="shape-rendering:geometricPrecision; text-rendering:geometricPrecision; image-rendering:optimizeQuality; fill-rule:evenodd; clip-rule:evenodd"
viewBox="0 0 1006.53 1006.52"
 xmlns:xlink="http://www.w3.org/1999/xlink">
 <defs>
  <style type="text/css">
   <![CDATA[
    .fil0 {fill:#F3F3F4}
    .fil1 {fill:#BDBFC1}
    .fil5 {fill:#E6E7E8;fill-rule:nonzero}
    .fil2 {fill:#A9ABAE;fill-rule:nonzero}
    .fil6 {fill:#96989A;fill-rule:nonzero}
    .fil3 {fill:#80A2CE;fill-rule:nonzero}
    .fil4 {fill:#577CA4;fill-rule:nonzero}
   ]]>
  </style>
   <mask id="id0">
  <linearGradient id="id1" gradientUnits="userSpaceOnUse" x1="503.67" y1="352.98" x2="503.68" y2="1102.47">
   <stop offset="0" style="stop-opacity:0; stop-color:white"/>
   <stop offset="1" style="stop-opacity:1; stop-color:white"/>
  </linearGradient>
    <rect style="fill:url(#id1)" x="58.62" y="178.64" width="889.29" height="514.54"/>
   </mask>
    <mask id="id2">
  <linearGradient id="id3" gradientUnits="userSpaceOnUse" x1="512.91" y1="517.12" x2="512.92" y2="902.52">
   <stop offset="0" style="stop-opacity:0; stop-color:white"/>
   <stop offset="1" style="stop-opacity:1; stop-color:white"/>
  </linearGradient>
     <rect style="fill:url(#id3)" x="345.22" y="575.05" width="68.45" height="104.42"/>
    </mask>
 </defs>
 <g id="Layer_x0020_1">
  <metadata id="CorelCorpID_0Corel-Layer"/>
  <rect class="fil0" x="0" y="-0" width="1006.53" height="1006.53"/>
  <path class="fil1" style="mask:url(#id0)" d="M503.26 180.97c244.29,0 442.32,114.14 442.32,254.95 0,140.8 -198.03,254.95 -442.32,254.95 -244.29,0 -442.32,-114.14 -442.32,-254.95 0,-140.8 198.03,-254.95 442.32,-254.95z"/>
  <g id="_2095620801120">
   <path class="fil1" style="mask:url(#id2)" d="M411.34 677.15c-3.68,-1.06 -7.3,-2.17 -10.86,-3.33 -7.51,-9 -17.01,-22 -26.28,-37.24 -18.69,-30.56 -28.95,-57.87 -26.23,-59.15 2.84,-1.36 17.38,23.33 35.74,53.35 11.76,19.33 22.28,36.25 27.63,46.37z"/>
   <path class="fil2" d="M362.37 299.54c-7.03,-34.82 -23.43,-76.94 -25.12,-112.34 -0.81,-17 -0.24,-34.68 7.57,-50.04 7.81,-15.36 24.52,-27.87 42.63,-26.69 19.6,1.28 35.43,17.48 55.04,18.56 13.88,0.77 27.07,-6.24 40.97,-6.5 12.39,-0.23 24.76,5.31 32.37,14.49 6.47,7.82 9.65,18.03 17.63,24.51 7.45,6.06 17.98,7.91 25.52,13.87 10.37,8.19 12.81,22.08 13.95,34.76 2.78,31.16 1.86,62.61 -2.75,93.58l-207.83 -4.21z"/>
   <path class="fil3" d="M327.3 635.73c12,-60.38 50.29,-153.61 172.46,-152.85 125.2,0.78 166.12,103.36 179.46,166.17 -41.53,25.72 -100.76,41.81 -166.52,41.81 -76.49,0 -144.16,-21.77 -185.4,-55.14z"/>
   <path class="fil4" d="M544.81 689.56c-2.46,0.2 -4.94,0.38 -7.43,0.54l0 -0.01c0.53,-0.79 1.62,-1.9 3.23,-3.27l0.01 -0.01 0.02 -0.02 0.01 -0.01 0.01 -0.01 0.01 -0.01 0.04 -0.03 0.27 -0.23 0.34 -0.28 0.03 -0.03 0.04 -0.03 0.01 -0.01 0 0c0.88,-0.72 1.87,-1.5 2.98,-2.35l0.19 -0.14 0.03 -0.02 0.03 -0.03 0.03 -0.02 0.03 -0.02 0.03 -0.02 0.03 -0.03 0.1 -0.07 0.03 -0.02 0.07 -0.05 0.03 -0.02 0.03 -0.02 0.03 -0.03 0.03 -0.02 0.05 -0.04 0.02 -0.01 0.03 -0.03 0.03 -0.02 0.03 -0.03 0.07 -0.05 0.03 -0.02 0.03 -0.03 0.03 -0.03 0.03 -0.02 0.03 -0.03 0.03 -0.02 0.03 -0.03 0.03 -0.03 0.03 -0.02 0.03 -0.03 0.03 -0.03 0.03 -0.03 0.03 -0.03 0.03 -0.02 0.03 -0.03 0.03 -0.02 0.03 -0.03 0.03 -0.03 0 -0 0.03 -0.02 0.03 -0.03 0.03 -0.02 0.03 -0.03 0.03 -0.03 0.03 -0.03 0.03 -0.03 0.03 -0.03 0.03 -0.03 0.03 -0.03 0.03 -0.03 0.03 -0.03 0.03 -0.02 0.03 -0.03 0.03 -0.03 0.03 -0.02 0.03 -0.03 0.03 -0.02 0.04 -0.03 0.03 -0.03 0.03 -0.03 0.03 -0.03 0.03 -0.03 0.02 -0.01 0.85 -0.61 1.24 -0.88 0.28 -0.2 0.27 -0.19 0.94 -0.66 0.97 -0.67 1 -0.69 1.03 -0.7 1.05 -0.72 1.08 -0.73 0.08 -0.05 1.01 -0.68 0.02 -0.01 1.14 -0.75 1.16 -0.77 1.19 -0.78 1.21 -0.79 1.24 -0.8 1.26 -0.81 1.29 -0.82 1.31 -0.83 1.33 -0.85 0.11 -0.07 1.23 -0.78 0.02 -0.01 1.38 -0.86 1.4 -0.87 1.42 -0.88 1.44 -0.89 1.46 -0.9 1.48 -0.91 1.5 -0.91 1.52 -0.92 1.53 -0.93 0.13 -0.08 1.41 -0.85 0.01 -0 1.57 -0.94 1.58 -0.95 1.6 -0.95 1.62 -0.95 1.63 -0.96 1.64 -0.96 1.66 -0.97 1.67 -0.97 1.68 -0.98 1.69 -0.98c36.31,-20.86 66.99,-35.61 68.53,-32.94 1.53,2.66 -26.67,21.75 -62.97,42.6l-0.05 0.03 -0.05 0.03 -0.05 0.03 -0.05 0.03 -0.05 0.03 -0.05 0.03 -0.05 0.03 -0.05 0.03 -0.05 0.03 -0.05 0.03 -0.06 0.03 -0.74 0.42 -0.05 0.03 -0.05 0.03 -0.05 0.03 -0.11 0.06 -0.05 0.03 -0.11 0.06 -0.05 0.03 -0.1 0.06 -0.05 0.03 -0.11 0.06 -0.05 0.03 -0.05 0.03 -0.05 0.03 -0.05 0.03 -0.05 0.03 -0.05 0.03 -0.05 0.03 -0.05 0.03 -0.05 0.03 -0.05 0.03 -0.05 0.03 -0.05 0.03 -0.05 0.03 -0.05 0.03 -0.05 0.03 -0.05 0.03 -0.05 0.03 -0.05 0.03 -0.05 0.03 -0.05 0.03 -0.05 0.03 -0.05 0.03 -0.05 0.03 -0.05 0.03 -0.05 0.03 -0.26 0.15 -1.21 0.68 -0.22 0.13 -1.67 0.95 -1.66 0.94 -0.04 0.02 -1.18 0.66 -0.43 0.24 -1.64 0.91 -0.29 0.16 -1.17 0.65 -0.18 0.1 -1.61 0.89 -1.6 0.88 -0.07 0.04 -1.14 0.62 -0.38 0.21 -1.57 0.86 -0.31 0.17 -1.12 0.61 -0.13 0.07 -1.54 0.83 -1.53 0.82 -0.1 0.06 -1.08 0.58 -0.33 0.17 -1.49 0.8 -0.33 0.17 -1.06 0.56 -0.09 0.05 -1.46 0.77 -1.44 0.75 -0.13 0.07 -1.02 0.53 -0.27 0.14 -1.4 0.72 -0.33 0.17 -0.99 0.51 -0.06 0.03 -1.36 0.7 -1.34 0.68 -0.15 0.08 -0.95 0.48 -0.22 0.11 -1.3 0.65 -0.34 0.17 -0.91 0.45 -0.03 0.01 -1.25 0.62 -1.23 0.6 -0.16 0.08 -0.86 0.42 -0.18 0.09 -0.67 0.32 -0.5 0.24 0 0 -0.33 0.16 -0.82 0.39 -0 0 -0.81 0.38 -0.31 0.15 -1.1 0.51 -0.17 0.08 -0.77 0.36 -0.13 0.06 -1.04 0.48 -1.01 0.46 -0.03 0.01 -0.71 0.32 -0.25 0.11 -0.96 0.42 -0.16 0.07 -0.66 0.29 -0.1 0.04 -0.89 0.38 -0.87 0.36 -0.04 0.02 -0.6 0.25 -0.19 0.08 -0.02 0.01 -0.7 0.28 -0.08 0.03 -0.16 0.06 -0.55 0.22 -0.02 0.01z"/>
   <path class="fil5" d="M369.21 232.48c-3.52,32.03 -6.12,69.89 -4.54,104.73 2.2,48.43 37.22,89.04 84.91,97.7l7.84 1.43 -4.45 55.83 90.82 -0.93 19.88 -129.97c0,0 32.76,6.09 51.44,-23.69 20.29,-32.36 6.76,-91.39 -23.18,-64.38 -35.07,31.65 -42.65,31.28 -42.65,31.28 -6.06,-40.93 17.08,-123.71 -79.32,-144.75 -48.42,-10.56 -95.33,23.48 -100.75,72.75z"/>
   <path class="fil5" d="M453.72 487.62c0,0 19.32,63.4 33.05,64.66 11.62,1.06 57.51,-64.27 57.51,-64.27l-90.56 -0.39z"/>
   <path class="fil2" d="M356.79 187.43c-6.8,12.12 0.97,28.6 13.43,34.77 12.46,6.17 27.55,4.12 40.48,-0.99 12.93,-5.11 24.57,-13.02 37.23,-18.76 27.44,-12.46 59.58,-14.21 88.2,-4.8 -6.89,-22.37 -25.95,-39.69 -47.73,-48.29 -21.77,-8.59 -45.99,-9.26 -69.19,-6.13 -15.59,2.1 -31.29,6.01 -44.49,14.56 -13.2,8.56 -23.67,22.38 -25.21,38.03l7.28 -8.39z"/>
   <path class="fil4" d="M549.78 492.18c1.16,0.84 -3.16,9.8 -13.1,22.46 -9.77,12.8 -26.56,27.96 -46.15,41.98 -2.44,1.77 -4.85,3.52 -7.23,5.24 -1.17,0.63 -2.79,2.72 -7.36,2.83 -2.25,-0.03 -4.53,-1.34 -5.64,-2.63 -1.18,-1.28 -1.7,-2.4 -2.12,-3.3 -2.08,-5.33 -4.08,-10.49 -6.01,-15.44 -3.7,-9.74 -6.88,-18.58 -9.41,-26.06 -5.05,-14.96 -7.46,-24.5 -6.04,-25.08 1.42,-0.59 6.41,7.9 13.33,22.09 3.45,7.1 7.4,15.62 11.62,25.15 2.06,4.75 4.21,9.69 6.43,14.79 0.1,0.55 0.78,-0.04 -1.05,1.43 -1,1 -0.76,1.17 -0.78,0.88 0,-0.2 -0.02,-0.66 -0.25,-1.38 -0.11,-0.36 -0.27,-0.77 -0.49,-1.28l0.03 -0.1c0.18,-0.1 0.56,-0.37 1.21,-0.86 2.35,-1.73 4.74,-3.48 7.16,-5.26 19.48,-13.98 35.94,-27.25 46.89,-38.27 11.05,-10.88 17.63,-18.16 18.95,-17.19z"/>
   <path class="fil4" d="M631.36 529.55c0.98,1.18 -13.96,15.45 -38.91,37.55 -24.95,22.1 -59.92,52.05 -98.98,84.59 -4.81,3.99 -10.14,8.68 -17.35,11.28 -3.61,1.27 -8.07,1.88 -12.39,0.62 -4.3,-1.17 -7.86,-4.2 -10.04,-7.13 -4.39,-6.13 -6.13,-11.28 -8.87,-16.45 -2.52,-5.18 -4.99,-10.26 -7.4,-15.22 -9.61,-19.82 -18.12,-37.75 -25.13,-52.87 -14.01,-30.25 -21.99,-49.3 -20.6,-49.99 1.37,-0.69 11.84,17.11 27.65,46.46 7.91,14.67 17.15,32.23 27.26,51.81 2.52,4.9 5.1,9.92 7.74,15.05 2.68,4.98 5.22,10.95 7.96,14.5 2.86,3.53 5.61,4.26 10.15,2.77 4.53,-1.63 9.02,-5.24 13.89,-9.38 39.06,-32.55 74.82,-61.53 101.07,-82.08 26.24,-20.56 42.97,-32.68 43.96,-31.5z"/>
   <path class="fil4" d="M400.48 673.82c-7.51,-9 -17.01,-22 -26.28,-37.24 -18.69,-30.56 -28.95,-57.87 -26.23,-59.15 2.84,-1.36 17.38,23.33 35.74,53.35 11.76,19.33 22.28,36.25 27.63,46.37 -3.68,-1.06 -7.3,-2.17 -10.86,-3.33z"/>
   <path class="fil6" d="M527.07 186.39c-0.76,1.64 -11.31,-3.42 -29.27,-2.24 -8.94,0.43 -19.56,2.35 -31.43,5.06 -11.8,2.68 -25.34,6.22 -40.17,7.18 -14.73,1.01 -29.95,-1.09 -41.77,-8.13 -12.04,-6.81 -19.03,-17.99 -22.03,-27.43 -3.13,-9.63 -2.67,-17.95 -1.48,-23.28 1.24,-5.39 2.99,-7.95 3.64,-7.74 0.81,0.24 0.53,3.16 0.68,8.15 0.18,4.97 0.98,12.19 4.53,20.07 3.51,7.81 9.77,16.27 19.67,21.27 9.78,5.23 22.52,6.88 36.05,5.98 13.62,-0.88 26.53,-3.9 38.85,-6.13 12.26,-2.22 23.74,-3.46 33.47,-2.88 9.73,0.44 17.5,2.73 22.42,5.04 4.96,2.28 7.14,4.51 6.84,5.07z"/>
   <path class="fil6" d="M391.19 216.34c-0.06,1.49 -2.87,2.86 -7.58,3.12 -4.68,0.26 -11.23,-0.81 -17.73,-3.88 -6.49,-3.08 -11.48,-7.46 -14.25,-11.24 -2.8,-3.8 -3.52,-6.84 -2.4,-7.83 2.44,-2.02 10.61,4.02 21.41,9 10.7,5.18 20.56,7.66 20.55,10.83z"/>
  </g>
  <path class="fil6" d="M307.89 829.72c0,1.25 -0.69,1.86 -2.03,1.86l-1.57 0c-2.69,0 -5.52,-1.3 -8.42,-3.89 -1.04,8.24 -3.38,15.72 -7.04,22.49 -1.76,3.17 -4.05,6.55 -6.88,10.18 -2.8,3.62 -6.16,7.46 -10.07,11.51 -3.33,0 -6.88,-0.56 -10.61,-1.63 -3.7,-0.91 -6.37,-2.02 -8.05,-3.36 10.93,-5.22 19.83,-11.57 26.7,-19.08 5.68,-6.24 8.9,-11.65 9.67,-16.23 -0.77,-6.18 -4.32,-12.34 -10.61,-18.41l4.77 -14.04 7.01 11.01c4.58,7.06 9.09,10.61 13.51,10.61l1.57 0c1.33,0 2.03,0.75 2.03,2.26l0 6.72z"/>
  <path id="1" class="fil6" d="M329.98 810.1c-1.14,6.32 -3.84,11.41 -8.05,15.32 -4.58,4.1 -9.97,6.16 -16.18,6.16l-1.54 0c-1.31,0 -1.95,-0.61 -1.95,-1.86l0 -6.74c0,-1.52 0.64,-2.27 1.95,-2.27l3.65 0c7.73,0 12.79,-2.58 15.24,-7.73 -0.37,-1.97 -1.14,-3.92 -2.32,-5.81 -1.17,-1.89 -2.69,-3.76 -4.56,-5.57l5.7 -13.67c4.53,7.25 7.2,14.63 8.05,22.17zm-28.43 42l7.49 -7.67 7.73 7.67 -7.73 7.49 -7.49 -7.49zm17.64 0l7.51 -7.67 7.73 7.67 -7.73 7.49 -7.51 -7.49z"/>
  <path id="2" class="fil6" d="M385.09 829.72c0,1.25 -0.67,1.86 -1.97,1.86l-5.62 0c-1.36,7.76 -4.13,15.03 -8.31,21.83 -4.18,6.79 -9.83,13.17 -16.95,19.11 -6.66,-0.43 -12.5,-2.32 -17.51,-5.7 12.12,-6.24 21.48,-12.87 28.03,-19.88 5.2,-5.73 8.1,-11.01 8.66,-15.83 -1.09,0.19 -2.26,0.32 -3.52,0.37 -1.23,0.08 -2.53,0.11 -3.89,0.11 -3.17,0 -6.93,-0.53 -11.25,-1.57 -1.95,-0.51 -3.6,-0.99 -4.96,-1.39 -1.38,-0.43 -2.53,-0.88 -3.41,-1.33 -0.19,-1.2 -0.32,-2.24 -0.37,-3.09 -0.08,-0.85 -0.11,-1.55 -0.11,-2.05 0.42,-14.52 5.81,-24.54 16.2,-30.06 11.14,3.17 17.08,12.71 17.86,28.62l5.14 0c1.3,0 1.97,0.75 1.97,2.27l0 6.74zm-13.19 -9.49c-0.21,-3.65 -1.76,-7.3 -4.69,-11.01 -1.36,-1.76 -2.83,-3.12 -4.4,-4.02 -1.6,-0.91 -3.3,-1.49 -5.12,-1.76 -4.1,3.6 -6.18,8.34 -6.18,14.2 1.79,1.09 3.84,1.89 6.21,2.4 2.37,0.48 5.04,0.75 8.02,0.75 0.72,0 1.63,-0.05 2.69,-0.13 1.07,-0.08 2.21,-0.21 3.46,-0.42z"/>
  <path id="3" class="fil6" d="M484.12 829.72c0,1.25 -0.67,1.86 -1.97,1.86l-7.01 0c-3.49,0 -7.51,-0.24 -12.1,-0.75 -4.58,-0.48 -9.83,-1.28 -15.7,-2.37 -4.74,1.09 -9.52,1.89 -14.28,2.37 -4.8,0.51 -9.65,0.75 -14.52,0.75 -11.62,0 -18.04,-3.36 -19.29,-10.1l-0.24 0c-0.51,1.47 -1.23,2.83 -2.13,4.05 -0.91,1.2 -2.08,2.29 -3.49,3.22 -2.96,1.89 -6.45,2.83 -10.45,2.83l-1.57 0c-1.3,0 -1.95,-0.61 -1.95,-1.86l0 -6.74c0,-1.52 0.64,-2.27 1.95,-2.27l1.57 0c9.81,0 14.71,-5.62 14.71,-16.87 0.8,-0.32 1.49,-0.45 2.13,-0.45 1.09,0 2.21,0.29 3.3,0.93 -0.32,2.9 -0.48,5.57 -0.48,7.97 0,2.32 0.88,4.32 2.66,5.97 1.76,1.63 4.21,2.45 7.33,2.45 5.46,-6.29 10.47,-11.59 15.03,-15.91 4.56,-4.32 8.77,-7.67 12.6,-10.13 5.46,-3.44 10.74,-5.14 15.86,-5.14 5.73,0 10.5,2.02 14.36,6.08 3.65,3.7 5.46,7.92 5.46,12.63 -1.25,3.94 -5.12,7.92 -11.62,11.94l0 0.53 17.86 0c1.3,0 1.97,0.75 1.97,2.27l0 6.74zm-16.95 -17.43c0,-3.23 -1.52,-6.26 -4.53,-9.12 -2.99,-2.8 -6.37,-4.21 -10.15,-4.21 -9.33,0 -20.39,7.25 -33.18,21.74l14.2 0c6.82,0 13.51,-0.85 20.07,-2.58 6.29,-1.6 10.82,-3.54 13.59,-5.83z"/>
  <path id="4" class="fil6" d="M506.29 810.1c-1.14,6.32 -3.84,11.41 -8.05,15.32 -4.58,4.1 -9.97,6.16 -16.18,6.16l-1.54 0c-1.31,0 -1.95,-0.61 -1.95,-1.86l0 -6.74c0,-1.52 0.64,-2.27 1.95,-2.27l3.65 0c7.73,0 12.79,-2.58 15.24,-7.73 -0.37,-1.97 -1.14,-3.92 -2.32,-5.81 -1.17,-1.89 -2.69,-3.76 -4.56,-5.57l5.7 -13.67c4.53,7.25 7.2,14.63 8.05,22.17zm-29.23 -44.34l7.49 -7.67 7.73 7.67 -7.73 7.49 -7.49 -7.49zm17.64 0l7.51 -7.67 7.73 7.67 -7.73 7.49 -7.51 -7.49z"/>
  <path id="5" class="fil6" d="M616.54 826.89c-0.03,1.86 -0.45,4.11 -1.2,6.66 -0.75,2.59 -1.81,5.57 -3.17,9.01 -2.18,2.18 -4.8,4.18 -7.86,6 -3.09,1.84 -6.64,3.57 -10.63,5.22 -8.85,3.65 -17.53,5.46 -26.06,5.46 -8.02,0 -14.47,-1.92 -19.37,-5.76 -5.25,-4.05 -7.86,-9.57 -7.86,-16.52 0,-4.24 0.88,-8.93 2.67,-14.1 1.79,-5.2 4.5,-10.87 8.15,-17.05 1.57,0 3.12,0.75 4.61,2.26 -0.93,1.55 -1.81,3.28 -2.61,5.17 -0.8,1.92 -1.55,4.02 -2.21,6.37 -1.09,4.21 -1.65,7.73 -1.65,10.55 0,5.36 1.84,9.59 5.51,12.71 3.65,3.12 8.85,4.69 15.56,4.69 3.76,-0.05 7.49,-0.45 11.24,-1.2 3.76,-0.77 7.38,-1.84 10.9,-3.2 3.49,-1.39 6.82,-3.04 9.94,-4.96 3.12,-1.92 6,-4.08 8.58,-6.48 0.11,-1.52 -0.05,-3.41 -0.45,-5.7 -0.42,-2.27 -1.01,-4.93 -1.81,-7.94 -0.72,-3.33 -1.57,-6.32 -2.56,-8.96 -0.99,-2.66 -2,-5.01 -3.04,-7.04l6.77 -14.5c4.48,11.99 6.71,24.04 6.71,36.08 0,0.59 0,1.14 0,1.68 0,0.56 -0.05,1.07 -0.16,1.52zm-36.32 -44.18l-9.43 -7.92 8.58 -8.55 9.3 7.99 -8.45 8.47z"/>
  <path id="6" class="fil6" d="M665.92 820.74c0.11,1.92 0.08,3.76 -0.08,5.54 -0.16,1.76 -0.4,3.55 -0.72,5.3 -2.32,15.32 -10.71,28.97 -25.18,40.93 -6.29,-0.37 -11.94,-2.27 -16.95,-5.7 5.36,-2.56 10.23,-5.3 14.63,-8.29 4.4,-2.96 8.18,-6.05 11.33,-9.25 3.14,-3.2 5.65,-6.48 7.49,-9.81 1.86,-3.33 2.93,-6.64 3.25,-9.91 -2.56,1.36 -5.78,2.02 -9.67,2.02 -1.04,0 -2.35,-0.11 -3.86,-0.32 -1.55,-0.21 -3.25,-0.56 -5.12,-1.09 -1.95,-0.51 -3.57,-1.01 -4.93,-1.47 -1.36,-0.48 -2.51,-0.96 -3.44,-1.41 -0.19,-1.2 -0.32,-2.24 -0.37,-3.09 -0.08,-0.85 -0.11,-1.55 -0.11,-2.05 0.42,-14.36 5.65,-24.38 15.75,-30.06 11.22,3.17 17.21,12.71 17.99,28.65zm-6.24 -1.68c0,-3.33 -1.33,-6.64 -4.05,-9.91 -1.52,-1.76 -3.06,-3.09 -4.64,-4 -1.6,-0.93 -3.28,-1.52 -5.04,-1.76 -4.1,3.57 -6.18,8.31 -6.18,14.2 1.79,1.09 3.62,1.89 5.54,2.37 1.95,0.51 3.97,0.75 6.1,0.75 3.71,0 6.45,-0.56 8.26,-1.65z"/>
  <path id="7" class="fil6" d="M730.88 829.72c0,1.25 -0.69,1.86 -2.02,1.86l-1.49 0c-5.46,0 -9.94,-5.28 -13.43,-15.83l-0.24 0c-0.56,3.92 -1.6,7.43 -3.12,10.55 -1.36,0.75 -2.98,1.44 -4.9,2.13 -1.95,0.67 -4.24,1.36 -6.88,2.02 -2.83,0.61 -5.3,1.09 -7.49,1.41 -2.21,0.35 -4.13,0.51 -5.78,0.51 -3.17,0 -6.18,-0.42 -8.98,-1.28 -0.11,-1.79 -0.19,-3.3 -0.24,-4.53 -0.05,-1.2 -0.08,-2.1 -0.08,-2.69 0,-0.93 0.08,-2.26 0.27,-3.92 0.19,-1.68 0.45,-3.68 0.83,-6.02 0.43,-0.11 0.77,-0.19 1.09,-0.24 0.32,-0.05 0.59,-0.08 0.77,-0.08 0.37,0 0.72,0.08 1.01,0.19 0.32,0.13 0.67,0.32 1.04,0.51l0 2.13c0,1.76 0.08,2.98 0.21,3.65 2.11,0.93 4.5,1.41 7.27,1.41 1.97,0 4.11,-0.21 6.37,-0.61 2.27,-0.43 4.66,-0.99 7.22,-1.73 2.37,-0.83 4.48,-1.65 6.23,-2.48 1.76,-0.85 3.25,-1.73 4.45,-2.66 -1.92,-5.3 -3.86,-10.98 -5.78,-17.03 -1.92,-6.08 -3.89,-12.58 -5.94,-19.53l6.1 -13.19c2.77,12.55 5.17,22.81 7.25,30.83 2.11,8.02 3.84,13.91 5.25,17.64 2.08,5.3 4.58,7.97 7.49,7.97l1.49 0c1.33,0 2.02,0.75 2.02,2.27l0 6.74z"/>
  <path id="8" class="fil6" d="M753.3 810.1c-1.14,6.32 -3.84,11.41 -8.05,15.32 -4.58,4.1 -9.97,6.16 -16.18,6.16l-1.54 0c-1.31,0 -1.95,-0.61 -1.95,-1.86l0 -6.74c0,-1.52 0.64,-2.27 1.95,-2.27l3.65 0c7.73,0 12.79,-2.58 15.24,-7.73 -0.37,-1.97 -1.14,-3.92 -2.32,-5.81 -1.17,-1.89 -2.69,-3.76 -4.56,-5.57l5.7 -13.67c4.53,7.25 7.2,14.63 8.05,22.17zm-10.95 49.3l-9.46 -7.92 8.61 -8.55 9.27 7.99 -8.42 8.47z"/>
 </g>
</svg>
