<?xml version="1.0" encoding="UTF-8"?>
<!DOCTYPE svg PUBLIC "-//W3C//DTD SVG 1.1//EN" "http://www.w3.org/Graphics/SVG/1.1/DTD/svg11.dtd">
<!-- Creator: CorelDRAW 2018 (64-Bit Evaluation Version) -->
<svg xmlns="http://www.w3.org/2000/svg" xml:space="preserve" width="43.3494mm" height="43.3492mm" version="1.1" style="shape-rendering:geometricPrecision; text-rendering:geometricPrecision; image-rendering:optimizeQuality; fill-rule:evenodd; clip-rule:evenodd"
viewBox="0 0 4661.29 4661.27"
 xmlns:xlink="http://www.w3.org/1999/xlink">
 <defs>
  <style type="text/css">
   <![CDATA[
    .fil0 {fill:#F3F3F4}
    .fil1 {fill:#BDBFC1}
    .fil19 {fill:#897AA2}
    .fil8 {fill:#FEFEFE;fill-rule:nonzero}
    .fil6 {fill:#F5CDBB;fill-rule:nonzero}
    .fil15 {fill:#F1AF79;fill-rule:nonzero}
    .fil16 {fill:#ED9662;fill-rule:nonzero}
    .fil18 {fill:#E78151;fill-rule:nonzero}
    .fil10 {fill:#E8E7E8;fill-rule:nonzero}
    .fil7 {fill:#D79479;fill-rule:nonzero}
    .fil3 {fill:#C9C8C9;fill-rule:nonzero}
    .fil9 {fill:#983B34;fill-rule:nonzero}
    .fil13 {fill:#B6B7B9;fill-rule:nonzero}
    .fil2 {fill:#83A3CC;fill-rule:nonzero}
    .fil17 {fill:#483831;fill-rule:nonzero}
    .fil14 {fill:#6E6C77;fill-rule:nonzero}
    .fil11 {fill:#595657;fill-rule:nonzero}
    .fil4 {fill:#6B83A3;fill-rule:nonzero}
    .fil5 {fill:#414047;fill-rule:nonzero}
    .fil12 {fill:#39393E;fill-rule:nonzero}
   ]]>
  </style>
   <mask id="id0">
  <linearGradient id="id1" gradientUnits="userSpaceOnUse" x1="2332.54" y1="1634.69" x2="2332.58" y2="5105.62">
   <stop offset="0" style="stop-opacity:0; stop-color:white"/>
   <stop offset="1" style="stop-opacity:1; stop-color:white"/>
  </linearGradient>
    <rect style="fill:url(#id1)" x="271.48" y="827.31" width="4118.33" height="2382.87"/>
   </mask>
 </defs>
 <g id="Layer_x0020_1">
  <metadata id="CorelCorpID_0Corel-Layer"/>
  <rect class="fil0" x="0.01" y="-0.01" width="4661.28" height="4661.28"/>
  <path class="fil1" style="mask:url(#id0)" d="M2330.64 838.07c1131.31,0 2048.41,528.61 2048.41,1180.68 0,652.07 -917.11,1180.68 -2048.41,1180.68 -1131.31,0 -2048.41,-528.61 -2048.41,-1180.68 0,-652.07 917.11,-1180.68 2048.41,-1180.68z"/>
  <g id="_2095616401616">
   <path class="fil2" d="M3128.99 2875.88c-6.65,6.66 -13.36,13.19 -20.13,19.63 -2.87,2.73 -5.82,5.41 -8.72,8.12 -3.81,3.54 -7.59,7.11 -11.43,10.59 -4.24,3.84 -8.54,7.61 -12.84,11.39 -2.51,2.22 -5,4.45 -7.53,6.65 -5.18,4.46 -10.41,8.87 -15.67,13.24 -1.65,1.38 -3.29,2.76 -4.94,4.13 -5.92,4.88 -11.91,9.69 -17.94,14.45l-2.88 2.29c-6.55,5.13 -13.16,10.2 -19.83,15.19l-1.4 1.05c-7.09,5.3 -14.22,10.51 -21.43,15.63l-0.06 0.04c-36.68,26.08 -74.98,50.02 -114.73,71.65l-1.51 0.82c-7.3,3.96 -14.63,7.83 -22.03,11.61l-3.05 1.57c-6.79,3.45 -13.61,6.85 -20.47,10.17l-5.71 2.73c-5.9,2.82 -11.83,5.59 -17.8,8.31 -3.08,1.41 -6.15,2.77 -9.23,4.14 -4.85,2.17 -9.72,4.3 -14.6,6.4 -4.2,1.8 -8.41,3.55 -12.62,5.29 -3.83,1.59 -7.68,3.17 -11.53,4.72 -5.33,2.13 -10.68,4.23 -16.03,6.27 -2.77,1.06 -5.55,2.12 -8.33,3.16 -6.35,2.39 -12.74,4.7 -19.13,6.96l-5.63 1.98c-7.17,2.51 -14.38,4.92 -21.61,7.27l-3.47 1.13c-8.02,2.58 -16.05,5.06 -24.11,7.45l-0.92 0.28c-52.17,15.42 -105.24,27 -158.74,34.72l-0.71 0.1c-8.52,1.23 -17.04,2.35 -25.59,3.39l-3.13 0.35c-7.79,0.91 -15.57,1.77 -23.38,2.53 -2,0.19 -4.02,0.34 -6.03,0.54 -6.94,0.63 -13.88,1.24 -20.83,1.74 -3.14,0.23 -6.31,0.4 -9.46,0.6 -5.86,0.37 -11.73,0.76 -17.59,1.04 -5.43,0.27 -10.88,0.43 -16.34,0.62 -3.67,0.13 -7.34,0.3 -11.01,0.4 -9.39,0.23 -18.8,0.35 -28.23,0.35 -9.45,0 -18.88,-0.11 -28.27,-0.35 -3.56,-0.1 -7.12,-0.27 -10.68,-0.39 -5.57,-0.2 -11.14,-0.38 -16.69,-0.63 -5.76,-0.28 -11.51,-0.66 -17.26,-1.03 -3.27,-0.22 -6.56,-0.39 -9.83,-0.62 -6.83,-0.49 -13.65,-1.09 -20.46,-1.71l-6.43 -0.57c-7.67,-0.74 -15.32,-1.58 -22.98,-2.47l-3.56 -0.41c-8.39,-1.01 -16.79,-2.12 -25.16,-3.32l-1.16 -0.17c-8.82,-1.27 -17.61,-2.65 -26.4,-4.13l-0.09 -0.01c-44.38,-7.49 -88.39,-17.66 -131.8,-30.47l-1.63 -0.48c-7.83,-2.33 -15.65,-4.75 -23.43,-7.25l-4.14 -1.34c-7,-2.27 -13.99,-4.62 -20.95,-7.04l-6.33 -2.23c-6.15,-2.17 -12.3,-4.41 -18.42,-6.7 -3.03,-1.13 -6.05,-2.29 -9.08,-3.44 -5.11,-1.96 -10.19,-3.95 -15.27,-5.98 -4.12,-1.66 -8.23,-3.33 -12.32,-5.03 -3.95,-1.63 -7.88,-3.28 -11.81,-4.96 -5.17,-2.22 -10.31,-4.47 -15.44,-6.75 -2.8,-1.25 -5.58,-2.49 -8.37,-3.76 -6.31,-2.88 -12.58,-5.81 -18.83,-8.8l-4.56 -2.18c-7.19,-3.48 -14.36,-7.03 -21.46,-10.66l-2.15 -1.11c-7.7,-3.95 -15.34,-7.97 -22.93,-12.09l-0.59 -0.32c-47.83,-26 -93.57,-55.34 -136.91,-87.74l-0.59 -0.44c-6.97,-5.23 -13.88,-10.53 -20.73,-15.89l-1.52 -1.22c-6.45,-5.08 -12.85,-10.22 -19.17,-15.44 -1.29,-1.06 -2.56,-2.15 -3.85,-3.23 -5.61,-4.67 -11.22,-9.35 -16.73,-14.14 -2.05,-1.77 -4.08,-3.6 -6.13,-5.4 -4.76,-4.18 -9.53,-8.37 -14.23,-12.63 -3.1,-2.81 -6.14,-5.68 -9.22,-8.53 -3.65,-3.39 -7.31,-6.75 -10.92,-10.17 -6.72,-6.37 -13.36,-12.86 -19.94,-19.44l-0.01 -0.01 -0.08 -0.09c-6.56,-6.55 -13.01,-13.17 -19.37,-19.85 -3.46,-3.63 -6.84,-7.32 -10.25,-11.01 -2.82,-3.04 -5.68,-6.05 -8.45,-9.12 -4.29,-4.73 -8.51,-9.53 -12.71,-14.32 -1.76,-2.01 -3.56,-4.01 -5.31,-6.03 -4.81,-5.56 -9.53,-11.17 -14.23,-16.83l-3.14 -3.75c-5.03,-6.11 -9.99,-12.27 -14.89,-18.48l-2 -2.52c-5.13,-6.54 -10.18,-13.14 -15.18,-19.8l-1.15 -1.54c-26.94,-36.05 -51.77,-73.76 -74.31,-112.96l-0.09 -0.16c-4.39,-7.63 -8.68,-15.32 -12.89,-23.05l-0.82 -1.53c-3.9,-7.2 -7.74,-14.46 -11.49,-21.77l-1.91 -3.75c-3.31,-6.51 -6.56,-13.04 -9.75,-19.61 -1.05,-2.19 -2.1,-4.39 -3.14,-6.58 -2.74,-5.74 -5.44,-11.52 -8.09,-17.3 -1.4,-3.09 -2.78,-6.17 -4.16,-9.26 -2.15,-4.84 -4.28,-9.69 -6.37,-14.56 -1.85,-4.3 -3.65,-8.62 -5.44,-12.96 -1.52,-3.67 -3.02,-7.34 -4.51,-11.03 -2.18,-5.44 -4.31,-10.9 -6.41,-16.38 -1.03,-2.7 -2.06,-5.4 -3.08,-8.1 -2.46,-6.57 -4.86,-13.16 -7.18,-19.77l-1.63 -4.62c-2.63,-7.57 -5.19,-15.16 -7.66,-22.77l-0.73 -2.26c-2.69,-8.33 -5.27,-16.69 -7.75,-25.06l-0.04 -0.14c-18.03,-60.97 -30.82,-123.15 -38.37,-185.85l-0.15 -1.35c-1.01,-8.45 -1.91,-16.91 -2.73,-25.38l-0.26 -2.87c-0.73,-7.9 -1.41,-15.82 -1.99,-23.73 -0.16,-2.22 -0.27,-4.45 -0.42,-6.67 -0.45,-6.8 -0.88,-13.58 -1.22,-20.38 -0.17,-3.63 -0.27,-7.28 -0.42,-10.92 -0.2,-5.53 -0.45,-11.05 -0.59,-16.58 -0.13,-5.61 -0.15,-11.27 -0.22,-16.9 -0.11,-12.37 -0.1,-24.73 0.19,-37.09l0.02 -1.16c0.2,-8.76 0.52,-17.54 0.94,-26.3l0.03 -0.73c6.45,-134.06 36.68,-267.16 90.66,-392.51l2.39 -5.52c2.52,-5.75 5.11,-11.46 7.72,-17.18 1.92,-4.2 3.87,-8.39 5.85,-12.57 1.75,-3.71 3.53,-7.42 5.32,-11.12 35.67,-73.29 79.02,-142.15 129.03,-205.51l1.66 -2.08c5.06,-6.39 10.2,-12.72 15.41,-19l5.28 -6.31c3.98,-4.73 8,-9.43 12.05,-14.1 3.25,-3.74 6.52,-7.45 9.83,-11.16 2.71,-3.03 5.44,-6.05 8.17,-9.05 4.48,-4.91 9,-9.81 13.58,-14.66 1.84,-1.95 3.71,-3.88 5.57,-5.82 5.02,-5.24 10.09,-10.45 15.23,-15.62 1.59,-1.6 3.22,-3.18 4.82,-4.77 5.15,-5.11 10.32,-10.18 15.56,-15.17l6.25 -5.9c4.43,-4.15 8.86,-8.27 13.33,-12.34l1.43 -1.31 -0.01 -0.01c434.91,-395.18 1103.62,-390.37 1532.84,14.42l5.03 4.74c5.55,5.29 11.03,10.67 16.49,16.09l4.03 4c5.43,5.46 10.8,10.97 16.1,16.52l4.37 4.55c4.95,5.23 9.82,10.49 14.63,15.8 2.25,2.46 4.49,4.94 6.72,7.43 3.78,4.24 7.54,8.49 11.25,12.77 3.65,4.19 7.27,8.42 10.85,12.68 2.11,2.51 4.22,5.02 6.31,7.54 4.99,6.03 9.92,12.12 14.8,18.25l2.15 2.7c50.03,63.42 93.4,132.34 129.07,205.68 1.49,3.06 2.96,6.14 4.42,9.22 2.27,4.79 4.52,9.6 6.73,14.43 2.4,5.26 4.79,10.54 7.11,15.84l3.11 7.17c2.99,6.92 5.92,13.87 8.76,20.85l0.29 0.69 0.06 0.18 0.01 0.03c48,118.42 75.07,243.35 81.23,369.1l0.13 2.95c0.38,8.09 0.68,16.19 0.87,24.3l0.08 3.68c0.17,7.65 0.26,15.3 0.28,22.95l0.01 1.7c0,9.44 -0.11,18.86 -0.35,28.24 -0.09,3.38 -0.25,6.75 -0.37,10.13 -0.2,5.82 -0.39,11.62 -0.67,17.42 -0.26,5.38 -0.61,10.75 -0.96,16.13 -0.24,3.65 -0.43,7.31 -0.69,10.95 -0.49,6.82 -1.1,13.62 -1.72,20.44 -0.19,2.06 -0.35,4.14 -0.55,6.2 -0.75,7.77 -1.6,15.55 -2.52,23.3l-0.37 3.25c-1.01,8.34 -2.11,16.68 -3.3,25l-0.22 1.52c-1.27,8.72 -2.62,17.42 -4.09,26.12l-0.05 0.34c-7.51,44.42 -17.69,88.49 -30.53,131.93l-0.33 1.13c-2.39,8.04 -4.87,16.06 -7.43,24.05l-1.09 3.31c-2.34,7.24 -4.77,14.45 -7.27,21.66l-2.08 5.9c-2.22,6.26 -4.48,12.49 -6.81,18.72l-3.38 8.87c-1.98,5.15 -3.99,10.3 -6.04,15.43 -1.62,4.08 -3.3,8.13 -4.97,12.18 -1.67,4 -3.33,7.99 -5.03,11.98 -2.18,5.1 -4.41,10.17 -6.67,15.24 -1.28,2.88 -2.57,5.76 -3.88,8.63 -2.73,5.99 -5.52,11.96 -8.35,17.9l-2.86 5.98c-3.26,6.72 -6.57,13.4 -9.97,20.04l-1.77 3.48c-3.8,7.39 -7.67,14.73 -11.62,22.02l-0.66 1.23c-25.93,47.66 -55.17,93.24 -87.45,136.43l-0.9 1.19c-5.04,6.74 -10.16,13.42 -15.34,20.02l-2.03 2.55c-4.85,6.15 -9.74,12.25 -14.72,18.29 -1.26,1.53 -2.54,3.03 -3.81,4.55 -4.48,5.39 -9,10.76 -13.59,16.06 -2.04,2.35 -4.13,4.68 -6.19,7.03 -3.89,4.43 -7.77,8.87 -11.73,13.23 -3.52,3.87 -7.11,7.69 -10.68,11.51 -2.68,2.88 -5.33,5.8 -8.04,8.65 -6.42,6.79 -12.98,13.49 -19.63,20.14z"/>
   <path class="fil3" d="M2765 1034.99c-9.76,-4.06 -19.58,-7.99 -29.43,-11.76 25.16,-187.94 5.92,-535.42 -388.1,-544.3 5.12,-0.11 10.3,-0.17 15.56,-0.17 417.84,0 429.83,369.22 401.97,556.23z"/>
   <path class="fil4" d="M2884.4 3061.59c-1.4,-382.51 3.35,-834.03 3.35,-834.03 0,0 0.01,0.01 0.02,0.01 2.7,0 135.93,-103.59 95.7,-338.9 -21.1,-123.53 -139.82,-142.94 -329.48,-203.45l0.32 -9.81 -132.02 -67.9 -34.71 0 0 -58.83c161.3,-68.21 184.08,-242.53 189.9,-328.1 26.94,-8.04 46.58,-33.01 46.58,-62.58l0 -67.98c0,-0.62 0,-1.24 -0.02,-1.86 4.12,-18.1 8.22,-40.12 11.53,-64.93 9.85,3.77 19.67,7.7 29.43,11.76 -3.01,20.14 -6.48,38.17 -9.94,53.42l0.14 1.6 0 67.98c0,29.52 -19.72,54.16 -46.59,62.27 -5.76,85.37 -28.52,259.78 -189.9,328.17l0 59.08 34.7 0 132.03 67.9 -0.33 9.73c136.02,43.39 235.58,65.99 288.7,120.78l0.08 -0.19c132.96,125.5 274.98,286.14 362.06,463.4 46.55,94.78 52.8,172.39 41.17,232.77 -2.04,5.02 -4.05,10.06 -6.15,15.06l-0.02 0.03 -0.11 0.26c-3.49,8.31 -7.12,16.55 -10.82,24.74l-0.09 0.17zm-11.58 24.81l-0.03 0.08c-8.85,18.37 -18.24,36.44 -28.04,54.25 -9.55,11.17 -18.83,19.98 -26.71,26.39 -47.23,38.43 -171.45,44.26 -269.79,44.26 -42.96,0 -80.98,-1.12 -105.44,-1.12l-2.63 0c-0.42,113.43 -0.6,235.87 -0.25,352.66l-0.04 0.03c-7.35,4.45 -14.75,8.84 -22.22,13.13l-0.48 0.29 -0.1 0.05 -0.09 0.04c-2.69,1.55 -5.43,3.03 -8.14,4.56zm34.47 -834.03c0,0 -0.84,79.71 -1.71,200.44 40.17,3.14 88.12,6.48 125.97,6.48 30.79,0 54.89,-2.2 62.65,-8.53 0.87,-0.7 14.84,-14.02 -20.28,-53.07 -75.39,-83.9 -112.6,-108.63 -163.25,-147.61 -1.92,1.52 -3.12,2.29 -3.34,2.29 -0.01,0 -0.03,-0.01 -0.03,-0.01zm-1219.19 464.38c-98.31,0 -222.57,-5.83 -269.78,-44.26 -47.67,-38.82 -147.21,-165.17 -42.39,-378.55 72.24,-147.04 182.27,-282.64 293.58,-396.24 -1.31,5.08 -2.44,10.32 -3.38,15.79 -40.2,235.29 93.01,338.9 95.72,338.9 0.01,0 0.02,-0.01 0.02,-0.01 0,0 0.09,6.51 0.19,18.59 -38.75,29.74 -75.73,60.01 -135.7,126.74 -35.1,39.04 -21.14,52.37 -20.27,53.07 7.75,6.32 31.85,8.53 62.64,8.53 28.45,0 62.6,-1.89 94.87,-4.16 0.53,74.5 1.08,164.41 1.43,260.8 -21.72,0.32 -48.23,0.82 -76.95,0.82z"/>
   <polygon class="fil5" points="2138.93,1770.12 2522.3,1770.12 2522.3,1607.51 2138.93,1607.51 "/>
   <polygon class="fil6" points="2536.47,1656.31 2487.59,1633.77 2487.59,1478.35 2173.82,1478.35 2173.82,1633.77 2124.74,1654.96 2137.81,2095.72 2173.82,2095.72 2173.82,2163.29 2487.59,2163.29 2487.59,2095.72 2523.4,2095.72 "/>
   <path class="fil7" d="M2487.59 1623.47l-313.77 -23.18 0 -52.62c42.3,18.31 94.24,29.27 158.09,29.27 62.64,0 113.83,-10.55 155.68,-28.26l0 74.8z"/>
   <path class="fil8" d="M2540.86 1657.34l-11.66 43.8c-20.17,57.79 -71.9,152.3 -194.7,152.3 -138.56,0 -191.41,-120.33 -207.82,-172.48l-6.29 -23.62c-255.2,95.88 -176.89,895.09 -176.89,895.09l-1.41 585.51c121.14,44.4 252,68.64 388.53,68.64 144.45,0 282.55,-27.17 409.52,-76.61l-9.3 -577.53c0,0 65.23,-799.2 -189.98,-895.09z"/>
   <polygon class="fil9" points="2406.13,1831.84 2376.01,1889.54 2284.36,1889.54 2255.11,1831.84 2330.62,1770.12 "/>
   <polygon class="fil10" points="2330.63,1770.13 2234.14,1871.71 2069.15,1674.87 2172.12,1623.6 2210.84,1659.43 "/>
   <polygon class="fil10" points="2489.22,1623.65 2330.63,1770.1 2427.13,1871.77 2592.08,1674.82 "/>
   <polygon class="fil9" points="2376.01,1903.33 2413.32,3104.51 2330.62,3195.94 2247.91,3104.51 2284.36,1903.33 "/>
   <path class="fil5" d="M2983.48 1888.67c-25.02,-146.52 -187.38,-146.57 -442.58,-242.44l-210.28 851.1 -210.29 -851.1c-255.2,95.87 -417.55,95.93 -442.6,242.44 -40.46,236.8 94.72,340.21 95.74,338.89 0,0 4.74,451.52 3.34,834.03 163.64,92.28 352.55,144.99 553.8,144.99 201.25,0 390.16,-52.72 553.79,-145 -1.4,-382.5 3.34,-834.02 3.34,-834.02 1.02,1.32 136.21,-102.09 95.72,-338.89z"/>
   <polygon class="fil11" points="2006.89,1675.41 2012.02,1825.34 2086.87,1886.93 2028.62,1966.56 2328.64,2497.32 2138.93,1607.51 "/>
   <polygon class="fil11" points="2654.33,1675.41 2649.22,1825.34 2574.36,1886.93 2632.62,1966.56 2332.59,2497.32 2522.3,1607.51 "/>
   <path class="fil10" d="M2644.26 2737.52l-626.51 0c-50.55,0 -91.51,-40.99 -91.51,-91.52l-39.23 -522.94c0,-50.55 40.97,-91.52 91.52,-91.52l704.93 0c50.55,0 91.53,40.97 91.53,91.52l-39.24 522.94c0,50.53 -40.97,91.52 -91.5,91.52z"/>
   <path class="fil12" d="M2695.27 2722.7c0.28,-0.42 0.57,-0.86 0.84,-1.29 23.96,-16.51 39.65,-44.13 39.65,-75.41l19.62 -261.48 -19.62 263.14c0,31.38 -16.11,58.95 -40.48,75.03zm79.7 -601.14c-0.81,-49.85 -41.46,-90.02 -91.51,-90.02l1.66 0c49.65,0 89.87,40.23 89.87,89.85l-0.02 0.17zm-873.14 -49.54c16.06,-24.38 43.65,-40.48 75.03,-40.48l1.67 0c-31.3,0 -58.9,15.7 -75.42,39.66 -0.42,0.27 -0.86,0.55 -1.28,0.83z"/>
   <path class="fil13" d="M2696.11 2721.41c8.83,-13.9 13.98,-30.39 13.98,-48.09l39.23 -526.27c0,-49.62 -40.24,-89.85 -89.85,-89.85l-708.28 0c-17.7,0 -34.16,5.15 -48.08,13.99 16.52,-23.96 44.12,-39.66 75.42,-39.66l704.93 0c50.04,0 90.7,40.17 91.51,90.02l-19.59 262.96 -19.62 261.48c0,31.28 -15.69,58.9 -39.65,75.41z"/>
   <path class="fil14" d="M2000.13 2423.03l-3.68 0c-20.16,0 -36.67,-16.49 -36.67,-36.67l0 -3.67c0,-20.17 16.51,-36.68 36.67,-36.68l3.68 0c20.17,0 36.67,16.51 36.67,36.68l0 3.67c0,20.17 -16.49,36.67 -36.67,36.67z"/>
   <path class="fil15" d="M1952.62 2437.73c0,0 -61.54,6.84 -109.32,10.38 -11.88,0.71 -23.76,1.43 -34.9,2.12 -11.02,0.32 -21.31,0.63 -30.13,0.91 -17.36,-0.08 -28.93,-0.13 -28.93,-0.13l-4.57 196.07c0,0 14.51,0.05 36.25,0.15 10.61,-0.32 22.99,-0.7 36.24,-1.1 12.99,-0.8 26.86,-1.62 40.71,-2.46 54.91,-4.1 120.67,-11.58 120.67,-11.58 42.22,-5.53 68.19,-54.72 59.25,-107.9 -9.04,-53.6 -47.31,-91.41 -85.26,-86.45z"/>
   <path class="fil15" d="M1887.38 2387.02c-32.42,3.67 -57.59,26.65 -76.55,49.53 -18.62,22.48 -30.81,45.03 -31.77,46.9 -7.57,14.23 -5.81,34.97 5.05,45.71 10.79,10.61 26.29,7.75 33.67,-7.03 0.15,-0.3 2.38,-4.56 6.27,-10.83 3.87,-6.28 9.42,-14.54 16.2,-22.85 13.63,-16.83 32,-33.9 54.17,-36.44 12.82,-1.44 21.39,-17.13 19.16,-35.04 -2.24,-17.91 -13.98,-31.33 -26.2,-29.95z"/>
   <path class="fil5" d="M1774.01 2690.82c-80.5,0 -307.39,12.09 -375.23,-43.14 -47.67,-38.82 -147.21,-165.17 -42.39,-378.55 87.09,-177.26 229.1,-337.91 362.06,-463.4l157.57 329.1c-123.39,116.5 -153.23,109.02 -269.19,238.07 -35.1,39.04 -21.14,52.37 -20.26,53.07 18.55,15.12 130.61,6.71 204.13,0.8l18.84 260.72c-24.27,1.95 -10.17,3.34 -35.54,3.34z"/>
   <path class="fil15" d="M2708.62 2437.73c0,0 61.52,6.84 109.31,10.38 11.89,0.71 23.77,1.43 34.91,2.12 11.01,0.32 21.3,0.63 30.12,0.91 17.36,-0.08 28.93,-0.13 28.93,-0.13l4.57 196.07c0,0 -14.49,0.05 -36.24,0.15 -10.61,-0.32 -22.99,-0.7 -36.25,-1.1 -13,-0.8 -26.85,-1.62 -40.7,-2.46 -54.91,-4.1 -120.67,-11.58 -120.67,-11.58 -42.23,-5.53 -68.21,-54.72 -59.27,-107.9 9.06,-53.6 47.33,-91.41 85.28,-86.45z"/>
   <path class="fil15" d="M2773.85 2387.02c32.42,3.67 57.59,26.65 76.55,49.53 18.62,22.48 30.82,45.03 31.76,46.9 7.58,14.23 5.82,34.97 -5.04,45.71 -10.81,10.61 -26.29,7.75 -33.67,-7.03 -0.15,-0.3 -2.38,-4.56 -6.27,-10.83 -3.89,-6.28 -9.43,-14.54 -16.2,-22.85 -13.65,-16.83 -32,-33.9 -54.19,-36.44 -12.8,-1.44 -21.37,-17.13 -19.14,-35.04 2.23,-17.91 13.96,-31.33 26.2,-29.95z"/>
   <path class="fil5" d="M2887.22 2690.82c80.48,0 307.39,12.09 375.23,-43.14 47.66,-38.82 147.21,-165.17 42.38,-378.55 -87.08,-177.26 -229.1,-337.91 -362.06,-463.4l-153.13 332.82c123.38,116.47 148.78,105.3 264.76,234.35 35.1,39.04 21.13,52.37 20.27,53.07 -18.57,15.12 -130.64,6.71 -204.15,0.8l-18.84 260.72c24.28,1.95 10.18,3.34 35.55,3.34z"/>
   <path class="fil15" d="M2674.29 1026.71l10.61 -138.07c0,-180.54 -172.57,-326.84 -352.98,-326.84 -180.54,0 -352.98,146.3 -352.98,326.84l10.61 137.94c-10.11,2.43 -19.23,7.08 -26.84,13.59 -14.11,12.03 -23,29.81 -23,49.81l0 67.98c0,35.95 28.96,65.11 64.97,65.33 0,170.49 204.85,332.1 327.24,332.1 122.4,0 327.24,-161.59 327.24,-332.08 35.89,-0.25 64.9,-29.39 64.9,-65.32l0 -67.98c0,-30.71 -21.25,-56.29 -49.77,-63.3z"/>
   <path class="fil16" d="M2542.03 1306.67c-7.76,0 -15.61,-1.57 -22.96,-4.72 -31.18,-13.33 -100.88,-25.3 -187.16,-25.3 -0.02,0 -0.04,0 -0.05,0l0 -2.33 -78.42 0c0,0 30.73,-146.98 78.42,-248.4l0 -131.81c119.24,-64.23 178.94,-149.89 180.65,-152.11 0.45,0 0.92,0 1.38,0 59.85,0 105.35,36.17 121.61,93.5l3.42 325.77c0,42.87 -26.37,106.36 -63.76,134.5 -9.68,7.29 -21.33,10.91 -33.12,10.91zm-58.75 -268.2c-0.6,0 -1.22,0 -1.84,0.03 -28.5,1 -50.8,24.9 -49.8,53.4 0.98,27.89 23.88,49.84 51.56,49.84 0.62,0 1.23,-0.02 1.84,-0.03 28.51,-1 50.8,-24.93 49.8,-53.42 -0.96,-27.87 -23.87,-49.82 -51.56,-49.82z"/>
   <path class="fil16" d="M2677.49 1220.58c1.77,-26.23 1.96,-44.13 4.06,-48.04 0.14,0 27.66,-31.74 34.05,-52.32 2.65,-8.46 5.55,-19.28 8.44,-32.05 0.02,0.62 0.02,1.24 0.02,1.86l0 67.98c0,29.57 -19.65,54.54 -46.58,62.58z"/>
   <path class="fil17" d="M2638.92 1161.26c0,42.87 -26.37,106.36 -63.76,134.5 -16.08,12.12 -37.58,14.09 -56.08,6.19 -31.18,-13.33 -100.88,-25.3 -187.16,-25.3 -86.29,0 -155.98,11.97 -187.17,25.3 -18.51,7.89 -40,5.92 -56.08,-6.19 -37.4,-28.14 -63.79,-91.62 -63.79,-134.5l0 -207.99c0,0 33.94,11.56 68.35,9.2 278.68,-18.97 416.67,-217.1 419.29,-220.48 60.53,-0.56 106.6,35.74 122.99,93.5l3.42 325.77zm-307 -682.5c-499.97,0 -418.88,528.9 -383.7,641.45 6.4,20.58 33.91,52.32 34.04,52.32 10.72,20.08 -28.38,404.4 349.66,404.4 378.01,0 338.91,-384.33 349.64,-404.4 0.14,0 27.66,-31.74 34.05,-52.32 35.17,-112.55 116.26,-641.45 -383.69,-641.45z"/>
   <path class="fil16" d="M2182.52 1141.75c-27.69,0 -50.59,-21.95 -51.57,-49.84 -1,-28.5 21.3,-52.4 49.8,-53.4 0.61,-0.03 1.23,-0.03 1.84,-0.03 27.67,0 50.6,21.95 51.57,49.82 0.99,28.5 -21.3,52.42 -49.8,53.42 -0.62,0.01 -1.23,0.03 -1.84,0.03z"/>
   <path class="fil17" d="M2234.16 1075.23c0.99,28.51 -21.3,52.41 -49.8,53.41 -28.5,1 -52.42,-21.31 -53.41,-49.81 -1,-28.5 21.3,-52.4 49.8,-53.4 28.5,-1 52.41,21.29 53.41,49.8z"/>
   <path class="fil8" d="M2212.99 1086.62c0.25,7.13 -5.32,13.11 -12.45,13.36 -7.13,0.25 -13.11,-5.32 -13.36,-12.45 -0.25,-7.13 5.32,-13.11 12.45,-13.36 7.13,-0.25 13.11,5.32 13.36,12.45z"/>
   <path class="fil18" d="M2483.21 1141.75c-27.68,0 -50.58,-21.95 -51.56,-49.84 -1,-28.5 21.3,-52.4 49.8,-53.4 0.62,-0.03 1.24,-0.03 1.84,-0.03 27.69,0 50.6,21.95 51.56,49.82 1,28.5 -21.29,52.42 -49.8,53.42 -0.61,0.01 -1.22,0.03 -1.84,0.03z"/>
   <path class="fil17" d="M2534.84 1075.23c1,28.51 -21.29,52.41 -49.79,53.41 -28.5,1 -52.42,-21.31 -53.41,-49.81 -0.99,-28.5 21.3,-52.4 49.8,-53.4 28.51,-1 52.41,21.29 53.4,49.8z"/>
   <path class="fil8" d="M2513.68 1086.62c0.25,7.13 -5.32,13.11 -12.45,13.36 -7.13,0.25 -13.11,-5.32 -13.36,-12.45 -0.25,-7.13 5.32,-13.11 12.45,-13.36 7.13,-0.25 13.11,5.32 13.36,12.45z"/>
   <path class="fil6" d="M2244.44 1377.33l170.97 0c5.4,0 8.13,6.7 4.13,10.32 -12.25,11.08 -38.77,27.13 -89.6,27.13 -50.85,0 -77.36,-16.05 -89.6,-27.13 -4.01,-3.62 -1.29,-10.32 4.11,-10.32z"/>
  </g>
  <path class="fil19" d="M1610.41 3764.96c-2.34,11.11 -5.8,22.22 -10.24,33.32 -4.44,10.98 -10,22.33 -16.42,33.94 -28.26,15.92 -54.3,23.82 -78.37,23.82 -19,0 -35.04,-5.05 -48,-15.17 -13.95,-11.35 -20.98,-25.68 -20.98,-42.95 0,-34.56 20.48,-90.1 61.33,-166.98 73.68,37.15 111.2,81.82 112.67,134.02zm1614.47 -12.1c-5.3,29.25 -17.77,52.83 -37.27,70.97 -20.99,18.79 -45.59,28.28 -73.96,28.5l-0.29 0.01 -0.29 0 -0.38 0 -7.15 0 -0.28 0 -135.43 0 -0.29 0 -7.53 0 -0.28 0 -135.2 0 -0.28 0 -7.77 0 -0.28 0 -17.99 0c-6.29,35.91 -19.13,69.6 -38.51,101.08 -19.38,31.46 -45.54,60.97 -78.48,88.49 -30.86,-1.98 -57.88,-10.74 -81.09,-26.41 56.15,-28.88 99.47,-59.61 129.83,-92.07 24.06,-26.54 37.52,-50.97 40.11,-73.31 -5.05,0.87 -10.48,1.48 -16.29,1.73 -5.68,0.38 -11.72,0.49 -18.01,0.49 -14.69,0 -32.1,-2.47 -52.09,-7.28 -9.01,-2.34 -16.66,-4.57 -22.96,-6.42 -6.41,-1.98 -11.72,-4.08 -15.8,-6.17 -0.86,-5.55 -1.47,-10.37 -1.72,-14.31 -0.38,-3.95 -0.49,-7.16 -0.49,-9.51 1.97,-67.26 26.9,-113.66 75.03,-139.21 51.58,14.69 79.11,58.86 82.69,132.54l15.76 0 0.28 0 7.77 0 0.28 0 135.2 0 0.28 0 7.53 0 0.29 0 135.43 0 0.28 0 7.53 0 0.29 0 9.09 0c35.79,0 59.24,-11.97 70.59,-35.79 -1.73,-9.13 -5.3,-18.14 -10.73,-26.9 -5.43,-8.76 -12.47,-17.4 -21.11,-25.8l26.41 -63.31c20.98,33.57 33.32,67.75 37.27,102.68zm-59.6 -167.1l-43.82 -36.65 39.86 -39.62 42.95 37.03 -38.99 39.24zm-390.97 214c-0.99,-16.91 -8.15,-33.82 -21.72,-50.97 -6.3,-8.15 -13.09,-14.44 -20.37,-18.63 -7.41,-4.2 -15.3,-6.91 -23.7,-8.15 -19,16.67 -28.62,38.62 -28.62,65.78 8.27,5.06 17.76,8.76 28.75,11.11 10.98,2.23 23.32,3.46 37.15,3.46 3.32,0 7.53,-0.25 12.46,-0.62 4.94,-0.37 10.24,-0.98 16.04,-1.97zm-194.13 -46.9c-5.3,29.25 -17.77,52.83 -37.27,70.97 -21.08,18.87 -45.81,28.37 -74.32,28.5l-0.29 0.01 -0.29 0 -0.01 0 -6.79 0 -0.29 0 -0.08 0 -0.23 0 -0.05 0 -0.24 -0.01 -0.04 0 -0.26 0 -0.01 -0.01c-5.88,-0.14 -11.66,-1.24 -17.44,-3.43 -6.17,-2.23 -11.72,-5.43 -16.66,-9.63 -4.94,-4.06 -9.26,-8.88 -12.84,-14.56 -3.58,-5.68 -6.04,-11.97 -7.15,-19l-1.48 0.12c-9.13,30.98 -28.75,46.53 -58.62,46.53 -32.7,0 -52.21,-15.55 -58.25,-46.53l-0.99 0c-9.87,30.98 -30.24,46.53 -61.09,46.53 -37.4,0 -58.99,-15.55 -64.8,-46.53l-1.11 0c-2.34,6.67 -5.68,12.84 -9.87,18.52 -4.19,5.68 -9.62,10.73 -16.16,15.05 -13.34,8.41 -29.04,12.73 -46.96,12.95l-0.28 0.01 -0.28 0 -0.87 0 -6.41 0 -0.7 0 -0.17 0 -0.28 0 -0.25 0 -0.03 -0.01c-14.32,-0.09 -26.69,-1.43 -37.08,-4.18 -10.73,-2.72 -19.62,-6.3 -26.66,-10.86 -6.91,-4.44 -12.22,-9.38 -15.91,-14.94 -3.58,-5.55 -5.68,-11.11 -6.05,-16.66l-2.96 0c-1.73,7.28 -4.94,13.7 -9.75,19.38 -4.82,5.67 -10.48,10.48 -17.03,14.56 -6.54,4.19 -13.57,7.28 -21.1,9.51 -7.66,2.1 -14.94,3.2 -21.97,3.2l-15.26 0 -0.29 0 -6.55 0 -0.28 0 -0.09 0 -0.19 -0.01c-25.22,-0.13 -45.88,-24.55 -62,-73.29l-1.12 0c-2.59,18.14 -7.4,34.43 -14.44,48.87 -6.29,3.45 -13.82,6.66 -22.7,9.87 -9.01,3.09 -19.62,6.29 -31.84,9.38 -13.09,2.84 -24.56,5.06 -34.69,6.54 -10.24,1.6 -19.13,2.34 -26.77,2.34 -14.69,0 -28.63,-1.97 -41.59,-5.92 -0.49,-8.27 -0.86,-15.3 -1.11,-20.98 -0.25,-5.55 -0.38,-9.74 -0.38,-12.46 0,-4.32 0.38,-10.48 1.24,-18.14 0.86,-7.77 2.1,-17.03 3.83,-27.89 1.98,-0.49 3.58,-0.86 5.06,-1.11 1.47,-0.25 2.71,-0.38 3.57,-0.38 1.73,0 3.33,0.38 4.69,0.87 1.48,0.61 3.09,1.47 4.82,2.34l0 9.87c0,8.14 0.38,13.82 0.99,16.9 9.75,4.32 20.86,6.55 33.69,6.55 9.13,0 19.01,-0.99 29.5,-2.84 10.49,-1.98 21.6,-4.57 33.45,-8.02 10.98,-3.83 20.73,-7.66 28.87,-11.48 8.15,-3.95 15.05,-8.02 20.61,-12.33 -8.88,-24.56 -17.89,-50.85 -26.79,-78.86 -8.88,-28.14 -18.01,-58.26 -27.52,-90.46l28.26 -61.09c12.84,58.12 23.95,105.64 33.57,142.79 9.75,37.14 17.77,64.42 24.31,81.7 9.59,24.48 21.15,36.82 34.55,36.89l0.13 0 0.03 0 0.16 0 0.17 0 6.55 0 0.29 0 0.44 0c6.8,0 14.44,-0.61 23.09,-1.97 8.76,-1.37 16.9,-4.2 24.56,-8.65 7.77,-4.44 14.31,-10.98 19.74,-19.62 5.43,-8.63 8.14,-20.36 8.14,-35.29l0 -10.74c1.98,-1.97 5.43,-2.96 10.62,-2.96 2.59,0 4.81,0.25 6.29,0.74 1.6,0.49 3.58,1.48 6.04,2.96l0 10.74c0,13.45 1.24,24.43 3.83,32.83 2.47,8.39 6.67,14.92 12.59,19.74 5.92,4.82 13.82,8.02 23.57,9.75 9.75,1.6 21.84,2.46 36.28,2.46l7.28 0c1.74,0 3.23,0.18 4.42,0.54 41.89,-2.63 62.84,-28.47 62.84,-77.54 3.7,-1.48 6.91,-2.23 9.87,-2.23 4.82,0 10,1.35 15.3,3.95 -1.48,12.96 -2.22,25.05 -2.22,36.41 0,5.55 1.11,10.61 3.2,15.3 2.23,4.69 5.18,8.76 9.13,12.22 3.83,3.46 8.52,6.3 13.95,8.27 5.43,2.1 11.48,3.09 18.27,3.09 18.75,0 32.83,-7.28 42.33,-21.97 9.87,-13.95 14.81,-32.33 14.81,-55.03 3.58,-1.48 6.79,-2.23 9.74,-2.23 4.82,0 9.88,1.35 15.18,3.95 -1.48,12.96 -2.22,25.05 -2.22,36.41 0,5.31 0.98,10.25 2.84,14.94 1.97,4.69 4.69,8.88 8.02,12.46 3.32,3.58 7.28,6.42 11.97,8.39 4.57,2.1 9.62,3.09 15.18,3.09 9.13,0 17.27,-1.72 24.31,-5.18 7.15,-3.45 13.08,-9.13 17.89,-16.79 10.12,-14.18 15.17,-32.58 15.17,-55.03 2.97,-1.48 6.17,-2.23 9.88,-2.23 4.56,0 9.49,1.35 14.81,3.95 -0.49,6.55 -0.99,12.84 -1.35,18.88 -0.25,6.17 -0.49,11.98 -0.49,17.53 0,5.55 0.99,10.61 3.09,15.3 2.1,4.69 4.94,8.76 8.63,12.22 3.83,3.46 8.27,6.3 13.45,8.27 5.01,2.02 10.47,3.02 16.51,3.09l0.05 0 0.23 0 0.08 0 0.29 0 6.8 0 0.29 0 9.45 0c35.79,0 59.24,-11.97 70.59,-35.79 -1.73,-9.13 -5.3,-18.14 -10.73,-26.9 -5.43,-8.76 -12.47,-17.4 -21.11,-25.8l26.41 -63.31c20.98,33.57 33.32,67.75 37.27,102.68zm-131.68 194.5l34.68 -35.54 35.79 35.54 -35.79 34.69 -34.68 -34.69zm81.7 0l34.8 -35.54 35.8 35.54 -35.8 34.69 -34.8 -34.69zm-538.57 -308.28l-43.81 -36.65 39.86 -39.61 42.95 37.02 -39 39.24zm-409.1 145.64c0,-14.44 -6.55,-30.24 -19.51,-47.4 -16.16,-19.74 -37.63,-35.91 -64.42,-48.38l-17.4 38.63c-4.08,9.87 -7.28,18.88 -9.51,26.77 -2.34,7.9 -3.45,15.3 -3.45,22.1 0,8.14 4.56,15.05 13.7,20.73 9.26,5.68 21.59,8.52 37.27,8.52 5.3,0 10.98,-0.49 17.03,-1.61 6.04,-1.11 11.97,-2.59 17.89,-4.56 5.92,-1.85 11.35,-4.08 16.29,-6.67 4.94,-2.59 8.88,-5.31 12.1,-8.14z"/>
 </g>
</svg>
