<?xml version="1.0" encoding="iso-8859-1"?>
<!-- Generator: Adobe Illustrator 18.0.0, SVG Export Plug-In . SVG Version: 6.00 Build 0)  -->
<!DOCTYPE svg PUBLIC "-//W3C//DTD SVG 1.1//EN" "http://www.w3.org/Graphics/SVG/1.1/DTD/svg11.dtd">
<svg version="1.1" id="Layer_1" xmlns="http://www.w3.org/2000/svg" xmlns:xlink="http://www.w3.org/1999/xlink" x="0px" y="0px"
	 viewBox="0 0 280 40" style="enable-background:new 0 0 280 40;" xml:space="preserve">
<g style="opacity:0.6;">
	<g style="opacity:0.95;">
		<g>
			<g>
				<path style="fill-rule:evenodd;clip-rule:evenodd;fill:#E5F5F6;" d="M191.672,14.51c0,0.495-0.098,0.966-0.286,1.406
					c-0.192,0.44-0.45,0.823-0.778,1.155c-0.328,0.328-0.712,0.589-1.151,0.782c-0.44,0.188-0.907,0.286-1.403,0.286
					c-0.499,0-0.966-0.098-1.406-0.286c-0.44-0.192-0.827-0.454-1.155-0.782c-0.331-0.332-0.593-0.715-0.782-1.155
					c-0.192-0.44-0.286-0.911-0.286-1.406v-1.933c0-0.499,0.094-0.963,0.286-1.399c0.188-0.436,0.45-0.82,0.782-1.144
					c0.328-0.328,0.715-0.586,1.155-0.778c0.44-0.192,0.907-0.286,1.406-0.286c0.495,0,0.963,0.094,1.403,0.286
					c0.44,0.192,0.823,0.45,1.151,0.778c0.328,0.325,0.586,0.708,0.778,1.144c0.188,0.436,0.286,0.9,0.286,1.399V14.51
					L191.672,14.51z M186.396,14.478c0,0.265,0.049,0.506,0.143,0.715c0.094,0.213,0.22,0.387,0.373,0.53
					c0.153,0.143,0.328,0.255,0.527,0.328c0.196,0.077,0.398,0.115,0.604,0.122c0.202,0.014,0.405-0.01,0.607-0.077
					c0.202-0.063,0.377-0.164,0.53-0.307c0.154-0.14,0.279-0.317,0.373-0.534c0.098-0.22,0.143-0.478,0.143-0.778v-1.849
					c0-0.3-0.045-0.558-0.143-0.778c-0.094-0.216-0.22-0.398-0.373-0.537c-0.154-0.139-0.328-0.244-0.53-0.311
					c-0.202-0.07-0.405-0.098-0.607-0.091c-0.206,0.007-0.408,0.049-0.604,0.126c-0.199,0.08-0.373,0.192-0.527,0.338
					c-0.154,0.147-0.279,0.325-0.373,0.53c-0.094,0.209-0.143,0.45-0.143,0.722V14.478z"/>
				<path style="fill-rule:evenodd;clip-rule:evenodd;fill:#E5F5F6;" d="M196.298,10.626c-0.094-0.293-0.122-0.607-0.08-0.942
					c0.031-0.23,0.091-0.443,0.168-0.635c0.08-0.188,0.174-0.37,0.286-0.534c0.112-0.167,0.237-0.331,0.373-0.492
					c0.136-0.16,0.275-0.324,0.419-0.495l2.495-2.872l0.858,0.764L196.298,10.626z"/>
				<path style="fill-rule:evenodd;clip-rule:evenodd;fill:#E5F5F6;" d="M227.235,6.173c0.358,0.358,0.697,0.697,1.011,1.012
					c0.32,0.319,0.639,0.629,0.959,0.943c-0.348,0.358-0.678,0.697-0.992,1.012c-0.31,0.319-0.639,0.643-0.978,0.973
					c-0.358-0.368-0.692-0.702-0.992-1.007c-0.305-0.3-0.624-0.629-0.963-0.978L227.235,6.173z"/>
				<path style="fill-rule:evenodd;clip-rule:evenodd;fill:#E5F5F6;" d="M228.425,10.665v3.845c0,0.478-0.087,0.925-0.262,1.343
					c-0.171,0.419-0.412,0.792-0.715,1.113c-0.304,0.325-0.659,0.586-1.068,0.788c-0.39,0.193-0.805,0.307-1.246,0.347l-15.149,0
					v0.016h-13.299v-0.016c-0.447-0.04-0.863-0.154-1.253-0.347c-0.405-0.202-0.756-0.465-1.061-0.788
					c-0.302-0.322-0.543-0.695-0.715-1.113c-0.173-0.419-0.262-0.865-0.262-1.343V5.954h1.95v8.513c0,0.237,0.041,0.454,0.119,0.649
					c0.079,0.196,0.182,0.363,0.307,0.502c0.125,0.139,0.275,0.253,0.443,0.342c0.17,0.089,0.349,0.147,0.534,0.175v0.017h8.146
					c0.286,0,0.538-0.041,0.75-0.126c0.216-0.086,0.391-0.199,0.527-0.342c0.136-0.143,0.241-0.307,0.307-0.485
					c0.07-0.181,0.101-0.363,0.101-0.548c0-0.199-0.035-0.391-0.105-0.579c-0.073-0.185-0.178-0.356-0.317-0.506
					c-0.139-0.15-0.314-0.269-0.527-0.356c-0.213-0.091-0.457-0.133-0.736-0.133h-5.631c-0.279,0.014-0.544-0.014-0.792-0.077
					c-0.251-0.066-0.467-0.167-0.656-0.307c-0.188-0.139-0.335-0.311-0.443-0.513c-0.108-0.199-0.164-0.433-0.164-0.698v-0.126
					c0-0.046,0.003-0.094,0.01-0.143c0.028-0.209,0.077-0.401,0.147-0.576c0.073-0.175,0.157-0.338,0.251-0.495
					c0.094-0.157,0.206-0.311,0.328-0.457c0.122-0.146,0.251-0.296,0.387-0.453c0.021-0.028,0.038-0.052,0.056-0.077
					c0.018-0.025,0.035-0.046,0.046-0.067c0.492-0.558,0.984-1.116,1.472-1.675c0.492-0.562,0.984-1.124,1.472-1.689
					c0.272,0.241,0.523,0.457,0.747,0.649c0.227,0.195,0.467,0.401,0.726,0.618l-3.566,4.11h5.652c0.516,0,0.998,0.094,1.441,0.283
					c0.443,0.185,0.823,0.436,1.145,0.75c0.321,0.314,0.572,0.68,0.757,1.099c0.185,0.419,0.275,0.858,0.275,1.315
					c0,0.394-0.129,0.928-0.387,1.601h1.755l14.472-0.021c0.467-0.001,0.775,0.053,1.204-0.17c0.167-0.091,0.314-0.202,0.447-0.342
					c0.129-0.139,0.23-0.307,0.304-0.502c0.077-0.195,0.115-0.412,0.115-0.649v-3.803H228.425z"/>
				<path style="fill-rule:evenodd;clip-rule:evenodd;fill:#E5F5F6;" d="M231.983,5.954v8.482c0,0.827-0.037,2.734-0.795,3.712
					c-0.508-0.302-1.173-0.621-1.686-0.913c0.393-0.636,0.51-1.739,0.51-2.498V5.954H231.983z"/>
				<path style="fill-rule:evenodd;clip-rule:evenodd;fill:#E5F5F6;" d="M235.944,9.775c0.356,0.3,0.712,0.635,1.068,1.001
					c0.359,0.37,0.684,0.757,0.977,1.165c0.293,0.412,0.538,0.834,0.726,1.27c0.192,0.436,0.3,0.869,0.328,1.298
					c0,0.481-0.098,0.942-0.29,1.378c-0.195,0.436-0.457,0.82-0.788,1.151c-0.332,0.331-0.715,0.593-1.151,0.788
					c-0.436,0.192-0.897,0.29-1.389,0.29h-2.554v-1.964h2.512c0.286,0,0.538-0.049,0.754-0.146c0.213-0.098,0.391-0.227,0.53-0.384
					c0.14-0.157,0.244-0.335,0.317-0.538c0.07-0.199,0.108-0.398,0.115-0.597c-0.031-0.237-0.129-0.495-0.286-0.767
					c-0.157-0.272-0.352-0.548-0.586-0.823c-0.234-0.276-0.499-0.548-0.788-0.82c-0.29-0.276-0.579-0.534-0.872-0.778L235.944,9.775
					z"/>
				<path style="fill-rule:evenodd;clip-rule:evenodd;fill:#E5F5F6;" d="M221.02,11.734c0.358,0.358,0.697,0.697,1.011,1.012
					c0.32,0.319,0.639,0.629,0.959,0.943c-0.348,0.358-0.678,0.697-0.992,1.012c-0.31,0.319-0.639,0.643-0.978,0.973
					c-0.358-0.368-0.692-0.702-0.992-1.007c-0.305-0.3-0.624-0.629-0.963-0.978L221.02,11.734z"/>
				<path style="fill-rule:evenodd;clip-rule:evenodd;fill:#E5F5F6;" d="M217.586,11.734c0.358,0.358,0.697,0.697,1.011,1.012
					c0.32,0.319,0.639,0.629,0.959,0.943c-0.348,0.358-0.678,0.697-0.992,1.012c-0.31,0.319-0.639,0.643-0.978,0.973
					c-0.358-0.368-0.692-0.702-0.992-1.007c-0.305-0.3-0.624-0.629-0.963-0.978L217.586,11.734z"/>
				<path style="fill-rule:evenodd;clip-rule:evenodd;fill:#E5F5F6;" d="M214.151,11.734c0.358,0.358,0.697,0.697,1.011,1.012
					c0.32,0.319,0.639,0.629,0.959,0.943c-0.348,0.358-0.678,0.697-0.992,1.012c-0.31,0.319-0.639,0.643-0.978,0.973
					c-0.358-0.368-0.692-0.702-0.992-1.007c-0.305-0.3-0.624-0.629-0.963-0.978L214.151,11.734z"/>
			</g>
			<g>
				<path style="fill-rule:evenodd;clip-rule:evenodd;fill:#E5F5F6;" d="M22.874,7.104v7.333c0,0.935,0.034,2.636-0.448,3.767
					c-0.445-0.265-1.237-0.552-1.761-0.845c0.304-0.692,0.258-1.211,0.258-1.979v-8.83c0.447,0.031,0.947,0.161,1.499,0.393h0.001
					C22.577,7.006,22.728,7.06,22.874,7.104z"/>
				<path style="fill-rule:evenodd;clip-rule:evenodd;fill:#E5F5F6;" d="M9.075,16.153h1.41c0.241-0.01,0.461-0.056,0.659-0.126
					c0.202-0.073,0.373-0.174,0.516-0.314c0.143-0.136,0.255-0.303,0.338-0.509c0.08-0.206,0.122-0.447,0.122-0.726v-1.902
					c0-0.499,0.094-0.963,0.286-1.399c0.192-0.436,0.45-0.82,0.782-1.144c0.332-0.328,0.715-0.586,1.155-0.778
					c0.44-0.192,0.907-0.286,1.406-0.286c0.492,0,0.956,0.094,1.395,0.286c0.44,0.192,0.823,0.45,1.155,0.778
					c0.332,0.325,0.59,0.708,0.782,1.144c0.192,0.436,0.286,0.9,0.286,1.399v1.933c0,0.495-0.094,0.966-0.286,1.406
					c-0.192,0.44-0.45,0.823-0.782,1.155c-0.332,0.328-0.715,0.589-1.155,0.782c-0.44,0.188-0.904,0.286-1.395,0.286
					c-0.485,0-0.953-0.101-1.41-0.307c-0.457-0.206-0.876-0.489-1.259-0.848c-0.209,0.202-0.419,0.373-0.628,0.509
					c-0.206,0.136-0.419,0.248-0.631,0.335c-0.216,0.084-0.433,0.146-0.656,0.192c-0.203,0.042-0.413,0.069-0.628,0.084v0.014H9.054
					c-0.094,0.579-0.286,1.102-0.572,1.573c-0.286,0.471-0.635,0.872-1.047,1.207c-0.412,0.335-0.872,0.589-1.375,0.771
					c-0.506,0.181-1.015,0.272-1.535,0.272c-0.565,0-1.117-0.105-1.661-0.307c-0.541-0.206-1.026-0.495-1.452-0.869
					c-0.426-0.377-0.767-0.827-1.026-1.35C0.129,18.892,0,18.309,0,17.667v-3.67h1.961v3.628c0,0.405,0.073,0.754,0.22,1.05
					c0.146,0.296,0.342,0.541,0.583,0.74c0.241,0.199,0.516,0.349,0.824,0.45c0.307,0.101,0.621,0.154,0.939,0.154
					c0.328,0,0.645-0.049,0.956-0.143c0.311-0.094,0.586-0.244,0.83-0.447c0.241-0.199,0.436-0.45,0.583-0.75
					c0.147-0.3,0.22-0.649,0.22-1.054V5.954h1.961V16.153L9.075,16.153z M14.082,14.478c0,0.265,0.049,0.506,0.143,0.715
					c0.098,0.213,0.22,0.387,0.373,0.53c0.154,0.143,0.332,0.255,0.527,0.328c0.199,0.077,0.405,0.115,0.614,0.122
					c0.206,0.014,0.408-0.01,0.607-0.077c0.202-0.063,0.38-0.164,0.534-0.307c0.154-0.14,0.276-0.317,0.373-0.534
					c0.094-0.22,0.143-0.478,0.143-0.778v-1.849c0-0.3-0.049-0.558-0.143-0.778c-0.098-0.216-0.22-0.398-0.373-0.541
					c-0.154-0.143-0.332-0.248-0.534-0.314c-0.199-0.063-0.401-0.091-0.607-0.084c-0.209,0.011-0.415,0.059-0.614,0.136
					c-0.195,0.08-0.373,0.188-0.527,0.331c-0.154,0.143-0.276,0.321-0.373,0.527c-0.094,0.209-0.143,0.45-0.143,0.722V14.478z"/>
				<path style="fill-rule:evenodd;clip-rule:evenodd;fill:#E5F5F6;" d="M18.642,7.07c-0.009-0.733,0.249-1.433,0.775-2.1
					c0.531-0.662,1.522-0.695,2.974-0.094c1.456,0.601,2.57,0.385,3.34-0.639c-0.367,2.17-1.433,2.894-3.19,2.161
					C20.784,5.66,19.488,5.886,18.642,7.07z"/>
			</g>
			<g>
				<path style="fill-rule:evenodd;clip-rule:evenodd;fill:#E5F5F6;" d="M180.311,14.51c0,0.495-0.098,0.963-0.286,1.399
					c-0.192,0.436-0.45,0.82-0.778,1.144c-0.328,0.328-0.708,0.586-1.145,0.778c-0.436,0.192-0.904,0.286-1.402,0.286h-1.368h-0.063
					h-11.538h-0.063h-13.195c-0.474,0-0.9-0.101-1.277-0.307c-0.373-0.202-0.754-0.481-1.134-0.827
					c-0.349,0.321-0.722,0.579-1.12,0.775c-0.379,0.189-0.776,0.303-1.19,0.343v0.016h-13.258c-0.474,0-0.9-0.101-1.277-0.307
					c-0.373-0.202-0.754-0.481-1.134-0.827c-0.349,0.321-0.722,0.579-1.12,0.775c-0.379,0.189-0.776,0.303-1.19,0.343v0.016h-1.399
					c-2.608-0.024-4.22,0.067-5.307,0.154c0.221-0.651,0.448-1.3,0.669-1.951c0.947-0.163,2.078-0.174,3.054-0.171
					c0.953,0.003,1.927,0.003,2.92,0.003v-0.017c0.185-0.028,0.363-0.087,0.534-0.175c0.167-0.091,0.317-0.202,0.443-0.342
					c0.126-0.139,0.227-0.307,0.307-0.502c0.077-0.195,0.119-0.412,0.119-0.649v-0.307c0.331-0.136,0.663-0.269,0.984-0.405
					c0.324-0.133,0.646-0.265,0.966-0.401v1.113c0,0.265,0.049,0.502,0.143,0.712c0.094,0.206,0.227,0.384,0.394,0.527
					c0.167,0.143,0.363,0.251,0.593,0.332c0.227,0.077,0.471,0.115,0.729,0.115c0.328-0.408,0.68-0.823,1.061-1.249
					c0.377-0.426,0.775-0.841,1.19-1.242c0.415-0.405,0.851-0.782,1.301-1.137c0.454-0.352,0.921-0.663,1.396-0.928
					c0.478-0.265,0.967-0.474,1.469-0.628c0.499-0.154,1.005-0.23,1.518-0.23c0.258,0,0.527,0.021,0.802,0.066
					c0.276,0.045,0.544,0.115,0.803,0.209c0.314,0.115,0.604,0.286,0.872,0.516c0.269,0.227,0.506,0.492,0.705,0.792
					c0.203,0.3,0.36,0.625,0.471,0.97c0.112,0.349,0.168,0.698,0.168,1.054c0,0.237-0.042,0.506-0.133,0.806
					c-0.087,0.3-0.227,0.635-0.419,1.001h1.563v-0.017c0.185-0.028,0.363-0.087,0.534-0.175c0.167-0.091,0.317-0.202,0.443-0.342
					c0.126-0.139,0.227-0.307,0.307-0.502c0.077-0.195,0.119-0.412,0.119-0.649v-0.307c0.331-0.136,0.663-0.269,0.984-0.405
					c0.324-0.133,0.646-0.265,0.966-0.401v1.113c0,0.265,0.049,0.502,0.143,0.712c0.094,0.206,0.227,0.384,0.394,0.527
					c0.167,0.143,0.363,0.251,0.593,0.332c0.227,0.077,0.471,0.115,0.729,0.115c0.328-0.408,0.68-0.823,1.061-1.249
					c0.377-0.426,0.775-0.841,1.19-1.242c0.415-0.405,0.851-0.782,1.301-1.137c0.454-0.352,0.921-0.663,1.396-0.928
					c0.478-0.265,0.966-0.474,1.469-0.628c0.499-0.154,1.005-0.23,1.518-0.23c0.258,0,0.527,0.021,0.802,0.066
					c0.276,0.045,0.544,0.115,0.803,0.209c0.314,0.115,0.604,0.286,0.872,0.516c0.268,0.227,0.506,0.492,0.705,0.792
					c0.202,0.3,0.359,0.625,0.471,0.97c0.112,0.349,0.168,0.698,0.168,1.054c0,0.237-0.042,0.506-0.133,0.806
					c-0.087,0.3-0.227,0.635-0.419,1.001h1.563h0.063h7.47c-0.059-0.08-0.139-0.181-0.237-0.3c-0.101-0.119-0.202-0.244-0.307-0.373
					c-0.108-0.129-0.206-0.255-0.304-0.373c-0.094-0.119-0.171-0.216-0.223-0.29c-0.248-0.328-0.485-0.631-0.722-0.918
					c-0.234-0.283-0.478-0.527-0.736-0.74c-0.255-0.209-0.527-0.377-0.816-0.495c-0.29-0.119-0.614-0.178-0.977-0.178
					c-0.244,0-0.509,0.031-0.792,0.091c-0.283,0.063-0.586,0.161-0.914,0.297c0-0.185-0.003-0.352-0.007-0.499
					c-0.003-0.15-0.007-0.293-0.007-0.433c-0.003-0.136-0.007-0.276-0.01-0.419c-0.003-0.143-0.01-0.3-0.017-0.468
					c0.363-0.286,0.705-0.489,1.029-0.604c0.321-0.115,0.659-0.175,1.005-0.175c0.157,0,0.328,0.021,0.513,0.063
					c0.415,0.073,0.809,0.22,1.179,0.443c0.373,0.22,0.726,0.485,1.057,0.792c0.335,0.307,0.649,0.642,0.945,1.001
					c0.297,0.363,0.583,0.715,0.855,1.064c0.237,0.3,0.485,0.6,0.736,0.9c0.251,0.297,0.509,0.569,0.771,0.806
					c0.262,0.237,0.527,0.433,0.792,0.583c0.265,0.15,0.53,0.223,0.799,0.223h0.457h0.063h1.357c0.206,0,0.408-0.035,0.611-0.112
					c0.199-0.073,0.377-0.185,0.53-0.328c0.153-0.143,0.279-0.317,0.373-0.53c0.094-0.209,0.143-0.45,0.143-0.715v-3.803h1.964
					V14.51L180.311,14.51z M158.847,16.153c0.3,0,0.558-0.045,0.782-0.143c0.22-0.094,0.401-0.22,0.541-0.377
					c0.14-0.157,0.241-0.335,0.307-0.53c0.066-0.199,0.094-0.405,0.087-0.614c-0.007-0.206-0.049-0.401-0.122-0.593
					c-0.077-0.192-0.181-0.363-0.317-0.516c-0.136-0.154-0.304-0.279-0.506-0.377c-0.203-0.101-0.436-0.164-0.701-0.192
					c-0.314-0.025-0.635,0.003-0.97,0.094c-0.335,0.087-0.67,0.216-1.009,0.384c-0.335,0.167-0.666,0.366-0.991,0.597
					c-0.325,0.234-0.635,0.474-0.939,0.733c-0.304,0.255-0.59,0.516-0.855,0.782c-0.265,0.265-0.502,0.517-0.715,0.754H158.847
					L158.847,16.153z M140.868,16.153c0.3,0,0.558-0.045,0.782-0.143c0.22-0.094,0.401-0.22,0.541-0.377
					c0.14-0.157,0.241-0.335,0.307-0.53c0.066-0.199,0.094-0.405,0.087-0.614c-0.007-0.206-0.049-0.401-0.122-0.593
					c-0.077-0.192-0.182-0.363-0.317-0.516c-0.136-0.154-0.304-0.279-0.506-0.377c-0.202-0.101-0.436-0.164-0.701-0.192
					c-0.314-0.025-0.635,0.003-0.97,0.094c-0.335,0.087-0.67,0.216-1.009,0.384c-0.335,0.167-0.666,0.366-0.991,0.597
					c-0.325,0.234-0.635,0.474-0.939,0.733c-0.304,0.255-0.59,0.516-0.855,0.782c-0.265,0.265-0.502,0.517-0.715,0.754H140.868z"/>
				<path style="fill-rule:evenodd;clip-rule:evenodd;fill:#E5F5F6;" d="M120.318,22.455l-1.063,0.017
					c-0.369,0.005-0.707-0.013-0.988-0.077c-0.28-0.064-0.524-0.161-0.719-0.283c-0.195-0.121-0.353-0.272-0.464-0.443
					c-0.111-0.173-0.198-0.364-0.23-0.569c-0.014-0.091-0.027-0.184-0.031-0.265c-0.004-0.078-0.01-0.164-0.01-0.244
					c0-0.499,0.123-0.966,0.366-1.395c0.244-0.431,0.56-0.837,0.931-1.207c1.172-1.167,2.078-1.54,3.782-1.693
					c1.158,1.52,0.046,1.633-0.825,1.976c-1.387,0.105-2.179,1.336-2.57,2.236h1.584c0.078,0,0.156,0.001,0.233,0.002h0.004h19.962
					v1.945H120.318z"/>
				<path style="fill-rule:evenodd;clip-rule:evenodd;fill:#E5F5F6;" d="M163.039,5.839c0.358,0.358,0.697,0.697,1.011,1.012
					c0.32,0.319,0.639,0.629,0.959,0.943c-0.348,0.358-0.678,0.697-0.992,1.012c-0.31,0.319-0.639,0.643-0.978,0.973
					c-0.358-0.368-0.692-0.702-0.992-1.007c-0.305-0.3-0.624-0.629-0.963-0.978L163.039,5.839z"/>
				<path style="fill-rule:evenodd;clip-rule:evenodd;fill:#E5F5F6;" d="M175.849,5.839c0.358,0.358,0.697,0.697,1.011,1.012
					c0.32,0.319,0.639,0.629,0.959,0.943c-0.348,0.358-0.678,0.697-0.992,1.012c-0.31,0.319-0.639,0.643-0.978,0.973
					c-0.358-0.368-0.692-0.702-0.992-1.007c-0.305-0.3-0.624-0.629-0.963-0.978L175.849,5.839z"/>
				<path style="fill-rule:evenodd;clip-rule:evenodd;fill:#E5F5F6;" d="M172.415,5.839c0.358,0.358,0.697,0.697,1.011,1.012
					c0.32,0.319,0.639,0.629,0.959,0.943c-0.348,0.358-0.678,0.697-0.992,1.012c-0.31,0.319-0.639,0.643-0.978,0.973
					c-0.358-0.368-0.692-0.702-0.992-1.007c-0.305-0.3-0.624-0.629-0.963-0.978L172.415,5.839z"/>
			</g>
			<g>
				<path style="fill-rule:evenodd;clip-rule:evenodd;fill:#E5F5F6;" d="M68.317,18.117v-0.016c-0.447-0.04-0.863-0.154-1.253-0.347
					c-0.405-0.202-0.757-0.464-1.061-0.788c-0.304-0.321-0.543-0.695-0.715-1.113c-0.173-0.419-0.262-0.865-0.262-1.343V5.6h1.95
					v8.868c0,0.237,0.041,0.454,0.119,0.649c0.079,0.196,0.181,0.363,0.307,0.502c0.126,0.14,0.275,0.251,0.443,0.342
					c0.171,0.087,0.349,0.147,0.534,0.175v0.017h1.451l-0.01-3.576c0-0.499,0.094-0.963,0.286-1.399
					c0.192-0.436,0.45-0.82,0.778-1.144c0.324-0.328,0.708-0.586,1.148-0.778c0.44-0.192,0.911-0.286,1.417-0.286
					c0.328,0,0.645,0.045,0.949,0.136c0.307,0.094,0.597,0.223,0.869,0.391c0.276,0.168,0.523,0.366,0.754,0.604
					c0.227,0.234,0.426,0.495,0.597,0.781h1.748c0.499,0,0.966,0.094,1.406,0.286c0.44,0.188,0.823,0.45,1.151,0.774
					c0.324,0.328,0.586,0.712,0.774,1.151c0.192,0.44,0.286,0.907,0.286,1.406c0,0.495-0.094,0.966-0.286,1.406
					c-0.188,0.44-0.45,0.823-0.774,1.148c-0.328,0.328-0.712,0.586-1.151,0.778c-0.44,0.192-0.907,0.286-1.406,0.286H68.317
					L68.317,18.117z M71.771,16.174h1.678c0.206,0,0.404-0.028,0.597-0.091c0.195-0.063,0.37-0.16,0.523-0.3
					c0.154-0.14,0.276-0.317,0.373-0.534c0.094-0.213,0.143-0.471,0.143-0.771v-1.849c0-0.3-0.049-0.558-0.143-0.778
					c-0.098-0.216-0.22-0.398-0.373-0.537c-0.154-0.139-0.328-0.244-0.527-0.311c-0.199-0.07-0.398-0.098-0.604-0.091
					c-0.213,0.011-0.415,0.059-0.614,0.136c-0.196,0.08-0.373,0.188-0.527,0.331c-0.154,0.143-0.276,0.321-0.366,0.527
					c-0.094,0.209-0.139,0.45-0.139,0.722L71.771,16.174L71.771,16.174z M77.046,12.842v1.668c0,0.464-0.119,1.012-0.356,1.643
					h1.622c0.3,0,0.562-0.045,0.778-0.143c0.22-0.094,0.398-0.22,0.537-0.377c0.14-0.157,0.241-0.335,0.307-0.53
					c0.063-0.199,0.094-0.405,0.087-0.614c-0.007-0.206-0.049-0.405-0.129-0.604c-0.077-0.199-0.188-0.373-0.332-0.527
					c-0.143-0.154-0.317-0.275-0.527-0.373c-0.209-0.094-0.447-0.143-0.722-0.143H77.046z"/>
				<path style="fill-rule:evenodd;clip-rule:evenodd;fill:#E5F5F6;" d="M82.186,8.335l-1.063,0.017
					c-0.369,0.005-0.707-0.013-0.987-0.077c-0.28-0.064-0.524-0.161-0.719-0.283c-0.195-0.121-0.353-0.272-0.464-0.443
					c-0.111-0.173-0.198-0.364-0.23-0.569c-0.014-0.091-0.027-0.184-0.031-0.265c-0.004-0.078-0.01-0.164-0.01-0.244
					c0-0.499,0.123-0.966,0.366-1.395c0.244-0.431,0.56-0.837,0.931-1.207c0.37-0.368,0.788-0.71,1.228-1.015
					c0.438-0.304,0.865-0.583,1.267-0.827c0.223,0.293,0.428,0.557,0.604,0.792c0.172,0.231,0.366,0.485,0.572,0.75
					c-0.558,0.279-1.115,0.644-1.661,1.081c-0.549,0.44-1.088,1.022-1.622,1.737h1.584c0.078,0,0.155,0.001,0.233,0.002h0.004
					h14.455v1.945H82.186z"/>
				<path style="fill-rule:evenodd;clip-rule:evenodd;fill:#E5F5F6;" d="M87.881,10.605c0.955,0.9,1.329,2.257,1.535,3.535
					c0.072,0.45,0.105,0.904,0.105,1.361c0,0.551-0.049,1.099-0.147,1.647c-0.098,0.544-0.244,1.068-0.436,1.567
					c-0.188,0.502-0.429,0.966-0.715,1.395c-0.286,0.429-0.614,0.803-0.981,1.117c-0.366,0.311-0.782,0.558-1.235,0.74
					c-0.457,0.181-0.952,0.272-1.483,0.272c-0.272,0-0.551-0.028-0.834-0.084c-0.283-0.052-0.576-0.129-0.872-0.223v-1.923
					c0.258,0.087,0.492,0.147,0.698,0.178c0.209,0.031,0.422,0.045,0.638,0.045c0.579,0,1.081-0.129,1.507-0.387
					c0.429-0.258,0.782-0.6,1.064-1.022c0.283-0.422,0.492-0.907,0.628-1.455c0.136-0.551,0.206-1.113,0.206-1.692
					c0-0.694-0.09-1.375-0.275-2.034c-0.185-0.663-0.461-1.238-0.827-1.727L87.881,10.605z"/>
				<path style="fill-rule:evenodd;clip-rule:evenodd;fill:#E5F5F6;" d="M90.749,20.008c0.241,0.08,0.485,0.14,0.743,0.178
					c0.255,0.038,0.513,0.056,0.771,0.056c0.328,0,0.646-0.045,0.96-0.136c0.314-0.094,0.6-0.237,0.858-0.436
					c0.262-0.195,0.485-0.457,0.677-0.774c0.188-0.321,0.328-0.708,0.408-1.155c-0.363,0.136-0.677,0.234-0.946,0.296
					c-0.269,0.059-0.499,0.091-0.691,0.091c-0.45,0-0.879-0.087-1.287-0.255c-0.408-0.171-0.771-0.408-1.085-0.705
					c-0.311-0.3-0.562-0.656-0.743-1.071c-0.185-0.412-0.276-0.858-0.276-1.343v-2.177c0-0.499,0.094-0.963,0.286-1.399
					c0.188-0.436,0.45-0.82,0.782-1.144c0.328-0.328,0.715-0.586,1.155-0.778c0.44-0.192,0.907-0.286,1.406-0.286
					c0.495,0,0.963,0.094,1.403,0.286c0.44,0.192,0.823,0.45,1.151,0.778c0.328,0.325,0.586,0.708,0.778,1.144
					c0.188,0.436,0.286,0.9,0.286,1.399v1.964c0,0.652-0.028,1.291-0.084,1.915c-0.052,0.625-0.15,1.214-0.286,1.773
					c-0.136,0.558-0.321,1.075-0.555,1.546c-0.237,0.468-0.537,0.876-0.9,1.214c-0.366,0.342-0.802,0.607-1.315,0.799
					c-0.509,0.188-1.109,0.286-1.797,0.286c-0.269,0-0.541-0.017-0.82-0.045c-0.279-0.031-0.572-0.073-0.879-0.129V20.008
					L90.749,20.008z M92.11,14.478c0,0.265,0.049,0.502,0.143,0.712c0.094,0.206,0.22,0.38,0.373,0.523
					c0.153,0.143,0.328,0.255,0.527,0.335c0.196,0.077,0.398,0.119,0.604,0.126h-0.011c0.209,0.014,0.415-0.01,0.611-0.077
					c0.199-0.063,0.377-0.164,0.534-0.307c0.157-0.14,0.283-0.317,0.377-0.534c0.098-0.22,0.143-0.478,0.143-0.778v-1.849
					c0-0.3-0.045-0.558-0.143-0.778c-0.094-0.216-0.22-0.398-0.373-0.537c-0.154-0.139-0.328-0.244-0.53-0.311
					c-0.202-0.07-0.405-0.098-0.607-0.091c-0.206,0.011-0.408,0.059-0.604,0.136c-0.199,0.08-0.373,0.188-0.527,0.331
					c-0.154,0.143-0.279,0.321-0.373,0.527c-0.094,0.209-0.143,0.45-0.143,0.722V14.478z"/>
				<path style="fill-rule:evenodd;clip-rule:evenodd;fill:#E5F5F6;" d="M105.825,18.117v-0.016
					c-0.407-0.04-0.805-0.151-1.186-0.336c-0.401-0.195-0.778-0.454-1.123-0.782c-0.349,0.321-0.722,0.579-1.12,0.775
					c-0.379,0.189-0.78,0.303-1.2,0.343v0.005l-0.032-0.002l-0.03,0.002v-0.005c-0.447-0.04-0.863-0.154-1.253-0.347
					c-0.405-0.202-0.757-0.464-1.061-0.788c-0.304-0.321-0.544-0.694-0.715-1.113c-0.174-0.419-0.262-0.865-0.262-1.343V5.954h1.95
					v8.513c0,0.237,0.042,0.453,0.119,0.649c0.08,0.196,0.181,0.363,0.307,0.502c0.126,0.14,0.275,0.251,0.443,0.342
					c0.161,0.082,0.329,0.139,0.502,0.169c0.174-0.03,0.341-0.087,0.502-0.169c0.167-0.091,0.317-0.202,0.447-0.342
					c0.133-0.139,0.234-0.307,0.307-0.502c0.077-0.195,0.115-0.412,0.115-0.649v-3.803h1.95v3.803c0,0.237,0.038,0.453,0.119,0.649
					c0.077,0.196,0.181,0.363,0.307,0.502c0.126,0.14,0.272,0.251,0.443,0.342c0.171,0.087,0.349,0.147,0.534,0.175v0.017h1.79
					c-0.112-0.31-0.199-0.607-0.262-0.883c-0.066-0.275-0.098-0.53-0.098-0.761v-1.933c0-0.499,0.094-0.963,0.286-1.399
					c0.192-0.436,0.45-0.82,0.778-1.144c0.325-0.328,0.708-0.586,1.148-0.778c0.44-0.192,0.907-0.286,1.406-0.286
					c0.499,0,0.963,0.094,1.399,0.286c0.436,0.192,0.82,0.45,1.148,0.778c0.324,0.325,0.586,0.708,0.775,1.144
					c0.192,0.436,0.286,0.9,0.286,1.399v1.933c0,0.495-0.094,0.966-0.286,1.406c-0.188,0.44-0.45,0.823-0.775,1.155
					c-0.328,0.328-0.712,0.589-1.148,0.782c-0.436,0.188-0.9,0.286-1.399,0.286L105.825,18.117L105.825,18.117z M109.29,14.478
					c0,0.265,0.049,0.502,0.14,0.712c0.091,0.206,0.213,0.38,0.366,0.523c0.153,0.143,0.331,0.255,0.527,0.335
					c0.199,0.077,0.401,0.119,0.604,0.126c0.206,0.014,0.408-0.01,0.607-0.077c0.202-0.063,0.38-0.164,0.537-0.307
					c0.157-0.14,0.283-0.317,0.38-0.534c0.094-0.22,0.143-0.478,0.143-0.778v-1.849c0-0.3-0.049-0.558-0.143-0.778
					c-0.098-0.216-0.223-0.398-0.38-0.537c-0.157-0.139-0.335-0.244-0.537-0.311c-0.199-0.07-0.401-0.098-0.607-0.091
					c-0.203,0.011-0.405,0.059-0.604,0.136c-0.195,0.08-0.373,0.188-0.527,0.331c-0.154,0.143-0.276,0.321-0.366,0.527
					c-0.091,0.209-0.14,0.45-0.14,0.722V14.478z"/>
				<path style="fill-rule:evenodd;clip-rule:evenodd;fill:#E5F5F6;" d="M62.285,8.335l-1.063,0.017
					c-0.369,0.005-0.707-0.013-0.988-0.077c-0.28-0.064-0.524-0.161-0.719-0.283c-0.195-0.121-0.353-0.272-0.464-0.443
					c-0.111-0.173-0.198-0.364-0.23-0.569c-0.014-0.091-0.027-0.184-0.031-0.265c-0.004-0.078-0.01-0.164-0.01-0.244
					c0-0.499,0.123-0.966,0.366-1.395c0.244-0.431,0.56-0.837,0.931-1.207c0.37-0.368,0.788-0.71,1.228-1.015
					c0.438-0.304,0.865-0.583,1.267-0.827C62.795,2.32,63,2.584,63.175,2.819c0.172,0.231,0.366,0.485,0.572,0.75
					c-0.558,0.279-1.115,0.644-1.661,1.081c-0.549,0.44-1.088,1.022-1.622,1.737h1.584c0.078,0,0.155,0.001,0.233,0.002h0.004h2.106
					v1.945H62.285L62.285,8.335z M67.613,6.39h10.116v1.945H67.613V6.39z"/>
				<path style="fill-rule:evenodd;clip-rule:evenodd;fill:#E5F5F6;" d="M107.489,5.839c0.358,0.358,0.697,0.697,1.011,1.012
					c0.32,0.319,0.639,0.629,0.959,0.943c-0.348,0.358-0.678,0.697-0.992,1.012c-0.31,0.319-0.639,0.643-0.978,0.973
					c-0.358-0.368-0.692-0.702-0.992-1.007c-0.305-0.3-0.624-0.629-0.963-0.978L107.489,5.839z"/>
				<path style="fill-rule:evenodd;clip-rule:evenodd;fill:#E5F5F6;" d="M102.506,5.839c0.358,0.358,0.697,0.697,1.011,1.012
					c0.32,0.319,0.639,0.629,0.959,0.943c-0.348,0.358-0.678,0.697-0.992,1.012c-0.31,0.319-0.639,0.643-0.978,0.973
					c-0.358-0.368-0.692-0.702-0.992-1.007c-0.305-0.3-0.624-0.629-0.963-0.978L102.506,5.839z"/>
			</g>
			<g>
				<path style="fill-rule:evenodd;clip-rule:evenodd;fill:#E5F5F6;" d="M43.162,10.665v3.845c0,0.478-0.087,0.925-0.262,1.343
					c-0.175,0.419-0.412,0.792-0.715,1.113c-0.304,0.325-0.659,0.586-1.068,0.788c-0.388,0.191-1.416,0.273-3.088,0.256h-1.483
					c0,0.493-0.317,1.261-0.572,1.681c-0.286,0.471-0.635,0.872-1.054,1.207c-0.415,0.335-0.872,0.589-1.375,0.771
					c-0.499,0.181-1.008,0.272-1.528,0.272c-0.565,0-1.12-0.105-1.664-0.307c-0.544-0.206-1.029-0.495-1.451-0.869
					c-0.422-0.377-0.764-0.827-1.022-1.35c-0.258-0.523-0.387-1.106-0.387-1.748v-3.67h1.961v3.628c0,0.405,0.073,0.754,0.22,1.05
					c0.146,0.296,0.342,0.541,0.583,0.74c0.241,0.199,0.517,0.349,0.824,0.45c0.307,0.101,0.621,0.154,0.939,0.154
					c0.321,0,0.635-0.049,0.945-0.143c0.311-0.094,0.586-0.244,0.83-0.447c0.241-0.199,0.436-0.45,0.586-0.75
					c0.15-0.3,0.227-0.649,0.227-1.054v-6.96h1.961v5.366c0.738,0,3.456,0.091,3.772-0.07c0.171-0.091,0.317-0.202,0.443-0.342
					c0.129-0.139,0.23-0.307,0.307-0.502c0.08-0.195,0.119-0.412,0.119-0.649v-3.803H43.162z"/>
				<path style="fill-rule:evenodd;clip-rule:evenodd;fill:#E5F5F6;" d="M56.193,10.665v3.845c0,0.478-0.087,0.925-0.262,1.343
					c-0.171,0.419-0.412,0.792-0.715,1.113c-0.304,0.325-0.659,0.586-1.068,0.788c-0.393,0.195-0.811,0.309-1.256,0.348v0.015h-1.8
					c-0.164,0.673-0.404,1.259-0.722,1.758c-0.314,0.495-0.687,0.911-1.113,1.235c-0.426,0.328-0.897,0.569-1.41,0.726
					c-0.516,0.157-1.05,0.237-1.612,0.237c-0.23,0-0.471-0.017-0.719-0.045c-0.248-0.031-0.489-0.073-0.722-0.129v-1.891
					c0.241,0.08,0.488,0.143,0.747,0.185c0.258,0.038,0.516,0.059,0.767,0.059c0.307,0,0.607-0.038,0.904-0.122
					c0.296-0.08,0.572-0.209,0.823-0.384c0.251-0.175,0.474-0.401,0.67-0.68c0.196-0.279,0.349-0.617,0.464-1.022
					c-0.258,0.049-0.481,0.084-0.673,0.105c-0.192,0.021-0.359,0.031-0.502,0.031c-0.265,0-0.544-0.024-0.837-0.07
					c-0.293-0.042-0.579-0.119-0.858-0.223c-0.279-0.105-0.548-0.244-0.809-0.415c-0.258-0.167-0.481-0.38-0.674-0.638
					c-0.192-0.255-0.342-0.555-0.46-0.9c-0.115-0.342-0.171-0.736-0.171-1.179v-2.177c0-0.499,0.094-0.963,0.286-1.399
					c0.188-0.436,0.447-0.82,0.775-1.144c0.328-0.328,0.712-0.586,1.151-0.778c0.44-0.192,0.907-0.286,1.406-0.286
					c0.488,0,0.956,0.094,1.392,0.286c0.44,0.192,0.827,0.45,1.158,0.778c0.328,0.325,0.59,0.708,0.782,1.144
					c0.188,0.436,0.286,0.9,0.286,1.399c0,0.607-0.003,1.113-0.007,1.518c-0.003,0.405-0.007,0.743-0.014,1.008
					c-0.007,0.265-0.014,0.478-0.017,0.642c0,0.164-0.007,0.3-0.014,0.408h1.472v-0.017c0.185-0.028,0.359-0.087,0.527-0.175
					c0.167-0.091,0.314-0.202,0.447-0.342c0.129-0.139,0.23-0.307,0.304-0.502c0.077-0.195,0.115-0.412,0.115-0.649v-3.803H56.193
					L56.193,10.665z M46.145,14.478c0,0.265,0.049,0.502,0.143,0.712c0.094,0.206,0.22,0.38,0.373,0.523
					c0.154,0.143,0.328,0.255,0.527,0.335c0.195,0.077,0.398,0.119,0.604,0.126h1.664v-3.545c0-0.3-0.045-0.558-0.143-0.778
					c-0.094-0.216-0.22-0.398-0.377-0.537c-0.157-0.139-0.335-0.244-0.537-0.311c-0.202-0.07-0.405-0.098-0.607-0.091
					c-0.206,0.011-0.408,0.059-0.604,0.136c-0.199,0.08-0.373,0.188-0.527,0.331c-0.154,0.143-0.279,0.321-0.373,0.527
					c-0.094,0.209-0.143,0.45-0.143,0.722V14.478z"/>
				<path style="fill-rule:evenodd;clip-rule:evenodd;fill:#E5F5F6;" d="M52.379,5.839c0.358,0.358,0.697,0.697,1.011,1.012
					c0.32,0.319,0.639,0.629,0.959,0.943C54,8.152,53.671,8.491,53.356,8.806c-0.31,0.319-0.639,0.643-0.978,0.973
					c-0.358-0.368-0.692-0.702-0.992-1.007c-0.305-0.3-0.624-0.629-0.963-0.978L52.379,5.839z"/>
				<path style="fill-rule:evenodd;clip-rule:evenodd;fill:#E5F5F6;" d="M31.554,9.85c0.358,0.358,0.697,0.697,1.011,1.012
					c0.32,0.319,0.639,0.629,0.959,0.943c-0.348,0.358-0.678,0.697-0.992,1.012c-0.31,0.319-0.639,0.643-0.978,0.973
					c-0.358-0.368-0.692-0.702-0.992-1.007c-0.305-0.3-0.624-0.629-0.963-0.978L31.554,9.85z"/>
				<path style="fill-rule:evenodd;clip-rule:evenodd;fill:#E5F5F6;" d="M41.605,19.422c0.358,0.358,0.697,0.697,1.011,1.012
					c0.32,0.319,0.639,0.629,0.959,0.943c-0.348,0.358-0.678,0.697-0.992,1.012c-0.31,0.319-0.639,0.643-0.978,0.973
					c-0.358-0.368-0.692-0.702-0.992-1.007c-0.305-0.3-0.624-0.629-0.963-0.978L41.605,19.422z"/>
				<path style="fill-rule:evenodd;clip-rule:evenodd;fill:#E5F5F6;" d="M38.171,19.422c0.358,0.358,0.697,0.697,1.011,1.012
					c0.32,0.319,0.639,0.629,0.959,0.943c-0.348,0.358-0.678,0.697-0.992,1.012c-0.31,0.319-0.639,0.643-0.978,0.973
					c-0.358-0.368-0.692-0.702-0.992-1.007c-0.305-0.3-0.624-0.629-0.963-0.978L38.171,19.422z"/>
			</g>
		</g>
		<path style="fill-rule:evenodd;clip-rule:evenodd;fill:#E5F5F6;" d="M8.244,37.794c0,0.033-0.047,0.05-0.144,0.05
			c-0.076,0-0.19-0.004-0.336-0.012c-0.149-0.008-0.26-0.012-0.336-0.012c-0.076,0-0.192,0.004-0.347,0.012
			c-0.153,0.008-0.268,0.012-0.345,0.012c-0.111,0-0.254-0.305-0.427-0.916C6.136,36.317,5.961,36.008,5.781,36
			c-0.146-0.008-0.528-0.012-1.149-0.012H3.692c-0.654,0-1.027,0.004-1.12,0.012c-0.142,0.012-0.303,0.324-0.483,0.932
			c-0.179,0.609-0.318,0.912-0.415,0.912H0.321c-0.08,0-0.122-0.029-0.122-0.089c0-0.043,0.029-0.14,0.087-0.289l1.508-4.039
			c0.128-0.324,0.514-1.263,1.157-2.814c0.116-0.258,0.272-0.646,0.468-1.163c0.05-0.155,0.101-0.231,0.159-0.231
			c0.076,0,0.192,0.01,0.342,0.029c0.151,0.021,0.264,0.031,0.34,0.031c0.074,0,0.184-0.01,0.332-0.033
			c0.149-0.023,0.258-0.033,0.328-0.033c0.035,0,0.087,0.072,0.153,0.217c0.093,0.227,0.559,1.446,1.397,3.658
			C7.654,36.198,8.244,37.766,8.244,37.794L8.244,37.794z M5.462,34.438c-0.037-0.097-0.231-0.615-0.582-1.549
			c-0.34-0.908-0.563-1.508-0.675-1.803c-0.835,2.127-1.252,3.243-1.252,3.342c0,0.138,0.151,0.217,0.454,0.241
			c0.017,0.004,0.21,0.006,0.586,0.006h0.615C5.177,34.675,5.462,34.597,5.462,34.438z"/>
		<path style="fill-rule:evenodd;clip-rule:evenodd;fill:#E5F5F6;" d="M17.265,37.693c0,0.101-0.05,0.151-0.151,0.151
			c-0.072,0-0.182-0.006-0.328-0.019c-0.146-0.012-0.256-0.019-0.328-0.019c-0.072,0-0.184,0.006-0.332,0.019
			c-0.149,0.012-0.258,0.019-0.33,0.019c-0.101,0-0.151-0.066-0.151-0.2c0-0.512,0.014-1.279,0.047-2.302
			c0.033-1.023,0.047-1.791,0.047-2.304c0-0.076-0.014-0.113-0.047-0.113c-0.037,0-0.064,0.023-0.085,0.066
			c-0.206,0.439-0.691,1.615-1.456,3.523c-0.124,0.367-0.303,0.825-0.536,1.374c-0.029,0.045-0.175,0.068-0.437,0.068
			c-0.382,0-0.592-0.035-0.633-0.103c-0.136-0.326-0.332-0.784-0.588-1.372c-0.334-0.796-0.85-1.985-1.545-3.563
			c-0.012-0.029-0.037-0.056-0.078-0.085c-0.033,0.025-0.047,0.068-0.047,0.132c0,0.52,0.008,1.3,0.027,2.339
			c0.019,1.04,0.027,1.819,0.027,2.339c0,0.132-0.049,0.2-0.151,0.2c-0.07,0-0.173-0.006-0.316-0.019
			c-0.14-0.012-0.245-0.019-0.314-0.019c-0.072,0-0.182,0.006-0.324,0.019c-0.142,0.012-0.252,0.019-0.324,0.019
			c-0.101,0-0.151-0.039-0.151-0.116c0-0.448,0.021-1.118,0.062-2.009c0.041-0.893,0.062-1.564,0.062-2.009
			c0-0.464-0.021-1.159-0.062-2.09c-0.041-0.928-0.062-1.624-0.062-2.088c0-0.076,0.045-0.12,0.138-0.132
			c0.547-0.072,0.959-0.109,1.236-0.109c0.041,0,0.097,0.083,0.171,0.248c0.978,2.143,1.817,4.058,2.521,5.741
			c0.165,0.396,0.264,0.592,0.297,0.592c0.041,0,0.128-0.161,0.26-0.483c0.551-1.304,1.314-3.239,2.288-5.807
			c0.064-0.161,0.132-0.241,0.206-0.241c0.136,0,0.34,0.008,0.613,0.025c0.272,0.017,0.476,0.023,0.613,0.023
			c0.099,0,0.149,0.05,0.149,0.146c0,0.462-0.014,1.159-0.043,2.088s-0.043,1.626-0.043,2.088c0,0.444,0.017,1.108,0.05,1.995
			C17.248,36.592,17.265,37.254,17.265,37.693z"/>
		<path style="fill-rule:evenodd;clip-rule:evenodd;fill:#E5F5F6;" d="M26.294,33.601c0,1.197-0.384,2.226-1.149,3.088
			c-0.796,0.893-1.789,1.341-2.973,1.341c-1.188,0-2.18-0.446-2.973-1.335c-0.765-0.858-1.149-1.89-1.149-3.094
			c0-1.19,0.388-2.22,1.161-3.086c0.796-0.897,1.784-1.347,2.96-1.347c1.18,0,2.17,0.45,2.966,1.347
			C25.908,31.377,26.294,32.406,26.294,33.601L26.294,33.601z M24.833,33.584c0-0.79-0.246-1.477-0.736-2.063
			c-0.516-0.621-1.161-0.93-1.939-0.93c-0.769,0-1.411,0.314-1.923,0.943c-0.483,0.588-0.724,1.279-0.724,2.067
			c0,0.786,0.241,1.475,0.724,2.063c0.512,0.629,1.153,0.943,1.923,0.943c0.78,0,1.43-0.314,1.945-0.943
			C24.59,35.076,24.833,34.38,24.833,33.584z"/>
		<path style="fill-rule:evenodd;clip-rule:evenodd;fill:#E5F5F6;" d="M32.75,36.536c0,0.561-0.031,0.961-0.091,1.199
			c-0.029,0.118-0.099,0.175-0.21,0.175c-0.299,0-0.745-0.016-1.341-0.052c-0.596-0.033-1.042-0.052-1.341-0.052
			c-0.281,0-0.701,0.006-1.26,0.019c-0.559,0.012-0.98,0.019-1.263,0.019c-0.101,0-0.151-0.05-0.151-0.151
			c0-0.439,0.014-1.102,0.043-1.989c0.029-0.887,0.043-1.551,0.043-1.995c0-0.466-0.021-1.168-0.062-2.1
			c-0.041-0.932-0.062-1.632-0.062-2.1c0-0.089,0.05-0.132,0.151-0.132c0.074,0,0.184,0.006,0.334,0.019
			c0.149,0.012,0.262,0.019,0.338,0.019c0.072,0,0.186-0.006,0.338-0.019c0.155-0.012,0.266-0.019,0.34-0.019
			c0.097,0,0.144,0.039,0.144,0.115c0,0.427-0.016,1.069-0.05,1.927c-0.033,0.858-0.05,1.504-0.05,1.935c0,0.208,0,0.528,0,0.955
			c-0.004,0.427-0.006,0.745-0.006,0.955c0,0.893,0.037,1.341,0.109,1.341c1.483,0,2.605-0.035,3.36-0.107
			c0.037-0.004,0.13-0.019,0.278-0.043c0.12-0.023,0.212-0.035,0.279-0.035C32.709,36.421,32.75,36.46,32.75,36.536z"/>
		<path style="fill-rule:evenodd;clip-rule:evenodd;fill:#E5F5F6;" d="M43.062,29.497c0,0.468-0.019,1.168-0.056,2.1
			c-0.037,0.932-0.056,1.632-0.056,2.1c0,0.153,0.002,0.382,0.006,0.685c0.004,0.305,0.006,0.53,0.006,0.681
			c0,0.842-0.078,1.425-0.235,1.751c-0.243,0.499-0.712,0.838-1.409,1.015c-0.427,0.109-1.029,0.163-1.807,0.163
			c-1.411,0-2.335-0.233-2.775-0.701c-0.338-0.361-0.507-1.087-0.507-2.174c0-0.132,0.002-0.357,0.006-0.675
			c0.004-0.316,0.006-0.563,0.006-0.745c0-0.477-0.021-1.351-0.062-2.628c0-0.33-0.019-0.823-0.056-1.481
			c-0.004-0.047-0.006-0.08-0.006-0.095c0-0.085,0.052-0.128,0.157-0.128c0.165,0,0.39,0.002,0.673,0.006
			c0.326,0.004,0.549,0.006,0.666,0.006c0.093,0,0.138,0.035,0.138,0.109c0,0.611-0.012,1.533-0.037,2.76
			c-0.025,1.229-0.037,2.15-0.037,2.76c0,0.693,0.155,1.163,0.466,1.409c0.264,0.217,0.755,0.326,1.467,0.326
			c0.65,0,1.11-0.089,1.384-0.266c0.347-0.221,0.52-0.635,0.52-1.244c0-0.637-0.01-1.593-0.031-2.867
			c-0.021-1.275-0.031-2.23-0.031-2.867c0-0.064,0.058-0.103,0.175-0.12c0.085-0.012,0.204-0.012,0.361,0
			c0.186,0.016,0.272,0.025,0.266,0.025c0.072,0,0.182-0.006,0.328-0.019c0.146-0.012,0.256-0.019,0.328-0.019
			C43.012,29.365,43.062,29.409,43.062,29.497z"/>
		<path style="fill-rule:evenodd;clip-rule:evenodd;fill:#E5F5F6;" d="M49.394,37.722c0,0.089-0.041,0.134-0.122,0.134
			c-0.132,0-0.332-0.002-0.596-0.006c-0.264-0.004-0.462-0.006-0.596-0.006c-0.072,0-0.109-0.058-0.109-0.175
			c0-0.198,0.006-0.497,0.019-0.901c0.012-0.402,0.019-0.706,0.019-0.906c0-0.163-0.002-0.402-0.006-0.724
			c-0.004-0.32-0.006-0.561-0.006-0.722c0-0.46-0.066-0.784-0.198-0.974c-0.163-0.225-0.46-0.338-0.895-0.338
			c-0.2,0-0.481,0.113-0.84,0.34c-0.377,0.237-0.567,0.45-0.567,0.635v3.627c0,0.099-0.039,0.151-0.116,0.151
			c-0.128,0-0.322-0.002-0.58-0.006c-0.26-0.004-0.452-0.006-0.582-0.006c-0.085,0-0.128-0.045-0.128-0.138
			c0-0.32,0.006-0.796,0.016-1.434c0.01-0.637,0.014-1.116,0.014-1.44c0-0.858-0.089-1.65-0.266-2.374
			c-0.012-0.037-0.019-0.064-0.019-0.078c0-0.041,0.027-0.07,0.078-0.087c0.029-0.002,0.258-0.041,0.691-0.111
			c0.433-0.07,0.66-0.105,0.681-0.105c0.023,0,0.039,0.033,0.047,0.097c0.021,0.25,0.066,0.503,0.138,0.757
			c0.21-0.165,0.487-0.371,0.827-0.617c0.423-0.258,0.833-0.386,1.227-0.386c0.757,0,1.275,0.219,1.551,0.658
			c0.206,0.324,0.309,0.844,0.309,1.566c0,0.126-0.004,0.316-0.01,0.573c-0.006,0.258-0.008,0.452-0.008,0.582
			c0,0.268,0.004,0.673,0.012,1.207C49.39,37.05,49.394,37.454,49.394,37.722z"/>
		<path style="fill-rule:evenodd;clip-rule:evenodd;fill:#E5F5F6;" d="M51.888,30.616c0,0.495-0.276,0.743-0.829,0.743
			c-0.561,0-0.842-0.248-0.842-0.743c0-0.221,0.087-0.404,0.26-0.549c0.161-0.138,0.355-0.206,0.582-0.206
			c0.225,0,0.421,0.07,0.584,0.21C51.805,30.213,51.888,30.395,51.888,30.616L51.888,30.616z M51.838,32.253
			c0,0.309-0.019,0.778-0.056,1.405c-0.037,0.627-0.056,1.097-0.056,1.411c0,0.295,0.006,0.734,0.019,1.32
			c0.012,0.586,0.019,1.025,0.019,1.314c0,0.085-0.037,0.128-0.109,0.128h-1.18c-0.085,0-0.128-0.083-0.128-0.248
			c0-0.278,0.008-0.697,0.023-1.254c0.014-0.559,0.021-0.978,0.021-1.26c0-0.314-0.023-0.786-0.068-1.415
			c-0.045-0.627-0.068-1.1-0.068-1.413c0-0.068,0.041-0.103,0.126-0.103c0.072,0,0.184,0.01,0.334,0.031
			c0.151,0.019,0.264,0.029,0.34,0.029c0.076,0,0.19-0.01,0.34-0.029c0.151-0.021,0.264-0.031,0.34-0.031
			C51.803,32.138,51.838,32.177,51.838,32.253z"/>
		<path style="fill-rule:evenodd;clip-rule:evenodd;fill:#E5F5F6;" d="M58.022,33.84c0,0.569-0.016,0.901-0.05,0.994
			c-0.06,0.182-0.388,0.712-0.98,1.588c-0.609,0.899-0.97,1.374-1.087,1.421c-0.056,0.025-0.225,0.037-0.507,0.037
			c-0.27,0-0.448-0.012-0.532-0.037c-0.113-0.037-0.483-0.491-1.108-1.366c-0.609-0.85-0.949-1.368-1.021-1.553
			c-0.099-0.254-0.149-0.648-0.149-1.18c0-0.165,0.004-0.413,0.012-0.743c0.008-0.33,0.012-0.578,0.012-0.745
			c0-0.089,0.045-0.132,0.134-0.132c0.132,0,0.332,0.006,0.596,0.019c0.264,0.012,0.464,0.019,0.596,0.019
			c0.072,0,0.109,0.039,0.109,0.12c0,0.13-0.008,0.32-0.025,0.571C54.008,33.105,54,33.295,54,33.425
			c0,0.371,0.021,0.71,0.062,1.015c0.021,0.153,0.225,0.528,0.611,1.124c0.388,0.596,0.627,0.893,0.72,0.893
			c0.089,0,0.309-0.291,0.662-0.875c0.347-0.573,0.532-0.932,0.557-1.081c0.033-0.202,0.049-0.551,0.049-1.044
			c0-0.132-0.012-0.332-0.037-0.6c-0.025-0.266-0.037-0.466-0.037-0.598c0-0.062,0.031-0.091,0.091-0.091
			c0.132,0,0.326-0.008,0.582-0.023c0.258-0.014,0.45-0.021,0.578-0.021C57.96,32.126,58.022,32.697,58.022,33.84z"/>
		<path style="fill-rule:evenodd;clip-rule:evenodd;fill:#E5F5F6;" d="M63.955,34.597c0,0.297-0.128,0.497-0.386,0.598
			c-0.175,0.064-1.423,0.184-3.748,0.359c0.052,0.355,0.248,0.656,0.588,0.906c0.324,0.237,0.67,0.357,1.042,0.357
			c0.639,0,1.225-0.204,1.758-0.611c0.066-0.054,0.13-0.105,0.194-0.157c0.033,0,0.054,0.004,0.064,0.012
			c0.01,0.008,0.087,0.146,0.227,0.417c0.142,0.272,0.212,0.417,0.212,0.437c0,0.025-0.033,0.07-0.097,0.138
			c-0.592,0.625-1.351,0.939-2.279,0.939c-0.934,0-1.679-0.278-2.236-0.838c-0.555-0.557-0.833-1.302-0.833-2.232
			c0-0.831,0.266-1.553,0.796-2.17c0.561-0.642,1.246-0.961,2.061-0.961c0.757,0,1.388,0.279,1.896,0.833
			C63.707,33.165,63.955,33.823,63.955,34.597L63.955,34.597z M62.519,34.23c0-0.334-0.132-0.631-0.396-0.889
			c-0.264-0.258-0.561-0.386-0.893-0.386c-0.371,0-0.699,0.149-0.988,0.446c-0.289,0.297-0.433,0.631-0.433,1.001
			c0,0.085,0.072,0.126,0.217,0.126c0.598,0,1.312-0.06,2.143-0.177C62.401,34.316,62.519,34.277,62.519,34.23z"/>
		<path style="fill-rule:evenodd;clip-rule:evenodd;fill:#E5F5F6;" d="M68.032,32.167c0,0.444-0.031,0.848-0.091,1.211
			c-0.012,0.093-0.054,0.138-0.122,0.138c-0.085,0-0.212-0.008-0.384-0.027c-0.173-0.019-0.303-0.027-0.392-0.027
			c-0.51,0-0.835,0.142-0.976,0.429c-0.085,0.173-0.128,0.534-0.128,1.081v0.666c0,0.225,0.008,0.567,0.025,1.027
			c0.016,0.458,0.025,0.8,0.025,1.027c0,0.107-0.045,0.163-0.138,0.163c-0.124,0-0.312-0.002-0.563-0.006
			c-0.252-0.004-0.441-0.006-0.565-0.006c-0.091,0-0.138-0.05-0.138-0.151c0-0.326,0.006-0.819,0.016-1.475
			c0.01-0.656,0.014-1.151,0.014-1.481c0-0.994-0.091-1.795-0.272-2.399c-0.008-0.033-0.012-0.056-0.012-0.072
			c0-0.05,0.027-0.083,0.078-0.103c0.146-0.017,0.355-0.041,0.623-0.074c0.431-0.083,0.631-0.124,0.598-0.124
			c0.064,0,0.107,0.12,0.126,0.359c0.021,0.241,0.058,0.361,0.109,0.361c0.008,0,0.019-0.004,0.031-0.012
			c0.165-0.105,0.33-0.21,0.497-0.318c0.181-0.109,0.367-0.19,0.559-0.243c0.157-0.047,0.359-0.072,0.606-0.072
			C67.876,32.039,68.032,32.082,68.032,32.167z"/>
		<path style="fill-rule:evenodd;clip-rule:evenodd;fill:#E5F5F6;" d="M71.293,35.979c0,0.6-0.239,1.081-0.72,1.444
			c-0.437,0.33-0.967,0.495-1.595,0.495c-0.241,0-0.38-0.006-0.413-0.019c-0.068-0.031-0.103-0.13-0.103-0.295
			c0-0.089-0.01-0.221-0.033-0.398c-0.023-0.177-0.033-0.307-0.033-0.392c0-0.052,0.037-0.087,0.109-0.103
			c0.052-0.012,0.126-0.012,0.223,0c0.126,0.012,0.186,0.019,0.182,0.019c0.763,0,1.145-0.235,1.145-0.703
			c0-0.221-0.167-0.423-0.499-0.609c-0.54-0.299-0.852-0.481-0.932-0.551c-0.332-0.285-0.499-0.66-0.499-1.122
			c0-0.604,0.229-1.075,0.685-1.413c0.413-0.303,0.932-0.454,1.564-0.454c0.056,0,0.097,0.027,0.124,0.078
			c0.027,0.054,0.076,0.217,0.153,0.491c0.074,0.274,0.111,0.439,0.111,0.497c0,0.043-0.039,0.072-0.116,0.085
			c-0.258,0.035-0.518,0.07-0.78,0.101c-0.312,0.085-0.466,0.254-0.466,0.505c0,0.182,0.163,0.365,0.487,0.551
			c0.481,0.268,0.786,0.464,0.914,0.586C71.128,35.086,71.293,35.488,71.293,35.979z"/>
		<path style="fill-rule:evenodd;clip-rule:evenodd;fill:#E5F5F6;" d="M73.512,30.616c0,0.495-0.276,0.743-0.829,0.743
			c-0.561,0-0.842-0.248-0.842-0.743c0-0.221,0.087-0.404,0.26-0.549c0.161-0.138,0.355-0.206,0.582-0.206
			c0.225,0,0.421,0.07,0.584,0.21C73.43,30.213,73.512,30.395,73.512,30.616L73.512,30.616z M73.463,32.253
			c0,0.309-0.019,0.778-0.056,1.405c-0.037,0.627-0.056,1.097-0.056,1.411c0,0.295,0.006,0.734,0.019,1.32
			c0.012,0.586,0.019,1.025,0.019,1.314c0,0.085-0.037,0.128-0.109,0.128h-1.18c-0.085,0-0.128-0.083-0.128-0.248
			c0-0.278,0.008-0.697,0.023-1.254c0.014-0.559,0.021-0.978,0.021-1.26c0-0.314-0.023-0.786-0.068-1.415
			c-0.045-0.627-0.068-1.1-0.068-1.413c0-0.068,0.041-0.103,0.126-0.103c0.072,0,0.184,0.01,0.334,0.031
			c0.151,0.019,0.264,0.029,0.34,0.029c0.076,0,0.19-0.01,0.34-0.029c0.151-0.021,0.264-0.031,0.34-0.031
			C73.428,32.138,73.463,32.177,73.463,32.253z"/>
		<path style="fill-rule:evenodd;clip-rule:evenodd;fill:#E5F5F6;" d="M77.803,36.738c0,0.089-0.008,0.208-0.025,0.361
			c-0.019,0.188-0.031,0.309-0.035,0.365c-0.004,0.072-0.01,0.116-0.019,0.132c-0.016,0.029-0.054,0.056-0.113,0.085
			c-0.33,0.159-0.848,0.237-1.555,0.237c-0.934,0-1.405-0.427-1.409-1.281c0-0.342,0.006-0.856,0.019-1.543
			c0.012-0.687,0.019-1.203,0.019-1.545c0-0.165-0.083-0.254-0.248-0.266c-0.151,0-0.297-0.002-0.441-0.006
			c-0.085-0.021-0.128-0.186-0.128-0.497c0-0.116,0.008-0.239,0.025-0.369c0.012-0.097,0.076-0.155,0.194-0.175
			c0.099,0,0.198-0.002,0.295-0.006c0.186-0.008,0.278-0.091,0.278-0.248c0-0.161-0.004-0.406-0.012-0.739
			c-0.008-0.33-0.012-0.578-0.012-0.743c0-0.295,0.056-0.441,0.169-0.441c0.035,0,0.413,0.062,1.128,0.186
			c0.093,0.012,0.138,0.056,0.138,0.132c0,0.179-0.014,0.446-0.043,0.8c-0.029,0.355-0.043,0.621-0.043,0.798
			c0,0.118,0.056,0.175,0.165,0.175h1.459c0.068,0,0.103,0.025,0.103,0.072c0,0.047-0.008,0.126-0.023,0.233
			c-0.014,0.105-0.021,0.186-0.021,0.237c0,0.06,0.002,0.153,0.006,0.278c0.004,0.124,0.006,0.217,0.006,0.276
			c0,0.076-0.056,0.116-0.169,0.116c-0.163,0-0.406-0.01-0.734-0.031c-0.326-0.021-0.569-0.031-0.732-0.031
			c-0.031,0-0.056,0.116-0.072,0.345c-0.008,0.287-0.012,0.687-0.012,1.205v0.901c0,0.347,0.033,0.588,0.097,0.724
			c0.095,0.21,0.293,0.316,0.594,0.316c0.124,0,0.305-0.027,0.547-0.08c0.239-0.054,0.419-0.08,0.534-0.08
			C77.778,36.631,77.803,36.666,77.803,36.738z"/>
		<path style="fill-rule:evenodd;clip-rule:evenodd;fill:#E5F5F6;" d="M83.524,33.64c0,0.683-0.021,1.093-0.062,1.236
			c-0.052,0.179-0.551,0.972-1.498,2.37c-0.947,1.401-1.508,2.183-1.685,2.35c-0.161,0.144-0.681,0.217-1.562,0.217
			c-0.105,0-0.171-0.01-0.202-0.033c-0.029-0.023-0.097-0.169-0.204-0.439c-0.105-0.27-0.159-0.431-0.159-0.483
			c0-0.091,0.107-0.134,0.322-0.134c0.452,0,0.784-0.064,0.998-0.192c0.072-0.045,0.184-0.184,0.33-0.417
			c0.146-0.231,0.221-0.388,0.221-0.468c0-0.109-0.291-0.534-0.875-1.277c-0.617-0.786-0.961-1.285-1.033-1.494
			c-0.058-0.167-0.087-0.561-0.087-1.186c0-0.155,0.002-0.386,0.006-0.693c0.004-0.309,0.006-0.543,0.006-0.699
			c0-0.089,0.047-0.132,0.144-0.132c0.13,0,0.32,0.006,0.573,0.023c0.252,0.017,0.441,0.025,0.571,0.025
			c0.064,0,0.097,0.043,0.097,0.128c0,0.111-0.006,0.281-0.019,0.507c-0.012,0.225-0.019,0.396-0.019,0.507
			c0,0.493,0.016,0.86,0.047,1.102c0.025,0.155,0.243,0.536,0.658,1.149c0.415,0.611,0.67,0.916,0.767,0.916
			c0.068,0,0.287-0.299,0.652-0.901c0.367-0.6,0.563-0.974,0.588-1.114c0.031-0.202,0.047-0.569,0.047-1.102
			c0-0.118-0.012-0.289-0.037-0.518c-0.025-0.227-0.037-0.398-0.037-0.512c0-0.101,0.033-0.151,0.097-0.151
			c0.13,0,0.324-0.008,0.584-0.027c0.262-0.019,0.456-0.027,0.586-0.027C83.465,32.171,83.524,32.66,83.524,33.64z"/>
		<path style="fill-rule:evenodd;clip-rule:evenodd;fill:#E5F5F6;" d="M92.485,34.898c0,0.842-0.276,1.562-0.827,2.158
			c-0.565,0.617-1.263,0.924-2.096,0.924c-0.84,0-1.539-0.305-2.104-0.918c-0.551-0.592-0.827-1.31-0.827-2.152
			c0-0.842,0.276-1.56,0.827-2.152c0.569-0.604,1.269-0.906,2.104-0.906c0.829,0,1.524,0.301,2.09,0.906
			C92.207,33.347,92.485,34.061,92.485,34.898L92.485,34.898z M91.21,34.911c0-0.491-0.151-0.91-0.454-1.256
			c-0.314-0.367-0.712-0.551-1.194-0.551c-0.485,0-0.885,0.182-1.203,0.545c-0.303,0.351-0.454,0.772-0.454,1.263
			c0,0.483,0.153,0.904,0.46,1.256c0.322,0.375,0.72,0.563,1.197,0.563c0.479,0,0.877-0.188,1.194-0.563
			C91.06,35.814,91.21,35.393,91.21,34.911z"/>
		<path style="fill-rule:evenodd;clip-rule:evenodd;fill:#E5F5F6;" d="M96.231,30.098c0,0.047-0.037,0.076-0.109,0.085
			c-0.198,0.021-0.394,0.039-0.588,0.054c-0.231,0.033-0.406,0.113-0.528,0.241c-0.198,0.215-0.297,0.755-0.297,1.624
			c0.134,0,0.342,0.004,0.629,0.012c0.287,0.008,0.503,0.012,0.65,0.012c0.097,0,0.144,0.035,0.144,0.109
			c0,0.113,0.004,0.281,0.012,0.505c0.008,0.225,0.012,0.392,0.012,0.501c0,0.076-0.041,0.116-0.122,0.116
			c-0.14,0-0.355-0.008-0.642-0.023c-0.287-0.014-0.497-0.021-0.635-0.021v1.805c0,0.283,0.01,0.71,0.031,1.281
			c0.019,0.571,0.029,0.998,0.029,1.281c0,0.109-0.039,0.163-0.12,0.163H93.59c-0.105,0-0.157-0.062-0.157-0.188v-4.155
			c0-0.109-0.122-0.161-0.367-0.157c-0.264,0.004-0.404-0.006-0.419-0.031c-0.012-0.012-0.019-0.087-0.019-0.225
			c0-0.089-0.004-0.221-0.012-0.396c-0.008-0.177-0.012-0.309-0.012-0.398c0-0.085,0.256-0.142,0.767-0.169
			c-0.012-0.258-0.019-0.466-0.019-0.627c0-0.712,0.128-1.234,0.382-1.564c0.225-0.297,0.555-0.53,0.99-0.699
			c0.392-0.153,0.796-0.229,1.215-0.229c0.041,0,0.07,0.023,0.085,0.066c0.004,0.008,0.039,0.177,0.107,0.51
			C96.198,29.914,96.231,30.085,96.231,30.098z"/>
		<path style="fill-rule:evenodd;clip-rule:evenodd;fill:#E5F5F6;" d="M104.288,29.978c-0.08,0.134-0.192,0.336-0.332,0.607
			c-0.045,0.126-0.124,0.303-0.235,0.534c-0.025,0.035-0.058,0.054-0.097,0.054c0.004,0-0.19-0.072-0.584-0.217
			c-0.392-0.144-0.716-0.217-0.97-0.217c-0.741,0-1.112,0.326-1.112,0.978c0,0.361,0.26,0.679,0.78,0.949
			c0.873,0.454,1.355,0.716,1.448,0.786c0.52,0.415,0.78,0.974,0.78,1.679c0,0.904-0.357,1.615-1.071,2.135
			c-0.642,0.468-1.432,0.701-2.368,0.701c-0.435,0-0.668-0.047-0.701-0.144c-0.016-0.155-0.052-0.378-0.109-0.673
			c-0.031-0.12-0.083-0.301-0.151-0.543c-0.012-0.037-0.019-0.07-0.019-0.103c0-0.056,0.031-0.085,0.091-0.085
			c0.097,0,0.245,0.01,0.446,0.031c0.202,0.021,0.353,0.031,0.454,0.031c1.254,0,1.881-0.404,1.881-1.211
			c0-0.396-0.252-0.738-0.757-1.027c-0.922-0.524-1.392-0.796-1.413-0.817c-0.51-0.411-0.763-0.963-0.763-1.657
			c0-0.751,0.245-1.351,0.738-1.803c0.479-0.435,1.1-0.652,1.863-0.652c0.322,0,0.693,0.054,1.112,0.159
			c0.456,0.118,0.798,0.258,1.029,0.425C104.247,29.916,104.267,29.941,104.288,29.978z"/>
		<path style="fill-rule:evenodd;clip-rule:evenodd;fill:#E5F5F6;" d="M111.025,34.935c0,0.815-0.258,1.52-0.774,2.121
			c-0.54,0.633-1.211,0.949-2.013,0.949c-0.499,0-0.937-0.155-1.31-0.464c-0.169-0.157-0.338-0.316-0.51-0.477
			c-0.023,0.012-0.039,0.043-0.047,0.097c-0.004,0.025-0.006,0.25-0.006,0.677l-0.006,1.706c0,0.13-0.045,0.194-0.138,0.194
			c-0.619,0-0.984-0.008-1.095-0.025c-0.093-0.012-0.14-0.064-0.14-0.157c0-0.516,0.004-1.289,0.012-2.323
			c0.008-1.031,0.012-1.805,0.012-2.321c0-0.949-0.062-1.838-0.186-2.667c-0.008-0.05-0.012-0.08-0.012-0.097
			c0-0.043,0.021-0.072,0.06-0.085c0.155-0.008,0.377-0.031,0.672-0.066c0.394-0.072,0.617-0.107,0.664-0.107
			c0.07,0,0.113,0.122,0.134,0.365c0.012,0.163,0.023,0.322,0.029,0.481c0,0.033,0.012,0.066,0.037,0.097
			c0.029-0.014,0.06-0.043,0.097-0.085c0.563-0.58,1.135-0.871,1.71-0.871c0.798,0,1.471,0.312,2.018,0.937
			C110.761,33.415,111.025,34.123,111.025,34.935L111.025,34.935z M109.614,34.915c0-0.485-0.151-0.908-0.454-1.275
			c-0.318-0.39-0.716-0.586-1.192-0.586c-0.466,0-0.85,0.202-1.149,0.604c-0.274,0.361-0.411,0.784-0.411,1.267
			c0,0.493,0.14,0.918,0.423,1.281c0.311,0.39,0.706,0.586,1.186,0.586c0.46,0,0.846-0.204,1.161-0.611
			C109.47,35.804,109.614,35.381,109.614,34.915z"/>
		<path style="fill-rule:evenodd;clip-rule:evenodd;fill:#E5F5F6;" d="M116.848,34.597c0,0.297-0.128,0.497-0.386,0.598
			c-0.175,0.064-1.423,0.184-3.748,0.359c0.052,0.355,0.248,0.656,0.588,0.906c0.324,0.237,0.67,0.357,1.042,0.357
			c0.64,0,1.225-0.204,1.758-0.611c0.066-0.054,0.13-0.105,0.194-0.157c0.033,0,0.054,0.004,0.064,0.012
			c0.01,0.008,0.087,0.146,0.227,0.417c0.142,0.272,0.212,0.417,0.212,0.437c0,0.025-0.033,0.07-0.097,0.138
			c-0.592,0.625-1.351,0.939-2.28,0.939c-0.934,0-1.679-0.278-2.236-0.838c-0.555-0.557-0.833-1.302-0.833-2.232
			c0-0.831,0.266-1.553,0.796-2.17c0.561-0.642,1.246-0.961,2.061-0.961c0.757,0,1.388,0.279,1.896,0.833
			C116.6,33.165,116.848,33.823,116.848,34.597L116.848,34.597z M115.412,34.23c0-0.334-0.132-0.631-0.396-0.889
			c-0.264-0.258-0.561-0.386-0.893-0.386c-0.371,0-0.699,0.149-0.988,0.446c-0.289,0.297-0.433,0.631-0.433,1.001
			c0,0.085,0.072,0.126,0.217,0.126c0.598,0,1.312-0.06,2.143-0.177C115.295,34.316,115.412,34.277,115.412,34.23z"/>
		<path style="fill-rule:evenodd;clip-rule:evenodd;fill:#E5F5F6;" d="M121.693,32.361c0,0.089-0.045,0.287-0.138,0.592
			c-0.093,0.307-0.159,0.46-0.194,0.46c-0.182-0.08-0.365-0.159-0.549-0.239c-0.184-0.08-0.384-0.12-0.6-0.12
			c-0.497,0-0.91,0.184-1.242,0.549c-0.33,0.367-0.495,0.8-0.495,1.298c0,0.491,0.165,0.916,0.495,1.275
			c0.338,0.369,0.753,0.555,1.24,0.555c0.27,0,0.536-0.066,0.798-0.198c0.262-0.132,0.377-0.198,0.344-0.198
			c0.052,0,0.111,0.169,0.175,0.507c0.06,0.305,0.091,0.516,0.091,0.633c0,0.124-0.235,0.246-0.708,0.367
			c-0.396,0.101-0.687,0.151-0.877,0.151c-0.831,0-1.533-0.309-2.104-0.93c-0.561-0.604-0.842-1.326-0.842-2.164
			c0-0.854,0.274-1.58,0.823-2.176c0.565-0.613,1.269-0.918,2.11-0.918c0.565,0,1.083,0.142,1.549,0.429
			C121.652,32.282,121.693,32.324,121.693,32.361z"/>
		<path style="fill-rule:evenodd;clip-rule:evenodd;fill:#E5F5F6;" d="M123.788,30.616c0,0.495-0.276,0.743-0.829,0.743
			c-0.561,0-0.842-0.248-0.842-0.743c0-0.221,0.087-0.404,0.26-0.549c0.161-0.138,0.355-0.206,0.582-0.206
			c0.225,0,0.421,0.07,0.584,0.21C123.706,30.213,123.788,30.395,123.788,30.616L123.788,30.616z M123.739,32.253
			c0,0.309-0.019,0.778-0.056,1.405c-0.037,0.627-0.056,1.097-0.056,1.411c0,0.295,0.006,0.734,0.019,1.32
			c0.012,0.586,0.019,1.025,0.019,1.314c0,0.085-0.037,0.128-0.109,0.128h-1.18c-0.085,0-0.128-0.083-0.128-0.248
			c0-0.278,0.008-0.697,0.023-1.254c0.014-0.559,0.021-0.978,0.021-1.26c0-0.314-0.023-0.786-0.068-1.415
			c-0.045-0.627-0.068-1.1-0.068-1.413c0-0.068,0.041-0.103,0.126-0.103c0.072,0,0.184,0.01,0.334,0.031
			c0.151,0.019,0.264,0.029,0.34,0.029c0.076,0,0.19-0.01,0.34-0.029c0.151-0.021,0.264-0.031,0.34-0.031
			C123.704,32.138,123.739,32.177,123.739,32.253z"/>
		<path style="fill-rule:evenodd;clip-rule:evenodd;fill:#E5F5F6;" d="M130.591,32.373c0,0.016-0.006,0.052-0.019,0.109
			c-0.161,0.922-0.241,1.716-0.241,2.385c0,0.041,0.052,0.945,0.155,2.713l0.006,0.085c0.004,0.118-0.05,0.175-0.161,0.175
			c-0.111,0-0.278,0.012-0.503,0.039c-0.223,0.027-0.39,0.039-0.499,0.039c-0.076,0-0.134-0.14-0.175-0.421
			c-0.041-0.281-0.078-0.421-0.116-0.421c-0.025,0-0.132,0.078-0.326,0.235c-0.237,0.192-0.46,0.338-0.664,0.439
			c-0.32,0.161-0.637,0.241-0.955,0.241c-0.782,0-1.442-0.311-1.978-0.937c-0.507-0.596-0.761-1.291-0.761-2.086
			c0-0.893,0.256-1.634,0.767-2.218c0.536-0.609,1.242-0.912,2.117-0.912c0.617,0,1.155,0.215,1.613,0.642
			c0.068,0.08,0.175,0.198,0.322,0.351c0.01,0.012,0.023,0.019,0.035,0.019c0.025,0,0.06-0.126,0.103-0.382
			c0.045-0.254,0.101-0.382,0.171-0.382c0.109,0,0.314,0.031,0.613,0.091C130.426,32.251,130.591,32.317,130.591,32.373
			L130.591,32.373z M129.044,34.9c0-0.495-0.146-0.918-0.441-1.273c-0.309-0.382-0.706-0.573-1.19-0.573
			c-0.483,0-0.885,0.19-1.209,0.567c-0.309,0.363-0.464,0.788-0.464,1.279c0,0.487,0.155,0.91,0.464,1.269
			c0.324,0.373,0.726,0.561,1.209,0.561c0.472,0,0.866-0.192,1.184-0.573C128.896,35.798,129.044,35.381,129.044,34.9z"/>
		<path style="fill-rule:evenodd;clip-rule:evenodd;fill:#E5F5F6;" d="M132.864,29.462l-0.006,0.078
			c-0.087,1.498-0.13,2.785-0.13,3.862c0,0.479,0.008,1.196,0.025,2.154c0.016,0.957,0.023,1.673,0.023,2.15
			c0,0.093-0.031,0.138-0.095,0.138h-1.155c-0.072,0-0.109-0.045-0.109-0.138c0-0.477,0.004-1.192,0.012-2.15
			c0.008-0.957,0.012-1.675,0.012-2.154c0-0.435-0.021-1.089-0.062-1.962c-0.041-0.873-0.062-1.522-0.062-1.954
			c0-0.08,0.041-0.122,0.126-0.122c0.072,0,0.182,0.006,0.326,0.019c0.144,0.012,0.252,0.019,0.326,0.019
			c0.074,0,0.188-0.006,0.336-0.019c0.149-0.012,0.258-0.019,0.33-0.019C132.833,29.365,132.868,29.398,132.864,29.462z"/>
		<path style="fill-rule:evenodd;clip-rule:evenodd;fill:#E5F5F6;" d="M145.268,37.693c0,0.101-0.05,0.151-0.151,0.151
			c-0.072,0-0.182-0.006-0.328-0.019c-0.146-0.012-0.256-0.019-0.328-0.019s-0.184,0.006-0.332,0.019
			c-0.149,0.012-0.258,0.019-0.33,0.019c-0.101,0-0.151-0.066-0.151-0.2c0-0.512,0.014-1.279,0.047-2.302
			c0.033-1.023,0.047-1.791,0.047-2.304c0-0.076-0.014-0.113-0.047-0.113c-0.037,0-0.064,0.023-0.085,0.066
			c-0.206,0.439-0.691,1.615-1.456,3.523c-0.124,0.367-0.303,0.825-0.536,1.374c-0.029,0.045-0.175,0.068-0.437,0.068
			c-0.382,0-0.592-0.035-0.633-0.103c-0.136-0.326-0.332-0.784-0.588-1.372c-0.334-0.796-0.85-1.985-1.545-3.563
			c-0.012-0.029-0.037-0.056-0.078-0.085c-0.033,0.025-0.047,0.068-0.047,0.132c0,0.52,0.008,1.3,0.027,2.339
			c0.019,1.04,0.027,1.819,0.027,2.339c0,0.132-0.049,0.2-0.151,0.2c-0.07,0-0.173-0.006-0.316-0.019
			c-0.14-0.012-0.245-0.019-0.314-0.019c-0.072,0-0.182,0.006-0.324,0.019c-0.142,0.012-0.252,0.019-0.324,0.019
			c-0.101,0-0.151-0.039-0.151-0.116c0-0.448,0.021-1.118,0.062-2.009c0.041-0.893,0.062-1.564,0.062-2.009
			c0-0.464-0.021-1.159-0.062-2.09c-0.041-0.928-0.062-1.624-0.062-2.088c0-0.076,0.045-0.12,0.138-0.132
			c0.547-0.072,0.959-0.109,1.236-0.109c0.041,0,0.097,0.083,0.171,0.248c0.978,2.143,1.817,4.058,2.521,5.741
			c0.165,0.396,0.264,0.592,0.297,0.592c0.041,0,0.128-0.161,0.26-0.483c0.551-1.304,1.314-3.239,2.288-5.807
			c0.064-0.161,0.132-0.241,0.206-0.241c0.136,0,0.34,0.008,0.613,0.025c0.272,0.017,0.477,0.023,0.613,0.023
			c0.099,0,0.149,0.05,0.149,0.146c0,0.462-0.014,1.159-0.043,2.088c-0.029,0.928-0.043,1.626-0.043,2.088
			c0,0.444,0.017,1.108,0.05,1.995C145.251,36.592,145.268,37.254,145.268,37.693z"/>
		<path style="fill-rule:evenodd;clip-rule:evenodd;fill:#E5F5F6;" d="M151.772,34.898c0,0.842-0.276,1.562-0.827,2.158
			c-0.565,0.617-1.263,0.924-2.096,0.924c-0.84,0-1.539-0.305-2.104-0.918c-0.551-0.592-0.827-1.31-0.827-2.152
			c0-0.842,0.276-1.56,0.827-2.152c0.569-0.604,1.269-0.906,2.104-0.906c0.829,0,1.524,0.301,2.09,0.906
			C151.493,33.347,151.772,34.061,151.772,34.898L151.772,34.898z M150.497,34.911c0-0.491-0.151-0.91-0.454-1.256
			c-0.314-0.367-0.712-0.551-1.194-0.551c-0.485,0-0.885,0.182-1.203,0.545c-0.303,0.351-0.454,0.772-0.454,1.263
			c0,0.483,0.153,0.904,0.46,1.256c0.322,0.375,0.72,0.563,1.197,0.563c0.479,0,0.877-0.188,1.194-0.563
			C150.346,35.814,150.497,35.393,150.497,34.911z"/>
		<path style="fill-rule:evenodd;clip-rule:evenodd;fill:#E5F5F6;" d="M158.203,29.417c0,0.52-0.023,1.3-0.068,2.335
			c-0.045,1.038-0.068,1.813-0.068,2.329c0,1.59,0.035,2.795,0.105,3.612l0.006,0.078c0.004,0.041-0.052,0.066-0.163,0.078
			c-0.078,0.008-0.188,0.008-0.328,0c-0.171-0.012-0.25-0.019-0.237-0.019c-0.06,0-0.151,0.006-0.268,0.019
			c-0.116,0.012-0.206,0.019-0.266,0.019c-0.058,0-0.091-0.142-0.101-0.425c-0.01-0.283-0.027-0.425-0.047-0.429
			c-0.025,0.012-0.054,0.039-0.091,0.078c-0.551,0.6-1.186,0.899-1.902,0.899c-0.813,0-1.481-0.309-2.005-0.93
			c-0.495-0.584-0.743-1.289-0.743-2.114c0-0.858,0.25-1.58,0.749-2.164c0.524-0.613,1.207-0.918,2.051-0.918
			c0.507,0,0.951,0.149,1.329,0.448c0.173,0.151,0.347,0.301,0.516,0.456c0.031-0.012,0.047-0.041,0.047-0.085v-1.96
			c0-0.132-0.006-0.334-0.019-0.604c-0.012-0.27-0.019-0.472-0.019-0.611c0-0.097,0.033-0.144,0.097-0.144
			c0.149,0,0.371-0.012,0.664-0.037c0.295-0.025,0.514-0.037,0.658-0.037C158.168,29.291,158.203,29.332,158.203,29.417
			L158.203,29.417z M156.693,34.913c0-0.483-0.149-0.908-0.448-1.273c-0.318-0.39-0.712-0.586-1.184-0.586
			c-0.495,0-0.904,0.194-1.225,0.58c-0.307,0.363-0.46,0.796-0.46,1.304c0,0.483,0.159,0.904,0.477,1.263
			c0.328,0.377,0.73,0.567,1.209,0.567c0.485,0,0.883-0.192,1.196-0.573C156.549,35.835,156.693,35.408,156.693,34.913z"/>
		<path style="fill-rule:evenodd;clip-rule:evenodd;fill:#E5F5F6;" d="M164.164,34.597c0,0.297-0.128,0.497-0.386,0.598
			c-0.175,0.064-1.423,0.184-3.748,0.359c0.052,0.355,0.248,0.656,0.588,0.906c0.324,0.237,0.67,0.357,1.042,0.357
			c0.64,0,1.225-0.204,1.758-0.611c0.066-0.054,0.13-0.105,0.194-0.157c0.033,0,0.054,0.004,0.064,0.012
			c0.01,0.008,0.087,0.146,0.227,0.417c0.142,0.272,0.212,0.417,0.212,0.437c0,0.025-0.033,0.07-0.097,0.138
			c-0.592,0.625-1.351,0.939-2.279,0.939c-0.934,0-1.679-0.278-2.236-0.838c-0.555-0.557-0.833-1.302-0.833-2.232
			c0-0.831,0.266-1.553,0.796-2.17c0.561-0.642,1.246-0.961,2.061-0.961c0.757,0,1.388,0.279,1.896,0.833
			C163.917,33.165,164.164,33.823,164.164,34.597L164.164,34.597z M162.728,34.23c0-0.334-0.132-0.631-0.396-0.889
			c-0.264-0.258-0.561-0.386-0.893-0.386c-0.371,0-0.699,0.149-0.988,0.446c-0.289,0.297-0.433,0.631-0.433,1.001
			c0,0.085,0.072,0.126,0.217,0.126c0.598,0,1.312-0.06,2.143-0.177C162.611,34.316,162.728,34.277,162.728,34.23z"/>
		<path style="fill-rule:evenodd;clip-rule:evenodd;fill:#E5F5F6;" d="M168.242,32.167c0,0.444-0.031,0.848-0.091,1.211
			c-0.012,0.093-0.054,0.138-0.122,0.138c-0.085,0-0.212-0.008-0.384-0.027c-0.173-0.019-0.303-0.027-0.392-0.027
			c-0.51,0-0.836,0.142-0.976,0.429c-0.085,0.173-0.128,0.534-0.128,1.081v0.666c0,0.225,0.008,0.567,0.025,1.027
			c0.016,0.458,0.025,0.8,0.025,1.027c0,0.107-0.045,0.163-0.138,0.163c-0.124,0-0.312-0.002-0.563-0.006
			c-0.252-0.004-0.441-0.006-0.565-0.006c-0.091,0-0.138-0.05-0.138-0.151c0-0.326,0.006-0.819,0.016-1.475
			c0.01-0.656,0.014-1.151,0.014-1.481c0-0.994-0.091-1.795-0.272-2.399c-0.008-0.033-0.012-0.056-0.012-0.072
			c0-0.05,0.027-0.083,0.078-0.103c0.146-0.017,0.355-0.041,0.623-0.074c0.431-0.083,0.631-0.124,0.598-0.124
			c0.064,0,0.107,0.12,0.126,0.359c0.021,0.241,0.058,0.361,0.109,0.361c0.008,0,0.019-0.004,0.031-0.012
			c0.165-0.105,0.33-0.21,0.497-0.318c0.181-0.109,0.367-0.19,0.559-0.243c0.157-0.047,0.359-0.072,0.606-0.072
			C168.085,32.039,168.242,32.082,168.242,32.167z"/>
		<path style="fill-rule:evenodd;clip-rule:evenodd;fill:#E5F5F6;" d="M174.003,37.722c0,0.089-0.041,0.134-0.122,0.134
			c-0.132,0-0.332-0.002-0.596-0.006c-0.264-0.004-0.462-0.006-0.596-0.006c-0.072,0-0.109-0.058-0.109-0.175
			c0-0.198,0.006-0.497,0.019-0.901c0.012-0.402,0.019-0.706,0.019-0.906c0-0.163-0.002-0.402-0.006-0.724
			c-0.004-0.32-0.006-0.561-0.006-0.722c0-0.46-0.066-0.784-0.198-0.974c-0.163-0.225-0.46-0.338-0.895-0.338
			c-0.2,0-0.481,0.113-0.84,0.34c-0.378,0.237-0.567,0.45-0.567,0.635v3.627c0,0.099-0.039,0.151-0.116,0.151
			c-0.128,0-0.322-0.002-0.58-0.006c-0.26-0.004-0.452-0.006-0.582-0.006c-0.085,0-0.128-0.045-0.128-0.138
			c0-0.32,0.006-0.796,0.016-1.434c0.01-0.637,0.014-1.116,0.014-1.44c0-0.858-0.089-1.65-0.266-2.374
			c-0.012-0.037-0.019-0.064-0.019-0.078c0-0.041,0.027-0.07,0.078-0.087c0.029-0.002,0.258-0.041,0.691-0.111
			c0.433-0.07,0.66-0.105,0.681-0.105c0.023,0,0.039,0.033,0.047,0.097c0.021,0.25,0.066,0.503,0.138,0.757
			c0.21-0.165,0.487-0.371,0.827-0.617c0.423-0.258,0.833-0.386,1.227-0.386c0.757,0,1.275,0.219,1.551,0.658
			c0.206,0.324,0.309,0.844,0.309,1.566c0,0.126-0.004,0.316-0.01,0.573c-0.006,0.258-0.008,0.452-0.008,0.582
			c0,0.268,0.004,0.673,0.012,1.207C173.999,37.05,174.003,37.454,174.003,37.722z"/>
		<path style="fill-rule:evenodd;clip-rule:evenodd;fill:#E5F5F6;" d="M183.471,30.508c0,0.105-0.037,0.157-0.109,0.157
			c-0.113,0-0.827-0.025-2.143-0.074c-0.033,1.229-0.05,2.213-0.05,2.956c0,0.462,0.016,1.157,0.05,2.086
			c0.033,0.926,0.05,1.621,0.05,2.084c0,0.085-0.058,0.128-0.175,0.128c-0.072,0-0.182-0.006-0.332-0.019
			c-0.149-0.012-0.26-0.019-0.336-0.019c-0.072,0-0.184,0.006-0.332,0.019c-0.149,0.012-0.26,0.019-0.332,0.019
			c-0.101,0-0.151-0.05-0.151-0.151c0-0.46,0.019-1.149,0.056-2.071c0.037-0.92,0.056-1.613,0.056-2.075
			c0-0.718-0.021-1.704-0.062-2.956c-1.042,0.066-1.807,0.099-2.292,0.099c-0.047,0-0.072-0.021-0.072-0.06
			c0-0.074,0.019-0.177,0.056-0.316c0.045-0.177,0.072-0.283,0.08-0.314c0.008-0.142,0.037-0.338,0.087-0.588
			c0.021-0.052,0.054-0.078,0.103-0.078l0.072,0.006c1.425,0.083,2.366,0.124,2.822,0.124c0.402,0,1.062-0.029,1.976-0.089
			c0.625-0.039,0.885-0.06,0.78-0.06c0.105,0,0.163,0.037,0.175,0.109c-0.008-0.043-0.012,0.151-0.012,0.586
			c0,0.054,0.006,0.134,0.019,0.245C183.465,30.368,183.471,30.451,183.471,30.508z"/>
		<path style="fill-rule:evenodd;clip-rule:evenodd;fill:#E5F5F6;" d="M189.074,34.597c0,0.297-0.128,0.497-0.386,0.598
			c-0.175,0.064-1.423,0.184-3.748,0.359c0.052,0.355,0.248,0.656,0.588,0.906c0.324,0.237,0.67,0.357,1.042,0.357
			c0.64,0,1.225-0.204,1.758-0.611c0.066-0.054,0.13-0.105,0.194-0.157c0.033,0,0.054,0.004,0.064,0.012
			c0.01,0.008,0.087,0.146,0.227,0.417c0.142,0.272,0.212,0.417,0.212,0.437c0,0.025-0.033,0.07-0.097,0.138
			c-0.592,0.625-1.351,0.939-2.279,0.939c-0.934,0-1.679-0.278-2.236-0.838c-0.555-0.557-0.833-1.302-0.833-2.232
			c0-0.831,0.266-1.553,0.796-2.17c0.561-0.642,1.246-0.961,2.061-0.961c0.757,0,1.388,0.279,1.896,0.833
			C188.826,33.165,189.074,33.823,189.074,34.597L189.074,34.597z M187.638,34.23c0-0.334-0.132-0.631-0.396-0.889
			c-0.264-0.258-0.561-0.386-0.893-0.386c-0.371,0-0.699,0.149-0.988,0.446c-0.289,0.297-0.433,0.631-0.433,1.001
			c0,0.085,0.072,0.126,0.217,0.126c0.598,0,1.312-0.06,2.143-0.177C187.52,34.316,187.638,34.277,187.638,34.23z"/>
		<path style="fill-rule:evenodd;clip-rule:evenodd;fill:#E5F5F6;" d="M193.919,32.361c0,0.089-0.045,0.287-0.138,0.592
			c-0.093,0.307-0.159,0.46-0.194,0.46c-0.182-0.08-0.365-0.159-0.549-0.239c-0.184-0.08-0.384-0.12-0.6-0.12
			c-0.497,0-0.91,0.184-1.242,0.549c-0.33,0.367-0.495,0.8-0.495,1.298c0,0.491,0.165,0.916,0.495,1.275
			c0.338,0.369,0.753,0.555,1.24,0.555c0.27,0,0.536-0.066,0.798-0.198c0.262-0.132,0.377-0.198,0.344-0.198
			c0.052,0,0.111,0.169,0.175,0.507c0.06,0.305,0.091,0.516,0.091,0.633c0,0.124-0.235,0.246-0.708,0.367
			c-0.396,0.101-0.687,0.151-0.877,0.151c-0.831,0-1.533-0.309-2.104-0.93c-0.561-0.604-0.842-1.326-0.842-2.164
			c0-0.854,0.274-1.58,0.823-2.176c0.565-0.613,1.269-0.918,2.11-0.918c0.565,0,1.083,0.142,1.549,0.429
			C193.878,32.282,193.919,32.324,193.919,32.361z"/>
		<path style="fill-rule:evenodd;clip-rule:evenodd;fill:#E5F5F6;" d="M199.715,37.632c0,0.151-0.043,0.225-0.128,0.225
			c-0.124,0-0.314-0.002-0.569-0.006c-0.254-0.004-0.444-0.006-0.567-0.006c-0.101,0-0.153-0.066-0.153-0.2
			c0-0.194,0.008-0.485,0.023-0.877c0.014-0.39,0.021-0.685,0.021-0.883c0-0.186-0.006-0.466-0.021-0.844
			c-0.014-0.375-0.023-0.66-0.023-0.848c0-0.726-0.34-1.089-1.025-1.089c-0.223,0-0.512,0.111-0.871,0.332
			c-0.382,0.237-0.573,0.456-0.573,0.654v3.592c0,0.116-0.041,0.175-0.126,0.175c-0.126,0-0.311-0.002-0.561-0.006
			c-0.25-0.004-0.435-0.006-0.561-0.006c-0.093,0-0.138-0.054-0.138-0.163v-2.919c0-0.474-0.027-1.487-0.08-3.032
			c-0.008-0.481-0.043-1.19-0.105-2.129c-0.008-0.047-0.012-0.08-0.012-0.097c0-0.068,0.025-0.109,0.072-0.126
			c0.068-0.023,0.297-0.035,0.683-0.035c0.085,0,0.212-0.014,0.382-0.045c0.169-0.029,0.293-0.043,0.369-0.043
			c0.052,0,0.078,0.039,0.078,0.116c0,0.377-0.014,0.949-0.043,1.708c-0.029,0.759-0.041,1.331-0.041,1.708
			c0,0.093,0.014,0.142,0.047,0.146c0.206-0.175,0.47-0.386,0.796-0.633c0.394-0.248,0.811-0.371,1.25-0.371
			c0.755,0,1.277,0.225,1.564,0.677c0.204,0.33,0.307,0.854,0.307,1.572c0,0.124-0.004,0.318-0.01,0.578
			c-0.006,0.26-0.008,0.452-0.008,0.576c0,0.258,0.004,0.644,0.012,1.155C199.711,36.996,199.715,37.378,199.715,37.632z"/>
		<path style="fill-rule:evenodd;clip-rule:evenodd;fill:#E5F5F6;" d="M205.971,37.722c0,0.089-0.041,0.134-0.122,0.134
			c-0.132,0-0.332-0.002-0.596-0.006c-0.264-0.004-0.462-0.006-0.596-0.006c-0.072,0-0.109-0.058-0.109-0.175
			c0-0.198,0.006-0.497,0.019-0.901c0.012-0.402,0.019-0.706,0.019-0.906c0-0.163-0.002-0.402-0.006-0.724
			c-0.004-0.32-0.006-0.561-0.006-0.722c0-0.46-0.066-0.784-0.198-0.974c-0.163-0.225-0.46-0.338-0.895-0.338
			c-0.2,0-0.481,0.113-0.84,0.34c-0.377,0.237-0.567,0.45-0.567,0.635v3.627c0,0.099-0.039,0.151-0.115,0.151
			c-0.128,0-0.322-0.002-0.58-0.006c-0.26-0.004-0.452-0.006-0.582-0.006c-0.085,0-0.128-0.045-0.128-0.138
			c0-0.32,0.006-0.796,0.016-1.434c0.01-0.637,0.014-1.116,0.014-1.44c0-0.858-0.089-1.65-0.266-2.374
			c-0.012-0.037-0.019-0.064-0.019-0.078c0-0.041,0.027-0.07,0.078-0.087c0.029-0.002,0.258-0.041,0.691-0.111
			c0.433-0.07,0.66-0.105,0.681-0.105c0.023,0,0.039,0.033,0.047,0.097c0.021,0.25,0.066,0.503,0.138,0.757
			c0.21-0.165,0.487-0.371,0.827-0.617c0.423-0.258,0.833-0.386,1.227-0.386c0.757,0,1.275,0.219,1.551,0.658
			c0.206,0.324,0.309,0.844,0.309,1.566c0,0.126-0.004,0.316-0.01,0.573c-0.006,0.258-0.008,0.452-0.008,0.582
			c0,0.268,0.004,0.673,0.012,1.207C205.967,37.05,205.971,37.454,205.971,37.722z"/>
		<path style="fill-rule:evenodd;clip-rule:evenodd;fill:#E5F5F6;" d="M212.363,34.898c0,0.842-0.276,1.562-0.827,2.158
			c-0.565,0.617-1.262,0.924-2.096,0.924c-0.84,0-1.539-0.305-2.104-0.918c-0.551-0.592-0.827-1.31-0.827-2.152
			c0-0.842,0.276-1.56,0.827-2.152c0.569-0.604,1.269-0.906,2.104-0.906c0.829,0,1.524,0.301,2.09,0.906
			C212.085,33.347,212.363,34.061,212.363,34.898L212.363,34.898z M211.089,34.911c0-0.491-0.151-0.91-0.454-1.256
			c-0.314-0.367-0.712-0.551-1.194-0.551c-0.485,0-0.885,0.182-1.203,0.545c-0.303,0.351-0.454,0.772-0.454,1.263
			c0,0.483,0.153,0.904,0.46,1.256c0.322,0.375,0.72,0.563,1.196,0.563c0.479,0,0.877-0.188,1.194-0.563
			C210.938,35.814,211.089,35.393,211.089,34.911z"/>
		<path style="fill-rule:evenodd;clip-rule:evenodd;fill:#E5F5F6;" d="M214.512,29.462l-0.006,0.078
			c-0.087,1.498-0.13,2.785-0.13,3.862c0,0.479,0.008,1.196,0.025,2.154c0.016,0.957,0.023,1.673,0.023,2.15
			c0,0.093-0.031,0.138-0.095,0.138h-1.155c-0.072,0-0.109-0.045-0.109-0.138c0-0.477,0.004-1.192,0.012-2.15
			c0.008-0.957,0.012-1.675,0.012-2.154c0-0.435-0.021-1.089-0.062-1.962c-0.041-0.873-0.062-1.522-0.062-1.954
			c0-0.08,0.041-0.122,0.126-0.122c0.072,0,0.182,0.006,0.326,0.019c0.144,0.012,0.252,0.019,0.326,0.019
			c0.074,0,0.188-0.006,0.336-0.019c0.149-0.012,0.258-0.019,0.33-0.019C214.481,29.365,214.517,29.398,214.512,29.462z"/>
		<path style="fill-rule:evenodd;clip-rule:evenodd;fill:#E5F5F6;" d="M220.956,34.898c0,0.842-0.276,1.562-0.827,2.158
			c-0.565,0.617-1.262,0.924-2.096,0.924c-0.84,0-1.539-0.305-2.104-0.918c-0.551-0.592-0.827-1.31-0.827-2.152
			c0-0.842,0.276-1.56,0.827-2.152c0.569-0.604,1.269-0.906,2.104-0.906c0.829,0,1.524,0.301,2.09,0.906
			C220.678,33.347,220.956,34.061,220.956,34.898L220.956,34.898z M219.681,34.911c0-0.491-0.151-0.91-0.454-1.256
			c-0.314-0.367-0.712-0.551-1.194-0.551c-0.485,0-0.885,0.182-1.203,0.545c-0.303,0.351-0.454,0.772-0.454,1.263
			c0,0.483,0.153,0.904,0.46,1.256c0.322,0.375,0.72,0.563,1.196,0.563c0.479,0,0.877-0.188,1.194-0.563
			C219.531,35.814,219.681,35.393,219.681,34.911z"/>
		<path style="fill-rule:evenodd;clip-rule:evenodd;fill:#E5F5F6;" d="M226.905,32.208c0,0.485-0.004,1.211-0.012,2.181
			c-0.008,0.97-0.012,1.696-0.012,2.178c0,0.959-0.206,1.667-0.617,2.123c-0.431,0.485-1.12,0.726-2.069,0.726
			c-0.914,0-1.654-0.173-2.218-0.518c-0.089-0.056-0.134-0.105-0.134-0.144c0,0.043,0.06-0.254,0.182-0.893
			c0.012-0.068,0.041-0.103,0.085-0.103c0.021,0,0.047,0.01,0.078,0.031c0.607,0.342,1.213,0.514,1.822,0.514
			c0.4,0,0.732-0.089,0.994-0.266c0.301-0.2,0.454-0.493,0.454-0.875c0-0.085-0.008-0.274-0.025-0.567
			c-0.448,0.545-1.015,0.817-1.706,0.817c-0.745,0-1.357-0.268-1.838-0.805c-0.46-0.516-0.689-1.151-0.689-1.904
			c0-0.765,0.223-1.417,0.666-1.954c0.472-0.571,1.085-0.858,1.84-0.858c0.666,0,1.197,0.256,1.588,0.765
			c0.064,0.085,0.109,0.126,0.138,0.126c0.033,0,0.047-0.037,0.047-0.109c0-0.052-0.004-0.136-0.012-0.25
			c-0.006-0.116-0.01-0.2-0.01-0.256c0-0.241,0.023-0.363,0.072-0.363c0.039,0,0.256,0.037,0.648,0.111
			c0.394,0.074,0.609,0.12,0.644,0.136C226.876,32.072,226.905,32.124,226.905,32.208L226.905,32.208z M225.457,34.702
			c0-0.45-0.124-0.833-0.369-1.147c-0.27-0.342-0.625-0.514-1.062-0.514c-0.435,0-0.788,0.173-1.058,0.52
			c-0.245,0.314-0.369,0.695-0.369,1.141c0,0.439,0.126,0.819,0.375,1.137c0.27,0.347,0.621,0.52,1.052,0.52
			c0.427,0,0.778-0.173,1.05-0.52C225.329,35.521,225.457,35.142,225.457,34.702z"/>
		<path style="fill-rule:evenodd;clip-rule:evenodd;fill:#E5F5F6;" d="M229.361,30.616c0,0.495-0.276,0.743-0.829,0.743
			c-0.561,0-0.842-0.248-0.842-0.743c0-0.221,0.087-0.404,0.26-0.549c0.161-0.138,0.355-0.206,0.582-0.206
			c0.225,0,0.421,0.07,0.584,0.21C229.279,30.213,229.361,30.395,229.361,30.616L229.361,30.616z M229.312,32.253
			c0,0.309-0.019,0.778-0.056,1.405c-0.037,0.627-0.056,1.097-0.056,1.411c0,0.295,0.006,0.734,0.019,1.32
			c0.012,0.586,0.019,1.025,0.019,1.314c0,0.085-0.037,0.128-0.109,0.128h-1.18c-0.085,0-0.128-0.083-0.128-0.248
			c0-0.278,0.008-0.697,0.023-1.254c0.014-0.559,0.021-0.978,0.021-1.26c0-0.314-0.023-0.786-0.068-1.415
			c-0.045-0.627-0.068-1.1-0.068-1.413c0-0.068,0.041-0.103,0.126-0.103c0.072,0,0.184,0.01,0.334,0.031
			c0.151,0.019,0.264,0.029,0.34,0.029c0.076,0,0.19-0.01,0.34-0.029c0.151-0.021,0.264-0.031,0.34-0.031
			C229.277,32.138,229.312,32.177,229.312,32.253z"/>
		<path style="fill-rule:evenodd;clip-rule:evenodd;fill:#E5F5F6;" d="M235.397,34.597c0,0.297-0.128,0.497-0.386,0.598
			c-0.175,0.064-1.423,0.184-3.748,0.359c0.052,0.355,0.248,0.656,0.588,0.906c0.324,0.237,0.67,0.357,1.042,0.357
			c0.64,0,1.225-0.204,1.758-0.611c0.066-0.054,0.13-0.105,0.194-0.157c0.033,0,0.054,0.004,0.064,0.012
			c0.01,0.008,0.087,0.146,0.227,0.417c0.142,0.272,0.212,0.417,0.212,0.437c0,0.025-0.033,0.07-0.097,0.138
			c-0.592,0.625-1.351,0.939-2.279,0.939c-0.935,0-1.679-0.278-2.236-0.838c-0.555-0.557-0.833-1.302-0.833-2.232
			c0-0.831,0.266-1.553,0.796-2.17c0.561-0.642,1.246-0.961,2.061-0.961c0.757,0,1.388,0.279,1.896,0.833
			C235.149,33.165,235.397,33.823,235.397,34.597L235.397,34.597z M233.961,34.23c0-0.334-0.132-0.631-0.396-0.889
			c-0.264-0.258-0.561-0.386-0.893-0.386c-0.371,0-0.699,0.149-0.988,0.446c-0.289,0.297-0.433,0.631-0.433,1.001
			c0,0.085,0.072,0.126,0.217,0.126c0.598,0,1.312-0.06,2.143-0.177C233.844,34.316,233.961,34.277,233.961,34.23z"/>
		<path style="fill-rule:evenodd;clip-rule:evenodd;fill:#E5F5F6;" d="M238.843,35.979c0,0.6-0.239,1.081-0.72,1.444
			c-0.437,0.33-0.967,0.495-1.595,0.495c-0.241,0-0.38-0.006-0.413-0.019c-0.068-0.031-0.103-0.13-0.103-0.295
			c0-0.089-0.01-0.221-0.033-0.398c-0.023-0.177-0.033-0.307-0.033-0.392c0-0.052,0.037-0.087,0.109-0.103
			c0.052-0.012,0.126-0.012,0.223,0c0.126,0.012,0.186,0.019,0.182,0.019c0.763,0,1.145-0.235,1.145-0.703
			c0-0.221-0.167-0.423-0.499-0.609c-0.54-0.299-0.852-0.481-0.932-0.551c-0.332-0.285-0.499-0.66-0.499-1.122
			c0-0.604,0.229-1.075,0.685-1.413c0.413-0.303,0.932-0.454,1.564-0.454c0.056,0,0.097,0.027,0.124,0.078
			c0.027,0.054,0.076,0.217,0.153,0.491c0.074,0.274,0.111,0.439,0.111,0.497c0,0.043-0.039,0.072-0.116,0.085
			c-0.258,0.035-0.518,0.07-0.78,0.101c-0.312,0.085-0.466,0.254-0.466,0.505c0,0.182,0.163,0.365,0.487,0.551
			c0.481,0.268,0.786,0.464,0.914,0.586C238.678,35.086,238.843,35.488,238.843,35.979z"/>
	</g>
	<g>
		<path style="fill-rule:evenodd;clip-rule:evenodd;fill:#FFEBEE;" d="M244.096,39.741l33.321,0.033V20.748
			c-8.892,3.638-13.926,14.538-15.063,18.3l-3.191,0.014c-1.061-4.807-6.551-15.187-15.076-18.379L244.096,39.741z"/>
		<path style="fill-rule:evenodd;clip-rule:evenodd;fill:#FFEBEE;" d="M257.814,24.79c-1.814-8.782-3.747-15.507-6.522-21.418
			l-6.959-0.038C251.004,10.762,253.998,18.386,257.814,24.79z"/>
		<path style="fill-rule:evenodd;clip-rule:evenodd;fill:#FFEBEE;" d="M244.097,17.574c2.421,0.956,4.742,2.615,6.283,3.993
			c2.941,2.627,2.434,2.08,5.123,5.326c-0.478-2.53-3.414-7.895-4.709-10.004c-1.728-2.819-4.287-6.801-6.698-8.479V17.574z"/>
		<path style="fill-rule:evenodd;clip-rule:evenodd;fill:#FFEBEE;" d="M268.647,23.142c4.421-4.111,6.238-5.678,11.353-7.826
			c-0.085-3.624-1.27-5.08-1.732-6.219C274.8,10.722,268.919,20.914,268.647,23.142z"/>
		<path style="fill-rule:evenodd;clip-rule:evenodd;fill:#FFEBEE;" d="M263.743,26.515c0.093-0.375,7.054-13.469,8.756-15.737
			c-0.884-1.054-2.196-2.635-3.822-3.186C267.764,10.186,264.683,18.86,263.743,26.515z"/>
		<path style="fill-rule:evenodd;clip-rule:evenodd;fill:#FFEBEE;" d="M259.635,20.463l0.02-17.082l-5.759-0.107
			C256.97,9.617,258.431,15.856,259.635,20.463z"/>
		<path style="fill-rule:evenodd;clip-rule:evenodd;fill:#FFEBEE;" d="M262.597,17.261c0.697-3.663,4.148-13.875,5.039-15.845
			c-1.351-1.027-3.231-1.294-4.676-1.416L262.597,17.261z"/>
	</g>
</g>
<g>
</g>
<g>
</g>
<g>
</g>
<g>
</g>
<g>
</g>
<g>
</g>
<g>
</g>
<g>
</g>
<g>
</g>
<g>
</g>
<g>
</g>
</svg>
