<?xml version="1.0" encoding="iso-8859-1"?>
<!-- Generator: Adobe Illustrator 18.0.0, SVG Export Plug-In . SVG Version: 6.00 Build 0)  -->
<!DOCTYPE svg PUBLIC "-//W3C//DTD SVG 1.1//EN" "http://www.w3.org/Graphics/SVG/1.1/DTD/svg11.dtd">
<svg version="1.1" id="Layer_1" xmlns="http://www.w3.org/2000/svg" xmlns:xlink="http://www.w3.org/1999/xlink" x="0px" y="0px"
	 viewBox="0 0 450 72" style="enable-background:new 0 0 450 72;" xml:space="preserve">
<g style="opacity:0.95;">
	<g>
		<g>
			<path style="fill-rule:evenodd;clip-rule:evenodd;fill:#FFFFFF;" d="M361.124,23.383c0,0.933-0.184,1.819-0.538,2.647
				c-0.361,0.828-0.847,1.55-1.465,2.174c-0.617,0.617-1.34,1.11-2.167,1.471c-0.828,0.355-1.708,0.539-2.64,0.539
				c-0.939,0-1.819-0.184-2.647-0.539c-0.828-0.362-1.556-0.854-2.174-1.471c-0.624-0.624-1.117-1.347-1.471-2.174
				c-0.361-0.828-0.539-1.714-0.539-2.647v-3.639c0-0.939,0.177-1.812,0.539-2.634c0.355-0.821,0.848-1.543,1.471-2.155
				c0.618-0.617,1.347-1.103,2.174-1.464c0.828-0.361,1.708-0.538,2.647-0.538c0.933,0,1.813,0.177,2.64,0.538
				c0.828,0.361,1.55,0.847,2.167,1.464c0.618,0.611,1.104,1.333,1.465,2.155c0.355,0.821,0.538,1.695,0.538,2.634V23.383
				L361.124,23.383z M351.193,23.323c0,0.499,0.092,0.952,0.269,1.346c0.177,0.401,0.414,0.729,0.703,0.998
				c0.289,0.269,0.617,0.479,0.991,0.617c0.368,0.145,0.749,0.217,1.137,0.23c0.381,0.026,0.762-0.02,1.143-0.144
				c0.381-0.118,0.709-0.309,0.998-0.578c0.289-0.263,0.525-0.598,0.703-1.005c0.184-0.414,0.269-0.9,0.269-1.465v-3.481
				c0-0.565-0.085-1.051-0.269-1.465c-0.177-0.407-0.414-0.748-0.703-1.011c-0.289-0.262-0.618-0.46-0.998-0.585
				c-0.381-0.131-0.762-0.184-1.143-0.171c-0.388,0.013-0.768,0.092-1.137,0.236c-0.374,0.151-0.703,0.362-0.991,0.637
				c-0.289,0.276-0.526,0.611-0.703,0.998c-0.177,0.394-0.269,0.847-0.269,1.36V23.323z"/>
			<path style="fill-rule:evenodd;clip-rule:evenodd;fill:#FFFFFF;" d="M369.834,16.072c-0.177-0.552-0.23-1.143-0.151-1.773
				c0.059-0.433,0.171-0.834,0.316-1.195c0.151-0.355,0.328-0.696,0.538-1.005c0.21-0.315,0.446-0.624,0.703-0.926
				c0.256-0.302,0.518-0.611,0.788-0.932l4.696-5.406l1.616,1.438L369.834,16.072z"/>
			<path style="fill-rule:evenodd;clip-rule:evenodd;fill:#FFFFFF;" d="M428.072,7.69c0.674,0.675,1.312,1.312,1.904,1.905
				c0.602,0.601,1.203,1.184,1.804,1.776c-0.656,0.675-1.276,1.312-1.868,1.905c-0.583,0.601-1.203,1.211-1.841,1.831
				c-0.674-0.692-1.303-1.321-1.868-1.895c-0.574-0.565-1.175-1.185-1.813-1.841L428.072,7.69z"/>
			<path style="fill-rule:evenodd;clip-rule:evenodd;fill:#FFFFFF;" d="M430.312,16.145v7.238c0,0.9-0.164,1.741-0.493,2.529
				c-0.322,0.788-0.775,1.491-1.346,2.095c-0.572,0.611-1.241,1.104-2.01,1.484c-0.734,0.364-1.515,0.578-2.345,0.654L395.6,30.144
				v0.03h-25.035v-0.029c-0.842-0.075-1.625-0.289-2.358-0.654c-0.762-0.379-1.424-0.876-1.997-1.484
				c-0.569-0.606-1.023-1.308-1.347-2.095c-0.325-0.788-0.492-1.629-0.492-2.529V7.278h3.671v16.026
				c0,0.445,0.077,0.855,0.223,1.221c0.148,0.369,0.342,0.683,0.578,0.946c0.236,0.263,0.517,0.477,0.834,0.644
				c0.319,0.168,0.657,0.276,1.005,0.329v0.033h15.334c0.539,0,1.012-0.078,1.412-0.236c0.407-0.162,0.735-0.374,0.991-0.643
				c0.256-0.27,0.453-0.578,0.578-0.913c0.132-0.342,0.191-0.683,0.191-1.031c0-0.375-0.066-0.736-0.197-1.091
				c-0.138-0.348-0.335-0.67-0.598-0.952c-0.263-0.283-0.591-0.506-0.992-0.67c-0.401-0.171-0.86-0.25-1.386-0.25h-10.601
				c-0.525,0.027-1.024-0.026-1.491-0.144c-0.473-0.125-0.88-0.315-1.235-0.578c-0.355-0.263-0.63-0.585-0.834-0.965
				c-0.203-0.374-0.309-0.815-0.309-1.313v-0.236c0-0.086,0.007-0.177,0.02-0.269c0.053-0.394,0.145-0.755,0.276-1.084
				c0.138-0.329,0.296-0.637,0.473-0.933c0.177-0.295,0.387-0.585,0.617-0.861c0.23-0.276,0.473-0.558,0.729-0.854
				c0.039-0.053,0.072-0.099,0.105-0.144c0.033-0.046,0.066-0.086,0.086-0.125c0.926-1.051,1.852-2.102,2.772-3.152
				c0.926-1.057,1.852-2.115,2.772-3.179c0.512,0.453,0.985,0.861,1.406,1.222c0.427,0.368,0.88,0.755,1.366,1.163l-6.713,7.737
				h10.64c0.972,0,1.879,0.177,2.713,0.532c0.834,0.348,1.55,0.821,2.155,1.412c0.604,0.591,1.077,1.281,1.425,2.069
				c0.348,0.788,0.518,1.616,0.518,2.476c0,0.742-0.243,1.747-0.729,3.015h3.304l27.243-0.04c0.879-0.001,1.458,0.1,2.267-0.321
				c0.315-0.171,0.591-0.381,0.841-0.644c0.243-0.263,0.433-0.578,0.572-0.946c0.144-0.368,0.217-0.775,0.217-1.221v-7.159H430.312z
				"/>
			<path style="fill-rule:evenodd;clip-rule:evenodd;fill:#FFFFFF;" d="M437.011,7.278v15.967c0,1.557-0.07,5.147-1.497,6.988
				c-0.956-0.568-2.209-1.169-3.174-1.719c0.74-1.197,0.96-3.273,0.96-4.702V7.278H437.011z"/>
			<path style="fill-rule:evenodd;clip-rule:evenodd;fill:#FFFFFF;" d="M444.468,14.47c0.67,0.565,1.34,1.195,2.01,1.885
				c0.677,0.696,1.287,1.425,1.839,2.194c0.552,0.775,1.012,1.57,1.367,2.391c0.361,0.821,0.565,1.635,0.617,2.443
				c0,0.906-0.184,1.773-0.545,2.594c-0.368,0.821-0.861,1.543-1.484,2.168c-0.624,0.624-1.346,1.117-2.168,1.484
				c-0.821,0.361-1.688,0.545-2.614,0.545h-4.808v-3.698h4.729c0.539,0,1.012-0.092,1.419-0.276
				c0.401-0.184,0.736-0.427,0.998-0.722c0.263-0.296,0.46-0.631,0.598-1.012c0.132-0.374,0.204-0.748,0.217-1.123
				c-0.059-0.446-0.243-0.932-0.538-1.445c-0.296-0.512-0.663-1.031-1.104-1.55c-0.44-0.519-0.939-1.031-1.484-1.543
				c-0.545-0.519-1.09-1.005-1.642-1.465L444.468,14.47z"/>
			<path style="fill-rule:evenodd;clip-rule:evenodd;fill:#FFFFFF;" d="M416.372,18.157c0.674,0.675,1.312,1.312,1.904,1.905
				c0.602,0.601,1.203,1.184,1.804,1.776c-0.656,0.675-1.276,1.312-1.868,1.905c-0.583,0.601-1.203,1.211-1.841,1.831
				c-0.674-0.692-1.303-1.321-1.868-1.895c-0.574-0.565-1.175-1.185-1.813-1.841L416.372,18.157z"/>
			<path style="fill-rule:evenodd;clip-rule:evenodd;fill:#FFFFFF;" d="M409.907,18.157c0.674,0.675,1.312,1.312,1.904,1.905
				c0.602,0.601,1.203,1.184,1.805,1.776c-0.656,0.675-1.276,1.312-1.868,1.905c-0.583,0.601-1.203,1.211-1.841,1.831
				c-0.674-0.692-1.303-1.321-1.868-1.895c-0.574-0.565-1.175-1.185-1.813-1.841L409.907,18.157z"/>
			<path style="fill-rule:evenodd;clip-rule:evenodd;fill:#FFFFFF;" d="M403.442,18.157c0.674,0.675,1.312,1.312,1.904,1.905
				c0.602,0.601,1.203,1.184,1.804,1.776c-0.656,0.675-1.276,1.312-1.868,1.905c-0.583,0.601-1.203,1.211-1.841,1.831
				c-0.674-0.692-1.303-1.321-1.868-1.895c-0.574-0.565-1.175-1.185-1.813-1.841L403.442,18.157z"/>
		</g>
		<g>
			<path style="fill-rule:evenodd;clip-rule:evenodd;fill:#FFFFFF;" d="M43.36,9.441v13.804c0,1.761,0.065,4.962-0.843,7.091
				c-0.838-0.499-2.33-1.038-3.315-1.591c0.572-1.302,0.486-2.28,0.486-3.726V8.396c0.842,0.058,1.782,0.304,2.821,0.74h0.002
				C42.802,9.257,43.085,9.359,43.36,9.441z"/>
			<path style="fill-rule:evenodd;clip-rule:evenodd;fill:#FFFFFF;" d="M17.384,26.476h2.653c0.453-0.02,0.867-0.105,1.241-0.236
				c0.381-0.138,0.703-0.328,0.972-0.591c0.269-0.256,0.48-0.571,0.637-0.959c0.151-0.387,0.23-0.841,0.23-1.366v-3.58
				c0-0.939,0.177-1.812,0.539-2.634c0.361-0.821,0.848-1.543,1.471-2.155c0.624-0.617,1.347-1.103,2.174-1.464
				c0.828-0.361,1.708-0.538,2.647-0.538c0.926,0,1.799,0.177,2.627,0.538c0.828,0.361,1.55,0.847,2.174,1.464
				c0.624,0.611,1.11,1.333,1.471,2.155c0.361,0.821,0.538,1.695,0.538,2.634v3.639c0,0.933-0.177,1.819-0.538,2.647
				c-0.361,0.828-0.847,1.55-1.471,2.174c-0.624,0.617-1.347,1.11-2.174,1.471c-0.828,0.355-1.701,0.539-2.627,0.539
				c-0.913,0-1.793-0.191-2.654-0.578c-0.861-0.388-1.649-0.92-2.371-1.596c-0.394,0.381-0.788,0.703-1.182,0.959
				c-0.388,0.256-0.788,0.466-1.189,0.631c-0.407,0.157-0.814,0.276-1.235,0.361c-0.383,0.079-0.777,0.13-1.182,0.158v0.026h-2.791
				c-0.177,1.09-0.539,2.075-1.077,2.962c-0.539,0.887-1.196,1.642-1.971,2.273c-0.775,0.63-1.642,1.11-2.588,1.451
				c-0.952,0.342-1.911,0.513-2.89,0.513c-1.064,0-2.102-0.197-3.126-0.578c-1.018-0.388-1.931-0.933-2.733-1.636
				c-0.801-0.709-1.445-1.556-1.931-2.542C0.543,31.632,0.3,30.535,0.3,29.327v-6.909h3.691v6.83c0,0.762,0.138,1.419,0.414,1.977
				c0.276,0.558,0.644,1.018,1.097,1.392c0.453,0.375,0.972,0.657,1.55,0.848c0.578,0.19,1.169,0.289,1.767,0.289
				c0.617,0,1.215-0.092,1.799-0.27c0.585-0.177,1.104-0.46,1.563-0.841c0.453-0.375,0.821-0.848,1.097-1.412
				c0.276-0.565,0.414-1.222,0.414-1.984V7.278h3.691V26.476L17.384,26.476z M26.809,23.323c0,0.499,0.092,0.952,0.269,1.346
				c0.184,0.401,0.414,0.729,0.703,0.998c0.289,0.269,0.624,0.479,0.992,0.617c0.374,0.145,0.762,0.217,1.156,0.23
				c0.388,0.026,0.768-0.02,1.143-0.144c0.381-0.118,0.716-0.309,1.005-0.578c0.289-0.263,0.519-0.598,0.703-1.005
				c0.177-0.414,0.269-0.9,0.269-1.465v-3.481c0-0.565-0.092-1.051-0.269-1.465c-0.184-0.407-0.414-0.748-0.703-1.018
				c-0.289-0.269-0.624-0.466-1.005-0.591c-0.375-0.118-0.755-0.171-1.143-0.158c-0.394,0.02-0.781,0.112-1.156,0.256
				c-0.368,0.151-0.703,0.355-0.992,0.624c-0.289,0.27-0.519,0.605-0.703,0.992c-0.177,0.394-0.269,0.847-0.269,1.36V23.323z"/>
			<path style="fill-rule:evenodd;clip-rule:evenodd;fill:#FFFFFF;" d="M35.394,9.377c-0.018-1.379,0.469-2.698,1.459-3.954
				c1-1.247,2.865-1.309,5.599-0.177c2.741,1.132,4.838,0.725,6.288-1.203c-0.69,4.086-2.698,5.448-6.005,4.068
				C39.427,6.724,36.986,7.148,35.394,9.377z"/>
		</g>
		<g>
			<path style="fill-rule:evenodd;clip-rule:evenodd;fill:#FFFFFF;" d="M339.738,23.383c0,0.933-0.184,1.813-0.539,2.634
				c-0.362,0.821-0.848,1.543-1.465,2.154c-0.618,0.618-1.333,1.104-2.155,1.465c-0.821,0.361-1.701,0.538-2.64,0.538h-2.575h-0.118
				h-21.72h-0.118h-24.84c-0.893,0-1.694-0.19-2.404-0.578c-0.703-0.381-1.419-0.906-2.135-1.556
				c-0.657,0.604-1.36,1.09-2.108,1.458c-0.713,0.356-1.462,0.57-2.24,0.646v0.03h-24.959c-0.893,0-1.694-0.19-2.404-0.578
				c-0.703-0.381-1.419-0.906-2.135-1.556c-0.657,0.604-1.36,1.09-2.108,1.458c-0.713,0.356-1.462,0.57-2.24,0.646v0.03h-2.633
				c-4.909-0.046-7.945,0.127-9.99,0.289c0.416-1.226,0.843-2.447,1.259-3.672c1.784-0.308,3.911-0.328,5.75-0.322
				c1.795,0.006,3.627,0.006,5.497,0.006v-0.033c0.348-0.053,0.683-0.164,1.005-0.329c0.315-0.171,0.598-0.381,0.834-0.644
				c0.236-0.263,0.427-0.578,0.578-0.946c0.144-0.368,0.223-0.775,0.223-1.221v-0.578c0.624-0.256,1.248-0.506,1.852-0.762
				c0.611-0.249,1.215-0.499,1.819-0.755v2.095c0,0.499,0.092,0.946,0.269,1.34c0.177,0.388,0.427,0.723,0.742,0.992
				c0.315,0.269,0.683,0.473,1.117,0.624c0.427,0.144,0.887,0.216,1.373,0.216c0.618-0.768,1.281-1.55,1.997-2.351
				c0.709-0.801,1.458-1.583,2.24-2.338c0.782-0.762,1.603-1.471,2.45-2.141c0.854-0.663,1.734-1.248,2.628-1.747
				c0.9-0.499,1.819-0.893,2.765-1.182c0.939-0.289,1.892-0.433,2.857-0.433c0.486,0,0.992,0.04,1.51,0.125
				c0.519,0.085,1.025,0.217,1.511,0.394c0.591,0.216,1.136,0.538,1.642,0.972c0.505,0.427,0.952,0.926,1.326,1.491
				c0.381,0.565,0.677,1.176,0.887,1.826c0.21,0.657,0.316,1.313,0.316,1.984c0,0.446-0.079,0.952-0.25,1.517
				c-0.164,0.565-0.427,1.195-0.788,1.885h2.943v-0.033c0.348-0.053,0.683-0.164,1.005-0.329c0.315-0.171,0.598-0.381,0.834-0.644
				c0.236-0.263,0.427-0.578,0.578-0.946c0.144-0.368,0.223-0.775,0.223-1.221v-0.578c0.624-0.256,1.248-0.506,1.852-0.762
				c0.611-0.249,1.215-0.499,1.819-0.755v2.095c0,0.499,0.092,0.946,0.269,1.34c0.177,0.388,0.427,0.723,0.742,0.992
				c0.315,0.269,0.683,0.473,1.117,0.624c0.427,0.144,0.887,0.216,1.373,0.216c0.618-0.768,1.281-1.55,1.997-2.351
				c0.709-0.801,1.458-1.583,2.24-2.338c0.782-0.762,1.603-1.471,2.45-2.141c0.854-0.663,1.734-1.248,2.627-1.747
				c0.9-0.499,1.819-0.893,2.765-1.182c0.939-0.289,1.892-0.433,2.857-0.433c0.486,0,0.992,0.04,1.51,0.125
				c0.519,0.085,1.025,0.217,1.511,0.394c0.591,0.216,1.136,0.538,1.642,0.972c0.505,0.427,0.952,0.926,1.327,1.491
				c0.381,0.565,0.677,1.176,0.887,1.826c0.21,0.657,0.316,1.313,0.316,1.984c0,0.446-0.079,0.952-0.25,1.517
				c-0.164,0.565-0.427,1.195-0.788,1.885h2.943h0.118h14.062c-0.112-0.151-0.263-0.341-0.447-0.565
				c-0.19-0.223-0.381-0.46-0.578-0.703c-0.204-0.243-0.388-0.479-0.572-0.703c-0.177-0.223-0.322-0.407-0.42-0.545
				c-0.466-0.618-0.913-1.189-1.36-1.727c-0.44-0.532-0.9-0.992-1.386-1.393c-0.479-0.394-0.991-0.709-1.537-0.933
				c-0.545-0.223-1.156-0.335-1.839-0.335c-0.46,0-0.959,0.059-1.491,0.17c-0.532,0.118-1.104,0.302-1.721,0.559
				c0-0.348-0.007-0.663-0.013-0.939c-0.006-0.283-0.013-0.552-0.013-0.815c-0.007-0.256-0.013-0.519-0.02-0.788
				c-0.007-0.27-0.02-0.565-0.033-0.88c0.683-0.539,1.327-0.92,1.937-1.136c0.605-0.217,1.241-0.329,1.892-0.329
				c0.296,0,0.618,0.04,0.966,0.118c0.781,0.138,1.524,0.414,2.22,0.834c0.703,0.414,1.366,0.913,1.99,1.491
				c0.631,0.578,1.222,1.208,1.78,1.885c0.559,0.683,1.097,1.347,1.609,2.003c0.447,0.565,0.913,1.13,1.386,1.695
				c0.473,0.559,0.959,1.071,1.451,1.517c0.493,0.446,0.992,0.814,1.491,1.097c0.499,0.283,0.998,0.42,1.504,0.42h0.861h0.118h2.555
				c0.388,0,0.768-0.066,1.15-0.21c0.374-0.138,0.709-0.348,0.998-0.618c0.289-0.269,0.525-0.598,0.702-0.998
				c0.177-0.394,0.27-0.848,0.27-1.347v-7.159h3.698V23.383L339.738,23.383z M299.331,26.476c0.565,0,1.051-0.085,1.471-0.269
				c0.414-0.177,0.755-0.414,1.018-0.709c0.263-0.295,0.453-0.631,0.578-0.998c0.125-0.374,0.177-0.762,0.164-1.156
				c-0.013-0.387-0.092-0.755-0.23-1.117c-0.144-0.361-0.342-0.683-0.598-0.972c-0.256-0.289-0.572-0.525-0.952-0.709
				c-0.381-0.19-0.821-0.309-1.321-0.361c-0.591-0.046-1.195,0.006-1.825,0.177c-0.631,0.164-1.261,0.407-1.899,0.722
				c-0.63,0.315-1.254,0.69-1.865,1.123c-0.611,0.44-1.195,0.893-1.767,1.379c-0.572,0.48-1.11,0.972-1.609,1.471
				c-0.499,0.499-0.946,0.972-1.346,1.419H299.331L299.331,26.476z M265.486,26.476c0.565,0,1.051-0.085,1.471-0.269
				c0.414-0.177,0.755-0.414,1.018-0.709c0.263-0.295,0.453-0.631,0.578-0.998c0.125-0.374,0.177-0.762,0.164-1.156
				c-0.013-0.387-0.092-0.755-0.23-1.117c-0.144-0.361-0.342-0.683-0.598-0.972c-0.256-0.289-0.572-0.525-0.952-0.709
				c-0.381-0.19-0.821-0.309-1.32-0.361c-0.591-0.046-1.195,0.006-1.826,0.177c-0.631,0.164-1.261,0.407-1.899,0.722
				c-0.63,0.315-1.254,0.69-1.865,1.123c-0.611,0.44-1.195,0.893-1.767,1.379c-0.572,0.48-1.11,0.972-1.609,1.471
				c-0.499,0.499-0.946,0.972-1.347,1.419H265.486z"/>
			<path style="fill-rule:evenodd;clip-rule:evenodd;fill:#FFFFFF;" d="M226.801,38.34l-2.001,0.031
				c-0.694,0.01-1.332-0.024-1.859-0.145c-0.527-0.12-0.987-0.304-1.353-0.532c-0.367-0.228-0.665-0.512-0.873-0.834
				c-0.209-0.325-0.372-0.686-0.434-1.071c-0.027-0.171-0.051-0.346-0.059-0.499c-0.008-0.147-0.02-0.309-0.02-0.46
				c0-0.939,0.232-1.819,0.69-2.627c0.459-0.811,1.054-1.576,1.753-2.273c2.206-2.196,3.912-2.899,7.12-3.187
				c2.179,2.862,0.086,3.074-1.552,3.719c-2.61,0.198-4.101,2.515-4.839,4.21h2.982c0.147,0,0.293,0.001,0.438,0.005h0.007h37.578
				v3.662H226.801z"/>
			<path style="fill-rule:evenodd;clip-rule:evenodd;fill:#FFFFFF;" d="M307.222,7.06c0.674,0.675,1.312,1.312,1.904,1.905
				c0.602,0.601,1.203,1.184,1.804,1.776c-0.656,0.675-1.276,1.312-1.868,1.905c-0.583,0.601-1.203,1.211-1.841,1.831
				c-0.674-0.692-1.303-1.321-1.868-1.895c-0.574-0.565-1.175-1.185-1.813-1.841L307.222,7.06z"/>
			<path style="fill-rule:evenodd;clip-rule:evenodd;fill:#FFFFFF;" d="M331.339,7.06c0.674,0.675,1.312,1.312,1.904,1.905
				c0.602,0.601,1.203,1.184,1.805,1.776c-0.656,0.675-1.276,1.312-1.868,1.905c-0.583,0.601-1.203,1.211-1.841,1.831
				c-0.674-0.692-1.303-1.321-1.868-1.895c-0.574-0.565-1.175-1.185-1.813-1.841L331.339,7.06z"/>
			<path style="fill-rule:evenodd;clip-rule:evenodd;fill:#FFFFFF;" d="M324.874,7.06c0.674,0.675,1.312,1.312,1.904,1.905
				c0.602,0.601,1.203,1.184,1.804,1.776c-0.656,0.675-1.276,1.312-1.868,1.905c-0.583,0.601-1.203,1.211-1.841,1.831
				c-0.674-0.692-1.303-1.321-1.868-1.895c-0.574-0.565-1.175-1.185-1.813-1.841L324.874,7.06z"/>
		</g>
		<g>
			<path style="fill-rule:evenodd;clip-rule:evenodd;fill:#FFFFFF;" d="M128.908,30.174v-0.029c-0.842-0.075-1.624-0.29-2.358-0.654
				c-0.762-0.381-1.425-0.873-1.997-1.484c-0.572-0.604-1.022-1.308-1.347-2.095c-0.325-0.789-0.492-1.629-0.492-2.529V6.611h3.671
				v16.693c0,0.446,0.076,0.855,0.223,1.221c0.148,0.369,0.341,0.683,0.578,0.946c0.236,0.263,0.518,0.473,0.834,0.644
				c0.322,0.164,0.657,0.276,1.005,0.329v0.033h2.732l-0.02-6.732c0-0.939,0.177-1.812,0.538-2.634
				c0.361-0.821,0.847-1.543,1.465-2.155c0.611-0.617,1.333-1.103,2.161-1.464c0.828-0.361,1.714-0.538,2.667-0.538
				c0.617,0,1.215,0.085,1.786,0.256c0.578,0.177,1.123,0.42,1.635,0.735c0.519,0.316,0.985,0.69,1.419,1.137
				c0.427,0.44,0.801,0.932,1.123,1.471h3.291c0.939,0,1.819,0.177,2.647,0.539c0.828,0.355,1.55,0.847,2.168,1.458
				c0.611,0.618,1.103,1.34,1.458,2.168c0.361,0.828,0.538,1.708,0.538,2.647c0,0.933-0.177,1.819-0.538,2.647
				c-0.355,0.828-0.847,1.55-1.458,2.161c-0.618,0.618-1.34,1.104-2.168,1.465c-0.828,0.361-1.708,0.538-2.647,0.538H128.908
				L128.908,30.174z M135.41,26.516h3.16c0.387,0,0.761-0.053,1.123-0.171c0.368-0.118,0.696-0.302,0.985-0.565
				c0.289-0.263,0.519-0.598,0.703-1.005c0.177-0.401,0.27-0.887,0.27-1.452v-3.481c0-0.565-0.092-1.051-0.27-1.465
				c-0.184-0.407-0.414-0.748-0.703-1.011c-0.289-0.262-0.617-0.46-0.992-0.585c-0.374-0.131-0.748-0.184-1.136-0.171
				c-0.401,0.02-0.781,0.112-1.156,0.256c-0.368,0.151-0.703,0.355-0.992,0.624c-0.289,0.27-0.519,0.605-0.69,0.992
				c-0.177,0.394-0.262,0.847-0.262,1.36L135.41,26.516L135.41,26.516z M145.341,20.243v3.139c0,0.874-0.223,1.905-0.67,3.093h3.054
				c0.565,0,1.057-0.085,1.465-0.269c0.414-0.177,0.749-0.414,1.011-0.709c0.263-0.295,0.453-0.631,0.578-0.998
				c0.118-0.374,0.177-0.762,0.164-1.156c-0.013-0.387-0.092-0.762-0.243-1.136c-0.145-0.374-0.355-0.703-0.624-0.992
				c-0.269-0.289-0.598-0.518-0.991-0.703c-0.394-0.177-0.841-0.269-1.36-0.269H145.341z"/>
			<path style="fill-rule:evenodd;clip-rule:evenodd;fill:#FFFFFF;" d="M155.017,11.76l-2.001,0.031
				c-0.694,0.01-1.332-0.024-1.859-0.145c-0.527-0.12-0.987-0.304-1.353-0.532c-0.367-0.229-0.665-0.512-0.873-0.834
				c-0.21-0.325-0.372-0.686-0.434-1.071c-0.027-0.171-0.051-0.346-0.059-0.499c-0.008-0.147-0.02-0.309-0.02-0.46
				c0-0.939,0.232-1.819,0.69-2.627c0.459-0.811,1.053-1.576,1.753-2.273c0.696-0.694,1.483-1.336,2.312-1.911
				c0.824-0.572,1.629-1.097,2.384-1.557c0.42,0.552,0.807,1.049,1.136,1.491c0.324,0.435,0.69,0.913,1.077,1.412
				c-1.051,0.525-2.1,1.212-3.126,2.036c-1.033,0.829-2.049,1.925-3.054,3.271h2.982c0.147,0,0.293,0.001,0.438,0.005h0.007h27.212
				v3.662H155.017z"/>
			<path style="fill-rule:evenodd;clip-rule:evenodd;fill:#FFFFFF;" d="M165.737,16.032c1.798,1.695,2.502,4.249,2.889,6.654
				c0.136,0.847,0.197,1.701,0.197,2.562c0,1.037-0.092,2.069-0.276,3.1c-0.184,1.024-0.46,2.01-0.821,2.949
				c-0.355,0.946-0.808,1.819-1.346,2.627c-0.539,0.808-1.156,1.511-1.846,2.102c-0.689,0.585-1.471,1.051-2.325,1.393
				c-0.861,0.341-1.793,0.512-2.791,0.512c-0.512,0-1.038-0.053-1.57-0.157c-0.532-0.099-1.084-0.243-1.642-0.42v-3.619
				c0.486,0.164,0.926,0.276,1.314,0.335c0.394,0.059,0.794,0.085,1.202,0.085c1.09,0,2.036-0.243,2.837-0.729
				c0.808-0.486,1.471-1.13,2.003-1.925c0.532-0.794,0.926-1.707,1.182-2.739c0.256-1.037,0.387-2.095,0.387-3.186
				c0-1.307-0.17-2.588-0.518-3.829c-0.348-1.248-0.867-2.331-1.557-3.251L165.737,16.032z"/>
			<path style="fill-rule:evenodd;clip-rule:evenodd;fill:#FFFFFF;" d="M171.136,33.734c0.453,0.151,0.913,0.263,1.399,0.335
				c0.48,0.072,0.966,0.105,1.452,0.105c0.617,0,1.215-0.086,1.806-0.256c0.591-0.177,1.13-0.446,1.616-0.821
				c0.492-0.368,0.913-0.86,1.274-1.458c0.355-0.604,0.617-1.333,0.768-2.174c-0.683,0.256-1.274,0.44-1.78,0.558
				c-0.505,0.112-0.939,0.171-1.3,0.171c-0.847,0-1.655-0.164-2.424-0.479c-0.768-0.322-1.451-0.768-2.042-1.327
				c-0.585-0.565-1.057-1.235-1.399-2.016c-0.348-0.775-0.519-1.616-0.519-2.529v-4.099c0-0.939,0.177-1.812,0.538-2.634
				c0.355-0.821,0.848-1.543,1.471-2.155c0.618-0.617,1.346-1.103,2.174-1.464c0.828-0.361,1.708-0.538,2.647-0.538
				c0.933,0,1.813,0.177,2.64,0.538c0.828,0.361,1.55,0.847,2.167,1.464c0.618,0.611,1.104,1.333,1.465,2.155
				c0.355,0.821,0.539,1.695,0.539,2.634v3.698c0,1.228-0.053,2.43-0.157,3.606c-0.099,1.176-0.283,2.286-0.539,3.337
				c-0.256,1.05-0.604,2.023-1.044,2.909c-0.447,0.88-1.011,1.649-1.695,2.285c-0.69,0.644-1.51,1.143-2.476,1.504
				c-0.959,0.355-2.088,0.539-3.382,0.539c-0.506,0-1.018-0.033-1.543-0.085c-0.525-0.059-1.077-0.138-1.655-0.243V33.734
				L171.136,33.734z M173.697,23.323c0,0.499,0.092,0.946,0.27,1.34c0.177,0.387,0.414,0.716,0.703,0.985
				c0.289,0.27,0.617,0.48,0.991,0.631c0.368,0.145,0.749,0.223,1.137,0.236h-0.02c0.394,0.026,0.782-0.02,1.15-0.144
				c0.374-0.118,0.709-0.309,1.005-0.578c0.296-0.263,0.532-0.598,0.709-1.005c0.184-0.414,0.269-0.9,0.269-1.465v-3.481
				c0-0.565-0.085-1.051-0.269-1.465c-0.177-0.407-0.414-0.748-0.703-1.011c-0.289-0.262-0.618-0.46-0.998-0.585
				c-0.381-0.131-0.762-0.184-1.143-0.171c-0.388,0.02-0.768,0.112-1.137,0.256c-0.374,0.151-0.703,0.355-0.991,0.624
				c-0.289,0.27-0.525,0.605-0.703,0.992c-0.177,0.394-0.27,0.847-0.27,1.36V23.323z"/>
			<path style="fill-rule:evenodd;clip-rule:evenodd;fill:#FFFFFF;" d="M199.518,30.174v-0.03c-0.767-0.076-1.515-0.283-2.233-0.633
				c-0.755-0.368-1.465-0.854-2.115-1.471c-0.657,0.604-1.36,1.09-2.109,1.458c-0.713,0.356-1.468,0.57-2.259,0.646v0.01
				l-0.061-0.005l-0.057,0.005v-0.01c-0.842-0.076-1.624-0.29-2.358-0.654c-0.762-0.381-1.425-0.873-1.997-1.484
				c-0.572-0.604-1.024-1.307-1.347-2.095c-0.328-0.788-0.492-1.629-0.492-2.529V7.278h3.671v16.026
				c0,0.446,0.079,0.854,0.223,1.221c0.151,0.368,0.341,0.683,0.578,0.946c0.236,0.263,0.518,0.473,0.834,0.644
				c0.303,0.155,0.619,0.263,0.946,0.319c0.327-0.056,0.642-0.164,0.946-0.319c0.315-0.171,0.598-0.381,0.841-0.644
				c0.249-0.263,0.44-0.578,0.578-0.946c0.144-0.368,0.217-0.775,0.217-1.221v-7.159h3.671v7.159c0,0.446,0.072,0.854,0.223,1.221
				c0.144,0.368,0.341,0.683,0.578,0.946c0.236,0.263,0.513,0.473,0.835,0.644c0.322,0.164,0.657,0.276,1.005,0.329v0.033h3.369
				c-0.21-0.584-0.374-1.143-0.492-1.662c-0.125-0.518-0.184-0.998-0.184-1.432v-3.639c0-0.939,0.177-1.812,0.539-2.634
				c0.361-0.821,0.847-1.543,1.464-2.155c0.611-0.617,1.334-1.103,2.161-1.464c0.828-0.361,1.708-0.538,2.647-0.538
				c0.939,0,1.813,0.177,2.633,0.538c0.821,0.361,1.544,0.847,2.161,1.464c0.611,0.611,1.104,1.333,1.458,2.155
				c0.361,0.821,0.538,1.695,0.538,2.634v3.639c0,0.933-0.177,1.819-0.538,2.647c-0.355,0.828-0.848,1.55-1.458,2.174
				c-0.617,0.617-1.34,1.11-2.161,1.471c-0.821,0.355-1.694,0.539-2.633,0.539L199.518,30.174L199.518,30.174z M206.039,23.323
				c0,0.499,0.092,0.946,0.263,1.34c0.171,0.387,0.401,0.716,0.69,0.985c0.289,0.27,0.624,0.48,0.991,0.631
				c0.375,0.145,0.755,0.223,1.137,0.236c0.387,0.026,0.768-0.02,1.143-0.144c0.381-0.118,0.716-0.309,1.011-0.578
				c0.296-0.263,0.532-0.598,0.716-1.005c0.177-0.414,0.27-0.9,0.27-1.465v-3.481c0-0.565-0.092-1.051-0.27-1.465
				c-0.184-0.407-0.42-0.748-0.716-1.011c-0.296-0.262-0.631-0.46-1.011-0.585c-0.374-0.131-0.755-0.184-1.143-0.171
				c-0.381,0.02-0.762,0.112-1.137,0.256c-0.368,0.151-0.703,0.355-0.991,0.624c-0.289,0.27-0.519,0.605-0.69,0.992
				c-0.171,0.394-0.263,0.847-0.263,1.36V23.323z"/>
			<path style="fill-rule:evenodd;clip-rule:evenodd;fill:#FFFFFF;" d="M117.552,11.76l-2.001,0.031
				c-0.694,0.01-1.332-0.024-1.859-0.145c-0.527-0.12-0.987-0.304-1.353-0.532c-0.367-0.229-0.665-0.512-0.873-0.834
				c-0.209-0.325-0.372-0.686-0.434-1.071c-0.027-0.171-0.051-0.346-0.059-0.499c-0.008-0.147-0.02-0.309-0.02-0.46
				c0-0.939,0.232-1.819,0.69-2.627c0.459-0.811,1.053-1.576,1.753-2.273c0.696-0.694,1.483-1.336,2.312-1.911
				c0.824-0.572,1.629-1.097,2.384-1.557c0.42,0.552,0.807,1.049,1.136,1.491c0.324,0.435,0.69,0.913,1.077,1.412
				c-1.051,0.525-2.1,1.212-3.126,2.036c-1.033,0.829-2.049,1.925-3.054,3.271h2.982c0.147,0,0.293,0.001,0.438,0.005h0.007h3.965
				v3.662H117.552L117.552,11.76z M127.583,8.098h19.043v3.662h-19.043V8.098z"/>
			<path style="fill-rule:evenodd;clip-rule:evenodd;fill:#FFFFFF;" d="M202.65,7.06c0.674,0.675,1.312,1.312,1.904,1.905
				c0.602,0.601,1.203,1.184,1.804,1.776c-0.656,0.675-1.276,1.312-1.868,1.905c-0.583,0.601-1.203,1.211-1.841,1.831
				c-0.674-0.692-1.303-1.321-1.868-1.895c-0.574-0.565-1.175-1.185-1.813-1.841L202.65,7.06z"/>
			<path style="fill-rule:evenodd;clip-rule:evenodd;fill:#FFFFFF;" d="M193.268,7.06c0.674,0.675,1.312,1.312,1.904,1.905
				c0.602,0.601,1.203,1.184,1.804,1.776c-0.656,0.675-1.276,1.312-1.868,1.905c-0.583,0.601-1.203,1.211-1.841,1.831
				c-0.674-0.692-1.303-1.321-1.868-1.895c-0.574-0.565-1.175-1.185-1.813-1.841L193.268,7.06z"/>
		</g>
		<g>
			<path style="fill-rule:evenodd;clip-rule:evenodd;fill:#FFFFFF;" d="M81.554,16.145v7.238c0,0.9-0.164,1.741-0.492,2.529
				c-0.329,0.788-0.775,1.491-1.347,2.095c-0.572,0.611-1.241,1.104-2.01,1.484c-0.73,0.359-2.666,0.514-5.812,0.481h-2.791
				c0,0.928-0.597,2.374-1.077,3.164c-0.539,0.887-1.196,1.642-1.984,2.273c-0.781,0.63-1.642,1.11-2.588,1.451
				c-0.939,0.342-1.898,0.513-2.876,0.513c-1.064,0-2.108-0.197-3.133-0.578c-1.024-0.388-1.937-0.933-2.732-1.636
				c-0.795-0.709-1.438-1.556-1.924-2.542c-0.486-0.985-0.729-2.082-0.729-3.29v-6.909h3.691v6.83c0,0.762,0.138,1.419,0.414,1.977
				c0.276,0.558,0.644,1.018,1.097,1.392c0.453,0.375,0.972,0.657,1.55,0.848c0.578,0.19,1.169,0.289,1.767,0.289
				c0.604,0,1.195-0.092,1.78-0.27c0.585-0.177,1.103-0.46,1.563-0.841c0.453-0.375,0.821-0.848,1.104-1.412
				c0.283-0.565,0.427-1.222,0.427-1.984V16.145h3.691v10.102c1.389,0,6.505,0.172,7.1-0.132c0.322-0.171,0.598-0.381,0.834-0.644
				c0.243-0.263,0.434-0.578,0.578-0.946c0.151-0.368,0.223-0.775,0.223-1.221v-7.159H81.554z"/>
			<path style="fill-rule:evenodd;clip-rule:evenodd;fill:#FFFFFF;" d="M106.085,16.145v7.238c0,0.9-0.164,1.741-0.493,2.529
				c-0.322,0.788-0.775,1.491-1.346,2.095c-0.572,0.611-1.241,1.104-2.01,1.484c-0.74,0.367-1.528,0.581-2.364,0.656v0.027h-3.389
				c-0.309,1.267-0.761,2.371-1.36,3.31c-0.591,0.933-1.294,1.714-2.095,2.325c-0.801,0.618-1.688,1.071-2.653,1.367
				c-0.972,0.296-1.977,0.446-3.034,0.446c-0.434,0-0.887-0.033-1.353-0.085c-0.466-0.059-0.92-0.138-1.36-0.243v-3.56
				c0.453,0.151,0.919,0.269,1.406,0.348c0.486,0.072,0.972,0.112,1.445,0.112c0.578,0,1.143-0.072,1.701-0.23
				c0.558-0.151,1.077-0.394,1.55-0.722c0.473-0.329,0.893-0.755,1.261-1.281c0.368-0.525,0.657-1.162,0.874-1.924
				c-0.486,0.092-0.906,0.157-1.267,0.197c-0.361,0.04-0.677,0.059-0.946,0.059c-0.499,0-1.025-0.046-1.576-0.131
				c-0.552-0.079-1.09-0.223-1.616-0.42c-0.525-0.197-1.031-0.46-1.524-0.782c-0.486-0.315-0.906-0.716-1.268-1.202
				c-0.361-0.479-0.643-1.044-0.867-1.695c-0.217-0.643-0.322-1.386-0.322-2.22v-4.099c0-0.939,0.177-1.812,0.538-2.634
				c0.355-0.821,0.841-1.543,1.458-2.155c0.618-0.617,1.34-1.103,2.168-1.464c0.828-0.361,1.708-0.538,2.647-0.538
				c0.919,0,1.799,0.177,2.62,0.538c0.828,0.361,1.556,0.847,2.181,1.464c0.617,0.611,1.11,1.333,1.471,2.155
				c0.355,0.821,0.538,1.695,0.538,2.634c0,1.143-0.007,2.095-0.013,2.857C97.08,23.363,97.073,24,97.06,24.499
				c-0.013,0.499-0.026,0.9-0.033,1.208c0,0.309-0.013,0.565-0.026,0.768h2.772v-0.033c0.348-0.053,0.676-0.164,0.992-0.329
				c0.315-0.171,0.591-0.381,0.841-0.644c0.243-0.263,0.433-0.578,0.572-0.946c0.144-0.368,0.216-0.775,0.216-1.221v-7.159H106.085
				L106.085,16.145z M87.169,23.323c0,0.499,0.092,0.946,0.269,1.34c0.177,0.387,0.414,0.716,0.703,0.985
				c0.289,0.27,0.618,0.48,0.992,0.631c0.368,0.145,0.749,0.223,1.136,0.236h3.133v-6.673c0-0.565-0.085-1.051-0.269-1.465
				c-0.177-0.407-0.414-0.748-0.709-1.011c-0.296-0.262-0.631-0.46-1.011-0.585c-0.381-0.131-0.762-0.184-1.143-0.171
				c-0.387,0.02-0.768,0.112-1.136,0.256c-0.374,0.151-0.703,0.355-0.992,0.624c-0.289,0.27-0.525,0.605-0.703,0.992
				c-0.177,0.394-0.269,0.847-0.269,1.36V23.323z"/>
			<path style="fill-rule:evenodd;clip-rule:evenodd;fill:#FFFFFF;" d="M98.903,7.06c0.674,0.675,1.312,1.312,1.904,1.905
				c0.602,0.601,1.203,1.184,1.805,1.776c-0.656,0.675-1.276,1.312-1.868,1.905c-0.583,0.601-1.203,1.211-1.841,1.831
				c-0.674-0.692-1.303-1.321-1.868-1.895c-0.574-0.565-1.175-1.185-1.813-1.841L98.903,7.06z"/>
			<path style="fill-rule:evenodd;clip-rule:evenodd;fill:#FFFFFF;" d="M59.7,14.61c0.674,0.675,1.312,1.312,1.904,1.905
				c0.602,0.601,1.203,1.184,1.804,1.776c-0.656,0.675-1.276,1.312-1.868,1.905c-0.583,0.601-1.203,1.211-1.841,1.831
				c-0.674-0.692-1.303-1.321-1.868-1.895c-0.574-0.565-1.175-1.185-1.813-1.841L59.7,14.61z"/>
			<path style="fill-rule:evenodd;clip-rule:evenodd;fill:#FFFFFF;" d="M78.622,32.63c0.674,0.675,1.312,1.312,1.904,1.905
				c0.602,0.601,1.203,1.184,1.804,1.776c-0.656,0.675-1.276,1.312-1.868,1.905c-0.583,0.601-1.203,1.211-1.841,1.831
				c-0.674-0.692-1.303-1.321-1.868-1.895c-0.574-0.565-1.175-1.185-1.813-1.841L78.622,32.63z"/>
			<path style="fill-rule:evenodd;clip-rule:evenodd;fill:#FFFFFF;" d="M72.157,32.63c0.674,0.675,1.312,1.312,1.904,1.905
				c0.602,0.601,1.203,1.184,1.804,1.776c-0.656,0.675-1.276,1.312-1.868,1.905c-0.583,0.601-1.203,1.211-1.841,1.831
				c-0.674-0.692-1.303-1.321-1.868-1.895c-0.574-0.565-1.175-1.185-1.813-1.841L72.157,32.63z"/>
		</g>
	</g>
	<path style="fill-rule:evenodd;clip-rule:evenodd;fill:#FFFFFF;" d="M15.82,68.085c0,0.062-0.089,0.093-0.272,0.093
		c-0.144,0-0.357-0.008-0.633-0.023c-0.28-0.016-0.489-0.023-0.633-0.023c-0.144,0-0.361,0.008-0.652,0.023
		c-0.287,0.015-0.505,0.023-0.649,0.023c-0.21,0-0.478-0.575-0.804-1.724c-0.326-1.15-0.656-1.732-0.994-1.748
		c-0.276-0.016-0.994-0.023-2.163-0.023H7.25c-1.231,0-1.934,0.008-2.109,0.023c-0.268,0.023-0.571,0.61-0.909,1.755
		c-0.338,1.146-0.598,1.717-0.781,1.717H0.904c-0.151,0-0.229-0.054-0.229-0.167c0-0.082,0.054-0.264,0.163-0.544l2.839-7.604
		c0.241-0.61,0.967-2.377,2.179-5.297c0.217-0.485,0.513-1.215,0.882-2.19c0.093-0.291,0.19-0.435,0.299-0.435
		c0.144,0,0.361,0.019,0.645,0.054c0.284,0.039,0.497,0.058,0.641,0.058c0.14,0,0.346-0.019,0.625-0.062
		c0.28-0.043,0.485-0.062,0.617-0.062c0.066,0,0.163,0.136,0.287,0.408c0.175,0.427,1.052,2.722,2.629,6.885
		C14.71,65.079,15.82,68.031,15.82,68.085L15.82,68.085z M10.582,61.767c-0.07-0.183-0.435-1.157-1.095-2.916
		c-0.641-1.709-1.06-2.839-1.27-3.394c-1.573,4.004-2.357,6.105-2.357,6.291c0,0.26,0.284,0.408,0.854,0.454
		c0.031,0.008,0.396,0.012,1.103,0.012h1.157C10.046,62.213,10.582,62.066,10.582,61.767z"/>
	<path style="fill-rule:evenodd;clip-rule:evenodd;fill:#FFFFFF;" d="M32.802,67.895c0,0.19-0.093,0.284-0.284,0.284
		c-0.136,0-0.342-0.012-0.617-0.035c-0.276-0.023-0.482-0.035-0.618-0.035s-0.346,0.012-0.625,0.035
		c-0.28,0.023-0.485,0.035-0.621,0.035c-0.19,0-0.284-0.124-0.284-0.377c0-0.963,0.027-2.408,0.089-4.334
		c0.062-1.926,0.089-3.371,0.089-4.338c0-0.144-0.027-0.214-0.089-0.214c-0.07,0-0.12,0.043-0.159,0.124
		c-0.388,0.827-1.301,3.041-2.742,6.633c-0.233,0.691-0.571,1.553-1.01,2.586c-0.054,0.085-0.33,0.128-0.823,0.128
		c-0.718,0-1.115-0.066-1.192-0.194c-0.256-0.614-0.625-1.476-1.107-2.583c-0.629-1.499-1.6-3.736-2.909-6.707
		c-0.023-0.054-0.07-0.105-0.148-0.159c-0.062,0.047-0.089,0.128-0.089,0.249c0,0.979,0.015,2.447,0.05,4.404
		c0.035,1.957,0.05,3.425,0.05,4.404c0,0.249-0.093,0.377-0.283,0.377c-0.132,0-0.326-0.012-0.594-0.035
		c-0.264-0.023-0.462-0.035-0.59-0.035c-0.136,0-0.342,0.012-0.61,0.035c-0.268,0.023-0.474,0.035-0.61,0.035
		c-0.19,0-0.284-0.074-0.284-0.217c0-0.843,0.039-2.105,0.117-3.782c0.078-1.682,0.116-2.944,0.116-3.782
		c0-0.874-0.039-2.182-0.116-3.934c-0.078-1.748-0.117-3.056-0.117-3.93c0-0.144,0.085-0.225,0.26-0.249
		c1.029-0.136,1.806-0.206,2.326-0.206c0.078,0,0.183,0.155,0.322,0.466c1.841,4.035,3.421,7.639,4.746,10.808
		c0.311,0.746,0.497,1.115,0.559,1.115c0.078,0,0.241-0.303,0.489-0.909c1.037-2.454,2.474-6.097,4.307-10.932
		c0.12-0.303,0.249-0.454,0.388-0.454c0.256,0,0.641,0.016,1.153,0.047c0.513,0.031,0.897,0.043,1.153,0.043
		c0.186,0,0.28,0.093,0.28,0.276c0,0.87-0.027,2.182-0.082,3.93c-0.054,1.748-0.082,3.06-0.082,3.93
		c0,0.835,0.031,2.085,0.093,3.755C32.771,65.821,32.802,67.068,32.802,67.895z"/>
	<path style="fill-rule:evenodd;clip-rule:evenodd;fill:#FFFFFF;" d="M49.798,60.19c0,2.252-0.722,4.19-2.163,5.813
		c-1.499,1.682-3.367,2.524-5.596,2.524c-2.237,0-4.105-0.839-5.596-2.513c-1.441-1.616-2.163-3.557-2.163-5.825
		c0-2.241,0.73-4.179,2.186-5.81c1.499-1.689,3.359-2.536,5.573-2.536c2.221,0,4.085,0.847,5.584,2.536
		C49.072,56.004,49.798,57.942,49.798,60.19L49.798,60.19z M47.049,60.159c0-1.487-0.462-2.781-1.386-3.883
		c-0.971-1.169-2.186-1.751-3.65-1.751c-1.449,0-2.656,0.59-3.619,1.775c-0.909,1.107-1.363,2.408-1.363,3.891
		c0,1.48,0.454,2.777,1.363,3.883c0.963,1.184,2.171,1.775,3.619,1.775c1.468,0,2.691-0.59,3.662-1.775
		C46.591,62.967,47.049,61.658,47.049,60.159z"/>
	<path style="fill-rule:evenodd;clip-rule:evenodd;fill:#FFFFFF;" d="M61.952,65.716c0,1.056-0.058,1.81-0.171,2.256
		c-0.054,0.221-0.186,0.33-0.396,0.33c-0.563,0-1.402-0.031-2.524-0.097c-1.122-0.062-1.961-0.097-2.524-0.097
		c-0.528,0-1.32,0.012-2.373,0.035c-1.052,0.023-1.845,0.035-2.377,0.035c-0.19,0-0.283-0.093-0.283-0.284
		c0-0.827,0.027-2.074,0.082-3.744c0.054-1.67,0.082-2.92,0.082-3.755c0-0.878-0.039-2.198-0.116-3.953
		c-0.078-1.755-0.117-3.072-0.117-3.953c0-0.167,0.093-0.249,0.284-0.249c0.14,0,0.346,0.012,0.629,0.035
		c0.28,0.023,0.493,0.035,0.637,0.035c0.136,0,0.349-0.012,0.637-0.035c0.291-0.023,0.501-0.035,0.641-0.035
		c0.183,0,0.272,0.074,0.272,0.217c0,0.804-0.031,2.012-0.093,3.627c-0.062,1.615-0.093,2.831-0.093,3.643c0,0.392,0,0.994,0,1.798
		c-0.008,0.804-0.012,1.402-0.012,1.798c0,1.682,0.07,2.524,0.206,2.524c2.792,0,4.905-0.066,6.326-0.202
		c0.07-0.008,0.245-0.035,0.524-0.082c0.225-0.043,0.4-0.066,0.524-0.066C61.875,65.499,61.952,65.573,61.952,65.716z"/>
	<path style="fill-rule:evenodd;clip-rule:evenodd;fill:#FFFFFF;" d="M81.365,52.466c0,0.882-0.035,2.198-0.105,3.953
		c-0.07,1.755-0.105,3.072-0.105,3.953c0,0.287,0.004,0.718,0.012,1.289c0.008,0.575,0.012,0.998,0.012,1.282
		c0,1.584-0.148,2.683-0.443,3.297c-0.458,0.94-1.34,1.577-2.652,1.911c-0.804,0.206-1.938,0.307-3.402,0.307
		c-2.656,0-4.396-0.439-5.223-1.32c-0.637-0.68-0.955-2.047-0.955-4.093c0-0.249,0.004-0.672,0.012-1.27
		c0.008-0.594,0.012-1.06,0.012-1.402c0-0.897-0.039-2.544-0.117-4.948c0-0.621-0.035-1.549-0.105-2.788
		c-0.008-0.089-0.012-0.151-0.012-0.179c0-0.159,0.097-0.241,0.295-0.241c0.311,0,0.734,0.004,1.266,0.012
		c0.614,0.008,1.033,0.012,1.254,0.012c0.175,0,0.26,0.066,0.26,0.206c0,1.15-0.023,2.885-0.07,5.196
		c-0.047,2.315-0.07,4.047-0.07,5.196c0,1.305,0.291,2.19,0.878,2.652c0.497,0.408,1.421,0.614,2.761,0.614
		c1.223,0,2.089-0.167,2.606-0.501c0.652-0.416,0.979-1.196,0.979-2.342c0-1.2-0.019-2.998-0.058-5.398
		c-0.039-2.4-0.058-4.198-0.058-5.398c0-0.12,0.109-0.194,0.33-0.225c0.159-0.023,0.385-0.023,0.68,0
		c0.35,0.031,0.513,0.047,0.501,0.047c0.136,0,0.342-0.012,0.617-0.035c0.276-0.023,0.482-0.035,0.617-0.035
		C81.271,52.217,81.365,52.299,81.365,52.466z"/>
	<path style="fill-rule:evenodd;clip-rule:evenodd;fill:#FFFFFF;" d="M93.286,67.949c0,0.167-0.078,0.252-0.229,0.252
		c-0.249,0-0.625-0.004-1.122-0.012c-0.497-0.008-0.87-0.012-1.122-0.012c-0.136,0-0.206-0.109-0.206-0.33
		c0-0.373,0.012-0.936,0.035-1.697c0.023-0.757,0.035-1.328,0.035-1.705c0-0.307-0.004-0.757-0.012-1.363
		c-0.008-0.602-0.012-1.056-0.012-1.359c0-0.866-0.124-1.476-0.373-1.833c-0.307-0.423-0.866-0.637-1.685-0.637
		c-0.377,0-0.905,0.214-1.581,0.641c-0.711,0.447-1.068,0.847-1.068,1.196v6.827c0,0.186-0.074,0.283-0.217,0.283
		c-0.241,0-0.606-0.004-1.091-0.012c-0.489-0.008-0.85-0.012-1.095-0.012c-0.159,0-0.241-0.085-0.241-0.26
		c0-0.602,0.012-1.499,0.031-2.699c0.019-1.2,0.027-2.101,0.027-2.711c0-1.616-0.167-3.107-0.501-4.47
		c-0.023-0.07-0.035-0.12-0.035-0.148c0-0.078,0.05-0.132,0.148-0.163c0.054-0.004,0.485-0.078,1.301-0.21
		c0.816-0.132,1.243-0.198,1.282-0.198c0.043,0,0.074,0.062,0.089,0.183c0.039,0.47,0.124,0.948,0.26,1.425
		c0.396-0.311,0.916-0.699,1.557-1.161c0.796-0.485,1.569-0.726,2.311-0.726c1.425,0,2.4,0.412,2.92,1.239
		c0.388,0.61,0.582,1.588,0.582,2.947c0,0.237-0.008,0.594-0.019,1.08c-0.012,0.485-0.016,0.85-0.016,1.095
		c0,0.505,0.008,1.266,0.023,2.272C93.278,66.683,93.286,67.444,93.286,67.949z"/>
	<path style="fill-rule:evenodd;clip-rule:evenodd;fill:#FFFFFF;" d="M97.98,54.571c0,0.932-0.52,1.398-1.561,1.398
		c-1.056,0-1.584-0.466-1.584-1.398c0-0.416,0.163-0.761,0.489-1.033c0.303-0.26,0.668-0.388,1.095-0.388
		c0.423,0,0.792,0.132,1.099,0.396C97.824,53.813,97.98,54.155,97.98,54.571L97.98,54.571z M97.886,57.654
		c0,0.583-0.035,1.464-0.105,2.645c-0.07,1.181-0.105,2.066-0.105,2.656c0,0.555,0.012,1.383,0.035,2.485
		c0.023,1.103,0.035,1.93,0.035,2.474c0,0.159-0.07,0.241-0.206,0.241h-2.221c-0.159,0-0.241-0.155-0.241-0.466
		c0-0.524,0.016-1.313,0.043-2.361c0.027-1.052,0.039-1.841,0.039-2.373c0-0.59-0.043-1.48-0.128-2.664
		c-0.085-1.181-0.128-2.07-0.128-2.66c0-0.128,0.078-0.194,0.237-0.194c0.136,0,0.346,0.019,0.629,0.058
		c0.284,0.035,0.497,0.054,0.641,0.054c0.144,0,0.357-0.019,0.641-0.054c0.283-0.039,0.497-0.058,0.641-0.058
		C97.82,57.437,97.886,57.511,97.886,57.654z"/>
	<path style="fill-rule:evenodd;clip-rule:evenodd;fill:#FFFFFF;" d="M109.528,60.641c0,1.072-0.031,1.697-0.093,1.872
		c-0.113,0.342-0.73,1.34-1.845,2.99c-1.146,1.693-1.825,2.586-2.047,2.676c-0.105,0.047-0.423,0.07-0.955,0.07
		c-0.509,0-0.843-0.023-1.002-0.07c-0.214-0.07-0.909-0.924-2.085-2.571c-1.146-1.6-1.786-2.575-1.922-2.924
		c-0.186-0.478-0.28-1.219-0.28-2.221c0-0.311,0.008-0.777,0.023-1.398c0.016-0.621,0.023-1.087,0.023-1.402
		c0-0.167,0.085-0.249,0.252-0.249c0.249,0,0.625,0.012,1.122,0.035c0.497,0.023,0.874,0.035,1.122,0.035
		c0.136,0,0.206,0.074,0.206,0.225c0,0.245-0.016,0.602-0.047,1.076c-0.031,0.474-0.047,0.831-0.047,1.076
		c0,0.699,0.039,1.336,0.116,1.911c0.039,0.287,0.423,0.994,1.15,2.117c0.73,1.122,1.181,1.682,1.355,1.682
		c0.167,0,0.583-0.548,1.247-1.647c0.652-1.08,1.002-1.755,1.049-2.035c0.062-0.381,0.093-1.037,0.093-1.965
		c0-0.249-0.023-0.625-0.07-1.13c-0.047-0.501-0.07-0.878-0.07-1.126c0-0.117,0.058-0.171,0.171-0.171
		c0.249,0,0.614-0.016,1.095-0.043c0.485-0.027,0.847-0.039,1.087-0.039C109.411,57.413,109.528,58.489,109.528,60.641z"/>
	<path style="fill-rule:evenodd;clip-rule:evenodd;fill:#FFFFFF;" d="M120.696,62.066c0,0.559-0.241,0.936-0.726,1.126
		c-0.33,0.12-2.68,0.346-7.056,0.676c0.097,0.668,0.466,1.235,1.107,1.705c0.61,0.447,1.262,0.672,1.961,0.672
		c1.204,0,2.307-0.385,3.309-1.15c0.124-0.101,0.245-0.198,0.365-0.295c0.062,0,0.101,0.008,0.12,0.023
		c0.019,0.015,0.163,0.276,0.427,0.784c0.268,0.513,0.4,0.784,0.4,0.823c0,0.047-0.062,0.132-0.183,0.26
		c-1.114,1.177-2.544,1.767-4.291,1.767c-1.759,0-3.161-0.524-4.21-1.577c-1.045-1.049-1.569-2.45-1.569-4.202
		c0-1.565,0.501-2.924,1.499-4.085c1.056-1.208,2.346-1.81,3.88-1.81c1.425,0,2.614,0.524,3.569,1.569
		C120.229,59.371,120.696,60.61,120.696,62.066L120.696,62.066z M117.993,61.375c0-0.629-0.249-1.188-0.746-1.674
		c-0.497-0.485-1.056-0.726-1.682-0.726c-0.699,0-1.316,0.28-1.86,0.839c-0.544,0.559-0.816,1.188-0.816,1.884
		c0,0.159,0.136,0.237,0.408,0.237c1.126,0,2.47-0.113,4.035-0.334C117.771,61.538,117.993,61.464,117.993,61.375z"/>
	<path style="fill-rule:evenodd;clip-rule:evenodd;fill:#FFFFFF;" d="M128.372,57.491c0,0.835-0.058,1.596-0.171,2.28
		c-0.023,0.175-0.101,0.26-0.229,0.26c-0.159,0-0.4-0.015-0.722-0.05c-0.326-0.035-0.571-0.05-0.738-0.05
		c-0.959,0-1.573,0.268-1.837,0.808c-0.159,0.326-0.241,1.006-0.241,2.035v1.254c0,0.423,0.016,1.068,0.047,1.934
		c0.031,0.862,0.047,1.507,0.047,1.934c0,0.202-0.085,0.307-0.26,0.307c-0.233,0-0.586-0.004-1.06-0.012
		c-0.474-0.008-0.831-0.012-1.064-0.012c-0.171,0-0.26-0.093-0.26-0.284c0-0.614,0.012-1.542,0.031-2.777
		c0.019-1.235,0.027-2.167,0.027-2.788c0-1.872-0.171-3.379-0.513-4.516c-0.016-0.062-0.023-0.105-0.023-0.136
		c0-0.093,0.05-0.155,0.148-0.194c0.276-0.031,0.668-0.078,1.173-0.14c0.812-0.155,1.188-0.233,1.126-0.233
		c0.12,0,0.202,0.225,0.237,0.676c0.039,0.454,0.109,0.68,0.206,0.68c0.015,0,0.035-0.008,0.058-0.023
		c0.311-0.198,0.621-0.396,0.936-0.598c0.342-0.206,0.691-0.357,1.052-0.458c0.295-0.089,0.676-0.136,1.142-0.136
		C128.077,57.25,128.372,57.332,128.372,57.491z"/>
	<path style="fill-rule:evenodd;clip-rule:evenodd;fill:#FFFFFF;" d="M134.511,64.668c0,1.13-0.45,2.035-1.355,2.718
		c-0.823,0.621-1.821,0.932-3.002,0.932c-0.454,0-0.715-0.012-0.777-0.035c-0.128-0.058-0.194-0.245-0.194-0.555
		c0-0.167-0.019-0.416-0.062-0.75c-0.043-0.334-0.062-0.579-0.062-0.738c0-0.097,0.07-0.163,0.206-0.194
		c0.097-0.023,0.237-0.023,0.419,0c0.237,0.023,0.349,0.035,0.342,0.035c1.437,0,2.155-0.443,2.155-1.324
		c0-0.416-0.315-0.796-0.94-1.146c-1.018-0.563-1.604-0.905-1.755-1.037c-0.625-0.536-0.94-1.243-0.94-2.113
		c0-1.138,0.431-2.023,1.289-2.66c0.777-0.571,1.755-0.854,2.944-0.854c0.105,0,0.183,0.051,0.233,0.148
		c0.05,0.101,0.144,0.408,0.287,0.924c0.14,0.517,0.21,0.827,0.21,0.936c0,0.082-0.074,0.136-0.217,0.159
		c-0.485,0.066-0.975,0.132-1.468,0.19c-0.586,0.159-0.878,0.478-0.878,0.951c0,0.342,0.307,0.687,0.917,1.037
		c0.905,0.505,1.48,0.874,1.72,1.103C134.2,62.986,134.511,63.743,134.511,64.668z"/>
	<path style="fill-rule:evenodd;clip-rule:evenodd;fill:#FFFFFF;" d="M138.688,54.571c0,0.932-0.52,1.398-1.561,1.398
		c-1.056,0-1.584-0.466-1.584-1.398c0-0.416,0.163-0.761,0.489-1.033c0.303-0.26,0.668-0.388,1.095-0.388
		c0.423,0,0.792,0.132,1.099,0.396C138.533,53.813,138.688,54.155,138.688,54.571L138.688,54.571z M138.595,57.654
		c0,0.583-0.035,1.464-0.105,2.645c-0.07,1.181-0.105,2.066-0.105,2.656c0,0.555,0.012,1.383,0.035,2.485
		c0.023,1.103,0.035,1.93,0.035,2.474c0,0.159-0.07,0.241-0.206,0.241h-2.221c-0.159,0-0.241-0.155-0.241-0.466
		c0-0.524,0.016-1.313,0.043-2.361c0.027-1.052,0.039-1.841,0.039-2.373c0-0.59-0.043-1.48-0.128-2.664
		c-0.085-1.181-0.128-2.07-0.128-2.66c0-0.128,0.078-0.194,0.237-0.194c0.136,0,0.346,0.019,0.629,0.058
		c0.284,0.035,0.497,0.054,0.641,0.054c0.144,0,0.357-0.019,0.641-0.054c0.283-0.039,0.497-0.058,0.641-0.058
		C138.529,57.437,138.595,57.511,138.595,57.654z"/>
	<path style="fill-rule:evenodd;clip-rule:evenodd;fill:#FFFFFF;" d="M146.764,66.097c0,0.167-0.015,0.392-0.047,0.68
		c-0.035,0.353-0.058,0.583-0.066,0.687c-0.008,0.136-0.019,0.218-0.035,0.249c-0.031,0.054-0.101,0.105-0.214,0.159
		c-0.621,0.299-1.596,0.447-2.928,0.447c-1.759,0-2.645-0.804-2.652-2.412c0-0.645,0.012-1.612,0.035-2.905
		c0.023-1.293,0.035-2.264,0.035-2.909c0-0.311-0.155-0.478-0.466-0.501c-0.284,0-0.559-0.004-0.831-0.012
		c-0.159-0.039-0.241-0.35-0.241-0.936c0-0.217,0.015-0.45,0.047-0.695c0.023-0.183,0.144-0.291,0.365-0.33
		c0.186,0,0.373-0.004,0.555-0.012c0.35-0.016,0.524-0.171,0.524-0.466c0-0.303-0.008-0.765-0.023-1.39
		c-0.015-0.621-0.023-1.087-0.023-1.398c0-0.555,0.105-0.831,0.318-0.831c0.066,0,0.777,0.116,2.124,0.349
		c0.175,0.023,0.26,0.105,0.26,0.249c0,0.338-0.027,0.839-0.082,1.507c-0.054,0.668-0.082,1.169-0.082,1.503
		c0,0.221,0.105,0.33,0.311,0.33h2.746c0.128,0,0.194,0.047,0.194,0.136c0,0.089-0.016,0.237-0.043,0.439
		c-0.027,0.198-0.039,0.35-0.039,0.447c0,0.113,0.004,0.287,0.012,0.524c0.008,0.233,0.012,0.408,0.012,0.52
		c0,0.144-0.105,0.217-0.318,0.217c-0.307,0-0.765-0.019-1.383-0.058c-0.614-0.039-1.072-0.058-1.379-0.058
		c-0.058,0-0.105,0.217-0.136,0.649c-0.015,0.54-0.023,1.293-0.023,2.268v1.697c0,0.652,0.062,1.107,0.183,1.363
		c0.179,0.396,0.551,0.594,1.118,0.594c0.233,0,0.575-0.051,1.029-0.151c0.45-0.101,0.788-0.151,1.006-0.151
		C146.718,65.895,146.764,65.961,146.764,66.097z"/>
	<path style="fill-rule:evenodd;clip-rule:evenodd;fill:#FFFFFF;" d="M157.536,60.264c0,1.285-0.039,2.058-0.116,2.326
		c-0.097,0.338-1.037,1.829-2.819,4.462c-1.783,2.637-2.839,4.109-3.173,4.423c-0.303,0.272-1.282,0.408-2.94,0.408
		c-0.198,0-0.322-0.019-0.381-0.062c-0.054-0.043-0.183-0.318-0.384-0.827c-0.198-0.509-0.299-0.812-0.299-0.909
		c0-0.171,0.202-0.252,0.606-0.252c0.85,0,1.476-0.12,1.88-0.361c0.136-0.085,0.346-0.346,0.621-0.784
		c0.276-0.435,0.416-0.73,0.416-0.882c0-0.206-0.548-1.006-1.647-2.404c-1.161-1.48-1.81-2.419-1.946-2.812
		c-0.109-0.315-0.163-1.056-0.163-2.233c0-0.291,0.004-0.726,0.012-1.305c0.008-0.583,0.012-1.021,0.012-1.316
		c0-0.167,0.089-0.249,0.272-0.249c0.245,0,0.602,0.012,1.08,0.043c0.474,0.031,0.831,0.047,1.076,0.047
		c0.12,0,0.183,0.082,0.183,0.241c0,0.21-0.012,0.528-0.035,0.955c-0.023,0.423-0.035,0.746-0.035,0.955
		c0,0.928,0.031,1.619,0.089,2.074c0.047,0.291,0.458,1.01,1.239,2.163c0.78,1.149,1.262,1.724,1.445,1.724
		c0.128,0,0.54-0.563,1.227-1.697c0.691-1.13,1.06-1.833,1.107-2.097c0.058-0.381,0.089-1.072,0.089-2.074
		c0-0.221-0.023-0.544-0.07-0.975c-0.047-0.427-0.07-0.749-0.07-0.963c0-0.19,0.062-0.283,0.183-0.283
		c0.245,0,0.61-0.016,1.099-0.051c0.493-0.035,0.858-0.05,1.103-0.05C157.423,57.499,157.536,58.419,157.536,60.264z"/>
	<path style="fill-rule:evenodd;clip-rule:evenodd;fill:#FFFFFF;" d="M174.405,62.633c0,1.584-0.52,2.94-1.557,4.062
		c-1.064,1.161-2.377,1.74-3.946,1.74c-1.581,0-2.897-0.575-3.961-1.728c-1.037-1.115-1.557-2.466-1.557-4.05
		c0-1.584,0.52-2.936,1.557-4.05c1.072-1.138,2.388-1.705,3.961-1.705c1.561,0,2.87,0.567,3.934,1.705
		C173.88,59.712,174.405,61.056,174.405,62.633L174.405,62.633z M172.005,62.656c0-0.924-0.284-1.713-0.854-2.365
		c-0.59-0.691-1.34-1.037-2.248-1.037c-0.913,0-1.666,0.342-2.264,1.025c-0.571,0.66-0.854,1.452-0.854,2.377
		c0,0.909,0.287,1.701,0.866,2.365c0.606,0.707,1.355,1.06,2.252,1.06c0.901,0,1.65-0.353,2.248-1.06
		C171.721,64.357,172.005,63.565,172.005,62.656z"/>
	<path style="fill-rule:evenodd;clip-rule:evenodd;fill:#FFFFFF;" d="M181.456,53.596c0,0.089-0.07,0.144-0.206,0.159
		c-0.373,0.039-0.742,0.074-1.107,0.101c-0.435,0.062-0.765,0.214-0.994,0.454c-0.373,0.404-0.559,1.421-0.559,3.056
		c0.252,0,0.645,0.008,1.184,0.023c0.54,0.015,0.948,0.023,1.223,0.023c0.183,0,0.272,0.066,0.272,0.206
		c0,0.214,0.008,0.528,0.023,0.951c0.015,0.423,0.023,0.738,0.023,0.944c0,0.144-0.078,0.217-0.229,0.217
		c-0.264,0-0.668-0.016-1.208-0.043c-0.54-0.027-0.936-0.039-1.196-0.039v3.398c0,0.532,0.019,1.336,0.058,2.412
		c0.035,1.076,0.054,1.88,0.054,2.412c0,0.206-0.074,0.307-0.225,0.307h-2.085c-0.198,0-0.295-0.116-0.295-0.353v-7.821
		c0-0.206-0.229-0.303-0.691-0.295c-0.497,0.008-0.761-0.012-0.788-0.058c-0.023-0.023-0.035-0.163-0.035-0.423
		c0-0.167-0.008-0.416-0.023-0.746c-0.015-0.334-0.023-0.583-0.023-0.749c0-0.159,0.482-0.268,1.445-0.318
		c-0.023-0.485-0.035-0.878-0.035-1.181c0-1.34,0.241-2.322,0.718-2.944c0.423-0.559,1.045-0.998,1.864-1.316
		c0.738-0.287,1.499-0.431,2.287-0.431c0.078,0,0.132,0.043,0.159,0.124c0.008,0.016,0.074,0.334,0.202,0.959
		C181.394,53.25,181.456,53.573,181.456,53.596z"/>
	<path style="fill-rule:evenodd;clip-rule:evenodd;fill:#FFFFFF;" d="M196.624,53.371c-0.151,0.252-0.361,0.633-0.625,1.142
		c-0.085,0.237-0.233,0.571-0.443,1.006c-0.047,0.066-0.109,0.101-0.183,0.101c0.008,0-0.357-0.136-1.099-0.408
		c-0.738-0.272-1.348-0.408-1.825-0.408c-1.394,0-2.093,0.614-2.093,1.841c0,0.68,0.489,1.278,1.468,1.786
		c1.643,0.854,2.551,1.348,2.726,1.48c0.979,0.781,1.468,1.833,1.468,3.161c0,1.701-0.672,3.041-2.016,4.019
		c-1.208,0.882-2.695,1.32-4.458,1.32c-0.819,0-1.258-0.089-1.32-0.272c-0.031-0.291-0.097-0.711-0.206-1.266
		c-0.058-0.225-0.155-0.567-0.283-1.021c-0.023-0.07-0.035-0.132-0.035-0.194c0-0.105,0.058-0.159,0.171-0.159
		c0.183,0,0.462,0.019,0.839,0.058c0.381,0.039,0.664,0.058,0.854,0.058c2.361,0,3.542-0.761,3.542-2.28
		c0-0.746-0.474-1.39-1.425-1.934c-1.736-0.986-2.621-1.499-2.66-1.538c-0.959-0.773-1.437-1.814-1.437-3.118
		c0-1.414,0.462-2.544,1.39-3.394c0.901-0.819,2.07-1.227,3.507-1.227c0.606,0,1.305,0.101,2.093,0.299
		c0.858,0.221,1.503,0.485,1.938,0.8C196.546,53.254,196.585,53.301,196.624,53.371z"/>
	<path style="fill-rule:evenodd;clip-rule:evenodd;fill:#FFFFFF;" d="M209.306,62.703c0,1.534-0.485,2.862-1.456,3.992
		c-1.017,1.192-2.28,1.786-3.79,1.786c-0.94,0-1.763-0.291-2.466-0.874c-0.318-0.295-0.637-0.594-0.959-0.897
		c-0.043,0.023-0.074,0.082-0.089,0.183c-0.008,0.047-0.012,0.47-0.012,1.274l-0.012,3.212c0,0.245-0.085,0.365-0.26,0.365
		c-1.165,0-1.852-0.015-2.062-0.047c-0.175-0.023-0.264-0.12-0.264-0.295c0-0.971,0.008-2.427,0.023-4.373
		c0.016-1.942,0.023-3.398,0.023-4.369c0-1.786-0.116-3.46-0.35-5.021c-0.015-0.093-0.023-0.151-0.023-0.183
		c0-0.082,0.039-0.136,0.113-0.159c0.291-0.016,0.711-0.058,1.266-0.124c0.742-0.136,1.161-0.202,1.25-0.202
		c0.132,0,0.214,0.229,0.252,0.687c0.023,0.307,0.043,0.606,0.054,0.905c0,0.062,0.023,0.124,0.07,0.183
		c0.054-0.027,0.113-0.082,0.183-0.159c1.06-1.091,2.136-1.639,3.219-1.639c1.503,0,2.769,0.586,3.798,1.763
		C208.809,59.841,209.306,61.173,209.306,62.703L209.306,62.703z M206.65,62.664c0-0.913-0.284-1.709-0.854-2.4
		c-0.598-0.734-1.348-1.103-2.245-1.103c-0.878,0-1.6,0.381-2.163,1.138c-0.517,0.68-0.773,1.476-0.773,2.384
		c0,0.928,0.264,1.728,0.796,2.412c0.586,0.734,1.328,1.103,2.233,1.103c0.866,0,1.592-0.385,2.186-1.15
		C206.378,64.338,206.65,63.542,206.65,62.664z"/>
	<path style="fill-rule:evenodd;clip-rule:evenodd;fill:#FFFFFF;" d="M220.268,62.066c0,0.559-0.241,0.936-0.726,1.126
		c-0.33,0.12-2.68,0.346-7.056,0.676c0.097,0.668,0.466,1.235,1.107,1.705c0.61,0.447,1.262,0.672,1.961,0.672
		c1.204,0,2.307-0.385,3.309-1.15c0.124-0.101,0.245-0.198,0.365-0.295c0.062,0,0.101,0.008,0.12,0.023
		c0.019,0.015,0.163,0.276,0.427,0.784c0.268,0.513,0.4,0.784,0.4,0.823c0,0.047-0.062,0.132-0.182,0.26
		c-1.115,1.177-2.544,1.767-4.291,1.767c-1.759,0-3.161-0.524-4.21-1.577c-1.045-1.049-1.569-2.45-1.569-4.202
		c0-1.565,0.501-2.924,1.499-4.085c1.056-1.208,2.346-1.81,3.88-1.81c1.425,0,2.614,0.524,3.569,1.569
		C219.802,59.371,220.268,60.61,220.268,62.066L220.268,62.066z M217.565,61.375c0-0.629-0.249-1.188-0.746-1.674
		c-0.497-0.485-1.056-0.726-1.682-0.726c-0.699,0-1.316,0.28-1.86,0.839c-0.544,0.559-0.816,1.188-0.816,1.884
		c0,0.159,0.136,0.237,0.408,0.237c1.126,0,2.47-0.113,4.035-0.334C217.343,61.538,217.565,61.464,217.565,61.375z"/>
	<path style="fill-rule:evenodd;clip-rule:evenodd;fill:#FFFFFF;" d="M229.389,57.856c0,0.167-0.085,0.54-0.26,1.114
		c-0.175,0.579-0.299,0.866-0.365,0.866c-0.342-0.151-0.687-0.299-1.033-0.45c-0.346-0.151-0.722-0.225-1.13-0.225
		c-0.936,0-1.713,0.346-2.338,1.033c-0.621,0.691-0.932,1.507-0.932,2.443c0,0.924,0.311,1.724,0.932,2.4
		c0.637,0.695,1.417,1.045,2.334,1.045c0.509,0,1.01-0.124,1.503-0.373c0.493-0.249,0.711-0.373,0.649-0.373
		c0.097,0,0.21,0.319,0.33,0.955c0.113,0.575,0.171,0.971,0.171,1.192c0,0.233-0.443,0.462-1.332,0.691
		c-0.746,0.19-1.293,0.283-1.65,0.283c-1.565,0-2.885-0.583-3.961-1.751c-1.056-1.138-1.584-2.497-1.584-4.074
		c0-1.608,0.516-2.975,1.55-4.097c1.064-1.153,2.388-1.728,3.973-1.728c1.064,0,2.039,0.268,2.917,0.808
		C229.311,57.709,229.389,57.786,229.389,57.856z"/>
	<path style="fill-rule:evenodd;clip-rule:evenodd;fill:#FFFFFF;" d="M233.333,54.571c0,0.932-0.52,1.398-1.561,1.398
		c-1.056,0-1.584-0.466-1.584-1.398c0-0.416,0.163-0.761,0.489-1.033c0.303-0.26,0.668-0.388,1.095-0.388
		c0.423,0,0.792,0.132,1.099,0.396C233.178,53.813,233.333,54.155,233.333,54.571L233.333,54.571z M233.24,57.654
		c0,0.583-0.035,1.464-0.105,2.645c-0.07,1.181-0.105,2.066-0.105,2.656c0,0.555,0.012,1.383,0.035,2.485
		c0.023,1.103,0.035,1.93,0.035,2.474c0,0.159-0.07,0.241-0.206,0.241h-2.221c-0.159,0-0.241-0.155-0.241-0.466
		c0-0.524,0.016-1.313,0.043-2.361c0.027-1.052,0.039-1.841,0.039-2.373c0-0.59-0.043-1.48-0.128-2.664
		c-0.085-1.181-0.128-2.07-0.128-2.66c0-0.128,0.078-0.194,0.237-0.194c0.136,0,0.346,0.019,0.629,0.058
		c0.284,0.035,0.497,0.054,0.641,0.054c0.144,0,0.357-0.019,0.641-0.054c0.283-0.039,0.497-0.058,0.641-0.058
		C233.174,57.437,233.24,57.511,233.24,57.654z"/>
	<path style="fill-rule:evenodd;clip-rule:evenodd;fill:#FFFFFF;" d="M246.14,57.879c0,0.031-0.012,0.097-0.035,0.206
		c-0.303,1.736-0.454,3.231-0.454,4.489c0,0.078,0.097,1.779,0.291,5.107l0.012,0.159c0.008,0.221-0.093,0.33-0.303,0.33
		c-0.21,0-0.524,0.023-0.948,0.074c-0.419,0.05-0.734,0.074-0.94,0.074c-0.144,0-0.252-0.264-0.33-0.792
		c-0.078-0.528-0.148-0.792-0.217-0.792c-0.047,0-0.249,0.148-0.614,0.443c-0.447,0.361-0.866,0.637-1.25,0.827
		c-0.602,0.303-1.2,0.454-1.798,0.454c-1.472,0-2.715-0.586-3.724-1.763c-0.955-1.122-1.433-2.431-1.433-3.926
		c0-1.682,0.482-3.076,1.445-4.175c1.01-1.146,2.338-1.717,3.984-1.717c1.161,0,2.175,0.404,3.037,1.208
		c0.128,0.151,0.33,0.373,0.606,0.66c0.019,0.023,0.043,0.035,0.066,0.035c0.047,0,0.113-0.237,0.194-0.718
		c0.085-0.478,0.19-0.718,0.322-0.718c0.206,0,0.59,0.058,1.153,0.171C245.829,57.65,246.14,57.775,246.14,57.879L246.14,57.879z
		 M243.227,62.637c0-0.932-0.276-1.728-0.831-2.396c-0.583-0.718-1.328-1.08-2.241-1.08c-0.909,0-1.666,0.357-2.276,1.068
		c-0.583,0.683-0.874,1.483-0.874,2.408c0,0.917,0.291,1.713,0.874,2.388c0.61,0.703,1.367,1.056,2.276,1.056
		c0.889,0,1.631-0.361,2.229-1.08C242.947,64.326,243.227,63.542,243.227,62.637z"/>
	<path style="fill-rule:evenodd;clip-rule:evenodd;fill:#FFFFFF;" d="M250.418,52.4l-0.012,0.148
		c-0.163,2.819-0.245,5.243-0.245,7.27c0,0.901,0.016,2.252,0.047,4.054c0.031,1.802,0.043,3.149,0.043,4.047
		c0,0.175-0.058,0.26-0.179,0.26h-2.175c-0.136,0-0.206-0.085-0.206-0.26c0-0.897,0.008-2.245,0.023-4.047
		c0.016-1.802,0.023-3.153,0.023-4.054c0-0.819-0.039-2.05-0.116-3.693c-0.078-1.643-0.116-2.866-0.116-3.678
		c0-0.151,0.078-0.229,0.237-0.229c0.136,0,0.342,0.012,0.614,0.035c0.272,0.023,0.474,0.035,0.614,0.035
		c0.14,0,0.353-0.012,0.633-0.035c0.28-0.023,0.485-0.035,0.621-0.035C250.36,52.217,250.426,52.28,250.418,52.4z"/>
	<path style="fill-rule:evenodd;clip-rule:evenodd;fill:#FFFFFF;" d="M273.768,67.895c0,0.19-0.093,0.284-0.284,0.284
		c-0.136,0-0.342-0.012-0.617-0.035c-0.276-0.023-0.482-0.035-0.618-0.035s-0.346,0.012-0.625,0.035
		c-0.28,0.023-0.485,0.035-0.621,0.035c-0.19,0-0.284-0.124-0.284-0.377c0-0.963,0.027-2.408,0.089-4.334
		c0.062-1.926,0.089-3.371,0.089-4.338c0-0.144-0.027-0.214-0.089-0.214c-0.07,0-0.12,0.043-0.159,0.124
		c-0.388,0.827-1.301,3.041-2.742,6.633c-0.233,0.691-0.571,1.553-1.01,2.586c-0.054,0.085-0.33,0.128-0.823,0.128
		c-0.718,0-1.115-0.066-1.192-0.194c-0.256-0.614-0.625-1.476-1.107-2.583c-0.629-1.499-1.6-3.736-2.909-6.707
		c-0.023-0.054-0.07-0.105-0.148-0.159c-0.062,0.047-0.089,0.128-0.089,0.249c0,0.979,0.016,2.447,0.05,4.404
		c0.035,1.957,0.05,3.425,0.05,4.404c0,0.249-0.093,0.377-0.283,0.377c-0.132,0-0.326-0.012-0.594-0.035
		c-0.264-0.023-0.462-0.035-0.59-0.035c-0.136,0-0.342,0.012-0.61,0.035c-0.268,0.023-0.474,0.035-0.61,0.035
		c-0.19,0-0.284-0.074-0.284-0.217c0-0.843,0.039-2.105,0.117-3.782c0.078-1.682,0.116-2.944,0.116-3.782
		c0-0.874-0.039-2.182-0.116-3.934c-0.078-1.748-0.117-3.056-0.117-3.93c0-0.144,0.085-0.225,0.26-0.249
		c1.029-0.136,1.806-0.206,2.326-0.206c0.078,0,0.183,0.155,0.322,0.466c1.841,4.035,3.421,7.639,4.746,10.808
		c0.311,0.746,0.497,1.115,0.559,1.115c0.078,0,0.241-0.303,0.489-0.909c1.037-2.454,2.474-6.097,4.307-10.932
		c0.12-0.303,0.249-0.454,0.388-0.454c0.256,0,0.641,0.016,1.153,0.047c0.513,0.031,0.897,0.043,1.153,0.043
		c0.186,0,0.28,0.093,0.28,0.276c0,0.87-0.027,2.182-0.082,3.93c-0.054,1.748-0.082,3.06-0.082,3.93
		c0,0.835,0.031,2.085,0.093,3.755C273.737,65.821,273.768,67.068,273.768,67.895z"/>
	<path style="fill-rule:evenodd;clip-rule:evenodd;fill:#FFFFFF;" d="M286.012,62.633c0,1.584-0.52,2.94-1.557,4.062
		c-1.064,1.161-2.377,1.74-3.946,1.74c-1.581,0-2.897-0.575-3.961-1.728c-1.037-1.115-1.557-2.466-1.557-4.05
		c0-1.584,0.52-2.936,1.557-4.05c1.072-1.138,2.388-1.705,3.961-1.705c1.561,0,2.87,0.567,3.934,1.705
		C285.487,59.712,286.012,61.056,286.012,62.633L286.012,62.633z M283.612,62.656c0-0.924-0.284-1.713-0.854-2.365
		c-0.59-0.691-1.34-1.037-2.249-1.037c-0.913,0-1.666,0.342-2.264,1.025c-0.571,0.66-0.854,1.452-0.854,2.377
		c0,0.909,0.287,1.701,0.866,2.365c0.606,0.707,1.355,1.06,2.252,1.06c0.901,0,1.65-0.353,2.249-1.06
		C283.328,64.357,283.612,63.565,283.612,62.656z"/>
	<path style="fill-rule:evenodd;clip-rule:evenodd;fill:#FFFFFF;" d="M298.119,52.314c0,0.979-0.043,2.447-0.128,4.396
		c-0.085,1.953-0.128,3.414-0.128,4.384c0,2.994,0.066,5.262,0.198,6.8l0.012,0.148c0.008,0.078-0.097,0.124-0.307,0.148
		c-0.148,0.016-0.353,0.016-0.617,0c-0.322-0.023-0.47-0.035-0.447-0.035c-0.113,0-0.283,0.012-0.505,0.035
		c-0.217,0.023-0.388,0.035-0.501,0.035c-0.109,0-0.171-0.268-0.19-0.8c-0.019-0.532-0.05-0.8-0.089-0.808
		c-0.047,0.023-0.101,0.074-0.171,0.148c-1.037,1.13-2.233,1.693-3.581,1.693c-1.53,0-2.788-0.583-3.775-1.751
		c-0.932-1.099-1.398-2.427-1.398-3.981c0-1.616,0.47-2.975,1.41-4.074c0.986-1.153,2.272-1.728,3.86-1.728
		c0.955,0,1.79,0.28,2.501,0.843c0.326,0.284,0.652,0.567,0.971,0.858c0.058-0.023,0.089-0.078,0.089-0.159v-3.689
		c0-0.249-0.012-0.629-0.035-1.138c-0.023-0.509-0.035-0.889-0.035-1.149c0-0.183,0.062-0.272,0.182-0.272
		c0.28,0,0.699-0.023,1.25-0.07c0.555-0.047,0.967-0.07,1.239-0.07C298.053,52.078,298.119,52.155,298.119,52.314L298.119,52.314z
		 M295.276,62.66c0-0.909-0.28-1.709-0.843-2.396c-0.598-0.734-1.34-1.103-2.229-1.103c-0.932,0-1.701,0.365-2.307,1.091
		c-0.579,0.684-0.866,1.499-0.866,2.454c0,0.909,0.299,1.701,0.897,2.377c0.617,0.711,1.375,1.068,2.276,1.068
		c0.913,0,1.662-0.361,2.252-1.08C295.005,64.396,295.276,63.592,295.276,62.66z"/>
	<path style="fill-rule:evenodd;clip-rule:evenodd;fill:#FFFFFF;" d="M309.341,62.066c0,0.559-0.241,0.936-0.726,1.126
		c-0.33,0.12-2.68,0.346-7.056,0.676c0.097,0.668,0.466,1.235,1.107,1.705c0.61,0.447,1.262,0.672,1.961,0.672
		c1.204,0,2.307-0.385,3.309-1.15c0.124-0.101,0.245-0.198,0.365-0.295c0.062,0,0.101,0.008,0.12,0.023
		c0.019,0.015,0.163,0.276,0.427,0.784c0.268,0.513,0.4,0.784,0.4,0.823c0,0.047-0.062,0.132-0.182,0.26
		c-1.115,1.177-2.544,1.767-4.291,1.767c-1.759,0-3.161-0.524-4.21-1.577c-1.045-1.049-1.569-2.45-1.569-4.202
		c0-1.565,0.501-2.924,1.499-4.085c1.056-1.208,2.346-1.81,3.88-1.81c1.425,0,2.614,0.524,3.569,1.569
		C308.875,59.371,309.341,60.61,309.341,62.066L309.341,62.066z M306.638,61.375c0-0.629-0.249-1.188-0.746-1.674
		c-0.497-0.485-1.056-0.726-1.682-0.726c-0.699,0-1.316,0.28-1.86,0.839c-0.544,0.559-0.816,1.188-0.816,1.884
		c0,0.159,0.136,0.237,0.408,0.237c1.126,0,2.47-0.113,4.035-0.334C306.417,61.538,306.638,61.464,306.638,61.375z"/>
	<path style="fill-rule:evenodd;clip-rule:evenodd;fill:#FFFFFF;" d="M317.018,57.491c0,0.835-0.058,1.596-0.171,2.28
		c-0.023,0.175-0.101,0.26-0.229,0.26c-0.159,0-0.4-0.015-0.722-0.05c-0.326-0.035-0.571-0.05-0.738-0.05
		c-0.959,0-1.573,0.268-1.837,0.808c-0.159,0.326-0.241,1.006-0.241,2.035v1.254c0,0.423,0.016,1.068,0.047,1.934
		c0.031,0.862,0.047,1.507,0.047,1.934c0,0.202-0.085,0.307-0.26,0.307c-0.233,0-0.586-0.004-1.06-0.012
		c-0.474-0.008-0.831-0.012-1.064-0.012c-0.171,0-0.26-0.093-0.26-0.284c0-0.614,0.012-1.542,0.031-2.777
		c0.019-1.235,0.027-2.167,0.027-2.788c0-1.872-0.171-3.379-0.513-4.516c-0.016-0.062-0.023-0.105-0.023-0.136
		c0-0.093,0.05-0.155,0.148-0.194c0.276-0.031,0.668-0.078,1.173-0.14c0.812-0.155,1.188-0.233,1.126-0.233
		c0.12,0,0.202,0.225,0.237,0.676c0.039,0.454,0.109,0.68,0.206,0.68c0.016,0,0.035-0.008,0.058-0.023
		c0.311-0.198,0.621-0.396,0.936-0.598c0.342-0.206,0.691-0.357,1.052-0.458c0.295-0.089,0.676-0.136,1.142-0.136
		C316.722,57.25,317.018,57.332,317.018,57.491z"/>
	<path style="fill-rule:evenodd;clip-rule:evenodd;fill:#FFFFFF;" d="M327.863,67.949c0,0.167-0.078,0.252-0.229,0.252
		c-0.249,0-0.625-0.004-1.122-0.012c-0.497-0.008-0.87-0.012-1.122-0.012c-0.136,0-0.206-0.109-0.206-0.33
		c0-0.373,0.012-0.936,0.035-1.697c0.023-0.757,0.035-1.328,0.035-1.705c0-0.307-0.004-0.757-0.012-1.363
		c-0.008-0.602-0.012-1.056-0.012-1.359c0-0.866-0.124-1.476-0.373-1.833c-0.307-0.423-0.866-0.637-1.685-0.637
		c-0.377,0-0.905,0.214-1.581,0.641c-0.711,0.447-1.068,0.847-1.068,1.196v6.827c0,0.186-0.074,0.283-0.217,0.283
		c-0.241,0-0.606-0.004-1.091-0.012c-0.489-0.008-0.85-0.012-1.095-0.012c-0.159,0-0.241-0.085-0.241-0.26
		c0-0.602,0.012-1.499,0.031-2.699c0.019-1.2,0.027-2.101,0.027-2.711c0-1.616-0.167-3.107-0.501-4.47
		c-0.023-0.07-0.035-0.12-0.035-0.148c0-0.078,0.05-0.132,0.148-0.163c0.054-0.004,0.485-0.078,1.301-0.21
		c0.816-0.132,1.243-0.198,1.282-0.198c0.043,0,0.074,0.062,0.089,0.183c0.039,0.47,0.124,0.948,0.26,1.425
		c0.396-0.311,0.916-0.699,1.557-1.161c0.796-0.485,1.569-0.726,2.311-0.726c1.425,0,2.4,0.412,2.92,1.239
		c0.388,0.61,0.582,1.588,0.582,2.947c0,0.237-0.008,0.594-0.019,1.08c-0.012,0.485-0.016,0.85-0.016,1.095
		c0,0.505,0.008,1.266,0.023,2.272C327.855,66.683,327.863,67.444,327.863,67.949z"/>
	<path style="fill-rule:evenodd;clip-rule:evenodd;fill:#FFFFFF;" d="M345.687,54.369c0,0.198-0.07,0.295-0.206,0.295
		c-0.214,0-1.557-0.047-4.035-0.14c-0.062,2.315-0.093,4.167-0.093,5.565c0,0.87,0.031,2.179,0.093,3.926
		c0.062,1.744,0.093,3.052,0.093,3.922c0,0.159-0.109,0.241-0.33,0.241c-0.136,0-0.342-0.012-0.625-0.035
		c-0.28-0.023-0.489-0.035-0.633-0.035c-0.136,0-0.346,0.012-0.625,0.035c-0.28,0.023-0.489,0.035-0.625,0.035
		c-0.19,0-0.283-0.093-0.283-0.284c0-0.866,0.035-2.163,0.105-3.899c0.07-1.732,0.105-3.037,0.105-3.907
		c0-1.351-0.039-3.208-0.117-5.565c-1.961,0.124-3.402,0.186-4.314,0.186c-0.089,0-0.136-0.039-0.136-0.113
		c0-0.14,0.035-0.334,0.105-0.594c0.085-0.334,0.136-0.532,0.151-0.59c0.016-0.268,0.07-0.637,0.163-1.107
		c0.039-0.097,0.101-0.148,0.194-0.148l0.136,0.012c2.684,0.155,4.454,0.233,5.313,0.233c0.757,0,2-0.054,3.72-0.167
		c1.177-0.074,1.666-0.113,1.468-0.113c0.198,0,0.307,0.07,0.33,0.206c-0.016-0.082-0.023,0.284-0.023,1.103
		c0,0.101,0.012,0.252,0.035,0.462C345.675,54.105,345.687,54.26,345.687,54.369z"/>
	<path style="fill-rule:evenodd;clip-rule:evenodd;fill:#FFFFFF;" d="M356.233,62.066c0,0.559-0.241,0.936-0.726,1.126
		c-0.33,0.12-2.68,0.346-7.056,0.676c0.097,0.668,0.466,1.235,1.107,1.705c0.61,0.447,1.262,0.672,1.961,0.672
		c1.204,0,2.307-0.385,3.309-1.15c0.124-0.101,0.245-0.198,0.365-0.295c0.062,0,0.101,0.008,0.12,0.023
		c0.019,0.015,0.163,0.276,0.427,0.784c0.268,0.513,0.4,0.784,0.4,0.823c0,0.047-0.062,0.132-0.183,0.26
		c-1.115,1.177-2.544,1.767-4.291,1.767c-1.759,0-3.161-0.524-4.21-1.577c-1.045-1.049-1.569-2.45-1.569-4.202
		c0-1.565,0.501-2.924,1.499-4.085c1.056-1.208,2.346-1.81,3.88-1.81c1.425,0,2.614,0.524,3.569,1.569
		C355.767,59.371,356.233,60.61,356.233,62.066L356.233,62.066z M353.53,61.375c0-0.629-0.249-1.188-0.746-1.674
		c-0.497-0.485-1.056-0.726-1.682-0.726c-0.699,0-1.316,0.28-1.86,0.839c-0.544,0.559-0.816,1.188-0.816,1.884
		c0,0.159,0.136,0.237,0.408,0.237c1.126,0,2.47-0.113,4.035-0.334C353.309,61.538,353.53,61.464,353.53,61.375z"/>
	<path style="fill-rule:evenodd;clip-rule:evenodd;fill:#FFFFFF;" d="M365.354,57.856c0,0.167-0.085,0.54-0.26,1.114
		c-0.175,0.579-0.299,0.866-0.365,0.866c-0.342-0.151-0.687-0.299-1.033-0.45c-0.346-0.151-0.722-0.225-1.13-0.225
		c-0.936,0-1.713,0.346-2.338,1.033c-0.621,0.691-0.932,1.507-0.932,2.443c0,0.924,0.311,1.724,0.932,2.4
		c0.637,0.695,1.417,1.045,2.334,1.045c0.509,0,1.01-0.124,1.503-0.373c0.493-0.249,0.711-0.373,0.649-0.373
		c0.097,0,0.21,0.319,0.33,0.955c0.113,0.575,0.171,0.971,0.171,1.192c0,0.233-0.443,0.462-1.332,0.691
		c-0.746,0.19-1.293,0.283-1.65,0.283c-1.565,0-2.885-0.583-3.961-1.751c-1.056-1.138-1.584-2.497-1.584-4.074
		c0-1.608,0.516-2.975,1.55-4.097c1.064-1.153,2.388-1.728,3.973-1.728c1.064,0,2.039,0.268,2.917,0.808
		C365.277,57.709,365.354,57.786,365.354,57.856z"/>
	<path style="fill-rule:evenodd;clip-rule:evenodd;fill:#FFFFFF;" d="M376.266,67.778c0,0.284-0.082,0.423-0.241,0.423
		c-0.233,0-0.59-0.004-1.072-0.012c-0.478-0.008-0.835-0.012-1.068-0.012c-0.19,0-0.287-0.124-0.287-0.377
		c0-0.365,0.015-0.913,0.043-1.65c0.027-0.734,0.039-1.289,0.039-1.662c0-0.35-0.012-0.878-0.039-1.588
		c-0.027-0.707-0.043-1.243-0.043-1.596c0-1.367-0.641-2.05-1.93-2.05c-0.419,0-0.963,0.21-1.639,0.625
		c-0.718,0.447-1.08,0.858-1.08,1.231v6.761c0,0.217-0.078,0.33-0.237,0.33c-0.237,0-0.586-0.004-1.056-0.012
		c-0.47-0.008-0.819-0.012-1.056-0.012c-0.175,0-0.26-0.101-0.26-0.307v-5.495c0-0.893-0.05-2.8-0.151-5.709
		c-0.016-0.905-0.082-2.241-0.198-4.008c-0.016-0.089-0.023-0.151-0.023-0.183c0-0.128,0.047-0.206,0.136-0.237
		c0.128-0.043,0.559-0.066,1.285-0.066c0.159,0,0.4-0.027,0.718-0.085c0.318-0.054,0.551-0.082,0.695-0.082
		c0.097,0,0.148,0.074,0.148,0.217c0,0.711-0.027,1.786-0.082,3.216c-0.054,1.429-0.078,2.505-0.078,3.215
		c0,0.175,0.027,0.268,0.089,0.276c0.388-0.33,0.885-0.726,1.499-1.192c0.742-0.466,1.526-0.699,2.353-0.699
		c1.421,0,2.404,0.423,2.944,1.274c0.384,0.621,0.579,1.608,0.579,2.959c0,0.233-0.008,0.598-0.019,1.087
		c-0.012,0.489-0.016,0.85-0.016,1.083c0,0.485,0.008,1.212,0.023,2.175C376.258,66.582,376.266,67.301,376.266,67.778z"/>
	<path style="fill-rule:evenodd;clip-rule:evenodd;fill:#FFFFFF;" d="M388.043,67.949c0,0.167-0.078,0.252-0.229,0.252
		c-0.249,0-0.625-0.004-1.122-0.012c-0.497-0.008-0.87-0.012-1.122-0.012c-0.136,0-0.206-0.109-0.206-0.33
		c0-0.373,0.012-0.936,0.035-1.697c0.023-0.757,0.035-1.328,0.035-1.705c0-0.307-0.004-0.757-0.012-1.363
		c-0.008-0.602-0.012-1.056-0.012-1.359c0-0.866-0.124-1.476-0.373-1.833c-0.307-0.423-0.866-0.637-1.685-0.637
		c-0.377,0-0.905,0.214-1.581,0.641c-0.711,0.447-1.068,0.847-1.068,1.196v6.827c0,0.186-0.074,0.283-0.217,0.283
		c-0.241,0-0.606-0.004-1.091-0.012c-0.489-0.008-0.85-0.012-1.095-0.012c-0.159,0-0.241-0.085-0.241-0.26
		c0-0.602,0.012-1.499,0.031-2.699c0.019-1.2,0.027-2.101,0.027-2.711c0-1.616-0.167-3.107-0.501-4.47
		c-0.023-0.07-0.035-0.12-0.035-0.148c0-0.078,0.05-0.132,0.148-0.163c0.054-0.004,0.485-0.078,1.301-0.21
		c0.816-0.132,1.243-0.198,1.282-0.198c0.043,0,0.074,0.062,0.089,0.183c0.039,0.47,0.124,0.948,0.26,1.425
		c0.396-0.311,0.917-0.699,1.557-1.161c0.796-0.485,1.569-0.726,2.311-0.726c1.425,0,2.4,0.412,2.92,1.239
		c0.388,0.61,0.582,1.588,0.582,2.947c0,0.237-0.008,0.594-0.019,1.08c-0.012,0.485-0.015,0.85-0.015,1.095
		c0,0.505,0.008,1.266,0.023,2.272C388.035,66.683,388.043,67.444,388.043,67.949z"/>
	<path style="fill-rule:evenodd;clip-rule:evenodd;fill:#FFFFFF;" d="M400.077,62.633c0,1.584-0.52,2.94-1.557,4.062
		c-1.064,1.161-2.377,1.74-3.946,1.74c-1.581,0-2.897-0.575-3.961-1.728c-1.037-1.115-1.557-2.466-1.557-4.05
		c0-1.584,0.52-2.936,1.557-4.05c1.072-1.138,2.388-1.705,3.961-1.705c1.561,0,2.87,0.567,3.934,1.705
		C399.552,59.712,400.077,61.056,400.077,62.633L400.077,62.633z M397.677,62.656c0-0.924-0.284-1.713-0.854-2.365
		c-0.59-0.691-1.34-1.037-2.249-1.037c-0.913,0-1.666,0.342-2.264,1.025c-0.571,0.66-0.854,1.452-0.854,2.377
		c0,0.909,0.287,1.701,0.866,2.365c0.606,0.707,1.355,1.06,2.252,1.06c0.901,0,1.651-0.353,2.249-1.06
		C397.393,64.357,397.677,63.565,397.677,62.656z"/>
	<path style="fill-rule:evenodd;clip-rule:evenodd;fill:#FFFFFF;" d="M404.122,52.4l-0.012,0.148
		c-0.163,2.819-0.245,5.243-0.245,7.27c0,0.901,0.016,2.252,0.047,4.054c0.031,1.802,0.043,3.149,0.043,4.047
		c0,0.175-0.058,0.26-0.179,0.26h-2.175c-0.136,0-0.206-0.085-0.206-0.26c0-0.897,0.008-2.245,0.023-4.047
		c0.016-1.802,0.023-3.153,0.023-4.054c0-0.819-0.039-2.05-0.116-3.693c-0.078-1.643-0.116-2.866-0.116-3.678
		c0-0.151,0.078-0.229,0.237-0.229c0.136,0,0.342,0.012,0.614,0.035c0.272,0.023,0.474,0.035,0.614,0.035
		c0.14,0,0.353-0.012,0.633-0.035c0.28-0.023,0.485-0.035,0.621-0.035C404.064,52.217,404.13,52.28,404.122,52.4z"/>
	<path style="fill-rule:evenodd;clip-rule:evenodd;fill:#FFFFFF;" d="M416.253,62.633c0,1.584-0.52,2.94-1.557,4.062
		c-1.064,1.161-2.377,1.74-3.946,1.74c-1.581,0-2.897-0.575-3.961-1.728c-1.037-1.115-1.557-2.466-1.557-4.05
		c0-1.584,0.52-2.936,1.557-4.05c1.072-1.138,2.388-1.705,3.961-1.705c1.561,0,2.87,0.567,3.934,1.705
		C415.729,59.712,416.253,61.056,416.253,62.633L416.253,62.633z M413.853,62.656c0-0.924-0.284-1.713-0.854-2.365
		c-0.59-0.691-1.34-1.037-2.248-1.037c-0.913,0-1.666,0.342-2.264,1.025c-0.571,0.66-0.854,1.452-0.854,2.377
		c0,0.909,0.287,1.701,0.866,2.365c0.606,0.707,1.355,1.06,2.252,1.06c0.901,0,1.65-0.353,2.248-1.06
		C413.569,64.357,413.853,63.565,413.853,62.656z"/>
	<path style="fill-rule:evenodd;clip-rule:evenodd;fill:#FFFFFF;" d="M427.452,57.569c0,0.913-0.008,2.28-0.023,4.105
		c-0.016,1.825-0.023,3.192-0.023,4.101c0,1.806-0.388,3.138-1.161,3.996c-0.812,0.913-2.109,1.367-3.895,1.367
		c-1.72,0-3.115-0.326-4.175-0.975c-0.167-0.105-0.252-0.198-0.252-0.272c0,0.082,0.113-0.478,0.342-1.682
		c0.023-0.128,0.078-0.194,0.159-0.194c0.039,0,0.089,0.019,0.148,0.058c1.142,0.645,2.283,0.967,3.429,0.967
		c0.753,0,1.379-0.167,1.872-0.501c0.567-0.377,0.854-0.928,0.854-1.647c0-0.159-0.016-0.517-0.047-1.068
		c-0.843,1.025-1.911,1.538-3.212,1.538c-1.402,0-2.555-0.505-3.46-1.515c-0.866-0.971-1.297-2.167-1.297-3.584
		c0-1.441,0.419-2.668,1.254-3.678c0.889-1.076,2.043-1.616,3.464-1.616c1.254,0,2.252,0.482,2.99,1.441
		c0.12,0.159,0.206,0.237,0.26,0.237c0.062,0,0.089-0.07,0.089-0.206c0-0.097-0.008-0.256-0.023-0.47
		c-0.012-0.217-0.019-0.377-0.019-0.482c0-0.454,0.043-0.683,0.136-0.683c0.074,0,0.482,0.07,1.219,0.21
		c0.742,0.14,1.146,0.225,1.212,0.256C427.397,57.313,427.452,57.41,427.452,57.569L427.452,57.569z M424.725,62.264
		c0-0.847-0.233-1.569-0.695-2.159c-0.509-0.645-1.177-0.967-2-0.967c-0.819,0-1.483,0.326-1.992,0.979
		c-0.462,0.59-0.695,1.309-0.695,2.148c0,0.827,0.237,1.542,0.707,2.14c0.509,0.652,1.169,0.979,1.981,0.979
		c0.804,0,1.464-0.326,1.977-0.979C424.485,63.806,424.725,63.091,424.725,62.264z"/>
	<path style="fill-rule:evenodd;clip-rule:evenodd;fill:#FFFFFF;" d="M432.076,54.571c0,0.932-0.52,1.398-1.561,1.398
		c-1.056,0-1.584-0.466-1.584-1.398c0-0.416,0.163-0.761,0.489-1.033c0.303-0.26,0.668-0.388,1.095-0.388
		c0.423,0,0.792,0.132,1.099,0.396C431.92,53.813,432.076,54.155,432.076,54.571L432.076,54.571z M431.982,57.654
		c0,0.583-0.035,1.464-0.105,2.645c-0.07,1.181-0.105,2.066-0.105,2.656c0,0.555,0.012,1.383,0.035,2.485
		c0.023,1.103,0.035,1.93,0.035,2.474c0,0.159-0.07,0.241-0.206,0.241h-2.221c-0.159,0-0.241-0.155-0.241-0.466
		c0-0.524,0.016-1.313,0.043-2.361c0.027-1.052,0.039-1.841,0.039-2.373c0-0.59-0.043-1.48-0.128-2.664
		c-0.085-1.181-0.128-2.07-0.128-2.66c0-0.128,0.078-0.194,0.237-0.194c0.136,0,0.346,0.019,0.629,0.058
		c0.284,0.035,0.497,0.054,0.641,0.054c0.144,0,0.357-0.019,0.641-0.054c0.283-0.039,0.497-0.058,0.641-0.058
		C431.916,57.437,431.982,57.511,431.982,57.654z"/>
	<path style="fill-rule:evenodd;clip-rule:evenodd;fill:#FFFFFF;" d="M443.437,62.066c0,0.559-0.241,0.936-0.726,1.126
		c-0.33,0.12-2.68,0.346-7.056,0.676c0.097,0.668,0.466,1.235,1.107,1.705c0.61,0.447,1.262,0.672,1.961,0.672
		c1.204,0,2.307-0.385,3.309-1.15c0.124-0.101,0.245-0.198,0.365-0.295c0.062,0,0.101,0.008,0.12,0.023
		c0.019,0.015,0.163,0.276,0.427,0.784c0.268,0.513,0.4,0.784,0.4,0.823c0,0.047-0.062,0.132-0.182,0.26
		c-1.115,1.177-2.544,1.767-4.291,1.767c-1.759,0-3.161-0.524-4.21-1.577c-1.045-1.049-1.569-2.45-1.569-4.202
		c0-1.565,0.501-2.924,1.499-4.085c1.056-1.208,2.346-1.81,3.88-1.81c1.425,0,2.614,0.524,3.569,1.569
		C442.971,59.371,443.437,60.61,443.437,62.066L443.437,62.066z M440.734,61.375c0-0.629-0.249-1.188-0.746-1.674
		c-0.497-0.485-1.056-0.726-1.682-0.726c-0.699,0-1.317,0.28-1.86,0.839c-0.544,0.559-0.816,1.188-0.816,1.884
		c0,0.159,0.136,0.237,0.408,0.237c1.126,0,2.47-0.113,4.035-0.334C440.513,61.538,440.734,61.464,440.734,61.375z"/>
	<path style="fill-rule:evenodd;clip-rule:evenodd;fill:#FFFFFF;" d="M449.925,64.668c0,1.13-0.45,2.035-1.355,2.718
		c-0.823,0.621-1.821,0.932-3.002,0.932c-0.454,0-0.715-0.012-0.777-0.035c-0.128-0.058-0.194-0.245-0.194-0.555
		c0-0.167-0.019-0.416-0.062-0.75c-0.043-0.334-0.062-0.579-0.062-0.738c0-0.097,0.07-0.163,0.206-0.194
		c0.097-0.023,0.237-0.023,0.419,0c0.237,0.023,0.349,0.035,0.342,0.035c1.437,0,2.155-0.443,2.155-1.324
		c0-0.416-0.315-0.796-0.94-1.146c-1.018-0.563-1.604-0.905-1.755-1.037c-0.625-0.536-0.94-1.243-0.94-2.113
		c0-1.138,0.431-2.023,1.289-2.66c0.777-0.571,1.755-0.854,2.944-0.854c0.105,0,0.183,0.051,0.233,0.148
		c0.05,0.101,0.144,0.408,0.287,0.924c0.14,0.517,0.21,0.827,0.21,0.936c0,0.082-0.074,0.136-0.217,0.159
		c-0.485,0.066-0.975,0.132-1.468,0.19c-0.586,0.159-0.878,0.478-0.878,0.951c0,0.342,0.307,0.687,0.917,1.037
		c0.905,0.505,1.48,0.874,1.72,1.103C449.615,62.986,449.925,63.743,449.925,64.668z"/>
</g>
<g>
</g>
<g>
</g>
<g>
</g>
<g>
</g>
<g>
</g>
<g>
</g>
<g>
</g>
<g>
</g>
<g>
</g>
<g>
</g>
<g>
</g>
</svg>
