<?xml version="1.0" encoding="iso-8859-1"?>
<!-- Generator: Adobe Illustrator 18.0.0, SVG Export Plug-In . SVG Version: 6.00 Build 0)  -->
<!DOCTYPE svg PUBLIC "-//W3C//DTD SVG 1.1//EN" "http://www.w3.org/Graphics/SVG/1.1/DTD/svg11.dtd">
<svg version="1.1" id="Layer_1" xmlns="http://www.w3.org/2000/svg" xmlns:xlink="http://www.w3.org/1999/xlink" x="0px" y="0px"
	 viewBox="0 0 200 200" style="enable-background:new 0 0 200 200;" xml:space="preserve">
<g>
	<polygon style="fill:#B3B3B3;" points="128,52.676 128,49 109,49 109,50.316 109,53 128,53 	"/>
	<polygon style="fill:#B3B3B3;" points="128,70.611 128,68 70,68 70,68.251 70,71 128,71 	"/>
	<polygon style="fill:#B3B3B3;" points="128,88.546 128,85 70,85 70,86.186 70,89 128,89 	"/>
	<path style="fill:#B3B3B3;" d="M172.157,87.041L150,77.599V31H49v0.437v46.162l-22,9.513v0.499V175h145V87.112L172.157,87.041z
		 M49,99.385L32.246,88.791L49,81.646V99.385z M168,91.716V171H31V91.713l68.503,42.53l0.196,0.022l0.14,0.45l0.384-0.241
		L168,91.716z M145,101.561L99.5,130.37L54,101.562V35h91V101.561z M150,99.385v-17.74l16.755,7.145L150,99.385z"/>
</g>
</svg>
