<?xml version="1.0" encoding="iso-8859-1"?>
<!-- Generator: Adobe Illustrator 18.0.0, SVG Export Plug-In . SVG Version: 6.00 Build 0)  -->
<!DOCTYPE svg PUBLIC "-//W3C//DTD SVG 1.1//EN" "http://www.w3.org/Graphics/SVG/1.1/DTD/svg11.dtd">
<svg version="1.1" id="Layer_1" xmlns="http://www.w3.org/2000/svg" xmlns:xlink="http://www.w3.org/1999/xlink" x="0px" y="0px"
	 viewBox="0 0 200 200" style="enable-background:new 0 0 200 200;" xml:space="preserve">
<g>
	<path style="fill:#B3B3B3;" d="M127.363,68.29l0.422,1.97l37.311-7.995v60.316l-35.719-7.654l0-46.637H127.363l0.422,1.97
		L127.363,68.29h-2.015v48.266c0,0.949,0.665,1.771,1.593,1.97l39.748,8.518c0.598,0.128,1.213-0.019,1.689-0.403
		c0.476-0.385,0.748-0.955,0.748-1.567V59.772c0-0.612-0.272-1.182-0.748-1.567c-0.476-0.385-1.091-0.532-1.689-0.403l-39.748,8.518
		c-0.928,0.199-1.593,1.021-1.593,1.97H127.363z"/>
	<path style="fill:#B3B3B3;" d="M101.811,28.541v2.015c4.938,0.001,9.39,1.996,12.628,5.231c3.235,3.238,5.23,7.69,5.231,12.628
		c-0.001,4.938-1.996,9.39-5.231,12.628c-3.238,3.235-7.69,5.23-12.628,5.231c-4.938-0.001-9.39-1.996-12.628-5.231
		c-3.235-3.238-5.23-7.69-5.231-12.628c0.001-4.938,1.996-9.39,5.231-12.628c3.238-3.235,7.69-5.23,12.628-5.231V28.541v-2.015
		c-12.09,0.001-21.888,9.799-21.889,21.889c0.001,12.09,9.799,21.888,21.889,21.889c12.09-0.001,21.888-9.799,21.889-21.889
		c-0.001-12.09-9.799-21.888-21.889-21.889V28.541z"/>
	<path style="fill:#B3B3B3;" d="M62.063,28.541v2.015c4.938,0.001,9.39,1.996,12.628,5.231c3.235,3.238,5.23,7.69,5.231,12.628
		c-0.001,4.938-1.996,9.39-5.231,12.628c-3.238,3.235-7.69,5.23-12.628,5.231c-4.938-0.001-9.39-1.996-12.628-5.231
		c-3.235-3.238-5.23-7.69-5.231-12.628c0.001-4.938,1.996-9.39,5.231-12.628c3.238-3.235,7.69-5.23,12.628-5.231V28.541v-2.015
		c-12.09,0.001-21.888,9.799-21.889,21.889c0.001,12.09,9.799,21.888,21.889,21.889c12.09-0.001,21.888-9.799,21.889-21.889
		c-0.001-12.09-9.799-21.888-21.889-21.889V28.541z"/>
	<path style="fill:#B3B3B3;" d="M45.028,79.646v2.015h80.321v21.523H47.042V79.646H45.028v2.015V79.646h-2.015v25.552
		c0,0.531,0.215,1.05,0.59,1.425c0.375,0.375,0.894,0.59,1.425,0.59h82.336c0.531,0,1.049-0.215,1.425-0.59
		c0.375-0.375,0.59-0.894,0.59-1.425V79.646c0-0.531-0.215-1.049-0.59-1.425c-0.375-0.375-0.894-0.59-1.425-0.59H45.028
		c-0.531,0-1.05,0.215-1.425,0.59c-0.375,0.375-0.59,0.894-0.59,1.425H45.028z"/>
	<path style="fill:#B3B3B3;" d="M62.063,105.199v2.015h43.412v21.523H64.077v-23.538H62.063v2.015V105.199h-2.015v25.552
		c0,0.531,0.215,1.05,0.59,1.425s0.894,0.59,1.425,0.59h45.427c0.531,0,1.049-0.215,1.425-0.59c0.375-0.375,0.59-0.894,0.59-1.425
		v-25.552c0-0.531-0.215-1.049-0.59-1.425c-0.375-0.375-0.894-0.59-1.425-0.59H62.063c-0.531,0-1.05,0.215-1.425,0.59
		c-0.375,0.375-0.59,0.894-0.59,1.425H62.063z"/>
	<path style="fill:#B3B3B3;" d="M82.761,130.751v42.587c0,1.113,0.902,2.015,2.015,2.015c1.113,0,2.015-0.902,2.015-2.015v-42.587
		c0-1.113-0.902-2.015-2.015-2.015C83.663,128.736,82.761,129.639,82.761,130.751"/>
	<path style="fill:#B3B3B3;" d="M80.512,132.166l-38.355,38.355c-0.787,0.787-0.787,2.063,0,2.849c0.787,0.787,2.063,0.787,2.849,0
		l38.355-38.355c0.787-0.787,0.787-2.063,0-2.849C82.575,131.379,81.299,131.379,80.512,132.166"/>
	<path style="fill:#B3B3B3;" d="M86.19,135.015l38.355,38.355c0.787,0.787,2.063,0.787,2.849,0c0.787-0.787,0.787-2.063,0-2.849
		L89.04,132.166c-0.787-0.787-2.063-0.787-2.849,0C85.403,132.953,85.403,134.228,86.19,135.015"/>
</g>
</svg>
