<?xml version="1.0" encoding="iso-8859-1"?>
<!-- Generator: Adobe Illustrator 18.0.0, SVG Export Plug-In . SVG Version: 6.00 Build 0)  -->
<!DOCTYPE svg PUBLIC "-//W3C//DTD SVG 1.1//EN" "http://www.w3.org/Graphics/SVG/1.1/DTD/svg11.dtd">
<svg version="1.1" id="Layer_1" xmlns="http://www.w3.org/2000/svg" xmlns:xlink="http://www.w3.org/1999/xlink" x="0px" y="0px"
	 viewBox="0 0 200 200" style="enable-background:new 0 0 200 200;" xml:space="preserve">
<g>
	<path style="fill:#B3B3B3;" d="M20.367,115.864v2.022h157.245v53.872H22.388v-55.893H20.367v2.022V115.864h-2.022v57.915
		c0,0.532,0.216,1.053,0.592,1.43s0.897,0.592,1.43,0.592h159.267c0.532,0,1.053-0.216,1.43-0.592
		c0.377-0.377,0.592-0.897,0.592-1.43v-57.915c0-0.532-0.215-1.053-0.592-1.43c-0.376-0.377-0.897-0.592-1.43-0.592H20.367
		c-0.533,0-1.053,0.216-1.43,0.592c-0.377,0.376-0.592,0.897-0.592,1.43H20.367z"/>
	<polyline style="fill:#B3B3B3;" points="76.26,132.365 123.741,132.365 123.741,128.321 76.26,128.321 	"/>
	<path style="fill:#B3B3B3;" d="M49.324,57.949v2.022h67.476v53.872H51.346V57.949H49.324v2.022V57.949h-2.022v57.915
		c0,0.532,0.216,1.053,0.592,1.43c0.376,0.376,0.897,0.592,1.43,0.592h69.498c0.532,0,1.053-0.216,1.43-0.592
		c0.377-0.377,0.592-0.897,0.592-1.43V57.949c0-0.532-0.215-1.053-0.592-1.43c-0.376-0.377-0.897-0.592-1.43-0.592H49.324
		c-0.533,0-1.053,0.216-1.43,0.592c-0.377,0.376-0.592,0.897-0.592,1.43H49.324z"/>
	<path style="fill:#B3B3B3;" d="M129.532,115.362V49.262c0-0.532-0.215-1.053-0.592-1.43c-0.376-0.377-0.897-0.592-1.43-0.592
		H58.012c-1.117,0-2.022,0.905-2.022,2.022c0,1.117,0.905,2.022,2.022,2.022l67.476,0l0,64.079c0,1.117,0.905,2.022,2.022,2.022
		C128.627,117.384,129.532,116.479,129.532,115.362L129.532,115.362z"/>
	<path style="fill:#B3B3B3;" d="M138.219,115.603V40.574c0-0.532-0.215-1.053-0.592-1.43c-0.376-0.377-0.897-0.592-1.43-0.592
		H66.699c-1.117,0-2.022,0.905-2.022,2.022c0,1.117,0.905,2.022,2.022,2.022l67.476,0l0,73.007c0,1.117,0.905,2.022,2.022,2.022
		C137.314,117.625,138.219,116.72,138.219,115.603L138.219,115.603z"/>
	<path style="fill:#B3B3B3;" d="M146.907,115.47V31.887c0-0.532-0.215-1.053-0.592-1.43c-0.376-0.377-0.897-0.592-1.43-0.592H75.386
		c-1.117,0-2.022,0.905-2.022,2.022c0,1.117,0.905,2.022,2.022,2.022l67.476,0l0,81.561c0,1.117,0.905,2.022,2.022,2.022
		C146.001,117.492,146.907,116.587,146.907,115.47L146.907,115.47z"/>
	<path style="fill:#B3B3B3;" d="M181.173,114.643l-13.434-26.604c-0.503-0.997-1.72-1.397-2.716-0.893
		c-0.997,0.503-1.397,1.719-0.893,2.716l13.434,26.604c0.503,0.997,1.72,1.397,2.716,0.893
		C181.277,116.856,181.676,115.64,181.173,114.643"/>
	<path style="fill:#B3B3B3;" d="M22.171,116.466l13.434-26.604c0.503-0.997,0.103-2.213-0.893-2.716
		c-0.997-0.503-2.213-0.103-2.716,0.893l-13.434,26.604c-0.503,0.997-0.103,2.213,0.893,2.716
		C20.452,117.862,21.668,117.462,22.171,116.466"/>
</g>
</svg>
