<?xml version="1.0" encoding="iso-8859-1"?>
<!-- Generator: Adobe Illustrator 18.0.0, SVG Export Plug-In . SVG Version: 6.00 Build 0)  -->
<!DOCTYPE svg PUBLIC "-//W3C//DTD SVG 1.1//EN" "http://www.w3.org/Graphics/SVG/1.1/DTD/svg11.dtd">
<svg version="1.1" id="Layer_1" xmlns="http://www.w3.org/2000/svg" xmlns:xlink="http://www.w3.org/1999/xlink" x="0px" y="0px"
	 viewBox="0 0 200 200" style="enable-background:new 0 0 200 200;" xml:space="preserve">
<g>
	<path style="fill:#B3B3B3;" d="M12.931,96.498l12.028,41.13c0.254,0.869,1.05,1.462,1.956,1.458
		c0.906-0.005,1.695-0.606,1.94-1.478l22.44-79.881l12.561,109.559c0.111,0.972,0.906,1.728,1.883,1.791
		c0.977,0.063,1.862-0.585,2.097-1.535l20.937-84.577l13.798,37.578c0.301,0.822,1.092,1.355,1.967,1.327
		c0.875-0.028,1.63-0.611,1.878-1.45l15.033-50.726l11.352,35.235c0.27,0.839,1.047,1.405,1.929,1.405h18.868
		c1.119,0,2.026-0.907,2.026-2.026c0-1.119-0.907-2.026-2.026-2.026l-17.393,0l-12.909-40.067c-0.273-0.844-1.065-1.415-1.953-1.405
		c-0.887,0.01-1.667,0.599-1.919,1.45l-15.158,51.146L90.297,75.359c-0.308-0.839-1.121-1.374-2.013-1.325s-1.641,0.669-1.856,1.536
		l-19.827,80.09L54.146,47.018c-0.11-0.96-0.888-1.712-1.852-1.789c-0.963-0.077-1.851,0.541-2.112,1.472l-23.317,83.005
		L16.82,95.36c-0.314-1.074-1.44-1.69-2.514-1.376C13.233,94.299,12.617,95.424,12.931,96.498L12.931,96.498z"/>
	<path style="fill:#B3B3B3;" d="M169.361,88.235v2.026c3.8,0.001,7.222,1.535,9.714,4.024c2.489,2.492,4.022,5.914,4.024,9.714
		c-0.001,3.8-1.535,7.221-4.024,9.714c-2.492,2.489-5.914,4.023-9.714,4.024c-3.8-0.001-7.222-1.534-9.714-4.024
		c-2.489-2.492-4.022-5.914-4.024-9.714c0.001-3.8,1.535-7.222,4.024-9.714c2.492-2.489,5.914-4.023,9.714-4.024V88.235v-2.026
		c-9.826,0.001-17.789,7.964-17.79,17.79c0.001,9.826,7.964,17.789,17.79,17.79c9.826-0.001,17.789-7.964,17.79-17.79
		c-0.001-9.826-7.964-17.789-17.79-17.79V88.235z"/>
</g>
</svg>
