<?xml version="1.0" encoding="iso-8859-1"?>
<!-- Generator: Adobe Illustrator 18.0.0, SVG Export Plug-In . SVG Version: 6.00 Build 0)  -->
<!DOCTYPE svg PUBLIC "-//W3C//DTD SVG 1.1//EN" "http://www.w3.org/Graphics/SVG/1.1/DTD/svg11.dtd">
<svg version="1.1" id="Layer_1" xmlns="http://www.w3.org/2000/svg" xmlns:xlink="http://www.w3.org/1999/xlink" x="0px" y="0px"
	 viewBox="0 0 200 200" style="enable-background:new 0 0 200 200;" xml:space="preserve">
<g>
	<path style="fill:#B3B3B3;" d="M100.001,178.668c-5.804-0.003-10.529-4.721-10.534-10.517v-13.183l-0.451-0.09
		c-7.19-1.431-13.936-4.227-20.051-8.31l-0.382-0.256l-9.327,9.326c-1.982,1.982-4.617,3.074-7.419,3.074
		c-2.834,0-5.476-1.096-7.464-3.086l0,0.001c-1.994-1.991-3.09-4.638-3.087-7.454c-0.003-2.808,1.089-5.446,3.075-7.431l9.326-9.326
		l-0.255-0.382c-4.083-6.114-6.878-12.86-8.31-20.05l-0.09-0.451H31.849c-5.797-0.004-10.514-4.729-10.517-10.534
		c0.002-5.803,4.72-10.529,10.517-10.533h13.183l0.09-0.451c1.432-7.19,4.227-13.936,8.31-20.05l0.255-0.382l-9.324-9.324
		c-1.987-1.983-3.079-4.623-3.076-7.432c-0.003-2.815,1.093-5.461,3.087-7.453c1.987-1.99,4.63-3.086,7.443-3.086
		c2.826,0,5.46,1.092,7.442,3.074l9.325,9.325l0.383-0.255c6.115-4.083,12.861-6.879,20.051-8.31l0.451-0.09V31.848
		c0.003-5.796,4.728-10.514,10.534-10.517c5.803,0.003,10.527,4.721,10.532,10.517v13.183l0.451,0.09
		c7.19,1.431,13.936,4.227,20.051,8.31l0.383,0.255l9.324-9.324c1.981-1.984,4.616-3.076,7.422-3.076
		c2.83,0,5.473,1.096,7.463,3.086c1.992,1.993,3.088,4.64,3.085,7.453c0.003,2.809-1.088,5.448-3.073,7.431l-9.326,9.326
		l0.256,0.382c4.083,6.115,6.879,12.86,8.31,20.05l0.09,0.451h13.184c5.796,0.003,10.514,4.729,10.516,10.534
		c-0.002,5.804-4.72,10.529-10.517,10.533h-13.183l-0.09,0.451c-1.431,7.19-4.227,13.936-8.31,20.05l-0.256,0.382l9.326,9.326
		c1.985,1.986,3.077,4.625,3.073,7.431c0.003,2.815-1.093,5.461-3.085,7.453l-0.066,0.066c-1.982,1.949-4.598,3.021-7.378,3.021
		c-2.825,0-5.46-1.092-7.44-3.074l-9.325-9.326l-0.383,0.256c-6.115,4.083-12.861,6.879-20.051,8.31l-0.451,0.09v13.183
		C110.529,173.948,105.805,178.666,100.001,178.668L100.001,178.668z M68.356,141.671c0.428,0,0.837,0.133,1.184,0.385
		c6.57,4.767,14.267,7.956,22.258,9.224c0.985,0.157,1.7,0.994,1.7,1.992v14.88c0.001,1.727,0.678,3.354,1.905,4.583
		c1.234,1.226,2.865,1.901,4.596,1.902c1.732-0.001,3.364-0.677,4.596-1.902c1.227-1.23,1.903-2.857,1.905-4.581v-14.88
		c0-0.997,0.715-1.835,1.7-1.992c7.991-1.267,15.688-4.457,22.259-9.224c0.347-0.252,0.757-0.385,1.184-0.385
		c0.539,0,1.045,0.21,1.426,0.591l10.524,10.524c1.219,1.217,2.845,1.89,4.577,1.893c1.741-0.003,3.375-0.68,4.604-1.905h0.001
		c1.225-1.227,1.901-2.86,1.905-4.6c-0.004-1.735-0.676-3.362-1.893-4.581l-10.128-10.128l1.088-1.088l1.698,1.232l0.658-0.908
		l-2.472-1.794l-1.709,1.709c-0.373-0.67-0.337-1.509,0.135-2.158c4.767-6.57,7.956-14.267,9.224-22.259
		c0.156-0.985,0.994-1.7,1.992-1.7h14.88c1.727-0.002,3.354-0.678,4.583-1.905c1.226-1.234,1.901-2.866,1.902-4.595
		c-0.001-1.733-0.677-3.365-1.903-4.597c-1.23-1.227-2.856-1.903-4.581-1.904h-14.88c-0.999,0-1.836-0.715-1.992-1.7
		c-1.268-7.992-4.457-15.689-9.224-22.259c-0.586-0.807-0.499-1.904,0.206-2.61l10.524-10.524c1.217-1.22,1.889-2.845,1.893-4.578
		c-0.003-1.741-0.68-3.375-1.905-4.604l-0.001,0c-1.226-1.225-2.86-1.902-4.599-1.905c-1.723,0.003-3.338,0.665-4.552,1.865
		L133.07,57.738c-0.381,0.381-0.888,0.591-1.427,0.591c-0.428,0-0.836-0.133-1.183-0.385c-6.57-4.767-14.267-7.956-22.259-9.225
		c-0.985-0.156-1.7-0.994-1.7-1.991v-14.88c-0.001-1.726-0.678-3.353-1.905-4.582c-1.233-1.226-2.865-1.901-4.595-1.902
		c-1.733,0.001-3.366,0.677-4.598,1.902c-1.227,1.23-1.903,2.856-1.904,4.581v14.88c0,0.998-0.715,1.835-1.7,1.991
		c-7.992,1.268-15.689,4.458-22.259,9.224c-0.347,0.252-0.756,0.385-1.184,0.385c-0.539,0-1.045-0.21-1.426-0.591L56.406,47.213
		c-1.219-1.218-2.845-1.89-4.578-1.894c-1.743,0.003-3.377,0.679-4.602,1.904l-0.066,0.067c-1.185,1.22-1.838,2.826-1.841,4.534
		c0.003,1.736,0.676,3.362,1.895,4.581l10.524,10.525c0.705,0.705,0.792,1.803,0.206,2.61c-4.766,6.57-7.956,14.267-9.224,22.258
		c-0.156,0.985-0.994,1.701-1.991,1.701h-14.88c-1.726,0.001-3.354,0.677-4.583,1.905c-1.226,1.234-1.901,2.866-1.902,4.595
		c0.001,1.734,0.677,3.366,1.903,4.597c1.231,1.227,2.858,1.903,4.582,1.904h14.88c0.997,0,1.835,0.715,1.991,1.7
		c1.268,7.993,4.458,15.69,9.224,22.259c0.585,0.807,0.499,1.905-0.206,2.61l-10.524,10.524c-1.219,1.22-1.892,2.846-1.895,4.578
		c0.003,1.711,0.656,3.318,1.841,4.537l0.066,0.068c1.227,1.225,2.86,1.901,4.598,1.905c1.735-0.003,3.362-0.676,4.583-1.894
		l10.524-10.524C67.311,141.882,67.817,141.671,68.356,141.671z M117.893,130.398c-11.028-0.299-19.907-9.364-19.909-20.462
		c0.001-11.285,9.184-20.468,20.469-20.47c11.285,0.002,20.468,9.184,20.469,20.47c-0.001,11.098-8.881,20.162-19.908,20.462v-4.034
		c4.176-0.14,8.086-1.834,11.062-4.804c3.103-3.108,4.813-7.235,4.815-11.623c-0.002-4.388-1.711-8.515-4.814-11.623
		c-3.108-3.104-7.235-4.813-11.623-4.814c-4.388,0.001-8.515,1.711-11.623,4.814c-3.103,3.108-4.813,7.235-4.815,11.623
		c0.002,4.388,1.712,8.516,4.814,11.623c2.975,2.971,6.885,4.665,11.063,4.805V130.398z M72.47,124.718
		c-7.896-0.297-14.23-6.814-14.231-14.781c0.001-8.155,6.637-14.79,14.792-14.792c8.155,0.002,14.79,6.637,14.791,14.792
		c-0.001,7.967-6.335,14.484-14.231,14.781v-4.037c2.66-0.137,5.144-1.238,7.046-3.136c2.031-2.035,3.151-4.737,3.152-7.608
		c-0.002-2.872-1.121-5.573-3.152-7.608c-2.035-2.032-4.737-3.151-7.607-3.152c-2.872,0.001-5.573,1.121-7.608,3.151
		c-2.031,2.036-3.15,4.737-3.152,7.608c0.002,2.872,1.121,5.573,3.151,7.608c1.903,1.899,4.387,3.001,7.048,3.137V124.718z
		 M99.44,84.968c-5.547-0.294-9.971-4.9-9.973-10.518c0.001-5.806,4.727-10.532,10.534-10.533
		c5.806,0.002,10.531,4.727,10.532,10.533c-0.001,5.618-4.425,10.224-9.972,10.518v-4.042c1.522-0.131,2.938-0.786,4.035-1.879
		c1.227-1.231,1.903-2.864,1.905-4.597c-0.002-1.735-0.678-3.367-1.904-4.597c-1.231-1.227-2.863-1.903-4.596-1.905
		c-1.734,0.001-3.366,0.677-4.597,1.903c-1.227,1.232-1.903,2.864-1.905,4.597c0.002,1.734,0.678,3.366,1.904,4.596
		c1.098,1.094,2.514,1.75,4.037,1.881V84.968z"/>
</g>
</svg>
