<?xml version="1.0" encoding="iso-8859-1"?>
<!-- Generator: Adobe Illustrator 18.0.0, SVG Export Plug-In . SVG Version: 6.00 Build 0)  -->
<!DOCTYPE svg PUBLIC "-//W3C//DTD SVG 1.1//EN" "http://www.w3.org/Graphics/SVG/1.1/DTD/svg11.dtd">
<svg version="1.1" id="Layer_1" xmlns="http://www.w3.org/2000/svg" xmlns:xlink="http://www.w3.org/1999/xlink" x="0px" y="0px"
	 viewBox="0 0 200 200" style="enable-background:new 0 0 200 200;" xml:space="preserve">
<g>
	<path style="fill:#B3B3B3;" d="M143.754,183.795c-6.383-0.002-11.577-5.22-11.579-11.631c0.001-5.416,3.698-10.059,8.99-11.291
		l0.234-0.054v-10.077l-0.389,0.116c-8.001,2.392-20.525,5.572-36.85,5.577c-31.777-0.009-52.35-12.012-53.21-12.523
		c-0.677-0.413-1.459-1.22-1.459-2.148v-39.379c0.109-0.06,0.256-0.151,0.271-0.338l0.016-0.2l-20.37-10.565
		c-1.066-0.549-1.886-1.195-2.507-1.976c-0.704-0.878-1.105-1.982-1.1-3.031c-0.005-1.051,0.396-2.156,1.1-3.033
		c0.622-0.782,1.441-1.428,2.506-1.976L96.873,46.7c1.847-0.934,4.054-1.413,6.557-1.424c2.501,0.01,4.709,0.489,6.558,1.424
		l67.465,34.565c1.065,0.548,1.884,1.194,2.505,1.975c0.725,0.904,1.121,1.98,1.116,3.031c0.005,1.08-0.38,2.156-1.084,3.033
		c-0.637,0.801-1.445,1.446-2.473,1.976l-19.251,9.897l0.086,0.248c0.033,0.095,0.075,0.191,0.118,0.289
		c0.083,0.189,0.161,0.367,0.161,0.529v39.521c0,0.86-0.739,1.696-1.471,2.143c-0.696,0.423-4.383,2.584-11.027,4.988l-0.199,0.072
		v11.848l0.23,0.057c5.246,1.293,9.054,6.042,9.055,11.292C155.217,178.685,150.181,183.793,143.754,183.795z M143.701,165.555
		c-1.762,0.001-3.422,0.689-4.673,1.936c-1.247,1.252-1.935,2.912-1.936,4.674c0.002,1.763,0.689,3.422,1.936,4.674
		c1.253,1.247,2.912,1.935,4.674,1.936c1.762-0.001,3.422-0.689,4.673-1.936c1.247-1.252,1.935-2.912,1.937-4.674
		c-0.002-1.762-0.689-3.422-1.936-4.674C147.123,166.244,145.463,165.556,143.701,165.555L143.701,165.555z M55.538,140.112
		c0,0.408,0.513,0.639,1.364,1.021c0.194,0.087,0.394,0.177,0.587,0.27c1.801,0.869,5.152,2.485,9.801,4.065
		c7.988,2.713,20.89,5.947,36.995,5.947h0.032c17.314,0,30.537-3.699,36.878-5.904l0.203-0.071v-35.58l-31.242,15.987
		c-1.847,0.934-4.067,1.413-6.596,1.424c-2.448-0.01-4.551-0.476-6.426-1.424l-41.598-21.449V140.112z M146.109,107.375l0.072,0.245
		c0,0.03-0.053,0.133-0.086,0.194c-0.072,0.137-0.162,0.308-0.162,0.508v35.259l0.417-0.171c1.163-0.477,2.211-0.941,3.136-1.351
		c1.507-0.667,2.808-1.243,4.098-1.661l0.209-0.068v-36.691L146.109,107.375z M99.163,121.378c1.002,0.528,2.653,0.871,4.202,0.871
		h0.128c1.549,0,3.201-0.343,4.207-0.873l67.463-34.564c0.175-0.089,0.325-0.18,0.484-0.294l0.342-0.247l-0.343-0.245
		c-0.156-0.111-0.309-0.204-0.483-0.292l-67.465-34.565c-1.004-0.529-2.656-0.872-4.205-0.872h-0.128
		c-1.548,0-3.199,0.343-4.206,0.873L31.695,85.735c-0.224,0.113-0.376,0.216-0.483,0.293l-0.343,0.246l0.343,0.245
		c0.156,0.111,0.309,0.204,0.483,0.292h0L99.163,121.378z"/>
	<path style="fill:#B3B3B3;" d="M55.542,89.554c-0.958,0-1.819-0.532-2.248-1.389c-0.619-1.238-0.115-2.749,1.123-3.368l12.161-6.08
		c0.353-0.176,0.73-0.266,1.121-0.266c0.958,0,1.819,0.532,2.248,1.388c0.3,0.6,0.348,1.28,0.136,1.917
		c-0.212,0.636-0.659,1.152-1.259,1.452l-12.161,6.08C56.31,89.464,55.933,89.554,55.542,89.554L55.542,89.554z"/>
	<path style="fill:#B3B3B3;" d="M67.702,95.634c-0.958,0-1.819-0.532-2.248-1.389c-0.3-0.6-0.348-1.281-0.136-1.917
		c0.212-0.636,0.659-1.152,1.259-1.452l12.16-6.08c0.353-0.176,0.73-0.266,1.121-0.266c0.958,0,1.82,0.532,2.248,1.389
		c0.619,1.238,0.115,2.749-1.123,3.368l-12.16,6.08C68.47,95.545,68.093,95.634,67.702,95.634L67.702,95.634z"/>
</g>
</svg>
