<?xml version="1.0" encoding="iso-8859-1"?>
<!-- Generator: Adobe Illustrator 18.0.0, SVG Export Plug-In . SVG Version: 6.00 Build 0)  -->
<!DOCTYPE svg PUBLIC "-//W3C//DTD SVG 1.1//EN" "http://www.w3.org/Graphics/SVG/1.1/DTD/svg11.dtd">
<svg version="1.1" id="Layer_1" xmlns="http://www.w3.org/2000/svg" xmlns:xlink="http://www.w3.org/1999/xlink" x="0px" y="0px"
	 viewBox="0 0 200 200" style="enable-background:new 0 0 200 200;" xml:space="preserve">
<rect x="-17.691" y="188.458" style="fill:#FF0000;" width="4.167" height="4.167"/>
<g>
	<path style="fill:#B3B3B3;" d="M57.293,175.058c-3.523,0-6.804-1.361-9.237-3.831c-2.425-2.462-3.761-5.769-3.761-9.311V37.817
		c0-3.524,1.335-6.783,3.759-9.176c2.417-2.386,5.698-3.699,9.239-3.699h85.49c3.536,0,6.803,1.314,9.2,3.699
		c2.4,2.388,3.722,5.647,3.722,9.176v124.098c0,7.369-5.676,13.142-12.923,13.142H57.293z M48.087,161.916
		c0,2.169,0.933,4.204,2.772,6.048c1.521,1.517,3.865,2.387,6.434,2.387h85.49c2.581,0,4.853-0.848,6.396-2.387
		c1.815-1.819,2.735-3.854,2.735-6.048v-0.719H48.087V161.916z M48.087,157.144h103.826v-20.661h-32.299v16.738h-3.792v-16.738
		H84.178v16.738h-3.792v-16.738H48.087V157.144z M119.614,132.56h32.299v-17.915h-32.299V132.56z M84.178,132.56h31.645v-17.915
		H84.178V132.56z M48.087,132.56h32.299v-17.915H48.087V132.56z M119.614,109.284h32.299V89.277h-32.299V109.284z M84.178,109.284
		h31.645V89.277H84.178V109.284z M48.087,109.284h32.299V89.277H48.087V109.284z M57.293,28.865c-2.368,0-4.773,0.989-6.433,2.646
		c-1.762,1.766-2.772,4.065-2.772,6.307v47.537h103.826V37.817c0-2.266-0.997-4.565-2.735-6.307
		c-1.661-1.657-4.052-2.646-6.396-2.646H57.293z"/>
	<path style="fill:#B3B3B3;" d="M57.293,84.178c-0.513,0-0.93-0.199-1.396-0.664c-0.337-0.337-0.487-0.822-0.487-1.572V37.817
		c0-0.562,0.075-0.923,0.487-1.334c0.398-0.398,0.792-0.426,1.396-0.426h85.49c0.633,0,0.974,0.042,1.358,0.426
		c0.387,0.387,0.45,0.711,0.45,1.334v44.124c0,0.674-0.076,1.199-0.45,1.572c-0.41,0.41-0.78,0.664-1.358,0.664H57.293z
		 M59.725,79.601h81.465V40.372H59.725V79.601z"/>
</g>
</svg>
