<?xml version="1.0" encoding="iso-8859-1"?>
<!-- Generator: Adobe Illustrator 18.0.0, SVG Export Plug-In . SVG Version: 6.00 Build 0)  -->
<!DOCTYPE svg PUBLIC "-//W3C//DTD SVG 1.1//EN" "http://www.w3.org/Graphics/SVG/1.1/DTD/svg11.dtd">
<svg version="1.1" id="Layer_1" xmlns="http://www.w3.org/2000/svg" xmlns:xlink="http://www.w3.org/1999/xlink" x="0px" y="0px"
	 viewBox="0 0 200 200" style="enable-background:new 0 0 200 200;" xml:space="preserve">
<rect x="-17.691" y="188.458" style="fill:#FF0000;" width="4.167" height="4.167"/>
<g>
	<path style="fill:#B3B3B3;" d="M178.844,54.72c-0.404-0.406-0.42-0.97-0.993-0.97h-37.636l-18.623-18.499
		c-0.406-0.406-0.95-0.501-1.524-0.501H42.981c-0.575,0-1.119,0.274-1.524,0.679L22.201,54.75h-0.294
		c-0.408,0-0.961,1.267-0.961,1.843v115.585c0,1.188,1.584,1.572,2.77,1.572h154.128c1.189,0,1.102-0.383,1.102-1.572V56.589v-0.002
		v-0.006C178.946,56.007,179.248,55.126,178.844,54.72z M24.946,57.474L43.875,38.75h75.298l18.772,19.336v-0.14
		c0,0.402,0.808-0.196,1.375-0.196h35.625v11h-150V57.474z M174.946,72.75v97h-150v-97H174.946z"/>
</g>
</svg>
