<?xml version="1.0" encoding="iso-8859-1"?>
<!-- Generator: Adobe Illustrator 18.0.0, SVG Export Plug-In . SVG Version: 6.00 Build 0)  -->
<!DOCTYPE svg PUBLIC "-//W3C//DTD SVG 1.1//EN" "http://www.w3.org/Graphics/SVG/1.1/DTD/svg11.dtd">
<svg version="1.1" id="Layer_1" xmlns="http://www.w3.org/2000/svg" xmlns:xlink="http://www.w3.org/1999/xlink" x="0px" y="0px"
	 viewBox="0 0 200 200" style="enable-background:new 0 0 200 200;" xml:space="preserve">
<rect x="-17.691" y="188.458" style="fill:#FF0000;" width="4.167" height="4.167"/>
<g>
	<path style="fill:#B3B3B3;" d="M34.473,175.747c-1.121,0-2.032-0.912-2.032-2.032V50.858c0-5.597,4.558-10.186,10.161-10.23h6.241
		V34.47c0-5.633,4.58-10.216,10.21-10.216c5.629,0,10.209,4.583,10.209,10.216v6.159h61.469V34.47
		c0-5.633,4.58-10.216,10.209-10.216c5.637,0,10.223,4.583,10.223,10.216v6.159h6.104c5.659,0.044,10.278,4.634,10.291,10.232
		v122.855c0,1.121-0.906,2.032-2.019,2.032H34.473z M134.789,171.683h28.706v-28.72h-28.706V171.683z M102.066,171.683h28.672
		v-28.72h-28.672V171.683z M69.289,171.683h28.72v-28.72h-28.72V171.683z M36.498,171.683h28.719v-28.72H36.498V171.683z
		 M134.789,138.899h28.706v-28.72h-28.706V138.899z M102.066,138.899h28.672v-28.72h-28.672V138.899z M69.289,138.899h28.72v-28.72
		h-28.72V138.899z M36.498,138.899h28.719v-28.72H36.498V138.899z M134.789,106.121h28.706V77.456h-28.706V106.121z
		 M102.059,106.121h28.672V77.456h-28.672V106.121z M69.289,106.121h28.719V77.456H69.289V106.121z M36.505,106.115h28.719V77.449
		H36.505V106.115z M36.504,73.392h126.99V50.858c0-3.377-2.748-6.142-6.127-6.165h-6.204v6.165c0,5.633-4.586,10.216-10.223,10.216
		c-5.63,0-10.21-4.583-10.21-10.216v-6.165H69.261v6.165c0,5.633-4.58,10.216-10.209,10.216s-10.209-4.583-10.209-10.216v-6.165
		h-6.123c-3.43,0.023-6.221,2.789-6.221,6.165v0.741h0.007V73.392z M140.947,28.318c-3.396,0-6.159,2.76-6.159,6.152v16.389
		c0,3.396,2.763,6.159,6.159,6.159c3.389,0,6.145-2.763,6.145-6.159V34.47C147.093,31.077,144.336,28.318,140.947,28.318z
		 M59.052,28.318c-3.396,0-6.159,2.76-6.159,6.152v16.389c0,3.396,2.763,6.159,6.159,6.159c3.389,0,6.145-2.763,6.145-6.159V34.47
		C65.197,31.077,62.441,28.318,59.052,28.318z"/>
</g>
</svg>
