<?xml version="1.0" encoding="iso-8859-1"?>
<!-- Generator: Adobe Illustrator 18.0.0, SVG Export Plug-In . SVG Version: 6.00 Build 0)  -->
<!DOCTYPE svg PUBLIC "-//W3C//DTD SVG 1.1//EN" "http://www.w3.org/Graphics/SVG/1.1/DTD/svg11.dtd">
<svg version="1.1" id="Layer_1" xmlns="http://www.w3.org/2000/svg" xmlns:xlink="http://www.w3.org/1999/xlink" x="0px" y="0px"
	 viewBox="0 0 200 200" style="enable-background:new 0 0 200 200;" xml:space="preserve">
<rect x="-17.691" y="188.458" style="fill:#FF0000;" width="4.167" height="4.167"/>
<g>
	<path style="fill:#B3B3B3;" d="M71.548,105.892c-6.329,0-11.479-5.15-11.479-11.479c0-6.33,5.149-11.48,11.479-11.48
		c6.315,0,11.452,5.15,11.452,11.48C83.001,100.742,77.863,105.892,71.548,105.892z M71.548,87.052c-4.07,0-7.381,3.302-7.381,7.36
		c0,4.066,3.311,7.374,7.381,7.374c4.055,0,7.354-3.308,7.354-7.374C78.902,90.354,75.603,87.052,71.548,87.052z"/>
	<path style="fill:#B3B3B3;" d="M100.216,105.892c-6.33,0-11.479-5.15-11.479-11.479c0-6.33,5.15-11.48,11.479-11.48
		c6.33,0,11.479,5.15,11.479,11.48C111.695,100.742,106.546,105.892,100.216,105.892z M100.216,87.052
		c-4.063,0-7.368,3.302-7.368,7.36c0,4.066,3.305,7.374,7.368,7.374c4.062,0,7.367-3.308,7.367-7.374
		C107.583,90.354,104.278,87.052,100.216,87.052z"/>
	<path style="fill:#B3B3B3;" d="M128.89,105.892c-6.33,0-11.479-5.15-11.479-11.479c0-6.33,5.15-11.48,11.479-11.48
		c6.33,0,11.479,5.15,11.479,11.48C140.37,100.742,135.22,105.892,128.89,105.892z M128.89,87.052c-4.055,0-7.354,3.302-7.354,7.36
		c0,4.066,3.299,7.374,7.354,7.374c4.062,0,7.367-3.308,7.367-7.374C136.257,90.354,132.952,87.052,128.89,87.052z"/>
	<path style="fill:#B3B3B3;" d="M123.823,158.77l-0.114,0.033c-7.874,2.305-15.557,3.425-23.487,3.425
		c-42.36,0-76.822-30.628-76.822-68.275c0-37.639,34.462-68.261,76.822-68.261c42.114,0,76.377,30.622,76.377,68.261
		c0,19.479-9.764,38.221-26.79,51.426l-0.325,0.088l-1.129,0.174v38.744L123.823,158.77z M143.864,173.121v-29.923l1.991-0.714
		l0.023-0.018c16.702-12.477,26.281-30.159,26.281-48.511c0-35.069-32.301-63.599-72.005-63.599
		c-39.831,0-72.235,28.53-72.235,63.599c0,35.08,32.321,63.619,72.05,63.619c8.11,0,16.256-1.292,24.212-3.841l0.014-0.005
		l0.841-0.422L143.864,173.121z"/>
</g>
</svg>
