<?xml version="1.0" encoding="iso-8859-1"?>
<!-- Generator: Adobe Illustrator 18.0.0, SVG Export Plug-In . SVG Version: 6.00 Build 0)  -->
<!DOCTYPE svg PUBLIC "-//W3C//DTD SVG 1.1//EN" "http://www.w3.org/Graphics/SVG/1.1/DTD/svg11.dtd">
<svg version="1.1" id="Layer_1" xmlns="http://www.w3.org/2000/svg" xmlns:xlink="http://www.w3.org/1999/xlink" x="0px" y="0px"
	 viewBox="0 0 200 200" style="enable-background:new 0 0 200 200;" xml:space="preserve">
<rect x="-32.922" y="192.916" style="fill:#03B2FF;" width="3.773" height="3.773"/>
<g>
	<path style="fill:#B3B3B3;" d="M21.907,175c-1.037,0-1.882-0.841-1.882-1.875V55.979c0-1.038,0.844-1.882,1.882-1.882h37.172
		V36.472c0-1.038,0.844-1.882,1.882-1.882h78.072c1.037,0,1.882,0.844,1.882,1.882v17.624h37.172c1.036,0,1.884,0.843,1.889,1.88
		v117.149c0,1.034-0.844,1.875-1.882,1.875H21.907z M23.781,171.243h152.422l0-74.336h-64.559v17.645
		c0,6.417-5.23,11.638-11.659,11.638c-6.421,0-11.645-5.221-11.645-11.638V96.907H23.781V171.243z M99.986,87.143
		c-4.353,0-7.895,3.539-7.895,7.889v19.52c0,4.346,3.542,7.882,7.895,7.882c4.361,0,7.909-3.536,7.909-7.882v-19.52
		C107.895,90.682,104.347,87.143,99.986,87.143z M23.796,93.143h64.692l0.163-0.75c0.027-0.121,0.1-0.269,0.185-0.441
		c0.1-0.202,0.198-0.407,0.272-0.628c0.167-0.502,0.37-0.982,0.638-1.51c0.363-0.715,0.828-1.397,1.461-2.146l0.216-0.268
		c0.277-0.346,0.517-0.645,0.807-0.911c0.598-0.538,1.322-1.024,2.342-1.57c0.181-0.097,0.35-0.202,0.519-0.307
		c0.242-0.15,0.451-0.28,0.67-0.367c1.426-0.571,2.852-0.859,4.239-0.859c1.393,0,2.78,0.281,4.24,0.86
		c0.235,0.093,0.473,0.241,0.726,0.398c0.153,0.094,0.306,0.189,0.465,0.279c0.763,0.421,1.628,0.919,2.333,1.566
		c0.297,0.277,0.569,0.608,0.856,0.959l0.175,0.212c0.635,0.749,1.102,1.433,1.478,2.16c0.245,0.512,0.441,0.996,0.604,1.496
		c0.083,0.235,0.18,0.431,0.278,0.625c0.09,0.178,0.168,0.331,0.198,0.462l0.17,0.74h64.683V57.86H23.796V93.143z M62.828,54.097
		h74.322V38.354H62.828V54.097z"/>
</g>
</svg>
