<?xml version="1.0" encoding="iso-8859-1"?>
<!-- Generator: Adobe Illustrator 18.0.0, SVG Export Plug-In . SVG Version: 6.00 Build 0)  -->
<!DOCTYPE svg PUBLIC "-//W3C//DTD SVG 1.1//EN" "http://www.w3.org/Graphics/SVG/1.1/DTD/svg11.dtd">
<svg version="1.1" id="Layer_1" xmlns="http://www.w3.org/2000/svg" xmlns:xlink="http://www.w3.org/1999/xlink" x="0px" y="0px"
	 viewBox="0 0 200 200" style="enable-background:new 0 0 200 200;" xml:space="preserve">
<rect x="-17.691" y="188.458" style="fill:#FF0000;" width="4.167" height="4.167"/>
<g>
	<path style="fill:#B3B3B3;" d="M86.178,184.338c-1.006,0-1.824-0.818-1.824-1.823V123.65H44.851c-0.377,0-0.768-0.17-1.16-0.504
		l-0.1-0.132l-0.121-0.185l-0.192-0.226l-0.157-0.208l-23.759-74.78c-0.306-0.957,0.225-1.985,1.183-2.291
		c0.17-0.052,0.351-0.08,0.534-0.08c0.793,0,1.516,0.52,1.757,1.265l19.178,60.348l1.02-0.158V47.057
		c0-1.002,0.818-1.818,1.824-1.818h22.396v-30.99c0-1.002,0.815-1.818,1.818-1.818h21.914c4.328,0,7.848,3.528,7.848,7.866
		c0,4.324-3.521,7.843-7.848,7.843h-13.11v17.094h91.873c0.491,0,0.951,0.191,1.297,0.539c0.342,0.343,0.528,0.797,0.526,1.277
		v74.777c0,1.006-0.82,1.824-1.829,1.824h-58.859v58.865c0,1.005-0.818,1.823-1.824,1.823H86.178z M88.007,180.691h7.785v-57.042
		h-7.785V180.691z M99.433,180.686h7.808v-57.042h-7.808V180.686z M46.68,120.008h121.238v-50.01H77.869v14.449
		c0,1.006-0.815,1.824-1.818,1.824h-6.98c-1.002,0-1.818-0.818-1.818-1.824V69.998H46.68V120.008z M70.894,82.618h3.339V26.316
		c0-1.005,0.818-1.823,1.823-1.823h14.928c2.317,0,4.201-1.885,4.201-4.201c0-2.329-1.885-4.224-4.201-4.224h-20.09V82.618z
		 M46.68,66.357h20.578V48.88H46.68V66.357z M77.874,66.352h90.049V48.88H77.874V66.352z"/>
	<path style="fill:#B3B3B3;" d="M86.178,184.338v-0.25c-0.867-0.002-1.572-0.707-1.574-1.573V123.4H44.851
		c-0.3,0-0.634-0.135-0.998-0.444l-0.162,0.19l0.199-0.151l-0.095-0.125l-0.116-0.178l-0.009-0.013l-0.198-0.233l-0.127-0.169
		L19.6,47.538l0,0c-0.051-0.159-0.075-0.319-0.075-0.477c0-0.666,0.428-1.287,1.096-1.5l-0.076-0.238l0.074,0.239
		c0.145-0.045,0.303-0.069,0.461-0.069c0.684-0.002,1.314,0.454,1.519,1.092l0-0.001l19.243,60.552l1.444-0.224V47.057
		c0.002-0.863,0.706-1.566,1.574-1.568h22.646v-31.24c0.002-0.864,0.704-1.566,1.568-1.568h21.914c2.095,0,3.993,0.853,5.37,2.233
		c1.376,1.38,2.228,3.282,2.228,5.383c0,2.094-0.852,3.99-2.228,5.366c-1.377,1.375-3.275,2.226-5.37,2.226h-13.36v17.594h92.123
		c0.426,0,0.82,0.164,1.12,0.465c0.294,0.296,0.453,0.68,0.453,1.092v0.01v74.776c-0.002,0.867-0.708,1.572-1.579,1.574h-59.109
		v59.115c-0.002,0.867-0.706,1.572-1.574,1.573h-22.88V184.338v0.25h22.88c1.144,0,2.073-0.929,2.074-2.073V123.9h58.609
		c1.147,0,2.079-0.929,2.079-2.074V47.049v-0.001V47.04c0-0.542-0.214-1.058-0.599-1.444c-0.391-0.394-0.918-0.613-1.474-0.612
		H78.124V28.389h12.86c4.466,0,8.098-3.629,8.098-8.093c0-4.475-3.632-8.115-8.098-8.116H69.07c-1.141,0-2.067,0.927-2.068,2.068
		v30.74l-22.146,0c-1.143,0-2.073,0.926-2.074,2.068v59.427l-0.597,0.093L23.073,46.432l0-0.001
		c-0.278-0.852-1.092-1.436-1.995-1.438c-0.208,0-0.413,0.031-0.608,0.091l-0.001,0l-0.002,0c-0.881,0.282-1.443,1.098-1.443,1.976
		c0,0.209,0.032,0.421,0.098,0.629l0,0l23.772,74.82l0.183,0.243l0.004,0.006l0.186,0.22l0.112,0.172l0.005,0.007l0.106,0.139
		l0.016,0.022l0.021,0.018c0.421,0.36,0.867,0.564,1.322,0.564h39.253l0,58.615c0,1.144,0.929,2.073,2.074,2.073V184.338z
		 M88.007,180.691v0.25h8.035v-57.542h-8.285v57.542h0.25V180.691h0.25v-56.792h7.285v56.542l-7.535,0V180.691h0.25H88.007z
		 M99.433,180.686v0.25h8.058v-57.542h-8.308v57.542h0.25V180.686h0.25v-56.792h7.308v56.542l-7.558,0V180.686h0.25H99.433z
		 M46.68,120.008v0.25h121.488v-50.51H77.619v14.699c-0.002,0.868-0.705,1.572-1.568,1.574h-6.98
		c-0.863-0.002-1.566-0.706-1.568-1.574V69.748H46.43v50.51h0.25V120.008h0.25v-49.76h20.072v14.199
		c0,1.144,0.926,2.073,2.068,2.074h6.98c1.141-0.001,2.067-0.93,2.068-2.074V70.248h89.549v49.51l-120.988,0V120.008h0.25H46.68z
		 M70.894,82.618v0.25h3.589V26.316c0.002-0.867,0.707-1.572,1.573-1.573h14.928c2.455,0,4.451-1.996,4.451-4.451
		c0-2.467-1.995-4.474-4.451-4.474h-20.34v67.051h0.25V82.618h0.25V16.317l19.84,0c1.089,0,2.076,0.445,2.792,1.165
		c0.716,0.72,1.159,1.713,1.159,2.809c0,1.09-0.443,2.076-1.159,2.793c-0.716,0.716-1.703,1.159-2.793,1.159H76.057
		c-1.144,0-2.073,0.929-2.073,2.073v56.052l-3.089,0V82.618h0.25H70.894z M46.68,66.357v0.25h20.828V48.63H46.43v17.977h0.25V66.357
		h0.25V49.13h20.078v16.977l-20.328,0V66.357h0.25H46.68z M77.874,66.352v0.25h90.299V48.63H77.624v17.971h0.25V66.352h0.25V49.13
		h89.549v16.971H77.874V66.352h0.25H77.874z"/>
</g>
</svg>
