<?xml version="1.0" encoding="iso-8859-1"?>
<!-- Generator: Adobe Illustrator 18.0.0, SVG Export Plug-In . SVG Version: 6.00 Build 0)  -->
<!DOCTYPE svg PUBLIC "-//W3C//DTD SVG 1.1//EN" "http://www.w3.org/Graphics/SVG/1.1/DTD/svg11.dtd">
<svg version="1.1" id="Layer_1" xmlns="http://www.w3.org/2000/svg" xmlns:xlink="http://www.w3.org/1999/xlink" x="0px" y="0px"
	 viewBox="0 0 200 200" style="enable-background:new 0 0 200 200;" xml:space="preserve">
<rect x="-17.691" y="188.458" style="fill:#FF0000;" width="4.167" height="4.167"/>
<g>
	<path style="fill:#B3B3B3;" d="M34.15,114.711c-7.611,0-13.804-6.199-13.804-13.818c0-7.611,6.192-13.803,13.804-13.803
		c7.619,0,13.818,6.192,13.818,13.803C47.968,108.512,41.769,114.711,34.15,114.711z M34.15,91.557
		c-5.143,0-9.328,4.188-9.328,9.335c0,5.152,4.185,9.343,9.328,9.343c5.148,0,9.335-4.191,9.335-9.343
		C43.485,95.745,39.297,91.557,34.15,91.557z"/>
	<path style="fill:#B3B3B3;" d="M34.15,56.871c-7.611,0-13.804-6.202-13.804-13.825c0-7.607,6.192-13.796,13.804-13.796
		c7.612,0,13.811,6.189,13.818,13.797C47.968,50.669,41.769,56.871,34.15,56.871z M34.15,33.732c-5.143,0-9.328,4.178-9.328,9.313
		c0,5.16,4.185,9.357,9.328,9.357c5.148,0,9.335-4.198,9.335-9.357C43.485,37.91,39.297,33.732,34.15,33.732z"/>
	<path style="fill:#B3B3B3;" d="M34.15,172.544c-7.611,0-13.804-6.192-13.804-13.803c0-7.624,6.192-13.825,13.804-13.825
		c7.612,0,13.811,6.202,13.818,13.826C47.968,166.352,41.769,172.544,34.15,172.544z M34.15,149.39c-5.143,0-9.328,4.194-9.328,9.35
		c0,5.143,4.185,9.328,9.328,9.328c5.148,0,9.335-4.185,9.335-9.328C43.485,153.585,39.297,149.39,34.15,149.39z"/>
	<path style="fill:#B3B3B3;" d="M68.844,160.974c-1.236,0-2.241-1.002-2.241-2.234c0-1.236,1.005-2.241,2.241-2.241h108.915
		c1.236,0,2.241,1.005,2.241,2.241c0,1.232-1.005,2.234-2.241,2.234H68.844z"/>
	<path style="fill:#B3B3B3;" d="M68.844,103.119c-1.236,0-2.241-0.999-2.241-2.227c0-1.24,1.005-2.249,2.241-2.249h108.915
		c1.236,0,2.241,1.009,2.241,2.249c0,1.228-1.005,2.227-2.241,2.227H68.844z"/>
	<path style="fill:#B3B3B3;" d="M68.844,45.286c-1.236,0-2.241-1.005-2.241-2.241c0-1.232,1.005-2.234,2.241-2.234h108.915
		c1.236,0,2.241,1.002,2.241,2.234c0,1.236-1.005,2.241-2.241,2.241H68.844z"/>
</g>
</svg>
