<?xml version="1.0" encoding="iso-8859-1"?>
<!-- Generator: Adobe Illustrator 18.0.0, SVG Export Plug-In . SVG Version: 6.00 Build 0)  -->
<!DOCTYPE svg PUBLIC "-//W3C//DTD SVG 1.1//EN" "http://www.w3.org/Graphics/SVG/1.1/DTD/svg11.dtd">
<svg version="1.1" id="Layer_1" xmlns="http://www.w3.org/2000/svg" xmlns:xlink="http://www.w3.org/1999/xlink" x="0px" y="0px"
	 viewBox="0 0 200 200" style="enable-background:new 0 0 200 200;" xml:space="preserve">
<rect x="-17.691" y="188.458" style="fill:#FF0000;" width="4.167" height="4.167"/>
<g>
	<path style="fill:#B3B3B3;" d="M23.534,175c-1.127,0-2.044-0.92-2.044-2.051V20.017c0-1.127,0.917-2.044,2.044-2.044h152.925
		c1.131,0,2.051,0.917,2.051,2.044v152.932c0,1.131-0.92,2.051-2.051,2.051H23.534z M140.296,170.905h34.118v-34.146h-34.118
		V170.905z M102.055,170.905h34.139v-34.146h-34.139V170.905z M63.813,170.905h34.139v-34.146H63.813V170.905z M25.585,170.905
		h34.132V60.303H25.585V170.905z M140.296,132.664h34.118V97.788h-34.118V132.664z M63.813,132.664h34.139V97.788H63.813V132.664z
		 M102.055,132.663h34.139V97.787h-34.139V132.663z M140.296,93.686h34.118V60.303h-34.118V93.686z M102.048,93.686h34.139V60.303
		h-34.139V93.686z M63.813,93.686h34.139V60.303H63.813V93.686z M63.813,56.201h110.595V22.075H63.813V56.201z M25.585,56.201
		h34.132V22.075H25.585V56.201z"/>
</g>
</svg>
