<?xml version="1.0" encoding="iso-8859-1"?>
<!-- Generator: Adobe Illustrator 18.0.0, SVG Export Plug-In . SVG Version: 6.00 Build 0)  -->
<!DOCTYPE svg PUBLIC "-//W3C//DTD SVG 1.1//EN" "http://www.w3.org/Graphics/SVG/1.1/DTD/svg11.dtd">
<svg version="1.1" id="Layer_1" xmlns="http://www.w3.org/2000/svg" xmlns:xlink="http://www.w3.org/1999/xlink" x="0px" y="0px"
	 viewBox="0 0 200 200" style="enable-background:new 0 0 200 200;" xml:space="preserve">
<rect x="-17.691" y="188.458" style="fill:#FF0000;" width="4.167" height="4.167"/>
<g>
	<path style="fill:#B3B3B3;" d="M49.847,175c-1.126,0-2.041-0.922-2.041-2.055V39.197c0-1.118,0.916-2.028,2.041-2.028h31.414
		V22.462c0-1.122,0.91-2.035,2.028-2.035h66.877c1.118,0,2.028,0.913,2.028,2.035v133.782c0,1.122-0.909,2.035-2.027,2.035h-31.401
		v14.666c0,1.133-0.916,2.055-2.042,2.055H49.847z M51.889,170.91h52.98l0.34-1.44l-22.182-11.078l0.079-0.185l-0.632-0.323
		c-0.553-0.283-1.213-0.797-1.213-1.64V41.238H51.889V170.91z M94.812,159.719l19.864,9.94v-11.38H95.152L94.812,159.719z
		 M85.337,154.203h62.788l0.007-0.76V24.51H85.337V154.203z"/>
</g>
</svg>
