<?xml version="1.0" encoding="iso-8859-1"?>
<!-- Generator: Adobe Illustrator 18.0.0, SVG Export Plug-In . SVG Version: 6.00 Build 0)  -->
<!DOCTYPE svg PUBLIC "-//W3C//DTD SVG 1.1//EN" "http://www.w3.org/Graphics/SVG/1.1/DTD/svg11.dtd">
<svg version="1.1" id="Layer_1" xmlns="http://www.w3.org/2000/svg" xmlns:xlink="http://www.w3.org/1999/xlink" x="0px" y="0px"
	 viewBox="0 0 200 200" style="enable-background:new 0 0 200 200;" xml:space="preserve">
<rect x="-32.922" y="192.916" style="fill:#03B2FF;" width="3.773" height="3.773"/>
<g>
	<path style="fill:#B3B3B3;" d="M99.993,186.072c-17.464,0-31.143-7.33-31.143-16.688c0-8.673,12.173-15.784,28.316-16.542
		l0.609-0.029v-45.706H69.997c-0.587,0-1.149-0.235-1.582-0.663L50.44,88.455c-0.422-0.422-0.654-0.983-0.654-1.58
		c0-0.597,0.232-1.158,0.653-1.579l17.978-17.979c0.43-0.425,0.992-0.66,1.579-0.66h27.756V59.35H52.026
		c-0.913,0-1.719-0.536-2.056-1.366c-0.351-0.85-0.164-1.805,0.474-2.437l16.407-16.429L50.446,22.712
		c-0.633-0.639-0.822-1.593-0.477-2.429c0.346-0.836,1.154-1.376,2.057-1.376h45.741v-3.755c0-1.231,1.002-2.233,2.233-2.233
		c1.227,0,2.226,1.001,2.226,2.233v3.755h27.756c0.59,0,1.162,0.239,1.567,0.654l18.012,17.977c0.422,0.416,0.653,0.976,0.653,1.579
		c0,0.588-0.238,1.164-0.653,1.579l-18.006,18.006c-0.416,0.41-0.99,0.647-1.573,0.647l-27.749,0v7.307h45.734
		c0.905,0,1.713,0.54,2.057,1.376c0.35,0.842,0.163,1.794-0.475,2.427l-16.407,16.414l16.405,16.413
		c0.634,0.64,0.823,1.597,0.477,2.436c-0.346,0.841-1.154,1.384-2.057,1.384H102.24v45.706l0.608,0.029
		c16.135,0.764,28.302,7.876,28.302,16.542C131.15,178.742,117.464,186.072,99.993,186.072z M97.096,157.301
		c-13.116,0.674-23.787,6.097-23.787,12.089c0,5.903,10.72,12.222,26.677,12.222c15.966,0,26.692-6.32,26.692-12.222
		c0-5.978-10.667-11.401-23.78-12.089l-0.672-0.035v12.124c0,1.227-0.999,2.226-2.226,2.226c-1.231,0-2.233-0.999-2.233-2.226
		v-12.123L97.096,157.301z M55.172,86.882l15.752,15.766h71.652l-14.179-14.186c-0.422-0.422-0.654-0.982-0.654-1.58
		s0.232-1.158,0.653-1.579l14.18-14.18l-71.652,0L55.172,86.882z M71.591,37.538c0.868,0.868,0.867,2.286-0.002,3.16L57.412,54.883
		h71.643l15.767-15.766l-15.767-15.745H57.41L71.591,37.538z"/>
</g>
</svg>
