<?xml version="1.0" encoding="iso-8859-1"?>
<!-- Generator: Adobe Illustrator 18.0.0, SVG Export Plug-In . SVG Version: 6.00 Build 0)  -->
<!DOCTYPE svg PUBLIC "-//W3C//DTD SVG 1.1//EN" "http://www.w3.org/Graphics/SVG/1.1/DTD/svg11.dtd">
<svg version="1.1" id="Layer_1" xmlns="http://www.w3.org/2000/svg" xmlns:xlink="http://www.w3.org/1999/xlink" x="0px" y="0px"
	 viewBox="0 0 200 200" style="enable-background:new 0 0 200 200;" xml:space="preserve">
<rect x="-32.922" y="192.916" style="fill:#03B2FF;" width="3.773" height="3.773"/>
<g>
	<path style="fill:#B3B3B3;" d="M65.982,175.034c-9.165,0-16.62-7.45-16.62-16.607V41.573c0-9.157,7.456-16.607,16.62-16.607h82.582
		c1.144,0,2.075,0.928,2.075,2.068v116.854c0,1.137-0.931,2.062-2.075,2.062H65.982c-6.887,0-12.49,5.597-12.49,12.477
		s5.603,12.477,12.49,12.477h82.582c1.144,0,2.075,0.928,2.075,2.069c0,1.137-0.931,2.061-2.075,2.061H65.982z M63.117,29.438
		c-5.663,1.331-9.619,6.324-9.619,12.142V147.38l1.094-1.032c2.44-2.304,5.475-3.799,8.775-4.324l0.547-0.087V29.25L63.117,29.438z
		 M68.05,141.827h78.458V29.102H68.05V141.827z"/>
</g>
<g>
	<path style="fill:#B3B3B3;" d="M1560.065,1020.064c-9.165,0-16.62-7.45-16.62-16.607V886.603c0-9.157,7.456-16.607,16.62-16.607
		h82.582c1.144,0,2.075,0.928,2.075,2.068v116.854c0,1.137-0.931,2.062-2.075,2.062h-82.582c-6.887,0-12.49,5.597-12.49,12.477
		s5.603,12.477,12.49,12.477h82.582c1.144,0,2.075,0.928,2.075,2.069c0,1.137-0.931,2.061-2.075,2.061H1560.065z M1557.2,874.467
		c-5.663,1.331-9.619,6.324-9.619,12.142V992.41l1.094-1.032c2.44-2.304,5.475-3.799,8.775-4.324l0.547-0.087V874.28L1557.2,874.467
		z M1562.133,986.857h78.458V874.132h-78.458V986.857z"/>
</g>
</svg>
