<?xml version="1.0" encoding="iso-8859-1"?>
<!-- Generator: Adobe Illustrator 18.0.0, SVG Export Plug-In . SVG Version: 6.00 Build 0)  -->
<!DOCTYPE svg PUBLIC "-//W3C//DTD SVG 1.1//EN" "http://www.w3.org/Graphics/SVG/1.1/DTD/svg11.dtd">
<svg version="1.1" id="Layer_1" xmlns="http://www.w3.org/2000/svg" xmlns:xlink="http://www.w3.org/1999/xlink" x="0px" y="0px"
	 viewBox="0 0 200 200" style="enable-background:new 0 0 200 200;" xml:space="preserve">
<rect x="-32.922" y="192.916" style="fill:#03B2FF;" width="3.773" height="3.773"/>
<g>
	<path style="fill:#B3B3B3;" d="M99.996,146.689c-17.887,0-32.438-14.545-32.438-32.424c0-17.899,14.552-32.461,32.438-32.461
		c17.895,0,32.453,14.562,32.453,32.461C132.45,132.144,117.891,146.689,99.996,146.689z M99.996,85.252
		c-15.989,0-28.998,13.015-28.998,29.013c0,15.977,13.008,28.976,28.998,28.976c15.994,0,29.005-12.998,29.005-28.976
		C129.002,98.267,115.99,85.252,99.996,85.252z"/>
	<path style="fill:#B3B3B3;" d="M99.996,146.689v-0.25c-8.875,0-16.92-3.608-22.75-9.434c-5.829-5.827-9.438-13.869-9.438-22.739
		c0-8.881,3.609-16.932,9.439-22.766c5.829-5.833,13.875-9.445,22.75-9.445c8.879,0,16.928,3.612,22.761,9.445
		c5.832,5.834,9.443,13.885,9.443,22.766c0,8.871-3.611,16.913-9.443,22.739c-5.832,5.826-13.882,9.434-22.761,9.434V146.689v0.25
		c18.033,0,32.703-14.656,32.703-32.674c0-18.038-14.67-32.711-32.703-32.711c-18.025,0-32.688,14.674-32.688,32.711
		c0,18.017,14.663,32.673,32.688,32.674V146.689z M99.996,85.252v-0.25c-16.128,0-29.247,13.127-29.248,29.263
		c0,16.116,13.12,29.225,29.248,29.226c16.132,0,29.255-13.11,29.255-29.226c0-16.136-13.123-29.263-29.255-29.263V85.252v0.25
		c7.928,0,15.116,3.225,20.323,8.434c5.207,5.209,8.432,12.398,8.432,20.329c0,7.92-3.224,15.1-8.432,20.302
		c-5.208,5.202-12.395,8.423-20.324,8.423c-7.926,0-15.112-3.221-20.318-8.423c-5.206-5.202-8.43-12.382-8.43-20.302
		c0-7.93,3.224-15.12,8.43-20.329c5.206-5.209,12.392-8.434,20.318-8.434V85.252z"/>
	<path style="fill:#B3B3B3;" d="M17.682,167.291c-0.947,0-1.717-0.773-1.717-1.724V62.932c0-0.95,0.77-1.724,1.717-1.724h50.657
		l9.645-19.282c0.293-0.591,0.899-0.971,1.544-0.971h40.96c0.641,0,1.243,0.38,1.535,0.967l9.647,19.286h50.642
		c0.946,0,1.72,0.776,1.724,1.73v102.629c0,0.95-0.773,1.724-1.724,1.724H17.682z M19.406,163.851h161.181V64.657h-49.98
		c-0.655,0-1.247-0.369-1.544-0.963l-9.645-19.29H80.582l-9.645,19.29c-0.297,0.594-0.889,0.963-1.544,0.963H19.406V163.851z"/>
	<path style="fill:#B3B3B3;" d="M17.682,167.291v-0.25c-0.807-0.001-1.465-0.661-1.467-1.474V62.932
		c0.001-0.813,0.659-1.472,1.467-1.474h50.811l9.714-19.42l0-0.001c0.251-0.507,0.773-0.833,1.32-0.832h40.96
		c0.541-0.001,1.062,0.325,1.311,0.828l0.001,0.002l9.715,19.422h50.796c0.806-0.001,1.471,0.664,1.474,1.481v-0.001v102.629
		c-0.001,0.812-0.662,1.472-1.474,1.474H17.682L17.682,167.291v0.25h164.629c1.089,0,1.974-0.885,1.974-1.974V62.938v-0.001
		c-0.005-1.091-0.888-1.978-1.974-1.979h-50.487l-9.578-19.148l0,0.001c-0.334-0.672-1.019-1.105-1.759-1.106h-40.96
		c-0.744,0.001-1.432,0.434-1.768,1.11l0-0.001l-9.576,19.144H17.682c-1.086,0.001-1.966,0.886-1.967,1.974v102.635
		c0,1.088,0.881,1.973,1.967,1.974V167.291z M19.406,163.851v0.25h161.431V64.407h-50.23c-0.561-0.001-1.064-0.313-1.32-0.825
		l-9.714-19.428H80.428l-9.714,19.428c-0.257,0.512-0.76,0.825-1.32,0.825H19.156v99.694h0.25V163.851h0.25V64.907h49.738
		c0.75,0.001,1.43-0.425,1.768-1.102l9.576-19.152h38.526l9.576,19.152c0.337,0.677,1.017,1.102,1.767,1.101h49.73v98.694
		l-160.931,0L19.406,163.851h0.25H19.406z"/>
</g>
</svg>
