<?xml version="1.0" encoding="iso-8859-1"?>
<!-- Generator: Adobe Illustrator 18.0.0, SVG Export Plug-In . SVG Version: 6.00 Build 0)  -->
<!DOCTYPE svg PUBLIC "-//W3C//DTD SVG 1.1//EN" "http://www.w3.org/Graphics/SVG/1.1/DTD/svg11.dtd">
<svg version="1.1" id="Layer_1" xmlns="http://www.w3.org/2000/svg" xmlns:xlink="http://www.w3.org/1999/xlink" x="0px" y="0px"
	 viewBox="0 0 200 200" style="enable-background:new 0 0 200 200;" xml:space="preserve">
<rect x="-32.922" y="192.916" style="fill:#03B2FF;" width="3.773" height="3.773"/>
<g>
	<path style="fill:#B3B3B3;" d="M23.225,176.8c-0.951,0-1.696-0.745-1.696-1.695V21.555c0-0.931,0.761-1.689,1.696-1.689h153.55
		c0.935,0,1.696,0.757,1.696,1.689v153.549c0,0.935-0.761,1.695-1.696,1.695H23.225z M24.921,173.423h150.158V23.258H24.921V173.423
		z"/>
	<path style="fill:#B3B3B3;" d="M23.225,176.8v-0.15c-0.87-0.002-1.544-0.675-1.546-1.545V21.555
		c0.002-0.847,0.693-1.537,1.546-1.539h153.55c0.852,0.001,1.544,0.691,1.546,1.539v153.549c-0.002,0.852-0.694,1.544-1.546,1.545
		H23.225L23.225,176.8v0.15h153.55c1.018,0,1.845-0.827,1.846-1.845V21.555c-0.001-1.015-0.828-1.839-1.846-1.839H23.225
		c-1.017,0-1.845,0.824-1.846,1.839v153.55c0,0.515,0.202,0.978,0.535,1.31c0.332,0.333,0.796,0.535,1.31,0.535V176.8z
		 M24.921,173.423v0.15h150.308V23.108H24.771v150.466h0.15V173.423h0.15V23.408h149.858l0,149.866H24.921L24.921,173.423h0.15
		H24.921z"/>
	<path style="fill:#B3B3B3;" d="M42.419,157.606c-0.237,0-0.469-0.049-0.683-0.144c-0.059-0.084-0.138-0.178-0.242-0.269
		l-0.044-0.036c-0.075-0.059-0.14-0.173-0.259-0.387l-0.082-0.146c-0.149-0.254-0.227-0.392-0.239-0.504l-0.007-0.052
		c-0.026-0.166-0.079-0.305-0.132-0.411V40.741c0-0.931,0.761-1.689,1.696-1.689h115.148c0.931,0,1.689,0.757,1.689,1.689v114.924
		c-0.05,0.111-0.098,0.254-0.117,0.424c-0.017,0.091-0.083,0.213-0.194,0.415l-0.148,0.268c-0.128,0.231-0.184,0.326-0.261,0.396
		l-0.123,0.11c-0.127,0.008-0.279,0.026-0.443,0.074c-0.258,0.083-0.432,0.185-0.547,0.253l-0.002,0.001H42.419z M83.18,124.588
		l17.779,29.634l53.561,0.001l-44.934-71.892L83.18,124.588z M45.42,154.222h51.594l-17.267-28.771l-8.526-14.233L45.42,154.222z
		 M109.589,77.526c0.621,0,1.154,0.264,1.425,0.706l44.871,71.77V42.451H44.121l-0.014,1.163v106.192l25.649-42.763
		c0.306-0.493,0.867-0.809,1.457-0.809c0.593,0,1.153,0.313,1.462,0.817l8.55,14.253l26.928-43.065
		C108.431,77.791,108.966,77.526,109.589,77.526z"/>
	<path style="fill:#B3B3B3;" d="M42.419,157.606v-0.15c-0.216,0-0.428-0.045-0.622-0.131l-0.061,0.137l0.123-0.086
		c-0.065-0.092-0.151-0.196-0.266-0.296l-0.002-0.001l-0.045-0.037l-0.002-0.001l-0.001-0.001c-0.035-0.023-0.104-0.128-0.221-0.342
		l0-0.001l-0.082-0.146l0-0.001l-0.001-0.001c-0.15-0.252-0.218-0.389-0.22-0.445l0-0.002l-0.007-0.053l0-0.002l0-0.002
		c-0.029-0.184-0.088-0.337-0.145-0.454l-0.135,0.066h0.15V40.741c0.002-0.847,0.693-1.537,1.546-1.539h115.148
		c0.848,0.002,1.537,0.691,1.539,1.539v114.924h0.15l-0.137-0.062c-0.055,0.122-0.108,0.28-0.13,0.469l0.149,0.017l-0.148-0.027
		c-0.006,0.047-0.066,0.17-0.178,0.369l-0.148,0.268c-0.127,0.232-0.179,0.313-0.23,0.357l-0.123,0.11l0.1,0.112l-0.009-0.15
		c-0.134,0.008-0.298,0.028-0.476,0.079l-0.002,0.001l-0.002,0.001c-0.273,0.088-0.461,0.198-0.577,0.266l-0.003,0.002l0.078,0.128
		v-0.15H42.419V157.606v0.15h115.05l0.038-0.023l-0.078-0.128l0.076,0.129c0.114-0.067,0.274-0.161,0.517-0.239l-0.046-0.143
		l0.042,0.144c0.151-0.044,0.291-0.061,0.411-0.068l0.052-0.003l0.162-0.145c0.104-0.096,0.164-0.205,0.292-0.435l0.148-0.268
		c0.111-0.204,0.183-0.325,0.21-0.46l0.001-0.005l0.001-0.005c0.017-0.151,0.06-0.279,0.105-0.379l0.013-0.029V40.741
		c0-1.014-0.824-1.838-1.839-1.839H42.426c-1.018,0-1.845,0.824-1.846,1.839v114.952l0.015,0.031
		c0.047,0.096,0.095,0.22,0.118,0.368l0.148-0.023l-0.149,0.02l0.007,0.052l0.149-0.02l-0.149,0.017
		c0.023,0.168,0.112,0.307,0.259,0.563l0.13-0.076l-0.131,0.074l0.082,0.146l0-0.001c0.121,0.214,0.183,0.337,0.298,0.432
		l0.093-0.118l-0.095,0.116l0.044,0.036l0.095-0.116l-0.098,0.113c0.094,0.082,0.164,0.166,0.218,0.242l0.024,0.034l0.038,0.017
		c0.233,0.103,0.486,0.156,0.744,0.156V157.606z M83.18,124.588l-0.129,0.077l17.823,29.707l53.917,0.001l-45.205-72.325
		l-26.583,42.538l0.047,0.079L83.18,124.588l0.127,0.079l26.28-42.053l44.663,71.458l-53.206-0.001l-17.736-29.561L83.18,124.588
		l0.127,0.079L83.18,124.588z M45.42,154.222v0.15h51.859l-17.403-28.998l-8.655-14.448l-26.066,43.446h0.265V154.222l0.129,0.077
		l25.672-42.79l8.398,14.019l17.13,28.544H45.42V154.222l0.129,0.077L45.42,154.222z M109.589,77.526v0.15
		c0.58,0,1.06,0.246,1.298,0.634l45.149,72.214V42.301H43.973l-0.016,1.311l0,0.001v106.734l25.927-43.228l-0.129-0.077l0.127,0.079
		c0.277-0.448,0.794-0.739,1.329-0.738c0.54,0,1.054,0.287,1.334,0.746l-0.001-0.001l8.676,14.463l27.058-43.272l0-0.001
		c0.245-0.397,0.727-0.642,1.308-0.643V77.526v-0.15c-0.664,0-1.253,0.284-1.564,0.785l0-0.001l-26.798,42.857l-8.424-14.043l0,0
		c-0.337-0.55-0.943-0.889-1.59-0.889c-0.643,0.001-1.25,0.341-1.584,0.88l0,0.001l-25.371,42.3l0-105.649l0.012-1.014h111.466
		v106.878l-44.594-71.327l0.001,0.001c-0.305-0.495-0.891-0.778-1.553-0.778V77.526z"/>
	<path style="fill:#B3B3B3;" d="M70.495,73.937c-6.225,0-11.289-5.067-11.289-11.296c0-6.225,5.064-11.289,11.289-11.289
		c6.229,0,11.296,5.064,11.296,11.289C81.791,68.869,76.723,73.937,70.495,73.937z M70.495,54.736c-4.359,0-7.905,3.546-7.905,7.905
		c0,4.355,3.546,7.898,7.905,7.898s7.905-3.543,7.905-7.898C78.4,58.282,74.853,54.736,70.495,54.736z"/>
	<path style="fill:#B3B3B3;" d="M70.495,73.937v-0.15c-3.071,0-5.855-1.25-7.873-3.268c-2.017-2.019-3.266-4.804-3.266-7.878
		c0-3.071,1.249-5.855,3.266-7.873c2.018-2.017,4.801-3.266,7.873-3.266c3.073,0,5.859,1.249,7.878,3.266
		c2.019,2.018,3.268,4.801,3.268,7.873c0,3.073-1.25,5.859-3.268,7.878c-2.019,2.019-4.804,3.268-7.878,3.268V73.937v0.15
		c6.312,0,11.446-5.134,11.446-11.446c0-6.308-5.134-11.439-11.446-11.439c-6.308,0-11.439,5.131-11.439,11.439
		c0,6.312,5.131,11.446,11.439,11.446V73.937z M70.495,54.736v-0.15c-4.442,0-8.055,3.613-8.055,8.055
		c0,4.438,3.613,8.048,8.055,8.048c4.442,0,8.055-3.61,8.055-8.048c0-4.442-3.613-8.054-8.055-8.055V54.736v0.15
		c2.138,0,4.076,0.869,5.481,2.274c1.405,1.405,2.274,3.343,2.274,5.481c0,2.136-0.869,4.072-2.274,5.476
		c-1.405,1.403-3.343,2.272-5.481,2.272c-2.138,0-4.076-0.869-5.481-2.272c-1.405-1.403-2.274-3.34-2.274-5.476
		c0-2.138,0.869-4.076,2.274-5.481c1.405-1.404,3.343-2.274,5.481-2.274V54.736z"/>
</g>
</svg>
