<?xml version="1.0" encoding="iso-8859-1"?>
<!-- Generator: Adobe Illustrator 18.0.0, SVG Export Plug-In . SVG Version: 6.00 Build 0)  -->
<!DOCTYPE svg PUBLIC "-//W3C//DTD SVG 1.1//EN" "http://www.w3.org/Graphics/SVG/1.1/DTD/svg11.dtd">
<svg version="1.1" id="Layer_1" xmlns="http://www.w3.org/2000/svg" xmlns:xlink="http://www.w3.org/1999/xlink" x="0px" y="0px"
	 viewBox="0 0 200 200" style="enable-background:new 0 0 200 200;" xml:space="preserve">
<rect x="-32.922" y="192.916" style="fill:#03B2FF;" width="3.773" height="3.773"/>
<g>
	<g>
		<path style="fill:#B3B3B3;" d="M32.19,175c-1.054,0-1.911-0.854-1.911-1.905c0-1.054,0.858-1.911,1.911-1.911h135.62
			c1.054,0,1.911,0.858,1.911,1.911c0,1.05-0.858,1.905-1.911,1.905H32.19z"/>
	</g>
	<g>
		<path style="fill:#B3B3B3;" d="M48.432,158.071c-1.054,0-1.911-0.858-1.912-1.912v-50.883c0-1.054,0.858-1.911,1.911-1.911h32.693
			v-65.89c0-1.036,0.875-1.911,1.911-1.911h33.903c1.054,0,1.911,0.857,1.911,1.911v31.986h32.017c1.047,0,1.899,0.855,1.899,1.905
			v84.799c0,1.05-0.852,1.905-1.899,1.905H48.432z M84.948,154.254h30.087V39.393H84.948V154.254z M118.851,154.248h30.099V73.284
			h-30.099V154.248z M50.343,154.248h30.782v-47.066H50.343V154.248z"/>
	</g>
</g>
</svg>
