<?xml version="1.0" encoding="iso-8859-1"?>
<!-- Generator: Adobe Illustrator 18.0.0, SVG Export Plug-In . SVG Version: 6.00 Build 0)  -->
<!DOCTYPE svg PUBLIC "-//W3C//DTD SVG 1.1//EN" "http://www.w3.org/Graphics/SVG/1.1/DTD/svg11.dtd">
<svg version="1.1" id="Layer_1" xmlns="http://www.w3.org/2000/svg" xmlns:xlink="http://www.w3.org/1999/xlink" x="0px" y="0px"
	 viewBox="0 0 200 200" style="enable-background:new 0 0 200 200;" xml:space="preserve">
<rect x="-32.922" y="192.916" style="fill:#03B2FF;" width="3.773" height="3.773"/>
<g>
	<path style="fill:#B3B3B3;" d="M31.516,116.925c-0.661,0-1.277-0.313-1.691-0.859c-0.379-0.518-0.497-1.211-0.308-1.841
		l26.203-84.9c0.28-0.881,1.09-1.477,2.015-1.477h84.245c0.907,0,1.7,0.589,1.973,1.464l26.185,84.23l0.072,0.102
		c0.24,0.342,0.361,0.743,0.361,1.194c0,1.15-0.935,2.085-2.085,2.085H31.516z M34.33,112.755h131.182l-25.09-80.736H59.255
		L34.33,112.755z"/>
	<path style="fill:#B3B3B3;" d="M31.516,136.281c-1.142,0-2.071-0.935-2.071-2.085c0-1.146,0.929-2.078,2.071-2.078h136.843
		c1.142,0,2.071,0.932,2.071,2.078c0,1.149-0.929,2.085-2.071,2.085H31.516z"/>
	<path style="fill:#B3B3B3;" d="M31.516,155.637c-1.142,0-2.071-0.932-2.071-2.078c0-1.154,0.929-2.092,2.071-2.092h136.843
		c1.142,0,2.071,0.938,2.071,2.092c0,1.146-0.929,2.078-2.071,2.078H31.516z"/>
	<path style="fill:#B3B3B3;" d="M31.516,175c-1.142,0-2.071-0.935-2.071-2.085c0-1.15,0.929-2.085,2.071-2.085h136.843
		c1.142,0,2.071,0.935,2.071,2.085c0,1.15-0.929,2.085-2.071,2.085H31.516z"/>
	<path style="fill:#B3B3B3;" d="M70.215,55.109c-1.15,0-2.085-0.932-2.085-2.078c0-1.15,0.935-2.085,2.085-2.085h59.721
		c1.15,0,2.085,0.935,2.085,2.085c0,1.146-0.935,2.078-2.085,2.078H70.215z"/>
	<path style="fill:#B3B3B3;" d="M64.161,74.472c-0.561,0-1.087-0.219-1.481-0.615c-0.391-0.393-0.606-0.914-0.603-1.466
		c0-1.153,0.935-2.089,2.085-2.089h71.505c1.142,0,2.071,0.935,2.071,2.085c0,1.15-0.929,2.085-2.071,2.085H64.161z"/>
	<path style="fill:#B3B3B3;" d="M58.086,93.898c-1.157,0-2.099-0.935-2.099-2.085c0-1.15,0.941-2.085,2.099-2.085h83.577
		c1.15,0,2.085,0.935,2.085,2.085c0,1.149-0.935,2.085-2.085,2.085H58.086z"/>
</g>
</svg>
