<?xml version="1.0" encoding="iso-8859-1"?>
<!-- Generator: Adobe Illustrator 18.0.0, SVG Export Plug-In . SVG Version: 6.00 Build 0)  -->
<!DOCTYPE svg PUBLIC "-//W3C//DTD SVG 1.1//EN" "http://www.w3.org/Graphics/SVG/1.1/DTD/svg11.dtd">
<svg version="1.1" id="Layer_1" xmlns="http://www.w3.org/2000/svg" xmlns:xlink="http://www.w3.org/1999/xlink" x="0px" y="0px"
	 viewBox="0 0 200 200" style="enable-background:new 0 0 200 200;" xml:space="preserve">
<rect x="-32.922" y="192.916" style="fill:#03B2FF;" width="3.773" height="3.773"/>
<g>
	<path style="fill:#B3B3B3;" d="M26.913,175c-1.026,0-1.861-0.838-1.861-1.868V118.48c0.061-0.109,0.125-0.249,0.15-0.426
		c0.033-0.16,0.009-0.317-0.017-0.43l27.365-88.647c0.244-0.787,0.959-1.316,1.779-1.316h91.351c0.821,0,1.536,0.529,1.78,1.317
		l27.362,88.639c-0.025,0.118-0.045,0.266-0.021,0.438c0.026,0.179,0.091,0.32,0.145,0.415l-0.001,54.663
		c0,1.03-0.838,1.868-1.868,1.868H26.913z M28.788,171.265h142.437v-51.073H28.788V171.265z M29.454,116.456h141.106l-26.265-85.067
		H55.706L29.454,116.456z"/>
	<path style="fill:#B3B3B3;" d="M81.741,156.735c-6.069,0-11.006-4.941-11.006-11.013c0-6.065,4.937-11,11.006-11l36.524-0.013
		c6.065,0,11,4.938,11,11.007c0,6.069-4.935,11.006-11,11.006L81.741,156.735L81.741,156.735z M81.741,138.457
		c-1.941,0-3.768,0.76-5.144,2.139c-1.375,1.378-2.131,3.203-2.127,5.141c0,3.886,3.037,7.073,6.913,7.256l36.882,0.001
		c4.009,0,7.271-3.262,7.271-7.271c0-3.914-3.059-7.105-6.965-7.264L81.741,138.457z"/>
</g>
</svg>
