<?xml version="1.0" encoding="iso-8859-1"?>
<!-- Generator: Adobe Illustrator 18.0.0, SVG Export Plug-In . SVG Version: 6.00 Build 0)  -->
<!DOCTYPE svg PUBLIC "-//W3C//DTD SVG 1.1//EN" "http://www.w3.org/Graphics/SVG/1.1/DTD/svg11.dtd">
<svg version="1.1" id="Layer_1" xmlns="http://www.w3.org/2000/svg" xmlns:xlink="http://www.w3.org/1999/xlink" x="0px" y="0px"
	 viewBox="0 0 200 200" style="enable-background:new 0 0 200 200;" xml:space="preserve">
<rect x="-32.922" y="192.916" style="fill:#03B2FF;" width="3.773" height="3.773"/>
<g>
	<polygon style="fill:#B3B3B3;" points="27.171,27.171 27.171,29.093 170.907,29.093 170.907,170.907 29.093,170.907 29.092,27.171 
		27.171,27.171 27.171,29.093 27.171,27.171 25.25,27.171 25.25,174.75 174.75,174.75 174.75,25.25 25.25,25.25 25.25,27.171 	"/>
	<polyline style="fill:#B3B3B3;" points="65.188,43.617 65.188,90.603 69.031,90.603 69.031,43.617 	"/>
	<polyline style="fill:#B3B3B3;" points="90.603,65.188 43.617,65.188 43.617,69.031 90.603,69.031 	"/>
	<polyline style="fill:#B3B3B3;" points="156.384,65.188 109.398,65.188 109.398,69.031 156.384,69.031 	"/>
	<polyline style="fill:#B3B3B3;" points="49.674,153.044 87.263,115.455 84.546,112.737 46.956,150.326 	"/>
	<polyline style="fill:#B3B3B3;" points="46.956,115.455 84.546,153.044 87.263,150.326 49.674,112.737 	"/>
	<polyline style="fill:#B3B3B3;" points="109.398,127.764 156.384,127.764 156.384,123.921 109.398,123.921 	"/>
	<polyline style="fill:#B3B3B3;" points="109.398,141.86 156.384,141.86 156.384,138.017 109.398,138.017 	"/>
</g>
</svg>
