<?xml version="1.0" encoding="iso-8859-1"?>
<!-- Generator: Adobe Illustrator 18.0.0, SVG Export Plug-In . SVG Version: 6.00 Build 0)  -->
<!DOCTYPE svg PUBLIC "-//W3C//DTD SVG 1.1//EN" "http://www.w3.org/Graphics/SVG/1.1/DTD/svg11.dtd">
<svg version="1.1" id="Layer_1" xmlns="http://www.w3.org/2000/svg" xmlns:xlink="http://www.w3.org/1999/xlink" x="0px" y="0px"
	 viewBox="0 0 200 200" style="enable-background:new 0 0 200 200;" xml:space="preserve">
<rect x="-32.922" y="192.916" style="fill:#03B2FF;" width="3.773" height="3.773"/>
<g>
	<path style="fill:#B3B3B3;" d="M169.002,170.998v-1.951H30.998c-1.644-0.001-3.115-0.661-4.194-1.737
		c-1.076-1.079-1.736-2.55-1.737-4.194V40.884c0.001-1.644,0.661-3.114,1.737-4.194c1.08-1.076,2.55-1.736,4.194-1.737h138.003
		c1.644,0.001,3.114,0.661,4.194,1.737c1.076,1.079,1.736,2.55,1.737,4.194v122.232c-0.001,1.644-0.661,3.114-1.737,4.194
		c-1.08,1.076-2.55,1.736-4.194,1.737V170.998v1.95c5.431-0.001,9.831-4.401,9.832-9.832V40.884
		c-0.001-5.431-4.401-9.831-9.832-9.832H30.998c-5.431,0.001-9.831,4.401-9.832,9.832v122.232c0.001,5.431,4.401,9.831,9.832,9.832
		h138.003V170.998z"/>
	<path style="fill:#B3B3B3;" d="M84.87,73.793l41.076,26.235l-38.076,24.319v-24.319v-7.886c0-1.077-0.873-1.95-1.95-1.95
		c-1.077,0-1.95,0.873-1.95,1.95l0,7.886v27.879c0,0.709,0.391,1.37,1.013,1.711c0.622,0.341,1.389,0.315,1.987-0.067l43.65-27.879
		c0.561-0.358,0.9-0.979,0.9-1.644c0-0.665-0.34-1.286-0.9-1.644L86.97,70.506c-0.908-0.58-2.114-0.314-2.694,0.594
		C83.696,72.007,83.963,73.213,84.87,73.793L84.87,73.793z"/>
	<path style="fill:#B3B3B3;" d="M148.991,102h1.95c-0.001-28.297-22.938-51.233-51.234-51.235
		C71.41,50.767,48.474,73.703,48.472,102c0.001,28.297,22.938,51.233,51.235,51.235c28.297-0.001,51.233-22.938,51.234-51.235
		H148.991h-1.951c-0.001,13.077-5.295,24.898-13.864,33.47c-8.572,8.569-20.393,13.863-33.47,13.864
		c-13.077-0.001-24.898-5.295-33.47-13.864c-8.569-8.572-13.863-20.393-13.864-33.47c0.001-13.077,5.295-24.898,13.864-33.47
		c8.572-8.569,20.393-13.863,33.47-13.864c13.077,0.001,24.898,5.295,33.47,13.864c8.569,8.572,13.863,20.393,13.864,33.47H148.991z
		"/>
</g>
</svg>
