<?xml version="1.0" encoding="iso-8859-1"?>
<!-- Generator: Adobe Illustrator 18.0.0, SVG Export Plug-In . SVG Version: 6.00 Build 0)  -->
<!DOCTYPE svg PUBLIC "-//W3C//DTD SVG 1.1//EN" "http://www.w3.org/Graphics/SVG/1.1/DTD/svg11.dtd">
<svg version="1.1" id="Layer_1" xmlns="http://www.w3.org/2000/svg" xmlns:xlink="http://www.w3.org/1999/xlink" x="0px" y="0px"
	 viewBox="0 0 200 200" style="enable-background:new 0 0 200 200;" xml:space="preserve">
<rect x="-32.922" y="192.916" style="fill:#03B2FF;" width="3.773" height="3.773"/>
<g>
	<path style="fill:#B3B3B3;" d="M29.42,85.676c-4.272-4.271-6.623-9.946-6.621-15.983c-0.003-6.037,2.349-11.713,6.621-15.983
		l2.62-2.62c4.268-4.269,9.94-6.62,15.972-6.62c6.053,0,11.725,2.351,15.993,6.62l90.572,90.572l-9.044,9.044l-2.599-2.599
		l6.445-6.445L61.406,53.69c-3.574-3.573-8.327-5.541-13.384-5.544c-5.057,0.003-9.81,1.971-13.384,5.544l-2.62,2.62
		c-3.572,3.574-5.541,8.327-5.544,13.384c0.003,5.057,1.972,9.81,5.544,13.384l89.021,89.021l-2.599,2.599L29.42,85.676z"/>
	<path style="fill:#B3B3B3;" d="M151.978,166.885c-6.043,0-11.716-2.351-15.983-6.62L45.423,69.693l9.044-9.044l2.598,2.599
		l-6.445,6.445l87.973,87.973c3.573,3.572,8.326,5.541,13.383,5.544c5.057-0.002,9.81-1.972,13.384-5.544l2.62-2.619
		c3.572-3.574,5.541-8.327,5.544-13.384c-0.003-5.057-1.972-9.811-5.544-13.384l-89.02-89.02l2.599-2.599l89.02,89.02
		c4.272,4.271,6.623,9.947,6.62,15.983c0.003,6.036-2.348,11.712-6.62,15.983l-2.62,2.619c-4.268,4.269-9.941,6.62-15.973,6.62
		H151.978z"/>
</g>
</svg>
