<?xml version="1.0" encoding="iso-8859-1"?>
<!-- Generator: Adobe Illustrator 18.0.0, SVG Export Plug-In . SVG Version: 6.00 Build 0)  -->
<!DOCTYPE svg PUBLIC "-//W3C//DTD SVG 1.1//EN" "http://www.w3.org/Graphics/SVG/1.1/DTD/svg11.dtd">
<svg version="1.1" id="Layer_1" xmlns="http://www.w3.org/2000/svg" xmlns:xlink="http://www.w3.org/1999/xlink" x="0px" y="0px"
	 viewBox="0 0 200 200" style="enable-background:new 0 0 200 200;" xml:space="preserve">
<rect x="-32.922" y="192.916" style="fill:#03B2FF;" width="3.773" height="3.773"/>
<g>
	<path style="fill:#B3B3B3;" d="M176,66.963c0-0.876,0.186-1.797,0.185-2.747c-0.006-1.785-0.734-3.566-1.673-5.288
		c-1.419-2.576-3.748-4.46-6.567-6.342C165.13,50.712,161.653,50,157.977,50H76.42H45.73c-0.168,0-0.341-0.054-0.521-0.041
		C44.839,49.986,44.46,50,44.083,50h-0.419c-0.082,0-0.16,0-0.238,0c-0.006,0-0.011,0-0.018,0c-4.481,0-8.508-1.794-11.295-3.658
		c-1.395-0.93-2.476-2.293-3.19-3.419c-0.714-1.131-1.073-2.433-1.075-3.65c0.002-1.216,0.361-2.448,1.075-3.579
		c1.066-1.69,2.977-3.308,5.5-4.441c2.518-1.136,5.623-1.84,8.984-1.838c4.48-0.005,8.507,1.217,11.294,3.082
		c1.396,0.93,2.476,2.004,3.19,3.131c0.715,1.131,1.073,2.289,1.076,3.506c0,1.059,0.858,1.916,1.918,1.916
		c1.059,0,1.918-0.859,1.918-1.918l-0.001,0c0.002-2.001-0.617-3.906-1.672-5.563c-1.587-2.492-4.108-4.467-7.163-5.847
		c-3.06-1.377-6.68-2.158-10.558-2.159c-5.172,0.005-9.883,1.382-13.422,3.734c-1.767,1.179-3.246,2.61-4.301,4.272
		c-0.903,1.419-1.46,3.151-1.607,4.839C24.041,38.557,24.196,39,24.196,39H24v109.7c0,11.117,9.025,20.3,20.142,20.3h96.576
		c0.228,2,0.653,2.372,1.275,3.473c1.404,2.483,3.67,4.451,6.432,5.852c2.765,1.4,6.043,2.174,9.552,2.175
		c4.678-0.003,8.948-1.421,12.135-3.807c1.592-1.194,2.915-2.646,3.849-4.301c0.934-1.652,1.47-3.524,1.468-5.48
		c0-0.103,0.271-0.203,0.255-0.302c0.016-0.1,0.316-0.202,0.316-0.307V66.963z M32.696,160.724C29.745,157.77,28,153.205,28,148.7
		V47.278c2,1.306,3.017,2.4,4.925,3.262c3.06,1.377,6.642,2.321,10.521,2.322c0.227,0,0.409,0.138,0.634,0.138H76.42h81.558
		c1.841,0,3.651,0.272,5.343,1.022c2.537,1.12,4.793,2.881,6.359,4.854c0.785,0.984,1.396,1.958,1.797,2.9
		c0.186,0.433,0.023,0.826,0.12,1.215c-0.187,0.296-0.596,0.624-0.596,1.001v2.277c0,0.223,0.069,0.444-0.073,0.665
		c-0.841,1.313-2.244,2.571-4.374,3.478c-2.125,0.909-4.727,1.463-7.709,1.462c-3.974,0.004-7.228-0.999-9.406-2.472
		c-1.092-0.735-1.886-1.579-2.418-2.458c-0.531-0.883-0.785-1.792-0.788-2.772c0-1.059-0.854-1.917-1.912-1.917
		c-0.28,0-0.541,0.063-0.781,0.171c-0.311-0.219-0.951-0.35-1.36-0.35c-1.059,0-2.179,0.858-2.179,1.918V166H44.142
		C39.637,166,35.651,163.675,32.696,160.724z M170.62,170.503c-0.954,1.699-2.628,3.246-4.824,4.358
		c-2.194,1.113-4.893,1.784-7.819,1.783c-3.902,0.003-7.399-1.197-9.834-3.029c-1.219-0.914-2.171-1.978-2.81-3.111
		c-0.638-1.136-0.972-2.332-0.974-3.593c0-0.104,0.307-0.205,0.29-0.306c0.016-0.099,0.35-0.198,0.35-0.301V69.807
		c1,1.727,2.843,3.112,5.07,4.105c2.598,1.156,5.553,1.795,9.009,1.796c4.603-0.005,8.325-1.115,11.405-3.079
		c0.311-0.199,0.516-0.414,0.516-0.631v94.304c0,0.105,0.312,0.205,0.328,0.306c-0.016,0.099,0.118,0.198,0.118,0.301
		C171.444,168.171,171.259,169.367,170.62,170.503z"/>
	<path style="fill:#B3B3B3;" d="M58.828,64.107c-0.749-0.749-1.963-0.749-2.712,0l-6.882,6.883l-6.882-6.883
		c-0.749-0.749-1.963-0.749-2.712,0c-0.749,0.749-0.749,1.963,0,2.712l6.882,6.883l-6.882,6.883c-0.749,0.749-0.749,1.963,0,2.712
		c0.749,0.749,1.963,0.749,2.712,0l6.882-6.883l6.882,6.883c0.749,0.749,1.963,0.749,2.712,0c0.748-0.749,0.748-1.963,0-2.712
		l-6.883-6.883l6.883-6.883C59.576,66.07,59.576,64.856,58.828,64.107z"/>
	<path style="fill:#B3B3B3;" d="M117.968,139.724l6.882-6.883c0.749-0.749,0.749-1.963,0-2.712c-0.749-0.749-1.963-0.749-2.712,0
		l-6.882,6.883l-6.882-6.883c-0.749-0.749-1.963-0.749-2.712,0c-0.749,0.749-0.749,1.963,0,2.712l6.883,6.883l-6.883,6.882
		c-0.749,0.749-0.749,1.963,0,2.712c0.749,0.749,1.963,0.749,2.712,0l6.882-6.883l6.882,6.883c0.749,0.749,1.963,0.749,2.712,0
		c0.749-0.749,0.749-1.963,0-2.712L117.968,139.724z"/>
	<path style="fill:#B3B3B3;" d="M114.923,88.688c1.104,3.216,1.522,6.693,1.522,10.057c0.001,4.5-0.748,8.786-1.501,11.925
		c-0.376,1.57-0.752,2.853-1.031,3.737c-0.14,0.442-0.256,0.784-0.335,1.012c-0.04,0.114-0.07,0.199-0.09,0.255l-0.022,0.06
		l-0.005,0.013c-0.373,0.991,0.128,2.097,1.12,2.47c0.991,0.373,2.097-0.128,2.471-1.12l-0.001,0
		c0.036-0.12,3.217-8.518,3.228-18.352c-0.001-3.269-0.356-6.704-1.332-10.051c-0.733-2.509-1.819-4.97-3.369-7.246
		c-2.321-3.415-5.704-6.39-10.342-8.456c-4.639-2.071-10.509-3.255-17.893-3.255c-5.469,0-11.776,0.649-19.061,2.082
		c-1.039,0.204-1.716,1.213-1.511,2.252c0.204,1.039,1.212,1.716,2.252,1.511c7.088-1.395,13.156-2.011,18.32-2.01
		c6.203,0,11.099,0.886,14.937,2.347c2.881,1.097,5.17,2.512,7.011,4.145C112.047,82.514,113.816,85.468,114.923,88.688z"/>
</g>
</svg>
