<?xml version="1.0" encoding="iso-8859-1"?>
<!-- Generator: Adobe Illustrator 18.0.0, SVG Export Plug-In . SVG Version: 6.00 Build 0)  -->
<!DOCTYPE svg PUBLIC "-//W3C//DTD SVG 1.1//EN" "http://www.w3.org/Graphics/SVG/1.1/DTD/svg11.dtd">
<svg version="1.1" id="Layer_1" xmlns="http://www.w3.org/2000/svg" xmlns:xlink="http://www.w3.org/1999/xlink" x="0px" y="0px"
	 viewBox="0 0 200 200" style="enable-background:new 0 0 200 200;" xml:space="preserve">
<rect x="-32.922" y="192.916" style="fill:#03B2FF;" width="3.773" height="3.773"/>
<g>
	<path style="fill:#B3B3B3;" d="M67,133H25v1.622V175h42.292H119v-4H67V133z M29,137h34v34H29V137z"/>
	<path style="fill:#B3B3B3;" d="M171,133h-38v42h1.622H175v-1.912v-40.38V81h-4V133z M171,137v34h-34v-34H171z"/>
	<path style="fill:#B3B3B3;" d="M29,67h38v-1.62V25h-1.622H25v42.292V119h4V67z M29,29h34v34H29V29z"/>
	<path style="fill:#B3B3B3;" d="M132.708,25H81v4h52v38h42v-1.62v0V25H132.708z M137,29h34v8.963V63h-34V29z"/>
</g>
</svg>
