<?xml version="1.0" encoding="iso-8859-1"?>
<!-- Generator: Adobe Illustrator 18.0.0, SVG Export Plug-In . SVG Version: 6.00 Build 0)  -->
<!DOCTYPE svg PUBLIC "-//W3C//DTD SVG 1.1//EN" "http://www.w3.org/Graphics/SVG/1.1/DTD/svg11.dtd">
<svg version="1.1" id="Layer_1" xmlns="http://www.w3.org/2000/svg" xmlns:xlink="http://www.w3.org/1999/xlink" x="0px" y="0px"
	 viewBox="0 0 200 200" style="enable-background:new 0 0 200 200;" xml:space="preserve">
<rect x="-32.922" y="192.916" style="fill:#03B2FF;" width="3.773" height="3.773"/>
<g>
	<path style="fill:#B3B3B3;" d="M177.334,127.811c-0.001-1.021-0.83-1.847-1.85-1.846l-13.228,0.016l-0.017-14.268l13.228-0.016
		c0.494-0.001,0.957-0.193,1.306-0.543c0.349-0.35,0.54-0.814,0.54-1.307l-0.034-28.742c-0.001-1.021-0.83-1.847-1.85-1.846
		l-13.228,0.016l-0.017-14.268l13.228-0.016c0.494-0.001,0.957-0.193,1.306-0.543c0.349-0.35,0.54-0.814,0.54-1.307l-0.034-28.742
		c-0.001-1.021-0.83-1.847-1.85-1.846l-150.896,0.18c-1.021,0.001-1.847,0.83-1.846,1.85l0.034,28.742
		c0.001,1.021,0.829,1.847,1.85,1.846l19.003-0.023l0.017,14.268l-19.003,0.023c-1.021,0.001-1.847,0.829-1.846,1.85l0.034,28.742
		c0.001,1.021,0.829,1.847,1.85,1.846l19.004-0.023l0.017,14.268l-19.003,0.023c-1.021,0.001-1.847,0.829-1.846,1.85l0.034,28.742
		c0.001,1.021,0.829,1.847,1.85,1.846l19.004-0.023l0.017,14.268l-8.93,0.011l0.004,3.696l21.556-0.026l-0.004-3.696l-8.93,0.011
		l-0.017-14.268l111.272-0.133l0.017,14.268l-8.93,0.011l0.004,3.696l21.557-0.026l-0.004-3.696l-8.93,0.011l-0.017-14.268
		l13.228-0.016c0.494-0.001,0.957-0.193,1.306-0.543s0.54-0.814,0.54-1.307L177.334,127.811z M26.329,36.427l147.201-0.175
		l0.03,25.046L26.359,61.473L26.329,36.427z M47.215,65.144l111.273-0.133l0.017,14.268L47.232,79.412L47.215,65.144z
		 M26.385,83.133l147.201-0.175l0.03,25.046l-147.2,0.175L26.385,83.133z M47.271,111.85l111.273-0.133l0.017,14.268l-111.273,0.133
		L47.271,111.85z M26.44,129.839l147.201-0.175l0.03,25.046l-147.2,0.175L26.44,129.839z"/>
	<circle style="fill:#B3B3B3;" cx="153.947" cy="142.21" r="7.186"/>
	<circle style="fill:#B3B3B3;" cx="128.798" cy="142.24" r="7.185"/>
	<path style="fill:#B3B3B3;" d="M99.348,140.427l-57.484,0.068c-1.021,0.001-1.847,0.83-1.846,1.85
		c0.001,1.021,0.829,1.847,1.85,1.846l57.484-0.068c1.021-0.001,1.847-0.83,1.846-1.85
		C101.197,141.252,100.369,140.426,99.348,140.427z"/>
	<circle style="fill:#B3B3B3;" cx="153.892" cy="95.504" r="7.186"/>
	<circle style="fill:#B3B3B3;" cx="128.742" cy="95.534" r="7.186"/>
	<path style="fill:#B3B3B3;" d="M99.293,93.721L41.808,93.79c-1.021,0.001-1.847,0.829-1.846,1.85
		c0.001,1.021,0.829,1.847,1.85,1.846l57.484-0.068c1.021-0.001,1.847-0.83,1.846-1.85C101.141,94.546,100.313,93.72,99.293,93.721z
		"/>
	<circle style="fill:#B3B3B3;" cx="153.836" cy="48.798" r="7.186"/>
	<circle style="fill:#B3B3B3;" cx="128.687" cy="48.828" r="7.185"/>
	<path style="fill:#B3B3B3;" d="M99.237,47.015l-57.484,0.068c-1.021,0.001-1.847,0.83-1.846,1.85
		c0.001,1.021,0.829,1.847,1.85,1.846l57.484-0.068c1.021-0.001,1.847-0.829,1.846-1.85
		C101.086,47.841,100.258,47.014,99.237,47.015z"/>
</g>
</svg>
