<?xml version="1.0" encoding="iso-8859-1"?>
<!-- Generator: Adobe Illustrator 18.0.0, SVG Export Plug-In . SVG Version: 6.00 Build 0)  -->
<!DOCTYPE svg PUBLIC "-//W3C//DTD SVG 1.1//EN" "http://www.w3.org/Graphics/SVG/1.1/DTD/svg11.dtd">
<svg version="1.1" id="Layer_1" xmlns="http://www.w3.org/2000/svg" xmlns:xlink="http://www.w3.org/1999/xlink" x="0px" y="0px"
	 viewBox="0 0 200 200" style="enable-background:new 0 0 200 200;" xml:space="preserve">
<rect x="-32.922" y="192.916" style="fill:#03B2FF;" width="3.773" height="3.773"/>
<g>
	<path style="fill:#B3B3B3;" d="M46.22,159.578c-6.688-0.001-12.726-2.706-17.111-7.087c-4.382-4.385-7.086-10.423-7.087-17.11
		c0.001-6.688,2.706-12.726,7.087-17.111c4.384-4.382,10.423-7.086,17.111-7.087H153.78c6.688,0.001,12.726,2.706,17.11,7.087
		c4.382,4.385,7.086,10.423,7.087,17.111c-0.001,6.688-2.706,12.726-7.087,17.11c-4.384,4.382-10.423,7.086-17.11,7.087v3.53
		c15.314-0.001,27.726-12.413,27.727-27.727c-0.001-15.314-12.413-27.726-27.727-27.727H46.22
		c-15.314,0.001-27.726,12.413-27.727,27.727c0.001,15.314,12.413,27.726,27.727,27.727V159.578L46.22,159.578z"/>
	<path style="fill:#B3B3B3;" d="M153.78,135.381h1.765c-0.001-5.072-4.11-9.182-9.183-9.183c-5.072,0.001-9.182,4.11-9.183,9.183
		c0.001,5.072,4.111,9.181,9.183,9.183c5.072-0.001,9.181-4.111,9.183-9.183H153.78h-1.765c-0.001,1.567-0.63,2.969-1.656,3.997
		c-1.029,1.026-2.431,1.655-3.997,1.656c-1.567-0.001-2.969-0.63-3.997-1.656c-1.026-1.029-1.655-2.431-1.656-3.997
		c0.001-1.567,0.63-2.969,1.656-3.997c1.028-1.026,2.431-1.655,3.997-1.656c1.567,0.001,2.969,0.63,3.997,1.656
		c1.026,1.029,1.655,2.431,1.656,3.997H153.78z"/>
	<polyline style="fill:#B3B3B3;" points="45.229,103.499 160.824,103.499 160.824,99.97 45.229,99.97 	"/>
	<polygon style="fill:#B3B3B3;" points="146.362,92.817 55.403,92.817 55.403,25.877 144.597,25.877 144.597,83.455 148.127,83.455 
		148.126,22.347 51.874,22.347 51.874,96.347 146.362,96.347 146.362,92.817 	"/>
	<polyline style="fill:#B3B3B3;" points="71.701,45.261 135.234,45.261 135.234,41.731 71.701,41.731 	"/>
	<polyline style="fill:#B3B3B3;" points="71.701,61.144 114.939,61.144 114.939,57.614 71.701,57.614 	"/>
	<polyline style="fill:#B3B3B3;" points="71.701,76.145 126.41,76.145 126.41,72.615 71.701,72.615 	"/>
	<polygon style="fill:#B3B3B3;" points="146.362,179.888 146.362,178.123 55.403,178.123 55.403,155.69 144.597,155.69 
		144.597,179.888 146.362,179.888 146.362,178.123 146.362,179.888 148.126,179.888 148.126,152.16 51.874,152.16 51.874,181.653 
		148.126,181.653 148.126,179.888 	"/>
</g>
</svg>
