<?xml version="1.0" encoding="iso-8859-1"?>
<!-- Generator: Adobe Illustrator 18.0.0, SVG Export Plug-In . SVG Version: 6.00 Build 0)  -->
<!DOCTYPE svg PUBLIC "-//W3C//DTD SVG 1.1//EN" "http://www.w3.org/Graphics/SVG/1.1/DTD/svg11.dtd">
<svg version="1.1" id="Layer_1" xmlns="http://www.w3.org/2000/svg" xmlns:xlink="http://www.w3.org/1999/xlink" x="0px" y="0px"
	 viewBox="0 0 200 200" style="enable-background:new 0 0 200 200;" xml:space="preserve">
<rect x="-32.922" y="192.916" style="fill:#03B2FF;" width="3.773" height="3.773"/>
<g>
	<path style="fill:#B3B3B3;" d="M167.333,153.995c0-7.547-5.956-13.662-13.502-13.663c-4.049,0.001-7.594,1.771-10.096,4.568
		c-1.115-6.426-6.662-11.316-13.407-11.317c-5.049,0.001-9.426,2.746-11.792,6.818c-2.365-4.072-6.752-6.817-11.801-6.818h0.146
		c-3.933,0.001-7.862,1.671-9.813,4.331V81.439c0-7.547-6.116-13.662-13.662-13.663c-7.547,0.001-13.663,6.116-13.663,13.663v63.071
		l-16.116,9.585c-0.877,0.526-1.232,1.664-0.706,2.54s1.77,1.161,2.647,0.635l14.176-8.442v6.853c0,1.023,0.687,1.852,1.71,1.852
		c1.023,0,2.023-0.829,2.023-1.852h0.171v-10.123V81.439c0-2.756,0.87-5.234,2.675-7.043c1.808-1.805,4.165-2.916,6.922-2.917
		c2.756,0.001,5.215,1.112,7.023,2.917c1.805,1.808,2.898,4.286,2.898,7.043v65.808v5.061v16.874v3.376
		c0,0.488,0.156,0.965,0.501,1.309c0.345,0.345,0.801,0.542,1.289,0.542c0.488,0,1.096-0.198,1.44-0.542
		c0.345-0.345,0.673-0.822,0.673-1.309v-3.373v-0.002v-21.938c0-2.755,0.971-5.232,2.776-7.039c1.808-1.805,4.216-2.916,6.972-2.917
		l-0.035,0c2.756,0.001,5.157,1.112,6.965,2.917c1.805,1.808,2.84,4.286,2.84,7.043v5.061v6.75v6.749
		c0,0.488,0.257,0.964,0.602,1.309c0.345,0.345,0.851,0.542,1.339,0.542c0.488,0,1.02-0.198,1.365-0.542
		c0.345-0.345,0.598-0.822,0.598-1.309v-6.747v-0.002v-11.811c0-2.756,1.071-5.234,2.877-7.043c1.808-1.805,4.266-2.916,7.022-2.917
		c2.756,0.001,5.064,1.112,6.872,2.917c1.805,1.808,2.747,4.286,2.747,7.043v6.749v5.061v0.001v13.498
		c0,0.488,0.357,0.964,0.702,1.309c0.345,0.345,0.902,0.542,1.389,0.542c0.488,0,0.945-0.198,1.289-0.542
		c0.345-0.345,0.523-0.822,0.523-1.309v-13.496v-0.002v-5.065c0-2.755,1.172-5.232,2.977-7.04c1.808-1.805,4.316-2.916,7.073-2.917
		c2.756,0.001,5.477,1.112,7.285,2.917c1.805,1.808,3.159,4.286,3.159,7.043v11.811c0,1.023,0.441,1.852,1.464,1.852
		c1.023,0,1.464-0.829,1.464-1.852V153.995z"/>
	<path style="fill:#B3B3B3;" d="M62.867,118.186c0.439-0.924,0.045-2.028-0.878-2.467c-15.341-7.287-25.95-22.917-25.948-41.03
		c0.001-12.541,5.078-23.878,13.296-32.099c8.221-8.218,19.557-13.295,32.099-13.296c12.541,0.001,23.878,5.078,32.098,13.296
		c8.218,8.221,13.295,19.557,13.296,32.099c0.001,16.804-9.126,31.467-22.697,39.321c-0.885,0.512-1.188,1.645-0.675,2.53
		c0.512,0.885,1.645,1.188,2.53,0.675l0,0c14.671-8.485,24.544-24.357,24.545-42.527c-0.001-27.117-21.981-49.096-49.097-49.098
		c-27.117,0.001-49.096,21.981-49.097,49.098c0.002,19.587,11.472,36.5,28.063,44.375C61.324,119.503,62.428,119.11,62.867,118.186z
		"/>
	<path style="fill:#B3B3B3;" d="M83.123,49.215c-15.002,0.001-27.161,12.16-27.162,27.162c0,1.023,0.829,1.852,1.852,1.852
		c1.023,0,1.852-0.829,1.852-1.852c0.001-6.484,2.623-12.337,6.871-16.588c4.251-4.248,10.104-6.87,16.588-6.871
		c6.484,0.001,12.337,2.623,16.588,6.871c4.248,4.251,6.87,10.104,6.871,16.588c0,0.526-0.018,1.049-0.052,1.566
		c-0.068,1.02,0.705,1.902,1.726,1.97c1.02,0.067,1.902-0.705,1.97-1.726l0,0c0.04-0.599,0.059-1.202,0.059-1.81
		C110.283,61.375,98.124,49.216,83.123,49.215z"/>
</g>
</svg>
