<?xml version="1.0" encoding="iso-8859-1"?>
<!-- Generator: Adobe Illustrator 18.0.0, SVG Export Plug-In . SVG Version: 6.00 Build 0)  -->
<!DOCTYPE svg PUBLIC "-//W3C//DTD SVG 1.1//EN" "http://www.w3.org/Graphics/SVG/1.1/DTD/svg11.dtd">
<svg version="1.1" id="Layer_1" xmlns="http://www.w3.org/2000/svg" xmlns:xlink="http://www.w3.org/1999/xlink" x="0px" y="0px"
	 viewBox="0 0 200 200" style="enable-background:new 0 0 200 200;" xml:space="preserve">
<rect x="-32.922" y="192.916" style="fill:#03B2FF;" width="3.773" height="3.773"/>
<g>
	<path style="fill:#B3B3B3;" d="M190.428,59.699c-0.593-0.889-1.793-1.129-2.682-0.536l-11.132,7.421
		c-0.322,0.214-0.579,0.532-0.723,0.891l-13.409,33.521c-5.316-3.2-11.536-5.053-18.19-5.053
		c-19.512,0.001-35.327,15.816-35.328,35.328c0,2.695,0.302,5.323,0.875,7.849c0.144,0.636,0.589,1.125,1.149,1.357
		c-0.398-0.019-0.806,0.078-1.164,0.317l-10.059,6.706l-10.058-6.706c-0.125-0.084-0.257-0.146-0.392-0.197
		c0.812-2.972,1.253-6.096,1.253-9.325c0.001-7.262-2.197-14.029-5.96-19.643c-6.333-9.455-17.129-15.685-29.368-15.685
		c-4.919,0-9.602,1.008-13.857,2.825l11.719-29.299l10.632-7.088c0.889-0.593,1.129-1.793,0.536-2.682
		c-0.593-0.889-1.793-1.129-2.682-0.536l-11.132,7.421c-0.322,0.214-0.58,0.532-0.723,0.891l-13.187,32.969
		c-0.123,0.306-0.152,0.624-0.118,0.93c-9.921,6.255-16.516,17.302-16.517,29.897c0,2.695,0.302,5.323,0.876,7.849
		c0.236,1.042,1.272,1.694,2.314,1.458c1.041-0.236,1.694-1.272,1.458-2.314c-0.51-2.248-0.78-4.587-0.78-6.993
		c0.001-8.694,3.519-16.547,9.215-22.246c5.699-5.696,13.552-9.214,22.246-9.215c10.906,0,20.503,5.543,26.155,13.97
		c3.352,5.004,5.305,11.01,5.306,17.49c-0.001,8.694-3.519,16.546-9.215,22.246c-5.699,5.696-13.552,9.214-22.246,9.215
		c-7.271-0.001-13.947-2.467-19.274-6.603l35.386-30.82c0.805-0.701,0.89-1.923,0.188-2.728c-0.702-0.805-1.923-0.89-2.728-0.188
		l0,0l-37.102,32.314c-0.417,0.363-0.66,0.893-0.664,1.445c-0.004,0.553,0.232,1.085,0.644,1.454
		c6.245,5.59,14.509,8.994,23.55,8.993c14.892-0.001,27.621-9.218,32.819-22.256l10.633,7.089c0.651,0.434,1.495,0.434,2.146,0
		l11.132-7.421c0.889-0.593,1.129-1.793,0.536-2.682c-0.221-0.331-0.527-0.572-0.869-0.714c0.17,0.008,0.342,0.001,0.515-0.038
		c1.041-0.236,1.694-1.272,1.458-2.314l0,0c-0.51-2.248-0.779-4.587-0.78-6.993c0.001-8.694,3.519-16.547,9.215-22.246
		c5.699-5.696,13.552-9.214,22.246-9.215c10.906,0,20.503,5.543,26.155,13.97c3.352,5.004,5.305,11.01,5.306,17.49
		c-0.001,8.694-3.518,16.546-9.215,22.246c-5.7,5.696-13.552,9.214-22.246,9.215c-7.271-0.001-13.947-2.467-19.274-6.603
		l35.386-30.82c0.805-0.701,0.889-1.923,0.188-2.728c-0.702-0.805-1.923-0.89-2.728-0.188l-37.102,32.314
		c-0.417,0.363-0.66,0.893-0.664,1.445c-0.004,0.553,0.232,1.085,0.644,1.454c6.245,5.59,14.509,8.994,23.55,8.993
		c19.512-0.001,35.327-15.816,35.328-35.328c0.001-7.262-2.197-14.029-5.96-19.643c-2.156-3.219-4.84-6.052-7.911-8.405l0.039-0.075
		l0,0l13.472-33.679l10.632-7.087C190.78,61.788,191.02,60.588,190.428,59.699z"/>
</g>
</svg>
