<?xml version="1.0" encoding="iso-8859-1"?>
<!-- Generator: Adobe Illustrator 18.0.0, SVG Export Plug-In . SVG Version: 6.00 Build 0)  -->
<!DOCTYPE svg PUBLIC "-//W3C//DTD SVG 1.1//EN" "http://www.w3.org/Graphics/SVG/1.1/DTD/svg11.dtd">
<svg version="1.1" id="Layer_1" xmlns="http://www.w3.org/2000/svg" xmlns:xlink="http://www.w3.org/1999/xlink" x="0px" y="0px"
	 viewBox="0 0 200 200" style="enable-background:new 0 0 200 200;" xml:space="preserve">
<rect x="-32.922" y="192.916" style="fill:#03B2FF;" width="3.773" height="3.773"/>
<g>
	<path style="fill:#B3B3B3;" d="M100,26.993c-32.975,0.001-59.703,26.729-59.704,59.704c0.006,8.326,2.265,18.014,5.964,27.946
		c5.556,14.892,14.371,30.31,24.02,42.113c4.828,5.901,9.863,10.9,14.867,14.476c2.503,1.787,5.001,3.22,7.482,4.217
		c2.48,0.996,4.949,1.558,7.371,1.559c3.231-0.003,6.538-0.996,9.857-2.698c5.806-2.988,11.722-8.166,17.433-14.68
		c8.555-9.775,16.614-22.584,22.575-35.648c2.979-6.532,5.432-13.128,7.146-19.45c1.713-6.323,2.692-12.37,2.693-17.835
		C159.703,53.722,132.974,26.994,100,26.993z M150.198,113.322c-5.389,14.466-14.056,29.616-23.404,41.04
		c-4.67,5.713-9.513,10.493-14.137,13.793c-2.311,1.651-4.564,2.93-6.695,3.785c-2.131,0.857-4.132,1.287-5.962,1.287
		c-2.438,0.003-5.188-0.769-8.131-2.281c-5.152-2.637-10.818-7.521-16.315-13.807c-8.258-9.427-16.172-21.985-21.98-34.726
		c-2.906-6.37-5.287-12.786-6.936-18.87c-1.65-6.083-2.563-11.835-2.561-16.846c0.001-15.449,6.256-29.418,16.38-39.544
		C70.582,37.029,84.551,30.774,100,30.773c15.449,0.001,29.418,6.257,39.544,16.38c10.123,10.126,16.379,24.095,16.38,39.544
		C155.929,94.336,153.797,103.683,150.198,113.322z"/>
	<path style="fill:#B3B3B3;" d="M100,47.595c-10.856-0.001-20.694,4.388-27.794,11.571C65.103,66.346,60.706,77,60.706,87h3.78
		c0-9,3.974-18.669,10.408-25.176C81.331,55.319,90.196,51.328,100,51.327c9.807,0.001,18.674,3.939,25.11,10.419
		C131.129,67.811,134.994,77,135.468,85h-20.05c-0.753-7-7.365-13.897-15.417-13.898c-8.558,0.001-15.492,6.986-15.494,15.544
		c0.001,8.558,6.936,15.526,15.494,15.527C107.779,102.172,114.198,98,115.306,89h20.162c-0.475,10-3.841,17.312-9.862,23.422
		c-6.44,6.53-15.606,10.581-24.606,10.582v4.739l0,0v-0.722c11-0.001,20.196-4.631,27.295-11.835
		c7.103-7.205,11.252-17.189,11.252-28.035c0.001-10.846-4.524-20.757-11.629-27.912C120.815,52.08,110.853,47.594,100,47.595z
		 M111.713,86.697c-0.001,3.24-1.308,6.156-3.431,8.282c-2.126,2.122-5.042,3.429-8.282,3.43c-3.241-0.001-6.157-1.308-8.283-3.431
		c-2.123-2.126-3.43-5.042-3.431-8.282c0.001-3.24,1.308-6.157,3.431-8.282c2.126-2.123,5.042-3.43,8.283-3.431
		c3.24,0.001,6.157,1.308,8.282,3.431C110.405,80.54,111.712,83.456,111.713,86.697L111.713,86.697z"/>
</g>
</svg>
