<?xml version="1.0" encoding="iso-8859-1"?>
<!-- Generator: Adobe Illustrator 18.0.0, SVG Export Plug-In . SVG Version: 6.00 Build 0)  -->
<!DOCTYPE svg PUBLIC "-//W3C//DTD SVG 1.1//EN" "http://www.w3.org/Graphics/SVG/1.1/DTD/svg11.dtd">
<svg version="1.1" id="Layer_1" xmlns="http://www.w3.org/2000/svg" xmlns:xlink="http://www.w3.org/1999/xlink" x="0px" y="0px"
	 viewBox="0 0 200 200" style="enable-background:new 0 0 200 200;" xml:space="preserve">
<rect x="-32.922" y="192.916" style="fill:#03B2FF;" width="3.773" height="3.773"/>
<g>
	<path style="fill:#B3B3B3;" d="M107.584,55.291L24.577,37.243c-0.542-0.118-1.284,0.015-1.716,0.363
		C22.429,37.954,22,38.474,22,39.028v119.114c0,0.86,0.784,1.602,1.625,1.785l83.112,18.048c0.542,0.118,1.126-0.015,1.558-0.363
		c0.432-0.348,0.704-0.868,0.704-1.422V57.076C109,56.216,108.425,55.473,107.584,55.291z M26,41.295l79,17.253v115.375L26,156.67
		V41.295z"/>
	<path style="fill:#B3B3B3;" d="M132.329,134.415c-1.009,0-1.578,0.585-1.578,1.585H131v20h-5.733c-1.009,0-1.827,0.991-1.827,2
		c0,1.009,0.818,2,1.827,2h7.219c0.481,0,0.795-0.21,1.135-0.55c0.34-0.34,0.379-0.826,0.379-1.307v-21.658
		C134,135.475,133.338,134.415,132.329,134.415z"/>
	<path style="fill:#B3B3B3;" d="M49,33.818V34h82v23.076c0,1.009,0.491,1.827,1.5,1.827c1.009,0,1.5-0.818,1.5-1.827V31.809
		c0-0.481-0.038-0.943-0.379-1.283c-0.34-0.34-0.654-0.526-1.135-0.526H49.467c-1.009,0-2.06,0.9-2.06,1.909
		C47.406,32.918,48,33.818,49,33.818z"/>
	<path style="fill:#B3B3B3;" d="M168.634,75.07c-5.99-5.992-13.859-8.995-21.71-8.993c-7.852-0.002-15.72,3.001-21.71,8.993
		c-5.992,5.99-8.995,13.859-8.993,21.71c-0.002,7.851,3.001,15.72,8.993,21.711c5.99,5.992,13.859,8.995,21.71,8.993
		c7.851,0.002,15.72-3.001,21.71-8.993c5.992-5.991,8.995-13.859,8.992-21.711C177.629,88.929,174.626,81.06,168.634,75.07z
		 M166.05,115.907c-5.287,5.285-12.198,7.92-19.127,7.922c-6.929-0.002-13.84-2.637-19.127-7.922
		c-5.285-5.287-7.921-12.198-7.923-19.127c0.002-6.929,2.638-13.84,7.923-19.126c5.286-5.285,12.198-7.921,19.127-7.923
		c6.928,0.002,13.84,2.637,19.127,7.923c5.285,5.286,7.92,12.198,7.922,19.127C173.971,103.709,171.335,110.621,166.05,115.907z"/>
	<path style="fill:#B3B3B3;" d="M158.425,85.279c-0.714-0.713-1.87-0.713-2.584,0l-8.917,8.917l-8.917-8.917
		c-0.713-0.713-1.87-0.713-2.584,0c-0.714,0.714-0.714,1.87,0,2.584l8.917,8.917l-8.917,8.917c-0.714,0.714-0.714,1.87,0,2.584
		c0.714,0.714,1.87,0.714,2.584,0l8.917-8.917l8.917,8.917c0.714,0.714,1.87,0.714,2.584,0c0.713-0.714,0.713-1.87,0-2.584
		l-8.917-8.917l8.917-8.917C159.138,87.15,159.138,85.993,158.425,85.279z"/>
	<path style="fill:#B3B3B3;" d="M89.583,80.562L42.659,69.734c-0.541-0.125-1.325,0.005-1.759,0.35c-0.434,0.345-0.9,0.875-0.9,1.43
		v28.876c0,0.85,0.799,1.589,1.626,1.78l47.029,10.829c0.54,0.125,1.168-0.005,1.602-0.351c0.434-0.345,0.743-0.875,0.743-1.43
		V82.343C91,81.493,90.411,80.753,89.583,80.562z M44,73.811l43,9.985v25.126l-43-9.985V73.811z"/>
</g>
</svg>
