<?xml version="1.0" encoding="iso-8859-1"?>
<!-- Generator: Adobe Illustrator 18.0.0, SVG Export Plug-In . SVG Version: 6.00 Build 0)  -->
<!DOCTYPE svg PUBLIC "-//W3C//DTD SVG 1.1//EN" "http://www.w3.org/Graphics/SVG/1.1/DTD/svg11.dtd">
<svg version="1.1" id="Layer_1" xmlns="http://www.w3.org/2000/svg" xmlns:xlink="http://www.w3.org/1999/xlink" x="0px" y="0px"
	 viewBox="0 0 200 200" style="enable-background:new 0 0 200 200;" xml:space="preserve">
<rect x="-32.922" y="192.916" style="fill:#03B2FF;" width="3.773" height="3.773"/>
<g>
	<path style="fill:#B3B3B3;" d="M174.389,161.932c1.126,0,2.167-0.31,2.829-1.047c0.669-0.736,1.021-1.579,1.024-2.552
		c0-0.584-0.133-1.142-0.422-1.701c-0.232-0.45-0.543-0.839-0.958-1.177l-14.398-19.468V60.506c0-2.287-1.909-4.002-4.196-4.002
		H40.171c-2.287,0-4.63,1.715-4.63,4.002v75.48l-14.18,19.49c-0.416,0.338-0.634,0.75-0.865,1.201
		c-0.29,0.56-0.362,1.165-0.361,1.748c0.003,0.973,0.386,1.726,1.055,2.462c0.662,0.737,1.735,1.046,2.861,1.046H174.389z
		 M39.635,60.506c0-0.248,0.287-0.931,0.535-0.931h118.098c0.248,0,0.102,0.684,0.102,0.931v73.79H39.635V60.506z M23.886,158.424
		l0.009-0.05l0.064-0.06l0.269-0.716l14.576-20.232h120.829l14.574,20.23l0.269,0.448l0.065,0.195l0.01,0.118l-0.055-0.2
		c-0.033,0.021,0.005-0.319-0.108-0.319H24.051c-0.115,0-0.077,0.373-0.11,0.352L23.886,158.424z"/>
	<polygon style="fill:#B3B3B3;" points="140.97,85.475 140.97,120.989 101.05,120.989 101.05,75.951 132.781,75.951 132.781,72.881 
		96.956,72.881 96.956,124.06 145.064,124.06 145.064,85.164 141.68,85.164 	"/>
	<path style="fill:#B3B3B3;" d="M143.524,64.744c-4.784,0.001-8.66,3.877-8.661,8.661c0.001,4.784,3.877,8.66,8.661,8.661
		c4.784-0.001,8.66-3.877,8.661-8.661C152.184,68.621,148.308,64.745,143.524,64.744z M147.039,76.92
		c-0.906,0.902-2.137,1.455-3.515,1.456c-1.378-0.001-2.61-0.554-3.515-1.456c-0.902-0.905-1.455-2.136-1.456-3.515
		c0.001-1.379,0.554-2.61,1.456-3.515c0.905-0.902,2.137-1.455,3.515-1.456c1.378,0.001,2.609,0.553,3.515,1.456
		c0.903,0.905,1.455,2.137,1.456,3.515C148.494,74.784,147.942,76.015,147.039,76.92z"/>
	<rect x="23.258" y="170.121" style="fill:#B3B3B3;" width="156.608" height="4.094"/>
	<path style="fill:#B3B3B3;" d="M99.22,25.975c6.449,0.001,12.321,2.395,16.806,6.349l2.442-2.768l0,0
		c-5.126-4.523-11.875-7.272-19.248-7.271c-6.879-0.001-13.216,2.392-18.195,6.386l2.308,2.88
		C87.689,28.06,93.201,25.976,99.22,25.975z"/>
	<path style="fill:#B3B3B3;" d="M88.071,38.901l1.849,3.194c2.737-1.583,5.905-2.488,9.301-2.488
		c3.392,0.001,6.558,0.904,9.295,2.485l1.847-3.195h0c-3.277-1.895-7.09-2.98-11.141-2.98
		C95.165,35.916,91.349,37.003,88.071,38.901z"/>
</g>
</svg>
