<?xml version="1.0" encoding="iso-8859-1"?>
<!-- Generator: Adobe Illustrator 18.0.0, SVG Export Plug-In . SVG Version: 6.00 Build 0)  -->
<!DOCTYPE svg PUBLIC "-//W3C//DTD SVG 1.1//EN" "http://www.w3.org/Graphics/SVG/1.1/DTD/svg11.dtd">
<svg version="1.1" id="Layer_1" xmlns="http://www.w3.org/2000/svg" xmlns:xlink="http://www.w3.org/1999/xlink" x="0px" y="0px"
	 viewBox="0 0 200 200" style="enable-background:new 0 0 200 200;" xml:space="preserve">
<rect x="-32.922" y="192.916" style="fill:#03B2FF;" width="3.773" height="3.773"/>
<g>
	<path style="fill:#B3B3B3;" d="M66.799,92.972c0.001,6.793,5.506,12.297,12.299,12.299c6.793-0.001,12.297-5.505,12.298-12.299
		h-3.694c-0.002,2.382-0.961,4.521-2.521,6.084c-1.563,1.56-3.702,2.519-6.084,2.52c-2.382-0.001-4.522-0.96-6.084-2.52
		c-1.56-1.563-2.519-3.702-2.521-6.084H66.799L66.799,92.972z"/>
	<path style="fill:#B3B3B3;" d="M87.702,92.972c0.001,6.793,5.506,12.297,12.299,12.299c6.793-0.001,12.297-5.505,12.298-12.299
		h-3.694c-0.002,2.382-0.961,4.521-2.521,6.084c-1.563,1.56-3.702,2.519-6.084,2.52c-2.382-0.001-4.522-0.96-6.084-2.52
		c-1.56-1.563-2.519-3.702-2.521-6.084H87.702L87.702,92.972z"/>
	<path style="fill:#B3B3B3;" d="M108.605,92.972c0.001,6.793,5.505,12.297,12.298,12.299c6.793-0.001,12.297-5.505,12.298-12.299
		h-3.694c-0.002,2.382-0.961,4.521-2.521,6.084c-1.563,1.56-3.702,2.519-6.084,2.52c-2.382-0.001-4.521-0.96-6.084-2.52
		c-1.56-1.563-2.519-3.702-2.52-6.084H108.605L108.605,92.972z"/>
	<polyline style="fill:#B3B3B3;" points="77.491,104.335 107.484,157.191 110.698,155.367 80.705,102.512 	"/>
	<polyline style="fill:#B3B3B3;" points="119.3,102.505 89.852,153.891 93.057,155.728 122.506,104.342 	"/>
	<polygon style="fill:#B3B3B3;" points="119.056,159.164 119.056,171.252 80.944,171.252 80.945,159.164 77.251,159.164 
		77.251,174.946 122.75,174.946 122.75,159.164 119.056,159.164 	"/>
	<path style="fill:#B3B3B3;" d="M155.741,75.553h1.847c-0.001-31.806-25.782-57.587-57.587-57.588c-0.935,0-1.876,0.022-2.82,0.068
		c-29.756,1.436-53.926,26.153-54.746,55.93c-0.014,0.53-0.022,1.06-0.022,1.59c0,20.128,10.343,37.833,25.991,48.114
		c2.71,1.781,4.926,4.126,6.459,6.814c1.533,2.69,2.388,5.718,2.389,8.91v18.136h45.499v-17.812c0-6.354,3.11-12.354,8.398-15.756
		c15.898-10.236,26.44-28.086,26.44-48.407H155.741h-1.847c0,19.022-9.859,35.709-24.746,45.301
		c-6.402,4.127-10.092,11.312-10.092,18.862v14.117H80.945v-14.441c0.001-3.857-1.04-7.527-2.874-10.741
		c-1.835-3.215-4.459-5.981-7.639-8.071c-14.653-9.634-24.326-26.185-24.326-45.027c0-0.493,0.008-0.99,0.021-1.49
		c0.734-27.806,23.448-51.031,51.23-52.34c0.885-0.043,1.767-0.063,2.643-0.063c14.888,0.001,28.349,6.029,38.108,15.785
		c9.756,9.759,15.784,23.22,15.785,38.109H155.741z"/>
	<polyline style="fill:#B3B3B3;" points="101.848,102.848 101.848,77.91 98.153,77.91 98.153,102.848 	"/>
	<path style="fill:#B3B3B3;" d="M96.351,35.548c-10.238,0.922-19.372,5.688-25.938,12.836C63.845,55.53,59.83,65.082,59.832,75.553
		h3.694c0.001-9.52,3.639-18.17,9.608-24.669c5.97-6.497,14.255-10.819,23.549-11.656L96.351,35.548L96.351,35.548z"/>
</g>
</svg>
