<?xml version="1.0" encoding="iso-8859-1"?>
<!-- Generator: Adobe Illustrator 18.0.0, SVG Export Plug-In . SVG Version: 6.00 Build 0)  -->
<!DOCTYPE svg PUBLIC "-//W3C//DTD SVG 1.1//EN" "http://www.w3.org/Graphics/SVG/1.1/DTD/svg11.dtd">
<svg version="1.1" id="Layer_1" xmlns="http://www.w3.org/2000/svg" xmlns:xlink="http://www.w3.org/1999/xlink" x="0px" y="0px"
	 viewBox="0 0 200 200" style="enable-background:new 0 0 200 200;" xml:space="preserve">
<rect x="-32.922" y="192.916" style="fill:#03B2FF;" width="3.773" height="3.773"/>
<g>
	<path style="fill:#B3B3B3;" d="M180.73,108.905c-5.484-5.59-12.943-9.244-21.224-9.73c-0.465-6.144-3.138-11.716-7.233-15.86
		c-4.512-4.572-10.775-7.435-17.683-7.434c-2.756,0.003-5.331,0.632-7.684,1.479c-2.365-6.924-6.739-12.909-12.434-17.255
		c-6.126-4.677-13.793-7.458-22.096-7.457c-18.201,0.001-33.284,13.318-36.051,30.74c-15.222,0.788-27.32,13.376-27.321,28.794
		c0,1.088,0.882,1.971,1.971,1.971c1.088,0,1.971-0.882,1.971-1.971c0.001-6.88,2.783-13.091,7.291-17.602
		c4.085-4.082,9.567-6.742,15.676-7.209c-0.028,0.592-0.045,1.187-0.045,1.786c0,1.088,0.882,1.971,1.971,1.971
		c1.088,0,1.971-0.882,1.971-1.971c0.001-9,3.642-17.129,9.539-23.029c5.9-5.897,14.029-9.538,23.029-9.539
		c7.419,0.001,14.234,2.476,19.705,6.649c5.418,4.134,9.494,9.936,11.484,16.628c-0.025,0.31,0.013,0.63,0.145,0.936
		c0.429,1,1.588,1.463,2.588,1.034c2.663-1.145,5.475-2.017,8.292-2.014c5.808,0.001,11.057,2.396,14.879,6.262
		c3.818,3.868,6.175,9.18,6.175,15.001c0,0.519,0.21,1.027,0.577,1.394c0.367,0.367,0.874,0.577,1.394,0.577
		c7.922,0.001,15.089,3.303,20.302,8.61c5.21,5.309,8.428,12.596,8.428,20.536c0.002,7.94-3.223,15.462-8.44,20.875
		c-5.221,5.412-12.386,8.923-20.29,8.923H38.651c-6.839,0-13.044-3.077-17.573-7.795c-4.525-4.718-7.322-11.226-7.32-18.106
		c0-1.088-0.791-2-1.879-2c-1.088,0-1.879,0.868-1.879,1.956v-0.008c0,7.955,3.127,15.351,8.325,20.772
		c4.056,4.233,9.309,6.913,15.244,8.043c0.357,0.31,0.77,0.137,1.245,0.137h3.838h118.965c9.051,0,17.237-3.543,23.127-9.658
		c5.894-6.116,9.542-14.301,9.544-23.316C190.286,123.01,186.632,114.916,180.73,108.905z"/>
	<path style="fill:#B3B3B3;" d="M92.377,70.939L92.377,70.939c1.089,0,1.972-0.882,1.972-1.971c0-1.088-0.882-1.971-1.971-1.971
		h-0.001C80.69,66.999,71.22,76.47,71.218,88.156c0,1.446,0.145,2.862,0.423,4.23c0.216,1.067,1.257,1.756,2.323,1.54
		c1.067-0.217,1.756-1.257,1.54-2.323c-0.226-1.112-0.344-2.264-0.345-3.446c0.001-4.761,1.924-9.052,5.043-12.174
		C83.324,72.863,87.616,70.94,92.377,70.939z"/>
</g>
</svg>
