<?xml version="1.0" encoding="iso-8859-1"?>
<!-- Generator: Adobe Illustrator 18.0.0, SVG Export Plug-In . SVG Version: 6.00 Build 0)  -->
<!DOCTYPE svg PUBLIC "-//W3C//DTD SVG 1.1//EN" "http://www.w3.org/Graphics/SVG/1.1/DTD/svg11.dtd">
<svg version="1.1" id="Layer_1" xmlns="http://www.w3.org/2000/svg" xmlns:xlink="http://www.w3.org/1999/xlink" x="0px" y="0px"
	 viewBox="0 0 200 200" style="enable-background:new 0 0 200 200;" xml:space="preserve">
<rect x="-20.438" y="211.541" style="fill:#FF00FF;" width="3.773" height="3.773"/>
<g>
	<path style="fill:#B3B3B3;" d="M184.656,52.792v97.053c-0.001,1.959-0.597,3.854-1.68,5.652c-1.618,2.693-4.361,5.113-7.529,6.815
		c-3.162,1.709-6.735,2.692-9.882,2.687H15.344l0-91.181c0.001-4.191,1.693-7.967,4.439-10.716
		c2.749-2.745,6.525-4.438,10.716-4.439h136.413c1.069,0,1.936-0.867,1.936-1.936c0-1.069-0.867-1.936-1.936-1.936l-136.413,0
		C19.99,54.793,11.473,63.31,11.472,73.819v93.117c0,0.51,0.207,1.009,0.567,1.369c0.361,0.361,0.859,0.567,1.369,0.567h152.158
		c5.239-0.014,10.809-2.066,15.223-5.399c2.203-1.673,4.117-3.679,5.503-5.975c1.385-2.291,2.237-4.892,2.236-7.653V52.792
		c0-1.069-0.867-1.936-1.936-1.936C185.523,50.856,184.656,51.723,184.656,52.792L184.656,52.792z"/>
	<path style="fill:#B3B3B3;" d="M76.384,100.024h1.936c-0.001-11.939-9.677-21.615-21.616-21.616
		c-11.939,0.001-21.615,9.677-21.616,21.616c0.001,11.939,9.677,21.615,21.616,21.616c11.939-0.001,21.615-9.677,21.616-21.616
		H76.384h-1.936c-0.001,4.906-1.983,9.33-5.197,12.547c-3.217,3.214-7.641,5.196-12.547,5.197c-4.906-0.001-9.33-1.983-12.547-5.197
		c-3.214-3.217-5.196-7.641-5.197-12.547c0.001-4.906,1.983-9.33,5.197-12.547c3.217-3.214,7.641-5.196,12.547-5.197
		c4.906,0.001,9.33,1.983,12.547,5.197c3.214,3.217,5.196,7.641,5.197,12.547H76.384z"/>
	<path style="fill:#B3B3B3;" d="M48.691,119.468v10.726l-18.454,7.271c-0.995,0.392-1.484,1.516-1.092,2.511
		c0.392,0.995,1.516,1.484,2.511,1.092l19.68-7.754c0.74-0.291,1.226-1.007,1.226-1.801v-12.044c0-1.069-0.867-1.936-1.936-1.936
		C49.558,117.532,48.691,118.399,48.691,119.468L48.691,119.468z"/>
	<path style="fill:#B3B3B3;" d="M65.149,119.468v12.044c0,0.795,0.487,1.51,1.226,1.801l19.68,7.754
		c0.995,0.392,2.119-0.097,2.511-1.092c0.392-0.995-0.097-2.119-1.091-2.511l-18.454-7.271v-10.726c0-1.069-0.867-1.936-1.936-1.936
		C66.015,117.532,65.149,118.399,65.149,119.468L65.149,119.468z"/>
	<path style="fill:#B3B3B3;" d="M106.777,94.297h23.234c1.069,0,1.936-0.867,1.936-1.936c0-1.069-0.867-1.936-1.936-1.936h-23.234
		c-1.069,0-1.936,0.867-1.936,1.936C104.841,93.43,105.707,94.297,106.777,94.297"/>
	<path style="fill:#B3B3B3;" d="M106.777,110.755h62.927c1.069,0,1.936-0.867,1.936-1.936c0-1.069-0.867-1.936-1.936-1.936h-62.927
		c-1.069,0-1.936,0.867-1.936,1.936C104.841,109.888,105.707,110.755,106.777,110.755"/>
	<path style="fill:#B3B3B3;" d="M142.597,94.297h8.713c1.069,0,1.936-0.867,1.936-1.936c0-1.069-0.867-1.936-1.936-1.936h-8.713
		c-1.069,0-1.936,0.867-1.936,1.936C140.66,93.43,141.527,94.297,142.597,94.297"/>
	<path style="fill:#B3B3B3;" d="M106.777,127.213h39.692c1.069,0,1.936-0.867,1.936-1.936c0-1.069-0.867-1.936-1.936-1.936h-39.692
		c-1.069,0-1.936,0.867-1.936,1.936C104.841,126.346,105.707,127.213,106.777,127.213"/>
</g>
</svg>
