<?xml version="1.0" encoding="iso-8859-1"?>
<!-- Generator: Adobe Illustrator 18.0.0, SVG Export Plug-In . SVG Version: 6.00 Build 0)  -->
<!DOCTYPE svg PUBLIC "-//W3C//DTD SVG 1.1//EN" "http://www.w3.org/Graphics/SVG/1.1/DTD/svg11.dtd">
<svg version="1.1" id="Layer_1" xmlns="http://www.w3.org/2000/svg" xmlns:xlink="http://www.w3.org/1999/xlink" x="0px" y="0px"
	 viewBox="0 0 200 200" style="enable-background:new 0 0 200 200;" xml:space="preserve">
<rect x="-20.438" y="211.541" style="fill:#FF00FF;" width="3.773" height="3.773"/>
<g>
	<path style="fill:#B3B3B3;" d="M157.831,159c-2.526-7-9.631-12-17.567-12H108v-1.126V132.24c6-1.074,10.211-3.33,14.264-6.444
		c6.758-5.194,12.229-12.682,15.789-21.032c0.622-1.462,1.277-2.958,1.823-4.478c0.589,2.63,1.481,5.475,2.738,8.476
		c3.103,7.412,8.67,15.674,18.246,23.388l0.363,0.289l2.577-3.177l-0.359-0.29c-9.064-7.31-14.145-14.971-17.005-21.788
		c-2.856-6.815-3.471-12.803-3.471-16.707c0-1.437,0.086-2.577,0.171-3.381c0.048-0.352,0.097-0.707,0.14-1.065
		c0.013-0.082-0.133-0.148-0.125-0.193L143,85.799v-0.003l0.259-0.459l0.018-0.012c0.253-2.312,0.438-4.619,0.438-6.895
		c-0.001-12.988-4.84-24.881-12.737-33.436C123.09,36.439,112.137,31,100.015,31h-0.006h-0.002h-0.005
		c-12.122,0-22.726,5.439-30.615,13.993C61.49,53.548,57,65.441,57,78.429v0.031c0,1.098-0.395,2.212-0.395,3.337
		c0,1.302-0.15,2.62,0.003,3.948l0.366-0.053l-0.504,0.056c0.023,0.189,0.055,0.332,0.11,0.646C56.635,86.705,56.673,87,56.693,87
		H56.69c0.092,1,0.346,2.035,0.345,3.351c0,3.904-0.618,9.954-3.475,16.77c-2.86,6.816-7.947,14.509-17.01,21.819l-0.36,0.31
		l2.563,3.184l0.359-0.284c9.576-7.714,15.111-15.977,18.214-23.388c1.26-3.007,2.116-5.864,2.694-8.495
		c1.509,4.39,3.433,8.624,5.801,12.504c3.099,5.07,6.912,9.561,11.423,13.025C81.282,128.9,85,131.165,91,132.239v12.223V147H59.753
		C51.822,147,45,151.526,42,159.102v0.095l-5.875,16.694l3.875,0.99v-0.534l5.771-15.932l0.005-0.042
		c1.953-5.866,7.728-9.373,13.977-9.373h17.466c1.051,11,10.823,20.842,22.789,20.853c11.966-0.011,21.738-9.853,22.789-20.853
		h17.466c6.246,0,11.737,3.52,13.737,9.398v0.001l5.639,16.696l3.855-1.647L157.777,159H157.831z M99.999,35.29
		c10.909,0.002,20.79,4.779,27.995,12.577c4.569,4.949,8.036,11.112,9.964,18.011c-2.48-0.481-12.61-2.759-26.572-10.108l0,0
		c-4.761-2.5-10.27-3.361-15.766-3.364h0c-7.699,0.004-15.44,1.701-21.296,3.382c-5.588,1.607-9.444,3.207-9.826,3.368
		c1.937-4.201,4.477-8.013,7.501-11.289C79.203,40.069,89.089,35.292,99.999,35.29z M65.174,62.479l0.452,0.74l1.15-0.404
		 M66.777,62.815c0.923-0.407,4.443-1.595,9.43-3C81.759,58.248,88.73,57,95.6,57h0.018h0.001h0.023
		C100.706,57,106,57.54,109,59.609v-0.113c17,8.815,28.509,10.554,28.685,10.581l0.578,0.043l0.459-1.531
		c0.681,3.164,1.278,6.445,1.278,9.839v0.004v0.001v0.027c0,2.235-0.306,4.513-0.57,6.804c-0.056,0.323-0.224,0.91-0.304,1.741
		c-1.19,8.295-4.094,16.644-8.374,23.638c-2.881,4.717-6.417,8.817-10.454,11.916c-4.036,3.097-8.556,5.203-13.599,5.985
		L105,128.805v15.266L104.936,151h13.75c-0.477,4-2.411,7.778-5.376,10.75c-3.401,3.397-8.082,5.253-13.302,5.255
		c-5.228-0.002-9.906-1.735-13.302-5.127c-2.961-2.966-4.9-6.877-5.376-10.877H94v-6.537v-15.633l-1.169-0.284l0.105-0.002
		c-5.04-0.782-9.367-2.882-13.414-5.986c-6.055-4.642-10.977-11.557-14.312-19.393C61.875,95.34,60,86.612,60,78.441V78.43v-0.002
		c0-6.689,1.56-12.797,4.058-18.438l1.037,2.489"/>
	<path style="fill:#B3B3B3;" d="M115.545,107.346L115.545,107.346c0.275-0.366,0.409-0.742,0.409-1.168
		c0.001-0.618-0.282-1.205-0.815-1.606c-0.366-0.275-0.799-0.396-1.225-0.395c-0.618-0.001-1.233,0.289-1.634,0.823
		c-2.805,3.73-7.249,6.139-12.271,6.139c-4.242-0.001-8.062-1.711-10.844-4.49c-2.779-2.782-4.49-6.601-4.492-10.843
		c0-1.128-0.914-1.713-2.041-1.713c-0.968,0-1.774,0.908-1.984,1.908H81v-0.194C81,106.532,89.283,115,100.008,115h0.001
		C106.358,115,112.008,112.058,115.545,107.346z"/>
	<path style="fill:#B3B3B3;" d="M97.882,94.392c0.434,0.349,1.038,0.563,1.599,0.566c0.561-0.003,1.213-0.217,1.647-0.566
		c0.429-0.348,0.872-0.86,0.872-1.476v-7.901c0-0.615-0.414-1.128-0.843-1.476c-0.434-0.349-1.018-0.563-1.579-0.566
		c-0.561,0.003-1.242,0.217-1.676,0.566C97.472,83.888,97,84.4,97,85.016v7.901C97,93.532,97.453,94.044,97.882,94.392z"/>
</g>
</svg>
