<?xml version="1.0" encoding="iso-8859-1"?>
<!-- Generator: Adobe Illustrator 18.0.0, SVG Export Plug-In . SVG Version: 6.00 Build 0)  -->
<!DOCTYPE svg PUBLIC "-//W3C//DTD SVG 1.1//EN" "http://www.w3.org/Graphics/SVG/1.1/DTD/svg11.dtd">
<svg version="1.1" id="Layer_1" xmlns="http://www.w3.org/2000/svg" xmlns:xlink="http://www.w3.org/1999/xlink" x="0px" y="0px"
	 viewBox="0 0 200 200" style="enable-background:new 0 0 200 200;" xml:space="preserve">
<rect x="-20.438" y="211.541" style="fill:#FF00FF;" width="3.773" height="3.773"/>
<g>
	<path style="fill:#B3B3B3;" d="M119.919,161c-0.496-0.001-0.962-0.194-1.313-0.545L100,141.85l-18.606,18.605
		c-0.351,0.351-0.818,0.544-1.315,0.545H13.682c-1.024-0.001-1.858-0.834-1.858-1.859V99.388c0.001-0.535,0.233-1.043,0.636-1.395
		l1.175-1.023l-0.01-0.01l51.615-45.164l0.082-0.103c0.341-0.43,0.819-0.666,1.38-0.682l0.058,0.001c0.504,0,0.99,0.205,1.338,0.563
		l26.285,26.285l0.093,0.068c0.085,0.062,0.166,0.131,0.239,0.207c0.347,0.356,0.535,0.825,0.529,1.322
		c-0.006,0.497-0.205,0.961-0.559,1.307l-6.653,6.653c-0.351,0.351-0.818,0.544-1.315,0.544c-0.286,0-0.573-0.068-0.83-0.196
		L74.076,81.86L63.633,97.526H93.36c1.024,0,1.858,0.834,1.858,1.859c0,1.88,1.922,3.143,4.781,3.143s4.781-1.263,4.781-3.143
		c0.001-1.024,0.834-1.858,1.859-1.858h29.713L125.909,81.86l-11.813,5.905c-0.26,0.13-0.539,0.196-0.829,0.196
		c-0.497,0-0.964-0.193-1.316-0.545l-6.64-6.64c-0.089-0.087-0.16-0.169-0.227-0.262c-0.289-0.402-0.404-0.893-0.324-1.384
		c0.08-0.49,0.347-0.919,0.75-1.209l0.096-0.069l26.264-26.264c0.349-0.359,0.806-0.562,1.292-0.576
		c0.631,0,1.138,0.229,1.495,0.679l0.082,0.104l52.665,46.082c0.503,0.398,0.769,0.928,0.77,1.51v59.752
		c-0.001,1.024-0.834,1.858-1.859,1.859h0H119.919z M99.998,137.363c0.496,0,0.963,0.193,1.314,0.544l19.375,19.375h63.771v-56.037
		l-76.169-0.006l-0.394,0.842c-1.172,2.504-4.271,4.121-7.897,4.121s-6.725-1.618-7.897-4.121l-0.394-0.842l-76.169,0.006v56.037
		h63.769l19.377-19.375C99.035,137.556,99.502,137.363,99.998,137.363z M126.608,77.574c0.765,0,1.443,0.459,1.726,1.169
		l0.058,0.142l12.428,18.643h40.542l-49.489-43.301v2.619l-22.62,22.621l4.379,4.379l12.082-6.04
		c0.081-0.043,0.141-0.071,0.202-0.095C126.141,77.619,126.373,77.574,126.608,77.574z M18.621,97.525h40.542L71.63,78.826
		l0.124-0.269c0.31-0.594,0.943-0.977,1.64-0.977c0.299,0,0.586,0.071,0.855,0.211l12.102,6.051l4.381-4.379L68.111,56.842v-2.616
		L18.621,97.525z M126.541,147.719c-0.496,0-0.963-0.193-1.313-0.544l-13.28-13.279c-0.351-0.352-0.545-0.819-0.545-1.315v-19.919
		c0-1.024,0.834-1.858,1.858-1.859h59.758c1.024,0.001,1.858,0.835,1.859,1.859v33.198c-0.001,1.024-0.834,1.858-1.859,1.858
		H126.541z M115.119,131.812l12.191,12.191h43.851v-29.483h-56.042V131.812z M26.96,147.719c-1.024,0-1.858-0.833-1.858-1.858
		v-33.199c0-1.024,0.834-1.858,1.858-1.859h59.758c1.024,0.001,1.858,0.835,1.858,1.859v19.919c0,0.496-0.193,0.964-0.545,1.315
		l-13.279,13.278c-0.351,0.351-0.818,0.545-1.314,0.545H26.96z M28.819,144.002h43.85l12.192-12.191v-17.292H28.819V144.002z"/>
</g>
</svg>
