<?xml version="1.0" encoding="iso-8859-1"?>
<!-- Generator: Adobe Illustrator 18.0.0, SVG Export Plug-In . SVG Version: 6.00 Build 0)  -->
<!DOCTYPE svg PUBLIC "-//W3C//DTD SVG 1.1//EN" "http://www.w3.org/Graphics/SVG/1.1/DTD/svg11.dtd">
<svg version="1.1" id="Layer_1" xmlns="http://www.w3.org/2000/svg" xmlns:xlink="http://www.w3.org/1999/xlink" x="0px" y="0px"
	 viewBox="0 0 200 200" style="enable-background:new 0 0 200 200;" xml:space="preserve">
<rect x="-20.438" y="211.541" style="fill:#FF00FF;" width="3.773" height="3.773"/>
<g>
	<path style="fill:#B3B3B3;" d="M45.03,176.072c-0.894,0-1.622-0.727-1.622-1.622v-11.572c0-0.894,0.727-1.622,1.622-1.622h109.94
		c0.894,0,1.622,0.727,1.622,1.622v11.572c0,0.894-0.727,1.622-1.622,1.622H45.03z M46.652,172.829h106.696V164.5H46.652V172.829z
		 M50.816,152.927c-0.616,0-1.171-0.344-1.447-0.895c-0.194-0.386-0.225-0.826-0.088-1.238c0.137-0.412,0.425-0.745,0.811-0.939
		l10.675-5.338V64.511c0-0.894,0.727-1.622,1.622-1.622h75.221c0.894,0,1.622,0.727,1.622,1.622v80.006l10.676,5.339
		c0.551,0.276,0.893,0.831,0.894,1.447c0,0.433-0.168,0.841-0.474,1.148c-0.306,0.307-0.713,0.476-1.146,0.476h0.001H50.816z
		 M64.01,145.519c0,0.618-0.344,1.174-0.897,1.451l-0.61,0.305l-3.118,1.427l0.203,0.952l3.479,0.03h73.859l3.613,0.003l0.205-0.953
		l-3.267-1.468l-0.592-0.296c-0.553-0.277-0.897-0.833-0.897-1.451V66.133H64.01V145.519z M149.183,89.279
		c-0.894,0-1.622-0.728-1.622-1.622V54.561H52.438v33.096c-0.001,0.742-0.505,1.387-1.226,1.568c-0.131,0.033-0.265,0.05-0.398,0.05
		c-0.743,0-1.389-0.504-1.571-1.226L37.671,41.76c-0.032-0.128-0.048-0.26-0.048-0.392c0-0.433,0.169-0.84,0.476-1.147
		c0.307-0.307,0.714-0.476,1.146-0.476h85.21V25.029l-6.891-3.445l-0.613,0.405c-0.741,0.49-1.601,0.749-2.49,0.749
		c-0.501,0-1.003-0.082-1.492-0.244c-1.405-0.466-2.504-1.652-2.868-3.095c-0.353-1.398-0.061-2.836,0.802-3.944
		c0.864-1.109,2.163-1.746,3.564-1.746c0.346,0,0.698,0.039,1.046,0.118c1.916,0.431,3.343,2.201,3.47,4.306l0.033,0.551
		l7.748,3.875c0.621,0.297,0.985,0.92,0.936,1.589l-0.003,15.597h33.059c0.133,0,0.265,0.016,0.393,0.048
		c0.421,0.105,0.775,0.368,0.998,0.739c0.223,0.372,0.288,0.808,0.183,1.228l-11.572,46.29
		C150.576,88.773,149.928,89.278,149.183,89.279z M149.183,51.317c0.894,0,1.621,0.728,1.622,1.622v11.219l-0.034,6.622l0.983,0.119
		l1.557-6.436l5.369-21.475H41.321l5.369,21.474l1.505,5.463l0.979-0.13l0.021-5.639V52.939c0-0.894,0.728-1.622,1.623-1.622h-0.001
		H149.183z"/>
	<path style="fill:#B3B3B3;" d="M45.03,176.072v-0.25c-0.756-0.001-1.37-0.616-1.372-1.372v-11.572
		c0.001-0.756,0.616-1.37,1.372-1.372h109.94c0.756,0.001,1.37,0.616,1.372,1.372v11.572c-0.001,0.756-0.616,1.37-1.372,1.372H45.03
		L45.03,176.072v0.25h109.94c1.033,0,1.871-0.839,1.872-1.872v-11.572c0-1.033-0.839-1.871-1.872-1.872H45.03
		c-1.033,0-1.871,0.839-1.872,1.872v11.572c0,1.033,0.839,1.871,1.872,1.872V176.072z M46.652,172.829v0.25h106.946v-8.829H46.402
		v8.829h0.25V172.829h0.25v-8.079h106.196v7.829H46.652V172.829h0.25H46.652z M50.816,152.927l0-0.25
		c-0.523-0.001-0.989-0.289-1.224-0.757c-0.097-0.194-0.146-0.402-0.146-0.611c0-0.146,0.023-0.292,0.071-0.436
		c0.117-0.35,0.358-0.629,0.686-0.794l10.813-5.407v-80.16c0.001-0.756,0.616-1.37,1.372-1.372h75.221
		c0.756,0.001,1.37,0.616,1.372,1.372v80.16l10.815,5.408c0.467,0.235,0.755,0.701,0.756,1.224l0,0.001
		c0,0.368-0.142,0.709-0.401,0.971c-0.26,0.26-0.601,0.402-0.969,0.402l0,0.5h0.001v-0.5H50.816h0L50.816,152.927v0.25h98.367v-0.5
		h-0.001l0,0.5c0.498,0,0.971-0.196,1.323-0.549c0.352-0.353,0.548-0.826,0.547-1.324v-0.001c0-0.71-0.397-1.354-1.032-1.671
		l-10.538-5.27V64.511c0-1.033-0.839-1.871-1.872-1.872H62.388c-1.033,0-1.871,0.839-1.872,1.872v79.852l-10.537,5.269l0,0
		c-0.445,0.223-0.78,0.61-0.937,1.084c-0.064,0.194-0.097,0.394-0.097,0.593c0,0.287,0.067,0.573,0.199,0.835
		c0.318,0.635,0.961,1.033,1.671,1.033h0V152.927z M64.01,145.519h-0.25c-0.001,0.525-0.289,0.992-0.758,1.227l-0.606,0.303
		l-3.297,1.509l0.287,1.344l3.68,0.032h73.861l3.815,0.003l0.29-1.348l-3.447-1.548l-0.587-0.294
		c-0.469-0.236-0.758-0.703-0.759-1.227V65.883H63.76v79.636H64.01h0.25V66.383h71.478l0,79.136
		c-0.001,0.711,0.398,1.357,1.035,1.674l0.592,0.296l0.005,0.002l3.088,1.387l-0.12,0.558l-3.411-0.003H63.068h0.002l-3.279-0.028
		l-0.119-0.559l2.94-1.346l0.614-0.307l0,0c0.637-0.318,1.035-0.963,1.035-1.674H64.01z M149.183,89.279l0-0.25
		c-0.756-0.001-1.371-0.616-1.372-1.372V54.311H52.188v33.346c-0.001,0.627-0.427,1.172-1.037,1.326
		c-0.112,0.028-0.225,0.042-0.337,0.042c-0.628,0-1.174-0.426-1.328-1.037L37.913,41.699c-0.027-0.109-0.041-0.22-0.041-0.331
		v-0.002l0-0.001l-0.174,0.002h0.174l0-0.002l-0.174,0.002h0.174c0-0.367,0.142-0.708,0.402-0.969
		c0.261-0.261,0.602-0.403,0.969-0.403h85.46v-15.12l-7.158-3.579l-0.734,0.485c-0.7,0.463-1.512,0.707-2.352,0.707
		c-0.474,0-0.949-0.078-1.413-0.232c-1.322-0.437-2.362-1.56-2.704-2.919c-0.093-0.369-0.139-0.74-0.139-1.106
		c0-0.951,0.308-1.867,0.896-2.623c0.819-1.05,2.042-1.649,3.366-1.649c0.327,0,0.661,0.037,0.991,0.111
		c1.797,0.402,3.155,2.075,3.275,4.077l0.033,0.551l0.009,0.144l7.879,3.94l0.002,0.001c0.5,0.241,0.798,0.718,0.799,1.245
		l-0.004,0.101l-0.001,0.009l-0.003,15.856h33.309c0.112,0,0.224,0.014,0.332,0.041l0,0c0.358,0.09,0.655,0.31,0.844,0.625
		c0.13,0.217,0.196,0.458,0.196,0.703c0,0.112-0.014,0.224-0.042,0.336l-11.572,46.29c-0.153,0.612-0.699,1.039-1.331,1.039
		L149.183,89.279l0,0.25c0.86,0,1.608-0.584,1.816-1.418l11.572-46.29c0.038-0.151,0.057-0.305,0.057-0.457
		c0-0.335-0.091-0.666-0.267-0.96c-0.256-0.427-0.668-0.732-1.152-0.853l0,0c-0.148-0.037-0.3-0.056-0.454-0.056h-32.809
		l0.003-15.347l-0.25,0l0.249,0.018l0.005-0.137c0.001-0.72-0.415-1.377-1.083-1.696l-0.108,0.225l0.112-0.224l-7.619-3.811
		l-0.024-0.407c-0.133-2.208-1.629-4.076-3.665-4.535c-0.365-0.082-0.735-0.124-1.101-0.124c-1.476-0.001-2.851,0.673-3.761,1.842
		c-0.658,0.844-1.002,1.872-1.002,2.931c0,0.408,0.051,0.82,0.154,1.228c0.386,1.527,1.544,2.777,3.032,3.271
		c0.513,0.17,1.042,0.257,1.57,0.257c0.937,0,1.846-0.273,2.628-0.79l0.493-0.326l6.623,3.312v14.311l-84.96,0
		c-0.497,0-0.97,0.196-1.323,0.55c-0.353,0.352-0.549,0.825-0.549,1.323l0,0.004l0.25-0.003h-0.25c0,0.153,0.019,0.305,0.056,0.453
		L49,88.109c0.21,0.833,0.956,1.416,1.813,1.416c0.154,0,0.308-0.019,0.459-0.057c0.831-0.209,1.414-0.954,1.415-1.81V54.811h94.623
		l0,32.846c0,1.033,0.839,1.872,1.872,1.872L149.183,89.279z M149.183,51.317l0,0.25c0.755,0,1.372,0.617,1.372,1.372v11.219
		l-0.035,6.843l1.425,0.173l1.609-6.653l0,0.002l5.446-21.785H41l5.447,21.787l1.563,5.676l1.411-0.188l0.022-5.857V52.939
		c0.001-0.755,0.616-1.371,1.373-1.372l0-0.5h-0.001v0.5h98.367V51.317v-0.25H50.816l0,0.5h0.001l0-0.5
		c-1.033,0.001-1.872,0.839-1.872,1.872v11.216v-0.001l-0.021,5.421l-0.547,0.073l-1.446-5.25l-5.29-21.16h116.718l-5.291,21.166
		l-1.504,6.22l-0.541-0.066l0.032-6.399v-11.22c-0.001-1.032-0.839-1.871-1.871-1.872L149.183,51.317z"/>
</g>
</svg>
