<?xml version="1.0" encoding="iso-8859-1"?>
<!-- Generator: Adobe Illustrator 18.0.0, SVG Export Plug-In . SVG Version: 6.00 Build 0)  -->
<!DOCTYPE svg PUBLIC "-//W3C//DTD SVG 1.1//EN" "http://www.w3.org/Graphics/SVG/1.1/DTD/svg11.dtd">
<svg version="1.1" id="Layer_1" xmlns="http://www.w3.org/2000/svg" xmlns:xlink="http://www.w3.org/1999/xlink" x="0px" y="0px"
	 viewBox="0 0 200 200" style="enable-background:new 0 0 200 200;" xml:space="preserve">
<rect x="-20.438" y="211.541" style="fill:#FF00FF;" width="3.773" height="3.773"/>
<g>
	<polygon style="fill:#B3B3B3;" points="165.927,74.343 165.927,74.344 165.928,74.344 	"/>
	<polygon style="fill:#B3B3B3;" points="121.833,26.047 121.833,26.047 121.833,26.047 	"/>
	<path style="fill:#B3B3B3;" d="M173.946,68.637l-42.59-42.591c-1.272-1.272-2.964-1.973-4.762-1.973
		c-1.798,0-3.49,0.701-4.76,1.973c-1.271,1.27-1.973,2.962-1.972,4.759c0,1.54,0.51,2.993,1.474,4.197l0.332,0.415l-88.71,88.716
		c-5.914,5.914-8.871,13.684-8.871,21.452c0,7.768,2.957,15.538,8.871,21.453c5.729,5.729,13.349,8.885,21.451,8.887
		c8.102,0,15.721-3.157,21.45-8.887l88.71-88.716l0.415,0.332c1.204,0.965,2.659,1.476,4.202,1.476c1.798,0,3.491-0.701,4.761-1.972
		c1.269-1.268,1.968-2.96,1.968-4.76C175.914,71.598,175.214,69.906,173.946,68.637z M171.33,75.543
		c-0.575,0.574-1.335,0.889-2.146,0.89c-0.811,0-1.572-0.315-2.146-0.89l-0.814-0.814l-0.036-0.057
		c-0.074-0.119-0.161-0.228-0.261-0.328c-0.092-0.094-0.201-0.179-0.322-0.255l-0.058-0.036l-26.137-26.136
		c-0.349-0.349-0.814-0.542-1.307-0.542c-0.493,0-0.959,0.193-1.308,0.542c-0.36,0.36-0.541,0.834-0.54,1.307
		c0,0.473,0.18,0.947,0.54,1.307L161.965,75.7l-88.721,88.725c-5.031,5.032-11.719,7.801-18.836,7.802
		c-7.117,0-13.805-2.771-18.838-7.803c-5.193-5.194-7.789-12.015-7.789-18.838c0-6.822,2.596-13.644,7.789-18.837l88.733-88.738
		l5.639,5.575c0.347,0.344,0.811,0.534,1.3,0.534c0.497,0,0.966-0.195,1.314-0.548c0.356-0.36,0.534-0.831,0.533-1.3
		c0-0.476-0.183-0.954-0.548-1.314l-6.623-6.551l-0.034-0.052c-0.07-0.106-0.151-0.207-0.24-0.297l0,0
		c-0.093-0.093-0.199-0.177-0.315-0.252l-0.052-0.033l-0.83-0.82c-0.574-0.574-0.889-1.335-0.889-2.146
		c0-0.811,0.315-1.572,0.889-2.146c0.574-0.574,1.335-0.889,2.146-0.889c0.811,0,1.572,0.315,2.146,0.889l42.593,42.591
		c0.591,0.592,0.886,1.368,0.886,2.145C172.218,74.175,171.922,74.952,171.33,75.543z"/>
	<path style="fill:#B3B3B3;" d="M113.593,113.004l-0.061-0.065l-0.001-0.001l-0.001-0.001c-2.06-2.064-3.955-2.406-5.444-2.671
		c-1.323-0.241-2.222-0.396-3.476-1.645c-1.25-1.255-1.405-2.154-1.647-3.481c-0.264-1.486-0.607-3.382-2.671-5.44
		c-2.056-2.061-3.951-2.406-5.44-2.672c-1.324-0.24-2.224-0.394-3.48-1.646c-1.253-1.257-1.407-2.156-1.647-3.484
		c-0.266-1.487-0.611-3.382-2.671-5.439c-0.348-0.349-0.814-0.541-1.307-0.541c-0.488,0-0.962,0.197-1.307,0.541l-18.834,18.837
		c-0.361,0.361-0.541,0.835-0.541,1.308c0,0.473,0.18,0.946,0.54,1.306c0.349,0.349,0.814,0.542,1.307,0.542
		c0.493,0,0.958-0.193,1.307-0.542L85.62,90.508l0.256,1.012c0.079,0.312,0.141,0.652,0.209,1.034
		c0.265,1.486,0.608,3.381,2.67,5.442c2.057,2.059,3.953,2.404,5.449,2.672c1.32,0.241,2.217,0.396,3.473,1.645
		c1.25,1.255,1.404,2.155,1.645,3.482c0.266,1.487,0.61,3.383,2.67,5.439c2.057,2.06,3.952,2.406,5.44,2.672
		c0.383,0.068,0.72,0.13,1.033,0.207l1.02,0.252l-43.148,43.153c-3.182,3.181-7.416,4.932-11.929,4.932
		c-4.513,0-8.748-1.751-11.931-4.932c-3.289-3.29-4.933-7.61-4.933-11.931c0-4.321,1.644-8.642,4.933-11.931l18.836-18.836
		c0.36-0.361,0.541-0.835,0.541-1.308c0-0.473-0.18-0.947-0.54-1.307c-0.349-0.348-0.815-0.541-1.308-0.541
		c-0.493,0-0.958,0.193-1.307,0.54l-18.836,18.838c-4.01,4.01-6.015,9.278-6.015,14.545c0,5.267,2.005,10.535,6.015,14.546
		c3.879,3.879,9.046,6.016,14.546,6.016c5.5,0,10.667-2.137,14.544-6.016l44.449-44.454c0.499-0.497,0.667-1,0.666-1.43
		C114.065,113.535,113.63,113.047,113.593,113.004L113.593,113.004z"/>
	<path style="fill:#B3B3B3;" d="M134.224,76.391c-0.349,0.349-0.542,0.815-0.541,1.308c0,0.493,0.192,0.959,0.541,1.308
		c0.592,0.592,0.887,1.368,0.888,2.146c0,0.778-0.296,1.554-0.888,2.146c-0.574,0.574-1.335,0.889-2.146,0.89
		c-0.812,0-1.572-0.315-2.146-0.89c-0.573-0.573-0.888-1.334-0.888-2.146c0-0.813,0.315-1.573,0.888-2.146
		c0.361-0.361,0.541-0.835,0.541-1.309c0-0.473-0.18-0.947-0.54-1.307c-0.349-0.349-0.816-0.542-1.309-0.542
		c-0.493,0-0.958,0.193-1.306,0.541c-1.313,1.313-1.969,3.039-1.969,4.764c0,1.722,0.656,3.446,1.967,4.757
		c1.273,1.272,2.966,1.973,4.762,1.973c1.797,0,3.488-0.701,4.759-1.973c1.313-1.313,1.969-3.038,1.969-4.761
		c0-1.724-0.656-3.448-1.969-4.76l0,0l0,0l0,0l0,0c-0.347-0.348-0.812-0.541-1.305-0.541
		C135.039,75.85,134.572,76.043,134.224,76.391z"/>
	<path style="fill:#B3B3B3;" d="M105.026,88.46c1.798,0,3.49-0.701,4.761-1.973c1.271-1.27,1.972-2.962,1.972-4.76
		c0-1.797-0.701-3.489-1.972-4.76c-0.349-0.349-0.815-0.542-1.307-0.542c-0.493,0-0.958,0.193-1.307,0.542
		c-0.349,0.349-0.542,0.815-0.541,1.307c0,0.493,0.192,0.958,0.541,1.307c0.574,0.574,0.889,1.335,0.89,2.146
		c0,0.811-0.316,1.572-0.89,2.146c-0.575,0.574-1.335,0.889-2.146,0.889c-0.81,0-1.571-0.315-2.146-0.889
		c-0.574-0.574-0.889-1.335-0.889-2.146c0-0.812,0.315-1.572,0.889-2.146c0.349-0.349,0.542-0.815,0.541-1.307
		c0-0.493-0.192-0.959-0.541-1.307c-0.349-0.349-0.815-0.542-1.307-0.542c-0.493,0-0.959,0.193-1.307,0.542
		c-1.269,1.268-1.969,2.96-1.968,4.76c0,1.8,0.699,3.492,1.969,4.761C101.536,87.759,103.228,88.46,105.026,88.46z"/>
</g>
</svg>
