<?xml version="1.0" encoding="iso-8859-1"?>
<!-- Generator: Adobe Illustrator 18.0.0, SVG Export Plug-In . SVG Version: 6.00 Build 0)  -->
<!DOCTYPE svg PUBLIC "-//W3C//DTD SVG 1.1//EN" "http://www.w3.org/Graphics/SVG/1.1/DTD/svg11.dtd">
<svg version="1.1" id="Layer_1" xmlns="http://www.w3.org/2000/svg" xmlns:xlink="http://www.w3.org/1999/xlink" x="0px" y="0px"
	 viewBox="0 0 200 200" style="enable-background:new 0 0 200 200;" xml:space="preserve">
<rect x="-20.438" y="211.541" style="fill:#FF00FF;" width="3.773" height="3.773"/>
<g>
	<path style="fill:#B3B3B3;" d="M100,66.876c-0.979,0-1.775-0.796-1.775-1.776V53.973c0-0.979,0.796-1.776,1.775-1.776
		s1.775,0.796,1.775,1.776v11.127C101.775,66.08,100.979,66.876,100,66.876z"/>
	<path style="fill:#B3B3B3;" d="M100,66.876v-0.125c-0.91-0.002-1.649-0.741-1.65-1.651V53.973c0.002-0.91,0.741-1.649,1.65-1.651
		c0.91,0.002,1.649,0.741,1.65,1.651v11.127c-0.002,0.91-0.741,1.649-1.65,1.651V66.876v0.125c1.048,0,1.9-0.852,1.9-1.901V53.973
		c0-1.048-0.852-1.9-1.9-1.901c-1.048,0-1.9,0.852-1.9,1.901v11.127c0,1.048,0.852,1.9,1.9,1.901V66.876z"/>
	<path style="fill:#B3B3B3;" d="M100,149.536c-0.979,0-1.775-0.796-1.775-1.775V76.229c0-0.979,0.796-1.775,1.775-1.775
		s1.775,0.796,1.775,1.775v71.532C101.775,148.74,100.979,149.536,100,149.536z"/>
	<path style="fill:#B3B3B3;" d="M100,149.536v-0.125c-0.91-0.002-1.649-0.741-1.65-1.65V76.229c0.002-0.91,0.741-1.648,1.65-1.65
		c0.91,0.002,1.649,0.741,1.65,1.65v71.532c-0.002,0.91-0.741,1.649-1.65,1.65V149.536v0.125c1.048,0,1.9-0.852,1.9-1.9V76.229
		c0-1.048-0.852-1.9-1.9-1.9c-1.048,0-1.9,0.852-1.9,1.9v71.532c0,1.048,0.852,1.9,1.9,1.9V149.536z"/>
	<path style="fill:#B3B3B3;" d="M94.038,173.896c-0.519,0-1.01-0.226-1.348-0.62l-3.414-3.984H15.614
		c-0.979,0-1.775-0.796-1.775-1.776V48.252c0-0.979,0.796-1.775,1.775-1.775c0.979,0,1.776,0.796,1.776,1.775v117.491h71.952
		c1.09,0,2.129,0.527,2.778,1.411l2.733,3.193h10.294l2.687-3.135c0.686-0.93,1.733-1.469,2.823-1.469h71.954V48.252
		c0-0.979,0.796-1.775,1.775-1.775c0.979,0,1.775,0.796,1.775,1.775v119.266c0,0.979-0.796,1.776-1.775,1.776h-73.662l-3.413,3.983
		c-0.337,0.395-0.828,0.621-1.347,0.621H94.038z"/>
	<path style="fill:#B3B3B3;" d="M94.038,173.896v-0.125c-0.482,0-0.939-0.21-1.253-0.576l-3.452-4.028H15.614
		c-0.91-0.002-1.648-0.741-1.65-1.651V48.252c0.002-0.91,0.741-1.649,1.65-1.65c0.91,0.002,1.649,0.741,1.651,1.65v117.616h72.077
		c1.05,0,2.052,0.509,2.678,1.36l0.003,0.004l2.773,3.24h10.409l2.727-3.182l0.003-0.004c0.664-0.9,1.673-1.418,2.722-1.418h72.079
		V48.252c0.002-0.91,0.741-1.649,1.65-1.65c0.91,0.002,1.649,0.741,1.65,1.65v119.266c-0.002,0.91-0.741,1.649-1.65,1.651h-73.719
		l-3.451,4.026c-0.314,0.367-0.77,0.577-1.252,0.577H94.038V173.896v0.125h11.926c0.555,0,1.081-0.242,1.442-0.665l3.376-3.939
		l73.604,0c1.048,0,1.9-0.852,1.9-1.901V48.252c0-1.048-0.852-1.9-1.9-1.9c-1.048,0-1.9,0.852-1.9,1.9v117.366l-71.829,0
		c-1.132,0-2.216,0.559-2.924,1.52l0.101,0.074l-0.095-0.081l-2.649,3.091H94.91l-2.695-3.149l-0.095,0.081l0.101-0.074
		c-0.673-0.916-1.748-1.462-2.879-1.462H17.514l0-117.366c0-1.048-0.852-1.9-1.901-1.9c-1.048,0-1.9,0.852-1.9,1.9v119.266
		c0,1.048,0.852,1.9,1.9,1.901h73.604l3.377,3.94c0.362,0.421,0.888,0.663,1.443,0.663V173.896z"/>
	<path style="fill:#B3B3B3;" d="M100,163.881c-0.596,0-1.148-0.296-1.478-0.792c-2.052-3.083-5.483-4.924-9.179-4.924H26.742
		c-0.979,0-1.775-0.796-1.775-1.775V37.124c0-0.979,0.796-1.775,1.775-1.775h62.602c3.72,0,7.26,1.401,9.968,3.945L100,39.942
		l0.69-0.648c2.705-2.544,6.244-3.945,9.967-3.945h62.602c0.979,0,1.775,0.796,1.775,1.775V156.39c0,0.979-0.796,1.775-1.775,1.775
		h-62.602c-3.698,0-7.129,1.841-9.178,4.925C101.149,163.585,100.596,163.881,100,163.881z M28.517,154.616h60.826
		c3.721,0,7.261,1.4,9.968,3.942l0.689,0.647l0.689-0.648c2.704-2.542,6.244-3.941,9.967-3.941h60.826V38.899h-60.826
		c-3.697,0-7.128,1.843-9.178,4.929c-0.33,0.497-0.882,0.793-1.478,0.793c-0.596,0-1.148-0.296-1.478-0.793
		c-2.051-3.086-5.482-4.929-9.179-4.929H28.517V154.616z"/>
	<path style="fill:#B3B3B3;" d="M100,163.881v-0.125c-0.554,0-1.067-0.275-1.374-0.736c-2.075-3.118-5.546-4.98-9.283-4.98H26.742
		c-0.91-0.002-1.649-0.741-1.65-1.65V37.124c0.002-0.91,0.741-1.649,1.65-1.65h62.602c3.689,0,7.198,1.389,9.882,3.911L100,40.114
		l0.775-0.729c2.682-2.523,6.19-3.911,9.881-3.911h62.602c0.91,0.002,1.648,0.741,1.65,1.65V156.39
		c-0.002,0.91-0.74,1.648-1.65,1.65h-62.602c-3.74,0-7.211,1.862-9.282,4.981c-0.307,0.46-0.82,0.735-1.374,0.735V163.881v0.125
		c0.637,0,1.229-0.317,1.582-0.847c2.026-3.049,5.418-4.869,9.074-4.869h62.602c1.048,0,1.9-0.852,1.9-1.9V37.124
		c0-1.048-0.852-1.9-1.9-1.9h-62.602c-3.754,0-7.325,1.413-10.052,3.979L100,39.77l-0.604-0.568
		c-2.73-2.566-6.302-3.979-10.053-3.979H26.742c-1.048,0-1.9,0.852-1.9,1.9V156.39c0,1.048,0.852,1.9,1.9,1.9h62.602
		c3.654,0,7.046,1.82,9.075,4.868c0.353,0.531,0.945,0.848,1.582,0.848V163.881z M28.517,154.616v0.125h60.826
		c3.69,0,7.199,1.388,9.882,3.908l0.775,0.728l0.775-0.728c2.681-2.52,6.189-3.907,9.882-3.907h60.951V38.774h-60.951
		c-3.738,0-7.209,1.864-9.282,4.985c-0.307,0.462-0.819,0.737-1.374,0.737c-0.554,0-1.067-0.275-1.374-0.737
		c-2.074-3.121-5.545-4.985-9.283-4.985H28.392v115.967h0.125V154.616h0.125V39.024h60.701c3.655,0,7.047,1.821,9.075,4.873
		c0.353,0.531,0.944,0.849,1.582,0.849c0.638,0,1.23-0.317,1.582-0.849c2.027-3.052,5.419-4.873,9.074-4.873h60.701v115.467
		l-60.701,0c-3.755,0-7.326,1.412-10.053,3.975L100,159.034l-0.604-0.567c-2.729-2.564-6.301-3.976-10.053-3.976H28.517
		L28.517,154.616h0.125H28.517z"/>
	<path style="fill:#B3B3B3;" d="M41.579,53.736c-0.979,0-1.775-0.796-1.775-1.775c0-0.979,0.796-1.776,1.775-1.776h43.584
		c0.979,0,1.775,0.796,1.775,1.776c0,0.979-0.796,1.775-1.775,1.775H41.579z"/>
	<path style="fill:#B3B3B3;" d="M41.579,53.736v-0.125c-0.91-0.002-1.648-0.741-1.65-1.65c0.002-0.91,0.741-1.649,1.65-1.651h43.584
		c0.91,0.002,1.649,0.741,1.65,1.651c-0.002,0.91-0.741,1.648-1.65,1.65H41.579V53.736v0.125h43.584c1.048,0,1.9-0.852,1.9-1.9
		c0-1.048-0.852-1.9-1.9-1.901H41.579c-1.048,0-1.9,0.852-1.9,1.901c0,1.048,0.852,1.9,1.9,1.9V53.736z"/>
	<path style="fill:#B3B3B3;" d="M41.579,64.864c-0.979,0-1.775-0.796-1.775-1.775c0-0.979,0.796-1.776,1.775-1.776h43.584
		c0.979,0,1.775,0.796,1.775,1.776c0,0.979-0.796,1.775-1.775,1.775H41.579z"/>
	<path style="fill:#B3B3B3;" d="M41.579,64.864v-0.125c-0.91-0.002-1.648-0.741-1.65-1.65c0.002-0.91,0.741-1.649,1.65-1.651h43.584
		c0.91,0.002,1.649,0.741,1.65,1.651c-0.002,0.91-0.741,1.648-1.65,1.65H41.579V64.864v0.125h43.584c1.048,0,1.9-0.852,1.9-1.9
		c0-1.048-0.852-1.9-1.9-1.901H41.579c-1.048,0-1.9,0.852-1.9,1.901c0,1.048,0.852,1.9,1.9,1.9V64.864z"/>
	<path style="fill:#B3B3B3;" d="M41.579,75.992c-0.979,0-1.775-0.796-1.775-1.776c0-0.979,0.796-1.775,1.775-1.775h43.584
		c0.979,0,1.775,0.796,1.775,1.775c0,0.979-0.796,1.776-1.775,1.776H41.579z"/>
	<path style="fill:#B3B3B3;" d="M41.579,75.992v-0.125c-0.91-0.002-1.648-0.741-1.65-1.651c0.002-0.91,0.741-1.648,1.65-1.65h43.584
		c0.91,0.002,1.649,0.741,1.65,1.65c-0.002,0.91-0.741,1.649-1.65,1.651H41.579V75.992v0.125h43.584c1.048,0,1.9-0.852,1.9-1.901
		c0-1.048-0.852-1.9-1.9-1.9H41.579c-1.048,0-1.9,0.852-1.9,1.9c0,1.048,0.852,1.9,1.9,1.901V75.992z"/>
	<path style="fill:#B3B3B3;" d="M41.579,87.12c-0.979,0-1.775-0.796-1.775-1.775c0-0.979,0.796-1.775,1.775-1.775h43.584
		c0.979,0,1.775,0.796,1.775,1.775c0,0.979-0.796,1.775-1.775,1.775H41.579z"/>
	<path style="fill:#B3B3B3;" d="M41.579,87.12v-0.125c-0.91-0.002-1.648-0.741-1.65-1.65c0.002-0.91,0.741-1.649,1.65-1.65h43.584
		c0.91,0.002,1.649,0.741,1.65,1.65c-0.002,0.91-0.741,1.649-1.65,1.65H41.579V87.12v0.125h43.584c1.048,0,1.9-0.852,1.9-1.9
		c0-1.048-0.852-1.9-1.9-1.9H41.579c-1.048,0-1.9,0.852-1.9,1.9c0,1.048,0.852,1.9,1.9,1.9V87.12z"/>
	<path style="fill:#B3B3B3;" d="M41.579,98.247c-0.979,0-1.775-0.796-1.775-1.775c0-0.979,0.796-1.775,1.775-1.775h43.584
		c0.979,0,1.775,0.796,1.775,1.775c0,0.979-0.796,1.775-1.775,1.775H41.579z"/>
	<path style="fill:#B3B3B3;" d="M41.579,98.247v-0.125c-0.91-0.002-1.648-0.741-1.65-1.65c0.002-0.91,0.741-1.649,1.65-1.65h43.584
		c0.91,0.002,1.649,0.741,1.65,1.65c-0.002,0.91-0.741,1.648-1.65,1.65H41.579V98.247v0.125h43.584c1.048,0,1.9-0.852,1.9-1.9
		c0-1.048-0.852-1.9-1.9-1.9H41.579c-1.048,0-1.9,0.852-1.9,1.9c0,1.048,0.852,1.9,1.9,1.9V98.247z"/>
	<path style="fill:#B3B3B3;" d="M41.579,109.375c-0.979,0-1.775-0.796-1.775-1.775c0-0.979,0.796-1.775,1.775-1.775h21.792
		c0.979,0,1.775,0.796,1.775,1.775c0,0.979-0.796,1.775-1.775,1.775H41.579z"/>
	<path style="fill:#B3B3B3;" d="M41.579,109.375v-0.125c-0.91-0.002-1.648-0.741-1.65-1.65c0.002-0.91,0.741-1.649,1.65-1.65h21.792
		c0.91,0.002,1.649,0.741,1.65,1.65c-0.002,0.91-0.741,1.649-1.65,1.65H41.579V109.375v0.125h21.792c1.048,0,1.9-0.852,1.9-1.9
		c0-1.048-0.852-1.9-1.9-1.9H41.579c-1.048,0-1.9,0.852-1.9,1.9c0,1.048,0.852,1.9,1.9,1.9V109.375z"/>
	<path style="fill:#B3B3B3;" d="M41.579,143.328c-0.979,0-1.775-0.796-1.775-1.775v-22.825c0-0.979,0.796-1.775,1.775-1.775h43.584
		c0.979,0,1.775,0.796,1.775,1.775v22.825c0,0.979-0.796,1.775-1.775,1.775H41.579z M43.354,139.777h40.033v-19.274H43.354V139.777z
		"/>
	<path style="fill:#B3B3B3;" d="M41.579,143.328v-0.125c-0.91-0.002-1.648-0.741-1.65-1.65v-22.825
		c0.002-0.91,0.741-1.649,1.65-1.65h43.584c0.91,0.002,1.649,0.741,1.65,1.65v22.825c-0.002,0.91-0.741,1.649-1.65,1.65H41.579
		V143.328v0.125h43.584c1.048,0,1.9-0.852,1.9-1.9v-22.825c0-1.048-0.852-1.9-1.9-1.9H41.579c-1.048,0-1.9,0.852-1.9,1.9v22.825
		c0,1.048,0.852,1.9,1.9,1.9V143.328z M43.354,139.777v0.125h40.158v-19.524H43.229v19.524h0.125V139.777h0.125v-19.149h39.783
		l0,19.024l-39.908,0V139.777h0.125H43.354z"/>
	<path style="fill:#B3B3B3;" d="M111.128,98.816c-0.979,0-1.776-0.796-1.776-1.775c0-0.979,0.796-1.775,1.776-1.775h43.584
		c0.979,0,1.775,0.796,1.775,1.775c0,0.979-0.796,1.775-1.775,1.775H111.128z"/>
	<path style="fill:#B3B3B3;" d="M111.128,98.816v-0.125c-0.91-0.002-1.649-0.741-1.651-1.65c0.002-0.91,0.741-1.649,1.651-1.65
		h43.584c0.91,0.002,1.648,0.741,1.65,1.65c-0.002,0.91-0.74,1.649-1.65,1.65h-43.584V98.816v0.125h43.584
		c1.048,0,1.9-0.852,1.9-1.9c0-1.048-0.852-1.9-1.9-1.9h-43.584c-1.049,0-1.901,0.852-1.901,1.9c0,1.048,0.852,1.9,1.901,1.9V98.816
		z"/>
	<path style="fill:#B3B3B3;" d="M111.128,109.944c-0.979,0-1.776-0.796-1.776-1.775c0-0.979,0.796-1.775,1.776-1.775h43.584
		c0.979,0,1.775,0.796,1.775,1.775c0,0.979-0.796,1.775-1.775,1.775H111.128z"/>
	<path style="fill:#B3B3B3;" d="M111.128,109.944v-0.125c-0.91-0.002-1.649-0.741-1.651-1.65c0.002-0.91,0.741-1.649,1.651-1.65
		h43.584c0.91,0.002,1.648,0.741,1.65,1.65c-0.002,0.91-0.74,1.649-1.65,1.65h-43.584V109.944v0.125h43.584
		c1.048,0,1.9-0.852,1.9-1.9c0-1.048-0.852-1.9-1.9-1.9h-43.584c-1.049,0-1.901,0.852-1.901,1.9c0,1.048,0.852,1.9,1.901,1.9
		V109.944z"/>
	<path style="fill:#B3B3B3;" d="M111.128,121.072c-0.979,0-1.776-0.796-1.776-1.775c0-0.979,0.796-1.775,1.776-1.775h43.584
		c0.979,0,1.775,0.796,1.775,1.775c0,0.979-0.796,1.775-1.775,1.775H111.128z"/>
	<path style="fill:#B3B3B3;" d="M111.128,121.072v-0.125c-0.91-0.002-1.649-0.741-1.651-1.65c0.002-0.91,0.741-1.649,1.651-1.65
		h43.584c0.91,0.002,1.648,0.741,1.65,1.65c-0.002,0.91-0.74,1.649-1.65,1.65h-43.584V121.072v0.125h43.584
		c1.048,0,1.9-0.852,1.9-1.9c0-1.048-0.852-1.9-1.9-1.9h-43.584c-1.049,0-1.901,0.852-1.901,1.9c0,1.048,0.852,1.9,1.901,1.9
		V121.072z"/>
	<path style="fill:#B3B3B3;" d="M111.128,132.2c-0.979,0-1.776-0.796-1.776-1.775c0-0.979,0.796-1.776,1.776-1.776h43.584
		c0.979,0,1.775,0.796,1.775,1.776c0,0.979-0.796,1.775-1.775,1.775H111.128z"/>
	<path style="fill:#B3B3B3;" d="M111.128,132.2v-0.125c-0.91-0.002-1.649-0.741-1.651-1.65c0.002-0.91,0.741-1.649,1.651-1.651
		h43.584c0.91,0.002,1.648,0.741,1.65,1.651c-0.002,0.91-0.74,1.648-1.65,1.65h-43.584V132.2v0.125h43.584
		c1.048,0,1.9-0.852,1.9-1.9c0-1.048-0.852-1.9-1.9-1.901h-43.584c-1.049,0-1.901,0.852-1.901,1.901c0,1.048,0.852,1.9,1.901,1.9
		V132.2z"/>
	<path style="fill:#B3B3B3;" d="M111.128,143.328c-0.979,0-1.776-0.796-1.776-1.775s0.796-1.775,1.776-1.775h21.792
		c0.979,0,1.775,0.796,1.775,1.775s-0.796,1.775-1.775,1.775H111.128z"/>
	<path style="fill:#B3B3B3;" d="M111.128,143.328v-0.125c-0.91-0.002-1.649-0.741-1.651-1.65c0.002-0.91,0.741-1.649,1.651-1.65
		h21.792c0.91,0.002,1.648,0.741,1.65,1.65c-0.002,0.91-0.74,1.649-1.65,1.65h-21.792V143.328v0.125h21.792
		c1.048,0,1.9-0.852,1.9-1.9c0-1.048-0.852-1.9-1.9-1.9h-21.792c-1.049,0-1.901,0.852-1.901,1.9c0,1.048,0.852,1.9,1.901,1.9
		V143.328z"/>
	<path style="fill:#B3B3B3;" d="M154.712,87.689c-3.565,0-6.745-0.821-9.722-2.51c-0.162-0.08-0.256-0.134-0.343-0.196
		c-4.696-2.815-8.138-7.396-10.891-11.509l-0.836-1.25l-0.837,1.25c-2.754,4.116-6.195,8.697-10.828,11.468
		c-0.142,0.098-0.231,0.151-0.327,0.196c-3.038,1.722-6.233,2.551-9.8,2.551c-0.979,0-1.776-0.796-1.776-1.775
		c0-0.979,0.796-1.775,1.776-1.775c2.419,0,4.6-0.447,6.668-1.368l0.597-0.266V55.369l-0.597-0.266
		c-2.072-0.92-4.254-1.367-6.669-1.367c-0.979,0-1.776-0.796-1.776-1.775c0-0.979,0.796-1.776,1.776-1.776
		c3.568,0,6.752,0.823,9.734,2.517c0.154,0.076,0.246,0.129,0.328,0.186c4.696,2.811,8.14,7.396,10.893,11.512l0.837,1.25
		l0.836-1.25c2.755-4.116,6.195-8.696,10.825-11.467c0.143-0.098,0.237-0.154,0.341-0.204c3.034-1.717,6.226-2.545,9.789-2.545
		c0.979,0,1.775,0.796,1.775,1.776c0,0.979-0.796,1.775-1.775,1.775c-2.416,0-4.597,0.447-6.668,1.367l-0.598,0.266v27.136
		l0.598,0.266c2.07,0.92,4.251,1.367,6.668,1.367c0.979,0,1.775,0.796,1.775,1.775C156.487,86.892,155.691,87.689,154.712,87.689z
		 M121.945,80.306l1.726-1.763c2.531-2.586,4.741-5.894,6.787-9.06l0.353-0.547l-0.353-0.546c-2.044-3.165-4.253-6.471-6.787-9.06
		l-1.726-1.762V80.306z M142.169,59.331c-2.538,2.592-4.745,5.897-6.787,9.06l-0.353,0.546l0.353,0.546
		c2.041,3.162,4.247,6.465,6.787,9.061l1.726,1.762V57.569L142.169,59.331z"/>
	<path style="fill:#B3B3B3;" d="M154.712,87.689v-0.125c-3.546,0-6.701-0.815-9.66-2.494l-0.003-0.002l-0.003-0.002
		c-0.159-0.078-0.246-0.128-0.325-0.185l-0.004-0.003l-0.004-0.003c-4.668-2.797-8.102-7.362-10.851-11.471l-0.94-1.405
		l-0.941,1.405c-2.751,4.112-6.184,8.677-10.789,11.43l-0.003,0.002l-0.003,0.002c-0.139,0.096-0.221,0.144-0.309,0.185
		l-0.004,0.002l-0.004,0.002c-3.021,1.712-6.19,2.534-9.738,2.535c-0.91-0.002-1.649-0.741-1.651-1.65
		c0.002-0.91,0.741-1.649,1.651-1.65c2.434,0,4.635-0.451,6.719-1.378l0.598-0.266l0.074-0.033V55.288l-0.671-0.299
		c-2.088-0.928-4.289-1.378-6.72-1.378c-0.91-0.002-1.649-0.741-1.651-1.65c0.002-0.91,0.741-1.649,1.651-1.651
		c3.549,0,6.708,0.818,9.672,2.5l0.003,0.002l0.003,0.002c0.151,0.074,0.237,0.124,0.311,0.177l0.004,0.003l0.004,0.002
		c4.668,2.793,8.103,7.362,10.854,11.474l0.941,1.405l0.94-1.405c2.751-4.112,6.184-8.677,10.785-11.429l0.003-0.002l0.003-0.002
		c0.141-0.096,0.227-0.147,0.325-0.194l0.004-0.002l0.004-0.002c3.016-1.707,6.184-2.528,9.728-2.528
		c0.91,0.002,1.648,0.741,1.65,1.651c-0.002,0.91-0.74,1.648-1.65,1.65c-2.431,0-4.632,0.451-6.719,1.378l-0.598,0.266l-0.074,0.033
		v27.299l0.673,0.298c2.086,0.927,4.286,1.378,6.718,1.378c0.91,0.002,1.648,0.741,1.65,1.65c-0.002,0.91-0.74,1.649-1.65,1.65
		V87.689v0.125c1.048,0,1.9-0.852,1.9-1.9c0-1.048-0.852-1.9-1.9-1.9c-2.402,0-4.563-0.444-6.617-1.357l-0.524-0.233V55.45
		l0.524-0.233c2.055-0.913,4.217-1.356,6.617-1.356c1.048,0,1.9-0.852,1.9-1.9c0-1.048-0.852-1.9-1.9-1.901
		c-3.582,0-6.799,0.833-9.851,2.561l0.062,0.109l-0.054-0.113c-0.111,0.053-0.212,0.113-0.358,0.213l0.071,0.103l-0.064-0.107
		c-4.659,2.788-8.107,7.385-10.865,11.505l-0.733,1.094l-0.733-1.094c-2.757-4.12-6.209-8.72-10.933-11.549l-0.064,0.107
		l0.072-0.102c-0.089-0.062-0.188-0.119-0.345-0.196l-0.055,0.112l0.062-0.109c-3-1.704-6.208-2.533-9.795-2.533
		c-1.049,0-1.901,0.852-1.901,1.901c0,1.048,0.852,1.9,1.901,1.9c2.4,0,4.562,0.444,6.618,1.357l0.523,0.233v26.973l-0.523,0.233
		c-2.052,0.913-4.214,1.357-6.617,1.357c-1.049,0-1.901,0.852-1.901,1.9c0,1.048,0.852,1.9,1.901,1.9
		c3.586,0,6.805-0.835,9.861-2.567l-0.062-0.109l0.053,0.113c0.104-0.049,0.201-0.107,0.345-0.206l-0.071-0.103l0.064,0.107
		c4.662-2.789,8.11-7.386,10.868-11.506l0.733-1.095l0.733,1.095c2.756,4.117,6.206,8.714,10.93,11.547l0.064-0.107l-0.073,0.102
		c0.094,0.067,0.196,0.126,0.361,0.206l0.055-0.112l-0.062,0.109c2.995,1.7,6.2,2.526,9.784,2.526V87.689z M121.945,80.306
		l0.089,0.087l1.726-1.763c2.543-2.598,4.756-5.912,6.803-9.08l0.353-0.547l0.044-0.068l-0.397-0.614
		c-2.045-3.166-4.257-6.478-6.803-9.079l-1.94-1.981v23.35l0.214-0.219L121.945,80.306h0.125V57.875l1.512,1.543
		c2.523,2.577,4.729,5.877,6.772,9.04l0.309,0.478l-0.309,0.479c-2.045,3.165-4.252,6.467-6.772,9.041l-1.726,1.763L121.945,80.306
		h0.125H121.945z M142.169,59.331l-0.089-0.087c-2.549,2.605-4.759,5.916-6.803,9.08l-0.353,0.546l-0.044,0.068l0.397,0.614
		c2.042,3.163,4.251,6.473,6.803,9.08l1.941,1.981V57.262l-1.94,1.981L142.169,59.331l0.089,0.087l1.512-1.543v22.125l-1.512-1.543
		c-2.528-2.583-4.731-5.881-6.771-9.041l-0.309-0.478l0.309-0.478c2.042-3.162,4.246-6.46,6.772-9.04L142.169,59.331z"/>
</g>
</svg>
