<?xml version="1.0" encoding="iso-8859-1"?>
<!-- Generator: Adobe Illustrator 18.0.0, SVG Export Plug-In . SVG Version: 6.00 Build 0)  -->
<!DOCTYPE svg PUBLIC "-//W3C//DTD SVG 1.1//EN" "http://www.w3.org/Graphics/SVG/1.1/DTD/svg11.dtd">
<svg version="1.1" id="Layer_1" xmlns="http://www.w3.org/2000/svg" xmlns:xlink="http://www.w3.org/1999/xlink" x="0px" y="0px"
	 viewBox="0 0 200 200" style="enable-background:new 0 0 200 200;" xml:space="preserve">
<rect x="-20.438" y="211.541" style="fill:#FF00FF;" width="3.773" height="3.773"/>
<g>
	<path style="fill:#B3B3B3;" d="M177.262,86.641c-35.236,0-63.903-28.667-63.903-63.903c0-1.061,0.863-1.924,1.924-1.924
		s1.924,0.863,1.924,1.924c0,33.115,26.941,60.056,60.056,60.056c1.06,0,1.924,0.863,1.924,1.924S178.323,86.641,177.262,86.641z"/>
	<path style="fill:#B3B3B3;" d="M84.717,179.186c-1.06,0-1.924-0.863-1.924-1.924c0-33.115-26.941-60.056-60.056-60.056
		c-1.061,0-1.924-0.863-1.924-1.924s0.863-1.924,1.924-1.924c35.236,0,63.903,28.667,63.903,63.903
		C86.641,178.323,85.778,179.186,84.717,179.186z"/>
	<path style="fill:#B3B3B3;" d="M94.906,179.186c-1.06,0-1.924-0.863-1.924-1.924s0.863-1.924,1.924-1.924h3.17v-21.907h-3.17
		c-1.06,0-1.924-0.863-1.924-1.924s0.863-1.924,1.924-1.924h3.17v-21.906h-3.17c-1.06,0-1.924-0.863-1.924-1.924
		s0.863-1.924,1.924-1.924h3.17v-21.907H76.169v3.171c0,1.061-0.863,1.924-1.924,1.924c-1.06,0-1.924-0.863-1.924-1.924v-3.171
		H50.416v3.171c0,1.061-0.863,1.924-1.924,1.924c-1.061,0-1.924-0.863-1.924-1.924v-3.171H24.662v3.171
		c0,1.061-0.863,1.924-1.924,1.924c-1.061,0-1.924-0.863-1.924-1.924V94.906c0-1.061,0.863-1.924,1.924-1.924
		c1.061,0,1.924,0.863,1.924,1.924v3.171h21.907v-3.171c0-1.061,0.863-1.924,1.924-1.924c1.061,0,1.924,0.863,1.924,1.924v3.171
		h21.905v-3.171c0-1.061,0.863-1.924,1.924-1.924c1.06,0,1.924,0.863,1.924,1.924v3.171h21.907V76.169h-3.17
		c-1.06,0-1.924-0.863-1.924-1.924c0-1.06,0.863-1.923,1.924-1.923h3.17V50.416h-3.17c-1.06,0-1.924-0.863-1.924-1.924
		s0.863-1.924,1.924-1.924h3.17V24.662h-3.17c-1.06,0-1.924-0.863-1.924-1.924c0-1.061,0.863-1.924,1.924-1.924h10.188
		c1.06,0,1.924,0.863,1.924,1.924c0,1.061-0.863,1.924-1.924,1.924h-3.17v21.907h3.17c1.06,0,1.924,0.863,1.924,1.924
		s-0.863,1.924-1.924,1.924h-3.17v21.906h3.17c1.06,0,1.924,0.863,1.924,1.923c0,1.061-0.863,1.924-1.924,1.924h-3.17v47.662h3.17
		c1.06,0,1.924,0.863,1.924,1.924s-0.863,1.924-1.924,1.924h-3.17v21.906h3.17c1.06,0,1.924,0.863,1.924,1.924
		s-0.863,1.924-1.924,1.924h-3.17v21.907h3.17c1.06,0,1.924,0.863,1.924,1.924s-0.863,1.924-1.924,1.924H94.906z"/>
	<path style="fill:#B3B3B3;" d="M177.262,107.018c-1.06,0-1.924-0.863-1.924-1.924v-3.171h-21.907v3.171
		c0,1.061-0.863,1.924-1.924,1.924s-1.924-0.863-1.924-1.924v-3.171h-21.906v3.171c0,1.061-0.863,1.924-1.924,1.924
		s-1.924-0.863-1.924-1.924v-3.171h-13.642c-1.06,0-1.924-0.863-1.924-1.924s0.863-1.924,1.924-1.924h13.642v-3.171
		c0-1.061,0.863-1.924,1.924-1.924s1.924,0.863,1.924,1.924v3.171h21.906v-3.171c0-1.061,0.863-1.924,1.924-1.924
		s1.924,0.863,1.924,1.924v3.171h21.907v-3.171c0-1.061,0.863-1.924,1.924-1.924s1.924,0.863,1.924,1.924v10.188
		C179.186,106.155,178.323,107.018,177.262,107.018z"/>
</g>
</svg>
