<?xml version="1.0" encoding="iso-8859-1"?>
<!-- Generator: Adobe Illustrator 18.0.0, SVG Export Plug-In . SVG Version: 6.00 Build 0)  -->
<!DOCTYPE svg PUBLIC "-//W3C//DTD SVG 1.1//EN" "http://www.w3.org/Graphics/SVG/1.1/DTD/svg11.dtd">
<svg version="1.1" id="Layer_1" xmlns="http://www.w3.org/2000/svg" xmlns:xlink="http://www.w3.org/1999/xlink" x="0px" y="0px"
	 viewBox="0 0 200 200" style="enable-background:new 0 0 200 200;" xml:space="preserve">
<rect x="-20.438" y="211.541" style="fill:#FF00FF;" width="3.773" height="3.773"/>
<g>
	<path style="fill:#B3B3B3;" d="M144.967,88.217L145,88.081V51.007l0.105-0.054c3.314-0.369,5.622-3.12,5.622-6.456
		c0-3.606-3.125-6.497-6.731-6.497h-31.5c-3.606,0-6.54,2.891-6.54,6.497c0,3.336,2.371,6.108,5.685,6.477l0.36,0.033v37.075
		l-0.222,0.136c-7.048,2.738-13.291,7.261-18.175,13.081c-0.312,0.371-0.428,0.842-0.386,1.325c0.042,0.483,0.286,0.92,0.659,1.232
		c0.325,0.274,0.746,0.425,1.171,0.425c0.539,0,1.05-0.236,1.395-0.649c4.842-5.768,11.202-10.112,18.279-12.563
		c0.73-0.253,1.28-0.941,1.28-1.714V52h13.821c1.001,0,1.815-0.999,1.815-2c0-1.001-0.814-2-1.815-2h-17.325
		c-1.605,0-2.91-1.395-2.91-3s1.306-3,2.91-3h31.5c1.605,0,2.91,1.395,2.91,3s-1.305,3-2.91,3h-4.725c-1.001,0-1.815,0.999-1.815,2
		c0,1.001,0.814,2,1.815,2H142v37.355c0,0.774-0.206,1.463,0.525,1.716c16.697,5.781,27.567,21.543,27.567,39.222
		c0,22.882-18.79,41.498-41.672,41.498c-5.394,0-10.732-1.022-15.694-3.038c-0.219-0.089-0.492-0.135-0.726-0.135
		c-0.742,0-1.424,0.445-1.703,1.133c-0.182,0.449-0.19,0.943-0.002,1.389c0.188,0.447,0.534,0.793,0.983,0.975
		c5.398,2.193,11.106,3.305,16.97,3.305c24.883,0,45.317-20.244,45.317-45.127C173.565,111.81,162.186,94.901,144.967,88.217z"/>
	<circle style="fill:#B3B3B3;" cx="145.852" cy="138.602" r="1.815"/>
	<circle style="fill:#B3B3B3;" cx="136.402" cy="148.052" r="1.815"/>
	<path style="fill:#B3B3B3;" d="M114.67,159.329c-0.244-0.114-0.502-0.172-0.769-0.172c-0.702,0-1.348,0.41-1.645,1.044
		c-0.423,0.907-0.031,1.99,0.874,2.415c4.753,2.225,9.838,3.354,15.115,3.354c19.673,0,35.677-16.005,35.677-35.677
		c0-6.271-1.651-12.44-4.775-17.84c-0.323-0.559-0.924-0.906-1.568-0.906c-0.084,0-0.168,0.006-0.254,0.018l-0.865,0.12
		c-0.082,0.011-0.162,0.029-0.239,0.05c-3.466,0.983-5.343,2.492-6.852,3.703c-1.74,1.398-2.997,2.408-6.458,2.408
		c-2.998,0-4.389-1.197-6.151-2.712c-1.861-1.599-4.177-3.588-8.516-3.588c-4.34,0-6.655,1.99-8.515,3.588
		c-1.762,1.515-3.154,2.712-6.15,2.712c-3.462,0-4.719-1.01-6.462-2.411c-1.508-1.211-3.385-2.718-6.845-3.7
		c-0.079-0.022-0.159-0.04-0.248-0.051l-0.861-0.12c-0.085-0.012-0.169-0.018-0.253-0.018c-0.641,0-1.24,0.345-1.561,0.896
		l-0.063,0.115c-0.242,0.42-0.305,0.909-0.178,1.377c0.126,0.468,0.427,0.859,0.846,1.1c0.277,0.158,0.589,0.242,0.905,0.242
		c0.099,0,0.197-0.008,0.294-0.024l0.115-0.008l0.122,0.014l0.045,0.013c2.654,0.78,3.994,1.857,5.415,3.001
		c2.053,1.647,3.993,3.203,8.728,3.203c4.341,0,6.655-1.99,8.517-3.589c1.763-1.515,3.156-2.711,6.148-2.711
		c2.995,0,4.388,1.197,6.151,2.713c1.861,1.598,4.176,3.587,8.517,3.587c4.735,0,6.675-1.556,8.731-3.206
		c1.199-0.963,2.438-1.96,4.533-2.711l0.455-0.163l0.218,0.432c2.253,4.452,3.444,9.454,3.444,14.465
		c0,17.671-14.377,32.048-32.048,32.048C123.502,162.34,118.935,161.327,114.67,159.329z"/>
	<path style="fill:#B3B3B3;" d="M83,89.05V41.557l0.156-0.054c3.314-0.369,5.647-3.395,5.647-6.731c0-3.606-3.099-6.772-6.705-6.772
		h-31.5c-3.606,0-6.54,3.166-6.54,6.772c0,3.336,2.82,6.246,6.134,6.615L51,41.557v38.349c0,1.001,0.499,1.815,1.5,1.815
		c1.001,0,1.5-0.814,1.5-1.815V42h13.923c1.001,0,1.815-0.999,1.815-2c0-1.001-0.814-2-1.815-2H50.598c-1.605,0-2.91-1.395-2.91-3
		s1.305-3,2.91-3h31.5c1.605,0,2.91,1.395,2.91,3s-1.306,3-2.91,3h-4.725c-1.001,0-1.815,0.999-1.815,2c0,1.001,0.814,2,1.815,2H79
		v47.356c0,0.203-0.112,0.403-0.047,0.593l22.888,66.387c1.446,4.181,1.072,8.181-0.988,11.074
		c-2.06,2.892-5.667,4.589-10.092,4.589H41.935c-4.425,0-7.996-1.697-10.054-4.589c-2.06-2.891-2.399-6.839-0.953-11.022
		l22.961-66.413c0.327-0.947-0.177-1.995-1.123-2.322c-0.192-0.066-0.392-0.107-0.592-0.107c-0.773,0-1.462,0.488-1.715,1.22
		l-22.961,66.386c-1.841,5.32-1.335,10.674,1.425,14.55c2.76,3.875,7.381,6.298,13.012,6.298h48.825
		c5.631,0,10.252-2.424,13.012-6.299c2.76-3.876,3.598-9.086,1.756-14.406L83,89.05z"/>
	<path style="fill:#B3B3B3;" d="M45.891,138.215c-0.316-0.246-0.711-0.381-1.112-0.381c-0.175,0-0.349,0.025-0.518,0.076
		c-0.56,0.166-1.007,0.594-1.197,1.146l-6.635,19.183c-0.814,2.353-0.745,4.389,0.193,5.706c0.937,1.316,2.825,2.055,5.314,2.055
		h48.825c2.49,0,4.377-0.739,5.314-2.055c0.937-1.316,1.006-3.344,0.193-5.698l-6.636-19.187c-0.191-0.552-0.639-0.982-1.2-1.148
		c-0.167-0.051-0.341-0.077-0.516-0.077c-0.4,0-0.794,0.135-1.111,0.38c-1.326,1.028-2.676,1.879-5.793,1.879
		c-2.994,0-4.387-1.197-6.154-2.715c-1.86-1.597-4.175-3.586-8.512-3.586c-4.338,0-6.653,1.99-8.519,3.593
		c-1.763,1.512-3.155,2.707-6.147,2.707C48.565,140.093,47.215,139.243,45.891,138.215z M60.197,140.135
		c1.763-1.515,3.155-2.712,6.149-2.712c2.99,0,4.383,1.195,6.151,2.712c1.86,1.599,4.175,3.588,8.515,3.588
		c2.118,0,3.888-0.332,5.411-1.016l0.546-0.245l5.867,16.964c0.402,1.164,0.377,1.871,0.348,2.121l-0.035,0.296l-0.268-0.039
		c-0.224,0.11-0.881,0.197-2.121,0.197H41.935c-1.24,0-1.897-0.086-2.121-0.197l-0.268-0.046l-0.035-0.254
		c-0.029-0.25-0.054-0.936,0.348-2.1l5.867-16.951l0.546,0.25c1.525,0.683,3.295,1.018,5.41,1.018
		C56.023,143.72,58.337,141.733,60.197,140.135z"/>
</g>
</svg>
