<?xml version="1.0" encoding="iso-8859-1"?>
<!-- Generator: Adobe Illustrator 18.0.0, SVG Export Plug-In . SVG Version: 6.00 Build 0)  -->
<!DOCTYPE svg PUBLIC "-//W3C//DTD SVG 1.1//EN" "http://www.w3.org/Graphics/SVG/1.1/DTD/svg11.dtd">
<svg version="1.1" id="Layer_1" xmlns="http://www.w3.org/2000/svg" xmlns:xlink="http://www.w3.org/1999/xlink" x="0px" y="0px"
	 viewBox="0 0 200 200" style="enable-background:new 0 0 200 200;" xml:space="preserve">
<rect x="-20.438" y="211.541" style="fill:#FF00FF;" width="3.773" height="3.773"/>
<g>
	<g>
		<path style="fill:#B3B3B3;" d="M96.369,115.529c-1.04,0-1.886-0.846-1.886-1.886v-11.945h-6.307v11.945
			c0,1.04-0.846,1.886-1.886,1.886H76.145c-1.04,0-1.886-0.846-1.886-1.886v-11.945h-3.858c-1.04,0-1.885-0.846-1.885-1.886
			c0-1.04,0.846-1.885,1.885-1.885h2.143V44.136c0-1.04,0.846-1.886,1.886-1.886h4.88V20.654c0-1.04,0.846-1.886,1.885-1.886h20.268
			c1.04,0,1.886,0.846,1.886,1.886v21.597h4.878c1.04,0,1.886,0.846,1.886,1.886v13.518h8.193c0.327,0,0.649,0.085,0.932,0.247
			l22.583,12.872c5.465,3.143,9.747,10.543,9.747,16.844v17.041c0,1.04-0.846,1.885-1.886,1.885c-1.04,0-1.885-0.846-1.885-1.885
			V87.616c0-4.908-3.594-11.124-7.848-13.573l-22.144-12.619h-7.69v36.502h2.143c1.04,0,1.885,0.846,1.885,1.885
			c0,1.04-0.846,1.886-1.885,1.886h-3.857v11.945c0,1.04-0.846,1.886-1.886,1.886H96.369z M98.255,111.758h6.375v-10.059h-6.375
			V111.758z M78.031,111.758h6.374v-10.059h-6.374V111.758z M76.316,97.927h30.026V46.022H76.316V97.927z M83.08,42.251h16.499
			V22.54H83.08V42.251z"/>
		<path style="fill:#B3B3B3;" d="M40.104,175.398c-0.636,0-1.224-0.317-1.573-0.848c-0.351-0.531-0.411-1.196-0.16-1.78
			l7.687-17.918c2.503-5.834,9.436-10.405,15.784-10.405h65.666v-17.613H72.287v6.307h47.026c1.04,0,1.886,0.846,1.886,1.886
			c0,1.04-0.846,1.885-1.886,1.885H70.402c-1.04,0-1.885-0.846-1.885-1.885v-10.079c0-1.04,0.846-1.885,1.885-1.885h57.105V90.305
			l-10.131-5.743c-0.904-0.513-1.223-1.667-0.71-2.571c0.334-0.59,0.964-0.956,1.643-0.956c0.324,0,0.645,0.085,0.929,0.246
			l11.083,6.285c0.59,0.335,0.957,0.964,0.957,1.64v55.241h8.193c1.04,0,1.885,0.846,1.885,1.886c0,1.04-0.846,1.885-1.885,1.885
			h-77.63c-4.79,0-10.431,3.719-12.318,8.12l-6.558,15.288h104.834v-34.715l-0.509-0.103c-5.623-1.133-9.704-6.122-9.704-11.86
			c0-6.671,5.427-12.099,12.099-12.099c6.671,0,12.099,5.427,12.099,12.099c0,5.739-4.081,10.727-9.704,11.86l-0.509,0.103v36.601
			c0,1.04-0.846,1.886-1.886,1.886H40.104z M149.684,116.621c-4.592,0-8.327,3.736-8.327,8.327c0,4.592,3.736,8.328,8.327,8.328
			c4.592,0,8.328-3.736,8.328-8.328C158.011,120.357,154.275,116.621,149.684,116.621z"/>
	</g>
</g>
</svg>
