<?xml version="1.0" encoding="iso-8859-1"?>
<!-- Generator: Adobe Illustrator 18.0.0, SVG Export Plug-In . SVG Version: 6.00 Build 0)  -->
<!DOCTYPE svg PUBLIC "-//W3C//DTD SVG 1.1//EN" "http://www.w3.org/Graphics/SVG/1.1/DTD/svg11.dtd">
<svg version="1.1" id="Layer_1" xmlns="http://www.w3.org/2000/svg" xmlns:xlink="http://www.w3.org/1999/xlink" x="0px" y="0px"
	 viewBox="0 0 200 200" style="enable-background:new 0 0 200 200;" xml:space="preserve">
<rect x="-20.438" y="211.541" style="fill:#FF00FF;" width="3.773" height="3.773"/>
<g>
	<path style="fill:#B3B3B3;" d="M142.686,175c-0.783,0-1.48-0.499-1.733-1.241l-6.883-20.185l-0.199-0.114
		c-2.853-1.629-4.624-4.673-4.624-7.942c0-1.222,0.24-2.411,0.712-3.532l0.09-0.213l-16.357-47.973h-11.938v4.666
		c0,1.009-0.821,1.831-1.831,1.831s-1.831-0.821-1.831-1.831v-4.666H86.156L69.8,141.775l0.089,0.212
		c0.472,1.128,0.712,2.316,0.712,3.531c0,3.279-1.772,6.322-4.623,7.941l-0.2,0.114l-6.882,20.185
		c-0.253,0.743-0.949,1.241-1.733,1.241c-0.2,0-0.398-0.033-0.592-0.099c-0.463-0.158-0.837-0.486-1.052-0.925
		c-0.215-0.439-0.247-0.936-0.09-1.398l2.219-6.507l-0.42-0.251c-1.993-1.193-3.611-3.002-4.557-5.092
		c-1.26-2.782-1.33-5.879-0.199-8.721l0.881-2.582l-0.095-0.216c-0.517-1.173-0.78-2.414-0.78-3.688
		c0-3.354,1.828-6.428,4.771-8.021l0.208-0.113l3.738-10.966c0.253-0.742,0.949-1.24,1.733-1.24c0.2,0,0.4,0.033,0.592,0.099
		c0.955,0.325,1.467,1.367,1.142,2.323l-8.756,25.68c-0.792,1.955-0.752,4.052,0.101,5.937c0.48,1.062,1.228,2.027,2.164,2.792
		l0.675,0.552l34.052-99.879l-0.407-0.254c-1.356-0.848-2.548-1.914-3.544-3.168l-0.689-0.868l-20.451,59.986
		c-0.252,0.742-0.948,1.241-1.732,1.241c-0.2,0-0.399-0.033-0.591-0.099c-0.463-0.158-0.837-0.486-1.052-0.925
		c-0.215-0.438-0.247-0.935-0.09-1.398l7.977-23.397H60.141v1.417c0,1.009-0.821,1.831-1.831,1.831s-1.831-0.821-1.831-1.831v-6.497
		c0-1.009,0.821-1.831,1.831-1.831s1.831,0.821,1.831,1.831v1.417h13.425l12.597-36.948l-0.027-0.154
		c-0.147-0.819-0.222-1.656-0.222-2.486c0-6.863,4.911-12.673,11.676-13.814l0.505-0.085V25.378c0-1.009,0.821-1.831,1.831-1.831
		s1.831,0.821,1.831,1.831v11.275l0.505,0.085c6.766,1.141,11.676,6.951,11.676,13.814c0,0.645-0.048,1.31-0.142,1.977l-0.03,0.213
		l0.111,0.184c0.067,0.111,0.123,0.23,0.166,0.354l12.566,36.861h13.1v-1.417c0-1.009,0.821-1.831,1.831-1.831
		s1.831,0.821,1.831,1.831v6.496c0,1.009-0.821,1.831-1.831,1.831s-1.831-0.821-1.831-1.831v-1.417h-11.853l14.896,43.691
		l0.197,0.114c2.824,1.634,4.578,4.666,4.578,7.913c0,1.203-0.233,2.375-0.691,3.483l-0.087,0.211l0.963,2.825
		c1.768,5.187-0.372,10.983-5.089,13.783l-0.423,0.251l2.219,6.505c0.325,0.954-0.188,1.997-1.142,2.323
		C143.083,174.967,142.884,175,142.686,175z M143.413,153.148c-1.286,0.851-2.778,1.363-4.315,1.481l-0.779,0.06l2.688,7.885
		l0.674-0.543c2.521-2.031,3.584-5.469,2.645-8.554l-0.236-0.777L143.413,153.148z M138.388,140.043
		c-3.02,0-5.478,2.457-5.478,5.478c0,3.02,2.457,5.478,5.478,5.478c3.02,0,5.478-2.457,5.478-5.478
		C143.865,142.5,141.408,140.043,138.388,140.043z M111.118,58.983c-1.037,1.375-2.302,2.534-3.76,3.446l-0.407,0.255l25.781,75.623
		l0.653-0.429c1.29-0.848,2.786-1.355,4.327-1.468l0.782-0.057l-26.689-78.281L111.118,58.983z M87.405,90.141h10.688v-4.666
		c0-1.009,0.821-1.831,1.831-1.831s1.831,0.821,1.831,1.831v4.06h1.211l-0.605,0.604h10.085l-7.725-22.656l-0.671,0.526
		c-1.19,0.933-2.616,1.425-4.124,1.425c-1.508,0-2.933-0.493-4.123-1.425l-0.671-0.526L87.405,90.141z M99.924,59.69
		c-1.436,0-2.689,1.023-2.98,2.433c-0.041,0.204-0.062,0.408-0.062,0.609c0,1.677,1.365,3.041,3.042,3.041
		c1.677,0,3.041-1.365,3.041-3.041c0-0.208-0.021-0.414-0.061-0.613C102.613,60.711,101.36,59.69,99.924,59.69z M99.924,56.029
		c2.124,0,4.077,0.977,5.359,2.681l0.363,0.483l0.483-0.362c2.595-1.942,4.144-5.038,4.144-8.28c0-5.707-4.643-10.35-10.35-10.35
		s-10.35,4.643-10.35,10.35c0,3.241,1.549,6.336,4.144,8.28l0.483,0.362l0.363-0.482C95.848,57.007,97.801,56.029,99.924,56.029z"/>
</g>
</svg>
