<?xml version="1.0" encoding="iso-8859-1"?>
<!-- Generator: Adobe Illustrator 18.0.0, SVG Export Plug-In . SVG Version: 6.00 Build 0)  -->
<!DOCTYPE svg PUBLIC "-//W3C//DTD SVG 1.1//EN" "http://www.w3.org/Graphics/SVG/1.1/DTD/svg11.dtd">
<svg version="1.1" id="Layer_1" xmlns="http://www.w3.org/2000/svg" xmlns:xlink="http://www.w3.org/1999/xlink" x="0px" y="0px"
	 viewBox="0 0 200 200" style="enable-background:new 0 0 200 200;" xml:space="preserve">
<rect x="234.125" y="71.041" style="fill:#F15A24;" width="3.773" height="3.773"/>
<g>
	<path style="fill:#B3B3B3;" d="M100.025,127.405c-0.983,0-1.813-0.792-1.813-1.728v-3.223l-0.638-0.078
		c-3.107-0.378-6.6-1.521-9.116-2.981l-0.571-0.332l-1.878,2.636c-0.32,0.44-0.843,0.707-1.397,0.707
		c-0.364,0-0.715-0.115-1.014-0.332c-0.373-0.271-0.618-0.671-0.691-1.127c-0.072-0.456,0.037-0.912,0.309-1.285l1.911-2.629
		l-0.486-0.437c-2.424-2.179-4.325-4.793-5.652-7.768l-0.266-0.596l-3.083,1c-0.173,0.058-0.351,0.086-0.535,0.086
		c-0.75,0-1.41-0.48-1.642-1.195c-0.294-0.906,0.203-1.883,1.109-2.178l3.077-1.001l-0.136-0.639
		c-0.337-1.585-0.508-3.202-0.508-4.805c0-1.602,0.171-3.22,0.508-4.807l0.136-0.639l-3.077-0.998
		c-0.906-0.294-1.404-1.272-1.109-2.18c0.232-0.714,0.893-1.194,1.644-1.194c0.18,0,0.36,0.029,0.533,0.085l3.083,1.002l0.266-0.596
		c1.327-2.976,3.227-5.59,5.649-7.768l0.486-0.437l-1.91-2.628c-0.272-0.375-0.383-0.832-0.311-1.288
		c0.072-0.456,0.317-0.856,0.69-1.127c0.297-0.216,0.647-0.329,1.011-0.329c0.55,0,1.071,0.266,1.396,0.712l1.892,2.629l0.569-0.33
		c2.517-1.462,6.01-2.605,9.116-2.981l0.638-0.077v-3.223c0-0.937,0.831-1.728,1.813-1.728s1.813,0.792,1.813,1.728v3.223
		l0.638,0.077c3.087,0.374,6.57,1.516,9.089,2.981l0.576,0.335l1.852-2.643c0.317-0.436,0.841-0.703,1.393-0.703
		c0.366,0,0.717,0.114,1.015,0.33c0.373,0.271,0.618,0.671,0.69,1.127c0.072,0.456-0.038,0.913-0.309,1.286l-1.908,2.629
		l0.485,0.437c2.423,2.182,4.325,4.795,5.651,7.77l0.266,0.596l3.083-1.002c0.174-0.057,0.354-0.085,0.534-0.085
		c0.751,0,1.411,0.48,1.642,1.194c0.295,0.907-0.203,1.884-1.11,2.18l-3.077,0.998l0.137,0.64c0.338,1.581,0.509,3.198,0.509,4.806
		c0,1.606-0.171,3.223-0.509,4.806l-0.136,0.64l3.078,0.999c0.439,0.143,0.796,0.448,1.006,0.86c0.21,0.412,0.247,0.88,0.103,1.319
		c-0.231,0.715-0.892,1.194-1.643,1.194c-0.182,0-0.362-0.028-0.535-0.084l-3.082-1.002l-0.266,0.596
		c-1.328,2.976-3.229,5.59-5.65,7.768l-0.486,0.437l1.91,2.628c0.562,0.772,0.392,1.855-0.378,2.416
		c-0.297,0.215-0.646,0.329-1.008,0.329c-0.552,0-1.058-0.26-1.387-0.712l-1.875-2.63l-0.571,0.332
		c-2.521,1.465-6.004,2.607-9.09,2.981l-0.638,0.077v3.223C101.838,126.613,101.008,127.405,100.025,127.405z M100,79.96
		c-10.774,0-19.54,8.765-19.54,19.54c0,10.774,8.765,19.539,19.54,19.539c10.774,0,19.539-8.765,19.539-19.539
		C119.54,88.726,110.774,79.96,100,79.96z"/>
	<path style="fill:#B3B3B3;" d="M100,175.667c-20.344,0-39.471-7.923-53.859-22.308C31.755,138.971,23.833,119.844,23.833,99.5
		c0-20.344,7.922-39.471,22.308-53.859C60.529,31.255,79.656,23.333,100,23.333c20.344,0,39.471,7.922,53.859,22.308
		c14.385,14.388,22.308,33.515,22.308,53.859c0,13.027-3.349,25.886-9.683,37.187c-0.306,0.545-0.884,0.884-1.51,0.884
		c-0.294,0-0.585-0.076-0.843-0.221c-0.402-0.226-0.693-0.595-0.818-1.039c-0.125-0.445-0.069-0.911,0.157-1.314
		c6.045-10.786,9.241-23.06,9.241-35.497c0-40.092-32.617-72.71-72.709-72.71c-40.092,0-72.71,32.617-72.71,72.71
		c0,40.092,32.617,72.709,72.71,72.709c12.438,0,24.711-3.194,35.493-9.236c0.259-0.145,0.55-0.222,0.843-0.222
		c0.626,0,1.205,0.339,1.511,0.884c0.465,0.831,0.168,1.887-0.663,2.353C125.885,172.32,113.027,175.667,100,175.667z"/>
	<path style="fill:#B3B3B3;" d="M152.636,164.499c-6.817,0-12.362-5.546-12.362-12.363s5.546-12.363,12.362-12.363
		c6.817,0,12.363,5.546,12.363,12.363S159.453,164.499,152.636,164.499z M152.636,143.231c-4.91,0-8.905,3.995-8.905,8.906
		c0,4.91,3.995,8.905,8.905,8.905c4.911,0,8.906-3.995,8.906-8.905C161.542,147.226,157.547,143.231,152.636,143.231z"/>
	<path style="fill:#B3B3B3;" d="M100,151.512c-13.914,0-26.982-5.404-36.796-15.216c-14.663-14.665-19.222-36.61-11.615-55.909
		c0.262-0.666,0.894-1.096,1.609-1.096c0.216,0,0.429,0.041,0.633,0.121c0.887,0.349,1.324,1.356,0.974,2.243
		c-7.104,18.017-2.847,38.505,10.844,52.194c9.159,9.159,21.358,14.205,34.35,14.207c12.99,0,25.189-5.045,34.349-14.207
		c18.94-18.94,18.94-49.759,0-68.701c-9.18-9.181-21.385-14.237-34.365-14.237c-6.102,0-12.083,1.134-17.778,3.372
		c-0.228,0.095-0.455,0.141-0.688,0.141c-0.462,0-0.896-0.18-1.221-0.505c-0.674-0.674-0.675-1.771-0.002-2.445
		c0.169-0.168,0.369-0.299,0.59-0.386c6.116-2.411,12.541-3.633,19.097-3.633c13.903,0,26.977,5.416,36.812,15.249
		c20.286,20.289,20.286,53.302,0,73.591C126.982,146.108,113.914,151.512,100,151.512z"/>
	<path style="fill:#B3B3B3;" d="M64.428,76.291c-3.302,0-6.406-1.286-8.743-3.622c-2.335-2.335-3.62-5.439-3.62-8.741
		c0-3.303,1.286-6.407,3.62-8.743c2.335-2.335,5.44-3.62,8.743-3.62c3.301,0,6.406,1.286,8.741,3.62
		c2.331,2.331,3.615,5.436,3.615,8.742c0,3.306-1.284,6.41-3.615,8.741C70.833,75.004,67.729,76.291,64.428,76.291z M64.428,55.022
		c-2.38,0-4.617,0.926-6.298,2.608c-1.682,1.681-2.608,3.918-2.608,6.298c0,2.379,0.926,4.615,2.608,6.297
		c1.682,1.682,3.919,2.609,6.298,2.609c2.378,0,4.614-0.926,6.297-2.609c3.472-3.472,3.472-9.122,0-12.595
		C69.043,55.948,66.807,55.022,64.428,55.022z"/>
</g>
<g>
</g>
<g>
</g>
<g>
</g>
<g>
</g>
<g>
</g>
<g>
</g>
<g>
</g>
<g>
</g>
<g>
</g>
<g>
</g>
<g>
</g>
<g>
</g>
<g>
</g>
<g>
</g>
<g>
</g>
</svg>
