<?xml version="1.0" encoding="iso-8859-1"?>
<!-- Generator: Adobe Illustrator 18.0.0, SVG Export Plug-In . SVG Version: 6.00 Build 0)  -->
<!DOCTYPE svg PUBLIC "-//W3C//DTD SVG 1.1//EN" "http://www.w3.org/Graphics/SVG/1.1/DTD/svg11.dtd">
<svg version="1.1" id="Layer_1" xmlns="http://www.w3.org/2000/svg" xmlns:xlink="http://www.w3.org/1999/xlink" x="0px" y="0px"
	 viewBox="0 0 200 200" style="enable-background:new 0 0 200 200;" xml:space="preserve">
<rect x="234.125" y="71.041" style="fill:#F15A24;" width="3.773" height="3.773"/>
<g>
	<path style="fill:#B3B3B3;" d="M163.71,64h-5.518l-0.061-0.696c-0.574-8.299-3.755-15.9-9.194-22.148l-0.58-0.62l3.889-3.865
		c0.333-0.332,0.518-0.768,0.517-1.238c0-0.471-0.185-0.912-0.518-1.244c-0.332-0.333-0.778-0.514-1.249-0.514
		c-0.47,0-0.917,0.186-1.249,0.518l-3.889,3.89l-0.666-0.581c-6.259-5.458-13.489-8.645-21.775-9.213L123,28.229v-5.499
		c0-0.975-1.025-1.766-2-1.766c-0.975,0-2,0.792-2,1.766v5.499l-1.113,0.06c-8.285,0.568-16.095,3.755-22.356,9.214l-0.724,0.58
		l-3.918-3.889c-0.332-0.333-0.793-0.518-1.263-0.517c-0.47,0-0.924,0.185-1.256,0.518c-0.333,0.332-0.521,0.779-0.521,1.249
		c0,0.47,0.183,0.916,0.516,1.248l3.865,3.866L74.423,58.366L70.557,54.5c-0.332-0.332-0.778-0.517-1.249-0.516
		c-0.47,0-0.918,0.184-1.25,0.515l0,0c-0.344,0.344-0.517,0.799-0.517,1.25c0,0.452,0.173,0.905,0.517,1.249l3.866,3.866
		L54.118,78.672l-3.867-3.866c-0.332-0.333-0.778-0.518-1.248-0.518c-0.47,0-0.917,0.185-1.249,0.518
		c-0.333,0.332-0.518,0.779-0.517,1.249c0,0.47,0.185,0.917,0.517,1.249l3.888,3.888l-0.58,0.666
		c-5.44,6.251-8.62,13.955-9.194,22.251L41.808,105H36.29c-0.975,0-1.766,0.525-1.767,1.5c0,0.975,0.792,1.5,1.767,1.5h5.518
		l0.061,1.137c0.574,8.297,3.755,16.12,9.194,22.371l0.58,0.73l-10.284,10.316c-3.407,3.406-5.285,7.957-5.284,12.775
		c0,4.817,1.878,9.359,5.284,12.766c3.407,3.407,7.941,5.289,12.76,5.288c4.818,0,9.353-1.876,12.759-5.282l2.557-2.557
		c2.737-2.737,6.378-4.242,10.261-4.242c3.883,0,7.523,1.506,10.261,4.243c2.835,2.836,4.242,6.562,4.242,10.288
		c0,3.708-1.14,7.411-3.962,10.234c-0.333,0.332-0.237,0.779-0.237,1.249V187h-0.525c0.001,1,0.168,1.072,0.499,1.402
		c0.332,0.333,0.77,0.599,1.24,0.599c0.47,0,0.912-0.144,1.245-0.477c3.401-3.401,5.274-7.915,5.273-12.738
		c0-4.824-1.875-9.348-5.277-12.748c-3.401-3.401-7.936-5.271-12.759-5.271c-4.823,0-9.358,1.877-12.759,5.278l-2.558,2.559
		c-2.744,2.741-6.385,4.249-10.262,4.249c-3.878,0-7.518-1.508-10.26-4.249c-2.742-2.743-4.251-6.384-4.251-10.261
		c0-3.879,1.509-7.519,4.251-10.26l10.282-10.285l0.666,0.581c6.261,5.459,13.99,8.647,22.276,9.214l0.917,0.06v5.5
		c0,0.975,1.025,1.766,2,1.766c0.975,0,2-0.792,2-1.766v-5.5l0.613-0.06c8.287-0.567,15.846-3.754,22.105-9.213l0.599-0.581
		l3.855,3.889c0.332,0.333,0.762,0.518,1.232,0.517c0.47,0,0.908-0.184,1.24-0.517c0.333-0.332,0.514-0.779,0.513-1.249
		c0-0.47-0.187-0.917-0.519-1.249l-3.867-3.866l17.806-17.807l3.865,3.866c0.333,0.333,0.779,0.518,1.249,0.518
		c0.47,0,0.916-0.185,1.249-0.518c0.333-0.332,0.518-0.778,0.518-1.248c0-0.47-0.185-0.917-0.518-1.249l-3.866-3.866l17.807-17.807
		l3.866,3.866c0.331,0.332,0.778,0.516,1.249,0.516c0.471,0,0.918-0.184,1.249-0.516c0.333-0.332,0.518-0.779,0.517-1.25
		c0-0.471-0.185-0.918-0.517-1.25l-3.888-3.889l0.58-0.667c5.44-6.249,8.62-13.894,9.194-22.192L158.193,68h5.518
		c0.975,0,1.766-1.025,1.766-2C165.476,65.025,164.685,64,163.71,64z M120.298,31.731c9.199,0.002,17.838,3.58,24.335,10.078
		c6.489,6.489,10.06,15.126,10.061,24.328c0,9.202-3.572,17.838-10.061,24.327l-40.609,40.611
		c-6.499,6.499-15.136,10.076-24.329,10.077c-9.192,0-17.828-3.578-24.327-10.077c-6.489-6.489-10.061-15.126-10.061-24.329
		c0-9.203,3.572-17.84,10.061-24.329l40.609-40.609C102.474,35.311,111.109,31.734,120.298,31.731z"/>
	<circle style="fill:#B3B3B3;" cx="125.42" cy="74.066" r="1.767"/>
	<circle style="fill:#B3B3B3;" cx="125.42" cy="58.719" r="1.766"/>
	<path style="fill:#B3B3B3;" d="M93.478,54.657L60.543,87.593c-5.108,5.107-7.922,11.913-7.922,19.155
		c0,7.242,2.814,14.047,7.922,19.153c5.107,5.107,11.913,7.922,19.153,7.921c7.24,0,14.045-2.814,19.153-7.921l40.609-40.61
		c5.28-5.28,7.921-12.218,7.921-19.153c0-6.935-2.641-13.873-7.921-19.153c-5.106-5.107-11.912-7.921-19.153-7.921
		c-7.241,0-14.047,2.814-19.152,7.92c-0.333,0.333-0.518,0.78-0.518,1.25c0,0.47,0.185,0.917,0.519,1.25l0,0
		c0.331,0.332,0.777,0.517,1.247,0.516c0.47,0,0.917-0.185,1.25-0.517c4.442-4.443,10.354-6.888,16.654-6.889
		c6.301,0,12.212,2.446,16.654,6.889c4.443,4.442,6.888,10.354,6.889,16.655c0,6.3-2.446,12.212-6.889,16.656l-40.607,40.608
		c-4.442,4.443-10.354,6.888-16.655,6.888c-6.303,0-12.215-2.446-16.655-6.888c-4.442-4.442-6.887-10.354-6.887-16.655
		c0-6.3,2.445-12.211,6.887-16.654l32.935-32.936c0.344-0.345,0.517-0.798,0.517-1.25c0-0.451-0.172-0.905-0.515-1.249
		c-0.333-0.333-0.78-0.518-1.25-0.517C94.258,54.14,93.81,54.324,93.478,54.657z"/>
	<circle style="fill:#B3B3B3;" cx="74.58" cy="98.818" r="1.766"/>
	<path style="fill:#B3B3B3;" d="M99.206,87.669c0.118-0.432,0.326-0.817,0.765-1.258c0.425-0.422,0.784-0.629,1.207-0.75
		c0.423-0.121,0.923-0.148,1.59-0.167c1.438-0.04,3.348-0.105,5.187-1.95c1.851-1.844,1.913-3.752,1.95-5.189
		c0.018-0.647,0.046-1.147,0.167-1.575c0.122-0.428,0.33-0.797,0.751-1.219c0.333-0.333,0.518-0.78,0.518-1.25
		c0-0.47-0.185-0.916-0.518-1.248c-0.332-0.333-0.779-0.518-1.249-0.518c-0.47,0-0.916,0.185-1.248,0.518
		c-1.85,1.843-1.913,3.751-1.95,5.189c-0.018,0.647-0.046,1.147-0.167,1.575c-0.122,0.428-0.33,0.797-0.751,1.219
		c-0.424,0.422-0.784,0.628-1.206,0.75c-0.423,0.121-0.924,0.148-1.591,0.167c-1.438,0.039-3.347,0.104-5.186,1.952
		c-1.85,1.843-1.913,3.752-1.95,5.189c-0.018,0.646-0.046,1.145-0.167,1.573c-0.122,0.428-0.331,0.798-0.752,1.222
		c-0.422,0.419-0.792,0.627-1.22,0.749c-0.428,0.121-0.929,0.149-1.576,0.167c-1.435,0.038-3.343,0.1-5.187,1.95
		c-0.344,0.344-0.517,0.798-0.516,1.249c0,0.451,0.172,0.904,0.516,1.248c0.333,0.333,0.78,0.518,1.251,0.518
		c0.47,0,0.916-0.185,1.249-0.518c0.422-0.42,0.792-0.628,1.22-0.75c0.428-0.121,0.929-0.149,1.576-0.167
		c1.437-0.038,3.345-0.101,5.187-1.95c1.851-1.844,1.913-3.753,1.95-5.192v0.001C99.071,88.591,99.089,88.101,99.206,87.669z"/>
</g>
<g>
</g>
<g>
</g>
<g>
</g>
<g>
</g>
<g>
</g>
<g>
</g>
<g>
</g>
<g>
</g>
<g>
</g>
<g>
</g>
<g>
</g>
<g>
</g>
<g>
</g>
<g>
</g>
<g>
</g>
</svg>
