<?xml version="1.0" encoding="iso-8859-1"?>
<!-- Generator: Adobe Illustrator 18.0.0, SVG Export Plug-In . SVG Version: 6.00 Build 0)  -->
<!DOCTYPE svg PUBLIC "-//W3C//DTD SVG 1.1//EN" "http://www.w3.org/Graphics/SVG/1.1/DTD/svg11.dtd">
<svg version="1.1" id="Layer_1" xmlns="http://www.w3.org/2000/svg" xmlns:xlink="http://www.w3.org/1999/xlink" x="0px" y="0px"
	 viewBox="0 0 200 200" style="enable-background:new 0 0 200 200;" xml:space="preserve">
<rect x="234.125" y="71.041" style="fill:#F15A24;" width="3.773" height="3.773"/>
<g>
	<path style="fill:#B3B3B3;" d="M78.423,176.271c-4.408,0-7.993-3.587-7.993-7.996c0-2.158,0.858-4.186,2.416-5.709l0.651-0.637
		l-0.652-0.637c-1.557-1.521-2.415-3.548-2.415-5.709c0-2.16,0.858-4.188,2.415-5.708l0.652-0.637l-0.652-0.637
		c-1.557-1.521-2.415-3.549-2.415-5.709c0-3.046,1.723-5.787,4.495-7.153l0.54-0.266l-0.045-0.6
		c-0.413-5.494-2.893-10.757-6.981-14.819c-9.994-9.91-14.677-23.66-12.85-37.724c2.611-20.097,19.141-36.304,39.304-38.537
		c1.724-0.191,3.467-0.288,5.18-0.288c11.153,0,21.458,3.95,29.802,11.423c9.486,8.494,14.927,20.663,14.927,33.386
		c0,12.109-4.778,23.456-13.453,31.952c-3.953,3.872-6.358,9.061-6.771,14.611l-0.045,0.6l0.54,0.266
		c2.774,1.364,4.497,4.104,4.497,7.15c0,2.159-0.859,4.187-2.418,5.709l-0.652,0.637l0.652,0.637
		c1.559,1.523,2.418,3.55,2.418,5.708c0,2.159-0.859,4.187-2.418,5.709l-0.652,0.637l0.651,0.637
		c1.56,1.525,2.418,3.553,2.418,5.709c0,4.409-3.586,7.996-7.993,7.996H78.423z M78.423,163.577c-2.59,0-4.698,2.108-4.698,4.699
		c0,2.591,2.108,4.699,4.698,4.699h43.154c2.591,0,4.699-2.108,4.699-4.699c0-2.587-2.107-4.695-4.698-4.699H78.423z
		 M78.423,150.885c-2.59,0-4.698,2.108-4.698,4.698c0,2.591,2.108,4.699,4.698,4.699h43.154c2.591,0,4.699-2.108,4.699-4.699
		c0-2.59-2.108-4.698-4.699-4.698H78.423z M78.423,138.193c-2.59,0-4.698,2.108-4.698,4.699c0,2.59,2.108,4.698,4.698,4.698h43.154
		c2.591,0,4.699-2.108,4.699-4.698c0-2.591-2.108-4.699-4.699-4.699H78.423z M100.05,46.804c-1.586,0-3.198,0.09-4.793,0.267
		c-18.672,2.067-33.982,17.073-36.403,35.683c-1.691,13.038,2.649,25.781,11.907,34.963c4.594,4.562,7.335,10.225,7.924,16.376
		l0.077,0.806h42.475l0.078-0.805c0.591-6.136,3.336-11.884,7.728-16.183c8.036-7.865,12.462-18.377,12.462-29.596
		c0-11.786-5.041-23.06-13.831-30.93C119.947,50.462,110.395,46.804,100.05,46.804z"/>
	<path style="fill:#B3B3B3;" d="M78.423,176.271v-0.121c-2.171,0-4.138-0.883-5.564-2.309c-1.426-1.426-2.308-3.395-2.309-5.566
		c0-2.126,0.844-4.121,2.379-5.623l0.74-0.723l-0.74-0.723c-1.535-1.499-2.379-3.494-2.379-5.623c0-2.128,0.844-4.123,2.379-5.622
		l0.741-0.723l-0.741-0.723c-1.535-1.499-2.379-3.495-2.379-5.623c0-3,1.695-5.698,4.428-7.045l0.54-0.266l0.073-0.036l-0.051-0.681
		c-0.416-5.525-2.908-10.814-7.016-14.895c-8.55-8.478-13.202-19.773-13.202-31.668c0-1.972,0.128-3.961,0.387-5.955
		c2.603-20.04,19.091-36.207,39.198-38.432c1.72-0.191,3.458-0.288,5.166-0.288c11.124,0,21.399,3.939,29.722,11.392
		c9.461,8.471,14.887,20.607,14.887,33.296c0,12.077-4.764,23.392-13.417,31.866c-3.974,3.892-6.391,9.109-6.807,14.688l-0.045,0.6
		l-0.006,0.081l0.613,0.302c2.734,1.345,4.43,4.041,4.43,7.042c0,2.127-0.845,4.122-2.382,5.623l-0.741,0.723l0.741,0.723
		c1.537,1.501,2.381,3.496,2.382,5.622c0,2.127-0.845,4.123-2.382,5.623l-0.74,0.723l0.74,0.723
		c1.537,1.504,2.382,3.499,2.382,5.623c0,2.171-0.883,4.139-2.309,5.566c-1.426,1.426-3.393,2.309-5.564,2.309H78.423V176.271v0.121
		h43.154c4.474,0,8.114-3.641,8.114-8.116c0-2.189-0.872-4.249-2.455-5.796l-0.563-0.551l0.563-0.55
		c1.582-1.544,2.454-3.604,2.454-5.796c0-2.19-0.872-4.25-2.454-5.795l-0.564-0.551l0.564-0.551
		c1.582-1.544,2.454-3.605,2.454-5.796c0-3.092-1.75-5.875-4.565-7.258l-0.466-0.23l0.039-0.518
		c0.412-5.521,2.804-10.682,6.736-14.534c8.698-8.518,13.489-19.897,13.489-32.038c0-12.757-5.456-24.958-14.967-33.475
		c-8.365-7.492-18.701-11.454-29.883-11.454c-1.717,0-3.464,0.097-5.193,0.289c-20.22,2.24-36.792,18.487-39.411,38.641
		c-0.261,2.005-0.389,4.004-0.389,5.987c0,11.958,4.678,23.316,13.274,31.839c4.069,4.042,6.535,9.278,6.946,14.742l0.039,0.519
		l-0.466,0.23c-2.813,1.385-4.563,4.169-4.563,7.261c0,2.193,0.871,4.253,2.452,5.796l0.564,0.551l-0.564,0.551
		c-1.58,1.543-2.452,3.603-2.452,5.795c0,2.193,0.871,4.253,2.452,5.796l0.563,0.55l-0.563,0.551
		c-1.58,1.545-2.452,3.605-2.452,5.796c0,4.476,3.639,8.116,8.114,8.116V176.271z M78.423,163.577v-0.121
		c-2.657,0-4.819,2.162-4.819,4.819c0,2.658,2.162,4.819,4.819,4.819h43.154c2.658,0,4.819-2.162,4.819-4.819
		c0-2.654-2.161-4.815-4.818-4.819H78.423V163.577v0.121h43.155c2.523,0.004,4.577,2.058,4.577,4.578
		c0,1.262-0.513,2.406-1.342,3.236c-0.829,0.829-1.973,1.342-3.236,1.342H78.423c-1.262,0-2.406-0.513-3.235-1.342
		c-0.829-0.829-1.342-1.973-1.342-3.236c0-1.262,0.513-2.406,1.342-3.236c0.829-0.829,1.973-1.342,3.235-1.342V163.577z
		 M78.423,150.885v-0.121c-2.657,0-4.819,2.162-4.819,4.819c0,2.658,2.162,4.819,4.819,4.819h43.154
		c2.658,0,4.819-2.162,4.819-4.819c0-2.657-2.162-4.819-4.819-4.819H78.423V150.885v0.121h43.154c1.262,0,2.406,0.513,3.236,1.342
		c0.829,0.829,1.342,1.973,1.342,3.235c0,1.262-0.513,2.406-1.342,3.236c-0.829,0.829-1.973,1.342-3.236,1.342H78.423
		c-1.262,0-2.406-0.513-3.235-1.342c-0.829-0.829-1.342-1.973-1.342-3.236c0-1.262,0.513-2.406,1.342-3.235
		c0.829-0.829,1.973-1.342,3.235-1.342V150.885z M78.423,138.193v-0.121c-2.657,0-4.819,2.162-4.819,4.819
		c0,2.657,2.162,4.819,4.819,4.819h43.154c2.658,0,4.819-2.162,4.819-4.819c0-2.658-2.162-4.819-4.819-4.819H78.423V138.193v0.121
		h43.154c1.262,0,2.406,0.513,3.236,1.342c0.829,0.829,1.342,1.973,1.342,3.236c0,1.262-0.513,2.406-1.342,3.235
		c-0.829,0.829-1.973,1.342-3.236,1.342H78.423c-1.262,0-2.406-0.513-3.235-1.342c-0.829-0.829-1.342-1.973-1.342-3.235
		c0-1.262,0.513-2.406,1.342-3.236c0.829-0.829,1.973-1.342,3.235-1.342V138.193z M100.05,46.804v-0.121
		c-1.59,0-3.207,0.09-4.806,0.267c-18.729,2.074-34.08,17.121-36.509,35.787c-0.241,1.857-0.36,3.709-0.36,5.545
		c0,11.089,4.336,21.619,12.302,29.519c4.576,4.544,7.302,10.179,7.889,16.302l0.077,0.806l0.01,0.109h42.695l0.088-0.914
		c0.589-6.108,3.32-11.829,7.692-16.109c8.059-7.887,12.499-18.431,12.498-29.682c0-11.821-5.056-23.127-13.871-31.02
		c-7.747-6.94-17.331-10.611-27.705-10.61V46.804v0.121c10.317,0,19.838,3.647,27.544,10.549
		c8.764,7.847,13.791,19.089,13.791,30.84c0,11.188-4.412,21.666-12.426,29.51c-4.412,4.32-7.169,10.094-7.763,16.258l-0.067,0.696
		H78.872l-0.067-0.697c-0.592-6.18-3.346-11.87-7.959-16.451c-7.92-7.855-12.23-18.322-12.23-29.347
		c0-1.826,0.118-3.667,0.358-5.514C61.386,64.216,76.654,49.25,95.27,47.191c1.59-0.176,3.198-0.266,4.779-0.266V46.804z"/>
	<path style="fill:#B3B3B3;" d="M160.923,107.732c-5.108,0-9.264-4.156-9.264-9.264c0-4.168,2.837-7.834,6.9-8.914l0.687-0.183
		l-0.026-0.71c-1.173-32.009-27.185-57.083-59.219-57.083c-32.037,0-58.048,25.074-59.218,57.083l-0.026,0.71l0.687,0.183
		c4.061,1.08,6.897,4.746,6.897,8.914c0,5.108-4.156,9.264-9.264,9.264c-5.108,0-9.263-4.156-9.263-9.264
		c0-4.221,2.878-7.901,7-8.947l0.648-0.164l0.023-0.668c0.927-27.051,19.026-50.32,45.037-57.903l-0.249-1.745h-39.01v5.075H29.814
		V20.667h13.449v5.078h113.475v-5.078h13.448v13.449h-13.448V29.04H117.73l-0.249,1.745c26.013,7.583,44.111,30.853,45.035,57.903
		l0.023,0.668l0.648,0.164c4.121,1.046,7,4.725,7,8.947C170.186,103.576,166.031,107.732,160.923,107.732z M160.923,92.502
		c-3.29,0-5.966,2.676-5.966,5.966c0,3.291,2.676,5.969,5.966,5.969c3.291,0,5.969-2.677,5.969-5.969
		C166.892,95.178,164.214,92.502,160.923,92.502z M39.077,92.502c-3.291,0-5.968,2.676-5.968,5.966c0,3.291,2.677,5.969,5.968,5.969
		c3.29,0,5.966-2.677,5.966-5.969C45.043,95.178,42.367,92.502,39.077,92.502z M160.032,30.821h6.859v-6.857h-6.859V30.821z
		 M33.109,30.821h6.859v-6.857h-6.859V30.821z"/>
	<path style="fill:#B3B3B3;" d="M160.923,107.732v-0.121c-2.521,0-4.806-1.025-6.462-2.681c-1.656-1.656-2.681-3.941-2.681-6.462
		c0-4.113,2.8-7.731,6.811-8.797l0.687-0.183l0.093-0.025l-0.029-0.807c-1.175-32.073-27.241-57.2-59.339-57.199
		c-32.101,0-58.167,25.126-59.339,57.199l-0.026,0.711l-0.003,0.096l0.78,0.207c4.009,1.066,6.808,4.685,6.808,8.797
		c0,2.521-1.025,4.806-2.681,6.462c-1.656,1.656-3.941,2.681-6.462,2.681c-2.521,0-4.806-1.025-6.462-2.681
		c-1.656-1.656-2.681-3.941-2.681-6.462c0-4.166,2.84-7.797,6.909-8.83l0.648-0.164l0.088-0.022l0.026-0.759
		c0.925-26.999,18.989-50.223,44.95-57.791l0.1-0.029l-0.279-1.952H43.142v5.075H29.935V20.788h13.207l0,5.078h113.717v-5.078
		h13.207v13.207h-13.207V28.92h-39.234l-0.279,1.952l0.1,0.029c25.963,7.569,44.026,30.793,44.948,57.791l0.023,0.668l0.003,0.09
		l0.736,0.187c4.068,1.033,6.909,4.664,6.909,8.83c0,2.521-1.025,4.806-2.681,6.462c-1.656,1.656-3.941,2.681-6.462,2.681V107.732
		v0.121c5.175,0,9.384-4.21,9.384-9.385c0-4.277-2.916-8.004-7.091-9.064l-0.56-0.142l-0.02-0.578
		c-0.926-27.102-19.059-50.417-45.122-58.014l-0.034,0.116l0.119,0.017l0.234-1.642h38.783v5.075h13.689v-13.69h-13.689v5.078
		H43.383l0-5.078h-13.69v13.69h13.69v-5.075h38.785l0.234,1.642l0.119-0.017l-0.034-0.116
		c-26.061,7.597-44.196,30.911-45.124,58.014l-0.02,0.578l-0.56,0.142c-4.174,1.059-7.091,4.787-7.091,9.064
		c0,5.175,4.209,9.385,9.384,9.385c5.175,0,9.385-4.21,9.385-9.385c0-4.223-2.873-7.936-6.987-9.03l-0.594-0.158l0.022-0.614
		c1.168-31.945,27.125-56.967,59.098-56.967c31.97,0,57.928,25.022,59.098,56.967l0.022,0.614l-0.594,0.158
		c-4.115,1.094-6.99,4.806-6.99,9.03c0,5.175,4.21,9.385,9.385,9.385V107.732z M160.923,92.502v-0.121
		c-3.356,0-6.086,2.73-6.086,6.086c0,3.358,2.73,6.089,6.086,6.089c3.358,0,6.089-2.731,6.089-6.089
		c0-3.357-2.731-6.086-6.089-6.086V92.502v0.121c1.613,0,3.074,0.655,4.133,1.714c1.059,1.059,1.715,2.519,1.715,4.131
		c0,1.613-0.656,3.074-1.715,4.133c-1.059,1.059-2.521,1.715-4.133,1.715c-1.612,0-3.072-0.656-4.131-1.715
		c-1.059-1.059-1.714-2.521-1.714-4.133c0-1.612,0.655-3.072,1.714-4.131c1.059-1.059,2.519-1.714,4.131-1.714V92.502z
		 M39.077,92.502v-0.121c-3.358,0-6.089,2.73-6.089,6.086c0,3.358,2.731,6.089,6.089,6.089c3.357,0,6.087-2.731,6.087-6.089
		c0-3.356-2.73-6.086-6.087-6.086V92.502v0.121c1.612,0,3.072,0.655,4.131,1.714c1.059,1.059,1.714,2.519,1.714,4.131
		c0,1.613-0.655,3.074-1.714,4.133c-1.059,1.059-2.52,1.715-4.131,1.715c-1.612,0-3.074-0.656-4.133-1.715
		c-1.059-1.059-1.715-2.521-1.715-4.133c0-1.612,0.656-3.072,1.715-4.131c1.059-1.059,2.521-1.714,4.133-1.714V92.502z
		 M160.032,30.821v0.121h6.98v-7.098h-7.101v7.098h0.121V30.821h0.121v-6.736h6.618V30.7l-6.739,0V30.821h0.121H160.032z
		 M33.109,30.821v0.121h6.979v-7.098h-7.1v7.098h0.121V30.821h0.121v-6.736l6.618,0V30.7h-6.738V30.821h0.121H33.109z"/>
	<path style="fill:#B3B3B3;" d="M115.231,110.272c-3.708,0-6.725-3.017-6.725-6.726v-3.428H91.495v3.428
		c0,3.709-3.017,6.726-6.725,6.726c-3.709,0-6.726-3.017-6.726-6.726c0-3.708,3.017-6.725,6.726-6.725h3.428V79.81h-3.428
		c-3.709,0-6.726-3.017-6.726-6.725c0-3.709,3.017-6.726,6.726-6.726c3.708,0,6.725,3.017,6.725,6.726v3.428h17.011v-3.428
		c0-3.709,3.017-6.726,6.725-6.726c3.709,0,6.726,3.017,6.726,6.726c0,3.708-3.017,6.725-6.726,6.725H111.8v17.011h3.431
		c3.709,0,6.726,3.017,6.726,6.725C121.957,107.255,118.94,110.272,115.231,110.272z M111.8,103.546c0,1.89,1.539,3.428,3.431,3.428
		c1.89,0,3.428-1.538,3.428-3.428c0-1.89-1.538-3.428-3.428-3.428H111.8V103.546z M84.769,100.118c-1.89,0-3.428,1.538-3.428,3.428
		c0,1.89,1.538,3.428,3.428,3.428c1.892,0,3.431-1.538,3.431-3.428v-3.428H84.769z M91.495,96.821h17.011V79.81H91.495V96.821z
		 M115.231,69.656c-1.89,0-3.428,1.538-3.428,3.428v3.428h3.428c1.89,0,3.428-1.538,3.428-3.428
		C118.659,71.194,117.121,69.656,115.231,69.656z M84.769,69.656c-1.89,0-3.428,1.538-3.428,3.428c0,1.89,1.538,3.428,3.428,3.428
		H88.2v-3.428C88.2,71.194,86.661,69.656,84.769,69.656z"/>
	<path style="fill:#B3B3B3;" d="M115.231,110.272v-0.121c-1.821,0-3.472-0.741-4.668-1.937c-1.196-1.196-1.937-2.847-1.937-4.668
		v-3.549H91.374v3.549c0,1.821-0.741,3.472-1.937,4.668c-1.196,1.196-2.847,1.937-4.668,1.937c-1.821,0-3.472-0.741-4.668-1.937
		c-1.196-1.196-1.937-2.847-1.937-4.668c0-1.821,0.741-3.472,1.937-4.668c1.196-1.196,2.847-1.937,4.668-1.937h3.549V79.689h-3.549
		c-1.821,0-3.472-0.741-4.668-1.937c-1.196-1.196-1.937-2.847-1.937-4.668c0-1.821,0.741-3.472,1.937-4.668
		c1.196-1.196,2.847-1.937,4.668-1.937c1.821,0,3.472,0.741,4.668,1.937c1.196,1.196,1.937,2.847,1.937,4.668v3.549h17.252v-3.549
		c0-1.821,0.741-3.472,1.937-4.668c1.196-1.196,2.847-1.937,4.668-1.937c1.821,0,3.472,0.741,4.668,1.937
		c1.196,1.196,1.937,2.847,1.937,4.668c0,1.821-0.741,3.472-1.937,4.668c-1.196,1.196-2.847,1.937-4.668,1.937h-3.551v17.252h3.551
		c1.821,0,3.472,0.741,4.668,1.937c1.196,1.196,1.937,2.847,1.937,4.668c0,1.821-0.741,3.472-1.937,4.668
		c-1.196,1.196-2.847,1.937-4.668,1.937V110.272v0.121c3.776,0,6.846-3.071,6.846-6.846c0-3.775-3.071-6.846-6.846-6.846h-3.31
		V79.93l3.31,0c3.776,0,6.846-3.071,6.846-6.846c0-3.776-3.071-6.846-6.846-6.846c-3.775,0-6.846,3.071-6.846,6.846v3.307h-16.77
		l0-3.307c0-3.776-3.071-6.846-6.846-6.846c-3.776,0-6.846,3.071-6.846,6.846c0,3.775,3.071,6.846,6.846,6.846h3.308V96.7l-3.308,0
		c-3.776,0-6.846,3.071-6.846,6.846c0,3.776,3.071,6.846,6.846,6.846c3.775,0,6.846-3.071,6.846-6.846v-3.307h16.77v3.307
		c0,3.776,3.071,6.846,6.846,6.846V110.272z M111.8,103.546h-0.121c0,1.957,1.593,3.549,3.551,3.549
		c1.957,0,3.549-1.592,3.549-3.549c0-1.957-1.592-3.548-3.549-3.549h-3.551v3.549H111.8h0.121v-3.307h3.31
		c1.824,0.003,3.304,1.484,3.308,3.307c-0.003,1.824-1.484,3.304-3.308,3.308c-1.825-0.003-3.307-1.484-3.31-3.308H111.8z
		 M84.769,100.118v-0.121c-1.957,0-3.549,1.592-3.549,3.549c0,1.957,1.592,3.549,3.549,3.549c1.959,0,3.551-1.592,3.552-3.549
		v-3.549h-3.552V100.118v0.121h3.31v3.307c-0.003,1.824-1.485,3.304-3.31,3.308c-1.824-0.003-3.304-1.484-3.308-3.308
		c0.003-1.823,1.484-3.304,3.308-3.307V100.118z M91.495,96.821v0.121h17.131V79.689H91.374v17.252h0.121V96.821h0.121V79.93h16.77
		V96.7l-16.89,0V96.821h0.121H91.495z M115.231,69.656v-0.121c-1.957,0-3.548,1.592-3.549,3.549v3.549h3.549
		c1.957,0,3.549-1.592,3.549-3.549c0-1.957-1.592-3.549-3.549-3.549V69.656v0.121c1.824,0.003,3.304,1.484,3.308,3.308
		c-0.003,1.823-1.484,3.304-3.308,3.307h-3.307v-3.307c0.003-1.824,1.484-3.304,3.307-3.308V69.656z M84.769,69.656v-0.121
		c-1.957,0-3.549,1.592-3.549,3.549c0,1.957,1.592,3.548,3.549,3.549h3.552v-3.549c0-1.957-1.593-3.549-3.552-3.549V69.656v0.121
		c1.825,0.003,3.307,1.484,3.31,3.308v3.307h-3.31c-1.824-0.003-3.304-1.484-3.308-3.307c0.003-1.824,1.484-3.304,3.308-3.308
		V69.656z"/>
</g>
<g>
</g>
<g>
</g>
<g>
</g>
<g>
</g>
<g>
</g>
<g>
</g>
<g>
</g>
<g>
</g>
<g>
</g>
<g>
</g>
<g>
</g>
<g>
</g>
<g>
</g>
<g>
</g>
<g>
</g>
</svg>
