<?xml version="1.0" encoding="iso-8859-1"?>
<!-- Generator: Adobe Illustrator 18.0.0, SVG Export Plug-In . SVG Version: 6.00 Build 0)  -->
<!DOCTYPE svg PUBLIC "-//W3C//DTD SVG 1.1//EN" "http://www.w3.org/Graphics/SVG/1.1/DTD/svg11.dtd">
<svg version="1.1" id="Layer_1" xmlns="http://www.w3.org/2000/svg" xmlns:xlink="http://www.w3.org/1999/xlink" x="0px" y="0px"
	 viewBox="0 0 200 200" style="enable-background:new 0 0 200 200;" xml:space="preserve">
<rect x="234.125" y="71.041" style="fill:#F15A24;" width="3.773" height="3.773"/>
<g>
	<g>
		<path style="fill:#B3B3B3;" d="M88.023,141.699c-3.182,0-5.77-2.588-5.77-5.77c0-1.241,0.41-2.436,1.185-3.455l0.406-0.534
			l-0.406-0.534c-0.775-1.02-1.185-2.216-1.185-3.459c0-1.803,0.842-3.475,2.311-4.587l0.35-0.265v-3.956l-0.441-0.255
			c-9.576-5.525-15.525-15.819-15.525-26.864c0-17.123,13.93-31.053,31.053-31.053c17.122,0,31.053,13.928,31.053,31.047
			c0,11.215-5.804,21.259-15.527,26.867l-0.442,0.255v3.956l0.35,0.265c1.47,1.113,2.314,2.786,2.314,4.587
			c0,1.242-0.41,2.438-1.185,3.458l-0.404,0.532l0.403,0.534c0.776,1.028,1.186,2.224,1.186,3.461c0,3.181-2.589,5.77-5.773,5.77
			H88.023z M88.025,133.715c-1.221,0-2.214,0.993-2.214,2.214c0,1.22,0.993,2.211,2.214,2.211h23.951
			c0.592,0,1.148-0.232,1.568-0.653c0.417-0.419,0.646-0.974,0.644-1.562c0-1.218-0.992-2.211-2.211-2.211H88.025z M88.025,125.733
			c-1.221,0-2.214,0.992-2.214,2.212c0,1.221,0.993,2.215,2.214,2.215h23.951c1.22,0,2.211-0.994,2.211-2.215
			c0-1.22-0.992-2.212-2.211-2.212H88.025z M99.999,82.254c5.383,0,9.762,4.379,9.762,9.763c0,4.423-3.011,8.294-7.324,9.414
			l-0.661,0.172v20.572h9.75v-5.194l0.968-0.498c9.251-4.73,14.999-14.105,14.999-24.466c0-15.16-12.334-27.494-27.494-27.494
			c-15.161,0-27.495,12.334-27.495,27.494c0,10.359,5.748,19.735,15.001,24.469l0.966,0.495v5.193h9.75v-20.572l-0.661-0.172
			c-4.312-1.12-7.323-4.991-7.323-9.414C90.237,86.634,94.616,82.254,99.999,82.254z M99.999,85.812
			c-3.421,0-6.204,2.785-6.204,6.207c0,3.421,2.783,6.204,6.204,6.204c3.422,0,6.207-2.783,6.207-6.204
			C106.206,88.597,103.422,85.812,99.999,85.812z"/>
		<path style="fill:#B3B3B3;" d="M133.501,181.633c-5.347,0-11.007-0.644-16.821-1.915c-8.321-1.818-16.842-4.916-25.325-9.208
			l-0.311-0.158l-0.335,0.098c-2.113,0.616-3.973,1.098-5.688,1.472c-5.251,1.148-10.358,1.729-15.177,1.729
			c-12.875,0-23.798-4.117-31.587-11.907c-11.837-11.834-15.007-30.947-8.698-52.438l0.099-0.336l-0.158-0.312
			c-4.288-8.462-7.39-16.987-9.219-25.339c-4.691-21.444-0.693-39.834,11.255-51.783c8.616-8.616,20.702-13.17,34.951-13.17
			c5.356,0,11.018,0.645,16.829,1.918c8.338,1.824,16.858,4.923,25.323,9.211l0.311,0.158l0.335-0.098
			c2.12-0.617,3.982-1.1,5.692-1.476c5.242-1.147,10.351-1.728,15.182-1.728c12.872,0,23.793,4.117,31.584,11.905
			c11.813,11.81,14.983,30.922,8.697,52.436l-0.098,0.335l0.158,0.311c4.294,8.479,7.397,17.005,9.222,25.343
			c4.688,21.448,0.689,39.837-11.261,51.779C159.848,177.079,147.759,181.633,133.501,181.633z M139.831,140.221
			c-12.591,12.546-27.101,22.168-41.96,27.825l-1.991,0.758l1.944,0.872c6.564,2.946,13.164,5.157,19.618,6.571
			c5.553,1.215,10.951,1.831,16.044,1.831c13.306,0,24.533-4.193,32.466-12.128c11.061-11.064,14.716-28.289,10.294-48.505
			c-1.413-6.462-3.627-13.071-6.579-19.644l-0.871-1.939l-0.759,1.986c-3.157,8.261-7.588,16.49-13.169,24.459l-0.395,0.564
			l0.451,0.52c1.769,2.042,2.743,4.603,2.743,7.212c0,6.117-4.977,11.094-11.094,11.094c-1.979,0-3.884-0.541-5.664-1.609
			l-0.59-0.354L139.831,140.221z M31.574,115.709c-4.004,18.128-0.738,33.584,9.197,43.521c7.116,7.117,17.206,10.879,29.177,10.879
			c4.591,0,9.435-0.555,14.398-1.649l2.201-0.485l-1.945-1.138c-10.305-6.033-20.04-13.603-28.936-22.501
			c-8.881-8.878-16.44-18.596-22.469-28.882l-1.138-1.942L31.574,115.709z M38.343,96.335c-1.951,4.125-3.556,8.134-4.772,11.918
			l-0.114,0.354l0.174,0.329c6.208,11.737,14.467,22.801,24.549,32.883c10.085,10.085,21.162,18.35,32.923,24.568l0.328,0.173
			l0.353-0.113c15.795-5.057,31.925-15.227,45.419-28.637l0.513-0.51l-0.399-0.603c-1.204-1.818-1.839-3.924-1.839-6.089
			c0-6.117,4.977-11.094,11.094-11.094c1.515,0,2.995,0.31,4.398,0.922l0.663,0.289l0.414-0.592
			c6.486-9.28,11.33-18.82,14.397-28.356l0.114-0.354l-0.174-0.329c-6.211-11.751-14.476-22.825-24.566-32.914
			c-10.094-10.094-21.168-18.359-32.914-24.564l-0.328-0.173l-0.353,0.113c-15.937,5.1-32.18,15.374-45.736,28.93
			c-4.264,4.267-8.301,8.923-11.998,13.839l-0.463,0.616l0.547,0.542c2.13,2.111,3.302,4.91,3.302,7.881
			c0,6.117-4.976,11.095-11.093,11.095c-1.044,0-2.146-0.191-3.37-0.585l-0.738-0.238L38.343,96.335z M146.572,123.069
			c-4.155,0-7.536,3.38-7.536,7.536c0,4.155,3.38,7.536,7.536,7.536s7.535-3.38,7.535-7.536
			C154.107,126.45,150.727,123.069,146.572,123.069z M66.519,21.925c-13.309,0-24.536,4.194-32.47,12.127
			C22.988,45.116,19.331,62.343,23.753,82.559c1.411,6.452,3.625,13.06,6.582,19.64l0.871,1.939l0.759-1.986
			c0.926-2.424,2.027-4.963,3.366-7.763l0.276-0.577l-0.463-0.442c-2.227-2.127-3.454-4.971-3.454-8.007
			c0-6.115,4.975-11.091,11.092-11.091c1.137,0,2.301,0.209,3.559,0.64l0.609,0.208l0.385-0.516
			c3.878-5.204,8.129-10.127,12.636-14.634c12.637-12.637,27.215-22.325,42.159-28.015l1.99-0.758l-1.943-0.872
			c-6.565-2.948-13.165-5.157-19.619-6.568C76.998,22.541,71.603,21.925,66.519,21.925z M42.784,77.828
			c-4.157,0-7.539,3.381-7.539,7.535c0,4.157,3.382,7.539,7.539,7.539c4.155,0,7.536-3.382,7.536-7.539
			C50.32,81.209,46.939,77.828,42.784,77.828z M130.051,29.899c-4.588,0-9.43,0.554-14.391,1.647l-2.201,0.485l1.945,1.139
			c10.308,6.036,20.041,13.606,28.928,22.498c8.893,8.889,16.461,18.622,22.496,28.928l1.138,1.944l0.485-2.2
			c4.003-18.141,0.728-33.612-9.224-43.564C152.112,33.66,142.024,29.899,130.051,29.899z"/>
	</g>
</g>
<g>
</g>
<g>
</g>
<g>
</g>
<g>
</g>
<g>
</g>
<g>
</g>
<g>
</g>
<g>
</g>
<g>
</g>
<g>
</g>
<g>
</g>
<g>
</g>
<g>
</g>
<g>
</g>
<g>
</g>
</svg>
