<?xml version="1.0" encoding="iso-8859-1"?>
<!-- Generator: Adobe Illustrator 18.0.0, SVG Export Plug-In . SVG Version: 6.00 Build 0)  -->
<!DOCTYPE svg PUBLIC "-//W3C//DTD SVG 1.1//EN" "http://www.w3.org/Graphics/SVG/1.1/DTD/svg11.dtd">
<svg version="1.1" id="Layer_1" xmlns="http://www.w3.org/2000/svg" xmlns:xlink="http://www.w3.org/1999/xlink" x="0px" y="0px"
	 viewBox="0 0 200 200" style="enable-background:new 0 0 200 200;" xml:space="preserve">
<rect x="234.125" y="71.041" style="fill:#F15A24;" width="3.773" height="3.773"/>
<g>
	<path style="fill:#B3B3B3;" d="M49.331,123.856c-0.65-2.505-0.98-5.005-0.98-7.428c0-16.19,13.172-29.361,29.362-29.361
		c2.427,0,4.925,0.331,7.422,0.985l2.934,0.765l-37.972,37.969L49.331,123.856z M77.713,90.541
		c-14.274,0-25.888,11.613-25.888,25.887c0,0.613,0.024,1.24,0.071,1.863l0.126,1.659l29.214-29.213l-1.66-0.125
		C78.953,90.565,78.326,90.541,77.713,90.541z"/>
	<path style="fill:#B3B3B3;" d="M54.984,175.464c-3.714,0-6.736-3.023-6.736-6.739V148.35l-7.826,7.826l-1.227-1.229
		c-10.29-10.29-15.957-23.97-15.957-38.52c0-18.389,9.22-35.421,24.663-45.561l0.345-0.227V28.679c0-3.716,3.023-6.738,6.739-6.738
		h90.032c3.713,0,6.737,3.023,6.739,6.739v38.322l6.951-6.949c1.996-2,4.651-3.102,7.478-3.102c5.833,0,10.578,4.746,10.578,10.58
		c0,2.823-1.1,5.479-3.097,7.478l-21.91,21.91v71.805c0,3.716-3.023,6.739-6.739,6.739H54.984z M99.999,156.986
		c3.716,0,6.738,3.023,6.738,6.739c0,3.71-3.019,6.732-6.73,6.737l0.001,1.529h45.007c1.8,0,3.265-1.464,3.265-3.265v-13.268H51.72
		v13.268c0,1.8,1.464,3.265,3.264,3.265h45.005l0.001-1.529c-3.709-0.005-6.727-3.027-6.727-6.737
		C93.263,160.009,96.284,156.986,99.999,156.986z M99.999,160.458c-1.8,0-3.265,1.464-3.265,3.264c0,1.802,1.464,3.267,3.265,3.267
		c1.801,0,3.267-1.466,3.267-3.267C103.266,161.922,101.8,160.458,99.999,160.458z M51.72,144.879v7.104h96.561v-51.591
		l-42.446,42.446l-17.953,2.994l2.994-17.953l57.405-57.405V45.418H51.72v23.146l1.115-0.575c7.768-4.005,16.139-6.036,24.878-6.036
		c14.552,0,28.232,5.667,38.52,15.957l1.229,1.227L51.72,144.879z M37.524,147.774l0.941,1.164c0.455,0.568,0.924,1.155,1.435,1.716
		l0.539,0.592l72.092-72.092l-0.595-0.539c-0.596-0.54-1.218-1.037-1.82-1.518l-1.063-0.854l-2.918,4.017l-2.815-2.044l2.923-4.028
		l-0.671-0.439c-3.143-2.06-6.412-3.74-9.715-4.996l-0.749-0.285l-1.566,4.782l-3.34-1.08l1.491-4.76l-0.769-0.207
		c-3.385-0.911-5.723-1.479-10.904-1.662l-0.791-0.028v4.915h-3.474v-4.932l-0.819,0.059c-2.225,0.16-6.97,0.696-10.643,1.691
		l-0.792,0.215l1.644,4.718l-3.288,1.069l-1.533-4.715l-0.751,0.287c-3.47,1.324-6.74,2.987-9.719,4.942l-0.67,0.44l2.917,4.015
		l-2.812,2.043l-2.919-4.018l-0.626,0.505c-2.836,2.29-5.431,4.884-7.713,7.71l-0.505,0.626l4.018,2.921l-2.04,2.808l-4.018-2.923
		l-0.44,0.672c-1.954,2.984-3.618,6.252-4.944,9.715l-0.289,0.754l4.715,1.517l-1.066,3.266l-4.716-1.587l-0.212,0.784
		c-0.992,3.661-1.531,8.412-1.694,10.642l-0.06,0.82h4.933v3.472h-4.916l0.028,0.792c0.187,5.204,0.752,7.535,1.659,10.908
		l0.205,0.761l4.764-1.436l1.077,3.318l-4.781,1.55l0.286,0.751c1.256,3.306,2.937,6.573,4.997,9.713l0.439,0.67l4.03-2.925
		l2.043,2.813L37.524,147.774z M92.109,141.604l9.281-1.545l-7.735-7.732L92.109,141.604z M101.205,134.963l3.797,3.796
		l52.563-52.563l-3.797-3.796L101.205,134.963z M94.954,128.711l3.796,3.797l52.562-52.563l-3.796-3.797L94.954,128.711z
		 M149.971,73.694l10.048,10.048l5.048-5.045L155.02,68.646L149.971,73.694z M166.185,60.425c-1.894,0-3.678,0.739-5.022,2.08
		l-3.688,3.685l10.048,10.051l3.687-3.684c1.34-1.343,2.078-3.128,2.078-5.026C173.288,63.613,170.102,60.425,166.185,60.425z
		 M54.984,25.414c-1.8,0-3.264,1.464-3.264,3.264v13.268h96.561V28.679c0-1.8-1.465-3.264-3.265-3.264H54.984z"/>
	<rect x="85.759" y="31.943" style="fill:#B3B3B3;" width="28.482" height="3.474"/>
</g>
<g>
</g>
<g>
</g>
<g>
</g>
<g>
</g>
<g>
</g>
<g>
</g>
<g>
</g>
<g>
</g>
<g>
</g>
<g>
</g>
<g>
</g>
<g>
</g>
<g>
</g>
<g>
</g>
<g>
</g>
</svg>
