<?xml version="1.0" encoding="iso-8859-1"?>
<!-- Generator: Adobe Illustrator 18.0.0, SVG Export Plug-In . SVG Version: 6.00 Build 0)  -->
<!DOCTYPE svg PUBLIC "-//W3C//DTD SVG 1.1//EN" "http://www.w3.org/Graphics/SVG/1.1/DTD/svg11.dtd">
<svg version="1.1" id="Layer_1" xmlns="http://www.w3.org/2000/svg" xmlns:xlink="http://www.w3.org/1999/xlink" x="0px" y="0px"
	 viewBox="0 0 200 200" style="enable-background:new 0 0 200 200;" xml:space="preserve">
<rect x="234.125" y="71.041" style="fill:#F15A24;" width="3.773" height="3.773"/>
<g>
	<path style="fill:#B3B3B3;" d="M23.003,175c-5.563,0-10.089-4.527-10.089-10.09v-10.089h5.702V65.1
		c0-5.563,4.526-10.089,10.09-10.089h14.909l0.02-0.074l0.244,0.074h14.663v-5.232l47.248-17.718l35.669,17.833v5.118h13.461
		l1.346-0.422l0.122,0.422h14.905c5.563,0,10.09,4.526,10.09,10.089v89.721h5.705v10.089c0,5.564-4.526,10.09-10.089,10.09H23.003z
		 M15.983,164.91c0,3.873,3.149,7.024,7.02,7.024h153.995c3.871,0,7.02-3.151,7.02-7.024v-7.02h-71.075v1.318
		c0,2.418-1.968,4.384-4.388,4.384H91.446c-2.419,0-4.387-1.967-4.387-4.384v-1.318H15.983V164.91z M90.128,160.525h19.744v-5.704
		h68.443V65.1c0-3.872-3.151-7.022-7.023-7.022h-14.125l0.297,1.564c0.028,0.149,0.182,0.906,0.182,0.906l-3.016,0.462
		c-0.122-0.64-0.259-1.281-0.39-1.891l-0.224-1.04h-12.558v8.34h28.516v80.063H30.022V66.415h28.52v-8.337H45.975l-0.223,1.041
		c-0.177,0.822-0.323,1.556-0.443,2.226l-3.022-0.446c0.041-0.209,0.555-2.821,0.555-2.821H28.708c-3.872,0-7.023,3.15-7.023,7.022
		v89.721h68.443V160.525z M33.093,143.414h133.815V69.485h-8.342l-0.001,1.316c-0.003,2.491-0.158,4.983-0.463,7.417l-3.033-0.451
		c0.287-2.295,0.432-4.635,0.432-6.965v-1.318h-14.043v22.344l-47.25,17.715l-35.666-17.83V69.485H33.093V143.414z M95.83,78.996
		v26.666l40.261-15.097l-30.476-15.238L95.83,78.996z M63.91,90.967l28.854,14.428V80.148L63.91,90.967z M61.608,88.552
		l31.155-11.682V68.9L61.608,53.324V88.552z M107.237,64.737v7.971l31.155,15.575V53.056L107.237,64.737z M95.83,69.015v6.703
		l8.34-3.126v-6.707L95.83,69.015z M63.906,51.041l30.478,15.241l9.785-3.672V35.943L63.906,51.041z M107.237,61.46l28.854-10.819
		l-28.854-14.429V61.46z"/>
	<path style="fill:#B3B3B3;" d="M57.876,30.108c1.415-1.462,2.917-2.862,4.474-4.172l1.921,2.393
		c-1.441,1.215-2.831,2.511-4.141,3.861L57.876,30.108z"/>
	<path style="fill:#B3B3B3;" d="M71.721,19.502c1.781-0.982,3.627-1.879,5.501-2.672l1.129,2.85
		c-1.726,0.731-3.433,1.561-5.087,2.473L71.721,19.502z"/>
	<path style="fill:#B3B3B3;" d="M47.746,44.322c0.919-1.812,1.944-3.592,3.052-5.306l2.538,1.724
		c-1.022,1.584-1.969,3.23-2.823,4.906L47.746,44.322z"/>
	<path style="fill:#B3B3B3;" d="M149.335,45.35c-0.867-1.677-1.824-3.316-2.85-4.884l2.526-1.74c1.112,1.695,2.146,3.467,3.081,5.28
		L149.335,45.35z"/>
	<path style="fill:#B3B3B3;" d="M41.911,78.339c-0.258-2.01-0.414-4.057-0.463-6.098l3.07-0.007
		c0.049,1.887,0.193,3.781,0.429,5.645L41.911,78.339z"/>
	<path style="fill:#B3B3B3;" d="M139.644,31.96c-1.319-1.347-2.716-2.635-4.163-3.84l1.909-2.402
		c1.569,1.303,3.078,2.695,4.495,4.148L139.644,31.96z"/>
	<path style="fill:#B3B3B3;" d="M126.441,21.997c-1.652-0.896-3.366-1.716-5.11-2.444l1.115-2.862
		c1.875,0.779,3.728,1.666,5.523,2.643L126.441,21.997z"/>
	<path style="fill:#B3B3B3;" d="M110.885,16.366c-1.836-0.365-3.715-0.639-5.6-0.817l0.217-3.062
		c2.033,0.19,4.065,0.488,6.054,0.888L110.885,16.366z"/>
	<path style="fill:#B3B3B3;" d="M88.083,13.449c1.996-0.411,4.026-0.722,6.049-0.924l0.236,3.059
		c-1.877,0.191-3.755,0.478-5.597,0.856L88.083,13.449z"/>
	<path style="fill:#B3B3B3;" d="M128.916,118.185c1.607-0.984,3.175-2.057,4.672-3.197l1.914,2.399
		c-1.628,1.24-3.323,2.399-5.048,3.453L128.916,118.185z"/>
	<path style="fill:#B3B3B3;" d="M113.685,124.605c1.84-0.468,3.655-1.029,5.409-1.672l1.123,2.855
		c-1.911,0.703-3.874,1.31-5.849,1.808L113.685,124.605z"/>
	<path style="fill:#B3B3B3;" d="M141.583,107.561c1.251-1.413,2.437-2.899,3.535-4.429l2.535,1.729
		c-1.181,1.651-2.463,3.258-3.82,4.788L141.583,107.561z"/>
	<path style="fill:#B3B3B3;" d="M150.581,93.682c0.779-1.718,1.473-3.487,2.069-5.272l2.932,0.901
		c-0.643,1.939-1.393,3.853-2.234,5.703L150.581,93.682z"/>
	<path style="fill:#B3B3B3;" d="M85.755,127.627c-1.975-0.494-3.94-1.097-5.855-1.796l1.116-2.856
		c1.767,0.643,3.583,1.201,5.413,1.661L85.755,127.627z"/>
	<path style="fill:#B3B3B3;" d="M99.999,129.371c-0.995,0-1.999-0.025-2.994-0.074l0.222-3.061c0.914,0.045,1.838,0.068,2.753,0.068
		c0.963,0,1.94-0.025,2.913-0.076l0.228,3.061C102.089,129.344,101.042,129.371,99.999,129.371z"/>
	<path style="fill:#B3B3B3;" d="M69.642,120.902c-1.731-1.051-3.428-2.208-5.059-3.447l1.911-2.399
		c1.511,1.145,3.081,2.216,4.681,3.19L69.642,120.902z"/>
	<path style="fill:#B3B3B3;" d="M56.234,109.726c-1.356-1.524-2.639-3.126-3.823-4.772l2.53-1.735
		c1.098,1.522,2.285,3.004,3.539,4.417L56.234,109.726z"/>
	<path style="fill:#B3B3B3;" d="M46.702,95.118c-0.848-1.857-1.603-3.768-2.248-5.694l2.931-0.907
		c0.602,1.787,1.299,3.553,2.078,5.262L46.702,95.118z"/>
</g>
<g>
</g>
<g>
</g>
<g>
</g>
<g>
</g>
<g>
</g>
<g>
</g>
<g>
</g>
<g>
</g>
<g>
</g>
<g>
</g>
<g>
</g>
<g>
</g>
<g>
</g>
<g>
</g>
<g>
</g>
</svg>
