<?xml version="1.0" encoding="iso-8859-1"?>
<!-- Generator: Adobe Illustrator 18.0.0, SVG Export Plug-In . SVG Version: 6.00 Build 0)  -->
<!DOCTYPE svg PUBLIC "-//W3C//DTD SVG 1.1//EN" "http://www.w3.org/Graphics/SVG/1.1/DTD/svg11.dtd">
<svg version="1.1" id="Layer_1" xmlns="http://www.w3.org/2000/svg" xmlns:xlink="http://www.w3.org/1999/xlink" x="0px" y="0px"
	 viewBox="0 0 200 200" style="enable-background:new 0 0 200 200;" xml:space="preserve">
<rect x="234.125" y="71.041" style="fill:#F15A24;" width="3.773" height="3.773"/>
<g>
	<path style="fill:#B3B3B3;" d="M99.999,176.496c-42.18,0-76.495-34.317-76.495-76.498c0-42.179,34.316-76.495,76.495-76.495
		c42.181,0,76.497,34.315,76.497,76.495C176.496,142.179,142.18,176.496,99.999,176.496z M101.471,172.907l1.279-0.048
		c39.353-1.47,70.179-33.446,70.179-72.798c0-11.964-2.846-23.396-8.458-33.979l-0.61-1.15l-2.217,3.982l-3.675-1.913l-0.023-0.181
		h-0.303v-3.536h4.67l-0.597-1.055c-12.457-22.018-34.376-34.144-61.717-34.144c-27.34,0-49.257,12.126-61.715,34.144l-0.597,1.055
		h4.678v3.536h-0.311l-0.023,0.178l-3.669,1.7l-2.233-3.866l-0.598,1.128c-5.534,10.432-8.459,22.201-8.459,34.037
		c0,39.387,30.825,71.391,70.177,72.861l1.278,0.048l-2.207-3.822l3.087-1.782l0.59,1.026l0.594-1.027l3.089,1.783L101.471,172.907z
		"/>
	
		<rect x="77.498" y="131.517" transform="matrix(-0.866 0.5 -0.5 -0.866 215.9464 214.1703)" style="fill:#B3B3B3;" width="3.566" height="8.997"/>
	
		<rect x="87.912" y="149.556" transform="matrix(-0.8661 0.5 -0.5 -0.8661 244.395 242.6311)" style="fill:#B3B3B3;" width="3.566" height="8.998"/>
	
		<rect x="56.667" y="95.439" transform="matrix(-0.8662 0.4997 -0.4997 -0.8662 159.0191 157.2948)" style="fill:#B3B3B3;" width="3.567" height="8.997"/>
	
		<rect x="46.254" y="77.399" transform="matrix(-0.866 0.5001 -0.5001 -0.866 130.5902 128.8005)" style="fill:#B3B3B3;" width="3.566" height="8.998"/>
	<rect x="75.605" y="63.285" style="fill:#B3B3B3;" width="8.487" height="3.536"/>
	<rect x="53.68" y="63.285" style="fill:#B3B3B3;" width="8.487" height="3.536"/>
	<rect x="115.917" y="63.285" style="fill:#B3B3B3;" width="8.487" height="3.536"/>
	<rect x="137.841" y="63.285" style="fill:#B3B3B3;" width="8.487" height="3.536"/>
	
		<rect x="105.802" y="152.258" transform="matrix(-0.4999 0.8661 -0.8661 -0.4999 298.8519 135.5127)" style="fill:#B3B3B3;" width="8.997" height="3.568"/>
	<polygon style="fill:#B3B3B3;" points="127.337,120.977 128.695,118.628 125.605,116.836 127.392,113.751 130.478,115.539 
		131.837,113.184 134.927,114.966 130.425,122.761 	"/>
	
		<rect x="116.215" y="134.222" transform="matrix(-0.4999 0.8661 -0.8661 -0.4999 298.85 99.4436)" style="fill:#B3B3B3;" width="8.997" height="3.567"/>
	
		<rect x="137.041" y="98.145" transform="matrix(-0.4998 0.8662 -0.8662 -0.4998 298.8323 27.2735)" style="fill:#B3B3B3;" width="8.999" height="3.566"/>
	
		<rect x="147.455" y="80.106" transform="matrix(-0.4998 0.8662 -0.8662 -0.4998 298.8258 -8.8016)" style="fill:#B3B3B3;" width="8.999" height="3.566"/>
	<rect x="98.236" y="148.153" style="fill:#B3B3B3;" width="3.536" height="8.487"/>
	
		<rect x="52.962" y="69.7" transform="matrix(-0.5004 0.8658 -0.8658 -0.5004 146.1049 63.4527)" style="fill:#B3B3B3;" width="3.567" height="8.36"/>
	<path style="fill:#B3B3B3;" d="M98.236,136.837v-3.442l-20.042-18.752l-2.564,1.477l-1.787-3.085l2.556-1.478l-6.211-26.705
		l-3.023-1.749l1.785-3.089l3.037,1.754l26.25-7.956v-6.99h-2.829v-3.536h9.194v3.536h-2.829v6.99l26.243,7.958l3.037-1.753
		l1.784,3.091l-3.025,1.746l-6.21,26.703l2.556,1.476l-1.787,3.09l-2.563-1.475l-20.036,18.75v3.439H98.236z M101.772,101.043
		v27.468l18.164-16.999l5.633-24.208L101.772,101.043z M80.062,111.507l18.174,17.002v-27.465L74.442,87.302L80.062,111.507z
		 M76.207,84.212l23.792,13.743l23.792-13.743l-23.792-7.213L76.207,84.212z"/>
	<polygon style="fill:#B3B3B3;" points="65.076,114.966 68.164,113.184 69.523,115.534 72.609,113.749 74.395,116.833 
		71.306,118.626 72.666,120.976 69.575,122.761 	"/>
	
		<rect x="141.075" y="72.085" transform="matrix(-0.866 0.5001 -0.5001 -0.866 307.9821 65.1937)" style="fill:#B3B3B3;" width="8.359" height="3.567"/>
</g>
<g>
</g>
<g>
</g>
<g>
</g>
<g>
</g>
<g>
</g>
<g>
</g>
<g>
</g>
<g>
</g>
<g>
</g>
<g>
</g>
<g>
</g>
<g>
</g>
<g>
</g>
<g>
</g>
<g>
</g>
</svg>
