<?xml version="1.0" encoding="iso-8859-1"?>
<!-- Generator: Adobe Illustrator 18.0.0, SVG Export Plug-In . SVG Version: 6.00 Build 0)  -->
<!DOCTYPE svg PUBLIC "-//W3C//DTD SVG 1.1//EN" "http://www.w3.org/Graphics/SVG/1.1/DTD/svg11.dtd">
<svg version="1.1" id="Layer_1" xmlns="http://www.w3.org/2000/svg" xmlns:xlink="http://www.w3.org/1999/xlink" x="0px" y="0px"
	 viewBox="0 0 200 200" style="enable-background:new 0 0 200 200;" xml:space="preserve">
<rect x="234.125" y="71.041" style="fill:#F15A24;" width="3.773" height="3.773"/>
<g>
	<path style="fill:#B3B3B3;" d="M100,176.234c-21.28,0-38.593-17.313-38.593-38.593c0-11.279,4.936-21.971,13.542-29.333l0.43-0.367
		L56.892,75.512l-0.502,0.124c-2.068,0.509-4.189,0.768-6.304,0.768c-14.513,0-26.319-11.807-26.319-26.319
		s11.807-26.319,26.319-26.319c5.182,0,10.201,1.509,14.513,4.364c0.814,0.539,1.038,1.641,0.499,2.455
		c-0.329,0.495-0.882,0.792-1.478,0.792c-0.347,0-0.685-0.102-0.976-0.295c-3.73-2.469-8.072-3.775-12.557-3.775
		c-12.56,0-22.778,10.218-22.778,22.777s10.218,22.777,22.778,22.777c12.559,0,22.777-10.218,22.777-22.777
		c0-4.485-1.306-8.828-3.777-12.558c-0.261-0.394-0.352-0.866-0.258-1.329c0.095-0.463,0.363-0.862,0.758-1.123
		c0.291-0.193,0.629-0.295,0.976-0.295c0.597,0,1.15,0.296,1.479,0.792c2.855,4.312,4.364,9.33,4.364,14.513
		c0,6.924-2.682,13.468-7.552,18.427l-0.362,0.369l18.486,32.424l0.536-0.184c4.018-1.376,8.22-2.074,12.489-2.074
		c4.269,0,8.471,0.698,12.488,2.074l0.536,0.184l18.486-32.424l-0.362-0.369c-4.87-4.959-7.552-11.503-7.552-18.427
		c0-14.512,11.807-26.319,26.319-26.319s26.319,11.807,26.319,26.319s-11.807,26.319-26.319,26.319
		c-2.115,0-4.236-0.259-6.304-0.768l-0.502-0.124l-18.486,32.428l0.43,0.367c8.606,7.363,13.542,18.054,13.542,29.333
		c0,8.54-2.735,16.634-7.909,23.407c-0.338,0.443-0.852,0.697-1.41,0.697c-0.39,0-0.761-0.126-1.073-0.363
		c-0.377-0.288-0.619-0.705-0.681-1.175c-0.062-0.468,0.061-0.933,0.349-1.308c4.699-6.152,7.183-13.502,7.183-21.258
		c0-19.328-15.724-35.052-35.052-35.052s-35.052,15.724-35.052,35.052c0,19.327,15.724,35.051,35.052,35.051
		c7.755,0,15.106-2.484,21.257-7.182c0.312-0.239,0.683-0.365,1.073-0.365c0.557,0,1.071,0.254,1.409,0.696
		c0.592,0.776,0.443,1.89-0.332,2.482C116.634,173.499,108.54,176.234,100,176.234z M116.325,102.667l0.652,0.321
		c1.437,0.708,2.846,1.514,4.187,2.397l0.609,0.401l17.925-31.441l-0.68-0.311c-1.453-0.665-2.851-1.465-4.154-2.378l-0.615-0.431
		L116.325,102.667z M65.136,71.656c-1.305,0.914-2.702,1.713-4.154,2.376l-0.681,0.311l17.926,31.443l0.609-0.401
		c1.342-0.884,2.75-1.69,4.187-2.397l0.652-0.321L65.751,71.226L65.136,71.656z M149.915,27.308
		c-12.559,0-22.777,10.218-22.777,22.777s10.218,22.777,22.777,22.777s22.777-10.218,22.777-22.777S162.474,27.308,149.915,27.308z"
		/>
	<circle style="fill:#B3B3B3;" cx="90.018" cy="157.442" r="1.771"/>
	<circle style="fill:#B3B3B3;" cx="80.199" cy="147.623" r="1.771"/>
</g>
<g>
</g>
<g>
</g>
<g>
</g>
<g>
</g>
<g>
</g>
<g>
</g>
<g>
</g>
<g>
</g>
<g>
</g>
<g>
</g>
<g>
</g>
<g>
</g>
<g>
</g>
<g>
</g>
<g>
</g>
</svg>
