<?xml version="1.0" encoding="iso-8859-1"?>
<!-- Generator: Adobe Illustrator 18.0.0, SVG Export Plug-In . SVG Version: 6.00 Build 0)  -->
<!DOCTYPE svg PUBLIC "-//W3C//DTD SVG 1.1//EN" "http://www.w3.org/Graphics/SVG/1.1/DTD/svg11.dtd">
<svg version="1.1" id="Layer_1" xmlns="http://www.w3.org/2000/svg" xmlns:xlink="http://www.w3.org/1999/xlink" x="0px" y="0px"
	 viewBox="0 0 200 200" style="enable-background:new 0 0 200 200;" xml:space="preserve">
<rect x="234.125" y="71.041" style="fill:#F15A24;" width="3.773" height="3.773"/>
<g>
	<path style="fill:#B3B3B3;" d="M66.917,175v-3.256h10.485v-15.092H42.337c-5.234,0-9.492-4.258-9.492-9.492V79.015
		c0-5.234,4.258-9.492,9.492-9.492h39.577l-1.986-11.912l20.071-25.807l20.073,25.807l-1.989,11.912h39.579
		c5.234,0,9.492,4.258,9.492,9.492v68.146c0,5.234-4.258,9.492-9.492,9.492h-35.068v15.092h10.484V175H66.917z M80.658,171.741
		h38.68v-15.089h-38.68V171.741z M42.337,72.779c-3.437,0-6.233,2.797-6.233,6.236v68.146c0,3.438,2.796,6.235,6.233,6.235h115.326
		c3.437,0,6.233-2.797,6.233-6.235V79.015c0-3.438-2.796-6.236-6.233-6.236h-40.121l-1.204,7.228h40.333v66.161H43.329V80.007H83.66
		l-1.204-7.228H42.337z M46.588,142.912h106.823V83.263h-37.617l-0.806,4.827l0.729,0.302c2.586,1.072,4.257,3.563,4.257,6.348
		c0,2.879-1.841,5.47-4.582,6.448l-0.659,0.235v19.529c0,2.343-1.907,4.249-4.251,4.249H89.514c-2.343,0-4.249-1.906-4.249-4.249
		v-19.529l-0.659-0.235c-2.742-0.978-4.585-3.569-4.585-6.448c0-2.785,1.671-5.277,4.257-6.348l0.729-0.302l-0.805-4.827H46.588
		V142.912z M88.522,121.943h22.955l-0.003-20.332H88.522V121.943z M86.894,91.127c-1.992,0-3.613,1.621-3.613,3.613
		c0,1.993,1.621,3.615,3.613,3.615h26.209c1.993,0,3.615-1.622,3.615-3.615c0-1.992-1.62-3.613-3.612-3.613H86.894z M83.377,58.482
		l4.894,29.389h23.455l4.894-29.389l-14.992-19.275v14.783l0.659,0.235c2.741,0.978,4.583,3.568,4.583,6.445
		c0,3.789-3.083,6.872-6.872,6.872c-3.788,0-6.869-3.083-6.869-6.872c0-2.877,1.841-5.467,4.582-6.445l0.659-0.235V39.207
		L83.377,58.482z M99.999,57.054c-1.992,0-3.613,1.62-3.613,3.612c0,1.992,1.621,3.613,3.613,3.613c1.993,0,3.615-1.621,3.615-3.613
		C103.613,58.675,101.992,57.054,99.999,57.054z"/>
	<path style="fill:#B3B3B3;" d="M127.203,64.918V51.175h4.949l-0.196-1.157c-2.645-15.666-16.085-27.036-31.957-27.036
		c-15.874,0-29.313,11.37-31.956,27.036l-0.195,1.157h4.949v13.743h-13.74V51.175h5.527l0.123-0.851
		c1.534-10.643,7.73-19.937,17.001-25.5l3.071-1.843H64.745L64.51,23.64c-0.978,2.741-3.568,4.582-6.445,4.582
		c-3.789,0-6.872-3.081-6.872-6.868c0-3.789,3.083-6.872,6.872-6.872c2.877,0,5.467,1.842,6.445,4.584l0.235,0.659h67.89l0.235-0.66
		c0.975-2.741,3.565-4.583,6.445-4.583c3.789,0,6.872,3.083,6.872,6.872c0,3.789-3.083,6.871-6.872,6.871
		c-2.878,0-5.469-1.842-6.448-4.585l-0.235-0.659H115.22l3.07,1.843c9.273,5.567,15.469,14.861,17.001,25.5l0.123,0.851h5.53v13.743
		H127.203z M130.459,61.659h7.228v-7.225h-7.228V61.659z M62.313,61.659h7.225v-7.225h-7.225V61.659z M139.314,17.74
		c-1.992,0-3.612,1.621-3.612,3.613c0,1.992,1.62,3.612,3.612,3.612c1.992,0,3.613-1.62,3.613-3.612
		C142.927,19.361,141.306,17.74,139.314,17.74z M58.065,17.74c-1.994,0-3.616,1.621-3.616,3.613c0,1.992,1.622,3.612,3.616,3.612
		c1.992,0,3.612-1.62,3.612-3.612C61.677,19.361,60.057,17.74,58.065,17.74z"/>
	<rect x="121.959" y="114.08" style="fill:#B3B3B3;" width="3.259" height="3.256"/>
	<rect x="132.443" y="114.08" style="fill:#B3B3B3;" width="3.259" height="3.256"/>
	<rect x="142.927" y="114.08" style="fill:#B3B3B3;" width="3.259" height="3.256"/>
	<rect x="53.813" y="114.08" style="fill:#B3B3B3;" width="3.259" height="3.256"/>
	<rect x="64.298" y="114.08" style="fill:#B3B3B3;" width="3.256" height="3.256"/>
	<rect x="74.781" y="114.08" style="fill:#B3B3B3;" width="3.256" height="3.256"/>
</g>
<g>
</g>
<g>
</g>
<g>
</g>
<g>
</g>
<g>
</g>
<g>
</g>
<g>
</g>
<g>
</g>
<g>
</g>
<g>
</g>
<g>
</g>
<g>
</g>
<g>
</g>
<g>
</g>
<g>
</g>
</svg>
