<?xml version="1.0" encoding="iso-8859-1"?>
<!-- Generator: Adobe Illustrator 18.0.0, SVG Export Plug-In . SVG Version: 6.00 Build 0)  -->
<!DOCTYPE svg PUBLIC "-//W3C//DTD SVG 1.1//EN" "http://www.w3.org/Graphics/SVG/1.1/DTD/svg11.dtd">
<svg version="1.1" id="Layer_1" xmlns="http://www.w3.org/2000/svg" xmlns:xlink="http://www.w3.org/1999/xlink" x="0px" y="0px"
	 viewBox="0 0 200 200" style="enable-background:new 0 0 200 200;" xml:space="preserve">
<rect x="234.125" y="71.041" style="fill:#F15A24;" width="3.773" height="3.773"/>
<g>
	<path style="fill:#B3B3B3;" d="M90.542,91.218c-3.214,0-5.829-2.615-5.829-5.829c0-0.682,0.134-1.381,0.399-2.076l0.27-0.707
		l-0.64-0.405c-1.71-1.084-2.731-2.923-2.731-4.92c0-2.759,1.96-5.161,4.661-5.71l0.742-0.151v-5.512l-0.411-0.275
		C80.491,61.268,76.603,54.004,76.603,46.2c0-12.901,10.496-23.397,23.397-23.397s23.397,10.496,23.397,23.397
		c0,7.804-3.888,15.068-10.399,19.433l-0.411,0.275v5.512l0.742,0.151c2.703,0.549,4.665,2.95,4.665,5.71
		c0,1.997-1.023,3.836-2.735,4.92l-0.641,0.405l0.271,0.708c0.267,0.699,0.403,1.397,0.403,2.075c0,3.214-2.615,5.829-5.829,5.829
		H90.542z M90.542,83.11c-1.256,0-2.279,1.023-2.279,2.279c0,1.255,1.023,2.276,2.279,2.276h18.92c1.255,0,2.276-1.021,2.276-2.276
		c0-1.256-1.023-2.279-2.279-2.279H90.542z M87.84,75.004c-1.258,0-2.28,1.021-2.28,2.276c0,1.256,1.022,2.279,2.277,2.279h24.327
		c1.255,0,2.276-1.022,2.276-2.279c0-1.255-1.021-2.276-2.276-2.276H87.84z M100,39.018c3.96,0,7.182,3.222,7.182,7.182
		c0,3.007-1.926,5.715-4.792,6.737l-0.615,0.219v18.294h7.26v-7.568l0.885-0.514c6.123-3.546,9.926-10.126,9.926-17.169
		c0-10.943-8.903-19.846-19.847-19.846c-10.941,0-19.843,8.903-19.843,19.846c0,7.044,3.802,13.623,9.923,17.169l0.884,0.514v7.568
		h7.261V53.157l-0.615-0.219c-2.867-1.023-4.792-3.731-4.792-6.737C92.817,42.24,96.04,39.018,100,39.018z M100,42.571
		c-2.001,0-3.628,1.628-3.628,3.629c0,2.001,1.627,3.628,3.628,3.628c2.001,0,3.629-1.627,3.629-3.628
		C103.628,44.199,102.001,42.571,100,42.571z"/>
	<path style="fill:#B3B3B3;" d="M117.144,175v-4.63c0-1.945,0.46-3.89,1.328-5.623l3.125-6.25c0.622-1.242,0.951-2.64,0.951-4.04
		v-0.595c0-1.132-0.21-2.245-0.623-3.307l-3.307-8.392c-0.545-1.375-1.901-2.297-3.375-2.297h-10.353
		c-3.207,0-5.816,2.607-5.816,5.812c0,2.673,1.812,4.99,4.406,5.635l6.009,1.504l2.717,8.155l-3.367,1.123l-2.104-6.304
		l-4.118-1.029c-1.47-0.367-2.85-1.104-3.991-2.132l-0.638-0.575l-0.622,0.594c-0.347,0.332-0.645,0.577-0.937,0.771l-0.144,0.09
		c-1.111,0.707-2.397,1.078-3.722,1.078c-0.14-0.016-0.209-0.024-0.279-0.027l-0.837-0.038l-0.122,0.829
		c-0.23,1.561-0.92,2.956-1.998,4.032l-0.465,0.466c-1.354,1.352-3.156,2.098-5.076,2.098s-3.723-0.745-5.079-2.098l-12.213-12.212
		l0.481,2.859c0.313,1.861,0.827,3.622,1.527,5.236l4.095,9.455c1.354,3.121,2.075,6.419,2.146,9.812h-3.555
		c-0.071-2.902-0.693-5.724-1.851-8.398l-4.098-9.456c-1.427-3.296-2.15-6.788-2.15-10.378v-6.189c0-3.841,3.125-6.966,6.966-6.966
		h1.14v-1.14c0-3.843,3.126-6.969,6.969-6.969h3.842v-1.14c0-3.842,3.126-6.968,6.969-6.968h2.565c0.839,0,1.719,0.201,2.691,0.615
		l1.29,0.55v-14.255c0-4.705,3.828-8.532,8.532-8.532c4.705,0,8.532,3.827,8.532,8.532v32.009h2.656c2.97,0,5.591,1.785,6.678,4.549
		l3.307,8.386c0.581,1.478,0.875,3.03,0.875,4.613v0.595c0,1.944-0.46,3.888-1.329,5.62l-3.124,6.251
		c-0.624,1.249-0.954,2.646-0.954,4.041V175H117.144z M70.056,137.164c-1.883,0-3.415,1.532-3.415,3.415v0.765
		c0,0.912,0.357,1.77,1.004,2.417l13.573,13.576c0.689,0.686,1.6,1.063,2.567,1.063c0.969,0,1.88-0.378,2.565-1.063l0.465-0.466
		c0.685-0.684,1.061-1.596,1.061-2.566c-0.001-0.971-0.379-1.882-1.065-2.566l-13.576-13.576c-0.641-0.644-1.499-1-2.413-1H70.056z
		 M78.165,129.055c-1.883,0-3.415,1.532-3.415,3.415v0.765c0,0.908,0.353,1.765,0.993,2.414l14.394,14.392
		c0.643,0.645,1.502,1,2.416,1c0.675,0,1.328-0.197,1.89-0.57c0.666-0.464,1.104-1.057,1.333-1.761l0.198-0.248l-0.118-0.45
		c-0.157-0.6-0.253-1.21-0.285-1.815l-0.012-0.224l-0.381-0.654l-0.08-0.007L83.91,130.415c-0.641-0.852-1.658-1.36-2.721-1.36
		H78.165z M86.705,128.467l3.25,4.604l6.069,8.647h1.102l0.245-0.574c0.588-1.429,1.604-2.403,2.346-3.113
		c0.676-0.647,1.21-1.159,1.207-1.86l-0.001-0.224l-6.859-13.219c-0.401-0.723-0.988-1.783-2.522-1.783h-2.565
		c-1.884,0-3.416,1.533-3.416,3.417v1.184c0,0.747,0.236,1.499,0.651,2.075L86.705,128.467z M104.055,99.327
		c-2.746,0-4.982,2.235-4.982,4.981v19.271l7.077,12.735h2.885v-32.006C109.035,101.562,106.801,99.327,104.055,99.327z"/>
	<rect x="98.225" y="14.695" style="fill:#B3B3B3;" width="3.55" height="3.554"/>
	
		<rect x="83.359" y="18.679" transform="matrix(-0.8661 0.4998 -0.4998 -0.8661 169.0994 -4.3789)" style="fill:#B3B3B3;" width="3.553" height="3.552"/>
	
		<rect x="72.477" y="29.56" transform="matrix(-0.5 0.866 -0.866 -0.5 138.5138 -17.3037)" style="fill:#B3B3B3;" width="3.551" height="3.551"/>
	<rect x="68.494" y="44.425" style="fill:#B3B3B3;" width="3.554" height="3.55"/>
	
		<rect x="72.477" y="59.29" transform="matrix(-0.866 0.5 -0.5 -0.866 169.0897 76.8198)" style="fill:#B3B3B3;" width="3.551" height="3.551"/>
	
		<rect x="123.966" y="59.285" transform="matrix(-0.4997 0.8662 -0.8662 -0.4997 241.4668 -17.3447)" style="fill:#B3B3B3;" width="3.553" height="3.551"/>
	<rect x="127.953" y="44.425" style="fill:#B3B3B3;" width="3.553" height="3.55"/>
	
		<rect x="123.973" y="29.565" transform="matrix(-0.866 0.5001 -0.5001 -0.866 250.3146 -4.4096)" style="fill:#B3B3B3;" width="3.551" height="3.551"/>
	
		<rect x="113.087" y="18.676" transform="matrix(-0.5 0.866 -0.866 -0.5 190.0033 -68.798)" style="fill:#B3B3B3;" width="3.551" height="3.551"/>
	<polygon style="fill:#B3B3B3;" points="171.195,56.084 171.195,50.678 165.792,50.678 165.792,47.127 171.195,47.127 
		171.195,41.72 174.749,41.72 174.749,47.127 180.153,47.127 180.153,50.678 174.749,50.678 174.749,56.084 	"/>
	<polygon style="fill:#B3B3B3;" points="149.574,29.056 149.574,23.652 144.17,23.652 144.17,20.102 149.574,20.102 149.574,14.695 
		153.127,14.695 153.127,20.102 158.532,20.102 158.532,23.652 153.127,23.652 153.127,29.056 	"/>
	<polygon style="fill:#B3B3B3;" points="25.254,72.299 25.254,66.895 19.847,66.895 19.847,63.342 25.254,63.342 25.254,57.937 
		28.805,57.937 28.805,63.342 34.208,63.342 34.208,66.895 28.805,66.895 28.805,72.299 	"/>
	<polygon style="fill:#B3B3B3;" points="44.171,45.274 44.171,39.867 38.767,39.867 38.767,36.316 44.171,36.316 44.171,30.909 
		47.724,30.909 47.724,36.316 53.128,36.316 53.128,39.867 47.724,39.867 47.724,45.274 	"/>
	<polygon style="fill:#B3B3B3;" points="57.683,99.327 57.683,93.92 52.28,93.92 52.28,90.37 57.683,90.37 57.683,84.963 
		61.237,84.963 61.237,90.37 66.641,90.37 66.641,93.92 61.237,93.92 61.237,99.327 	"/>
	<polygon style="fill:#B3B3B3;" points="152.279,85.812 152.279,80.408 146.872,80.408 146.872,76.857 152.279,76.857 
		152.279,71.451 155.829,71.451 155.829,76.857 161.235,76.857 161.235,80.408 155.829,80.408 155.829,85.812 	"/>
</g>
<g>
</g>
<g>
</g>
<g>
</g>
<g>
</g>
<g>
</g>
<g>
</g>
<g>
</g>
<g>
</g>
<g>
</g>
<g>
</g>
<g>
</g>
<g>
</g>
<g>
</g>
<g>
</g>
<g>
</g>
</svg>
