<?xml version="1.0" encoding="iso-8859-1"?>
<!-- Generator: Adobe Illustrator 18.0.0, SVG Export Plug-In . SVG Version: 6.00 Build 0)  -->
<!DOCTYPE svg PUBLIC "-//W3C//DTD SVG 1.1//EN" "http://www.w3.org/Graphics/SVG/1.1/DTD/svg11.dtd">
<svg version="1.1" id="Layer_1" xmlns="http://www.w3.org/2000/svg" xmlns:xlink="http://www.w3.org/1999/xlink" x="0px" y="0px"
	 viewBox="0 0 200 200" style="enable-background:new 0 0 200 200;" xml:space="preserve">
<rect x="234.125" y="71.041" style="fill:#F15A24;" width="3.773" height="3.773"/>
<g>
	<path style="fill:#B3B3B3;" d="M74.986,167.493c-9.558,0-17.334-7.776-17.334-17.334s7.776-17.334,17.334-17.334
		c9.56,0,17.336,7.776,17.336,17.334S84.545,167.493,74.986,167.493z M74.986,136.226c-7.681,0-13.931,6.25-13.931,13.932
		c0,7.683,6.25,13.933,13.931,13.933c7.683,0,13.933-6.25,13.933-13.933C88.919,142.477,82.669,136.226,74.986,136.226z"/>
	<path style="fill:#B3B3B3;" d="M74.986,79.946c-9.558,0-17.334-7.776-17.334-17.334s7.776-17.335,17.334-17.335
		c9.56,0,17.336,7.777,17.336,17.335S84.545,79.946,74.986,79.946z M74.986,48.679c-7.681,0-13.931,6.25-13.931,13.933
		c0,7.682,6.25,13.932,13.931,13.932c7.683,0,13.933-6.25,13.933-13.932C88.919,54.929,82.669,48.679,74.986,48.679z"/>
	<path style="fill:#B3B3B3;" d="M24.959,167.493c-9.558,0-17.334-7.776-17.334-17.334s7.776-17.334,17.334-17.334
		s17.336,7.776,17.336,17.334S34.517,167.493,24.959,167.493z M24.959,136.226c-7.681,0-13.931,6.25-13.931,13.932
		c0,7.683,6.25,13.933,13.931,13.933c7.683,0,13.933-6.25,13.933-13.933C38.892,142.477,32.642,136.226,24.959,136.226z"/>
	<path style="fill:#B3B3B3;" d="M24.959,79.946c-9.558,0-17.334-7.776-17.334-17.334s7.776-17.335,17.334-17.335
		s17.336,7.777,17.336,17.335S34.517,79.946,24.959,79.946z M24.959,48.679c-7.681,0-13.931,6.25-13.931,13.933
		c0,7.682,6.25,13.932,13.931,13.932c7.683,0,13.933-6.25,13.933-13.932C38.892,54.929,32.642,48.679,24.959,48.679z"/>
	<path style="fill:#B3B3B3;" d="M125.014,123.719c-9.56,0-17.336-7.776-17.336-17.334s7.776-17.334,17.336-17.334
		c9.558,0,17.334,7.776,17.334,17.334S134.572,123.719,125.014,123.719z M125.014,92.452c-7.683,0-13.933,6.25-13.933,13.933
		c0,7.682,6.25,13.932,13.933,13.932c7.681,0,13.931-6.25,13.931-13.932C138.946,98.702,132.696,92.452,125.014,92.452z"/>
	<g>
		<path style="fill:#B3B3B3;" d="M125.014,167.493c-9.56,0-17.336-7.776-17.336-17.334s7.776-17.334,17.336-17.334
			c9.558,0,17.334,7.776,17.334,17.334S134.572,167.493,125.014,167.493z M125.014,136.226c-7.683,0-13.933,6.25-13.933,13.932
			c0,7.683,6.25,13.933,13.933,13.933c7.681,0,13.931-6.25,13.931-13.933C138.946,142.477,132.696,136.226,125.014,136.226z"/>
		<path style="fill:#B3B3B3;" d="M175.041,145.606c-9.558,0-17.336-7.776-17.336-17.334c0-3.648,1.143-7.156,3.307-10.145
			l-1.907-2.047l1.949,0.529l-23.792-41.638l-1.305,1.066c-3.084,2.521-6.971,3.909-10.944,3.909c-4.423,0-8.642-1.687-11.881-4.751
			l-0.89-0.841L87.092,93.916l0.984,1.136c2.74,3.161,4.248,7.185,4.248,11.333c0,9.558-7.776,17.334-17.334,17.334
			c-8.481,0-15.661-6.075-17.072-14.445l-0.2-1.188H42.233l-0.202,1.188c-1.415,8.37-8.595,14.445-17.072,14.445
			c-9.558,0-17.334-7.776-17.334-17.334s7.776-17.334,17.334-17.334c8.481,0,15.661,6.075,17.072,14.444l0.2,1.188h15.48
			l0.202-1.188c1.415-8.371,8.595-14.445,17.072-14.445c2.963,0,5.905,0.776,8.506,2.244l0.826,0.467l25.873-20.123l-0.55-1.055
			c-1.302-2.497-1.962-5.179-1.962-7.973c0-9.558,7.776-17.335,17.336-17.335c9.558,0,17.334,7.777,17.334,17.335
			c0,3.057-0.83,6.084-2.399,8.754l-0.418,0.713l24.443,42.781l1.277-0.879c2.895-1.992,6.281-3.044,9.789-3.044
			c0.901,0,1.846,0.086,2.889,0.261l1.662,0.281V73.097L152.463,61.04c-0.614-0.274-1.011-0.883-1.011-1.555
			s0.397-1.282,1.011-1.555l28.14-12.506c0.219-0.097,0.451-0.146,0.691-0.146c0.331,0,0.653,0.095,0.93,0.274
			c0.482,0.314,0.771,0.849,0.771,1.427v65.893l0.71,0.412c5.348,3.105,8.67,8.849,8.67,14.989
			C192.375,137.83,184.599,145.606,175.041,145.606z M175.041,114.339c-7.683,0-13.933,6.25-13.933,13.933
			c0,7.682,6.25,13.932,13.933,13.932c7.681,0,13.931-6.25,13.931-13.932c0-3.319-1.235-6.56-3.478-9.124l-2.499-2.857v10.556
			h-3.403v-11.739l-1.066-0.278C177.244,114.495,176.135,114.339,175.041,114.339z M74.986,92.452
			c-7.681,0-13.931,6.25-13.931,13.933c0,7.682,6.25,13.932,13.931,13.932c7.683,0,13.933-6.25,13.933-13.932
			C88.919,98.702,82.669,92.452,74.986,92.452z M24.959,92.452c-7.681,0-13.931,6.25-13.931,13.933
			c0,7.682,6.25,13.932,13.931,13.932c7.683,0,13.933-6.25,13.933-13.932C38.892,98.702,32.642,92.452,24.959,92.452z
			 M125.014,48.679c-7.683,0-13.933,6.25-13.933,13.933c0,7.682,6.25,13.932,13.933,13.932c7.681,0,13.931-6.25,13.931-13.932
			C138.946,54.929,132.696,48.679,125.014,48.679z M157.341,59.485l22.252,9.888V49.596L157.341,59.485z"/>
	</g>
	<rect x="160.833" y="154.711" style="fill:#B3B3B3;" width="3.401" height="3.401"/>
	<rect x="173.34" y="154.711" style="fill:#B3B3B3;" width="3.401" height="3.401"/>
	<rect x="185.847" y="154.711" style="fill:#B3B3B3;" width="3.401" height="3.401"/>
</g>
<g>
</g>
<g>
</g>
<g>
</g>
<g>
</g>
<g>
</g>
<g>
</g>
<g>
</g>
<g>
</g>
<g>
</g>
<g>
</g>
<g>
</g>
<g>
</g>
<g>
</g>
<g>
</g>
<g>
</g>
</svg>
