<?xml version="1.0" encoding="iso-8859-1"?>
<!-- Generator: Adobe Illustrator 18.0.0, SVG Export Plug-In . SVG Version: 6.00 Build 0)  -->
<!DOCTYPE svg PUBLIC "-//W3C//DTD SVG 1.1//EN" "http://www.w3.org/Graphics/SVG/1.1/DTD/svg11.dtd">
<svg version="1.1" id="Layer_1" xmlns="http://www.w3.org/2000/svg" xmlns:xlink="http://www.w3.org/1999/xlink" x="0px" y="0px"
	 viewBox="0 0 200 200" style="enable-background:new 0 0 200 200;" xml:space="preserve">
<rect x="234.125" y="71.041" style="fill:#F15A24;" width="3.773" height="3.773"/>
<g>
	<path style="fill:#B3B3B3;" d="M60.097,69.745c-8.093,0-14.676-6.584-14.676-14.676s6.584-14.676,14.676-14.676
		s14.676,6.584,14.676,14.676S68.19,69.745,60.097,69.745z M60.097,43.308c-6.485,0-11.761,5.276-11.761,11.761
		S53.613,66.83,60.097,66.83c6.485,0,11.761-5.276,11.761-11.761S66.583,43.308,60.097,43.308z"/>
	<circle style="fill:#B3B3B3;" cx="60.097" cy="89.437" r="1.458"/>
	<circle style="fill:#B3B3B3;" cx="60.097" cy="100.012" r="1.458"/>
	<g>
		<circle style="fill:#B3B3B3;" cx="60.097" cy="110.587" r="1.458"/>
		<path style="fill:#B3B3B3;" d="M73.319,175.494l-0.288-0.027l-11.257-2.253l-0.251,1.136c-0.147,0.664-0.746,1.145-1.425,1.145
			H46.879c-0.804,0-1.458-0.654-1.458-1.458v-54.643l-5.443,5.443c-0.278,0.276-0.62,0.43-0.961,0.43
			c-0.519-0.017-0.9-0.198-1.163-0.5l-12.761-14.585c-3.788-4.328-3.975-10.766-0.445-15.311l9.974-12.822
			c2.298-2.952,5.76-4.645,9.499-4.645h26.974c3.518,0,6.848,1.531,9.135,4.201l4.827,5.632l2.06-1.019
			c-1.354-6.351-2.041-12.825-2.041-19.243V20.701c0-0.467,0.226-0.909,0.606-1.181c0.255-0.185,0.547-0.281,0.853-0.281
			c0.155,0,0.309,0.025,0.456,0.075c14.28,4.744,29.247,7.148,44.487,7.148s30.207-2.404,44.483-7.147
			c0.148-0.05,0.299-0.075,0.453-0.075c0.305,0,0.61,0.099,0.86,0.279c0.378,0.273,0.603,0.715,0.603,1.182v46.276
			c0,32.277-17.045,62.87-45.595,81.837c-0.24,0.159-0.518,0.243-0.806,0.243s-0.566-0.085-0.807-0.244
			c-15.101-10.032-27.281-23.585-35.222-39.192l-0.408-0.802l-0.883,0.177c-0.853,0.171-1.622,0.262-2.351,0.278
			c-3.421-0.012-6.704-1.509-8.978-4.108l-8.056-9.203v19.716l7.88,28.896c0.069,0.25,0.069,0.513,0.001,0.763l-7.932,29.082
			C74.55,175.052,73.972,175.494,73.319,175.494z M46.879,90.622c0.191,0,0.379,0.038,0.558,0.112c0.547,0.226,0.9,0.754,0.9,1.347
			v80.498H58.64v-46.13c0-0.689,0.49-1.29,1.167-1.429l0.28-0.026c0.592,0,1.122,0.345,1.35,0.88l7.932,18.508
			c0.135,0.313,0.155,0.665,0.056,0.994l-7.472,24.902l10.313,2.062l7.47-27.384l-7.826-28.697c-0.033-0.123-0.05-0.252-0.05-0.383
			V92.081c0-0.605,0.379-1.152,0.944-1.364c0.166-0.061,0.338-0.093,0.514-0.093c0.422,0,0.821,0.181,1.097,0.497l10.61,12.127
			c1.723,1.967,4.211,3.1,6.825,3.113c1.117,0,2.242-0.218,3.348-0.649l0.111-0.049c1.34-0.543,2.48-1.336,3.391-2.359l12.27-13.807
			l-5.831-5.83L92.942,98.304c-0.12,0.143-0.262,0.259-0.422,0.346c-0.126,0.02-0.22,0.039-0.311,0.065l-0.178,0.055l-0.199,0.057
			c-0.391-0.001-0.807-0.183-1.071-0.459L78.019,83.502c-1.733-2.022-4.256-3.182-6.923-3.182H44.122
			c-2.794,0-5.485,1.316-7.199,3.519L26.95,96.664c-2.677,3.436-2.537,8.315,0.334,11.6l11.735,13.409l5.906-5.906l-9.76-12.199
			c-0.464-0.581-0.418-1.416,0.108-1.942l10.575-10.575C46.125,90.774,46.491,90.622,46.879,90.622z M61.556,139.332v14.049
			l2.322,0.341l2.603-8.677l-2.649-6.18L61.556,139.332z M105.078,80.046c0.358,0,0.72,0.157,0.993,0.43l7.931,7.931
			c0.546,0.545,0.572,1.422,0.06,1.998l-13.184,14.832c-0.477,0.535-1.053,1.053-1.763,1.583l-0.423,0.325l-0.898,0.584l0.419,1.01
			c7.412,14.394,18.682,27.066,32.593,36.647l0.673,0.463l0.673-0.463c26.808-18.467,42.813-47.779,42.813-78.409V22.715
			l-1.531,0.464c-13.533,4.11-27.649,6.195-41.955,6.195s-28.422-2.084-41.955-6.195l-1.531-0.464v44.261
			c0,8.535,1.242,17.08,3.691,25.398l0.628,2.13l11.61-13.933c0.261-0.312,0.646-0.502,1.056-0.521L105.078,80.046z M38.258,102.763
			l7.163,8.955V95.6L38.258,102.763z"/>
	</g>
	<path style="fill:#B3B3B3;" d="M126.191,67.102c-0.39,0-0.757-0.152-1.033-0.428c-2.521-2.524-5.743-4.86-12.185-4.86
		c-6.764,0-9.729,2.401-12.186,4.861c-0.276,0.274-0.643,0.426-1.033,0.426c-0.196,0-0.382-0.036-0.554-0.108
		c-0.552-0.228-0.904-0.756-0.904-1.349c0-4.895,6.345-14.676,14.676-14.676s14.676,9.781,14.676,14.676
		c0,0.592-0.353,1.121-0.899,1.346C126.569,67.065,126.382,67.102,126.191,67.102z M112.972,58.899c2.403,0,4.611,0.299,6.565,0.89
		l4.212,1.274l-3.001-3.218c-1.686-1.807-4.403-3.962-7.775-3.962c-3.359,0-6.068,2.139-7.748,3.934l-3.002,3.207l4.208-1.26
		C108.375,59.182,110.515,58.899,112.972,58.899z"/>
	<path style="fill:#B3B3B3;" d="M163.201,67.102c-0.39,0-0.756-0.152-1.032-0.428c-2.521-2.524-5.742-4.86-12.185-4.86
		c-6.765,0-9.729,2.401-12.186,4.861c-0.276,0.274-0.643,0.426-1.033,0.426c-0.196,0-0.382-0.036-0.552-0.108
		c-0.552-0.228-0.905-0.756-0.905-1.349c0-4.895,6.345-14.676,14.676-14.676s14.676,9.781,14.676,14.676
		c0,0.592-0.353,1.121-0.899,1.346C163.581,67.064,163.393,67.102,163.201,67.102z M149.984,58.899c2.403,0,4.611,0.299,6.565,0.89
		l4.211,1.274l-3-3.218c-1.685-1.807-4.402-3.962-7.775-3.962c-3.359,0-6.068,2.139-7.748,3.934l-3.002,3.206l4.208-1.26
		C145.387,59.182,147.526,58.899,149.984,58.899z"/>
	<path style="fill:#B3B3B3;" d="M131.478,119.976c-9.832,0-17.32-11.544-17.32-17.321c0-0.593,0.352-1.121,0.898-1.346
		c0.182-0.076,0.368-0.114,0.558-0.114c0.387,0,0.755,0.153,1.035,0.432c3.075,3.072,7.001,5.916,14.83,5.916
		c8.224,0,11.968-3.055,14.832-5.918c0.277-0.277,0.644-0.43,1.031-0.43c0.191,0,0.377,0.038,0.554,0.112
		c0.551,0.228,0.903,0.756,0.903,1.349C148.798,108.433,141.311,119.976,131.478,119.976z M120.531,110.589
		c3.129,4.113,7.12,6.472,10.948,6.472c3.809,0,7.786-2.341,10.911-6.424l2.638-3.446l-4.023,1.625
		c-2.741,1.107-5.856,1.645-9.525,1.645c-3.645,0-6.771-0.552-9.556-1.689l-4.024-1.642L120.531,110.589z"/>
	<rect x="93.008" y="148.785" style="fill:#B3B3B3;" width="2.916" height="2.915"/>
	<rect x="103.583" y="148.785" style="fill:#B3B3B3;" width="2.916" height="2.915"/>
	<rect x="114.158" y="148.785" style="fill:#B3B3B3;" width="2.915" height="2.915"/>
	<rect x="145.882" y="148.785" style="fill:#B3B3B3;" width="2.916" height="2.915"/>
	<rect x="156.458" y="148.785" style="fill:#B3B3B3;" width="2.915" height="2.915"/>
	<rect x="167.032" y="148.785" style="fill:#B3B3B3;" width="2.915" height="2.915"/>
	<rect x="119.445" y="159.36" style="fill:#B3B3B3;" width="2.916" height="2.916"/>
	<rect x="130.02" y="159.36" style="fill:#B3B3B3;" width="2.916" height="2.916"/>
	<rect x="140.595" y="159.36" style="fill:#B3B3B3;" width="2.915" height="2.916"/>
</g>
<g>
</g>
<g>
</g>
<g>
</g>
<g>
</g>
<g>
</g>
<g>
</g>
<g>
</g>
<g>
</g>
<g>
</g>
<g>
</g>
<g>
</g>
<g>
</g>
<g>
</g>
<g>
</g>
<g>
</g>
</svg>
