<?xml version="1.0" encoding="iso-8859-1"?>
<!-- Generator: Adobe Illustrator 18.0.0, SVG Export Plug-In . SVG Version: 6.00 Build 0)  -->
<!DOCTYPE svg PUBLIC "-//W3C//DTD SVG 1.1//EN" "http://www.w3.org/Graphics/SVG/1.1/DTD/svg11.dtd">
<svg version="1.1" id="Layer_1" xmlns="http://www.w3.org/2000/svg" xmlns:xlink="http://www.w3.org/1999/xlink" x="0px" y="0px"
	 viewBox="0 0 200 200" style="enable-background:new 0 0 200 200;" xml:space="preserve">
<rect x="234.125" y="71.041" style="fill:#F15A24;" width="3.773" height="3.773"/>
<g>
	<path style="fill:#B3B3B3;" d="M144.547,189.384v-48.986l-1.682,0.434c-5.682,1.464-9.651,6.587-9.651,12.458v14.4
		c0,0.845-0.688,1.534-1.534,1.534H87.133v20.16h-3.068v-20.16H51.039c-7.198,0-13.054-5.856-13.054-13.054V32.329
		c0-7.198,5.856-13.054,13.054-13.054h83.521c0.412,0,0.796,0.16,1.084,0.45l25.918,25.917c0.293,0.291,0.452,0.676,0.452,1.087
		V156.17c0,7.198-5.856,13.054-13.054,13.054h-1.346v20.16H144.547z M146.08,137.356c0.845,0,1.534,0.688,1.534,1.534v27.267h1.346
		c5.507,0,9.986-4.48,9.986-9.986V48.262H134.56c-0.845,0-1.534-0.688-1.534-1.534V22.342H51.039c-5.507,0-9.986,4.48-9.986,9.987
		V156.17c0,5.507,4.48,9.986,9.986,9.986h79.108V153.29C130.147,144.504,137.295,137.356,146.08,137.356z M136.094,45.195h20.685
		L136.094,24.51V45.195z"/>
	<path style="fill:#B3B3B3;" d="M53.92,79.943c-0.845,0-1.534-0.688-1.534-1.534V38.088c0-0.845,0.688-1.534,1.534-1.534h40.32
		c0.845,0,1.534,0.688,1.534,1.534v40.321c0,0.845-0.688,1.534-1.534,1.534H53.92z M74.08,48.075c4.021,0,7.294,3.272,7.294,7.294
		c0,1.57-0.521,3.085-1.508,4.384l-0.821,1.081l1.087,0.813c2.62,1.957,4.122,4.918,4.122,8.123v7.106h8.453V39.622H55.453v37.253
		h8.453v-7.106c0-3.205,1.502-6.166,4.122-8.123l1.087-0.813l-0.82-1.081c-0.987-1.299-1.508-2.814-1.508-4.384
		C66.786,51.347,70.058,48.075,74.08,48.075z M74.08,62.662c-3.919,0-7.107,3.188-7.107,7.107v7.106h14.214v-7.106
		C81.186,65.85,77.999,62.662,74.08,62.662z M74.08,51.142c-2.331,0-4.227,1.896-4.227,4.227s1.896,4.227,4.227,4.227
		s4.227-1.896,4.227-4.227S76.41,51.142,74.08,51.142z"/>
	<rect x="104.227" y="45.195" style="fill:#B3B3B3;" width="11.707" height="3.067"/>
	<rect x="104.227" y="56.715" style="fill:#B3B3B3;" width="14.587" height="3.067"/>
	<rect x="127.267" y="56.715" style="fill:#B3B3B3;" width="11.707" height="3.067"/>
	<rect x="104.227" y="68.235" style="fill:#B3B3B3;" width="34.748" height="3.067"/>
	<rect x="66.786" y="91.276" style="fill:#B3B3B3;" width="20.347" height="3.068"/>
	<rect x="95.586" y="91.276" style="fill:#B3B3B3;" width="14.588" height="3.068"/>
	<rect x="118.627" y="91.276" style="fill:#B3B3B3;" width="26.107" height="3.068"/>
	<rect x="55.266" y="102.796" style="fill:#B3B3B3;" width="20.347" height="3.068"/>
	<rect x="84.066" y="102.796" style="fill:#B3B3B3;" width="43.388" height="3.068"/>
	<rect x="135.907" y="102.796" style="fill:#B3B3B3;" width="8.827" height="3.068"/>
	<rect x="55.266" y="114.316" style="fill:#B3B3B3;" width="8.827" height="3.068"/>
	<rect x="72.546" y="114.316" style="fill:#B3B3B3;" width="31.868" height="3.068"/>
	<rect x="112.867" y="114.316" style="fill:#B3B3B3;" width="31.868" height="3.068"/>
	<rect x="55.266" y="125.836" style="fill:#B3B3B3;" width="8.827" height="3.068"/>
	<rect x="72.546" y="125.836" style="fill:#B3B3B3;" width="31.868" height="3.068"/>
	<rect x="112.867" y="125.836" style="fill:#B3B3B3;" width="31.868" height="3.068"/>
	<rect x="55.266" y="137.356" style="fill:#B3B3B3;" width="23.228" height="3.068"/>
	<rect x="86.946" y="137.356" style="fill:#B3B3B3;" width="37.628" height="3.068"/>
	<rect x="55.266" y="148.876" style="fill:#B3B3B3;" width="8.827" height="3.068"/>
	<rect x="72.546" y="148.876" style="fill:#B3B3B3;" width="46.268" height="3.068"/>
</g>
<g>
</g>
<g>
</g>
<g>
</g>
<g>
</g>
<g>
</g>
<g>
</g>
<g>
</g>
<g>
</g>
<g>
</g>
<g>
</g>
<g>
</g>
<g>
</g>
<g>
</g>
<g>
</g>
<g>
</g>
</svg>
