<?xml version="1.0" encoding="iso-8859-1"?>
<!-- Generator: Adobe Illustrator 18.0.0, SVG Export Plug-In . SVG Version: 6.00 Build 0)  -->
<!DOCTYPE svg PUBLIC "-//W3C//DTD SVG 1.1//EN" "http://www.w3.org/Graphics/SVG/1.1/DTD/svg11.dtd">
<svg version="1.1" id="Layer_1" xmlns="http://www.w3.org/2000/svg" xmlns:xlink="http://www.w3.org/1999/xlink" x="0px" y="0px"
	 viewBox="0 0 200 200" style="enable-background:new 0 0 200 200;" xml:space="preserve">
<rect x="234.125" y="71.041" style="fill:#F15A24;" width="3.773" height="3.773"/>
<g>
	<polygon style="fill:#B3B3B3;" points="93.747,82.999 93.747,82.998 93.747,82.998 	"/>
	<polygon style="fill:#B3B3B3;" points="84.547,91.982 84.547,91.982 84.547,91.981 	"/>
	<polygon style="fill:#B3B3B3;" points="76.638,78.079 76.638,78.079 76.638,78.078 	"/>
	<g>
		<path style="fill:#B3B3B3;" d="M165.347,143.279c0-7.874-6.405-14.279-14.279-14.279c-4.786,0-9.235,2.395-11.9,6.404l-0.85,1.278
			l-0.85-1.278c-1.704-2.564-4.063-4.541-6.965-5.57L130,129.593V120h5v-4h-5V99h5v-3H99.017l2.241-1.8
			c0.095-0.077,0.199-0.2,0.298-0.2h0.003l0.16-0.202l0.008-0.05l14.66-13.053c0.313-0.278,0.549-0.688,0.562-1.109L117,79.575
			v-0.044c0-0.404-0.211-0.795-0.497-1.081l-7.675-7.65c-0.289-0.289-0.689-0.449-1.098-0.449c-0.349,0-0.688,0.117-0.96,0.335
			l-11.495,9.213L84,64.841v0.018c-2.375-3.151-6.3-4.963-9.975-4.963H45.976C39.508,59.897,35,65.413,35,71.881v15.3
			c0,2.522,0.73,5.03,2.305,7.108L38.44,96H26.121C25.277,96,25,96.537,25,97.381V155h3v-35h99v9h-1.431
			c-4.786,0-9.236,2.395-11.9,6.404l-0.85,1.279l-0.849-1.279c-2.663-4.009-7.112-6.403-11.9-6.403c-4.786,0-9.235,2.395-11.9,6.404
			l-0.85,1.279l-0.849-1.279c-2.663-4.009-7.112-6.403-11.9-6.403c-4.786,0-9.235,2.395-11.9,6.404h0l-0.85,1.279l-0.849-1.279l0,0
			c-2.663-4.009-7.112-6.403-11.9-6.403c-7.874,0-14.279,6.405-14.279,14.279c0,4.786,2.395,9.235,6.404,11.9l1.278,0.85
			l-1.174,0.85c-4.009,2.664-6.3,7.114-6.3,11.9V175h3v-6.221c0-3.094,1.183-5.898,3.215-7.93c2.032-2.032,4.799-3.29,7.893-3.29
			c3.094,0,6.233,1.258,8.266,3.29c2.032,2.032,3.626,4.837,3.626,7.93V175h2v-6.221c0-3.094,1.433-5.898,3.465-7.93
			c2.032-2.032,4.924-3.29,8.017-3.29c3.094,0,6.046,1.258,8.079,3.29c2.032,2.032,3.439,4.836,3.439,7.93V175h3v-6.221
			c0-3.094,1.183-5.898,3.215-7.93c2.032-2.032,4.799-3.29,7.892-3.29c3.094,0,5.734,1.258,7.766,3.29
			c2.032,2.032,3.127,4.837,3.127,7.93V175h3v-6.221c0-3.094,1.432-5.898,3.464-7.93c2.032-2.032,4.924-3.29,8.017-3.29
			c3.094,0,6.047,1.258,8.079,3.29c2.032,2.032,3.439,4.837,3.439,7.93V175h2v-6.221c0-3.094,1.682-5.898,3.714-7.93
			c2.032-2.032,5.048-3.29,8.142-3.29c3.094,0,5.86,1.258,7.892,3.29c2.032,2.032,3.252,4.836,3.252,7.93V175h0.474H165v-6.221
			c0-4.786-2.221-9.236-6.23-11.9l-1.191-0.85l1.322-0.85C162.909,152.515,165.348,148.065,165.347,143.279z M78,84.121l6.222,7.86
			c0.52,0.696,1.352,1.442,2.205,2.128L88.849,96H78V84.121z M46.521,63h6.784L61,75.194v0.013c0,0.458,0.462,0.747,0.998,0.748
			c0.535,0,1.002-0.28,1.002-0.738v0.134L70.335,63h4.235c2.705-0.011,4.519,1.425,6.43,3.651v0.013l12.494,16.328
			c0.246,0.328,0.74,0.548,1.127,0.6l0.069,0.002l0.227-0.291L94.955,83h0.006c0.352,0,0.693,0.187,0.963-0.029l11.68-9.192
			l5.534,5.609L99.686,91.386c-1.615,1.434-3.591,2.208-5.728,2.209c-0.295,0-0.598-0.006-0.899-0.036
			c-2.441-0.246-4.764-1.456-6.24-3.42L78,78.609v0.001c0-0.384-0.57-0.613-1.048-0.613c-0.164,0-0.537,0.028-0.695,0.081
			C75.631,78.288,75,78.872,75,79.531V96H63v-8.819C63,86.337,62.664,86,61.82,86H48V75h-3v12.181C45,88.025,45.677,89,46.521,89H61
			v7H46.521c-2.391,0-4.483-1.046-6.053-2.617C38.897,91.813,38,89.572,38,87.181v-15.3c0-2.391,0.897-4.663,2.468-6.233
			C42.038,64.078,44.13,63,46.521,63z M61.82,71.249L56.872,63h9.897L61.82,71.249z M127,99v17H28V99H127z M49.071,132.059
			c3.094,0,5.898,1.258,7.93,3.29c2.032,2.032,3.29,4.836,3.29,7.93c0,3.094-1.258,5.898-3.29,7.93
			c-2.032,2.032-4.836,3.29-7.93,3.29c-3.094,0-5.898-1.258-7.93-3.29c-2.032-2.032-3.29-4.836-3.29-7.93
			c0-3.094,1.258-5.898,3.29-7.93C43.173,133.317,45.977,132.059,49.071,132.059z M62.67,160.903L62.67,160.903l-0.85,1.279
			l-0.85-1.279c-1.066-1.605-2.42-2.959-4.024-4.024l-1.28-0.85l1.28-0.85l0,0c1.603-1.064,2.958-2.419,4.024-4.024v0l0.85-1.279
			l0.85,1.279c1.066,1.605,2.421,2.959,4.024,4.024v0l1.28,0.85l-1.28,0.85l0,0C65.091,157.944,63.736,159.298,62.67,160.903z
			 M74.57,132.059c3.094,0,5.898,1.258,7.93,3.29c2.032,2.032,3.29,4.836,3.29,7.93c0,3.094-1.258,5.898-3.29,7.93
			c-2.032,2.032-4.836,3.29-7.93,3.29c-3.094,0-5.898-1.258-7.93-3.29c-2.032-2.032-3.29-4.836-3.29-7.93
			c0-3.094,1.258-5.898,3.29-7.93C68.672,133.317,71.476,132.059,74.57,132.059z M86.47,151.155l0.85-1.28l0.85,1.28
			c1.065,1.604,2.42,2.959,4.024,4.024l1.28,0.85l-1.28,0.85c-1.605,1.066-2.959,2.421-4.024,4.024l-0.85,1.28l-0.85-1.28
			c-1.065-1.603-2.419-2.958-4.024-4.024l-1.28-0.85l1.28-0.85C84.05,154.114,85.404,152.76,86.47,151.155l-0.155-0.103
			L86.47,151.155z M100.069,132.059c3.094,0,5.898,1.258,7.93,3.29c2.032,2.032,3.29,4.836,3.29,7.93c0,3.094-1.258,5.898-3.29,7.93
			c-2.032,2.032-4.836,3.29-7.93,3.29c-3.094,0-5.898-1.258-7.93-3.29c-2.032-2.032-3.29-4.836-3.29-7.93
			c0-3.094,1.258-5.898,3.29-7.93C94.172,133.317,96.976,132.059,100.069,132.059z M107.945,155.179
			c1.604-1.065,2.959-2.42,4.024-4.024l0.85-1.28l0.85,1.28c1.066,1.604,2.42,2.959,4.024,4.024l1.28,0.85l-1.28,0.85
			c-1.604,1.066-2.959,2.421-4.024,4.024l-0.85,1.28l-0.85-1.28c-1.064-1.604-2.419-2.958-4.024-4.024l-1.28-0.85L107.945,155.179z
			 M125.569,132.059c3.094,0,5.898,1.258,7.93,3.29c2.032,2.032,3.29,4.836,3.29,7.93c0,3.094-1.258,5.898-3.29,7.93
			c-2.032,2.032-4.836,3.29-7.93,3.29c-3.094,0-5.898-1.258-7.93-3.29c-2.032-2.032-3.29-4.836-3.29-7.93
			c0-3.094,1.258-5.898,3.29-7.93C119.671,133.317,122.475,132.059,125.569,132.059z M133.444,155.179
			c1.603-1.064,2.958-2.418,4.024-4.024h0l0.85-1.279l0.85,1.279c1.066,1.605,2.421,2.959,4.024,4.024l1.28,0.85l-1.28,0.85
			c-1.604,1.065-2.958,2.42-4.024,4.024l-0.85,1.279l-0.85-1.279c-1.066-1.605-2.42-2.959-4.024-4.024l-1.28-0.85L133.444,155.179z
			 M151.068,132.059c3.094,0,5.898,1.258,7.93,3.29c2.032,2.032,3.29,4.836,3.29,7.93c0,3.094-1.258,5.898-3.29,7.93
			c-2.032,2.032-4.836,3.29-7.93,3.29c-3.094,0-5.898-1.258-7.93-3.29c-2.032-2.032-3.29-4.836-3.29-7.93
			c0-3.094,1.258-5.898,3.29-7.93C145.17,133.317,147.974,132.059,151.068,132.059z"/>
	</g>
	<polygon style="fill:#B3B3B3;" points="120,109 120,106 117,106 117,109 116.575,109 	"/>
	<polygon style="fill:#B3B3B3;" points="109,109 109,106 106,106 106,109 106.375,109 	"/>
	<polygon style="fill:#B3B3B3;" points="99,109 99,106 96,106 96,109 96.176,109 	"/>
	<path style="fill:#B3B3B3;" d="M61.82,53.012c7.874,0,14.279-6.405,14.279-14.28c0-7.874-6.405-14.279-14.279-14.279
		c-7.874,0-14.279,6.405-14.279,14.279C47.542,46.606,53.946,53.011,61.82,53.012z M61.82,27.512c3.094,0,5.898,1.258,7.93,3.29
		c2.032,2.032,3.29,4.836,3.29,7.93c0,3.094-1.258,5.898-3.29,7.93c-2.032,2.032-4.836,3.29-7.93,3.29
		c-3.094,0-5.897-1.258-7.93-3.29c-2.032-2.032-3.29-4.836-3.29-7.93c0-3.094,1.258-5.898,3.29-7.93
		C55.923,28.77,58.727,27.512,61.82,27.512z"/>
	<path style="fill:#B3B3B3;" d="M168.918,42.302c-1.342,0-2.641,0.407-3.752,1.176l-0.497,0.343l-17.338-8.671l0.123-1.027
		c0.022-0.162,0.044-0.323,0.044-0.492c0-3.656-2.973-6.629-6.629-6.629c-3.656,0-6.629,2.973-6.629,6.629
		c0,1.63,0.622,3.208,1.748,4.443l0.538,0.59l-9.003,13.502l-0.445,0.518l-0.631-0.094c-0.302-0.044-0.595-0.088-0.877-0.089
		c-2.569,0-4.927,1.523-6.012,3.878l0,0l-0.366,0.795l-15.143-4.336l0.005-0.84H104c0,0,0-0.188,0-0.282v-0.001V52h0.053
		c0,0,0.057-0.278,0.057-0.354c0-3.656-2.954-6.712-6.61-6.712c-3.656,0-6.619,2.932-6.62,6.589c0,3.656,2.978,6.609,6.634,6.609
		c1.797,0,3.49-0.731,4.755-2.036l0.427-0.444l16.358,4.671l0.152,0.552l0-0.001c0.789,2.877,3.403,4.886,6.363,4.887
		c3.656,0,6.629-2.974,6.629-6.63c0-1.63-0.622-3.208-1.748-4.443l-0.537-0.59l9.002-13.502l0.445-0.517l0.638,0.094
		c0.3,0.044,0.59,0.087,0.87,0.087c1.709,0,3.34-0.664,4.589-1.867l0.519-0.5l16.831,8.417l-0.233,0.815
		c-0.194,0.679-0.287,1.255-0.287,1.806c0,3.656,2.973,6.629,6.629,6.629c3.656,0,6.629-2.973,6.629-6.629
		C175.547,45.276,172.574,42.303,168.918,42.302z M171.441,51.455c-0.647,0.647-1.539,1.047-2.523,1.047
		c-0.985,0-1.876-0.4-2.523-1.047c-0.647-0.647-1.047-1.539-1.047-2.523c0-0.985,0.4-1.876,1.047-2.524
		c0.647-0.647,1.539-1.047,2.523-1.047c0.985,0,1.876,0.4,2.523,1.047c0.647,0.647,1.047,1.539,1.047,2.524
		C172.488,49.917,172.088,50.808,171.441,51.455z M143.392,36.155c-0.647,0.647-1.539,1.047-2.523,1.047
		c-0.985,0-1.876-0.4-2.523-1.047c-0.647-0.647-1.047-1.539-1.047-2.523c0-0.985,0.4-1.876,1.047-2.523
		c0.647-0.647,1.539-1.047,2.523-1.047c0.985,0,1.876,0.4,2.523,1.047c0.647,0.647,1.047,1.539,1.047,2.523
		C144.438,34.617,144.038,35.508,143.392,36.155z M128.092,61.655c-0.647,0.647-1.539,1.047-2.523,1.047
		c-0.985,0-1.876-0.4-2.523-1.047c-0.647-0.647-1.047-1.539-1.047-2.523c0-0.985,0.4-1.876,1.047-2.523
		c0.647-0.647,1.539-1.047,2.523-1.047c0.985,0,1.876,0.4,2.523,1.047c0.647,0.647,1.047,1.539,1.047,2.523
		C129.139,60.116,128.739,61.008,128.092,61.655z M94.996,48.959c0.647-0.647,1.539-1.047,2.523-1.047
		c0.985,0,1.876,0.4,2.523,1.047c0.647,0.647,1.047,1.539,1.047,2.523c0,0.985-0.4,1.876-1.047,2.523
		c-0.647,0.647-1.539,1.047-2.523,1.047c-0.985,0-1.876-0.4-2.523-1.047c-0.647-0.647-1.047-1.539-1.047-2.523
		C93.949,50.497,94.349,49.606,94.996,48.959z"/>
	<polygon style="fill:#B3B3B3;" points="167,68 167.574,68 170,68 170,65 167,65 	"/>
	<polygon style="fill:#B3B3B3;" points="160,65 157,65 157,68 157.374,68 160,68 	"/>
	<polygon style="fill:#B3B3B3;" points="150,65 146,65 146,68 147.174,68 150,68 	"/>
</g>
<g>
</g>
<g>
</g>
<g>
</g>
<g>
</g>
<g>
</g>
<g>
</g>
<g>
</g>
<g>
</g>
<g>
</g>
<g>
</g>
<g>
</g>
<g>
</g>
<g>
</g>
<g>
</g>
<g>
</g>
</svg>
