<?xml version="1.0" encoding="iso-8859-1"?>
<!-- Generator: Adobe Illustrator 18.0.0, SVG Export Plug-In . SVG Version: 6.00 Build 0)  -->
<!DOCTYPE svg PUBLIC "-//W3C//DTD SVG 1.1//EN" "http://www.w3.org/Graphics/SVG/1.1/DTD/svg11.dtd">
<svg version="1.1" id="Layer_1" xmlns="http://www.w3.org/2000/svg" xmlns:xlink="http://www.w3.org/1999/xlink" x="0px" y="0px"
	 viewBox="0 0 200 200" style="enable-background:new 0 0 200 200;" xml:space="preserve">
<rect x="234.125" y="71.041" style="fill:#F15A24;" width="3.773" height="3.773"/>
<g>
	<g>
		<path style="fill:#B3B3B3;" d="M42.598,98.119l9.199-9.588h49.686l-0.187-3.219H51.609L42,75.972v0.04
			C42,75.709,41.877,75,41.446,75H18.511c-0.66,0-1.252,0.63-1.504,1.24c-0.084,0.202,0.195,0.532,0.195,0.742
			c0,0.423-0.202,0.97,0.798,1.282v-0.006l8.723,9.039l-9.202,9.041c-0.312,0.312-0.559,0.727-0.558,1.15
			c0,0.21,0.001,0.364,0.085,0.566C17.299,98.663,17.851,99,18.511,99h22.935C41.877,99,42.295,98.424,42.598,98.119z
			 M29.856,88.515c0.317-0.317,0.476-0.771,0.476-1.187c0-0.416-0.159-0.851-0.476-1.168l-0.12,0.111l0.119,0.012L22.442,79h18.331
			l8.566,8.5L40.772,96H22.442L29.856,88.515z"/>
	</g>
	<path style="fill:#B3B3B3;" d="M56.61,95.59l-3.218,0.511l0.031,0.17c2.086,11.527,8.124,21.974,17.018,29.434
		c8.946,7.503,20.369,11.635,32.166,11.635c27.597,0,50.047-22.451,50.047-50.047c0-27.597-22.451-50.047-50.047-50.047
		c-11.797,0-23.22,4.132-32.166,11.635c-8.894,7.46-14.933,17.907-17.018,29.434l-0.031,0.17l3.218,0.511l0.03-0.163
		c4.049-22.221,23.355-38.331,45.967-38.331c12.901,0,24.597,5.247,33.071,13.72c8.473,8.473,13.72,20.17,13.72,33.07
		c0,12.9-5.247,24.597-13.72,33.07c-8.473,8.473-20.17,13.72-33.071,13.72c-22.613,0-41.919-16.11-45.967-38.331L56.61,95.59z"/>
	<path style="fill:#B3B3B3;" d="M66.976,95.673l-0.037-0.16l-3.192,0.649l0.039,0.169c2.008,8.653,7.159,16.488,14.162,22.079
		c7.058,5.634,16.053,8.736,25.053,8.737v-0.169v0.169c21,0,39.657-17.878,39.657-39.853c0-21.976-17.976-39.853-39.952-39.854
		c-8.972,0-17.848,3.103-24.905,8.737c-7.003,5.591-11.982,13.425-13.99,22.079l-0.052,0.169l3.186,0.649l0.034-0.16
		c3.834-16.357,18.795-28.218,35.63-28.217c10.09,0,19.238,4.104,25.866,10.731c6.627,6.627,10.731,15.776,10.731,25.866
		c0,10.09-4.104,19.238-10.732,25.866c-6.628,6.627-15.776,10.731-25.866,10.731C85.773,123.891,70.81,112.03,66.976,95.673z"/>
	<path style="fill:#B3B3B3;" d="M85.66,95.315l-0.068-0.145l-3.023,1.226l0.075,0.161c1.759,3.799,4.531,6.995,8.025,9.25
		c3.549,2.291,7.678,3.501,11.939,3.501c12.14,0,22.015-9.876,22.015-22.015c0-12.14-9.875-22.015-22.015-22.015v0
		c-4.26,0-8.389,1.211-11.939,3.501c-3.494,2.254-6.266,5.451-8.025,9.25l-0.075,0.161l3.023,1.226l0.068-0.145
		c3.13-6.629,9.605-10.736,16.947-10.737c5.172,0,9.861,2.103,13.258,5.501c3.397,3.397,5.501,8.086,5.501,13.258
		c0,5.172-2.103,9.861-5.501,13.258c-3.397,3.397-8.086,5.501-13.258,5.501C95.265,106.051,88.79,101.944,85.66,95.315z"/>
	<path style="fill:#B3B3B3;" d="M102.607,95.858c-1.726,0-3.322-0.499-4.76-1.488l-0.124-0.085l-2.15,2.461l0.15,0.109
		c2.012,1.459,4.447,2.261,6.884,2.261c6.519,0,11.822-5.303,11.822-11.821c0-6.519-5.303-11.821-11.822-11.822
		c-2.436,0-4.872,0.802-6.886,2.261l-0.15,0.109l2.15,2.461l0.124-0.085c1.44-0.989,3.036-1.488,4.761-1.489
		c2.362,0,4.502,0.96,6.054,2.512c1.551,1.552,2.512,3.692,2.512,6.054c0,2.362-0.96,4.502-2.512,6.054
		C107.109,94.898,104.969,95.858,102.607,95.858z"/>
	<path style="fill:#B3B3B3;" d="M167.944,87.293c0-36.027-29.31-65.337-65.337-65.337c-7.015,0-13.956,1.138-20.631,3.384
		c-6.509,2.189-12.623,5.381-18.173,9.486c-5.547,4.102-10.387,9.011-14.385,14.59c-4.064,5.67-7.165,11.907-9.218,18.539
		l-0.051,0.164l3.126,0.911l0.049-0.159c7.982-25.712,32.34-43.659,59.282-43.659c17.116,0,32.635,6.962,43.877,18.204
		c11.242,11.242,18.204,26.761,18.204,43.877c0,17.116-6.962,32.635-18.204,43.877c-11.242,11.242-26.761,18.204-43.877,18.204
		c-26.941,0.001-51.3-17.945-59.285-43.656l-0.049-0.159l-3.126,0.911l0.051,0.164c4.79,15.47,15.245,28.582,29.454,36.934
		l0.714,0.42l-9.545,20.995v0c-0.412,0.906-0.561,1.876-0.561,2.846c0,1.021-0.26,2.042,0.74,2.988v-0.065
		c1,1.843,2.422,3.248,4.409,3.248h0.002h-0.002c0.566,0,1.136,0.461,1.697,0.461c2.6,0,4.948-1.335,6.121-3.68l10.562-21.059
		l0.736,0.245c6.02,1.746,12.103,2.648,18.081,2.648c6.243,0,12.458-0.893,18.47-2.669l0.739-0.214l10.581,21.165
		c1.172,2.346,3.519,3.807,6.121,3.807c0.571,0,1.142-0.071,1.697-0.212c1.987-0.497,3.637-1.84,4.524-3.685
		c0.456-0.943,0.684-1.961,0.684-2.981c0-0.97-0.206-1.941-0.62-2.85l-9.587-21.093l0.708-0.421
		C155.676,131.705,167.944,110.185,167.944,87.293z M131.499,145.87l0.853-0.423l9.489,20.882c0.22,0.486,0.329,0.992,0.329,1.497
		c0,0.532-0.34,1.01-0.583,1.515c-0.477,0.989-1.588,1.842-2.588,1.842V171h0.437c-0.299,0-0.606,0.283-0.911,0.283
		c-1.361,0-2.591-0.685-3.216-1.926l-10.374-20.71l0.948-0.342C127.817,147.565,129.706,146.76,131.499,145.87L131.499,145.87z
		 M67.078,171.222c-0.291,0-0.496,0.075-0.784,0.005c-1.067-0.268-2.295-0.899-2.295-1.885v0.028c0-0.507-0.349-1.024-0.349-1.555
		c0-0.506,0.349-1.004,0.349-1.489v0.003l9.345-20.793l0.798,0.416c1.819,0.89,3.686,1.709,5.601,2.434l0.94,0.139L70.322,169
		h-0.001C69.701,171,68.46,171.222,67.078,171.222z"/>
	<polygon style="fill:#B3B3B3;" points="140.215,174.491 140.215,174.492 140.215,174.492 	"/>
	<polygon style="fill:#B3B3B3;" points="111,163 111.342,163 115,163 115,159 111,159 	"/>
	<polygon style="fill:#B3B3B3;" points="101,163 101.148,163 104,163 104,159 101,159 	"/>
	<polygon style="fill:#B3B3B3;" points="91,163 90.955,163 94,163 94,159 91,159 	"/>
</g>
<g>
</g>
<g>
</g>
<g>
</g>
<g>
</g>
<g>
</g>
<g>
</g>
<g>
</g>
<g>
</g>
<g>
</g>
<g>
</g>
<g>
</g>
<g>
</g>
<g>
</g>
<g>
</g>
<g>
</g>
</svg>
