<?xml version="1.0" encoding="iso-8859-1"?>
<!-- Generator: Adobe Illustrator 18.0.0, SVG Export Plug-In . SVG Version: 6.00 Build 0)  -->
<!DOCTYPE svg PUBLIC "-//W3C//DTD SVG 1.1//EN" "http://www.w3.org/Graphics/SVG/1.1/DTD/svg11.dtd">
<svg version="1.1" id="Layer_1" xmlns="http://www.w3.org/2000/svg" xmlns:xlink="http://www.w3.org/1999/xlink" x="0px" y="0px"
	 viewBox="0 0 200 200" style="enable-background:new 0 0 200 200;" xml:space="preserve">
<rect x="234.125" y="71.041" style="fill:#F15A24;" width="3.773" height="3.773"/>
<g>
	<path style="fill:#B3B3B3;" d="M79.581,63.032c-7.764,0-14.08-6.316-14.08-14.08c0-7.764,6.316-14.08,14.08-14.08
		s14.08,6.316,14.08,14.08C93.661,56.716,87.345,63.032,79.581,63.032z M79.581,37.508c-6.31,0-11.444,5.134-11.444,11.444
		c0,6.31,5.134,11.444,11.444,11.444c6.31,0,11.444-5.134,11.444-11.444C91.024,42.642,85.891,37.508,79.581,37.508z"/>
	<path style="fill:#B3B3B3;" d="M79.581,63.032v-0.196c-3.828,0-7.298-1.557-9.813-4.071c-2.515-2.515-4.071-5.985-4.071-9.813
		c0-3.828,1.557-7.298,4.071-9.813c2.515-2.515,5.985-4.071,9.813-4.071c3.828,0,7.298,1.557,9.813,4.071
		c2.515,2.515,4.071,5.985,4.071,9.813c0,3.828-1.557,7.298-4.071,9.813c-2.515,2.514-5.985,4.071-9.813,4.071V63.032v0.196
		c7.872,0,14.276-6.403,14.276-14.276c0-7.872-6.404-14.276-14.276-14.276c-7.872,0-14.276,6.404-14.276,14.276
		c0,7.872,6.404,14.275,14.276,14.276L79.581,63.032z M79.581,37.508v-0.196c-6.419,0-11.639,5.221-11.64,11.64
		c0,6.419,5.221,11.639,11.64,11.64c6.419,0,11.639-5.221,11.64-11.64c0-6.419-5.221-11.64-11.64-11.64V37.508v0.196
		c3.101,0,5.912,1.261,7.95,3.298c2.037,2.038,3.298,4.848,3.298,7.95c0,3.101-1.261,5.912-3.298,7.95
		c-2.037,2.037-4.848,3.298-7.95,3.298c-3.101,0-5.912-1.261-7.95-3.298c-2.037-2.037-3.298-4.848-3.298-7.95
		c0-3.102,1.261-5.912,3.298-7.95c2.037-2.037,4.848-3.298,7.95-3.298V37.508z"/>
	<path style="fill:#B3B3B3;" d="M162.492,175.338v-6.423c0-6.31-5.134-11.444-11.444-11.444c-6.31,0-11.444,5.134-11.444,11.444
		v6.423h-2.636v-6.423c0-6.31-5.134-11.444-11.444-11.444c-6.31,0-11.444,5.134-11.444,11.444v6.423h-2.636v-6.423
		c0-6.31-5.134-11.444-11.444-11.444c-6.31,0-11.444,5.134-11.444,11.444v6.423H85.92v-6.423c0-6.31-5.134-11.444-11.444-11.444
		c-6.31,0-11.444,5.134-11.444,11.444v6.423h-2.636v-6.423c0-6.31-5.134-11.444-11.444-11.444s-11.444,5.134-11.444,11.444v6.423
		h-2.636v-6.423c0-4.72,2.361-9.106,6.315-11.734l1.546-1.028l-1.546-1.028c-3.954-2.628-6.315-7.014-6.315-11.734
		c0-6.886,4.935-12.718,11.733-13.868l1.029-0.173v-10.164H25.98c-0.727,0-1.318-0.592-1.318-1.319V25.98
		c0-0.727,0.591-1.318,1.318-1.318H174.02c0.727,0,1.318,0.591,1.318,1.318v91.886c0,0.727-0.591,1.319-1.318,1.319h-21.654v10.164
		l1.029,0.173c6.799,1.149,11.733,6.982,11.733,13.868c0,4.721-2.361,9.108-6.314,11.734l-1.548,1.028l1.547,1.029
		c3.954,2.628,6.315,7.014,6.315,11.734v6.423H162.492z M111.734,151.156c-1.051,1.582-2.386,2.917-3.968,3.968l-1.548,1.028
		l1.548,1.028c1.582,1.051,2.918,2.386,3.968,3.968l1.028,1.548l1.028-1.548c1.051-1.582,2.386-2.917,3.968-3.968l1.548-1.028
		l-1.548-1.028c-1.582-1.051-2.917-2.386-3.968-3.968l-1.028-1.548L111.734,151.156z M86.21,151.156
		c-1.051,1.582-2.386,2.917-3.968,3.968l-1.548,1.028l1.548,1.028c1.582,1.051,2.918,2.386,3.968,3.968l1.028,1.548l1.028-1.548
		c1.051-1.582,2.386-2.917,3.968-3.968l1.548-1.028l-1.548-1.028c-1.582-1.051-2.917-2.386-3.968-3.968l-1.028-1.548L86.21,151.156z
		 M60.686,151.156c-1.05,1.582-2.386,2.917-3.968,3.968l-1.548,1.028l1.548,1.028c1.583,1.051,2.918,2.386,3.968,3.968l1.028,1.548
		l1.028-1.548c1.051-1.582,2.386-2.917,3.968-3.968l1.548-1.028l-1.548-1.028c-1.582-1.051-2.917-2.386-3.968-3.968l-1.028-1.548
		L60.686,151.156z M137.257,151.156c-1.05,1.582-2.386,2.917-3.968,3.968l-1.548,1.028l1.548,1.028
		c1.583,1.051,2.918,2.386,3.968,3.968l1.028,1.548l1.028-1.548c1.051-1.582,2.386-2.917,3.968-3.968l1.548-1.028l-1.548-1.028
		c-1.582-1.051-2.917-2.386-3.968-3.968l-1.028-1.548L137.257,151.156z M151.048,131.947c-6.31,0-11.444,5.134-11.444,11.444
		c0,6.31,5.134,11.444,11.444,11.444c6.31,0,11.444-5.134,11.444-11.444C162.492,137.08,157.358,131.947,151.048,131.947z
		 M125.524,131.947c-6.31,0-11.444,5.134-11.444,11.444c0,6.31,5.134,11.444,11.444,11.444c6.31,0,11.444-5.134,11.444-11.444
		C136.968,137.08,131.834,131.947,125.524,131.947z M100,131.947c-6.31,0-11.444,5.134-11.444,11.444
		c0,6.31,5.134,11.444,11.444,11.444c6.31,0,11.444-5.134,11.444-11.444C111.444,137.08,106.31,131.947,100,131.947z
		 M74.476,131.947c-6.31,0-11.444,5.134-11.444,11.444c0,6.31,5.134,11.444,11.444,11.444c6.31,0,11.444-5.134,11.444-11.444
		C85.92,137.08,80.786,131.947,74.476,131.947z M48.952,131.947c-6.31,0-11.444,5.134-11.444,11.444
		c0,6.31,5.134,11.444,11.444,11.444s11.444-5.134,11.444-11.444C60.396,137.08,55.262,131.947,48.952,131.947z M125.524,129.311
		c4.721,0,9.107,2.361,11.734,6.315l1.028,1.548l1.028-1.548c2.147-3.234,5.569-5.458,9.387-6.102l1.029-0.173v-20.374H50.27v20.374
		l1.029,0.173c3.818,0.645,7.24,2.869,9.387,6.102l1.027,1.547l1.029-1.547c2.628-3.954,7.015-6.315,11.734-6.315
		c4.721,0,9.107,2.361,11.734,6.315l1.028,1.547l1.029-1.547c2.628-3.954,7.015-6.315,11.734-6.315
		c4.721,0,9.107,2.361,11.734,6.315l1.028,1.547l1.029-1.547C116.418,131.671,120.805,129.311,125.524,129.311z M125.522,47.63
		c0.352,0,0.684,0.138,0.933,0.387l7.658,7.657c0.513,0.514,0.513,1.35,0,1.864l-17.867,17.867c-0.1,0.101-0.216,0.185-0.344,0.249
		L96.213,85.5v20.839h54.835c0.727,0,1.318,0.591,1.318,1.318v8.891h20.335v-89.25H27.299v89.25h20.335v-8.891
		c0-0.727,0.591-1.318,1.318-1.318h13.996V85.231l-20.036-20.03c-0.142-0.144-0.252-0.323-0.316-0.516l-7.657-22.972
		c-0.117-0.348-0.083-0.732,0.093-1.054c0.177-0.321,0.482-0.555,0.834-0.643l10.212-2.553c0.106-0.026,0.213-0.04,0.318-0.04
		c0.546,0,1.043,0.344,1.236,0.857l7.535,20.09l14.681,12.234h19.672l17.433-7.474l17.714-15.182
		C124.906,47.743,125.209,47.63,125.522,47.63z M37.89,42.228l7.109,21.327l20.199,20.199c0.246,0.245,0.386,0.584,0.386,0.932
		v21.653h27.993V84.685c0-0.503,0.28-0.955,0.73-1.181l20.225-10.113l16.786-16.783l-5.865-5.862l-16.94,14.519
		c-0.101,0.088-0.211,0.156-0.336,0.209l-17.562,7.528L80.611,85.51c-0.251,0.313-0.627,0.493-1.03,0.493
		c-0.403,0-0.777-0.179-1.027-0.492L68.427,72.854L53.213,60.176c-0.173-0.145-0.309-0.337-0.392-0.555l-7.243-19.313L37.89,42.228z
		 M79.581,82.575l7.469-9.333H72.115L79.581,82.575z"/>
	<path style="fill:#B3B3B3;" d="M162.492,175.338h0.196v-6.423c0-6.419-5.221-11.639-11.64-11.64c-6.419,0-11.64,5.221-11.64,11.64
		v6.227h-2.245v-6.227c0-6.419-5.221-11.639-11.64-11.64c-6.419,0-11.639,5.221-11.64,11.64v6.227h-2.245v-6.227
		c0-6.419-5.221-11.639-11.64-11.64c-6.419,0-11.64,5.221-11.64,11.64v6.227h-2.245l0-6.227c0-6.419-5.221-11.639-11.639-11.64
		c-6.419,0-11.64,5.221-11.64,11.64v6.227h-2.245v-6.227c0-6.419-5.221-11.639-11.64-11.64c-6.419,0-11.639,5.221-11.64,11.64v6.227
		h-2.245l0-6.227c0-4.654,2.327-8.979,6.228-11.57l1.792-1.191l-1.792-1.191c-3.9-2.592-6.227-6.917-6.228-11.571
		c0-6.791,4.865-12.541,11.57-13.675l1.192-0.201v-10.526H25.98c-0.618-0.001-1.121-0.504-1.122-1.123V25.98
		c0.001-0.618,0.504-1.121,1.122-1.122H174.02c0.618,0.001,1.121,0.504,1.122,1.122v91.886c-0.001,0.619-0.504,1.122-1.122,1.123
		H152.17v10.526l1.192,0.201c6.705,1.134,11.569,6.884,11.57,13.675c0,4.656-2.327,8.981-6.227,11.571l-1.793,1.191l1.793,1.192
		c3.9,2.592,6.227,6.917,6.228,11.571v6.227h-2.44V175.338h0.196H162.492v0.196h2.832v-6.619c0-4.785-2.394-9.233-6.402-11.897
		l-1.302-0.865l1.302-0.865c4.008-2.662,6.402-7.11,6.402-11.897c0-6.981-5.004-12.896-11.896-14.061l-0.866-0.146v-9.803h21.458
		c0.835,0,1.513-0.679,1.514-1.514V25.98c0-0.835-0.679-1.513-1.514-1.514H25.98c-0.835,0-1.513,0.679-1.514,1.514v91.886
		c0,0.836,0.678,1.514,1.514,1.514h21.458v9.803l-0.865,0.146l0,0c-6.892,1.165-11.897,7.08-11.897,14.061
		c0,4.785,2.394,9.234,6.402,11.897l1.301,0.865l-1.301,0.865c-4.008,2.663-6.403,7.112-6.402,11.897v6.619h3.028v-6.619
		c0-3.101,1.261-5.912,3.298-7.95c2.037-2.037,4.848-3.298,7.95-3.298c3.101,0,5.912,1.261,7.95,3.298
		c2.037,2.037,3.298,4.848,3.298,7.95v6.619h3.028v-6.619c0-3.101,1.261-5.912,3.298-7.95c2.038-2.037,4.848-3.298,7.95-3.298
		c3.101,0,5.912,1.261,7.95,3.298c2.037,2.037,3.298,4.848,3.298,7.95v6.619h3.028v-6.619c0-3.101,1.261-5.912,3.298-7.95
		c2.038-2.037,4.848-3.298,7.95-3.298c3.101,0,5.912,1.261,7.95,3.298c2.037,2.037,3.298,4.848,3.298,7.95v6.619h3.028v-6.619
		c0-3.101,1.261-5.912,3.298-7.95c2.037-2.037,4.848-3.298,7.95-3.298c3.101,0,5.912,1.261,7.95,3.298
		c2.037,2.037,3.298,4.848,3.298,7.95v6.619h3.028v-6.619c0-3.101,1.261-5.912,3.298-7.95c2.038-2.037,4.848-3.298,7.95-3.298
		c3.101,0,5.912,1.261,7.95,3.298c2.037,2.037,3.298,4.848,3.298,7.95v6.619h0.196V175.338z M111.734,151.156l-0.163-0.108
		c-1.037,1.561-2.352,2.876-3.913,3.913l-1.794,1.191l1.794,1.191c1.561,1.037,2.877,2.353,3.913,3.913l1.191,1.794l1.191-1.794
		c1.037-1.56,2.353-2.876,3.913-3.913l1.793-1.191l-1.793-1.191c-1.561-1.037-2.877-2.353-3.913-3.913l-1.191-1.794l-1.191,1.794
		L111.734,151.156l0.163,0.108l0.865-1.303l0.865,1.303c1.065,1.603,2.42,2.958,4.023,4.023l1.302,0.865l-1.302,0.865
		c-1.603,1.065-2.958,2.42-4.023,4.023l-0.865,1.303l-0.865-1.303c-1.065-1.603-2.419-2.958-4.023-4.023l-1.303-0.865l1.303-0.865
		c1.604-1.065,2.958-2.42,4.023-4.023L111.734,151.156z M86.21,151.156l-0.163-0.108c-1.036,1.56-2.352,2.876-3.913,3.913
		l-1.794,1.191l1.794,1.191c1.561,1.037,2.877,2.353,3.913,3.913l1.191,1.794l1.191-1.794c1.037-1.561,2.353-2.876,3.913-3.913
		l1.793-1.191l-1.793-1.191c-1.561-1.037-2.876-2.353-3.913-3.913l-1.191-1.794l-1.191,1.794L86.21,151.156l0.163,0.108l0.865-1.303
		l0.865,1.303c1.065,1.603,2.42,2.958,4.023,4.023l1.302,0.865l-1.302,0.865c-1.603,1.065-2.958,2.42-4.023,4.023l-0.865,1.303
		l-0.865-1.303c-1.065-1.603-2.419-2.958-4.023-4.023l-1.303-0.865l1.303-0.865c1.604-1.065,2.958-2.42,4.023-4.023L86.21,151.156z
		 M60.686,151.156l-0.163-0.108c-1.036,1.56-2.352,2.876-3.913,3.913l-1.794,1.191l1.794,1.191l0,0
		c1.561,1.037,2.877,2.353,3.913,3.913l1.191,1.794l1.191-1.794l0,0c1.037-1.56,2.353-2.876,3.913-3.913l1.793-1.191l-1.793-1.191
		c-1.561-1.037-2.877-2.353-3.913-3.913l0,0l-1.191-1.794l-1.191,1.794l0,0L60.686,151.156l0.163,0.108l0.865-1.303l0.865,1.303l0,0
		c1.065,1.603,2.419,2.958,4.023,4.023l1.302,0.865l-1.302,0.865c-1.604,1.065-2.958,2.42-4.023,4.023l0,0l-0.865,1.303
		l-0.865-1.303l0,0c-1.065-1.603-2.419-2.958-4.023-4.023h0l-1.303-0.865l1.335-0.887l-0.033,0.022
		c1.604-1.065,2.958-2.42,4.023-4.023l0,0L60.686,151.156z M137.257,151.156l-0.163-0.108c-1.036,1.56-2.352,2.876-3.913,3.913
		l-1.794,1.191l1.794,1.191c1.561,1.037,2.877,2.353,3.913,3.913l1.191,1.794l1.191-1.794c1.037-1.56,2.353-2.876,3.913-3.913
		l1.793-1.191l-1.793-1.191c-1.561-1.037-2.877-2.353-3.913-3.913l-1.191-1.794l-1.191,1.794L137.257,151.156l0.163,0.108
		l0.865-1.303l0.865,1.303c1.065,1.603,2.419,2.958,4.023,4.023l1.302,0.865l-1.302,0.865c-1.604,1.065-2.958,2.42-4.023,4.023
		l-0.865,1.303l-0.865-1.303c-1.065-1.603-2.419-2.958-4.023-4.023l-1.303-0.865l1.303-0.865c1.604-1.065,2.958-2.42,4.023-4.023
		L137.257,151.156z M151.048,131.947v-0.196c-6.419,0-11.64,5.221-11.64,11.64c0,6.419,5.221,11.64,11.64,11.64
		c6.419,0,11.639-5.221,11.64-11.64c0-6.419-5.221-11.639-11.64-11.64V131.947v0.196c3.101,0,5.912,1.261,7.95,3.298
		c2.037,2.037,3.298,4.848,3.298,7.95c0,3.102-1.261,5.912-3.298,7.95c-2.037,2.037-4.848,3.298-7.95,3.298
		c-3.102,0-5.912-1.261-7.95-3.298c-2.037-2.038-3.298-4.848-3.298-7.95c0-3.101,1.261-5.912,3.298-7.95
		c2.038-2.037,4.848-3.298,7.95-3.298V131.947z M125.524,131.947v-0.196c-6.419,0-11.639,5.221-11.64,11.64
		c0,6.419,5.221,11.64,11.64,11.64c6.419,0,11.639-5.221,11.64-11.64c0-6.419-5.221-11.639-11.64-11.64V131.947v0.196
		c3.101,0,5.912,1.261,7.95,3.298c2.037,2.037,3.298,4.848,3.298,7.95c0,3.102-1.261,5.912-3.298,7.95
		c-2.037,2.037-4.848,3.298-7.95,3.298c-3.101,0-5.912-1.261-7.95-3.298c-2.037-2.038-3.298-4.848-3.298-7.95
		c0-3.101,1.261-5.912,3.298-7.95c2.037-2.037,4.848-3.298,7.95-3.298V131.947z M100,131.947v-0.196
		c-6.419,0-11.64,5.221-11.64,11.64c0,6.419,5.221,11.64,11.64,11.64c6.419,0,11.639-5.221,11.64-11.64
		c0-6.419-5.221-11.639-11.64-11.64V131.947v0.196c3.101,0,5.912,1.261,7.95,3.298c2.037,2.037,3.298,4.848,3.298,7.95
		c0,3.102-1.261,5.912-3.298,7.95c-2.037,2.037-4.848,3.298-7.95,3.298c-3.102,0-5.912-1.261-7.95-3.298
		c-2.037-2.038-3.298-4.848-3.298-7.95c0-3.101,1.261-5.912,3.298-7.95c2.038-2.037,4.848-3.298,7.95-3.298V131.947z
		 M74.476,131.947v-0.196c-6.419,0-11.64,5.221-11.64,11.64c0,6.419,5.221,11.64,11.64,11.64c6.419,0,11.639-5.221,11.639-11.64
		c0-6.419-5.221-11.639-11.639-11.64V131.947v0.196c3.101,0,5.912,1.261,7.95,3.298c2.037,2.037,3.298,4.848,3.298,7.95
		c0,3.102-1.261,5.912-3.298,7.95c-2.037,2.037-4.848,3.298-7.95,3.298c-3.102,0-5.912-1.261-7.95-3.298
		c-2.037-2.038-3.298-4.848-3.298-7.95c0-3.101,1.261-5.912,3.298-7.95c2.038-2.037,4.848-3.298,7.95-3.298V131.947z
		 M48.952,131.947v-0.196c-6.419,0-11.639,5.221-11.64,11.64c0,6.419,5.221,11.64,11.64,11.64c6.419,0,11.639-5.221,11.64-11.64
		c0-6.419-5.221-11.639-11.64-11.64V131.947v0.196c3.101,0,5.912,1.261,7.95,3.298c2.037,2.037,3.298,4.848,3.298,7.95
		c0,3.102-1.261,5.912-3.298,7.95c-2.037,2.037-4.848,3.298-7.95,3.298c-3.101,0-5.912-1.261-7.95-3.298
		c-2.037-2.038-3.298-4.848-3.298-7.95c0-3.101,1.261-5.912,3.298-7.95c2.037-2.037,4.848-3.298,7.95-3.298V131.947z
		 M125.524,129.311v0.196c4.656,0,8.98,2.327,11.57,6.227l1.191,1.794l1.191-1.794c2.117-3.188,5.492-5.382,9.257-6.018l1.192-0.201
		v-20.736H50.074v20.736l1.192,0.201l0,0c3.764,0.635,7.139,2.829,9.256,6.018l1.19,1.793l1.192-1.792l0,0
		c2.593-3.9,6.917-6.228,11.571-6.228c4.656,0,8.98,2.327,11.57,6.227l1.191,1.793l1.192-1.792c2.593-3.9,6.917-6.228,11.571-6.228
		c4.656,0,8.98,2.327,11.57,6.227l1.191,1.793l1.192-1.792c2.593-3.9,6.918-6.228,11.571-6.228V129.311v-0.196
		c-4.785,0-9.233,2.394-11.897,6.403l-0.865,1.301l-0.865-1.302c-2.662-4.008-7.11-6.402-11.897-6.402
		c-4.785,0-9.233,2.394-11.897,6.403l-0.865,1.301l-0.865-1.302c-2.662-4.008-7.11-6.402-11.897-6.402
		c-4.785,0-9.233,2.394-11.897,6.403l-0.005,0.008l-0.86,1.294l-0.864-1.302h0c-2.177-3.279-5.645-5.533-9.517-6.187l-0.019-0.003
		l-0.846-0.143v-20.013h99.068v20.013l-0.865,0.146c-3.873,0.654-7.34,2.908-9.518,6.187l-0.865,1.303l-0.865-1.303
		c-2.662-4.008-7.11-6.402-11.897-6.402V129.311z M125.522,47.63v0.196c0.301,0,0.581,0.116,0.795,0.33l7.667,7.666l-0.009-0.009
		c0.219,0.219,0.327,0.505,0.328,0.793c0,0.288-0.109,0.575-0.328,0.794l0,0l-17.867,17.867l0,0
		c-0.085,0.086-0.183,0.157-0.292,0.212l-19.797,9.899v21.156h55.03c0.618,0.001,1.121,0.504,1.122,1.122v9.087h20.727V27.103
		H27.103v89.641H47.83v-9.087c0.001-0.618,0.504-1.121,1.122-1.122h14.192V85.15L43.051,65.063l0.001,0.001
		c-0.121-0.122-0.215-0.276-0.27-0.44l-7.657-22.972l0,0c-0.039-0.116-0.058-0.237-0.058-0.358c0-0.187,0.047-0.374,0.138-0.54
		l0,0.001c0.151-0.273,0.411-0.473,0.71-0.547l0,0l10.212-2.553l0,0c0.091-0.023,0.182-0.034,0.271-0.034
		c0.464-0.001,0.889,0.294,1.052,0.73l7.553,20.139l14.775,12.313h19.783l17.498-7.502l17.737-15.201l0.001-0.001
		c0.203-0.176,0.461-0.271,0.726-0.272V47.63v-0.196c-0.36,0-0.708,0.13-0.982,0.367l-17.691,15.162L89.481,70.41H69.919
		L55.333,58.254l-7.516-20.042l0,0c-0.222-0.589-0.79-0.983-1.419-0.984c-0.122,0-0.245,0.016-0.366,0.046l-10.213,2.553l0,0
		c-0.407,0.101-0.755,0.37-0.959,0.738l0,0.001l0,0c-0.123,0.225-0.186,0.476-0.186,0.728c0,0.162,0.026,0.326,0.079,0.482l0,0
		l7.657,22.972c0.074,0.222,0.199,0.426,0.363,0.592l0,0l19.979,19.973l0,20.831l-13.8,0c-0.835,0-1.513,0.679-1.514,1.514v8.695
		H27.494V27.494h145.011v88.858h-19.944l0-8.695c0-0.835-0.679-1.514-1.514-1.514H96.409V85.621l19.581-9.791l0,0
		c0.147-0.074,0.28-0.17,0.395-0.286l-0.001,0.001l17.867-17.867l0,0c0.295-0.295,0.443-0.684,0.442-1.071
		c0-0.387-0.148-0.775-0.442-1.07l0,0l-7.658-7.657c-0.285-0.286-0.669-0.445-1.072-0.445V47.63z M37.89,42.228l-0.186,0.062
		l7.124,21.371L65.06,83.892l0,0c0.208,0.207,0.329,0.498,0.329,0.793v21.849h28.384V84.685c0.001-0.43,0.237-0.812,0.622-1.005
		l20.253-10.127l16.947-16.944l-6.132-6.128l-17.078,14.637l-0.001,0.001c-0.087,0.075-0.177,0.131-0.284,0.177l0,0l-17.607,7.547
		L80.458,85.388l0,0c-0.215,0.267-0.533,0.42-0.877,0.42c-0.345,0-0.661-0.152-0.874-0.418L68.568,72.717L53.339,60.026l0,0
		c-0.146-0.122-0.263-0.287-0.335-0.475l0,0.001L45.7,40.076l-8.063,2.013l0.067,0.201L37.89,42.228l0.047,0.19l7.519-1.877
		l7.182,19.15l0,0c0.095,0.249,0.249,0.468,0.449,0.636l0,0l15.199,12.665l10.114,12.642c0.287,0.359,0.719,0.566,1.18,0.565
		c0.462,0,0.895-0.207,1.183-0.567l0,0l9.973-12.468l17.517-7.509l-0.001,0c0.143-0.061,0.271-0.141,0.388-0.242l-0.001,0.001
		l16.802-14.401l5.598,5.595l-16.625,16.622L94.22,83.33l0,0c-0.516,0.258-0.839,0.78-0.838,1.356v21.458H65.78V84.685
		c0-0.4-0.161-0.788-0.444-1.07l0,0L45.17,63.449l-7.094-21.283L37.89,42.228l0.047,0.19L37.89,42.228z M79.581,82.575l0.153,0.122
		l7.724-9.651h-15.75l7.873,9.842l0.153-0.191L79.581,82.575l0.153-0.122l-7.212-9.015h14.12l-7.215,9.015L79.581,82.575
		l0.153-0.122L79.581,82.575z"/>
	<rect x="106.647" y="33.574" style="fill:#B3B3B3;" width="59.779" height="2.944"/>
	<polygon style="fill:#B3B3B3;" points="106.647,36.518 106.843,36.518 106.843,33.769 166.231,33.769 166.231,36.322 
		106.647,36.322 106.647,36.518 106.843,36.518 106.647,36.518 106.647,36.714 166.622,36.714 166.622,33.378 106.451,33.378 
		106.451,36.714 106.647,36.714 	"/>
	<rect x="141.83" y="44.399" style="fill:#B3B3B3;" width="24.596" height="2.944"/>
	<polygon style="fill:#B3B3B3;" points="141.83,47.344 142.026,47.344 142.026,44.595 166.231,44.595 166.231,47.148 141.83,47.148 
		141.83,47.344 142.026,47.344 141.83,47.344 141.83,47.539 166.622,47.539 166.622,44.204 141.635,44.204 141.635,47.539 
		141.83,47.539 	"/>
	<rect x="144.537" y="55.225" style="fill:#B3B3B3;" width="21.89" height="2.944"/>
	<polygon style="fill:#B3B3B3;" points="144.537,58.169 144.733,58.169 144.733,55.421 166.231,55.421 166.231,57.973 
		144.537,57.973 144.537,58.169 144.733,58.169 144.537,58.169 144.537,58.365 166.622,58.365 166.622,55.029 144.341,55.029 
		144.341,58.365 144.537,58.365 	"/>
	<rect x="133.711" y="66.051" style="fill:#B3B3B3;" width="32.715" height="2.944"/>
	<polygon style="fill:#B3B3B3;" points="133.711,68.995 133.907,68.995 133.907,66.246 166.231,66.246 166.231,68.799 
		133.711,68.799 133.711,68.995 133.907,68.995 133.711,68.995 133.711,69.191 166.622,69.191 166.622,65.855 133.515,65.855 
		133.515,69.191 133.711,69.191 	"/>
	<rect x="122.885" y="76.876" style="fill:#B3B3B3;" width="43.541" height="2.944"/>
	<polygon style="fill:#B3B3B3;" points="122.885,79.82 123.081,79.82 123.081,77.072 166.231,77.072 166.231,79.625 122.885,79.625 
		122.885,79.82 123.081,79.82 122.885,79.82 122.885,80.016 166.622,80.016 166.622,76.68 122.69,76.68 122.69,80.016 
		122.885,80.016 	"/>
	<rect x="106.647" y="87.702" style="fill:#B3B3B3;" width="59.779" height="2.944"/>
	<polygon style="fill:#B3B3B3;" points="106.647,90.647 106.843,90.647 106.843,87.898 166.231,87.898 166.231,90.451 
		106.647,90.451 106.647,90.647 106.843,90.647 106.647,90.647 106.647,90.842 166.622,90.842 166.622,87.506 106.451,87.506 
		106.451,90.842 106.647,90.842 	"/>
	<rect x="141.83" y="117.473" style="fill:#B3B3B3;" width="2.945" height="2.944"/>
	<polygon style="fill:#B3B3B3;" points="141.83,120.417 142.026,120.417 142.026,117.669 144.579,117.669 144.579,120.221 
		141.83,120.221 141.83,120.417 142.026,120.417 141.83,120.417 141.83,120.613 144.971,120.613 144.971,117.277 141.635,117.277 
		141.635,120.613 141.83,120.613 	"/>
	<rect x="131.005" y="117.473" style="fill:#B3B3B3;" width="2.944" height="2.944"/>
	<polygon style="fill:#B3B3B3;" points="131.005,120.417 131.201,120.417 131.201,117.669 133.753,117.669 133.753,120.221 
		131.005,120.221 131.005,120.417 131.201,120.417 131.005,120.417 131.005,120.613 134.145,120.613 134.145,117.277 
		130.809,117.277 130.809,120.613 131.005,120.613 	"/>
	<rect x="120.179" y="117.473" style="fill:#B3B3B3;" width="2.944" height="2.944"/>
	<polygon style="fill:#B3B3B3;" points="120.179,120.417 120.375,120.417 120.375,117.669 122.927,117.669 122.927,120.221 
		120.179,120.221 120.179,120.417 120.375,120.417 120.179,120.417 120.179,120.613 123.319,120.613 123.319,117.277 
		119.983,117.277 119.983,120.613 120.179,120.613 	"/>
</g>
<g>
</g>
<g>
</g>
<g>
</g>
<g>
</g>
<g>
</g>
<g>
</g>
<g>
</g>
<g>
</g>
<g>
</g>
<g>
</g>
<g>
</g>
<g>
</g>
<g>
</g>
<g>
</g>
<g>
</g>
</svg>
