<?xml version="1.0" encoding="iso-8859-1"?>
<!-- Generator: Adobe Illustrator 18.0.0, SVG Export Plug-In . SVG Version: 6.00 Build 0)  -->
<!DOCTYPE svg PUBLIC "-//W3C//DTD SVG 1.1//EN" "http://www.w3.org/Graphics/SVG/1.1/DTD/svg11.dtd">
<svg version="1.1" id="Layer_1" xmlns="http://www.w3.org/2000/svg" xmlns:xlink="http://www.w3.org/1999/xlink" x="0px" y="0px"
	 viewBox="0 0 200 200" style="enable-background:new 0 0 200 200;" xml:space="preserve">
<rect x="234.125" y="71.041" style="fill:#F15A24;" width="3.773" height="3.773"/>
<g>
	<path style="fill:#B3B3B3;" d="M133.889,177.055H33.023V45.381l-0.946-0.194c-5.319-1.087-9.18-5.815-9.18-11.244
		c0-6.327,5.147-11.474,11.474-11.474h106.321c6.327,0,11.474,5.147,11.474,11.474v52.714l6.827,0.976
		c1.559,0.224,2.926,1.118,3.75,2.454c0.827,1.335,1.015,2.958,0.518,4.454c-0.721,2.163-2.733,3.616-5.009,3.616
		c-0.253,0-0.503-0.018-0.743-0.054l-6.179-0.882l3.335,30.026l10.555,23.216l6.735-1.684l5.082,15.253l-2.558,0.853l-4.294-12.88
		l-2.45,0.608l-35.485,8.874l4.353,15.242l-2.594,0.742L133.889,177.055z M35.719,174.356h97.403l-4.236-14.808l6.173-1.545
		l-5.655-16.956L111.969,126.1l-2.959-2.961l-0.827,1.019c-5.084,6.268-12.611,9.862-20.652,9.862
		c-14.702,0-26.664-11.961-26.664-26.664c0-0.509,0.034-1.022,0.068-1.517l0.077-1.171l-0.809-0.314
		c-10.201-3.963-17.055-13.946-17.055-24.842c0-14.703,11.96-26.665,26.661-26.665c6.167,0,12.194,2.171,16.968,6.112l0.754,0.622
		l0.753-0.622c4.768-3.941,10.793-6.112,16.967-6.112c10.689,0,20.597,6.682,24.655,16.627l0.152,0.372l9.285,5.417V45.418H35.719
		V174.356z M137.682,157.349l24.867-6.218l-10.562-23.56l-3.42-30.746l-26.433-3.779l2.516,4.407l-9.149,9.149l-11.317-8.486
		l-6.139-12.278c-0.188-0.384-0.437-0.696-0.609-0.897c-0.857-0.943-2.097-1.481-3.408-1.481c-0.88,0-1.717,0.241-2.421,0.697
		c-0.751,0.526-1.316,1.243-1.643,2.079l-0.121,0.318c-0.185,0.659-0.235,1.229-0.164,1.816l1.666,13.298l22.454,22.454
		l17.929,15.361L137.682,157.349z M63.59,106.856l-0.009,0.166c-0.007,0.109-0.014,0.221-0.014,0.334
		c0,13.215,10.751,23.965,23.965,23.965c7.422,0,14.307-3.391,18.892-9.304l0.639-0.824l-18.278-18.272l-0.513-4.097l-1.655,1.347
		c-4.756,3.871-10.724,6.003-16.806,6.003c-1.561,0-3.139-0.151-4.824-0.46l-1.374-0.253L63.59,106.856z M77.853,85.437
		c-6.84,2.991-11.786,8.875-13.57,16.142l-0.296,1.205l1.217,0.238c1.543,0.302,3.093,0.455,4.606,0.455
		c5.363,0,10.639-1.84,14.856-5.182l0.956-0.757l-0.786-0.933c-2.559-3.033-4.364-6.526-5.364-10.381l-0.348-1.343L77.853,85.437z
		 M106.316,96.342l8.935,6.704l6.039-6.042l-2.537-4.441l-15.424-2.202L106.316,96.342z M69.811,55.544
		c-13.214,0-23.965,10.752-23.965,23.968c0,9.449,5.601,18.043,14.27,21.896l1.277,0.567l0.348-1.353
		c2.142-8.314,8.196-15.099,16.193-18.149l0.818-0.313l-0.099-1.399c-0.032-0.41-0.064-0.834-0.064-1.249
		c0-6.234,2.214-12.308,6.233-17.102l0.783-0.933l-0.956-0.755C80.419,57.383,75.15,55.544,69.811,55.544z M151.358,94.503
		l6.525,0.929c0.129,0.015,0.231,0.021,0.338,0.021c1.135,0,2.133-0.71,2.484-1.768c0.333-0.996-0.016-1.793-0.253-2.179
		c-0.24-0.387-0.797-1.056-1.843-1.2l-6.38-0.913L151.358,94.503z M100.053,83.922c0.152,0.235,0.29,0.474,0.408,0.712l1.397,2.795
		l46.829,6.688l0.87-5.107l-50.92-7.271L100.053,83.922z M84.042,83.674l-0.365,0.05c-0.266,0.035-0.508,0.068-0.755,0.118
		l-1.214,0.242l0.297,1.202c0.652,2.637,1.741,5.118,3.235,7.373l0.116,0.175l2.069-0.766l-0.418-3.358
		c-0.074-0.586-0.051-1.218,0.072-1.991l0.095-0.596l-2.541-2.541L84.042,83.674z M115.492,81.418l31.876,4.556l-0.347-3.109
		l-29.237-17.057l-19.652,7.146c-1.204,0.437-2.068,1.393-2.371,2.622c-0.217,0.847-0.14,1.715,0.224,2.507l0.269,0.586l7.231,1.034
		l10.07-1.677L115.492,81.418z M86.606,64.485c-3.43,4.251-5.319,9.587-5.319,15.025c0,0.125,0.009,0.247,0.019,0.368l0.01,0.154
		l0.046,1.349l1.339-0.233c0.232-0.04,0.467-0.071,0.702-0.102l0.555-0.076l9.129-3.045l-0.072-0.922
		c-0.063-0.8-0.025-1.451,0.12-2.049l0.112-0.348l-0.069-0.309c-0.807-3.627-2.399-6.929-4.731-9.813l-0.921-1.138L86.606,64.485z
		 M142.04,76.834l7.43,4.337V33.944c0-4.84-3.938-8.778-8.778-8.778c-4.84,0-8.778,3.938-8.778,8.778
		c0,4.84,3.938,8.777,8.778,8.777h1.348V76.834z M105.25,55.544c-5.424,0-10.554,1.792-14.837,5.182l-0.954,0.755l0.781,0.933
		c1.954,2.331,3.479,4.946,4.533,7.773l0.472,1.264l1.192-0.633l0.339-0.188c0.147-0.084,0.286-0.163,0.431-0.216l20.836-7.575
		l2.737,1.596l1.389-1.82l-0.167-0.164C117.463,57.996,111.514,55.544,105.25,55.544z M34.371,25.168
		c-4.84,0-8.778,3.937-8.778,8.775c0,4.84,3.938,8.777,8.778,8.777h98.641l-1.438-1.897c-1.541-2.034-2.356-4.413-2.356-6.88
		c0-2.466,0.815-4.845,2.356-6.878l1.438-1.897H34.371z"/>
	<path style="fill:#B3B3B3;" d="M133.889,177.055v-0.25H33.273l0-131.628l-1.146-0.234l0,0c-5.202-1.062-8.981-5.69-8.98-10.999
		c0-3.095,1.258-5.9,3.291-7.933c2.033-2.033,4.838-3.291,7.933-3.291h106.321c3.095,0,5.9,1.258,7.933,3.291
		c2.033,2.033,3.291,4.838,3.291,7.933v52.931l7.042,1.006c1.486,0.213,2.787,1.065,3.573,2.338
		c0.499,0.805,0.753,1.719,0.753,2.643c0,0.537-0.086,1.076-0.26,1.6c-0.687,2.061-2.604,3.445-4.771,3.445
		c-0.241,0-0.479-0.017-0.706-0.052l-0.001,0l-6.5-0.927l3.375,30.386l10.657,23.442l6.713-1.678l4.929,14.797l-2.084,0.695
		l-4.288-12.862l-2.674,0.664l-35.736,8.937l4.356,15.25l-2.114,0.604l-0.051-0.177l-0.052-0.181h-0.188V177.055l-0.24,0.069
		l0.12,0.416l0.069,0.24l3.074-0.879l-4.351-15.233l35.235-8.811l2.225-0.552l4.3,12.898l3.032-1.011l-5.234-15.71l-6.758,1.69
		l-10.452-22.99l-3.295-29.666l5.86,0.836l-0.002,0c0.253,0.038,0.515,0.057,0.78,0.057c2.383,0,4.492-1.523,5.246-3.787
		c0.191-0.575,0.286-1.168,0.286-1.758c0-1.016-0.28-2.022-0.828-2.906c-0.863-1.399-2.296-2.336-3.927-2.57l-6.613-0.945l0-52.497
		c0-6.465-5.259-11.724-11.724-11.724H34.371c-6.465,0-11.724,5.259-11.724,11.724c0.001,5.548,3.943,10.377,9.38,11.488
		l0.746,0.153v131.72h101.116L133.889,177.055l-0.24,0.069L133.889,177.055z M35.719,174.356v0.25h97.734l-4.256-14.879l6.184-1.548
		l-5.762-17.278l-17.48-14.986l-3.148-3.15L107.99,124c-5.037,6.21-12.492,9.77-20.458,9.77c-7.283,0-13.885-2.962-18.669-7.745
		c-4.783-4.784-7.745-11.386-7.745-18.669c0-0.498,0.034-1.005,0.067-1.501l0.077-1.171l0.012-0.183l-0.979-0.381
		c-10.104-3.924-16.896-13.818-16.895-24.609c0-7.283,2.962-13.885,7.745-18.669c4.783-4.784,11.385-7.745,18.667-7.745
		c6.109,0,12.079,2.15,16.809,6.055l0.913,0.753l0.912-0.753c4.723-3.904,10.693-6.055,16.808-6.055
		c10.585-0.001,20.406,6.622,24.423,16.472l0.152,0.372l0.032,0.079l9.734,5.679V45.168H35.469v129.438h0.25V174.356h0.25V45.668
		l103.125,0l0,29.161l-8.835-5.155l-0.12-0.293c-4.098-10.041-14.092-16.781-24.886-16.783c-6.233,0-12.314,2.191-17.127,6.169
		l-0.594,0.49l-0.595-0.491c-4.82-3.978-10.901-6.169-17.127-6.169c-14.84,0-26.911,12.073-26.911,26.915
		c0.001,11.001,6.916,21.073,17.214,25.075l0.638,0.248l-0.065,0.988c-0.033,0.496-0.068,1.014-0.068,1.534
		c0,14.841,12.073,26.913,26.914,26.914c8.116,0,15.716-3.629,20.846-9.955l0.652-0.803l2.769,2.772l17.389,14.908l5.548,16.635
		l-6.162,1.542l4.216,14.738H35.719L35.719,174.356h0.25H35.719z M137.682,157.349l0.061,0.243l25.156-6.29l-10.669-23.796
		l-3.437-30.9l-27.13-3.878l2.675,4.685l-8.86,8.86l-11.096-8.321l-6.113-12.225l0.001,0.002c-0.203-0.414-0.466-0.742-0.643-0.949
		l-0.002-0.003l-0.003-0.003c-0.906-0.997-2.214-1.563-3.593-1.563c-0.925,0-1.811,0.254-2.557,0.737l-0.004,0.002l-0.004,0.003
		c-0.79,0.553-1.388,1.311-1.732,2.193l0,0.001l-0.121,0.319l-0.004,0.01l-0.003,0.011c-0.137,0.486-0.205,0.934-0.204,1.376
		c0,0.18,0.011,0.358,0.033,0.537l1.676,13.384l22.521,22.522l17.883,15.322l6.005,18.019l0.225-0.056L137.682,157.349l0.237-0.079
		l-5.976-17.931l-17.974-15.4l-22.387-22.387l-1.655-13.213l0,0.001c-0.019-0.16-0.029-0.318-0.029-0.477
		c0-0.391,0.059-0.79,0.186-1.241l-0.241-0.068l0.234,0.089l0.121-0.318l-0.001,0.002c0.309-0.79,0.842-1.467,1.553-1.965
		l-0.143-0.205l0.136,0.21c0.662-0.429,1.451-0.657,2.285-0.657c1.243,0,2.416,0.51,3.223,1.399l0.185-0.168l-0.19,0.162
		c0.166,0.194,0.401,0.49,0.574,0.845l0,0.001l6.166,12.332l11.537,8.652l9.437-9.437l-2.357-4.129l25.735,3.679l3.403,30.593
		l10.456,23.323l-24.577,6.146L137.682,157.349l0.237-0.079L137.682,157.349z M63.59,106.856l-0.25-0.014l-0.009,0.166l0.25,0.014
		l-0.249-0.017c-0.007,0.11-0.015,0.227-0.015,0.351c0,13.353,10.862,24.215,24.215,24.215c7.498,0.001,14.459-3.428,19.089-9.401
		l0.774-0.998l-18.373-18.368l-0.559-4.46l-2.005,1.632c-4.711,3.835-10.625,5.947-16.648,5.946c-1.545,0-3.107-0.149-4.779-0.456
		l-1.664-0.306l-0.028,1.692L63.59,106.856l-0.25-0.014L63.59,106.856l0.25,0.004l0.018-1.101l1.083,0.2
		c1.698,0.312,3.292,0.465,4.869,0.465c6.14,0,12.163-2.152,16.964-6.059l1.305-1.063l0.468,3.735l18.183,18.177l-0.504,0.65
		c-4.539,5.853-11.349,9.207-18.694,9.207c-6.539,0-12.466-2.659-16.761-6.954c-4.295-4.295-6.954-10.223-6.954-16.761
		c0-0.103,0.006-0.209,0.014-0.317l0-0.002l0.009-0.167l0-0.005l0-0.005L63.59,106.856z M77.853,85.437l-0.1-0.229
		c-6.91,3.021-11.911,8.97-13.713,16.312l-0.358,1.459l1.475,0.288c1.559,0.305,3.124,0.46,4.654,0.46
		c5.42,0,10.749-1.859,15.011-5.236l1.158-0.917l-0.953-1.13c-2.535-3.005-4.322-6.463-5.313-10.283l-0.421-1.627l-1.54,0.674
		L77.853,85.437l0.1,0.229l1.002-0.439l0.274,1.059c1.009,3.891,2.832,7.419,5.415,10.48l0.62,0.736l-0.754,0.597
		c-4.173,3.307-9.395,5.129-14.7,5.128c-1.496,0-3.03-0.151-4.558-0.45l-0.96-0.188l0.233-0.95
		c1.767-7.194,6.658-13.012,13.427-15.973L77.853,85.437z M106.316,96.342l-0.15,0.2l9.109,6.835l6.327-6.33l-2.692-4.712
		l-16.017-2.286l3.225,6.459l0.047,0.035L106.316,96.342l0.224-0.112l-2.773-5.553l14.83,2.117l2.381,4.169l-5.751,5.753
		l-8.762-6.574L106.316,96.342l0.224-0.112L106.316,96.342z M69.811,55.544v-0.25c-13.353,0-24.215,10.864-24.215,24.218
		c0,9.548,5.66,18.232,14.418,22.124l1.547,0.687l0.422-1.639c2.122-8.236,8.119-14.957,16.04-17.977l0,0l0.818-0.313l0.173-0.066
		l-0.113-1.584l0-0.001c-0.032-0.41-0.064-0.828-0.064-1.23c0-6.175,2.193-12.192,6.174-16.941l0.948-1.131l-1.158-0.914
		c-4.273-3.374-9.596-5.232-14.993-5.232V55.544v0.25c5.282,0,10.498,1.82,14.683,5.125l0.754,0.595L84.63,62.25
		c-4.057,4.839-6.291,10.969-6.291,17.262c0,0.429,0.033,0.859,0.065,1.269l0-0.002l0.086,1.214l-0.645,0.247l0,0
		c-8.074,3.079-14.183,9.927-16.346,18.32l-0.275,1.067l-1.007-0.447c-8.579-3.812-14.122-12.318-14.121-21.667
		c0-6.54,2.659-12.468,6.954-16.763c4.295-4.295,10.222-6.955,16.761-6.955V55.544z M151.358,94.503l-0.035,0.247l6.528,0.929
		l0.003,0c0.136,0.016,0.25,0.023,0.367,0.023c1.24,0,2.336-0.777,2.721-1.939l0,0c0.107-0.319,0.15-0.623,0.15-0.902
		c0-0.669-0.244-1.188-0.427-1.487l0-0.001c-0.259-0.421-0.877-1.158-2.021-1.316l0.001,0l-6.621-0.947l-0.954,5.602l0.254,0.036
		L151.358,94.503l0.246,0.042l0.829-4.869l6.141,0.879l0,0c0.948,0.131,1.444,0.732,1.664,1.084l0-0.001
		c0.152,0.247,0.354,0.681,0.353,1.225c0,0.228-0.035,0.476-0.124,0.744l0,0c-0.316,0.953-1.217,1.596-2.247,1.596
		c-0.097,0-0.186-0.006-0.309-0.02l-0.029,0.248l0.035-0.248l-6.525-0.929L151.358,94.503l0.246,0.042L151.358,94.503z
		 M100.053,83.922l-0.21,0.136c0.147,0.227,0.28,0.458,0.394,0.687l0,0l1.455,2.913l47.199,6.741l0.954-5.6l-51.718-7.385
		l1.716,2.644L100.053,83.922l0.21-0.136l-1.117-1.721l50.121,7.157l-0.786,4.614L102.023,87.2l-1.338-2.678l0,0
		c-0.123-0.247-0.264-0.494-0.422-0.737L100.053,83.922z M84.042,83.674l-0.034-0.248l-0.365,0.05l0.002,0
		c-0.267,0.035-0.515,0.069-0.772,0.121l-1.47,0.293l0.36,1.456c0.659,2.665,1.759,5.172,3.27,7.451l0.116,0.175l0.109,0.165
		l2.441-0.904l-0.443-3.555c-0.027-0.211-0.04-0.429-0.04-0.659c0-0.378,0.036-0.791,0.111-1.261l0.095-0.596l0.02-0.126
		l-2.721-2.72l-0.717,0.11L84.042,83.674l-0.034-0.248L84.042,83.674l0.038,0.247l0.467-0.072l2.361,2.361l-0.075,0.47
		c-0.078,0.49-0.117,0.93-0.117,1.34c0,0.25,0.015,0.489,0.044,0.721l0.394,3.161l-1.698,0.629l-0.007-0.01
		c-1.479-2.231-2.556-4.685-3.201-7.295l-0.235-0.948l0.957-0.191l0,0c0.237-0.048,0.473-0.08,0.739-0.115l0.001,0l0.366-0.051
		l0.002,0l0.001,0L84.042,83.674z M115.492,81.418l-0.035,0.247l32.196,4.601l-0.397-3.554L117.81,65.533l-19.762,7.186
		c-1.278,0.463-2.207,1.489-2.528,2.797l0.001-0.002c-0.086,0.334-0.128,0.671-0.128,1.007c0,0.571,0.124,1.136,0.367,1.667
		l0.268,0.586l0.057,0.124l7.404,1.059l9.937-1.655l1.91,3.347l0.121,0.017L115.492,81.418l0.217-0.124l-2.023-3.543l-10.204,1.7
		l-7.058-1.009l-0.212-0.462c-0.214-0.467-0.322-0.96-0.322-1.458c0-0.293,0.037-0.589,0.113-0.883l0-0.001l0-0.001
		c0.285-1.15,1.085-2.035,2.214-2.447l19.542-7.106l29.027,16.935l0.297,2.663l-31.557-4.51L115.492,81.418l0.217-0.124
		L115.492,81.418z M86.606,64.485l-0.195-0.157c-3.466,4.296-5.374,9.686-5.374,15.182c0,0.137,0.01,0.266,0.02,0.39l0.249-0.022
		l-0.249,0.017l0.01,0.149l0.055,1.632l1.631-0.284l-0.009,0.002c0.225-0.039,0.457-0.07,0.691-0.101l0.556-0.076l0.023-0.003
		l9.336-3.114l-0.087-1.117c-0.019-0.241-0.028-0.467-0.028-0.681c0-0.479,0.047-0.897,0.142-1.289l-0.243-0.059l0.238,0.076
		l0.112-0.348l0.021-0.065l-0.084-0.375l0,0c-0.815-3.664-2.425-7.003-4.781-9.916l-1.115-1.379l-1.114,1.38L86.606,64.485
		l0.195,0.157l0.725-0.899l0.726,0.898c2.309,2.855,3.883,6.12,4.682,9.71l0,0l0.054,0.242l-0.091,0.283l-0.003,0.009l-0.002,0.009
		c-0.105,0.435-0.156,0.894-0.156,1.407c0,0.229,0.01,0.468,0.03,0.721l0.057,0.727l-8.921,2.976l-0.532,0.073l-0.002,0l0.003,0
		c-0.234,0.031-0.473,0.062-0.712,0.104l0,0l-1.056,0.184l-0.036-1.062l0-0.004l-0.011-0.158l0-0.003l0-0.002
		c-0.01-0.119-0.019-0.234-0.019-0.347c0-5.38,1.869-10.662,5.263-14.868L86.606,64.485z M142.04,76.834l-0.126,0.216l7.807,4.557
		V33.944c0-4.979-4.049-9.028-9.028-9.028c-4.979,0-9.027,4.049-9.028,9.028c0,4.978,4.049,9.027,9.028,9.027h1.098l0,34.007
		l0.124,0.072L142.04,76.834h0.25V42.471h-1.598c-2.352,0-4.482-0.956-6.027-2.501c-1.545-1.545-2.501-3.675-2.501-6.027
		c0-2.352,0.956-4.482,2.501-6.027c1.545-1.545,3.676-2.501,6.027-2.501c2.352,0,4.482,0.956,6.027,2.501
		c1.545,1.545,2.501,3.676,2.501,6.027v46.792l-7.054-4.118L142.04,76.834h0.25H142.04z M105.25,55.544v-0.25
		c-5.479,0-10.667,1.812-14.992,5.236l-1.156,0.914l0.946,1.13c1.936,2.309,3.446,4.899,4.49,7.7l0.572,1.531l1.446-0.769
		l0.341-0.189l0.001-0.001l0.001-0.001c0.147-0.084,0.275-0.156,0.393-0.199l20.725-7.535l2.826,1.648l1.657-2.171l-0.325-0.319
		c-4.583-4.498-10.596-6.978-16.926-6.977V55.544v0.25c6.199,0,12.083,2.426,16.576,6.834l0.01,0.01l-1.121,1.469l-2.648-1.544
		l-20.946,7.615l-0.001,0c-0.171,0.063-0.321,0.15-0.468,0.234l0.124,0.217l-0.121-0.219l-0.337,0.187l-0.938,0.498l-0.372-0.997
		c-1.064-2.854-2.604-5.495-4.576-7.847l-0.616-0.736l0.752-0.595c4.241-3.356,9.313-5.127,14.682-5.128V55.544z M34.371,25.168
		v-0.25c-4.978,0-9.027,4.048-9.028,9.025c0,4.978,4.049,9.027,9.028,9.027h99.144l-1.742-2.298
		c-1.51-1.993-2.304-4.317-2.305-6.729c0-2.411,0.795-4.734,2.305-6.727l1.742-2.298H34.371L34.371,25.168v0.25h98.138l-1.134,1.496
		c-1.572,2.074-2.407,4.508-2.406,7.029c0,2.523,0.834,4.957,2.406,7.031l1.134,1.496H34.371c-2.351,0-4.482-0.956-6.027-2.501
		c-1.545-1.545-2.501-3.675-2.501-6.027c0-2.351,0.956-4.481,2.501-6.025c1.545-1.544,3.676-2.5,6.027-2.5L34.371,25.168z"/>
</g>
<g>
</g>
<g>
</g>
<g>
</g>
<g>
</g>
<g>
</g>
<g>
</g>
<g>
</g>
<g>
</g>
<g>
</g>
<g>
</g>
<g>
</g>
<g>
</g>
<g>
</g>
<g>
</g>
<g>
</g>
</svg>
