<?xml version="1.0" encoding="iso-8859-1"?>
<!-- Generator: Adobe Illustrator 18.0.0, SVG Export Plug-In . SVG Version: 6.00 Build 0)  -->
<!DOCTYPE svg PUBLIC "-//W3C//DTD SVG 1.1//EN" "http://www.w3.org/Graphics/SVG/1.1/DTD/svg11.dtd">
<svg version="1.1" id="Layer_1" xmlns="http://www.w3.org/2000/svg" xmlns:xlink="http://www.w3.org/1999/xlink" x="0px" y="0px"
	 viewBox="0 0 200 200" style="enable-background:new 0 0 200 200;" xml:space="preserve">
<rect x="234.125" y="71.041" style="fill:#F15A24;" width="3.773" height="3.773"/>
<g>
	<path style="fill:#B3B3B3;" d="M44.861,175c-12.345,0-22.389-10.043-22.389-22.389c0-11.42,8.555-20.981,19.9-22.241l1.105-0.123
		v-5.827l-20.452-15.339c-0.347-0.26-0.554-0.674-0.554-1.106V50.209c0-0.763,0.621-1.383,1.384-1.383h42.011
		c0.763,0,1.383,0.621,1.383,1.383v57.766c0,0.434-0.206,0.847-0.551,1.105l-20.455,15.341v5.827l1.105,0.123
		c11.345,1.26,19.9,10.822,19.9,22.241C67.249,164.957,57.206,175,44.861,175z M44.861,132.989c-10.82,0-19.622,8.802-19.622,19.622
		s8.802,19.622,19.622,19.622s19.622-8.802,19.622-19.622S55.68,132.989,44.861,132.989z M35.741,115.16l9.119,6.84l9.119-6.84
		V51.593H35.741V115.16z M56.747,113.085l7.736-5.802v-55.69h-7.736V113.085z M25.239,107.283l7.736,5.802V51.593h-7.736V107.283z"
		/>
	<path style="fill:#B3B3B3;" d="M44.861,175v-0.25c-6.104,0-11.638-2.482-15.647-6.492c-4.009-4.01-6.492-9.543-6.492-15.647
		c0-11.293,8.459-20.747,19.678-21.993l1.105-0.123l0.222-0.025v-6.175l-20.552-15.414c-0.284-0.212-0.454-0.554-0.454-0.906V50.209
		c0.001-0.624,0.509-1.132,1.134-1.133h42.011c0.624,0.001,1.132,0.509,1.133,1.133v57.766c0,0.354-0.17,0.695-0.451,0.904
		l-20.555,15.416v6.175l1.328,0.147c11.219,1.246,19.678,10.7,19.678,21.993c0,6.104-2.482,11.638-6.492,15.647
		c-4.01,4.009-9.543,6.492-15.647,6.492V175v0.25c12.484,0,22.638-10.155,22.639-22.639c0-11.547-8.651-21.216-20.123-22.49
		l-0.883-0.098v-5.478l20.355-15.266c0.408-0.306,0.65-0.792,0.651-1.305V50.209c0-0.901-0.732-1.633-1.633-1.633H23.855
		c-0.902,0-1.633,0.732-1.634,1.633v57.766c0,0.512,0.243,0.998,0.654,1.306l20.352,15.264v5.478l-0.883,0.098
		c-11.472,1.274-20.123,10.943-20.123,22.49c0,12.484,10.155,22.638,22.639,22.639V175z M44.861,132.989v-0.25
		c-10.958,0-19.872,8.914-19.872,19.872c0,10.958,8.914,19.872,19.872,19.872c10.958,0,19.872-8.914,19.872-19.872
		c0-10.958-8.914-19.872-19.872-19.872V132.989v0.25c5.341,0,10.183,2.172,13.692,5.68c3.508,3.509,5.68,8.35,5.68,13.692
		c0,5.341-2.172,10.183-5.68,13.692c-3.509,3.508-8.35,5.68-13.692,5.68c-5.341,0-10.183-2.172-13.692-5.68
		c-3.508-3.509-5.68-8.35-5.68-13.692c0-5.341,2.172-10.183,5.68-13.692c3.509-3.508,8.35-5.68,13.692-5.68V132.989z M35.741,115.16
		l-0.15,0.2l9.269,6.952l9.369-7.027V51.343H35.491v63.942l0.1,0.075L35.741,115.16h0.25V51.843H53.73v63.192l-8.869,6.652
		l-8.969-6.727L35.741,115.16h0.25H35.741z M56.747,113.085l0.15,0.2l7.836-5.877V51.343h-8.236v62.242l0.4-0.3L56.747,113.085h0.25
		V51.843h7.236v55.315l-7.636,5.727L56.747,113.085h0.25H56.747z M25.239,107.283l-0.15,0.2l8.136,6.102V51.343h-8.236v56.065
		l0.1,0.075L25.239,107.283h0.25v-55.44h7.236v60.742l-7.336-5.502L25.239,107.283h0.25H25.239z"/>
	<path style="fill:#B3B3B3;" d="M100,159.246c-0.483,0-0.937-0.257-1.185-0.67l-7.475-12.458H76.369
		c-0.527,0-1.017-0.308-1.248-0.785c-0.23-0.481-0.166-1.045,0.169-1.464l9.812-12.262l-9.813-12.264
		c-0.334-0.418-0.397-0.982-0.164-1.469c0.228-0.471,0.718-0.779,1.245-0.779H91.34l7.277-12.129v-9.379L75.601,80.243
		c-0.385-0.257-0.615-0.688-0.615-1.151V21.327c0-0.763,0.621-1.384,1.383-1.384h47.262c0.763,0,1.383,0.621,1.383,1.384v57.765
		c0,0.463-0.231,0.894-0.617,1.152l-23.014,15.342v9.379l7.277,12.129h14.972c0.527,0,1.017,0.308,1.248,0.785
		c0.23,0.481,0.166,1.045-0.169,1.464l-9.812,12.262l9.813,12.264c0.334,0.418,0.397,0.982,0.164,1.469
		c-0.228,0.471-0.718,0.779-1.245,0.779H108.66l-7.475,12.458C100.937,158.989,100.483,159.246,100,159.246z M87.952,130.74
		c0.401,0.502,0.401,1.229,0,1.731l-8.705,10.88h12.875c0.482,0,0.936,0.257,1.184,0.671L100,155.175l6.692-11.154
		c0.248-0.414,0.702-0.67,1.185-0.67h12.875l-8.705-10.88c-0.401-0.502-0.401-1.229,0-1.731l8.705-10.88h-12.875
		c-0.482,0-0.936-0.257-1.184-0.671L100,108.036l-6.692,11.154c-0.248,0.414-0.702,0.67-1.185,0.67H79.248L87.952,130.74z
		 M88.255,85.352L100,93.183l11.745-7.83V22.71h-23.49V85.352z M114.512,83.508l7.736-5.156V22.71h-7.736V83.508z M77.752,78.352
		l7.736,5.156V22.71h-7.736V78.352z"/>
	<path style="fill:#B3B3B3;" d="M100,159.246v-0.25c-0.394,0.001-0.769-0.211-0.97-0.549l-7.548-12.58H76.369
		c-0.429,0.001-0.835-0.254-1.023-0.644l0.001,0.001c-0.075-0.158-0.112-0.325-0.112-0.491c0-0.252,0.084-0.501,0.25-0.71
		l9.937-12.418l-9.938-12.42c-0.165-0.206-0.248-0.454-0.248-0.706c0-0.168,0.037-0.338,0.114-0.499l-0.001,0.001
		c0.185-0.383,0.59-0.639,1.02-0.638h15.113l7.385-12.31v-9.582L75.739,80.035l0,0c-0.315-0.211-0.504-0.563-0.504-0.943V21.327
		c0.001-0.625,0.509-1.133,1.133-1.134h47.262c0.624,0.001,1.132,0.509,1.133,1.134v57.765c0,0.379-0.188,0.732-0.506,0.944
		l-23.125,15.416v9.582l7.385,12.31h15.113c0.429-0.001,0.835,0.254,1.023,0.644l-0.001-0.001c0.075,0.158,0.112,0.325,0.112,0.491
		c0,0.252-0.084,0.501-0.25,0.71l-9.937,12.418l9.938,12.42c0.165,0.206,0.248,0.454,0.248,0.706c0,0.168-0.037,0.338-0.114,0.499
		l0.001-0.001c-0.185,0.383-0.59,0.639-1.02,0.638h-15.113l-7.548,12.58c-0.202,0.338-0.576,0.549-0.97,0.549V159.246v0.25
		c0.572-0.001,1.105-0.302,1.399-0.792l7.402-12.337h14.83c0.625-0.001,1.198-0.362,1.47-0.92l0.001-0.001
		c0.109-0.228,0.163-0.472,0.163-0.715c0-0.363-0.122-0.723-0.358-1.018l-9.689-12.108l9.687-12.106
		c0.237-0.297,0.36-0.658,0.36-1.022c0-0.24-0.053-0.481-0.161-0.706l0-0.001l0-0.001c-0.274-0.563-0.848-0.925-1.473-0.926h-14.83
		l-7.168-11.948V95.72l22.903-15.268c0.456-0.304,0.728-0.814,0.728-1.36V21.327c0-0.902-0.732-1.633-1.633-1.634H76.369
		c-0.901,0-1.633,0.732-1.633,1.634v57.765c0,0.546,0.272,1.055,0.726,1.359l0,0L98.367,95.72v9.176l-7.168,11.948h-14.83
		c-0.625,0.001-1.198,0.362-1.47,0.92l-0.001,0.001c-0.109,0.228-0.163,0.472-0.163,0.715c0,0.363,0.122,0.723,0.358,1.018
		l9.689,12.108l-9.687,12.106c-0.237,0.297-0.36,0.658-0.36,1.022c0,0.24,0.053,0.482,0.161,0.706l0,0.001l0,0.001
		c0.274,0.563,0.848,0.925,1.473,0.926h14.83l7.402,12.337c0.294,0.49,0.827,0.791,1.399,0.792V159.246z M87.952,130.74
		l-0.195,0.156c0.163,0.204,0.246,0.456,0.246,0.709c0,0.253-0.083,0.505-0.246,0.709l-9.029,11.286h13.395
		c0.393-0.001,0.768,0.212,0.97,0.55L100,155.661l6.907-11.511c0.202-0.338,0.576-0.549,0.97-0.549h13.395l-9.03-11.286
		c-0.163-0.204-0.246-0.456-0.246-0.709c0-0.253,0.083-0.505,0.246-0.709l9.029-11.286h-13.395c-0.393,0.001-0.768-0.212-0.97-0.55
		L100,107.55l-6.907,11.511c-0.202,0.338-0.576,0.549-0.97,0.549H78.728l9.029,11.286L87.952,130.74l0.195-0.156l-8.38-10.474
		l12.355,0c0.572-0.001,1.105-0.302,1.399-0.792L100,108.522l6.479,10.796c0.294,0.49,0.827,0.792,1.399,0.792h12.355l-8.38,10.474
		c-0.238,0.297-0.356,0.66-0.356,1.022c0,0.361,0.118,0.724,0.355,1.021l8.38,10.474h-12.355c-0.572,0.001-1.105,0.302-1.399,0.792
		L100,154.689l-6.479-10.796c-0.294-0.49-0.827-0.792-1.398-0.792H79.768l8.38-10.474c0.238-0.297,0.356-0.66,0.356-1.022
		c0-0.361-0.118-0.724-0.355-1.021L87.952,130.74z M88.255,85.352l-0.139,0.208L100,93.483l11.995-7.997V22.46h-23.99v63.026
		l0.111,0.074L88.255,85.352h0.25V22.96h22.99v62.258L100,92.882l-11.606-7.738L88.255,85.352h0.25H88.255z M114.512,83.508
		l0.139,0.208l7.848-5.231V22.46h-8.236v61.515l0.389-0.259L114.512,83.508h0.25V22.96h7.236v55.258l-7.625,5.082L114.512,83.508
		h0.25H114.512z M77.752,78.352l-0.139,0.208l8.125,5.415V22.46h-8.236v56.026l0.111,0.074L77.752,78.352h0.25V22.96h7.236v60.081
		l-7.348-4.897L77.752,78.352h0.25H77.752z"/>
	<path style="fill:#B3B3B3;" d="M44.861,164.497c-6.554,0-11.886-5.332-11.886-11.886c0-6.554,5.332-11.886,11.886-11.886
		s11.886,5.332,11.886,11.886C56.747,159.165,51.415,164.497,44.861,164.497z M44.861,143.492c-5.028,0-9.119,4.091-9.119,9.119
		c0,5.028,4.091,9.119,9.119,9.119s9.119-4.091,9.119-9.119C53.98,147.583,49.889,143.492,44.861,143.492z"/>
	<path style="fill:#B3B3B3;" d="M44.861,164.497v-0.25c-3.208,0-6.116-1.305-8.224-3.412c-2.108-2.108-3.412-5.016-3.412-8.224
		c0-3.208,1.305-6.116,3.412-8.224c2.108-2.108,5.016-3.412,8.224-3.412c3.208,0,6.116,1.305,8.224,3.412
		c2.108,2.108,3.412,5.016,3.412,8.224c0,3.208-1.305,6.116-3.412,8.224c-2.108,2.108-5.016,3.412-8.224,3.412V164.497v0.25
		c6.693,0,12.136-5.444,12.136-12.136c0-6.693-5.444-12.136-12.136-12.136c-6.693,0-12.136,5.444-12.136,12.136
		c0,6.693,5.444,12.136,12.136,12.136V164.497z M44.861,143.492v-0.25c-5.167,0-9.369,4.203-9.369,9.369
		c0,5.167,4.203,9.369,9.369,9.369c5.167,0,9.369-4.203,9.369-9.369c0-5.167-4.203-9.369-9.369-9.369V143.492v0.25
		c2.446,0,4.662,0.994,6.269,2.601c1.607,1.607,2.601,3.823,2.601,6.269c0,2.446-0.994,4.662-2.601,6.269
		c-1.607,1.607-3.823,2.601-6.269,2.601c-2.446,0-4.662-0.994-6.269-2.601c-1.607-1.607-2.601-3.823-2.601-6.269
		c0-2.446,0.994-4.662,2.601-6.269c1.607-1.607,3.823-2.601,6.269-2.601V143.492z"/>
	<path style="fill:#B3B3B3;" d="M155.139,175c-12.345,0-22.389-10.043-22.389-22.389c0-11.42,8.555-20.981,19.9-22.241l1.105-0.123
		v-5.827l-20.452-15.339c-0.346-0.26-0.553-0.673-0.553-1.106V50.209c0-0.763,0.621-1.383,1.383-1.383h42.011
		c0.763,0,1.384,0.621,1.384,1.383v57.766c0,0.434-0.206,0.847-0.551,1.105l-20.454,15.341v5.827l1.105,0.123
		c11.345,1.26,19.9,10.822,19.9,22.241C177.528,164.957,167.485,175,155.139,175z M155.139,132.989
		c-10.82,0-19.622,8.802-19.622,19.622s8.802,19.622,19.622,19.622s19.622-8.802,19.622-19.622S165.959,132.989,155.139,132.989z
		 M146.02,115.16l9.119,6.84l9.119-6.84V51.593H146.02V115.16z M167.026,113.085l7.736-5.802v-55.69h-7.736V113.085z
		 M135.517,107.283l7.736,5.802V51.593h-7.736V107.283z"/>
	<path style="fill:#B3B3B3;" d="M155.139,175v-0.25c-6.104,0-11.638-2.482-15.647-6.492c-4.009-4.01-6.492-9.543-6.492-15.647
		c0-11.293,8.459-20.747,19.678-21.993l1.105-0.123l0.222-0.025v-6.176l-20.552-15.414c-0.283-0.212-0.454-0.553-0.453-0.906V50.209
		c0.001-0.624,0.509-1.132,1.133-1.133h42.011c0.625,0.001,1.133,0.509,1.134,1.133v57.766c0,0.354-0.17,0.695-0.451,0.904
		l-20.555,15.416v6.175l1.328,0.147c11.219,1.246,19.678,10.7,19.678,21.993c0,6.104-2.482,11.638-6.492,15.647
		c-4.01,4.009-9.543,6.492-15.647,6.492V175v0.25c12.484,0,22.638-10.155,22.639-22.639c0-11.547-8.651-21.216-20.123-22.49
		l-0.883-0.098v-5.478l20.354-15.266c0.409-0.306,0.651-0.792,0.651-1.305V50.209c0-0.901-0.732-1.633-1.634-1.633h-42.011
		c-0.901,0-1.633,0.732-1.633,1.633v57.766c0,0.513,0.243,0.998,0.653,1.306l20.353,15.264v5.478l-0.883,0.098
		c-11.472,1.274-20.123,10.943-20.123,22.49c0,12.484,10.155,22.638,22.639,22.639V175z M155.139,132.989v-0.25
		c-10.958,0-19.872,8.914-19.872,19.872c0,10.958,8.914,19.872,19.872,19.872c10.958,0,19.872-8.914,19.872-19.872
		c0-10.958-8.914-19.872-19.872-19.872V132.989v0.25c5.341,0,10.183,2.172,13.692,5.68c3.508,3.509,5.68,8.35,5.68,13.692
		c0,5.341-2.172,10.183-5.68,13.692c-3.509,3.508-8.35,5.68-13.692,5.68c-5.341,0-10.183-2.172-13.692-5.68
		c-3.508-3.509-5.68-8.35-5.68-13.692c0-5.341,2.172-10.183,5.68-13.692c3.509-3.508,8.35-5.68,13.692-5.68V132.989z M146.02,115.16
		l-0.15,0.2l9.269,6.952l9.369-7.027V51.343H145.77v63.942l0.1,0.075L146.02,115.16h0.25V51.843l17.739,0v63.192l-8.869,6.652
		l-8.969-6.727L146.02,115.16h0.25H146.02z M167.026,113.085l0.15,0.2l7.836-5.877V51.343h-8.236v62.242l0.4-0.3L167.026,113.085
		h0.25V51.843h7.236v55.315l-7.636,5.727L167.026,113.085h0.25H167.026z M135.517,107.283l-0.15,0.2l8.136,6.102V51.343h-8.236
		v56.065l0.1,0.075L135.517,107.283h0.25v-55.44h7.236v60.742l-7.336-5.502L135.517,107.283h0.25H135.517z"/>
	<path style="fill:#B3B3B3;" d="M155.139,164.497c-6.554,0-11.886-5.332-11.886-11.886c0-6.554,5.332-11.886,11.886-11.886
		c6.554,0,11.886,5.332,11.886,11.886C167.026,159.165,161.693,164.497,155.139,164.497z M155.139,143.492
		c-5.028,0-9.119,4.091-9.119,9.119c0,5.028,4.091,9.119,9.119,9.119c5.028,0,9.119-4.091,9.119-9.119
		C164.259,147.583,160.168,143.492,155.139,143.492z"/>
	<path style="fill:#B3B3B3;" d="M155.139,164.497v-0.25c-3.208,0-6.116-1.305-8.224-3.412c-2.108-2.108-3.412-5.016-3.412-8.224
		c0-3.208,1.305-6.116,3.412-8.224c2.108-2.108,5.016-3.412,8.224-3.412c3.208,0,6.116,1.305,8.224,3.412
		c2.108,2.108,3.412,5.016,3.412,8.224c0,3.208-1.305,6.116-3.412,8.224c-2.108,2.108-5.016,3.412-8.224,3.412V164.497v0.25
		c6.693,0,12.136-5.444,12.136-12.136c0-6.693-5.444-12.136-12.136-12.136c-6.693,0-12.136,5.444-12.136,12.136
		c0,6.693,5.444,12.136,12.136,12.136V164.497z M155.139,143.492v-0.25c-5.167,0-9.369,4.203-9.369,9.369
		c0,5.167,4.203,9.369,9.369,9.369c5.167,0,9.369-4.203,9.369-9.369c0-5.167-4.203-9.369-9.369-9.369V143.492v0.25
		c2.446,0,4.662,0.994,6.269,2.601c1.607,1.607,2.601,3.823,2.601,6.269c0,2.446-0.994,4.662-2.601,6.269
		c-1.607,1.607-3.823,2.601-6.269,2.601c-2.446,0-4.662-0.994-6.269-2.601c-1.607-1.607-2.601-3.823-2.601-6.269
		c0-2.446,0.994-4.662,2.601-6.269c1.607-1.607,3.823-2.601,6.269-2.601V143.492z"/>
	<rect x="109.119" y="166.982" style="fill:#B3B3B3;" width="2.767" height="2.766"/>
	<polygon style="fill:#B3B3B3;" points="109.119,169.748 109.369,169.748 109.369,167.232 111.636,167.232 111.636,169.498 
		109.119,169.498 109.119,169.748 109.369,169.748 109.119,169.748 109.119,169.998 112.136,169.998 112.136,166.732 
		108.869,166.732 108.869,169.998 109.119,169.998 	"/>
	<rect x="98.617" y="166.982" style="fill:#B3B3B3;" width="2.766" height="2.766"/>
	<polygon style="fill:#B3B3B3;" points="98.617,169.748 98.867,169.748 98.867,167.232 101.133,167.232 101.133,169.498 
		98.617,169.498 98.617,169.748 98.867,169.748 98.617,169.748 98.617,169.998 101.633,169.998 101.633,166.732 98.367,166.732 
		98.367,169.998 98.617,169.998 	"/>
	<rect x="88.114" y="166.982" style="fill:#B3B3B3;" width="2.767" height="2.766"/>
	<polygon style="fill:#B3B3B3;" points="88.114,169.748 88.364,169.748 88.364,167.232 90.631,167.232 90.631,169.498 
		88.114,169.498 88.114,169.748 88.364,169.748 88.114,169.748 88.114,169.998 91.131,169.998 91.131,166.732 87.864,166.732 
		87.864,169.998 88.114,169.998 	"/>
	<rect x="98.617" y="30.447" style="fill:#B3B3B3;" width="2.766" height="2.766"/>
	<polygon style="fill:#B3B3B3;" points="98.617,33.213 98.867,33.213 98.867,30.697 101.133,30.697 101.133,32.963 98.617,32.963 
		98.617,33.213 98.867,33.213 98.617,33.213 98.617,33.463 101.633,33.463 101.633,30.197 98.367,30.197 98.367,33.463 
		98.617,33.463 	"/>
	<rect x="98.617" y="40.949" style="fill:#B3B3B3;" width="2.766" height="2.767"/>
	<polygon style="fill:#B3B3B3;" points="98.617,43.716 98.867,43.716 98.867,41.199 101.133,41.199 101.133,43.466 98.617,43.466 
		98.617,43.716 98.867,43.716 98.617,43.716 98.617,43.966 101.633,43.966 101.633,40.699 98.367,40.699 98.367,43.966 
		98.617,43.966 	"/>
	<rect x="98.617" y="51.452" style="fill:#B3B3B3;" width="2.766" height="2.767"/>
	<polygon style="fill:#B3B3B3;" points="98.617,54.218 98.867,54.218 98.867,51.702 101.133,51.702 101.133,53.968 98.617,53.968 
		98.617,54.218 98.867,54.218 98.617,54.218 98.617,54.468 101.633,54.468 101.633,51.202 98.367,51.202 98.367,54.468 
		98.617,54.468 	"/>
	<rect x="98.617" y="61.955" style="fill:#B3B3B3;" width="2.766" height="2.766"/>
	<polygon style="fill:#B3B3B3;" points="98.617,64.721 98.867,64.721 98.867,62.205 101.133,62.205 101.133,64.471 98.617,64.471 
		98.617,64.721 98.867,64.721 98.617,64.721 98.617,64.971 101.633,64.971 101.633,61.705 98.367,61.705 98.367,64.971 
		98.617,64.971 	"/>
	<rect x="98.617" y="72.457" style="fill:#B3B3B3;" width="2.766" height="2.767"/>
	<polygon style="fill:#B3B3B3;" points="98.617,75.224 98.867,75.224 98.867,72.707 101.133,72.707 101.133,74.974 98.617,74.974 
		98.617,75.224 98.867,75.224 98.617,75.224 98.617,75.474 101.633,75.474 101.633,72.207 98.367,72.207 98.367,75.474 
		98.617,75.474 	"/>
	<rect x="98.617" y="82.96" style="fill:#B3B3B3;" width="2.766" height="2.767"/>
	<polygon style="fill:#B3B3B3;" points="98.617,85.727 98.867,85.727 98.867,83.21 101.133,83.21 101.133,85.477 98.617,85.477 
		98.617,85.727 98.867,85.727 98.617,85.727 98.617,85.977 101.633,85.977 101.633,82.71 98.367,82.71 98.367,85.977 98.617,85.977 
			"/>
	<rect x="164.259" y="38.324" style="fill:#B3B3B3;" width="2.767" height="2.766"/>
	<polygon style="fill:#B3B3B3;" points="164.259,41.09 164.509,41.09 164.509,38.574 166.776,38.574 166.776,40.84 164.259,40.84 
		164.259,41.09 164.509,41.09 164.259,41.09 164.259,41.34 167.276,41.34 167.276,38.074 164.009,38.074 164.009,41.34 
		164.259,41.34 	"/>
	<rect x="153.756" y="38.324" style="fill:#B3B3B3;" width="2.766" height="2.766"/>
	<polygon style="fill:#B3B3B3;" points="153.756,41.09 154.006,41.09 154.006,38.574 156.273,38.574 156.273,40.84 153.756,40.84 
		153.756,41.09 154.006,41.09 153.756,41.09 153.756,41.34 156.773,41.34 156.773,38.074 153.506,38.074 153.506,41.34 
		153.756,41.34 	"/>
	<rect x="143.253" y="38.324" style="fill:#B3B3B3;" width="2.767" height="2.766"/>
	<polygon style="fill:#B3B3B3;" points="143.253,41.09 143.503,41.09 143.503,38.574 145.77,38.574 145.77,40.84 143.253,40.84 
		143.253,41.09 143.503,41.09 143.253,41.09 143.253,41.34 146.27,41.34 146.27,38.074 143.003,38.074 143.003,41.34 143.253,41.34 
			"/>
	<rect x="53.98" y="38.324" style="fill:#B3B3B3;" width="2.767" height="2.766"/>
	<polygon style="fill:#B3B3B3;" points="53.98,41.09 54.23,41.09 54.23,38.574 56.497,38.574 56.497,40.84 53.98,40.84 53.98,41.09 
		54.23,41.09 53.98,41.09 53.98,41.34 56.997,41.34 56.997,38.074 53.73,38.074 53.73,41.34 53.98,41.34 	"/>
	<rect x="43.477" y="38.324" style="fill:#B3B3B3;" width="2.766" height="2.766"/>
	<polygon style="fill:#B3B3B3;" points="43.477,41.09 43.727,41.09 43.727,38.574 45.994,38.574 45.994,40.84 43.477,40.84 
		43.477,41.09 43.727,41.09 43.477,41.09 43.477,41.34 46.494,41.34 46.494,38.074 43.227,38.074 43.227,41.34 43.477,41.34 	"/>
	<rect x="32.974" y="38.324" style="fill:#B3B3B3;" width="2.767" height="2.766"/>
	<polygon style="fill:#B3B3B3;" points="32.974,41.09 33.224,41.09 33.224,38.574 35.491,38.574 35.491,40.84 32.974,40.84 
		32.974,41.09 33.224,41.09 32.974,41.09 32.974,41.34 35.991,41.34 35.991,38.074 32.724,38.074 32.724,41.34 32.974,41.34 	"/>
</g>
<g>
</g>
<g>
</g>
<g>
</g>
<g>
</g>
<g>
</g>
<g>
</g>
<g>
</g>
<g>
</g>
<g>
</g>
<g>
</g>
<g>
</g>
<g>
</g>
<g>
</g>
<g>
</g>
<g>
</g>
</svg>
