<?xml version="1.0" encoding="iso-8859-1"?>
<!-- Generator: Adobe Illustrator 18.0.0, SVG Export Plug-In . SVG Version: 6.00 Build 0)  -->
<!DOCTYPE svg PUBLIC "-//W3C//DTD SVG 1.1//EN" "http://www.w3.org/Graphics/SVG/1.1/DTD/svg11.dtd">
<svg version="1.1" id="Layer_1" xmlns="http://www.w3.org/2000/svg" xmlns:xlink="http://www.w3.org/1999/xlink" x="0px" y="0px"
	 viewBox="0 0 200 200" style="enable-background:new 0 0 200 200;" xml:space="preserve">
<rect x="234.125" y="71.041" style="fill:#F15A24;" width="3.773" height="3.773"/>
<g>
	<path style="fill:#B3B3B3;" d="M57.271,146.766c-1.896,0-3.788-0.489-5.469-1.414c-3.413-1.877-5.602-5.318-5.855-9.205
		l-1.037-15.897c-0.16-2.441,0.709-4.866,2.383-6.653c1.673-1.786,4.035-2.81,6.482-2.81h6.995c2.447,0,4.809,1.024,6.483,2.81
		c1.673,1.786,2.541,4.211,2.382,6.653l-1.037,15.897c-0.253,3.887-2.442,7.328-5.855,9.206
		C61.059,146.278,59.167,146.766,57.271,146.766z M58.952,122.239c-2.381,1.848-5.658,3.122-9.478,3.683l-1.603,0.235l0.64,9.821
		c0.196,3.007,1.89,5.669,4.53,7.121c1.298,0.714,2.761,1.091,4.23,1.091c1.469,0,2.932-0.377,4.23-1.091
		c2.64-1.452,4.334-4.114,4.53-7.121l0.757-11.612l-1.379-0.38c-1.483-0.408-2.613-0.81-3.359-1.196
		c-0.371-0.192-0.715-0.397-1.021-0.609l-1.058-0.733L58.952,122.239z M53.774,113.359c-1.764,0-3.401,0.709-4.607,1.996
		c-1.206,1.287-1.807,2.965-1.692,4.727l0.232,3.54l1.916-0.322c6.408-1.075,8.919-4.021,9.536-4.899l0.129-0.183l1.822-4.86H53.774
		z M61.546,119.521l1.263,0.751c0.121,0.071,0.255,0.148,0.418,0.233c0.367,0.19,0.887,0.395,1.548,0.611l2.418,0.79l-0.118-2.541
		c-0.06-1.277-0.503-2.491-1.281-3.51l-1.925-2.525L61.546,119.521z"/>
	<path style="fill:#B3B3B3;" d="M57.271,146.766v-0.375c-1.832,0-3.662-0.473-5.289-1.368c-3.302-1.817-5.416-5.14-5.662-8.901
		l-1.037-15.897c-0.012-0.183-0.018-0.366-0.018-0.548c0-2.149,0.823-4.248,2.3-5.824c1.601-1.709,3.866-2.691,6.208-2.691h6.995
		c2.342,0,4.608,0.982,6.209,2.691c1.476,1.576,2.299,3.675,2.299,5.824c0,0.182-0.006,0.365-0.018,0.548l-1.037,15.897
		c-0.245,3.761-2.36,7.084-5.662,8.902c-1.627,0.895-3.457,1.367-5.289,1.367V146.766v0.375c1.961,0,3.914-0.505,5.651-1.46
		c3.525-1.938,5.788-5.497,6.049-9.51l1.037-15.897c0.013-0.199,0.019-0.398,0.019-0.597c0-2.34-0.894-4.619-2.502-6.336
		c-1.745-1.862-4.205-2.928-6.757-2.928h-6.995c-2.552,0-5.011,1.066-6.756,2.928c-1.609,1.718-2.502,3.997-2.503,6.337
		c0,0.199,0.006,0.398,0.019,0.597l1.037,15.897c0.26,4.013,2.524,7.572,6.049,9.509c1.737,0.955,3.689,1.461,5.65,1.461V146.766z
		 M58.952,122.239l-0.23-0.296c-2.314,1.798-5.533,3.055-9.303,3.609l-1.945,0.285l0.663,10.167
		c0.204,3.133,1.972,5.913,4.723,7.425c1.353,0.744,2.877,1.137,4.411,1.137c1.533,0,3.057-0.393,4.411-1.137
		c2.752-1.513,4.52-4.292,4.723-7.425l0.776-11.916l-1.673-0.461c-1.469-0.404-2.582-0.803-3.286-1.168
		c-0.358-0.185-0.689-0.382-0.98-0.584l-1.284-0.89l-1.235,0.958L58.952,122.239l0.23,0.296l0.801-0.621l0.832,0.577
		c0.322,0.223,0.679,0.435,1.063,0.634c0.788,0.406,1.934,0.812,3.432,1.224l1.084,0.299l-0.737,11.307
		c-0.188,2.88-1.807,5.425-4.336,6.817c-1.243,0.683-2.645,1.044-4.049,1.044c-1.405,0-2.806-0.361-4.049-1.045
		c-2.529-1.392-4.147-3.936-4.336-6.817l-0.618-9.476l1.26-0.185c3.87-0.569,7.206-1.859,9.654-3.758L58.952,122.239z
		 M53.774,113.359v-0.375c-1.865-0.001-3.606,0.753-4.88,2.115c-1.173,1.25-1.808,2.861-1.808,4.56c0,0.149,0.005,0.298,0.015,0.448
		l0.259,3.954l2.326-0.39c6.505-1.088,9.119-4.106,9.78-5.053l0.129-0.183l0.028-0.039l2.029-5.412h-7.877V113.359v0.375h6.795
		l-1.615,4.308l-0.102,0.144l0,0.001c-0.573,0.808-2.98,3.682-9.291,4.744l-1.507,0.253l-0.204-3.126
		c-0.009-0.133-0.013-0.267-0.013-0.399c0.001-1.513,0.56-2.931,1.605-4.047c1.138-1.213,2.669-1.877,4.333-1.878V113.359z
		 M61.546,119.521l-0.192,0.322l1.263,0.751l0.001,0.001c0.123,0.073,0.264,0.154,0.435,0.242c0.397,0.205,0.932,0.414,1.604,0.634
		l2.934,0.958l-0.143-3.084c-0.064-1.353-0.534-2.641-1.357-3.72l-2.336-3.064l-2.671,7.12l0.27,0.16L61.546,119.521l0.351,0.132
		l2.084-5.556l1.514,1.985c0.732,0.96,1.147,2.098,1.204,3.3l0.093,1.998l-1.902-0.621c-0.649-0.212-1.155-0.413-1.492-0.587
		c-0.155-0.08-0.281-0.153-0.399-0.223l0.001,0.001l-1.263-0.751L61.546,119.521l0.351,0.132L61.546,119.521z"/>
	<path style="fill:#B3B3B3;" d="M28.4,174.595c-0.382,0-0.742-0.168-0.986-0.461c-0.246-0.294-0.347-0.678-0.28-1.054l1.159-6.394
		c1.311-7.237,7.045-13.014,14.268-14.374c1.093-0.206,2.209-0.31,3.315-0.31h3.488c0.343,0,0.666,0.134,0.911,0.378l6.996,6.996
		l6.998-6.997c0.24-0.24,0.571-0.377,0.91-0.377h3.488c1.107,0,2.222,0.104,3.315,0.31c7.223,1.36,12.957,7.137,14.268,14.375
		l1.158,6.393c0.068,0.375-0.034,0.759-0.279,1.053c-0.244,0.293-0.604,0.461-0.986,0.461H28.4z M45.876,154.573
		c-0.947,0-1.902,0.089-2.839,0.265c-6.183,1.165-11.091,6.11-12.213,12.306l-0.885,4.879h54.664l-0.884-4.879
		c-1.123-6.195-6.031-11.141-12.213-12.306c-0.937-0.176-1.893-0.265-2.84-0.265h-2.955l-7.53,7.53
		c-0.243,0.242-0.566,0.376-0.909,0.376c-0.344,0-0.667-0.134-0.91-0.376l-7.53-7.53H45.876z"/>
	<path style="fill:#B3B3B3;" d="M28.4,174.595v-0.375c-0.272,0-0.524-0.118-0.698-0.326c-0.14-0.167-0.213-0.373-0.213-0.584
		l0.015-0.162l1.159-6.394c1.282-7.083,6.901-12.743,13.969-14.073c1.07-0.202,2.163-0.304,3.246-0.304h3.488
		c0.245,0.001,0.469,0.094,0.646,0.268l7.261,7.261l7.263-7.262c0.168-0.168,0.408-0.268,0.645-0.267h3.488
		c1.083,0,2.176,0.102,3.246,0.304c7.068,1.33,12.687,6.99,13.969,14.073l1.158,6.393l0.015,0.162c0,0.211-0.073,0.417-0.213,0.584
		c-0.174,0.208-0.426,0.326-0.698,0.326H28.4V174.595v0.375h57.743c0.492,0,0.959-0.218,1.274-0.596
		c0.251-0.301,0.387-0.678,0.387-1.065c0-0.098-0.009-0.197-0.027-0.296l-1.158-6.393c-1.341-7.393-7.19-13.286-14.568-14.677
		c-1.116-0.21-2.254-0.317-3.385-0.317h-3.488c-0.44,0.001-0.863,0.176-1.175,0.487l-6.733,6.732l-6.731-6.731
		c-0.313-0.313-0.735-0.488-1.176-0.488h-3.488c-1.13,0-2.269,0.106-3.385,0.317c-7.378,1.391-13.227,7.284-14.568,14.676
		l-1.159,6.394c-0.018,0.099-0.027,0.198-0.027,0.296c0,0.386,0.135,0.764,0.388,1.065c0.315,0.378,0.781,0.596,1.274,0.596V174.595
		z M45.876,154.573v-0.375c-0.97,0-1.948,0.091-2.909,0.271c-6.338,1.195-11.362,6.257-12.513,12.608l-0.965,5.321h55.563
		l-0.964-5.321c-1.152-6.35-6.175-11.412-12.513-12.608c-0.961-0.18-1.939-0.271-2.909-0.271h-3.111l-7.64,7.64
		c-0.174,0.172-0.398,0.265-0.644,0.266c-0.247-0.001-0.47-0.093-0.644-0.266l-7.64-7.64h-3.111V154.573v0.375h2.8l7.421,7.42
		c0.311,0.312,0.734,0.487,1.175,0.486c0.441,0.001,0.863-0.174,1.174-0.485l7.421-7.421h2.8c0.923,0,1.856,0.087,2.771,0.259
		c6.027,1.135,10.82,5.964,11.914,12.005l0.804,4.437H30.388l0.805-4.437c1.092-6.041,5.885-10.871,11.913-12.005
		c0.914-0.172,1.847-0.259,2.77-0.259V154.573z"/>
	<path style="fill:#B3B3B3;" d="M142.729,146.766c-1.896,0-3.787-0.489-5.471-1.415c-3.412-1.877-5.601-5.318-5.854-9.205
		l-1.036-15.897c-0.16-2.442,0.708-4.867,2.382-6.653c1.673-1.786,4.035-2.81,6.483-2.81h6.994c2.447,0,4.809,1.024,6.483,2.81
		c1.673,1.786,2.541,4.211,2.382,6.652l-1.037,15.898c-0.253,3.886-2.442,7.328-5.855,9.206
		C146.515,146.278,144.624,146.766,142.729,146.766z M144.41,122.239c-2.38,1.848-5.657,3.122-9.478,3.683l-1.603,0.235l0.64,9.821
		c0.197,3.007,1.89,5.669,4.53,7.121c1.298,0.714,2.761,1.091,4.23,1.091c1.469,0,2.932-0.377,4.23-1.091
		c2.64-1.452,4.333-4.114,4.53-7.12l0.757-11.612l-1.379-0.38c-1.482-0.408-2.612-0.81-3.36-1.196
		c-0.373-0.193-0.716-0.398-1.018-0.608l-1.06-0.735L144.41,122.239z M139.232,113.359c-1.764,0-3.4,0.709-4.607,1.996
		c-1.206,1.288-1.807,2.967-1.692,4.728l0.231,3.539l1.916-0.322c6.408-1.075,8.919-4.021,9.536-4.899l0.129-0.183l1.822-4.86
		H139.232z M147.004,119.521l1.263,0.751c0.121,0.071,0.255,0.148,0.418,0.233c0.362,0.188,0.882,0.393,1.547,0.611l2.417,0.79
		l-0.117-2.54c-0.059-1.276-0.502-2.49-1.281-3.511l-1.925-2.525L147.004,119.521z"/>
	<path style="fill:#B3B3B3;" d="M142.729,146.766v-0.375c-1.831,0-3.662-0.473-5.29-1.368c-3.301-1.816-5.415-5.14-5.661-8.901
		l-1.036-15.897c-0.012-0.183-0.018-0.366-0.018-0.549c0-2.149,0.823-4.248,2.299-5.823c1.601-1.709,3.867-2.691,6.209-2.691h6.994
		c2.342,0,4.608,0.982,6.209,2.691c1.476,1.576,2.299,3.675,2.299,5.823c0,0.182-0.006,0.365-0.018,0.548l-1.037,15.898
		c-0.245,3.76-2.36,7.084-5.662,8.902c-1.628,0.895-3.458,1.367-5.289,1.367V146.766v0.375c1.959,0,3.911-0.505,5.65-1.46
		c3.525-1.939,5.788-5.498,6.049-9.51l1.037-15.898c0.013-0.199,0.019-0.398,0.019-0.597c0-2.34-0.894-4.619-2.502-6.336
		c-1.745-1.862-4.205-2.928-6.756-2.928h-6.994c-2.552,0-5.012,1.066-6.756,2.928c-1.608,1.716-2.502,3.995-2.502,6.336
		c0,0.199,0.006,0.398,0.02,0.598l1.036,15.897c0.261,4.013,2.525,7.572,6.048,9.509c1.739,0.956,3.692,1.461,5.652,1.461V146.766z
		 M144.41,122.239l-0.23-0.296c-2.313,1.797-5.532,3.055-9.303,3.608l-1.945,0.285l0.663,10.167
		c0.204,3.133,1.972,5.913,4.723,7.425c1.354,0.744,2.878,1.137,4.411,1.137c1.533,0,3.057-0.393,4.41-1.137
		c2.751-1.513,4.519-4.292,4.723-7.424l0.776-11.917l-1.673-0.461c-1.467-0.403-2.581-0.802-3.288-1.168
		c-0.36-0.186-0.689-0.383-0.977-0.583l-1.286-0.892l-1.235,0.96L144.41,122.239l0.23,0.296l0.8-0.622l0.833,0.578
		c0.318,0.22,0.674,0.433,1.06,0.633c0.79,0.407,1.937,0.812,3.434,1.225l1.084,0.299l-0.737,11.308
		c-0.189,2.88-1.807,5.424-4.336,6.816c-1.243,0.683-2.644,1.044-4.049,1.044c-1.405,0-2.806-0.361-4.049-1.045
		c-2.529-1.391-4.147-3.936-4.336-6.817l-0.618-9.476l1.26-0.185c3.87-0.569,7.207-1.86,9.654-3.758L144.41,122.239z
		 M139.232,113.359v-0.375c-1.865-0.001-3.606,0.753-4.88,2.115c-1.173,1.251-1.808,2.861-1.808,4.559
		c0,0.149,0.005,0.299,0.015,0.45l0.258,3.953l2.326-0.39c6.505-1.088,9.12-4.106,9.781-5.053l0.129-0.183l0.028-0.039l2.029-5.411
		h-7.878V113.359v0.375h6.795l-1.615,4.308l-0.101,0.144c-0.573,0.808-2.981,3.683-9.291,4.745l-1.507,0.253l-0.204-3.125
		c-0.009-0.134-0.013-0.268-0.013-0.401c0.001-1.511,0.56-2.929,1.605-4.046c1.138-1.213,2.669-1.877,4.333-1.878V113.359z
		 M147.004,119.521l-0.192,0.322l1.263,0.751l0.001,0.001c0.123,0.073,0.264,0.154,0.435,0.242c0.393,0.203,0.927,0.412,1.603,0.634
		l2.934,0.958l-0.141-3.082c-0.062-1.352-0.532-2.641-1.357-3.721l-2.336-3.064l-2.671,7.12l0.27,0.16L147.004,119.521l0.351,0.132
		l2.084-5.556l1.514,1.985c0.734,0.962,1.149,2.101,1.204,3.301l0.092,1.997l-1.901-0.621c-0.652-0.214-1.159-0.415-1.491-0.587
		c-0.155-0.08-0.282-0.153-0.4-0.223l0.001,0.001l-1.263-0.751L147.004,119.521l0.351,0.132L147.004,119.521z"/>
	<path style="fill:#B3B3B3;" d="M113.857,174.595c-0.382,0-0.742-0.168-0.987-0.462c-0.245-0.294-0.347-0.677-0.278-1.052
		l1.159-6.395c1.311-7.237,7.045-13.014,14.268-14.374c1.093-0.206,2.209-0.31,3.315-0.31h3.489c0.338,0,0.669,0.137,0.909,0.377
		l6.997,6.997l6.997-6.998c0.243-0.243,0.566-0.376,0.91-0.376h3.488c1.108,0,2.223,0.104,3.315,0.31
		c7.223,1.36,12.957,7.137,14.268,14.374l1.159,6.394c0.068,0.376-0.034,0.759-0.279,1.052c-0.246,0.294-0.606,0.463-0.988,0.463
		H113.857z M131.334,154.573c-0.946,0-1.902,0.089-2.839,0.265c-6.182,1.165-11.09,6.11-12.213,12.306l-0.884,4.879h54.663
		l-0.884-4.879c-1.123-6.196-6.031-11.142-12.214-12.306c-0.937-0.176-1.893-0.265-2.84-0.265h-2.955l-7.53,7.53
		c-0.243,0.242-0.566,0.376-0.909,0.376c-0.344,0-0.667-0.134-0.91-0.376l-7.53-7.53H131.334z"/>
	<path style="fill:#B3B3B3;" d="M113.857,174.595v-0.375c-0.272,0-0.524-0.119-0.699-0.327c-0.139-0.167-0.212-0.371-0.212-0.581
		l0.015-0.163l0-0.001l1.159-6.395c1.282-7.083,6.9-12.743,13.968-14.073c1.07-0.202,2.163-0.304,3.246-0.304h3.489
		c0.236-0.001,0.476,0.099,0.644,0.267l7.262,7.262l7.262-7.263c0.174-0.173,0.398-0.266,0.645-0.267h3.488
		c1.084,0,2.177,0.102,3.246,0.304c7.068,1.33,12.687,6.99,13.969,14.073l1.159,6.394l0.014,0.162c0,0.211-0.073,0.416-0.212,0.582
		c-0.175,0.21-0.429,0.328-0.7,0.329h-57.743V174.595v0.375H171.6c0.493,0,0.96-0.219,1.276-0.598
		c0.251-0.3,0.386-0.677,0.386-1.063c0-0.098-0.009-0.197-0.026-0.295l-1.159-6.395c-1.341-7.392-7.19-13.285-14.568-14.676
		c-1.115-0.21-2.254-0.317-3.385-0.317h-3.488c-0.441-0.001-0.863,0.174-1.175,0.486l-6.732,6.733l-6.732-6.732
		c-0.312-0.31-0.735-0.486-1.174-0.487h-3.489c-1.13,0-2.269,0.106-3.385,0.317c-7.378,1.391-13.227,7.284-14.567,14.676
		l-1.16,6.404l0.002-0.01c-0.018,0.099-0.027,0.199-0.027,0.298c0,0.385,0.135,0.762,0.386,1.062
		c0.315,0.378,0.782,0.597,1.275,0.597V174.595z M131.334,154.573v-0.375c-0.97,0-1.948,0.091-2.909,0.271
		c-6.338,1.196-11.361,6.257-12.513,12.608l-0.964,5.321h55.561l-0.964-5.321c-1.152-6.351-6.175-11.413-12.513-12.608
		c-0.96-0.18-1.939-0.271-2.909-0.271h-3.11l-7.64,7.64c-0.174,0.172-0.398,0.265-0.644,0.266c-0.247-0.001-0.471-0.093-0.645-0.266
		l-7.64-7.64h-3.111V154.573v0.375h2.8l7.42,7.42c0.311,0.312,0.734,0.487,1.175,0.486c0.441,0.001,0.863-0.174,1.174-0.485
		l7.421-7.421h2.8c0.923,0,1.856,0.087,2.77,0.259c6.027,1.134,10.821,5.963,11.914,12.005l0.804,4.437h-53.765l0.803-4.437
		c1.093-6.041,5.886-10.87,11.914-12.005c0.915-0.172,1.847-0.259,2.77-0.259V154.573z"/>
	<path style="fill:#B3B3B3;" d="M100,61.384c-1.897,0-3.788-0.489-5.469-1.413c-3.413-1.878-5.603-5.319-5.856-9.206l-1.036-15.897
		c-0.16-2.442,0.709-4.867,2.382-6.653c1.673-1.786,4.035-2.81,6.483-2.81h6.994c2.447,0,4.81,1.024,6.483,2.81
		c1.673,1.786,2.541,4.211,2.381,6.652l-1.037,15.898c-0.253,3.886-2.442,7.328-5.855,9.206
		C103.788,60.895,101.897,61.384,100,61.384z M101.681,36.857c-2.381,1.848-5.659,3.122-9.479,3.683L90.6,40.775l0.641,9.822
		c0.196,3.007,1.889,5.668,4.53,7.12c1.298,0.714,2.761,1.091,4.23,1.091c1.468,0,2.931-0.377,4.23-1.091
		c2.64-1.452,4.333-4.114,4.53-7.12l0.757-11.612l-1.379-0.38c-1.483-0.409-2.613-0.811-3.36-1.197
		c-0.371-0.192-0.714-0.396-1.019-0.608l-1.059-0.734L101.681,36.857z M96.503,27.977c-1.764,0-3.4,0.709-4.607,1.996
		c-1.206,1.288-1.807,2.967-1.693,4.727l0.232,3.541l1.916-0.321c6.409-1.075,8.92-4.021,9.536-4.899l0.129-0.183l1.822-4.86H96.503
		z M104.278,34.132l1.253,0.753c0.123,0.074,0.263,0.154,0.433,0.241c0.358,0.186,0.877,0.391,1.541,0.608l2.418,0.79l-0.118-2.541
		c-0.06-1.276-0.503-2.49-1.281-3.511l-1.925-2.525L104.278,34.132z"/>
	<path style="fill:#B3B3B3;" d="M100,61.384v-0.375c-1.832,0-3.663-0.472-5.288-1.367c-3.302-1.817-5.417-5.141-5.663-8.902
		l-1.036-15.897v0c-0.012-0.183-0.018-0.366-0.018-0.549c0-2.149,0.823-4.248,2.299-5.823c1.601-1.709,3.866-2.691,6.209-2.691
		h6.994c2.342,0,4.608,0.982,6.21,2.691l0,0c1.476,1.575,2.299,3.674,2.299,5.822c0,0.183-0.006,0.366-0.018,0.549l-1.037,15.898
		c-0.245,3.76-2.36,7.084-5.662,8.902c-1.626,0.894-3.457,1.366-5.289,1.366V61.384v0.375c1.961,0,3.913-0.505,5.65-1.459
		c3.525-1.939,5.789-5.498,6.049-9.51l1.037-15.898c0.013-0.199,0.019-0.399,0.019-0.598c0-2.34-0.894-4.619-2.501-6.335
		l-0.037-0.039l0.037,0.039c-1.745-1.862-4.205-2.928-6.757-2.928h-6.994c-2.552,0-5.012,1.066-6.756,2.928
		c-1.608,1.717-2.502,3.996-2.502,6.336c0,0.199,0.006,0.398,0.02,0.598l1.036,15.897c0.261,4.013,2.525,7.572,6.05,9.51
		c1.736,0.955,3.689,1.459,5.65,1.459V61.384z M101.681,36.857l-0.23-0.296c-2.314,1.798-5.533,3.055-9.304,3.609l-1.945,0.285
		l0.664,10.167c0.203,3.133,1.971,5.912,4.723,7.425c1.354,0.744,2.878,1.137,4.411,1.137c1.532,0,3.056-0.393,4.41-1.137
		c2.751-1.513,4.519-4.292,4.723-7.424l0.776-11.917l-1.673-0.461c-1.468-0.404-2.582-0.804-3.287-1.168l-0.009-0.005l0.009,0.005
		c-0.358-0.185-0.687-0.382-0.978-0.583l-1.285-0.891l-1.236,0.958l0,0L101.681,36.857l0.23,0.296l0.801-0.621l0.833,0.577
		c0.32,0.222,0.677,0.434,1.06,0.633l0,0c0.788,0.406,1.935,0.811,3.432,1.225l1.084,0.299l-0.737,11.307
		c-0.189,2.88-1.807,5.423-4.336,6.815c-1.244,0.683-2.645,1.044-4.049,1.044c-1.405,0-2.806-0.361-4.049-1.044
		c-2.529-1.392-4.148-3.936-4.336-6.816l-0.619-9.476l1.26-0.185c3.87-0.569,7.207-1.859,9.655-3.758l0,0L101.681,36.857z
		 M96.503,27.977v-0.375c-1.865-0.001-3.606,0.753-4.88,2.114l0,0c-1.173,1.252-1.809,2.862-1.808,4.56
		c0,0.148,0.005,0.298,0.015,0.447l0.259,3.955l2.326-0.39c6.506-1.088,9.12-4.106,9.781-5.053l0,0.001l0.129-0.183l0.028-0.039
		l2.029-5.412h-7.877V27.977v0.375h6.795l-1.615,4.308l-0.102,0.144l0,0.001c-0.573,0.808-2.98,3.682-9.292,4.745l-1.507,0.253
		l-0.204-3.127c-0.009-0.133-0.013-0.266-0.013-0.398c0.001-1.511,0.56-2.93,1.606-4.048l0,0c1.138-1.213,2.669-1.876,4.333-1.877
		V27.977z M104.278,34.132l-0.193,0.321l1.256,0.755l-0.004-0.002c0.13,0.078,0.278,0.163,0.455,0.254l-0.001-0.001
		c0.389,0.202,0.922,0.41,1.597,0.631l2.935,0.959l-0.144-3.084c-0.063-1.351-0.533-2.64-1.358-3.721l-2.336-3.064l-2.667,7.112
		l0.268,0.161L104.278,34.132l0.351,0.132l2.082-5.55l1.514,1.985c0.733,0.962,1.149,2.1,1.205,3.301l0.093,1.999l-1.902-0.621
		c-0.651-0.213-1.157-0.414-1.484-0.584l-0.001-0.001c-0.161-0.083-0.293-0.158-0.41-0.228l-1.254-0.753L104.278,34.132l0.351,0.132
		L104.278,34.132z"/>
	<path style="fill:#B3B3B3;" d="M71.128,89.214c-0.382,0-0.742-0.169-0.987-0.463c-0.245-0.294-0.347-0.678-0.279-1.053l1.159-6.394
		c1.312-7.238,7.046-13.014,14.268-14.373c1.094-0.206,2.209-0.31,3.315-0.31h3.488c0.338,0,0.67,0.137,0.91,0.377L100,73.994
		l6.997-6.997c0.243-0.243,0.566-0.376,0.909-0.376h3.489c1.107,0,2.222,0.104,3.315,0.31c7.223,1.36,12.957,7.136,14.268,14.373
		l1.159,6.394c0.068,0.376-0.033,0.76-0.279,1.053c-0.246,0.294-0.605,0.462-0.987,0.462H71.128z M88.605,69.192
		c-0.948,0-1.903,0.089-2.839,0.265c-6.183,1.164-11.091,6.109-12.214,12.306l-0.883,4.879h54.663l-0.884-4.879
		c-1.123-6.197-6.031-11.143-12.214-12.306c-0.936-0.176-1.892-0.265-2.84-0.265h-2.956l-7.53,7.53
		c-0.243,0.243-0.566,0.376-0.91,0.376c-0.343,0-0.666-0.134-0.909-0.376l-7.53-7.53H88.605z"/>
	<path style="fill:#B3B3B3;" d="M71.128,89.214v-0.375c-0.271,0-0.524-0.119-0.699-0.328c-0.139-0.166-0.212-0.372-0.212-0.583
		l0.015-0.163l1.159-6.394c1.283-7.083,6.901-12.743,13.969-14.072c1.071-0.202,2.164-0.304,3.246-0.304h3.488
		c0.237-0.001,0.477,0.099,0.645,0.267L100,74.524l7.262-7.262c0.174-0.173,0.398-0.266,0.644-0.267h3.489
		c1.083,0,2.176,0.102,3.246,0.304c7.068,1.329,12.687,6.989,13.969,14.072l1.159,6.394l0.015,0.163
		c0,0.212-0.073,0.416-0.212,0.583c-0.175,0.209-0.428,0.327-0.699,0.328H71.128V89.214v0.375h57.743
		c0.492,0,0.959-0.219,1.275-0.597c0.252-0.301,0.387-0.678,0.387-1.064c0-0.099-0.009-0.198-0.027-0.297l-1.159-6.394
		c-1.341-7.393-7.19-13.285-14.568-14.675c-1.116-0.21-2.255-0.317-3.385-0.317h-3.489c-0.441-0.001-0.863,0.174-1.174,0.486
		L100,73.463l-6.732-6.732l0,0c-0.312-0.31-0.735-0.485-1.175-0.486h-3.488c-1.13,0-2.268,0.107-3.385,0.317
		c-7.377,1.39-13.226,7.282-14.568,14.675l-1.159,6.394c-0.018,0.099-0.027,0.198-0.027,0.297c0,0.386,0.135,0.763,0.386,1.064
		c0.316,0.379,0.782,0.598,1.275,0.597V89.214z M88.605,69.192v-0.375c-0.971,0-1.95,0.091-2.909,0.271
		c-6.338,1.194-11.361,6.256-12.513,12.607l-0.963,5.321h55.561l-0.963-5.32c-1.152-6.352-6.176-11.414-12.513-12.608
		c-0.959-0.18-1.938-0.271-2.909-0.271h-3.111l-7.64,7.64l0,0c-0.175,0.173-0.399,0.266-0.645,0.267
		c-0.246-0.001-0.47-0.093-0.644-0.267l-7.64-7.64h-3.111V69.192v0.375h2.8l7.42,7.42c0.311,0.312,0.733,0.487,1.174,0.486
		c0.441,0.001,0.863-0.174,1.174-0.486l7.421-7.421h2.8c0.924,0,1.857,0.087,2.77,0.259c6.027,1.133,10.82,5.963,11.914,12.005
		l0.803,4.437H73.118l0.803-4.438c1.093-6.042,5.886-10.871,11.914-12.004c0.913-0.172,1.846-0.259,2.77-0.259V69.192z"/>
	<path style="fill:#B3B3B3;" d="M99.084,101.742c-0.709,0-1.286-0.577-1.286-1.286v-0.917c0-0.709,0.577-1.285,1.286-1.285
		c0.709,0,1.285,0.577,1.285,1.285v0.917C100.369,101.165,99.792,101.742,99.084,101.742z"/>
	<path style="fill:#B3B3B3;" d="M99.084,101.742v-0.375c-0.501-0.001-0.91-0.41-0.911-0.911v-0.917
		c0.001-0.501,0.41-0.909,0.911-0.91c0.501,0.001,0.909,0.409,0.91,0.91v0.917c-0.001,0.501-0.41,0.91-0.91,0.911V101.742v0.375
		c0.917-0.001,1.659-0.744,1.66-1.661v-0.917c-0.001-0.916-0.744-1.659-1.66-1.66c-0.917,0.001-1.66,0.743-1.661,1.66v0.917
		c0.001,0.917,0.744,1.66,1.661,1.661V101.742z"/>
	<path style="fill:#B3B3B3;" d="M118.928,135.202c-0.224,0-0.445-0.059-0.639-0.172l-19.206-11.089l-19.205,11.088
		c-0.195,0.113-0.416,0.173-0.639,0.173c-0.46,0-0.888-0.247-1.117-0.643c-0.354-0.613-0.143-1.401,0.471-1.756l19.204-11.089
		v-12.397c0-0.709,0.577-1.286,1.286-1.286c0.709,0,1.285,0.577,1.285,1.286v12.397l19.205,11.089
		c0.614,0.354,0.824,1.142,0.47,1.756C119.815,134.956,119.387,135.202,118.928,135.202z"/>
	<path style="fill:#B3B3B3;" d="M118.928,135.202v-0.375c-0.157,0-0.314-0.042-0.451-0.121l-19.394-11.197l-19.393,11.196
		l-0.001,0.001c-0.138,0.08-0.294,0.122-0.451,0.122c-0.325,0-0.631-0.176-0.793-0.456c-0.082-0.143-0.121-0.298-0.121-0.452
		c0-0.316,0.163-0.623,0.455-0.791l19.392-11.197v-12.614c0.001-0.501,0.41-0.91,0.911-0.911c0.501,0.001,0.909,0.409,0.91,0.911
		v12.614l19.393,11.197c0.291,0.168,0.454,0.474,0.455,0.79c0,0.155-0.039,0.31-0.122,0.454c-0.161,0.279-0.466,0.456-0.791,0.455
		V135.202v0.375c0.594,0,1.143-0.317,1.441-0.83c0.15-0.26,0.223-0.547,0.222-0.829c0-0.573-0.298-1.132-0.829-1.44l-19.018-10.981
		l0-12.181c-0.001-0.917-0.743-1.66-1.66-1.661c-0.917,0.001-1.66,0.744-1.661,1.661v12.181l-19.017,10.98
		c-0.532,0.308-0.831,0.867-0.83,1.441c0,0.281,0.072,0.567,0.222,0.827c0.298,0.514,0.848,0.831,1.442,0.831
		c0.29,0,0.576-0.077,0.828-0.224l19.017-10.979l19.018,10.981c0.251,0.145,0.536,0.222,0.826,0.222V135.202z"/>
</g>
<g>
</g>
<g>
</g>
<g>
</g>
<g>
</g>
<g>
</g>
<g>
</g>
<g>
</g>
<g>
</g>
<g>
</g>
<g>
</g>
<g>
</g>
<g>
</g>
<g>
</g>
<g>
</g>
<g>
</g>
</svg>
