<?xml version="1.0" encoding="iso-8859-1"?>
<!-- Generator: Adobe Illustrator 18.0.0, SVG Export Plug-In . SVG Version: 6.00 Build 0)  -->
<!DOCTYPE svg PUBLIC "-//W3C//DTD SVG 1.1//EN" "http://www.w3.org/Graphics/SVG/1.1/DTD/svg11.dtd">
<svg version="1.1" id="Layer_1" xmlns="http://www.w3.org/2000/svg" xmlns:xlink="http://www.w3.org/1999/xlink" x="0px" y="0px"
	 viewBox="0 0 200 200" style="enable-background:new 0 0 200 200;" xml:space="preserve">
<rect x="234.125" y="71.041" style="fill:#F15A24;" width="3.773" height="3.773"/>
<g>
	<path style="fill:#B3B3B3;" d="M137.274,178.637c-0.724,0-1.314-0.589-1.314-1.314v-6.361H97.788v6.361
		c0,0.724-0.589,1.314-1.314,1.314c-0.724,0-1.314-0.589-1.314-1.314v-6.361H57.797v6.361c0,0.724-0.589,1.314-1.314,1.314
		c-0.724,0-1.314-0.589-1.314-1.314v-6.361H24.571c-0.724,0-1.314-0.589-1.314-1.315v-33.021h-7.573
		c-0.725,0-1.315-0.589-1.315-1.315c0-0.724,0.589-1.314,1.315-1.314h7.573V95.826h-7.573c-0.725,0-1.315-0.589-1.315-1.314
		c0-0.724,0.589-1.314,1.315-1.314h7.573V55.835h-7.573c-0.725,0-1.315-0.589-1.315-1.314s0.589-1.314,1.315-1.314h7.572V18.57
		c0-0.724,0.589-1.314,1.315-1.314c0.724,0,1.314,0.589,1.314,1.314v34.572l24.804,32.638l1.388-0.504
		c1.023-0.372,2.097-0.561,3.193-0.561c1.064,0,2.114,0.18,3.121,0.535l1.478,0.522l29.032-43.99l-0.928-1.141
		c-1.377-1.692-2.105-3.737-2.105-5.914c0-5.18,4.213-9.393,9.393-9.393s9.394,4.213,9.394,9.393c0,2.655-1.138,5.201-3.124,6.987
		l-1.034,0.929l17.777,45.33l13.076-31.252l-1.172-0.945c-2.231-1.799-3.51-4.465-3.51-7.314c0-5.18,4.213-9.394,9.393-9.394
		c3.997,0,7.564,2.543,8.876,6.328l0.467,1.348h22.569c0.724,0,1.314,0.589,1.314,1.314s-0.589,1.314-1.314,1.314h-22.437
		l-0.395,1.492c-1.09,4.116-4.823,6.992-9.08,6.992c-0.275,0-0.546-0.016-0.815-0.038l-1.455-0.122l-14.139,33.793l14.049,35.826
		l1.503-0.141c0.283-0.026,0.568-0.041,0.858-0.041c2.049,0,3.998,0.651,5.636,1.883l1.391,1.047l13.656-13.655
		c0.249-0.249,0.578-0.385,0.929-0.385c0.35,0,0.68,0.137,0.929,0.385c0.248,0.249,0.385,0.579,0.385,0.929
		c0,0.351-0.136,0.68-0.385,0.928l-14.055,14.055l0.404,1.183c0.333,0.976,0.502,1.992,0.502,3.022c0,5.18-4.213,9.393-9.393,9.393
		c-5.18,0-9.393-4.213-9.393-9.393c0-2.83,1.265-5.485,3.471-7.282l1.134-0.925l-13.077-33.347l-17.552,41.947l1.112,0.95
		c2.099,1.793,3.303,4.396,3.303,7.141c0,5.18-4.213,9.393-9.393,9.393c-4.843,0-8.952-3.778-9.357-8.601l-0.119-1.426l-21.423-5.41
		l-0.728,1.42c-1.621,3.164-4.826,5.13-8.364,5.13c-1.544,0-3.018-0.366-4.381-1.089l-1.383-0.732l-22.147,24.642h147.884
		c0.725,0,1.315,0.589,1.315,1.314c0,0.725-0.589,1.315-1.315,1.315h-37.061v6.361C138.587,178.047,137.998,178.637,137.274,178.637
		z M25.885,166.493l22.187-24.689l-0.671-1.242c-0.732-1.357-1.119-2.893-1.119-4.443c0-5.179,4.213-9.392,9.393-9.392
		c4.745,0,8.753,3.551,9.321,8.259l0.164,1.366l21.547,5.442l0.75-1.344c1.663-2.983,4.809-4.836,8.207-4.836
		c0.366,0,0.726,0.024,1.082,0.065l1.496,0.17l18.575-44.394L98.133,43.808l-1.566,0.22c-0.426,0.06-0.861,0.093-1.304,0.093
		c-0.937,0-1.864-0.139-2.754-0.413l-1.436-0.442L61.962,87.374l0.842,1.129c1.218,1.632,1.861,3.57,1.861,5.605
		c0,5.18-4.213,9.393-9.393,9.393s-9.393-4.213-9.393-9.393c0-2.009,0.629-3.926,1.82-5.546l0.888-1.207L25.885,57.486V166.493z
		 M95.666,138.241c-3.73,0-6.764,3.035-6.764,6.765c0,3.731,3.035,6.765,6.764,6.765c3.731,0,6.765-3.035,6.765-6.765
		C102.432,141.276,99.397,138.241,95.666,138.241z M136.062,129.758c-3.731,0-6.765,3.035-6.765,6.765s3.035,6.765,6.765,6.765
		c3.731,0,6.765-3.035,6.765-6.765S139.792,129.758,136.062,129.758z M55.676,129.354c-3.731,0-6.765,3.035-6.765,6.764
		c0,3.731,3.035,6.765,6.765,6.765c3.73,0,6.764-3.035,6.764-6.765C62.44,132.389,59.406,129.354,55.676,129.354z M55.271,87.344
		c-3.73,0-6.764,3.035-6.764,6.764c0,3.731,3.035,6.765,6.764,6.765c3.731,0,6.765-3.035,6.765-6.765
		C62.036,90.378,59.001,87.344,55.271,87.344z M136.062,41.697c-3.731,0-6.765,3.035-6.765,6.765s3.035,6.765,6.765,6.765
		c3.73,0,6.764-3.035,6.764-6.765S139.791,41.697,136.062,41.697z M95.263,27.963c-3.731,0-6.765,3.035-6.765,6.765
		s3.035,6.765,6.765,6.765c3.731,0,6.765-3.035,6.765-6.765S98.994,27.963,95.263,27.963z"/>
	<path style="fill:#B3B3B3;" d="M137.274,178.637v-0.375c-0.517-0.001-0.938-0.422-0.939-0.939v-6.736H97.413v6.736
		c-0.001,0.517-0.422,0.938-0.939,0.939c-0.517-0.001-0.938-0.422-0.939-0.939v-6.736H57.422v6.736
		c-0.001,0.517-0.422,0.938-0.939,0.939c-0.517-0.001-0.938-0.422-0.939-0.939v-6.736H24.571c-0.517-0.001-0.938-0.422-0.939-0.94
		v-33.396h-7.948c-0.518-0.001-0.939-0.422-0.94-0.94c0.001-0.517,0.422-0.938,0.94-0.939h7.948V95.451h-7.948
		c-0.518-0.001-0.939-0.422-0.94-0.939c0.001-0.517,0.422-0.938,0.94-0.939h7.948V55.46h-7.948c-0.518-0.001-0.939-0.422-0.94-0.939
		c0.001-0.517,0.422-0.938,0.94-0.939h7.947V18.57c0.001-0.517,0.422-0.938,0.94-0.939c0.517,0.001,0.938,0.422,0.939,0.939v34.698
		l25.048,32.958l1.648-0.598c0.982-0.357,2.012-0.538,3.065-0.538c1.022,0,2.029,0.173,2.996,0.514l1.755,0.619l29.345-44.464
		l-1.102-1.355l0,0c-1.324-1.627-2.02-3.583-2.021-5.677c0-2.487,1.011-4.739,2.644-6.374c1.634-1.634,3.887-2.644,6.374-2.644
		c2.487,0,4.74,1.011,6.374,2.644c1.634,1.634,2.645,3.887,2.645,6.374c0,2.547-1.093,4.993-3,6.708l-1.227,1.103l18.21,46.434
		l13.541-32.366l-1.391-1.121c-2.144-1.73-3.37-4.286-3.371-7.022c0-2.487,1.011-4.74,2.644-6.374
		c1.634-1.634,3.887-2.645,6.374-2.645c3.836,0,7.262,2.442,8.522,6.076l0.554,1.6h22.836c0.517,0.001,0.938,0.422,0.939,0.939
		c-0.001,0.517-0.422,0.938-0.939,0.939h-22.726l-0.469,1.771c-1.046,3.952-4.631,6.713-8.717,6.713
		c-0.261,0-0.521-0.015-0.784-0.037l-1.727-0.145l-14.303,34.185l14.207,36.23l1.784-0.167c0.272-0.025,0.545-0.039,0.823-0.039
		c1.969,0.001,3.836,0.624,5.41,1.808l1.651,1.243l13.887-13.885c0.18-0.179,0.409-0.274,0.664-0.275
		c0.252,0.001,0.484,0.097,0.664,0.275l-0.001-0.001c0.179,0.18,0.275,0.412,0.275,0.664c-0.001,0.254-0.096,0.483-0.274,0.662
		l-0.001,0.001l-14.22,14.221l0.48,1.404c0.32,0.937,0.482,1.912,0.482,2.901c0,2.487-1.011,4.739-2.644,6.374
		c-1.634,1.634-3.887,2.644-6.374,2.644c-2.487,0-4.739-1.011-6.374-2.644c-1.634-1.634-2.644-3.887-2.644-6.374
		c0-2.718,1.213-5.264,3.333-6.992l1.346-1.098L118.208,93.97l-18.015,43.053l1.32,1.127c2.016,1.723,3.171,4.221,3.171,6.856
		c0,2.487-1.011,4.739-2.644,6.374c-1.634,1.634-3.887,2.644-6.374,2.644c-4.645,0.002-8.597-3.631-8.983-8.257l-0.142-1.693
		l-21.972-5.548l-0.864,1.686c-1.559,3.04-4.632,4.925-8.03,4.926c-1.484,0-2.895-0.351-4.205-1.045l-0.014-0.007l-1.628-0.862
		l-22.905,25.485h148.725c0.518,0.001,0.939,0.422,0.94,0.939c-0.001,0.518-0.422,0.939-0.94,0.94h-37.436v6.736
		c-0.001,0.517-0.422,0.938-0.939,0.939V178.637v0.375c0.932-0.001,1.688-0.756,1.689-1.689v-5.986h36.686
		c0.933-0.001,1.689-0.757,1.69-1.69c-0.001-0.932-0.757-1.688-1.69-1.689H28.606l21.389-23.798l1.125,0.595l0,0
		c1.415,0.751,2.953,1.133,4.556,1.132c3.678,0.001,7.014-2.046,8.698-5.334l0.592-1.155l20.874,5.271l0.097,1.16
		c0.423,5.02,4.69,8.942,9.73,8.945c5.387-0.001,9.767-4.38,9.768-9.768c0-2.855-1.253-5.563-3.434-7.426l-0.904-0.772
		l17.089-40.841l12.639,32.231l-0.922,0.752c-2.293,1.867-3.61,4.631-3.609,7.573c0.001,5.387,4.38,9.767,9.768,9.768
		c5.387-0.001,9.767-4.38,9.768-9.768c0-1.071-0.176-2.129-0.522-3.143l-0.329-0.962l13.889-13.89l-0.001,0.001
		c0.319-0.316,0.496-0.745,0.495-1.194c0.001-0.449-0.178-0.877-0.494-1.194l-0.001-0.001c-0.317-0.316-0.745-0.495-1.194-0.494
		c-0.448-0.001-0.877,0.177-1.194,0.495l-13.426,13.425l-1.131-0.851c-1.701-1.281-3.733-1.959-5.861-1.959
		c-0.302,0-0.599,0.015-0.892,0.043l-1.222,0.115l-13.89-35.422l13.975-33.401l1.183,0.099c0.276,0.023,0.558,0.039,0.847,0.039
		c4.427,0,8.309-2.989,9.442-7.271l0.322-1.213h22.149c0.932-0.001,1.688-0.756,1.689-1.689c-0.001-0.932-0.756-1.688-1.689-1.689
		h-22.302l-0.38-1.096c-1.364-3.935-5.073-6.58-9.23-6.58c-5.387,0.001-9.767,4.381-9.768,9.769
		c-0.001,2.961,1.332,5.737,3.65,7.605l0.953,0.768l-12.61,30.139l-17.345-44.227l0.84-0.755c2.064-1.857,3.248-4.503,3.248-7.266
		c-0.001-5.387-4.381-9.767-9.769-9.768c-5.387,0.001-9.767,4.38-9.768,9.768c-0.001,2.261,0.758,4.395,2.189,6.15l0.005,0.006
		l0.75,0.922L59.718,85.32l-1.202-0.424c-1.046-0.369-2.139-0.557-3.246-0.557c-1.139,0-2.258,0.197-3.321,0.583l-1.128,0.41
		L26.26,53.015V18.57c-0.001-0.932-0.756-1.688-1.689-1.689c-0.933,0.001-1.689,0.756-1.69,1.689v34.262l-7.197,0
		c-0.933,0.001-1.689,0.756-1.69,1.689c0.001,0.932,0.757,1.688,1.69,1.689h7.198v36.614l-7.198,0
		c-0.933,0.001-1.689,0.756-1.69,1.689c0.001,0.932,0.757,1.688,1.69,1.689h7.198v37.421h-7.198
		c-0.933,0.001-1.689,0.756-1.69,1.689c0.001,0.933,0.757,1.689,1.69,1.69h7.198l0,32.646c0.001,0.933,0.756,1.689,1.689,1.69
		h30.223l0,5.986c0.001,0.932,0.756,1.688,1.689,1.689c0.932-0.001,1.688-0.756,1.689-1.689v-5.986h36.614v5.986
		c0.001,0.932,0.756,1.688,1.689,1.689c0.932-0.001,1.688-0.756,1.689-1.689v-5.986h37.421v5.986
		c0.001,0.932,0.757,1.688,1.689,1.689V178.637z M25.885,166.493l0.279,0.251l22.364-24.885l-0.796-1.475
		c-0.702-1.301-1.074-2.777-1.074-4.265c0-2.487,1.011-4.739,2.644-6.373c1.634-1.634,3.887-2.644,6.374-2.644
		c4.555,0,8.404,3.409,8.949,7.929l0.195,1.621l22.076,5.575l0.89-1.595c1.597-2.865,4.618-4.644,7.88-4.644
		c0.349,0,0.695,0.023,1.04,0.062l1.775,0.202l18.743-44.794L98.374,43.395l-1.859,0.262c-0.41,0.057-0.828,0.089-1.252,0.089
		c-0.9,0-1.789-0.133-2.643-0.396l-1.705-0.525L61.504,87.387l0.999,1.34c1.17,1.569,1.786,3.425,1.787,5.381
		c0,2.487-1.011,4.739-2.644,6.374c-1.634,1.634-3.887,2.644-6.374,2.644c-2.487,0-4.739-1.011-6.374-2.644
		c-1.634-1.634-2.644-3.887-2.644-6.374c0-1.93,0.603-3.766,1.747-5.324l1.054-1.433L25.51,56.373v111.098l0.654-0.728
		L25.885,166.493h0.375V58.599l21.858,28.76l-0.722,0.981c-1.237,1.683-1.893,3.681-1.893,5.768c0.001,5.387,4.38,9.767,9.768,9.768
		c5.387-0.001,9.767-4.38,9.768-9.768c0-2.114-0.67-4.135-1.935-5.83l-0.684-0.918l28.812-43.654l1.168,0.36
		c0.926,0.285,1.89,0.43,2.864,0.43c0.461,0,0.914-0.035,1.356-0.097l1.273-0.179l18.522,47.229l-18.408,43.995l-1.216-0.138
		c-0.367-0.041-0.741-0.067-1.124-0.067c-3.536,0-6.806,1.927-8.535,5.028l-0.61,1.093l-21.018-5.308l-0.134-1.11
		c-0.592-4.898-4.759-8.589-9.694-8.589c-5.387,0.001-9.767,4.38-9.768,9.767c0,1.613,0.402,3.209,1.164,4.621l0.545,1.01
		l-22.011,24.492L25.885,166.493h0.375H25.885z M95.666,138.241v-0.375c-3.938,0.001-7.139,3.202-7.139,7.14
		c0.001,3.939,3.202,7.14,7.139,7.14c3.939-0.001,7.14-3.202,7.14-7.14c-0.001-3.939-3.202-7.14-7.14-7.14V138.241v0.375
		c1.763,0,3.358,0.716,4.517,1.874c1.158,1.158,1.874,2.754,1.874,4.517c0,1.763-0.716,3.358-1.874,4.517
		c-1.158,1.158-2.754,1.874-4.517,1.874c-1.762,0-3.357-0.716-4.516-1.874c-1.158-1.158-1.874-2.754-1.874-4.517
		c0-1.763,0.716-3.358,1.874-4.517c1.158-1.158,2.754-1.874,4.516-1.874V138.241z M136.062,129.758v-0.375
		c-3.939,0.001-7.14,3.202-7.14,7.14c0.001,3.938,3.202,7.14,7.14,7.14c3.938-0.001,7.14-3.202,7.14-7.14
		c-0.001-3.939-3.202-7.14-7.14-7.14V129.758v0.375c1.763,0,3.358,0.716,4.517,1.874c1.158,1.158,1.874,2.754,1.874,4.517
		c0,1.763-0.716,3.358-1.874,4.517c-1.158,1.158-2.754,1.874-4.517,1.874c-1.763,0-3.358-0.716-4.517-1.874
		c-1.158-1.158-1.874-2.754-1.874-4.517c0-1.763,0.716-3.358,1.874-4.517c1.158-1.158,2.754-1.874,4.517-1.874V129.758z
		 M55.676,129.354v-0.375c-3.938,0.001-7.14,3.202-7.14,7.139c0.001,3.938,3.202,7.14,7.14,7.14c3.938-0.001,7.139-3.202,7.139-7.14
		c-0.001-3.938-3.202-7.139-7.139-7.139V129.354v0.375c1.762,0,3.357,0.716,4.516,1.874c1.158,1.158,1.874,2.754,1.874,4.516
		c0,1.763-0.716,3.358-1.874,4.517c-1.158,1.158-2.754,1.874-4.516,1.874c-1.763,0-3.358-0.716-4.517-1.874
		c-1.158-1.158-1.874-2.754-1.874-4.517c0-1.762,0.716-3.357,1.874-4.516c1.158-1.158,2.754-1.874,4.517-1.874V129.354z
		 M55.271,87.344v-0.375c-3.938,0.001-7.139,3.202-7.139,7.139c0.001,3.938,3.202,7.14,7.139,7.14c3.939-0.001,7.14-3.202,7.14-7.14
		c-0.001-3.938-3.202-7.139-7.14-7.139V87.344v0.375c1.763,0,3.358,0.716,4.517,1.874c1.158,1.158,1.874,2.754,1.874,4.516
		c0,1.763-0.716,3.358-1.874,4.517c-1.158,1.158-2.754,1.874-4.517,1.874c-1.762,0-3.357-0.716-4.516-1.874
		c-1.158-1.158-1.874-2.754-1.874-4.517c0-1.762,0.716-3.357,1.874-4.516c1.158-1.158,2.754-1.874,4.516-1.874V87.344z
		 M136.062,41.697v-0.375c-3.939,0.001-7.14,3.202-7.14,7.14c0.001,3.939,3.202,7.14,7.14,7.14c3.938-0.001,7.139-3.202,7.139-7.14
		c-0.001-3.938-3.202-7.14-7.139-7.14V41.697v0.375c1.762,0,3.357,0.716,4.516,1.874c1.158,1.158,1.874,2.754,1.874,4.517
		c0,1.763-0.716,3.358-1.874,4.517c-1.158,1.158-2.754,1.874-4.516,1.874c-1.763,0-3.358-0.716-4.517-1.874
		c-1.158-1.158-1.874-2.754-1.874-4.517c0-1.763,0.716-3.358,1.874-4.517c1.158-1.158,2.754-1.874,4.517-1.874V41.697z
		 M95.263,27.963v-0.375c-3.939,0.001-7.14,3.202-7.14,7.14c0.001,3.939,3.202,7.14,7.14,7.14c3.939-0.001,7.14-3.202,7.14-7.14
		c-0.001-3.939-3.202-7.14-7.14-7.14V27.963v0.375c1.763,0,3.358,0.716,4.517,1.874c1.158,1.158,1.874,2.754,1.874,4.517
		c0,1.763-0.716,3.358-1.874,4.517c-1.158,1.158-2.754,1.874-4.517,1.874c-1.763,0-3.358-0.716-4.517-1.874
		c-1.158-1.158-1.874-2.754-1.874-4.517c0-1.763,0.716-3.358,1.874-4.517c1.158-1.158,2.754-1.874,4.517-1.874V27.963z"/>
	<path style="fill:#B3B3B3;" d="M166.358,109.561c-0.35,0-0.68-0.137-0.929-0.385c-0.512-0.513-0.512-1.347,0-1.859l2.625-2.626
		c0.248-0.248,0.579-0.384,0.93-0.384c0.35,0,0.681,0.136,0.929,0.385c0.511,0.511,0.511,1.346-0.001,1.858l-2.625,2.626
		C167.038,109.425,166.709,109.561,166.358,109.561z"/>
	<path style="fill:#B3B3B3;" d="M166.358,109.561v-0.375c-0.252-0.001-0.484-0.097-0.664-0.275l0.001,0.001
		c-0.183-0.184-0.274-0.423-0.274-0.665c0-0.242,0.091-0.481,0.274-0.664l2.626-2.627c0.178-0.177,0.41-0.273,0.665-0.274
		c0.253,0.001,0.485,0.096,0.663,0.274l0.001,0.001c0.182,0.182,0.273,0.421,0.273,0.663c0,0.243-0.091,0.481-0.274,0.665
		l-2.626,2.626c-0.18,0.179-0.409,0.274-0.664,0.275V109.561v0.375c0.448,0.001,0.877-0.177,1.194-0.495l2.626-2.627
		c0.329-0.329,0.494-0.764,0.494-1.195c0-0.431-0.165-0.865-0.493-1.193l0.001,0.001c-0.317-0.319-0.747-0.496-1.195-0.495
		c-0.448-0.001-0.878,0.176-1.195,0.494l-2.626,2.627c-0.329,0.329-0.494,0.763-0.494,1.194c0,0.431,0.165,0.866,0.494,1.195
		l0.001,0.001c0.317,0.316,0.745,0.495,1.194,0.494V109.561z"/>
</g>
<g>
</g>
<g>
</g>
<g>
</g>
<g>
</g>
<g>
</g>
<g>
</g>
<g>
</g>
<g>
</g>
<g>
</g>
<g>
</g>
<g>
</g>
<g>
</g>
<g>
</g>
<g>
</g>
<g>
</g>
</svg>
