<?xml version="1.0" encoding="iso-8859-1"?>
<!-- Generator: Adobe Illustrator 18.0.0, SVG Export Plug-In . SVG Version: 6.00 Build 0)  -->
<!DOCTYPE svg PUBLIC "-//W3C//DTD SVG 1.1//EN" "http://www.w3.org/Graphics/SVG/1.1/DTD/svg11.dtd">
<svg version="1.1" id="Layer_1" xmlns="http://www.w3.org/2000/svg" xmlns:xlink="http://www.w3.org/1999/xlink" x="0px" y="0px"
	 viewBox="0 0 200 200" style="enable-background:new 0 0 200 200;" xml:space="preserve">
<rect x="234.125" y="71.041" style="fill:#F15A24;" width="3.773" height="3.773"/>
<g>
	<path style="fill:#B3B3B3;" d="M17.442,171.495c-0.801,0-1.453-0.654-1.453-1.459v-10.36H9.755c-0.802,0-1.454-0.655-1.454-1.46
		c0-0.804,0.652-1.459,1.454-1.459h6.234v-14.041H9.755c-0.802,0-1.454-0.655-1.454-1.459c0-0.804,0.652-1.459,1.454-1.459h6.234
		v-14.041H9.755c-0.802,0-1.454-0.655-1.454-1.459c0-0.804,0.652-1.459,1.454-1.459h6.234v-14.041H9.755
		c-0.802,0-1.454-0.655-1.454-1.459c0-0.804,0.652-1.459,1.454-1.459h6.234V91.838H9.755c-0.802,0-1.454-0.655-1.454-1.459
		c0-0.804,0.652-1.459,1.454-1.459h6.234V74.878H9.755c-0.802,0-1.454-0.654-1.454-1.459c0-0.804,0.652-1.459,1.454-1.459h6.234
		V57.919H9.755c-0.802,0-1.454-0.654-1.454-1.459c0-0.804,0.652-1.459,1.454-1.459h6.234v-7.312c0-0.804,0.652-1.459,1.453-1.459
		c0.802,0,1.454,0.654,1.454,1.459v120.888h14.773V80.743c0-0.804,0.653-1.459,1.455-1.459h23.873c0.802,0,1.455,0.654,1.455,1.459
		v87.834h14.729V48.751c0-0.805,0.653-1.459,1.455-1.459h23.874c0.802,0,1.454,0.655,1.454,1.459v119.825h14.731V67.638
		c0-0.804,0.652-1.459,1.453-1.459h23.874c0.802,0,1.454,0.654,1.454,1.459v100.939h14.731V56.846c0-0.804,0.652-1.459,1.454-1.459
		h23.874c0.801,0,1.453,0.654,1.453,1.459v111.731h9.652c0.801,0,1.453,0.655,1.453,1.46c0,0.804-0.652,1.459-1.453,1.459H17.442z
		 M161.114,168.577h20.966V94.921h-20.966V168.577z M119.602,168.577h20.966v-54.769h-20.966V168.577z M78.09,168.577h20.966V83.431
		H78.09V168.577z M36.578,168.577h20.965v-69.03H36.578V168.577z M119.602,110.89h20.966V69.097h-20.966V110.89z M36.578,96.628
		h20.965V82.202H36.578V96.628z M161.114,92.004h20.966v-33.7h-20.966V92.004z M78.09,80.514h20.966V50.21H78.09V80.514z"/>
	<path style="fill:#B3B3B3;" d="M17.442,171.495v-0.375c-0.592-0.001-1.077-0.486-1.078-1.084v-10.735H9.755
		c-0.593-0.001-1.078-0.486-1.079-1.085c0.001-0.597,0.486-1.083,1.079-1.084h6.609v-14.791H9.755
		c-0.593-0.001-1.078-0.487-1.079-1.084c0.001-0.597,0.486-1.083,1.079-1.084h6.609v-14.791H9.755
		c-0.593-0.001-1.078-0.487-1.079-1.084c0.001-0.597,0.486-1.083,1.079-1.084h6.609v-14.791H9.755
		c-0.593-0.001-1.078-0.487-1.079-1.084c0.001-0.597,0.486-1.082,1.079-1.084h6.609V91.463H9.755
		c-0.593-0.001-1.078-0.487-1.079-1.084c0.001-0.597,0.486-1.083,1.079-1.084h6.609V74.503H9.755
		c-0.593-0.001-1.078-0.486-1.079-1.084c0.001-0.597,0.486-1.083,1.079-1.084h6.609V57.544H9.755
		c-0.593-0.001-1.078-0.486-1.079-1.084c0.001-0.597,0.486-1.082,1.079-1.084h6.609v-7.687c0.001-0.598,0.486-1.082,1.078-1.084
		c0.593,0.001,1.078,0.486,1.079,1.084v121.263h15.523V80.743c0.001-0.597,0.486-1.082,1.08-1.084h23.873
		c0.594,0.001,1.079,0.486,1.08,1.084v88.209h15.479v-120.2c0.001-0.598,0.486-1.083,1.08-1.084h23.874
		c0.593,0.001,1.078,0.487,1.079,1.084v120.2h15.481V67.638c0.001-0.598,0.486-1.082,1.078-1.084h23.874
		c0.593,0.001,1.078,0.486,1.079,1.084v101.314h15.481V56.846c0.001-0.597,0.486-1.083,1.079-1.084h23.874
		c0.592,0.001,1.077,0.486,1.078,1.084v112.106h10.027c0.592,0.001,1.077,0.486,1.078,1.085c-0.001,0.598-0.486,1.082-1.078,1.084
		H17.442V171.495v0.375h177.197c1.01-0.001,1.827-0.823,1.828-1.834c-0.001-1.011-0.817-1.834-1.828-1.835h-9.277V56.846
		c-0.001-1.011-0.818-1.833-1.828-1.834h-23.874c-1.011,0.001-1.829,0.822-1.829,1.834v111.356h-13.981V67.638
		c-0.001-1.011-0.819-1.833-1.829-1.834h-23.874c-1.01,0.001-1.828,0.823-1.828,1.834v100.564h-13.981V48.751
		c-0.001-1.012-0.819-1.834-1.829-1.834H76.636c-1.011,0.001-1.829,0.823-1.83,1.834v119.45l-13.979,0l0-87.459
		c-0.001-1.011-0.819-1.833-1.83-1.834H35.123c-1.011,0.001-1.829,0.822-1.83,1.834v87.459H19.271V47.689
		c-0.001-1.011-0.819-1.833-1.829-1.834c-1.01,0.001-1.827,0.823-1.828,1.834v6.937l-5.859,0c-1.011,0.001-1.829,0.822-1.829,1.834
		c0.001,1.011,0.819,1.833,1.829,1.834h5.859v13.292l-5.859,0c-1.011,0.001-1.829,0.822-1.829,1.834
		c0.001,1.011,0.819,1.833,1.829,1.834h5.859v13.292l-5.859,0c-1.011,0.001-1.829,0.822-1.829,1.834
		c0.001,1.012,0.819,1.834,1.829,1.834h5.859v13.291H9.755c-1.011,0.001-1.829,0.822-1.829,1.834
		c0.001,1.012,0.819,1.834,1.829,1.834h5.859v13.291l-5.859,0c-1.011,0.001-1.829,0.822-1.829,1.834
		c0.001,1.012,0.819,1.834,1.829,1.834h5.859v13.291l-5.859,0c-1.011,0.001-1.829,0.822-1.829,1.834
		c0.001,1.012,0.819,1.834,1.829,1.834h5.859v13.291l-5.859,0c-1.011,0.001-1.829,0.822-1.829,1.834
		c0.001,1.012,0.819,1.834,1.829,1.835h5.859l0,9.985c0.001,1.011,0.818,1.833,1.828,1.834V171.495z M161.114,168.577v0.375h21.341
		V94.546h-21.716v74.406h0.375V168.577h0.375V95.296h20.216v72.906l-20.591,0V168.577h0.375H161.114z M119.602,168.577v0.375h21.341
		v-55.519h-21.716v55.519h0.375V168.577h0.375v-54.394l20.216,0v54.019l-20.591,0V168.577h0.375H119.602z M78.09,168.577v0.375
		h21.341V83.056H77.715v85.895h0.375V168.577h0.375v-84.77h20.216v84.395l-20.591,0V168.577h0.375H78.09z M36.578,168.577v0.375
		h21.34v-69.78H36.203v69.78h0.375V168.577h0.375V99.922h20.215v68.28h-20.59V168.577h0.375H36.578z M119.602,110.89v0.375h21.341
		V68.722h-21.716v42.543h0.375V110.89h0.375V69.472h20.216v41.043l-20.591,0V110.89h0.375H119.602z M36.578,96.628v0.375h21.34
		V81.827H36.203v15.177h0.375V96.628h0.375V82.577h20.215v13.677h-20.59V96.628h0.375H36.578z M161.114,92.004v0.375h21.341v-34.45
		h-21.716v34.45h0.375V92.004h0.375V58.679h20.216v32.95l-20.591,0V92.004h0.375H161.114z M78.09,80.514v0.375h21.341V49.835H77.715
		v31.054h0.375V80.514h0.375V50.585l20.216,0v29.554l-20.591,0V80.514h0.375H78.09z"/>
</g>
<g>
</g>
<g>
</g>
<g>
</g>
<g>
</g>
<g>
</g>
<g>
</g>
<g>
</g>
<g>
</g>
<g>
</g>
<g>
</g>
<g>
</g>
<g>
</g>
<g>
</g>
<g>
</g>
<g>
</g>
</svg>
