<?xml version="1.0" encoding="iso-8859-1"?>
<!-- Generator: Adobe Illustrator 18.0.0, SVG Export Plug-In . SVG Version: 6.00 Build 0)  -->
<!DOCTYPE svg PUBLIC "-//W3C//DTD SVG 1.1//EN" "http://www.w3.org/Graphics/SVG/1.1/DTD/svg11.dtd">
<svg version="1.1" id="Layer_1" xmlns="http://www.w3.org/2000/svg" xmlns:xlink="http://www.w3.org/1999/xlink" x="0px" y="0px"
	 viewBox="0 0 200 200" style="enable-background:new 0 0 200 200;" xml:space="preserve">
<rect x="234.125" y="71.041" style="fill:#F15A24;" width="3.773" height="3.773"/>
<g>
	<path style="fill:#B3B3B3;" d="M31.243,176.225c-0.116,0-0.23-0.015-0.339-0.045c-0.347-0.093-0.635-0.313-0.812-0.62l-17.4-30.138
		c-0.368-0.635-0.149-1.452,0.487-1.82c0.202-0.116,0.43-0.178,0.66-0.178c0.476,0,0.919,0.255,1.156,0.666l16.734,28.987
		l17.21-9.935L32.87,135.307l-10.509,6.067c-0.203,0.118-0.432,0.18-0.663,0.18c-0.475,0-0.917-0.255-1.154-0.666
		c-0.178-0.308-0.225-0.667-0.133-1.01c0.092-0.344,0.312-0.63,0.619-0.807l11.66-6.733c0.203-0.117,0.432-0.179,0.664-0.179
		c0.476,0,0.918,0.255,1.156,0.666l1.003,1.75l5.325-3.074l0.108-0.706c1.324-8.657,4.089-11.006,7.016-13.493
		c1.914-1.624,3.722-3.158,5.33-6.79c2.845-6.423,6.356-7.382,8.195-7.382c0.771,0,1.264,0.163,1.285,0.17
		c1.994,0.767,3.365,2.147,3.956,3.986c0.446,1.388,0.456,3.077,0.031,5.019l-0.721,3.289l14.938-8.627
		c0.844-0.486,1.801-0.743,2.769-0.743c1.02,0,2.022,0.278,2.896,0.805l0.157,0.095l1.978-1.976l-0.094-0.157
		c-0.521-0.867-0.796-1.851-0.796-2.847v-5.066l-1.783,0.364c-0.364,0.075-0.74,0.113-1.118,0.113h-0.171
		c-3.067,0-5.562-2.495-5.562-5.562v-12.15c-0.057-2.723-0.071-16.53,5.277-21.484l0.476-0.441v-8.948h-2.55
		c-0.734,0-1.331-0.597-1.331-1.331V25.106c0-0.734,0.597-1.331,1.331-1.331h34.8c0.733,0,1.329,0.597,1.329,1.331
		c0,0.733-0.596,1.33-1.329,1.33h-33.47v19.871h32.139V34.173c0-0.734,0.597-1.331,1.331-1.331c0.733,0,1.329,0.597,1.329,1.331
		v13.465c0,0.734-0.596,1.331-1.329,1.331h-2.02v6.144l0.557,0.446c6.835,5.474,7.488,9.043,8.178,12.821
		c0.449,2.47,0.874,4.801,3.214,8.011c5.809,7.961,1.684,11.664,1.505,11.817c-1.29,1.044-2.678,1.576-4.12,1.576
		c-0.427,0-0.867-0.048-1.309-0.143c-1.424-0.308-2.891-1.143-4.36-2.482l-2.487-2.267v17.252c0,2.216-1.321,4.221-3.364,5.107
		l-0.179,0.078l0.64,2.775l0.452-0.011c0.961,0,1.919,0.257,2.763,0.744l4.377,2.529l0.581-1.718
		c0.121-0.357,0.278-0.703,0.466-1.03l0.084-0.148c0.989-1.715,2.84-2.78,4.83-2.78c0.969,0,1.926,0.257,2.768,0.743l10.522,6.074
		c2.386,1.312,14.352,8.205,15.969,15.313l0.144,0.633l7.75,4.474l1.275-2.209c0.236-0.41,0.678-0.664,1.153-0.664
		c0.231,0,0.461,0.062,0.664,0.179l19.513,11.265c0.308,0.178,0.528,0.465,0.62,0.808c0.093,0.344,0.046,0.703-0.131,1.011
		l-17.4,30.138c-0.237,0.41-0.68,0.665-1.155,0.665c-0.236,0-0.458-0.06-0.662-0.177c-0.635-0.368-0.854-1.184-0.487-1.82
		l16.734-28.984l-17.21-9.935l-16.068,27.833l10.506,6.067c0.308,0.178,0.528,0.464,0.62,0.808c0.092,0.343,0.045,0.701-0.132,1.009
		c-0.237,0.411-0.679,0.667-1.155,0.667c-0.231,0-0.46-0.062-0.663-0.179l-11.66-6.732c-0.635-0.367-0.854-1.184-0.487-1.82
		l1.012-1.745l-5.324-3.073l-0.665,0.259c-3.48,1.357-6.391,2.016-8.898,2.016c-2.527,0-4.357-0.655-6.295-1.348
		c-1.922-0.688-3.737-1.337-6.462-1.337c-0.66,0-1.361,0.039-2.083,0.117c-0.819,0.088-1.624,0.134-2.391,0.136
		c-7.601,0-8.556-4.541-8.593-4.734c-0.335-2.114,0.174-3.991,1.472-5.422c0.98-1.083,2.437-1.936,4.331-2.537l3.21-1.02
		l-14.941-8.627c-1.288-0.742-2.209-1.942-2.593-3.378c-0.107-0.395-0.168-0.824-0.182-1.273l-0.056-1.816l1.103-1.634
		c0.211-0.313,0.454-0.603,0.721-0.862l0.953-0.927l-0.816-1.049c-1.397-1.799-1.566-4.232-0.43-6.199l0.095-0.167
		c0.736-1.274,1.933-2.189,3.369-2.574c0.471-0.126,0.955-0.19,1.44-0.19c0.255,0,0.511,0.018,0.761,0.053l1.31,0.181l0.333-1.279
		c0.131-0.505,0.323-0.978,0.569-1.405l0.082-0.142c0.608-1.054,1.521-1.861,2.64-2.336l0.181-0.077l-0.64-2.786l-0.464,0.026
		l-0.158,0c-0.52,0-1.033-0.071-1.526-0.212l-1.281-0.364l-0.502,1.234c-0.859,2.111-2.883,3.475-5.156,3.475h-0.171
		c-2.268,0-4.29-1.364-5.151-3.474l-0.501-1.228l-1.277,0.358c-0.499,0.14-1.003,0.211-1.498,0.211h-0.171
		c-1.008,0-2.002-0.28-2.873-0.81l-0.159-0.097l-1.961,2.009l0.212,0.35c0.257,0.442,0.452,0.921,0.578,1.421l0.325,1.293
		l1.32-0.183c0.248-0.034,0.503-0.052,0.757-0.052c1.987,0,3.837,1.065,4.828,2.78l0.078,0.139c0.748,1.292,0.947,2.793,0.562,4.23
		c-0.194,0.724-0.524,1.391-0.983,1.981l-0.816,1.048l0.95,0.927c0.369,0.361,0.682,0.761,0.93,1.189l0.082,0.142
		c0.46,0.797,0.709,1.668,0.74,2.588l0.064,1.878l-1.092,1.539c-0.469,0.661-1.056,1.198-1.746,1.595l-4.383,2.531l1.202,1.362
		c0.246,0.279,0.468,0.587,0.658,0.917l0.082,0.142c1.534,2.658,0.622,6.069-2.034,7.603l-10.521,6.073
		c-1.816,1.1-11.211,6.576-18.29,6.576c-1.098,0-2.092-0.135-2.954-0.401l-0.62-0.192l-7.749,4.472l1.272,2.209
		c0.367,0.636,0.149,1.452-0.486,1.818l-19.514,11.267C31.705,176.163,31.475,176.225,31.243,176.225z M61.423,105.765
		c-0.938,0-3.37,0.567-5.698,5.824c-1.854,4.189-4.077,6.075-6.038,7.739c-2.786,2.366-5.191,4.409-6.289,13.159
		c-0.052,0.417-0.291,0.777-0.655,0.988l-5.894,3.404l12.453,21.571l8.39-4.842c0.202-0.117,0.432-0.178,0.665-0.178
		c0.228,0,0.454,0.059,0.654,0.172c0.385,0.217,0.821,0.376,1.334,0.487l0.448,0.096l0.424-0.172
		c0.092-0.037,0.197-0.057,0.302-0.057c0.098,0,0.195,0.018,0.28,0.051l0.526,0.238l0.366-0.026
		c4.626-0.318,11.629-3.433,16.177-6.194l10.572-6.105c0.67-0.386,1.149-1.012,1.35-1.761c0.201-0.749,0.099-1.531-0.288-2.201
		l-0.086-0.148c-0.518-0.896-1.482-1.452-2.517-1.452c-0.501,0-0.997,0.132-1.434,0.38l-8.936,5.16
		c-0.206,0.119-0.429,0.179-0.664,0.179c-0.475,0-0.918-0.255-1.155-0.666c-0.177-0.307-0.224-0.666-0.132-1.009
		c0.092-0.343,0.312-0.629,0.62-0.807l17.716-10.228c0.668-0.387,1.148-1.011,1.351-1.757c0.116-0.436,0.233-1.3-0.286-2.205
		l-0.093-0.158c-0.379-0.659-1-1.137-1.746-1.343c-0.26-0.067-0.509-0.1-0.763-0.1c-0.285,0-0.567,0.041-0.838,0.122l-0.166,0.05
		l-3.183,1.839l-0.204,0.093l-0.206,0.079l-0.183,0.15l-0.182,0.127l-14.184,8.187c-0.203,0.117-0.432,0.179-0.662,0.179
		c-0.476,0-0.918-0.255-1.154-0.665c-0.367-0.636-0.149-1.452,0.485-1.818l12.891-7.444l0.087-0.07l0.183-0.128l4.536-2.619
		c0.164-0.094,0.338-0.183,0.517-0.264l3.08-1.768c0.908-0.528,1.237-1.331,1.352-1.762c0.197-0.752,0.095-1.532-0.288-2.198
		l-0.091-0.158c-0.513-0.89-1.476-1.444-2.511-1.444c-0.509,0-1.01,0.135-1.45,0.389l-21.292,12.293
		c-0.203,0.117-0.431,0.179-0.662,0.179c-0.474,0-0.917-0.256-1.156-0.667c-0.177-0.307-0.223-0.665-0.132-1.008
		c0.092-0.343,0.312-0.629,0.62-0.807L85.29,114.45c0.916-0.534,1.246-1.34,1.36-1.773c0.117-0.43,0.235-1.289-0.292-2.199
		l-0.082-0.142c-0.516-0.897-1.481-1.455-2.517-1.455c-0.507,0-1.006,0.134-1.446,0.387l-19.079,11.016l-0.107,0.053l-0.012,0.008
		c-0.274,0.183-0.532,0.268-0.813,0.268c-0.258,0-0.509-0.076-0.725-0.218c-0.298-0.195-0.501-0.495-0.574-0.843
		c-0.072-0.348-0.005-0.703,0.189-1c1.187-1.818,4.039-7.241,2.999-10.459c-0.326-1.019-0.997-1.719-2.112-2.203l-0.237-0.102
		L61.423,105.765z M146.858,155.851c0.108,0,0.215,0.021,0.311,0.062l0.093,0.048l3.607,2.08l12.014-20.81l-8.388-4.843
		c-0.406-0.234-0.661-0.67-0.665-1.138c-0.056-5.185-10.946-12.318-14.756-14.409l-10.573-6.104
		c-0.44-0.254-0.941-0.388-1.448-0.388c-1.035,0-1.999,0.555-2.516,1.449l-0.088,0.155c-0.383,0.662-0.485,1.44-0.287,2.189
		c0.199,0.751,0.678,1.379,1.351,1.767l8.926,5.154c0.635,0.366,0.853,1.182,0.486,1.818c-0.236,0.41-0.679,0.665-1.155,0.665
		c-0.232,0-0.461-0.061-0.66-0.177L115.39,113.14c-0.439-0.255-0.939-0.389-1.446-0.389c-0.254,0-0.507,0.033-0.753,0.098
		c-0.753,0.204-1.379,0.684-1.764,1.353l-0.087,0.153c-0.385,0.664-0.488,1.444-0.288,2.194c0.099,0.369,0.322,0.906,0.824,1.373
		l0.124,0.115l3.178,1.834l0.183,0.131l0.168,0.135l0.215,0.083l0.216,0.1l14.178,8.189c0.308,0.178,0.528,0.464,0.62,0.807
		c0.092,0.343,0.044,0.701-0.134,1.009c-0.237,0.411-0.679,0.666-1.155,0.666c-0.235,0-0.458-0.06-0.665-0.179l-12.886-7.441
		l-0.103-0.041l-0.215-0.1l-4.527-2.615c-0.155-0.089-0.31-0.189-0.487-0.315l-3.071-1.781c-0.441-0.255-0.94-0.389-1.445-0.389
		c-0.253,0-0.505,0.033-0.751,0.098c-0.436,0.116-1.244,0.446-1.767,1.356l-0.085,0.146c-0.389,0.674-0.491,1.457-0.289,2.206
		c0.202,0.747,0.682,1.371,1.351,1.757l21.294,12.293c0.308,0.177,0.528,0.464,0.62,0.807c0.092,0.343,0.045,0.702-0.134,1.01
		c-0.237,0.411-0.679,0.666-1.155,0.666c-0.231,0-0.46-0.062-0.663-0.178l-17.71-10.228c-0.448-0.254-0.95-0.388-1.453-0.388
		c-0.253,0-0.504,0.032-0.746,0.096c-0.756,0.208-1.384,0.689-1.768,1.354l-0.084,0.147c-0.388,0.668-0.492,1.449-0.294,2.2
		c0.208,0.754,0.688,1.38,1.354,1.765l19.246,11.116c0.496,0.244,0.788,0.743,0.756,1.278c-0.041,0.703-0.622,1.254-1.323,1.254
		c-0.397-0.02-0.737-0.029-1.091-0.029c-1.193,0-7.261,0.128-9.548,2.659c-0.453,0.501-1.034,1.349-0.852,2.933l0.029,0.25
		l0.109,0.226c0.334,0.692,1.571,2.3,5.829,2.3c0.666,0,1.388-0.041,2.147-0.122c0.798-0.085,1.581-0.129,2.326-0.129
		c1.772,0,3.406,0.235,5.142,0.739l0.107,0.031l0.111,0.015c1.131,0.151,2.2,0.405,3.466,0.821l0.691,0.235l0.833,0.296
		c0.4,0.142,0.806,0.28,1.241,0.422l0.168,0.055l0.175,0.014c0.316,0.024,0.636,0.037,0.953,0.037c2.438,0,5.313-0.733,9.047-2.306
		c0.165-0.07,0.34-0.105,0.518-0.105c0.232,0,0.462,0.062,0.665,0.178l1.356,0.782l0.674-0.276
		C146.656,155.87,146.757,155.851,146.858,155.851z M97.815,80.358c0.734,0,1.331,0.596,1.331,1.329v14.885l0.017,0.111l0.022,0.236
		l-0.001,5.225c0,0.182-0.01,0.377-0.03,0.579l-0.007,3.551c0,1.6,1.301,2.902,2.899,2.902h0.171c1.6,0,2.902-1.301,2.902-2.901
		V81.688c0-0.734,0.597-1.331,1.331-1.331c0.733,0,1.329,0.597,1.329,1.331v20.476c0,1.589,1.302,2.881,2.902,2.881h0.171
		c1.6,0,2.901-1.301,2.901-2.901l0.002-22.222c-0.036-0.553,0.25-1.057,0.73-1.298c0.187-0.094,0.387-0.142,0.594-0.142
		c0.508,0,0.965,0.28,1.192,0.732c0.98,1.937,4.247,7.119,7.558,7.827c0.257,0.056,0.499,0.083,0.741,0.083
		c0.76,0,1.488-0.265,2.225-0.811l0.203-0.15l0.142-0.209c0.422-0.621,1.515-3.033-2.105-7.993c-2.7-3.703-3.244-6.696-3.682-9.101
		c-0.655-3.595-1.221-6.7-8.25-12.025c-0.331-0.251-0.528-0.647-0.528-1.061v-6.806h-24.91v9.684c0,0.469-0.25,0.908-0.653,1.147
		c-4.448,2.632-5.191,15.636-5.1,19.984v12.209c0,1.6,1.302,2.901,2.902,2.901h0.171c1.6,0,2.901-1.301,2.901-2.901V81.687
		c0-0.733,0.597-1.329,1.331-1.329c0.734,0,1.331,0.596,1.331,1.329v20.458c0,1.599,1.301,2.899,2.9,2.899h0.171
		c1.364,0,2.527-0.929,2.828-2.259l0.036-0.162v-3.66l0.022-0.227l0.033-0.21L96.504,98.3l-0.022-0.235l0.001-16.378
		C96.483,80.954,97.08,80.358,97.815,80.358z"/>
	<path style="fill:#B3B3B3;" d="M31.243,176.225v-0.375l-0.24-0.032l-0.002,0c-0.254-0.069-0.456-0.224-0.584-0.445l-17.4-30.138
		l0,0c-0.087-0.151-0.128-0.314-0.128-0.476c0-0.332,0.172-0.654,0.478-0.831l0,0c0.145-0.084,0.31-0.128,0.473-0.128
		c0.341,0,0.662,0.185,0.831,0.479l16.921,29.311l17.859-10.31l-16.444-28.485l-10.833,6.254l-0.001,0
		c-0.147,0.085-0.311,0.129-0.475,0.129c-0.34,0-0.66-0.184-0.829-0.478c-0.086-0.149-0.128-0.311-0.129-0.475l0.033-0.249l0-0.001
		c0.068-0.25,0.222-0.451,0.444-0.579l11.66-6.733l0,0c0.146-0.084,0.311-0.128,0.476-0.128c0.341,0,0.662,0.185,0.831,0.478
		l-0.001-0.001l1.19,2.076l5.807-3.352l0.135-0.884c0.657-4.296,1.666-6.994,2.855-8.92c1.19-1.926,2.568-3.099,4.033-4.344l0,0
		c1.913-1.619,3.801-3.23,5.431-6.924c1.403-3.167,2.953-4.951,4.349-5.946c1.397-0.994,2.648-1.212,3.503-1.213
		c0.359,0,0.652,0.038,0.855,0.076c0.202,0.038,0.309,0.075,0.31,0.074l0.12-0.355l-0.135,0.35c1.907,0.738,3.175,2.024,3.733,3.751
		c0.215,0.668,0.324,1.418,0.324,2.246c0,0.79-0.1,1.652-0.303,2.578l-0.902,4.118l15.674-9.052c0.787-0.453,1.68-0.693,2.581-0.693
		c0.952,0,1.887,0.26,2.702,0.751l0.157,0.095l0.251,0.151l2.393-2.39l-0.245-0.408c-0.486-0.81-0.742-1.728-0.742-2.653v-5.525
		l-2.233,0.455l0,0c-0.339,0.07-0.69,0.105-1.043,0.105h-0.171c-1.431,0-2.725-0.581-3.666-1.521
		c-0.94-0.941-1.521-2.235-1.521-3.666V79.838l0-0.004c-0.005-0.259-0.01-0.619-0.01-1.064c0-2.095,0.113-6.062,0.825-10.043
		c0.706-3.982,2.034-7.969,4.342-10.095l0.476-0.441l0.12-0.111v-9.487h-2.925c-0.526-0.001-0.955-0.43-0.956-0.956V25.106
		c0.001-0.526,0.43-0.955,0.956-0.956h34.8c0.525,0.001,0.953,0.429,0.954,0.956c-0.001,0.526-0.429,0.954-0.954,0.955H83.409
		v20.621h32.889V34.173c0.001-0.526,0.43-0.955,0.957-0.956c0.525,0.001,0.953,0.429,0.954,0.956v13.465
		c-0.001,0.526-0.429,0.955-0.954,0.956h-2.395v6.699l0.698,0.559c3.392,2.717,5.224,4.939,6.298,6.931
		c1.073,1.993,1.4,3.773,1.746,5.664c0.446,2.466,0.897,4.905,3.28,8.164c2.346,3.217,3.02,5.683,3.02,7.467
		c0,2.565-1.398,3.792-1.456,3.845l0.245,0.284l-0.236-0.292c-1.238,1-2.536,1.491-3.884,1.492c-0.398,0-0.813-0.045-1.23-0.135
		c-1.337-0.288-2.751-1.084-4.186-2.393l-3.115-2.84v18.102c0,2.066-1.231,3.936-3.139,4.763l-0.179,0.078l-0.286,0.124l0.778,3.377
		l0.758-0.018l-0.009-0.375l0,0.375c0.894,0,1.788,0.24,2.576,0.694l4.773,2.757l0.728-2.151c0.113-0.333,0.26-0.658,0.436-0.962
		l0.001-0.002l0.084-0.147l-0.001,0.002c0.921-1.597,2.65-2.593,4.505-2.593c0.903,0,1.796,0.24,2.581,0.693l10.525,6.076
		l0.003,0.002c1.182,0.649,4.756,2.693,8.22,5.448c3.469,2.749,6.805,6.232,7.563,9.62l0.144,0.633l0.036,0.16l8.217,4.744
		l1.462-2.534c0.168-0.292,0.487-0.477,0.828-0.477c0.164,0,0.33,0.044,0.477,0.129l19.512,11.264
		c0.223,0.13,0.378,0.331,0.445,0.58l0.034,0.253c0,0.165-0.043,0.326-0.128,0.474l-17.4,30.138
		c-0.169,0.293-0.489,0.478-0.831,0.477c-0.172-0.001-0.326-0.042-0.475-0.127c-0.306-0.177-0.477-0.499-0.478-0.832
		c0-0.162,0.041-0.325,0.128-0.476L184.851,145l-17.859-10.31l-16.443,28.482l10.831,6.254c0.224,0.13,0.378,0.331,0.446,0.58
		l0.033,0.25c0,0.164-0.043,0.325-0.128,0.474c-0.169,0.295-0.489,0.48-0.83,0.479c-0.164,0-0.329-0.044-0.476-0.129l-11.66-6.732
		c-0.306-0.177-0.477-0.499-0.478-0.832c0-0.162,0.041-0.325,0.128-0.476l0,0.001l1.2-2.07l-5.806-3.35l-0.832,0.324
		c-3.453,1.347-6.321,1.991-8.762,1.991c-2.46-0.001-4.228-0.632-6.169-1.326c-1.919-0.687-3.803-1.361-6.588-1.359
		c-0.675,0-1.389,0.04-2.123,0.119c-0.807,0.087-1.599,0.132-2.352,0.134h0.001c-3.728-0.003-5.752-1.104-6.872-2.189
		c-1.119-1.086-1.344-2.193-1.353-2.241l-0.368,0.07l0.37-0.059c-0.064-0.404-0.095-0.797-0.095-1.178
		c0.002-1.527,0.499-2.856,1.474-3.933c0.921-1.018,2.317-1.845,4.166-2.432l4.02-1.277l-15.677-9.052
		c-1.203-0.694-2.059-1.809-2.419-3.151l-0.001-0.003l0.001,0.002c-0.098-0.365-0.156-0.764-0.169-1.187l-0.052-1.695l1.036-1.534
		c0.197-0.291,0.423-0.562,0.672-0.803l1.193-1.162l-1.021-1.314c-0.729-0.939-1.099-2.061-1.099-3.189
		c0-0.89,0.23-1.783,0.698-2.593l0.001-0.002l0.096-0.168l-0.001,0.002c0.687-1.189,1.798-2.039,3.141-2.399
		c0.439-0.118,0.891-0.177,1.343-0.177c0.237,0,0.476,0.017,0.709,0.049l0,0l1.64,0.227l0.417-1.602
		c0.123-0.475,0.303-0.916,0.531-1.312l0.082-0.141l0-0.001c0.569-0.984,1.416-1.734,2.461-2.178l0.181-0.077l0.289-0.123
		l-0.781-3.401l-0.769,0.044l-0.147,0h-0.001c-0.485,0-0.964-0.066-1.424-0.197l-1.604-0.456l-0.629,1.545
		c-0.803,1.971-2.687,3.241-4.808,3.241h-0.171c-2.117-0.001-3.999-1.269-4.804-3.241l-0.627-1.538l-1.599,0.449
		c-0.467,0.131-0.937,0.197-1.396,0.197h-0.171c-0.939,0-1.865-0.261-2.678-0.756l-0.159-0.097l-0.255-0.155l-2.372,2.43
		l0.362,0.599l0.321-0.194l-0.324,0.189c0.239,0.412,0.421,0.858,0.538,1.323l0.407,1.619l1.653-0.229
		c0.231-0.032,0.468-0.048,0.706-0.048c1.852,0,3.58,0.995,4.503,2.592l0.325-0.188l-0.327,0.183l0.078,0.139l0.001,0.002
		l0.001,0.002c0.466,0.806,0.703,1.695,0.703,2.596c0,0.449-0.059,0.902-0.179,1.348c-0.181,0.677-0.488,1.297-0.917,1.848
		l-1.021,1.312l1.19,1.162c0.346,0.338,0.638,0.711,0.868,1.109l0.082,0.141c0.43,0.746,0.661,1.553,0.69,2.413l0.06,1.752
		l-1.019,1.436c-0.439,0.619-0.985,1.117-1.627,1.487l-4.78,2.76l1.506,1.706c0.229,0.26,0.437,0.548,0.615,0.856l0.083,0.143
		c0.471,0.816,0.694,1.706,0.694,2.587c0,1.796-0.93,3.544-2.592,4.504l-10.525,6.075l-0.003,0.002
		c-0.898,0.544-3.689,2.181-7.127,3.677c-3.435,1.498-7.524,2.847-10.969,2.844c-1.068,0-2.025-0.132-2.843-0.385l0,0l-0.62-0.192
		l-0.157-0.049l-8.216,4.741l1.46,2.533c0.087,0.152,0.128,0.314,0.128,0.477c0,0.332-0.171,0.653-0.476,0.829l-19.514,11.267l0,0
		c-0.146,0.085-0.312,0.129-0.478,0.129V176.225v0.375c0.299,0,0.593-0.08,0.853-0.23l0.008-0.004l19.506-11.262
		c0.546-0.315,0.852-0.89,0.852-1.478c0-0.289-0.074-0.584-0.228-0.852l-1.085-1.884l7.283-4.203l0.463,0.144l0,0
		c0.905,0.28,1.935,0.418,3.064,0.418c3.634-0.003,7.783-1.391,11.269-2.907c3.484-1.517,6.298-3.168,7.216-3.724l-0.194-0.321
		l0.187,0.325l10.521-6.073c1.902-1.1,2.967-3.101,2.967-5.153c0-1.007-0.256-2.03-0.795-2.962l-0.083-0.143
		c-0.203-0.35-0.439-0.679-0.702-0.977l-0.899-1.018l3.986-2.302c0.736-0.424,1.365-0.999,1.864-1.703l1.165-1.643l-0.068-2.005
		c-0.033-0.98-0.3-1.914-0.79-2.763l-0.082-0.142c-0.266-0.459-0.6-0.886-0.993-1.269l-0.71-0.693l0.61-0.783
		c0.489-0.629,0.843-1.342,1.049-2.114c0.136-0.509,0.204-1.027,0.204-1.542c0-1.033-0.272-2.054-0.804-2.972l-0.325,0.188
		l0.327-0.183l-0.078-0.139l-0.001-0.002l-0.001-0.002c-1.059-1.832-3.031-2.967-5.152-2.967c-0.272,0-0.544,0.019-0.809,0.056
		l-0.987,0.137l-0.243-0.966c-0.134-0.533-0.342-1.045-0.617-1.518l-0.002-0.003l-0.063-0.105l1.758-1.801l-0.268-0.262l-0.195,0.32
		l0.159,0.097c0.929,0.565,1.99,0.865,3.068,0.865h0.171c0.531,0,1.069-0.076,1.599-0.225l0.954-0.268l0.374,0.918
		c0.917,2.25,3.078,3.708,5.498,3.707h0.171c2.424,0.001,4.588-1.458,5.503-3.709l0.375-0.922l0.958,0.272
		c0.527,0.15,1.075,0.226,1.629,0.226l0.158,0l0.011,0l0.159-0.009l0.569,2.478l0.366-0.084l-0.147-0.345l-0.181,0.077
		c-1.192,0.506-2.17,1.371-2.818,2.494l-0.082,0.141l0,0.001c-0.264,0.458-0.468,0.962-0.608,1.498l-0.249,0.956l-0.98-0.136l0,0
		c-0.268-0.037-0.54-0.056-0.813-0.056c-0.518,0-1.035,0.068-1.537,0.203c-1.53,0.409-2.811,1.388-3.596,2.748l-0.001,0.002
		l-0.095,0.167l0.001-0.002c-0.534,0.925-0.798,1.949-0.798,2.968c0,1.292,0.425,2.578,1.257,3.649l0.61,0.785l-0.712,0.693
		c-0.286,0.278-0.545,0.587-0.77,0.921l-1.171,1.735l0.06,1.937c0.015,0.476,0.08,0.933,0.195,1.359l0.001,0.003l-0.001-0.003
		c0.409,1.531,1.396,2.816,2.768,3.606l14.205,8.202l-2.4,0.762c-1.937,0.615-3.455,1.495-4.495,2.643
		c-1.102,1.212-1.671,2.745-1.669,4.437c0,0.422,0.035,0.855,0.105,1.296l0.001,0.006l0.001,0.006
		c0.028,0.145,0.299,1.405,1.567,2.638c1.267,1.234,3.521,2.404,7.394,2.401h0.001c0.782-0.002,1.599-0.049,2.43-0.138
		c0.709-0.076,1.397-0.115,2.042-0.115c2.664,0.002,4.411,0.627,6.336,1.315c1.935,0.692,3.828,1.371,6.422,1.37
		c2.574-0.001,5.527-0.675,9.034-2.042l0.497-0.194l4.843,2.795l-0.823,1.42l0,0.001c-0.154,0.267-0.228,0.562-0.228,0.851
		c0,0.589,0.306,1.165,0.852,1.481l11.66,6.732c0.259,0.149,0.552,0.229,0.85,0.229c0.61,0,1.175-0.326,1.48-0.854
		c0.151-0.26,0.229-0.553,0.229-0.849c0-0.149-0.02-0.298-0.059-0.445c-0.116-0.437-0.402-0.809-0.795-1.035l-10.181-5.879
		l15.693-27.183l16.56,9.56l-16.547,28.659c-0.154,0.267-0.228,0.562-0.228,0.851c0,0.589,0.306,1.164,0.852,1.481
		c0.259,0.15,0.551,0.228,0.85,0.228c0.61,0,1.175-0.325,1.48-0.852l17.4-30.138c0.15-0.261,0.228-0.553,0.228-0.849
		c0-0.15-0.02-0.3-0.059-0.447c-0.116-0.437-0.402-0.809-0.794-1.035l-19.513-11.265c-0.26-0.15-0.554-0.229-0.852-0.229
		c-0.609,0-1.174,0.325-1.478,0.852l-1.087,1.884l-7.283-4.205l-0.107-0.473c-0.859-3.721-4.314-7.238-7.828-10.041
		c-3.519-2.797-7.121-4.855-8.326-5.518l-0.181,0.329l0.187-0.325l-10.522-6.074c-0.899-0.519-1.92-0.794-2.956-0.794
		c-2.124,0-4.097,1.136-5.155,2.968l-0.085,0.149l0.001-0.002c-0.201,0.348-0.368,0.716-0.497,1.097l-0.435,1.284l-3.981-2.3
		c-0.901-0.519-1.922-0.794-2.95-0.794l-0.004,0l-0.151,0.004l-0.571-2.477l-0.365,0.084l0.149,0.344l0.179-0.078
		c2.18-0.945,3.59-3.085,3.59-5.451V85.74l1.86,1.695c1.503,1.37,3.024,2.245,4.533,2.572c0.467,0.1,0.933,0.152,1.388,0.152
		c1.536,0.001,3.014-0.571,4.356-1.659l0.005-0.004l0.004-0.004c0.152-0.128,1.716-1.557,1.717-4.414
		c0-1.978-0.752-4.604-3.164-7.909c-2.298-3.161-2.695-5.384-3.148-7.857c-0.345-1.887-0.689-3.781-1.823-5.886
		c-1.134-2.105-3.046-4.404-6.489-7.161l-0.417-0.334v-5.589h1.645c0.941-0.001,1.703-0.765,1.704-1.706V34.173
		c-0.001-0.941-0.763-1.705-1.704-1.706c-0.942,0.001-1.706,0.764-1.706,1.706v11.758H84.159V26.81h33.095
		c0.941-0.001,1.703-0.764,1.704-1.705c-0.001-0.941-0.763-1.705-1.704-1.706h-34.8c-0.942,0.001-1.705,0.764-1.706,1.706v22.532
		c0.001,0.942,0.764,1.705,1.706,1.706h2.175v8.409l-0.356,0.33c-2.527,2.353-3.842,6.463-4.571,10.513
		c-0.723,4.051-0.836,8.052-0.836,10.175c0,0.45,0.005,0.816,0.011,1.08l0.375-0.008h-0.375v12.15
		c0.001,3.275,2.662,5.936,5.937,5.937h0.171c0.403,0,0.804-0.04,1.194-0.12l0,0l1.333-0.272v4.607c0,1.064,0.294,2.115,0.849,3.04
		l0.094,0.157l0.321-0.193l-0.265-0.265l-1.978,1.976l0.265,0.265l0.194-0.321l-0.157-0.095c-0.933-0.562-2.001-0.859-3.089-0.859
		c-1.034,0-2.055,0.275-2.956,0.794l-14.203,8.202l0.539-2.459c0.213-0.971,0.32-1.885,0.32-2.739c0-0.895-0.119-1.723-0.36-2.476
		c-0.624-1.952-2.098-3.425-4.178-4.221l-0.007-0.003l-0.007-0.003c-0.05-0.017-0.58-0.19-1.405-0.19
		c-0.984-0.001-2.409,0.261-3.938,1.352c-1.53,1.09-3.158,2.997-4.6,6.254c-1.587,3.571-3.315,5.027-5.23,6.656l0,0
		c-1.462,1.242-2.93,2.487-4.186,4.522c-1.256,2.035-2.292,4.84-2.959,9.201l-0.08,0.528l-4.843,2.796l-0.816-1.424l-0.001-0.001
		c-0.306-0.527-0.87-0.852-1.48-0.853c-0.298,0-0.592,0.079-0.851,0.229l-11.66,6.733l0,0c-0.392,0.225-0.677,0.597-0.794,1.035
		l0-0.001c-0.039,0.146-0.059,0.296-0.059,0.445c0,0.296,0.078,0.589,0.229,0.85c0.305,0.527,0.869,0.853,1.479,0.853
		c0.298,0,0.592-0.08,0.851-0.231l-0.001,0l10.184-5.879l15.694,27.185l-16.56,9.56L15.32,143.903
		c-0.305-0.528-0.87-0.853-1.481-0.854c-0.297,0-0.59,0.079-0.848,0.228l0,0c-0.547,0.316-0.853,0.891-0.853,1.48
		c0,0.289,0.074,0.584,0.229,0.852l0,0l17.4,30.138c0.226,0.393,0.6,0.677,1.04,0.795l-0.002,0c0.142,0.039,0.289,0.058,0.438,0.058
		V176.225z M61.423,105.765v-0.375c-0.544-0.002-1.482,0.171-2.559,1.021c-1.079,0.849-2.3,2.359-3.482,5.026
		c-1.831,4.124-3.978,5.939-5.938,7.605c-1.391,1.181-2.74,2.325-3.861,4.285c-1.121,1.96-2.005,4.709-2.558,9.113
		c-0.039,0.303-0.207,0.556-0.471,0.71l-6.218,3.592l12.828,22.22l8.714-5.029c0.145-0.084,0.31-0.128,0.477-0.128
		c0.163,0,0.327,0.043,0.47,0.123l0,0c0.422,0.238,0.897,0.41,1.439,0.527l0,0l0.448,0.096l0.113,0.024l0.531-0.215l0.161-0.03
		l0.144,0.025l0.136-0.35l-0.154,0.342l0.526,0.238l0.086,0.039l0.46-0.032l0,0c4.753-0.335,11.753-3.467,16.346-6.247l-0.195-0.321
		l0.188,0.325l10.572-6.105c0.755-0.434,1.3-1.145,1.525-1.988c0.076-0.282,0.113-0.57,0.113-0.855c0-0.568-0.149-1.128-0.439-1.63
		l-0.001-0.001l-0.086-0.148l0,0.001c-0.586-1.012-1.672-1.639-2.842-1.639c-0.567,0-1.126,0.148-1.62,0.429l-0.001,0.001
		l-8.937,5.16l0,0c-0.152,0.087-0.305,0.128-0.476,0.129c-0.34,0.001-0.661-0.185-0.831-0.478l0,0.001
		c-0.085-0.149-0.128-0.31-0.128-0.475l0.033-0.249c0.067-0.248,0.222-0.45,0.445-0.58L94.1,129.692l0.001,0
		c0.752-0.436,1.297-1.143,1.525-1.982l0-0.002l0,0c0.056-0.212,0.112-0.509,0.112-0.862c0.001-0.471-0.102-1.045-0.436-1.626
		l-0.001-0.002l-0.094-0.16l0.002,0.003c-0.428-0.745-1.133-1.287-1.971-1.518l-0.003-0.001l-0.003-0.001
		c-0.288-0.075-0.571-0.112-0.857-0.112c-0.321,0-0.639,0.046-0.945,0.138l-0.004,0.001l-0.163,0.049l-0.042,0.013l-3.204,1.851
		l-0.177,0.08l-0.196,0.075l-0.056,0.022l-0.219,0.179l-0.157,0.11l-14.17,8.179l-0.001,0c-0.146,0.085-0.311,0.129-0.474,0.129
		c-0.342,0-0.662-0.184-0.829-0.477c-0.087-0.152-0.128-0.315-0.128-0.477c0.001-0.332,0.171-0.653,0.476-0.828l12.916-7.458
		l0.1-0.08l0.16-0.112l4.522-2.611l-0.001,0.001c0.153-0.088,0.317-0.171,0.485-0.247l0.017-0.007l3.097-1.778l0,0
		c1.023-0.595,1.397-1.503,1.526-1.99l0.001-0.004l-0.001,0.002c0.073-0.281,0.11-0.566,0.11-0.849c0-0.569-0.148-1.13-0.435-1.63
		l-0.001-0.002l-0.091-0.157c-0.582-1.008-1.666-1.631-2.836-1.631c-0.575,0-1.141,0.152-1.638,0.439l-21.297,12.296l0.005-0.003
		c-0.146,0.085-0.311,0.129-0.474,0.129c-0.339,0.001-0.661-0.185-0.832-0.48l0.001,0.001c-0.085-0.148-0.127-0.309-0.127-0.474
		l0.033-0.25c0.067-0.248,0.222-0.45,0.445-0.58l17.71-10.223l-0.001,0.001c1.03-0.6,1.406-1.512,1.534-2.001l-0.001,0.002
		c0.057-0.209,0.113-0.504,0.113-0.855c0.001-0.47-0.103-1.046-0.443-1.631l-0.082-0.141l0,0.001
		c-0.584-1.014-1.671-1.642-2.842-1.643c-0.573,0-1.137,0.151-1.633,0.437l-19.069,11.01l-0.097,0.048l-0.021,0.01l-0.032,0.021
		c-0.231,0.151-0.402,0.203-0.605,0.205c-0.185,0-0.363-0.054-0.518-0.156l-0.001-0.001c-0.216-0.143-0.359-0.353-0.412-0.606
		l-0.021-0.198c0-0.184,0.053-0.361,0.156-0.52l0-0.001c0.519-0.795,1.331-2.232,2.022-3.888c0.689-1.657,1.259-3.524,1.262-5.203
		c0-0.591-0.072-1.161-0.242-1.688l0,0.001c-0.351-1.119-1.134-1.926-2.32-2.433l-0.001,0l-0.237-0.102l-0.062-0.027l-0.488-0.026
		l-0.01-0.001h-0.01V105.765l-0.02,0.374l0.354,0.019l0.175,0.076l-0.001,0c1.044,0.462,1.603,1.056,1.904,1.974l0,0.001l0,0
		c0.141,0.435,0.206,0.927,0.206,1.458c0.002,1.508-0.534,3.311-1.204,4.914c-0.668,1.604-1.467,3.016-1.958,3.767l0-0.001
		c-0.183,0.279-0.279,0.603-0.279,0.931c0,0.117,0.012,0.234,0.036,0.35c0.091,0.444,0.355,0.832,0.735,1.08l-0.001-0.001
		c0.276,0.183,0.6,0.281,0.932,0.281c0.359,0.002,0.704-0.117,1.021-0.331l0.012-0.008l-0.208-0.312l0.168,0.335l0.107-0.053
		l0.01-0.005l19.088-11.022c0.382-0.22,0.818-0.337,1.258-0.337c0.901,0,1.744,0.487,2.192,1.267l0.082,0.142
		c0.265,0.458,0.341,0.892,0.342,1.255c0,0.27-0.044,0.5-0.087,0.658l-0.001,0.003l0-0.001c-0.101,0.377-0.384,1.078-1.187,1.545
		l-17.706,10.221c-0.392,0.226-0.678,0.597-0.795,1.035c-0.039,0.146-0.059,0.296-0.059,0.444c0,0.295,0.078,0.588,0.228,0.848
		l0.001,0.001l0,0c0.307,0.527,0.871,0.853,1.48,0.854c0.298,0,0.591-0.08,0.85-0.23l0.011-0.006l21.28-12.286
		c0.383-0.221,0.82-0.339,1.263-0.339c0.901,0,1.741,0.483,2.186,1.256l0.092,0.159l-0.001-0.001
		c0.223,0.388,0.336,0.818,0.336,1.257c0,0.219-0.028,0.44-0.086,0.66l0-0.002c-0.102,0.376-0.384,1.074-1.178,1.535l0.002-0.001
		l-3.08,1.768l0.187,0.325l-0.155-0.342c-0.19,0.086-0.374,0.18-0.549,0.28l-0.002,0.001l-4.549,2.627l-0.197,0.138l-0.01,0.007
		l-0.074,0.059l-12.867,7.43c-0.546,0.315-0.851,0.89-0.851,1.478c0,0.289,0.074,0.584,0.228,0.852
		c0.304,0.527,0.869,0.852,1.479,0.852c0.298,0,0.591-0.08,0.85-0.23l-0.001,0l14.198-8.195l0.195-0.136l0.012-0.008l0.147-0.121
		l0.15-0.058l0.01-0.004l0.214-0.097l0.017-0.008l3.161-1.826l0.125-0.038l0.004-0.001l-0.005,0.001
		c0.236-0.071,0.481-0.106,0.73-0.106c0.222,0,0.436,0.028,0.669,0.088l0.094-0.363l-0.1,0.361c0.654,0.181,1.191,0.595,1.521,1.169
		l0.001,0.001l0.094,0.16l0.323-0.19l-0.325,0.187c0.26,0.454,0.336,0.887,0.336,1.253c0,0.273-0.044,0.507-0.087,0.668l0.001-0.002
		c-0.178,0.652-0.594,1.191-1.178,1.531l-17.715,10.228c-0.393,0.226-0.678,0.598-0.795,1.035c-0.039,0.146-0.059,0.295-0.059,0.444
		c0,0.296,0.078,0.589,0.228,0.85l0.001,0.002l-0.001-0.002c0.306,0.527,0.87,0.852,1.48,0.853c0.299,0.001,0.592-0.079,0.851-0.23
		l8.936-5.16l-0.002,0.001c0.38-0.217,0.813-0.331,1.249-0.331c0.9-0.001,1.743,0.486,2.192,1.265l0,0.001l0.086,0.148l-0.001-0.001
		c0.225,0.389,0.338,0.819,0.338,1.255c0,0.22-0.029,0.441-0.088,0.661c-0.176,0.655-0.591,1.195-1.175,1.533l-10.576,6.108
		l-0.003,0.002c-4.504,2.74-11.509,5.839-16.009,6.14l0,0l-0.271,0.019l-0.44-0.199l-0.009-0.004l-0.009-0.004
		c-0.133-0.051-0.273-0.076-0.416-0.076c-0.152,0-0.302,0.028-0.443,0.085l-0.317,0.129l-0.335-0.072l0,0
		c-0.483-0.105-0.882-0.252-1.229-0.448l0,0c-0.256-0.144-0.544-0.22-0.838-0.22c-0.299,0-0.593,0.079-0.852,0.229l-8.065,4.654
		l-12.078-20.921l5.569-3.217c0.464-0.267,0.774-0.735,0.84-1.266c0.545-4.347,1.412-6.993,2.465-8.834
		c1.053-1.84,2.299-2.9,3.695-4.086c1.962-1.662,4.26-3.619,6.138-7.873c1.147-2.589,2.306-3.991,3.259-4.74
		c0.955-0.748,1.702-0.859,2.096-0.861V105.765l-0.02,0.374L61.423,105.765z M146.858,155.851v0.375l0.164,0.032l0.146-0.345
		l-0.173,0.333l0.085,0.044l3.924,2.263l12.389-21.46l-8.712-5.03c-0.29-0.166-0.475-0.483-0.478-0.817
		c-0.02-1.43-0.759-2.904-1.87-4.368c-3.342-4.381-10.189-8.774-13.081-10.366l-0.18,0.329l0.187-0.325l-10.573-6.104
		c-0.497-0.287-1.062-0.438-1.636-0.439c-1.169,0.001-2.255,0.626-2.841,1.637l-0.001,0.002l-0.089,0.156l0.002-0.003
		c-0.288,0.498-0.436,1.056-0.436,1.623c0,0.284,0.037,0.569,0.111,0.85c0.223,0.846,0.768,1.559,1.525,1.996l8.926,5.154
		c0.306,0.176,0.476,0.497,0.477,0.829c0,0.162-0.041,0.325-0.128,0.477c-0.168,0.292-0.488,0.477-0.83,0.477
		c-0.166,0-0.33-0.044-0.473-0.126l-17.719-10.229l0.001,0c-0.497-0.288-1.061-0.44-1.634-0.44c-0.286,0-0.572,0.037-0.849,0.111
		l-0.002,0h0c-0.846,0.228-1.557,0.773-1.991,1.527l-0.001,0.002l-0.087,0.153l0.002-0.003c-0.29,0.499-0.439,1.059-0.439,1.627
		c0,0.284,0.037,0.57,0.112,0.852l0,0.001c0.112,0.416,0.364,1.022,0.931,1.55l0.124,0.115l0.031,0.029l3.199,1.846l0.16,0.114
		l0.16,0.129l0.045,0.036l0.258,0.1l0.189,0.087l14.163,8.18c0.224,0.13,0.378,0.331,0.446,0.58l0.033,0.248
		c0,0.165-0.043,0.327-0.129,0.476c-0.169,0.294-0.489,0.479-0.831,0.479c-0.17-0.001-0.325-0.042-0.479-0.129l0.001,0l-12.91-7.455
		l-0.118-0.047l-0.19-0.089l-4.514-2.607l0,0c-0.143-0.082-0.286-0.174-0.455-0.295l-0.014-0.01l-3.086-1.79l-0.001,0
		c-0.497-0.287-1.061-0.439-1.633-0.439c-0.285,0-0.57,0.037-0.847,0.11l0,0c-0.491,0.129-1.405,0.505-1.996,1.532l0.001-0.002
		l-0.085,0.146l-0.002,0.003l0.001-0.001c-0.291,0.504-0.441,1.065-0.44,1.633c0,0.287,0.038,0.575,0.115,0.858
		c0.227,0.841,0.772,1.549,1.526,1.984l21.293,12.293c0.223,0.129,0.378,0.331,0.445,0.579l0.033,0.249
		c0,0.165-0.043,0.327-0.129,0.476l-0.001,0.001c-0.168,0.294-0.489,0.479-0.83,0.478c-0.164,0-0.329-0.044-0.476-0.128l0.001,0
		l-17.71-10.228l-0.002-0.001c-0.503-0.286-1.068-0.437-1.638-0.437c-0.285,0-0.567,0.036-0.841,0.108l-0.002,0.001l-0.002,0.001
		c-0.848,0.233-1.56,0.777-1.993,1.527l-0.085,0.148l0.001-0.002c-0.292,0.503-0.443,1.067-0.443,1.637
		c0,0.283,0.037,0.567,0.111,0.847l0,0.001l0.001,0.002c0.232,0.846,0.776,1.557,1.528,1.99l19.257,11.123l0.011,0.006
		c0.347,0.172,0.548,0.501,0.549,0.864l-0.002,0.057c-0.029,0.505-0.448,0.901-0.948,0.901v0.375l0.019-0.375
		c-0.402-0.02-0.749-0.029-1.109-0.029c-0.61,0-2.443,0.032-4.43,0.386c-1.986,0.361-4.137,1.017-5.396,2.396
		c-0.428,0.465-0.989,1.284-0.983,2.609c0,0.195,0.012,0.401,0.036,0.618l0.029,0.25l0.007,0.062l0.136,0.283l0,0.001
		c0.195,0.406,0.647,1.049,1.599,1.574c0.952,0.526,2.392,0.937,4.567,0.937c0.681,0,1.416-0.042,2.187-0.124
		c0.786-0.084,1.556-0.127,2.286-0.127c1.739,0,3.331,0.229,5.037,0.724l0.106,0.031l0.027,0.008l0.139,0.018l0.005,0.001
		l-0.005-0.001c1.107,0.148,2.149,0.395,3.399,0.805l0.117-0.356l-0.121,0.355l0.689,0.234l0.831,0.295
		c0.403,0.143,0.813,0.282,1.251,0.425l0.168,0.055l0.042,0.014l0.219,0.017c0.326,0.025,0.656,0.038,0.982,0.038
		c2.515-0.001,5.434-0.753,9.193-2.336c0.121-0.051,0.244-0.075,0.372-0.076c0.166,0,0.332,0.044,0.478,0.128l1.516,0.874
		l0.845-0.346l0.149-0.028V155.851v-0.375c-0.149,0-0.296,0.028-0.433,0.084l-0.505,0.207l-1.197-0.69
		c-0.26-0.15-0.554-0.228-0.852-0.228c-0.228,0-0.453,0.046-0.664,0.134c-3.71,1.564-6.54,2.278-8.902,2.277
		c-0.307,0-0.618-0.012-0.924-0.036l-0.13-0.01l-0.125-0.041c-0.432-0.141-0.835-0.278-1.232-0.419l-0.833-0.296l-0.003-0.001
		l-0.693-0.236l-0.001,0l-0.003-0.001c-1.282-0.422-2.378-0.682-3.533-0.836l-0.083-0.011l-0.079-0.023
		c-1.767-0.513-3.442-0.754-5.247-0.754c-0.759,0-1.555,0.044-2.366,0.131c-0.747,0.08-1.457,0.12-2.107,0.12
		c-2.083,0-3.39-0.393-4.204-0.844c-0.814-0.452-1.148-0.959-1.287-1.244l0,0.001l-0.081-0.169l-0.022-0.187
		c-0.022-0.19-0.032-0.367-0.032-0.532c0.006-1.117,0.429-1.699,0.789-2.106c1.027-1.152,3.053-1.825,4.972-2.161
		c1.917-0.342,3.715-0.375,4.298-0.375c0.347,0,0.68,0.009,1.072,0.028l0.009,0h0.009c0.902-0.001,1.645-0.707,1.697-1.607
		l0.003-0.1c0.001-0.649-0.372-1.245-0.968-1.537l-0.165,0.337l0.188-0.325l-19.246-11.116c-0.58-0.336-0.997-0.877-1.18-1.54
		l0.001,0.004c-0.058-0.218-0.086-0.437-0.086-0.655c0-0.439,0.115-0.871,0.341-1.261l0.001-0.002l0.084-0.147l-0.001,0.001
		c0.336-0.579,0.878-0.996,1.543-1.18l-0.1-0.362l0.095,0.363c0.211-0.055,0.43-0.083,0.65-0.083c0.437,0,0.876,0.117,1.268,0.339
		l-0.002-0.001l17.71,10.228l0.001,0c0.259,0.149,0.552,0.228,0.85,0.228c0.61,0,1.176-0.326,1.48-0.854l-0.001,0.001
		c0.151-0.261,0.23-0.555,0.23-0.851c0-0.148-0.019-0.297-0.059-0.443c-0.117-0.438-0.402-0.809-0.795-1.035l-21.293-12.293
		c-0.585-0.338-1-0.878-1.177-1.53c-0.06-0.22-0.089-0.442-0.089-0.662c0-0.436,0.114-0.866,0.34-1.258l-0.001,0.002l0.085-0.146
		l0.001-0.001l0.001-0.001c0.456-0.795,1.158-1.079,1.538-1.181l0.007-0.002l-0.008,0.002c0.214-0.057,0.435-0.085,0.655-0.085
		c0.439,0,0.874,0.117,1.258,0.339l-0.001,0l3.071,1.781l0.188-0.324l-0.218,0.305c0.185,0.132,0.351,0.24,0.519,0.336l-0.001-0.001
		l4.541,2.623l0.23,0.107l0.011,0.005l0.088,0.035l12.862,7.427l0.001,0c0.26,0.15,0.553,0.229,0.852,0.229
		c0.61,0,1.175-0.326,1.48-0.854c0.151-0.261,0.229-0.555,0.229-0.851c0-0.148-0.019-0.297-0.058-0.442
		c-0.117-0.438-0.402-0.809-0.795-1.035l-14.192-8.197l-0.231-0.107l-0.011-0.005l-0.171-0.067l-0.123-0.099l-0.008-0.007
		l-0.192-0.137l-0.015-0.011l-3.157-1.822l-0.093-0.086c-0.436-0.406-0.631-0.874-0.717-1.196l0,0.001
		c-0.058-0.219-0.087-0.44-0.087-0.659c0-0.437,0.114-0.865,0.337-1.25l0.001-0.002l0.087-0.154l-0.001,0.002
		c0.337-0.583,0.877-0.999,1.537-1.178l-0.002,0c0.214-0.057,0.436-0.086,0.657-0.086c0.44,0,0.875,0.117,1.258,0.339l17.719,10.229
		c0.257,0.149,0.55,0.227,0.848,0.227c0.61,0,1.175-0.325,1.48-0.853c0.154-0.267,0.228-0.562,0.228-0.851
		c0.001-0.588-0.305-1.163-0.852-1.479l-8.926-5.154c-0.587-0.34-1.001-0.882-1.175-1.538c-0.058-0.219-0.086-0.44-0.086-0.658
		c0-0.436,0.113-0.863,0.335-1.247l0.001-0.002l0.088-0.156l-0.002,0.003c0.449-0.777,1.291-1.263,2.191-1.262
		c0.442,0,0.878,0.117,1.261,0.338l10.577,6.107l0.003,0.002c1.882,1.032,5.547,3.332,8.725,6.002
		c1.589,1.334,3.057,2.763,4.119,4.16c1.066,1.397,1.709,2.759,1.717,3.922c0.007,0.602,0.331,1.157,0.853,1.459l8.063,4.655
		l-11.639,20.161l-3.289-1.897l-0.1-0.052l-0.013-0.007l-0.013-0.006c-0.145-0.061-0.3-0.092-0.457-0.092V155.851z M97.815,80.358
		v0.375c0.526,0.001,0.955,0.429,0.956,0.954V96.6l0.019,0.128l0.019,0.208l-0.001,5.208c0,0.169-0.009,0.352-0.028,0.542
		l-0.002,0.018l-0.007,3.569v0.001c0.001,1.808,1.468,3.276,3.274,3.277h0.171c1.808-0.001,3.276-1.469,3.277-3.276V81.688
		c0.001-0.526,0.43-0.955,0.956-0.956c0.525,0.001,0.953,0.429,0.954,0.956v20.476c0.001,1.799,1.471,3.256,3.277,3.256h0.171
		c1.808-0.001,3.276-1.469,3.276-3.276l0.002-22.235l-0.001-0.012l-0.002-0.069c0.001-0.379,0.202-0.705,0.526-0.869
		c0.137-0.069,0.276-0.102,0.426-0.102c0.369,0.001,0.692,0.2,0.857,0.526l0,0c0.504,0.995,1.574,2.789,2.951,4.445
		c1.381,1.651,3.051,3.182,4.863,3.58l-0.001,0c0.28,0.061,0.55,0.091,0.82,0.091c0.85,0.002,1.666-0.303,2.448-0.885l0.202-0.15
		l0.051-0.038l0.178-0.261l0.003-0.004l-0.003,0.004c0.218-0.32,0.554-1.001,0.553-2.073c0-1.417-0.576-3.489-2.666-6.352
		c-2.655-3.647-3.177-6.543-3.616-8.947c-0.327-1.794-0.643-3.535-1.78-5.485c-1.137-1.95-3.076-4.092-6.613-6.772
		c-0.236-0.178-0.38-0.468-0.379-0.762v-7.181H87.29v10.059c0.001,0.335-0.181,0.655-0.469,0.824
		c-1.164,0.693-2.037,1.97-2.733,3.547c-2.071,4.731-2.553,12.329-2.558,16.045c0,0.261,0.002,0.502,0.007,0.723l0.375-0.008h-0.375
		v12.209c0.001,1.808,1.469,3.276,3.277,3.276h0.171c1.808-0.001,3.276-1.469,3.276-3.276V81.687
		c0.001-0.525,0.429-0.953,0.956-0.954c0.526,0.001,0.955,0.429,0.956,0.954v20.458c0.001,1.807,1.468,3.274,3.275,3.274h0.171
		c1.537,0.001,2.856-1.052,3.193-2.551l0.036-0.163l0.009-0.041v-3.683l0.019-0.198l0.031-0.199l0.009-0.057l-0.041-0.271
		l-0.019-0.207l0.001-16.361c0.001-0.524,0.43-0.953,0.956-0.954V80.358v-0.375c-0.941,0.001-1.706,0.763-1.706,1.704l-0.001,16.395
		l0.023,0.253l0.001,0.011l0.027,0.179l-0.024,0.153l-0.002,0.011l-0.023,0.238l-0.002,0.018v3.636l-0.027,0.122l0-0.001
		c-0.264,1.161-1.271,1.966-2.462,1.967h-0.171c-1.391-0.003-2.523-1.134-2.525-2.524V81.687c-0.001-0.941-0.765-1.703-1.706-1.704
		c-0.941,0.001-1.705,0.763-1.706,1.704v10.306c-0.003,1.392-1.134,2.524-2.526,2.526h-0.171c-1.392-0.003-2.524-1.134-2.527-2.526
		V79.779l0-0.003c-0.004-0.214-0.007-0.451-0.007-0.707c0-2.432,0.22-6.611,0.962-10.467c0.37-1.928,0.872-3.775,1.533-5.276
		c0.658-1.504,1.479-2.646,2.428-3.204c0.518-0.308,0.836-0.867,0.837-1.47v-9.309h24.16l0,6.431
		c0.001,0.533,0.252,1.037,0.676,1.36c3.492,2.646,5.351,4.719,6.418,6.552c1.067,1.832,1.362,3.441,1.69,5.242
		c0.436,2.406,1.002,5.496,3.748,9.254c2.029,2.781,2.522,4.702,2.522,5.91c-0.001,0.916-0.279,1.436-0.424,1.652l0-0.001
		l-0.106,0.156l-0.152,0.112c-0.691,0.51-1.331,0.736-2.002,0.738c-0.213,0-0.428-0.024-0.662-0.074l-0.002,0l0.001,0
		c-1.499-0.311-3.119-1.725-4.444-3.326c-1.329-1.596-2.383-3.362-2.858-4.304l0,0c-0.29-0.577-0.88-0.939-1.527-0.938
		c-0.265,0-0.525,0.062-0.763,0.182c-0.58,0.29-0.941,0.886-0.939,1.539l0.004,0.118l0.374-0.025l-0.375,0l-0.002,22.222
		c-0.003,1.392-1.134,2.524-2.526,2.526h-0.171c-1.394-0.003-2.524-1.127-2.527-2.506V81.688c-0.001-0.941-0.763-1.705-1.704-1.706
		c-0.942,0.001-1.705,0.764-1.706,1.706v24.587c-0.003,1.392-1.135,2.524-2.527,2.526h-0.171c-1.391-0.003-2.522-1.134-2.524-2.527
		l0.007-3.55l-0.375-0.001l0.373,0.037c0.021-0.213,0.032-0.42,0.032-0.616l0.001-5.242l-0.023-0.253l-0.001-0.011l-0.014-0.094
		V81.687c-0.001-0.941-0.765-1.703-1.706-1.704V80.358z"/>
</g>
<g>
</g>
<g>
</g>
<g>
</g>
<g>
</g>
<g>
</g>
<g>
</g>
<g>
</g>
<g>
</g>
<g>
</g>
<g>
</g>
<g>
</g>
<g>
</g>
<g>
</g>
<g>
</g>
<g>
</g>
</svg>
