<?xml version="1.0" encoding="iso-8859-1"?>
<!-- Generator: Adobe Illustrator 18.0.0, SVG Export Plug-In . SVG Version: 6.00 Build 0)  -->
<!DOCTYPE svg PUBLIC "-//W3C//DTD SVG 1.1//EN" "http://www.w3.org/Graphics/SVG/1.1/DTD/svg11.dtd">
<svg version="1.1" id="Layer_1" xmlns="http://www.w3.org/2000/svg" xmlns:xlink="http://www.w3.org/1999/xlink" x="0px" y="0px"
	 viewBox="0 0 200 200" style="enable-background:new 0 0 200 200;" xml:space="preserve">
<rect x="234.125" y="71.041" style="fill:#F15A24;" width="3.773" height="3.773"/>
<g>
	<path style="fill:#B3B3B3;" d="M92.862,72.621c-0.69,0-1.252-0.561-1.252-1.25v-9.337l0.007-0.131l0.006-5.795l-0.657-0.438
		c-4.466-2.979-7.132-7.963-7.132-13.332c0-8.835,7.188-16.023,16.022-16.023c8.835,0,16.023,7.188,16.023,16.023
		c0,5.369-2.666,10.352-7.132,13.331l-0.657,0.438v5.675l0.009,0.155l0.005,0.098v9.337c0,0.689-0.562,1.25-1.252,1.25H92.862z
		 M94.111,70.12h11.491v-6.834H94.111V70.12z M99.907,48.154c0.689,0,1.25,0.561,1.25,1.25v11.381h4.432v-5.428
		c0-0.46,0.253-0.882,0.66-1.101c4.397-2.364,7.128-6.93,7.128-11.917c0-7.455-6.065-13.521-13.52-13.521
		c-7.455,0-13.521,6.065-13.521,13.521c0,4.986,2.732,9.553,7.129,11.917c0.407,0.218,0.659,0.641,0.659,1.103v5.426h4.53V49.403
		C98.655,48.714,99.217,48.154,99.907,48.154z"/>
	<path style="fill:#B3B3B3;" d="M92.862,72.621v-0.375c-0.483-0.001-0.876-0.394-0.877-0.875v-9.326l0.007-0.12l0.001-0.01
		l0.007-6.007l-0.824-0.549c-4.361-2.91-6.964-7.775-6.964-13.02c0-4.315,1.754-8.224,4.588-11.059
		c2.835-2.834,6.744-4.588,11.059-4.588c4.315,0,8.225,1.754,11.06,4.588c2.834,2.835,4.588,6.745,4.589,11.059
		c0,5.244-2.603,10.109-6.965,13.019l-0.657,0.438l-0.167,0.111v5.886l0.009,0.166l0-0.002l0.004,0.089l0,9.327
		c-0.001,0.481-0.394,0.874-0.877,0.875H92.862V72.621v0.375h13.992c0.898-0.001,1.626-0.727,1.627-1.625v-9.346l-0.005-0.107
		l0-0.002l-0.008-0.146v-5.463l0.49-0.326c4.57-3.047,7.299-8.149,7.298-13.643c-0.001-9.043-7.355-16.397-16.398-16.398
		c-9.043,0.001-16.397,7.355-16.397,16.398c0,5.494,2.729,10.597,7.298,13.644l0.49,0.326l-0.006,5.584l-0.007,0.121l-0.001,0.01
		v9.348c0.001,0.897,0.729,1.624,1.627,1.625V72.621z M94.111,70.12v0.375h11.866v-7.584H93.736v7.584h0.375V70.12h0.375v-6.459
		l10.741,0v6.084H94.111V70.12h0.375H94.111z M99.907,48.154v0.375c0.482,0.001,0.875,0.394,0.875,0.875v11.756h5.182v-5.803
		c0-0.322,0.176-0.616,0.463-0.771c4.517-2.429,7.325-7.123,7.325-12.247c-0.001-7.663-6.232-13.895-13.895-13.896
		c-7.663,0.001-13.895,6.233-13.896,13.896c0,5.124,2.808,9.818,7.326,12.247c0.285,0.154,0.462,0.448,0.462,0.772v5.801h5.28
		V49.403c0.001-0.481,0.394-0.874,0.876-0.875V48.154v-0.375c-0.897,0.001-1.626,0.727-1.626,1.625v11.006H94.5v-5.051
		c0-0.599-0.329-1.15-0.857-1.433c-4.276-2.3-6.931-6.738-6.931-11.587c0-3.625,1.474-6.909,3.855-9.291
		c2.382-2.381,5.666-3.855,9.291-3.855c3.625,0,6.909,1.474,9.29,3.855c2.381,2.382,3.854,5.666,3.854,9.291
		c0,4.849-2.655,9.287-6.931,11.586c-0.528,0.284-0.858,0.833-0.857,1.432v5.053l-3.682,0V49.403
		c-0.001-0.897-0.728-1.624-1.625-1.625V48.154z"/>
	<path style="fill:#B3B3B3;" d="M96.906,79.518c-0.69,0-1.252-0.561-1.252-1.251c0-0.689,0.561-1.25,1.252-1.25h5.903
		c0.689,0,1.25,0.561,1.25,1.25c0,0.69-0.561,1.251-1.25,1.251H96.906z"/>
	<path style="fill:#B3B3B3;" d="M96.906,79.518v-0.375c-0.482-0.001-0.876-0.394-0.877-0.876c0.001-0.481,0.394-0.875,0.877-0.875
		h5.903c0.482,0.001,0.874,0.394,0.875,0.875c-0.001,0.482-0.394,0.875-0.875,0.876h-5.903V79.518v0.375h5.903
		c0.898-0.001,1.625-0.729,1.625-1.626c-0.001-0.897-0.728-1.625-1.625-1.625h-5.903c-0.898,0.001-1.626,0.728-1.627,1.625
		c0.001,0.898,0.729,1.626,1.627,1.626V79.518z"/>
	<path style="fill:#B3B3B3;" d="M69.378,43.15c-0.689,0-1.25-0.562-1.25-1.252c0-0.689,0.561-1.25,1.25-1.25h7.69
		c0.689,0,1.25,0.561,1.25,1.25c0,0.69-0.561,1.252-1.25,1.252H69.378z"/>
	<path style="fill:#B3B3B3;" d="M69.378,43.15v-0.375c-0.481-0.001-0.874-0.394-0.875-0.877c0.001-0.481,0.393-0.874,0.875-0.875
		h7.69c0.481,0.001,0.874,0.393,0.875,0.875c-0.001,0.483-0.394,0.876-0.875,0.877h-7.69V43.15v0.375h7.69
		c0.898-0.001,1.624-0.729,1.625-1.627c-0.001-0.897-0.728-1.624-1.625-1.625h-7.69c-0.897,0.001-1.625,0.728-1.625,1.625
		c0.001,0.898,0.728,1.626,1.625,1.627V43.15z"/>
	<path style="fill:#B3B3B3;" d="M122.649,43.15c-0.69,0-1.251-0.562-1.251-1.252c0-0.689,0.561-1.25,1.251-1.25h7.688
		c0.69,0,1.252,0.561,1.252,1.25c0,0.69-0.562,1.252-1.252,1.252H122.649z"/>
	<path style="fill:#B3B3B3;" d="M122.649,43.15v-0.375c-0.482-0.001-0.875-0.394-0.876-0.877c0.001-0.481,0.394-0.874,0.876-0.875
		h7.688c0.483,0.001,0.876,0.394,0.877,0.875c-0.001,0.483-0.394,0.876-0.877,0.877h-7.688V43.15v0.375h7.688
		c0.898-0.001,1.626-0.729,1.627-1.627c-0.001-0.897-0.729-1.624-1.627-1.625h-7.688c-0.897,0.001-1.626,0.727-1.626,1.625
		c0.001,0.898,0.728,1.626,1.626,1.627V43.15z"/>
	<path style="fill:#B3B3B3;" d="M78.306,64.701c-0.335,0-0.649-0.13-0.886-0.366c-0.487-0.488-0.487-1.282,0-1.769l5.436-5.438
		c0.236-0.236,0.551-0.366,0.885-0.366c0.335,0,0.649,0.13,0.886,0.367c0.236,0.236,0.366,0.55,0.366,0.884
		c0,0.335-0.13,0.649-0.366,0.886l-5.437,5.436C78.954,64.571,78.64,64.701,78.306,64.701z"/>
	<path style="fill:#B3B3B3;" d="M78.306,64.701v-0.375c-0.237-0.001-0.453-0.09-0.62-0.257c-0.171-0.171-0.255-0.394-0.256-0.619
		c0-0.226,0.085-0.448,0.256-0.619l5.441-5.442l-0.005,0.005c0.168-0.167,0.384-0.256,0.62-0.256
		c0.237,0.001,0.453,0.09,0.621,0.257c0.166,0.167,0.255,0.382,0.256,0.619c-0.001,0.237-0.09,0.453-0.257,0.62l-5.437,5.436
		c-0.168,0.167-0.383,0.256-0.619,0.257V64.701v0.375c0.431,0.001,0.844-0.171,1.149-0.476l5.437-5.436
		c0.306-0.305,0.477-0.719,0.476-1.151c0.001-0.432-0.17-0.845-0.476-1.149c-0.306-0.306-0.719-0.477-1.151-0.476
		c-0.432-0.001-0.845,0.17-1.15,0.475l-5.436,5.438c-0.317,0.316-0.476,0.735-0.475,1.15c0,0.415,0.159,0.833,0.475,1.15
		c0.305,0.306,0.719,0.477,1.151,0.476V64.701z"/>
	<path style="fill:#B3B3B3;" d="M115.972,27.033c-0.334,0-0.648-0.13-0.885-0.367c-0.487-0.487-0.487-1.281,0.001-1.768l5.438-5.438
		c0.236-0.236,0.55-0.366,0.884-0.366c0.334,0,0.648,0.13,0.884,0.366c0.237,0.236,0.367,0.551,0.367,0.885
		c0,0.335-0.13,0.649-0.366,0.885l-5.437,5.437C116.621,26.903,116.307,27.033,115.972,27.033z"/>
	<path style="fill:#B3B3B3;" d="M115.972,27.033v-0.375c-0.236-0.001-0.451-0.09-0.62-0.257l0,0
		c-0.171-0.171-0.255-0.393-0.255-0.619c0-0.226,0.085-0.448,0.256-0.619l5.438-5.437c0.168-0.167,0.383-0.256,0.619-0.257
		c0.237,0.001,0.451,0.09,0.619,0.256l0,0c0.167,0.168,0.256,0.383,0.257,0.619c-0.001,0.237-0.09,0.452-0.256,0.619l-0.01,0.01
		l-5.427,5.428l0,0c-0.168,0.166-0.384,0.256-0.621,0.256V27.033v0.375c0.432,0.001,0.845-0.17,1.15-0.475l0,0l5.437-5.437l0,0
		c0.306-0.305,0.477-0.718,0.476-1.15c0.001-0.432-0.171-0.845-0.477-1.15l0,0c-0.304-0.306-0.718-0.477-1.149-0.476
		c-0.432-0.001-0.845,0.17-1.15,0.476l-5.438,5.438c-0.317,0.316-0.476,0.735-0.476,1.15c0,0.414,0.159,0.833,0.475,1.149l0,0
		c0.305,0.305,0.718,0.477,1.15,0.476V27.033z"/>
	<path style="fill:#B3B3B3;" d="M99.858,20.359c-0.69,0-1.251-0.562-1.251-1.252v-7.688c0-0.69,0.561-1.252,1.251-1.252
		c0.689,0,1.25,0.562,1.25,1.252v7.688C101.108,19.797,100.547,20.359,99.858,20.359z"/>
	<path style="fill:#B3B3B3;" d="M99.858,20.359v-0.375c-0.482-0.001-0.875-0.394-0.876-0.877v-7.688
		c0.001-0.483,0.394-0.876,0.876-0.877c0.481,0.001,0.875,0.394,0.875,0.877v7.688c-0.001,0.483-0.394,0.876-0.875,0.877V20.359
		v0.375c0.898-0.001,1.625-0.729,1.625-1.627v-7.688c-0.001-0.898-0.728-1.626-1.625-1.627c-0.898,0.001-1.626,0.729-1.626,1.627
		v7.688c0.001,0.898,0.728,1.626,1.626,1.627V20.359z"/>
	<path style="fill:#B3B3B3;" d="M121.41,64.703c-0.333,0-0.649-0.131-0.888-0.37l-5.433-5.434c-0.487-0.488-0.487-1.283,0.001-1.771
		c0.235-0.235,0.549-0.365,0.883-0.365c0.335,0,0.649,0.13,0.885,0.367l5.438,5.437c0.488,0.488,0.487,1.282-0.001,1.771
		C122.058,64.573,121.744,64.703,121.41,64.703z"/>
	<path style="fill:#B3B3B3;" d="M121.41,64.703v-0.375c-0.234-0.001-0.452-0.09-0.624-0.261l0.001,0.001l-5.433-5.434
		c-0.171-0.171-0.255-0.393-0.255-0.619c0-0.227,0.085-0.45,0.257-0.622c0.167-0.166,0.381-0.255,0.617-0.255
		c0.237,0.001,0.452,0.09,0.619,0.257l0,0l5.438,5.437c0.171,0.171,0.255,0.393,0.256,0.62c0,0.226-0.085,0.449-0.257,0.622l0,0
		c-0.167,0.166-0.382,0.255-0.619,0.256V64.703v0.375c0.432,0.001,0.845-0.17,1.149-0.475l0,0c0.317-0.317,0.476-0.736,0.476-1.151
		c0-0.415-0.159-0.834-0.475-1.15l-5.438-5.437l0,0c-0.305-0.306-0.718-0.478-1.15-0.477c-0.431-0.001-0.844,0.17-1.148,0.475
		c-0.317,0.317-0.477,0.737-0.476,1.152c0,0.415,0.159,0.833,0.475,1.149l5.433,5.434l0.001,0.001
		c0.307,0.307,0.721,0.48,1.153,0.479V64.703z"/>
	<path style="fill:#B3B3B3;" d="M83.742,27.033c-0.334,0-0.649-0.131-0.887-0.367l-5.434-5.434
		c-0.487-0.488-0.486-1.282,0.002-1.771c0.236-0.236,0.55-0.366,0.883-0.366c0.335,0,0.65,0.13,0.886,0.367l5.435,5.437
		c0.236,0.236,0.366,0.551,0.366,0.885c0,0.334-0.13,0.648-0.366,0.885C84.391,26.903,84.076,27.033,83.742,27.033z"/>
	<path style="fill:#B3B3B3;" d="M83.742,27.033v-0.375c-0.236-0.001-0.453-0.09-0.623-0.258L83.12,26.4l-5.434-5.434
		c-0.17-0.171-0.255-0.392-0.255-0.618c0-0.227,0.085-0.45,0.257-0.622l0.008-0.008l-0.008,0.008
		c0.167-0.166,0.382-0.255,0.618-0.256c0.237,0.001,0.453,0.09,0.621,0.257l5.434,5.436c0.167,0.168,0.256,0.383,0.257,0.619
		c-0.001,0.237-0.09,0.452-0.257,0.619l0,0c-0.168,0.167-0.384,0.256-0.62,0.256V27.033v0.375c0.432,0.001,0.845-0.17,1.15-0.475
		l0,0c0.306-0.305,0.477-0.718,0.476-1.15c0.001-0.432-0.17-0.845-0.476-1.15l-5.435-5.437l0,0
		c-0.305-0.306-0.719-0.477-1.151-0.476c-0.431-0.001-0.844,0.17-1.148,0.475l-0.007,0.007l0.007-0.007
		c-0.317,0.317-0.477,0.737-0.477,1.152c0,0.414,0.159,0.832,0.475,1.149l5.435,5.435l0,0c0.306,0.306,0.72,0.477,1.152,0.477
		V27.033z"/>
	<path style="fill:#B3B3B3;" d="M89.933,175.625c-0.69,0-1.251-0.561-1.251-1.252c0-0.689,0.561-1.25,1.251-1.25h33.408v-7.799
		c0-7.938-6.318-10.269-6.587-10.364l-10.366-4.155l-5.373,5.579c-0.23,0.238-0.551,0.378-0.881,0.382
		c-0.34,0-0.658-0.126-0.892-0.354l-5.651-5.502l-10.289,4.029c-0.672,0.241-6.643,2.605-6.643,10.385v7.799h5.201
		c0.69,0,1.251,0.562,1.251,1.252c0,0.689-0.561,1.25-1.251,1.25h-6.455c-0.689,0-1.25-0.562-1.25-1.253v-9.048
		c0-9.454,7.394-12.411,8.237-12.718l11.243-4.402v-3.011l-0.718-0.429c-2.433-1.455-4.27-3.729-5.172-6.404l-0.31-0.916
		l-0.963-0.082c-3.008-0.256-5.365-2.821-5.365-5.841c0-1.746,0.775-3.391,2.126-4.514l0.532-0.442v-5.063
		c0-7.836,5.852-14.54,13.613-15.594l1.276-0.173V88.508c0-0.689,0.561-1.25,1.251-1.25c0.689,0,1.25,0.561,1.25,1.25v17.206
		l1.312,0.145c7.977,0.888,13.992,7.613,13.992,15.643v5.083l0.526,0.442c1.337,1.123,2.103,2.761,2.103,4.494
		c0,3.037-2.278,5.547-5.298,5.839l-0.95,0.092l-0.305,0.904c-0.903,2.676-2.74,4.952-5.174,6.408l-0.718,0.43v3.018l10.929,4.382
		c0.855,0.313,8.269,3.301,8.271,12.73v9.033c0,0.699-0.562,1.268-1.252,1.268H89.933z M96.137,149.897l3.948,3.846l4.058-4.212
		v-3.322l-1.627,0.169c-0.404,0.042-0.816,0.064-1.224,0.064H98.99c-0.409,0-0.821-0.021-1.225-0.064l-1.627-0.169V149.897z
		 M103.519,121.795c-4.208,3.424-9.693,4.49-12.588,4.821l-1.307,0.15l-0.002,7.807c0,5.165,4.202,9.367,9.367,9.367h2.303
		c5.164,0,9.365-4.201,9.365-9.365v-8.056l-0.831-0.403c-1.63-0.79-3.014-2.115-4.115-3.938l-0.877-1.453L103.519,121.795z
		 M113.159,136.651l2.577-2.906c0.549-0.619,0.851-1.409,0.851-2.224c0-0.816-0.303-1.606-0.852-2.224l-2.577-2.9V136.651z
		 M84.83,128.978l-0.438,0.403l-0.014,0.018c-0.502,0.614-0.767,1.349-0.767,2.125c0,0.904,0.355,1.752,0.999,2.389l2.512,2.487
		v-7.942L84.83,128.978z M105.325,116.841l0.25,0.025c0.481,0.098,0.862,0.471,0.97,0.949c0.143,0.569,1.502,5.521,5.6,6.485
		l1.812,0.426v-3.225c0-7.3-5.939-13.24-13.24-13.24h-1.208c-7.299,0-13.239,5.939-13.241,13.239v3.222l1.797-0.403l0.133-0.025
		c0.091-0.012,0.132-0.015,0.173-0.015c0.109,0,10.992-0.079,15.941-6.921C104.547,117.034,104.925,116.841,105.325,116.841z"/>
	<path style="fill:#B3B3B3;" d="M89.933,175.625v-0.375c-0.482-0.001-0.875-0.394-0.876-0.877c0.001-0.481,0.394-0.874,0.876-0.875
		h33.783v-8.174c0.003-4.071-1.633-6.751-3.305-8.39c-1.671-1.642-3.365-2.267-3.532-2.327l-0.125,0.353l0.14-0.348l-10.6-4.249
		l-5.548,5.761c-0.159,0.165-0.389,0.265-0.616,0.268l0.006,0.375v-0.375c-0.248,0-0.469-0.09-0.63-0.247l-5.824-5.671
		l-10.514,4.117l0.137,0.349l-0.126-0.353c-0.37,0.133-2.079,0.804-3.714,2.455c-1.635,1.648-3.181,4.296-3.178,8.284v8.174h5.576
		c0.482,0.001,0.875,0.394,0.876,0.877c-0.001,0.481-0.394,0.874-0.876,0.875h-6.455c-0.48-0.001-0.874-0.394-0.875-0.878v-9.048
		c0.003-4.627,1.797-7.618,3.693-9.524c1.896-1.903,3.908-2.7,4.297-2.841l0.005-0.002l11.486-4.497v-3.48l-0.9-0.538
		c-2.357-1.409-4.136-3.612-5.009-6.202l-0.31-0.916l-0.079-0.233l-1.207-0.103c-2.812-0.237-5.024-2.646-5.022-5.467
		c0-1.635,0.724-3.173,1.99-4.226l0.532-0.442l0.135-0.112v-5.239c-0.001-7.646,5.715-14.195,13.289-15.222l1.6-0.217V88.508
		c0.001-0.481,0.394-0.874,0.876-0.875c0.482,0.001,0.875,0.394,0.875,0.875v17.542l1.645,0.182
		c7.787,0.867,13.658,7.43,13.658,15.27v5.258l0.66,0.554c1.253,1.053,1.969,2.585,1.97,4.207c-0.001,2.846-2.129,5.191-4.959,5.465
		l-0.951,0.092l-0.241,0.023l-0.383,1.134c-0.874,2.591-2.654,4.795-5.012,6.206l-0.718,0.43l-0.182,0.109v3.485l11.17,4.478
		l0.005,0.002c0.395,0.144,2.415,0.95,4.319,2.859c1.903,1.912,3.702,4.905,3.706,9.519l0,9.033
		c-0.001,0.495-0.398,0.892-0.877,0.893H89.933V175.625V176h34.659c0.902-0.001,1.627-0.74,1.627-1.643v-9.033
		c0.002-4.815-1.907-8.031-3.925-10.049c-2.018-2.021-4.132-2.865-4.592-3.034l-0.129,0.352l0.14-0.348l-10.693-4.287v-2.552
		l0.535-0.321c2.511-1.502,4.406-3.848,5.337-6.61l0.227-0.674l0.709-0.069c3.211-0.308,5.638-2.983,5.637-6.212
		c0-1.844-0.817-3.589-2.237-4.781l-0.392-0.33l0-4.908c0-8.221-6.159-15.107-14.325-16.016l-0.978-0.108v-16.87
		c-0.001-0.897-0.728-1.624-1.625-1.625c-0.897,0.001-1.626,0.727-1.626,1.625v16.9l-0.951,0.129
		c-7.949,1.081-13.936,7.941-13.938,15.966v4.887l-0.397,0.33c-1.436,1.193-2.261,2.945-2.261,4.803
		c0.002,3.217,2.503,5.939,5.708,6.214l0.718,0.061l0.231,0.683c0.931,2.76,2.825,5.106,5.335,6.606l0.535,0.32v2.543l-11.005,4.309
		l0.137,0.349l-0.128-0.352c-0.454,0.166-2.561,1.001-4.572,3.016c-2.012,2.012-3.915,5.227-3.912,10.054v9.048
		c0.001,0.898,0.727,1.627,1.625,1.628h6.455c0.897-0.001,1.626-0.727,1.626-1.625c-0.001-0.898-0.728-1.626-1.626-1.627h-4.826
		l0-7.424c0.003-3.792,1.443-6.216,2.961-7.756c1.519-1.537,3.131-2.169,3.433-2.276l0.005-0.002l10.069-3.942l5.478,5.334l0,0
		c0.307,0.3,0.722,0.461,1.154,0.46h0.003l0.002,0c0.432-0.007,0.844-0.186,1.145-0.497l5.198-5.398l10.138,4.064l0.007,0.003
		c0.102,0.035,1.702,0.624,3.257,2.155c1.555,1.535,3.077,3.989,3.081,7.856v7.424l-33.033,0c-0.897,0.001-1.626,0.728-1.626,1.625
		c0.001,0.898,0.729,1.626,1.626,1.626V175.625z M96.137,149.897l-0.262,0.269l4.218,4.109l4.425-4.593v-3.89l-2.041,0.212
		c-0.391,0.041-0.79,0.062-1.185,0.062H98.99c-0.396,0-0.795-0.021-1.186-0.062l-2.041-0.212v4.263l0.113,0.11L96.137,149.897h0.375
		v-3.273l1.213,0.126c0.417,0.044,0.842,0.066,1.264,0.066h2.303c0.421,0,0.845-0.022,1.262-0.066l1.213-0.126v2.755l-3.691,3.832
		l-3.678-3.583L96.137,149.897h0.375H96.137z M103.519,121.795l-0.237-0.291c-4.11,3.35-9.535,4.415-12.394,4.739l-1.639,0.188
		l-0.002,8.141c0.001,5.373,4.369,9.741,9.742,9.742h2.303c5.372-0.001,9.739-4.368,9.74-9.74v-8.291l-1.042-0.506
		c-1.555-0.755-2.886-2.021-3.958-3.795l-1.1-1.822l-1.651,1.343L103.519,121.795l0.237,0.291l0.981-0.798l0.654,1.083
		c1.131,1.873,2.569,3.256,4.273,4.082l0.619,0.3l0,7.821c0,2.479-1.007,4.725-2.636,6.354c-1.629,1.629-3.874,2.636-6.354,2.636
		H98.99c-2.48,0-4.726-1.008-6.355-2.637c-1.629-1.63-2.637-3.876-2.637-6.355l0.002-7.472l0.975-0.112
		c2.931-0.338,8.476-1.404,12.782-4.902L103.519,121.795z M113.159,136.651l0.281,0.249l2.577-2.906
		c0.609-0.686,0.946-1.565,0.946-2.473c0-0.909-0.337-1.788-0.947-2.473l-3.232-3.638v12.23l0.656-0.739L113.159,136.651h0.375
		v-9.268l1.921,2.163c0.489,0.551,0.757,1.252,0.757,1.975c0,0.722-0.268,1.424-0.757,1.975l-2.577,2.906L113.159,136.651h0.375
		H113.159z M84.83,128.978l-0.254-0.276l-0.438,0.403l-0.02,0.019l-0.032,0.04l0.001-0.002c-0.554,0.677-0.852,1.5-0.851,2.362
		c-0.001,1.002,0.396,1.95,1.11,2.656l3.15,3.119v-9.31l-2.847,0.646l-0.073,0.068L84.83,128.978l0.083,0.366l1.833-0.416v6.573
		l-1.873-1.854c-0.574-0.569-0.887-1.318-0.888-2.123c0.001-0.69,0.233-1.336,0.682-1.887l0.016-0.02l-0.292-0.236l0.254,0.276
		l0.438-0.403L84.83,128.978l0.083,0.366L84.83,128.978z M105.325,116.841l-0.038,0.373l0.25,0.025l0.038-0.373l-0.075,0.367
		c0.336,0.068,0.604,0.33,0.679,0.664l0.001,0.005l0.001,0.004c0.078,0.307,0.461,1.717,1.36,3.198
		c0.897,1.476,2.331,3.045,4.517,3.561l2.273,0.535v-3.698c-0.001-7.508-6.107-13.614-13.615-13.615h-1.208
		c-7.507,0.001-13.613,6.106-13.616,13.614l0,3.69l2.248-0.504l0.127-0.024l-0.07-0.368l0.05,0.372l0.123-0.012
		c0.079-0.001,2.849-0.02,6.25-0.907c3.396-0.888,7.438-2.641,9.995-6.169c0.163-0.226,0.43-0.363,0.709-0.362V116.841l-0.038,0.373
		L105.325,116.841v-0.375c-0.521,0-1.011,0.251-1.317,0.673c-2.393,3.314-6.267,5.021-9.577,5.883
		c-3.305,0.863-6.031,0.883-6.061,0.883c-0.061,0-0.127,0.005-0.223,0.018l-0.01,0.001l-0.144,0.027l-0.006,0.001l-1.346,0.302
		l0-2.753c0.001-7.092,5.774-12.865,12.866-12.864h1.208c3.547,0,6.762,1.442,9.092,3.772c2.33,2.331,3.772,5.545,3.772,9.092v2.751
		l-1.351-0.318c-1.912-0.448-3.206-1.837-4.048-3.221c-0.84-1.379-1.208-2.729-1.274-2.991l-0.364,0.092l0.366-0.083
		c-0.141-0.623-0.634-1.106-1.261-1.234l-0.018-0.004l-0.269-0.027l-0.019-0.002h-0.019V116.841z"/>
	<path style="fill:#B3B3B3;" d="M148.195,175.625c-0.689,0-1.25-0.561-1.25-1.252c0-0.69,0.561-1.252,1.25-1.252h33.41v-7.797
		c0-7.921-6.315-10.267-6.584-10.363l-10.37-4.156l-5.375,5.578c-0.233,0.242-0.546,0.378-0.881,0.383
		c-0.344,0-0.654-0.122-0.892-0.354l-5.65-5.501l-10.288,4.029c-0.672,0.241-6.645,2.605-6.645,10.385v7.799h5.202
		c0.69,0,1.252,0.561,1.252,1.25c0,0.69-0.562,1.252-1.252,1.252h-6.454c-0.689,0-1.25-0.562-1.25-1.253v-9.048
		c0-9.454,7.394-12.411,8.237-12.718l11.244-4.401v-3.012l-0.718-0.429c-2.433-1.455-4.27-3.729-5.174-6.405l-0.309-0.915
		l-0.963-0.082c-3.007-0.256-5.363-2.821-5.363-5.841c0-1.746,0.775-3.391,2.126-4.514l0.532-0.442v-5.063
		c0-7.879,5.889-14.588,13.698-15.605l1.284-0.168V57.261h-26.76c-0.69,0-1.252-0.561-1.252-1.25c0-0.69,0.561-1.252,1.252-1.252
		h28.011c0.689,0,1.25,0.562,1.25,1.252v49.708l1.304,0.152c7.928,0.925,13.907,7.645,13.907,15.631v5.084l0.526,0.442
		c1.337,1.122,2.103,2.76,2.103,4.494c0,3.037-2.278,5.547-5.298,5.839l-0.95,0.092l-0.305,0.904
		c-0.902,2.676-2.739,4.951-5.174,6.407l-0.718,0.43v3.018l10.929,4.382c0.855,0.313,8.271,3.295,8.271,12.73v9.031
		c0,0.7-0.561,1.269-1.252,1.269H148.195z M154.4,149.897l3.946,3.846l4.06-4.212v-3.323l-1.628,0.17
		c-0.402,0.042-0.814,0.064-1.223,0.064h-2.303c-0.409,0-0.821-0.021-1.225-0.064l-1.627-0.169V149.897z M161.782,121.795
		c-4.205,3.421-9.692,4.486-12.589,4.817l-1.307,0.15v7.81c0,5.164,4.201,9.366,9.365,9.366h2.305c2.498,0,4.848-0.975,6.619-2.745
		c1.771-1.771,2.745-4.123,2.744-6.621v-8.053l-0.83-0.403c-1.632-0.793-3.016-2.119-4.114-3.939l-0.877-1.453L161.782,121.795z
		 M171.422,136.651l2.577-2.906c0.549-0.619,0.852-1.409,0.852-2.224c0-0.815-0.303-1.605-0.853-2.224l-2.576-2.901V136.651z
		 M143.074,128.983l-0.419,0.4l-0.013,0.015c-0.503,0.615-0.768,1.35-0.768,2.125c0,0.902,0.355,1.75,0.998,2.388l2.512,2.487
		v-7.935L143.074,128.983z M157.774,108.262c-7.301,0-13.241,5.939-13.241,13.24v3.239l1.811-0.424l0.117-0.023
		c0.092-0.012,0.134-0.015,0.175-0.015c0.109,0,10.992-0.079,15.94-6.921c0.235-0.324,0.613-0.518,1.012-0.518l0.249,0.025
		c0.483,0.099,0.864,0.471,0.972,0.948c0.143,0.569,1.498,5.521,5.599,6.487l1.812,0.426v-3.225c0-7.3-5.94-13.24-13.241-13.24
		H157.774z"/>
	<path style="fill:#B3B3B3;" d="M148.195,175.625v-0.375c-0.481-0.001-0.874-0.394-0.875-0.877c0.001-0.483,0.394-0.876,0.875-0.877
		h33.785v-8.172c0.003-4.063-1.633-6.742-3.303-8.383c-1.67-1.644-3.363-2.273-3.53-2.333l-0.126,0.353l0.139-0.348l-10.604-4.25
		l-5.551,5.759c-0.165,0.171-0.379,0.264-0.617,0.268l0.006,0.375v-0.375c-0.255-0.002-0.462-0.085-0.63-0.248l-5.824-5.67
		l-10.513,4.117l0.137,0.349l-0.126-0.353c-0.37,0.133-2.079,0.804-3.715,2.454c-1.636,1.647-3.182,4.296-3.179,8.284v8.174h5.577
		c0.483,0.001,0.876,0.394,0.877,0.875c-0.001,0.482-0.394,0.876-0.877,0.877h-6.454c-0.481-0.001-0.874-0.394-0.875-0.878v-9.048
		c0.003-4.627,1.797-7.618,3.693-9.524c1.896-1.903,3.908-2.7,4.297-2.841l0.005-0.002l11.486-4.496v-3.481l-0.9-0.538
		c-2.356-1.409-4.136-3.613-5.012-6.203l-0.309-0.915l-0.079-0.233l-1.207-0.103c-2.811-0.237-5.023-2.646-5.02-5.467
		c0-1.634,0.724-3.173,1.99-4.226l0.532-0.442l0.135-0.112v-5.239c-0.001-7.689,5.75-14.242,13.371-15.234l1.61-0.21V56.886h-27.135
		c-0.483-0.001-0.876-0.394-0.877-0.875c0.001-0.483,0.394-0.876,0.877-0.877h28.011c0.481,0.001,0.874,0.394,0.875,0.877v50.042
		l1.635,0.191c7.739,0.903,13.575,7.463,13.575,15.258v5.259l0.661,0.554c1.253,1.052,1.969,2.584,1.969,4.207
		c-0.001,2.846-2.13,5.191-4.959,5.465l-0.951,0.092l-0.242,0.023l-0.383,1.134c-0.873,2.59-2.653,4.795-5.011,6.205l-0.718,0.43
		l-0.182,0.109v3.485l11.17,4.478l0.006,0.002c0.395,0.144,2.416,0.949,4.319,2.857c1.903,1.912,3.702,4.904,3.705,9.521v9.031
		c-0.001,0.496-0.398,0.894-0.877,0.894h-34.661V175.625V176h34.661c0.902-0.001,1.626-0.741,1.626-1.644v-9.031
		c0.003-4.818-1.906-8.034-3.924-10.051c-2.018-2.02-4.133-2.863-4.592-3.031l-0.129,0.352l0.14-0.348l-10.694-4.287v-2.552
		l0.535-0.321c2.51-1.502,4.406-3.848,5.336-6.609l0.228-0.675l0.709-0.069c3.211-0.308,5.638-2.983,5.637-6.212
		c0-1.845-0.817-3.589-2.237-4.781l-0.393-0.329l0-4.909c0-8.176-6.121-15.056-14.238-16.003l-0.972-0.113V56.011
		c-0.001-0.898-0.727-1.626-1.625-1.627h-28.011c-0.898,0.001-1.626,0.729-1.627,1.627c0.001,0.897,0.729,1.624,1.627,1.625h26.385
		V105.4l-0.957,0.125c-7.997,1.043-14.023,7.909-14.024,15.977v4.887l-0.397,0.33c-1.436,1.193-2.261,2.946-2.261,4.803
		c0.002,3.217,2.502,5.939,5.706,6.214l0.718,0.061l0.23,0.682c0.933,2.761,2.828,5.107,5.337,6.607l0.535,0.32v2.543l-11.005,4.308
		l0.137,0.349l-0.128-0.352c-0.454,0.166-2.561,1.001-4.572,3.016c-2.012,2.012-3.915,5.227-3.912,10.054v9.048
		c0.001,0.898,0.727,1.627,1.625,1.628h6.454c0.898-0.001,1.626-0.728,1.627-1.626c-0.001-0.898-0.729-1.625-1.627-1.625h-4.827
		v-7.424c0.003-3.792,1.443-6.216,2.962-7.756c1.519-1.537,3.132-2.168,3.434-2.276l0.006-0.002l10.067-3.942l5.477,5.332
		c0.306,0.301,0.721,0.462,1.153,0.46h0.004l0.002,0c0.433-0.006,0.845-0.185,1.145-0.498l5.2-5.396l10.142,4.064l0.007,0.002
		c0.102,0.036,1.701,0.628,3.256,2.161c1.554,1.537,3.076,3.991,3.079,7.849v7.422l-33.035,0c-0.898,0.001-1.625,0.729-1.625,1.627
		c0.001,0.898,0.728,1.626,1.625,1.626V175.625z M154.4,149.897l-0.262,0.269l4.216,4.109l4.427-4.593v-3.891l-2.042,0.213
		c-0.389,0.041-0.788,0.062-1.184,0.062h-2.303c-0.396,0-0.795-0.021-1.186-0.062l-2.041-0.212v4.263l0.113,0.11L154.4,149.897
		h0.375v-3.273l1.213,0.126c0.417,0.044,0.842,0.066,1.264,0.066h2.303c0.422,0,0.846-0.022,1.262-0.066l1.214-0.127v2.756
		l-3.694,3.832l-3.676-3.582L154.4,149.897h0.375H154.4z M161.782,121.795l-0.237-0.291c-4.107,3.347-9.534,4.412-12.395,4.735
		l-1.64,0.188v8.145c0.001,5.372,4.368,9.74,9.74,9.741h2.305c2.595,0.001,5.045-1.016,6.884-2.855
		c1.839-1.839,2.855-4.287,2.854-6.882h-0.248l0.248,0.008l0-0.008h-0.248l0.248,0.008l0-0.006v-8.294l-1.041-0.506
		c-1.558-0.758-2.888-2.025-3.956-3.795l-1.1-1.822l-1.651,1.343L161.782,121.795l0.237,0.291l0.981-0.798l0.654,1.083
		c1.127,1.87,2.565,3.253,4.271,4.082l0.619,0.301v7.818h0.375l-0.375-0.012l0,0.017c-0.001,2.399-0.934,4.649-2.634,6.351
		c-1.702,1.701-3.954,2.635-6.354,2.636h-2.305c-2.479,0-4.724-1.008-6.354-2.636c-1.629-1.629-2.636-3.875-2.636-6.354v-7.476
		l0.975-0.112c2.932-0.338,8.48-1.404,12.783-4.899L161.782,121.795z M171.422,136.651l0.281,0.249l2.577-2.906
		c0.609-0.686,0.946-1.564,0.946-2.473c0-0.908-0.338-1.787-0.947-2.473l-3.232-3.638v12.23l0.656-0.739L171.422,136.651h0.375
		v-9.268l1.921,2.163c0.49,0.552,0.758,1.253,0.758,1.975c0,0.722-0.268,1.423-0.757,1.975l-2.577,2.906L171.422,136.651h0.375
		H171.422z M143.074,128.983l-0.259-0.271l-0.419,0.4l-0.017,0.016l-0.027,0.033c-0.555,0.678-0.853,1.501-0.853,2.362
		c-0.001,1.001,0.396,1.948,1.11,2.654l3.151,3.12v-9.304l-2.87,0.647l-0.075,0.072L143.074,128.983l0.082,0.366l1.853-0.418v6.568
		l-1.873-1.855c-0.574-0.57-0.887-1.318-0.887-2.121c0.001-0.689,0.233-1.335,0.684-1.887l0.013-0.015l-0.29-0.237l0.259,0.271
		l0.419-0.4L143.074,128.983l0.082,0.366L143.074,128.983z M157.774,108.262v-0.375c-7.509,0.001-13.615,6.107-13.616,13.615v3.712
		l2.265-0.53l0.11-0.022l-0.072-0.368l0.048,0.372l0.127-0.012c0.079-0.001,2.849-0.02,6.25-0.907
		c3.396-0.888,7.438-2.641,9.994-6.169c0.163-0.226,0.43-0.363,0.708-0.362v-0.375l-0.038,0.373l0.249,0.025l0.038-0.373
		l-0.075,0.367c0.34,0.069,0.607,0.332,0.681,0.663l0.001,0.004l0.001,0.004c0.078,0.307,0.459,1.718,1.359,3.198
		c0.897,1.476,2.331,3.045,4.519,3.562l2.273,0.535v-3.698c-0.001-7.508-6.107-13.614-13.616-13.615h-1.206V108.262v0.375h1.206
		c3.548,0,6.762,1.442,9.093,3.772c2.33,2.331,3.773,5.545,3.773,9.092v2.751l-1.351-0.318c-1.913-0.449-3.208-1.838-4.05-3.222
		c-0.839-1.379-1.207-2.729-1.272-2.991l-0.364,0.091l0.366-0.082c-0.141-0.623-0.635-1.104-1.262-1.233l-0.019-0.004l-0.268-0.027
		l-0.019-0.002h-0.019c-0.521,0-1.01,0.251-1.316,0.673c-2.393,3.314-6.266,5.021-9.576,5.883c-3.305,0.863-6.031,0.883-6.061,0.883
		c-0.062,0-0.127,0.005-0.224,0.018l-0.012,0.002l-0.129,0.025l-0.007,0.001l-1.357,0.318v-2.766c0-3.547,1.442-6.762,3.773-9.092
		c2.331-2.33,5.545-3.772,9.093-3.772V108.262z"/>
	<path style="fill:#B3B3B3;" d="M31.669,175.625c-0.69,0-1.252-0.561-1.252-1.252c0-0.689,0.561-1.25,1.252-1.25h33.409v-7.799
		c0-7.921-6.315-10.267-6.583-10.363l-10.369-4.156l-5.376,5.578c-0.232,0.242-0.545,0.378-0.882,0.383
		c-0.345,0-0.654-0.122-0.891-0.354l-5.65-5.501l-10.288,4.029c-0.672,0.241-6.645,2.605-6.645,10.385v7.799h5.203
		c0.69,0,1.251,0.561,1.251,1.25c0,0.69-0.561,1.252-1.251,1.252h-6.452c-0.69,0-1.252-0.562-1.252-1.253v-9.048
		c0-9.46,7.392-12.41,8.234-12.715l11.246-4.405v-3.011l-0.717-0.43c-2.433-1.455-4.27-3.73-5.173-6.405l-0.309-0.916l-0.963-0.082
		c-3.008-0.256-5.364-2.822-5.364-5.841c0-1.747,0.775-3.392,2.125-4.514l0.532-0.442v-5.062c0-7.88,5.889-14.59,13.698-15.607
		l1.284-0.168V56.011c0-0.69,0.561-1.252,1.251-1.252h28.009c0.69,0,1.252,0.562,1.252,1.252c0,0.689-0.562,1.25-1.252,1.25H42.987
		v48.458l1.304,0.152c7.927,0.925,13.905,7.645,13.905,15.631v5.084l0.527,0.442c1.337,1.122,2.104,2.76,2.104,4.494
		c0,3.037-2.278,5.547-5.298,5.839l-0.95,0.092l-0.305,0.905c-0.902,2.674-2.739,4.95-5.174,6.408l-0.717,0.429v3.018l10.927,4.382
		c0.855,0.312,8.271,3.294,8.271,12.73v9.031c0,0.7-0.561,1.269-1.25,1.269H31.669z M37.874,149.897l3.946,3.846l4.057-4.212
		l0.005-3.324l-1.63,0.17c-0.404,0.042-0.816,0.064-1.224,0.064h-2.303c-0.411,0-0.823-0.021-1.224-0.064l-1.628-0.17V149.897z
		 M45.256,121.795c-4.205,3.421-9.693,4.486-12.59,4.817l-1.307,0.15v7.81c0,5.164,4.202,9.366,9.367,9.366h2.303
		c5.163,0,9.363-4.201,9.363-9.366v-8.053l-0.83-0.403c-1.629-0.792-3.013-2.117-4.114-3.94l-0.877-1.451L45.256,121.795z
		 M54.896,136.651l2.577-2.906c0.549-0.619,0.851-1.408,0.851-2.224c0-0.816-0.303-1.606-0.852-2.224l-2.576-2.901V136.651z
		 M26.553,128.982l-0.422,0.399l-0.013,0.016c-0.504,0.615-0.77,1.35-0.77,2.126c0,0.902,0.354,1.75,0.998,2.388l2.512,2.487v-7.94
		L26.553,128.982z M47.061,116.841l0.251,0.025c0.481,0.098,0.862,0.471,0.97,0.949c0.143,0.569,1.499,5.52,5.6,6.485l1.812,0.426
		v-3.225c0-7.3-5.94-13.24-13.241-13.24h-1.208c-7.301,0-13.24,5.939-13.24,13.24v3.222l1.798-0.404l0.137-0.026l0.168-0.014
		c0.109,0,10.992-0.079,15.941-6.921C46.284,117.034,46.662,116.841,47.061,116.841z"/>
	<path style="fill:#B3B3B3;" d="M31.669,175.625v-0.375c-0.482-0.001-0.876-0.394-0.877-0.877c0.001-0.481,0.394-0.874,0.877-0.875
		h33.784v-8.174c0.003-4.063-1.632-6.742-3.303-8.383c-1.67-1.644-3.363-2.273-3.53-2.333l-0.126,0.353l0.14-0.348l-10.603-4.25
		l-5.551,5.759l-0.001,0.001c-0.164,0.17-0.377,0.263-0.617,0.267l0.006,0.375v-0.375c-0.257-0.002-0.46-0.085-0.629-0.248
		l-0.007-0.007l-5.817-5.663l-10.513,4.117l0.137,0.349l-0.126-0.353c-0.37,0.133-2.08,0.804-3.715,2.454
		c-1.636,1.648-3.182,4.296-3.179,8.284l0,8.174h5.578c0.482,0.001,0.875,0.394,0.876,0.875c-0.001,0.482-0.394,0.876-0.876,0.877
		h-6.452c-0.482-0.001-0.876-0.395-0.877-0.878v-9.048c0.003-4.63,1.796-7.621,3.692-9.526c1.896-1.902,3.907-2.697,4.295-2.837
		l0.005-0.002l11.488-4.499v-3.479l-0.9-0.539l0,0c-2.357-1.409-4.136-3.613-5.01-6.203l-0.309-0.915l-0.079-0.233l-1.208-0.103
		c-2.811-0.237-5.024-2.646-5.021-5.467c0-1.635,0.724-3.173,1.99-4.226l0.532-0.442l0.135-0.112v-5.238
		c-0.001-7.69,5.751-14.243,13.372-15.235l1.61-0.21V56.011c0.001-0.483,0.394-0.876,0.876-0.877h28.009
		c0.483,0.001,0.876,0.394,0.877,0.877c-0.001,0.481-0.394,0.874-0.877,0.875H42.612v49.167l1.635,0.191
		c7.738,0.903,13.574,7.463,13.574,15.258v5.259l0.661,0.554c1.253,1.052,1.97,2.583,1.97,4.206
		c-0.001,2.845-2.13,5.191-4.959,5.466l-0.95,0.092l-0.242,0.023l-0.383,1.135c-0.873,2.589-2.653,4.794-5.011,6.206l-0.717,0.429
		l-0.182,0.109v3.485l11.168,4.478l0.005,0.002c0.395,0.144,2.416,0.948,4.319,2.856c1.903,1.911,3.702,4.904,3.705,9.522v9.031
		c-0.001,0.497-0.398,0.894-0.875,0.894H31.669V175.625V176H66.33c0.902-0.001,1.625-0.741,1.625-1.644v-9.031
		c0.003-4.819-1.906-8.035-3.925-10.052c-2.018-2.02-4.133-2.862-4.593-3.031l-0.129,0.352l0.14-0.348l-10.691-4.287v-2.552
		l0.535-0.32c2.511-1.504,4.407-3.851,5.337-6.61l0.228-0.674l0.709-0.068c3.211-0.309,5.638-2.985,5.637-6.212
		c0-1.845-0.817-3.589-2.238-4.781l-0.393-0.33v-4.909c0-8.176-6.12-15.056-14.237-16.003l-0.972-0.113V57.636h26.384
		c0.898-0.001,1.626-0.727,1.627-1.625c-0.001-0.898-0.729-1.626-1.627-1.627H41.737c-0.898,0.001-1.626,0.729-1.626,1.627v49.388
		l-0.957,0.125c-7.997,1.043-14.024,7.91-14.025,15.979v4.886l-0.397,0.33c-1.435,1.192-2.261,2.945-2.261,4.803
		c0.002,3.217,2.502,5.939,5.708,6.214l0.718,0.061l0.23,0.683c0.932,2.76,2.826,5.106,5.336,6.607l0.535,0.32v2.542L23.99,152.26
		l0.137,0.349l-0.128-0.353c-0.454,0.165-2.56,0.998-4.571,3.012c-2.011,2.011-3.914,5.225-3.911,10.056l0,9.048
		c0.001,0.898,0.728,1.627,1.627,1.628h6.452c0.898-0.001,1.626-0.729,1.626-1.626c-0.001-0.898-0.729-1.625-1.626-1.625h-4.828
		v-7.424c0.003-3.792,1.443-6.216,2.962-7.756c1.519-1.537,3.132-2.169,3.435-2.276l0.005-0.002l10.068-3.943l5.477,5.332l0,0
		c0.306,0.301,0.72,0.462,1.153,0.461h0.003l0.003,0c0.434-0.006,0.847-0.185,1.146-0.498l5.2-5.395l10.141,4.064l0.007,0.002
		c0.102,0.036,1.701,0.628,3.256,2.161c1.554,1.537,3.076,3.991,3.079,7.849v7.424l-33.034,0c-0.898,0.001-1.626,0.728-1.627,1.625
		c0.001,0.898,0.729,1.626,1.627,1.626V175.625z M37.874,149.897l-0.262,0.269l4.217,4.109l4.424-4.592l0.006-3.891l-2.045,0.213
		c-0.391,0.041-0.79,0.062-1.185,0.062h-2.303c-0.398,0-0.797-0.021-1.185-0.062l-0.016-0.002l-2.027-0.211v4.264l0.113,0.11
		L37.874,149.897h0.375v-3.273l1.23,0.128l-0.016-0.002c0.415,0.044,0.84,0.066,1.263,0.066h2.303c0.421,0,0.845-0.022,1.262-0.066
		l1.215-0.127l-0.004,2.756l-3.691,3.831l-3.676-3.582L37.874,149.897h0.375H37.874z M45.256,121.795l-0.237-0.291
		c-4.107,3.347-9.534,4.412-12.396,4.735l-0.027,0.003l-1.613,0.185v8.145c0.001,5.372,4.369,9.74,9.742,9.741h2.303
		c5.371-0.001,9.737-4.369,9.738-9.741v-8.288l-1.041-0.506c-1.555-0.756-2.885-2.023-3.957-3.796l-1.1-1.82l-1.65,1.342
		L45.256,121.795l0.237,0.291l0.981-0.798l0.654,1.082c1.13,1.872,2.568,3.256,4.271,4.083l0.619,0.301v7.818
		c0,2.479-1.007,4.725-2.636,6.354c-1.629,1.629-3.874,2.636-6.352,2.636h-2.303c-2.48,0-4.726-1.008-6.355-2.636
		c-1.629-1.629-2.637-3.875-2.637-6.354v-7.476l0.975-0.112l0.025-0.003l-0.025,0.003c2.933-0.338,8.481-1.404,12.784-4.899
		L45.256,121.795z M54.896,136.651l0.281,0.249l2.577-2.906c0.609-0.686,0.946-1.564,0.946-2.473c0-0.909-0.337-1.787-0.947-2.473
		l-3.232-3.638v12.23l0.656-0.739L54.896,136.651h0.375v-9.268l1.921,2.163c0.49,0.551,0.757,1.252,0.757,1.975
		c0,0.723-0.268,1.424-0.757,1.975l-2.577,2.906L54.896,136.651h0.375H54.896z M26.553,128.982l-0.258-0.273l-0.422,0.399
		l-0.017,0.016l-0.028,0.034l0,0c-0.556,0.677-0.855,1.501-0.854,2.364c-0.001,1.001,0.396,1.948,1.109,2.654l3.151,3.12v-9.309
		l-2.863,0.652l-0.074,0.07L26.553,128.982l0.083,0.366l1.847-0.421v6.571l-1.873-1.855c-0.574-0.569-0.886-1.317-0.887-2.121
		c0.001-0.69,0.234-1.337,0.685-1.888l0.013-0.015l-0.29-0.238l0.258,0.273l0.422-0.399L26.553,128.982l0.083,0.366L26.553,128.982z
		 M47.061,116.841l-0.038,0.373l0.251,0.025l0.038-0.373l-0.075,0.367c0.336,0.068,0.604,0.331,0.679,0.664l0.001,0.004l0.001,0.005
		c0.078,0.307,0.46,1.717,1.359,3.198c0.897,1.476,2.331,3.045,4.519,3.562l2.273,0.535v-3.698
		c-0.001-7.508-6.107-13.614-13.616-13.615h-1.208c-7.508,0.001-13.614,6.107-13.615,13.615v3.69l2.249-0.505l0.112-0.021
		l0.149-0.013l-0.032-0.374v0.375c0.079-0.001,2.849-0.02,6.25-0.907c3.396-0.888,7.438-2.641,9.994-6.169l0,0
		c0.164-0.227,0.432-0.363,0.709-0.363V116.841l-0.038,0.373L47.061,116.841v-0.375c-0.521,0-1.01,0.251-1.316,0.672l0,0
		c-2.393,3.314-6.266,5.021-9.576,5.883c-3.305,0.863-6.03,0.883-6.061,0.883h-0.016l-0.184,0.016l-0.019,0.002l-0.156,0.03
		l-0.006,0.001l-1.346,0.302v-2.753c0-3.547,1.442-6.762,3.772-9.092c2.331-2.33,5.545-3.772,9.093-3.772h1.208
		c3.548,0,6.762,1.442,9.093,3.772c2.33,2.331,3.773,5.545,3.773,9.092v2.751l-1.351-0.318c-1.913-0.449-3.208-1.838-4.05-3.221
		c-0.84-1.379-1.207-2.728-1.272-2.991l-0.364,0.091l0.366-0.082c-0.141-0.623-0.635-1.106-1.261-1.234l-0.018-0.004l-0.27-0.027
		l-0.019-0.002h-0.019V116.841z"/>
</g>
<g>
</g>
<g>
</g>
<g>
</g>
<g>
</g>
<g>
</g>
<g>
</g>
<g>
</g>
<g>
</g>
<g>
</g>
<g>
</g>
<g>
</g>
<g>
</g>
<g>
</g>
<g>
</g>
<g>
</g>
</svg>
