<?xml version="1.0" encoding="iso-8859-1"?>
<!-- Generator: Adobe Illustrator 18.0.0, SVG Export Plug-In . SVG Version: 6.00 Build 0)  -->
<!DOCTYPE svg PUBLIC "-//W3C//DTD SVG 1.1//EN" "http://www.w3.org/Graphics/SVG/1.1/DTD/svg11.dtd">
<svg version="1.1" id="Layer_1" xmlns="http://www.w3.org/2000/svg" xmlns:xlink="http://www.w3.org/1999/xlink" x="0px" y="0px"
	 viewBox="0 0 200 200" style="enable-background:new 0 0 200 200;" xml:space="preserve">
<rect x="234.125" y="71.041" style="fill:#F15A24;" width="3.773" height="3.773"/>
<g>
	<path style="fill:#B3B3B3;" d="M36.364,92.57c-0.691,0-1.254-0.563-1.254-1.254V89.59c0-0.691,0.563-1.254,1.254-1.254
		c0.691,0,1.254,0.563,1.254,1.254v1.726C37.618,92.007,37.056,92.57,36.364,92.57z"/>
	<path style="fill:#B3B3B3;" d="M36.364,92.57v-0.375c-0.483-0.001-0.878-0.396-0.879-0.879V89.59
		c0.001-0.483,0.396-0.878,0.879-0.879c0.483,0.001,0.878,0.396,0.879,0.879v1.726c-0.001,0.483-0.396,0.878-0.879,0.879V92.57
		v0.375c0.899-0.001,1.628-0.73,1.629-1.629V89.59c-0.001-0.899-0.73-1.628-1.629-1.629c-0.899,0.001-1.628,0.73-1.629,1.629v1.726
		c0.001,0.899,0.73,1.628,1.629,1.629V92.57z"/>
	<path style="fill:#B3B3B3;" d="M36.364,84.029c-0.691,0-1.254-0.563-1.254-1.254V81.05c0-0.691,0.563-1.254,1.254-1.254
		c0.691,0,1.254,0.563,1.254,1.254v1.726C37.618,83.466,37.056,84.029,36.364,84.029z"/>
	<path style="fill:#B3B3B3;" d="M36.364,84.029v-0.375c-0.483-0.001-0.878-0.396-0.879-0.879V81.05
		c0.001-0.483,0.396-0.878,0.879-0.879c0.483,0.001,0.878,0.396,0.879,0.879v1.726c-0.001,0.483-0.396,0.878-0.879,0.879V84.029
		v0.375c0.899-0.001,1.628-0.73,1.629-1.629V81.05c-0.001-0.899-0.73-1.628-1.629-1.629c-0.899,0.001-1.628,0.73-1.629,1.629v1.726
		c0.001,0.899,0.73,1.628,1.629,1.629V84.029z"/>
	<path style="fill:#B3B3B3;" d="M163.636,111.663c-0.691,0-1.254-0.563-1.254-1.254v-1.726c0-0.691,0.563-1.253,1.254-1.253
		c0.691,0,1.254,0.562,1.254,1.253v1.726C164.89,111.1,164.327,111.663,163.636,111.663z"/>
	<path style="fill:#B3B3B3;" d="M163.636,111.663v-0.375c-0.483-0.001-0.878-0.396-0.879-0.879v-1.726
		c0.001-0.483,0.395-0.878,0.879-0.878c0.484,0.001,0.878,0.395,0.879,0.878v1.726c-0.001,0.483-0.396,0.878-0.879,0.879V111.663
		v0.375c0.899-0.001,1.628-0.73,1.629-1.629v-1.726c-0.001-0.899-0.73-1.628-1.629-1.628c-0.899,0.001-1.628,0.729-1.629,1.628
		v1.726c0.001,0.899,0.73,1.628,1.629,1.629V111.663z"/>
	<path style="fill:#B3B3B3;" d="M163.636,120.204c-0.691,0-1.254-0.563-1.254-1.254v-1.726c0-0.691,0.563-1.254,1.254-1.254
		c0.691,0,1.254,0.563,1.254,1.254v1.726C164.89,119.641,164.327,120.204,163.636,120.204z"/>
	<path style="fill:#B3B3B3;" d="M163.636,120.204v-0.375c-0.483-0.001-0.878-0.396-0.879-0.879v-1.726
		c0.001-0.483,0.396-0.878,0.879-0.879c0.483,0.001,0.878,0.396,0.879,0.879v1.726c-0.001,0.483-0.396,0.878-0.879,0.879V120.204
		v0.375c0.899-0.001,1.628-0.73,1.629-1.629v-1.726c-0.001-0.899-0.73-1.628-1.629-1.629c-0.899,0.001-1.628,0.73-1.629,1.629v1.726
		c0.001,0.899,0.73,1.628,1.629,1.629V120.204z"/>
	<path style="fill:#B3B3B3;" d="M49.218,177.776c-2.434,0-4.598-1.555-5.384-3.868l-0.405-1.192l-1.19,0.411
		c-0.608,0.21-1.232,0.317-1.853,0.317h-0.179c-3.137,0-5.69-2.552-5.69-5.69v-5.634l-1.599,0.46
		c-0.517,0.149-1.049,0.224-1.583,0.224h-0.179c-3.137,0-5.69-2.553-5.69-5.691v-12.744c-0.004-0.218-0.089-4.788,0.616-9.86
		c0.886-6.375,2.516-10.517,4.984-12.665l0.43-0.374v-9.598H28.68c-0.692,0-1.255-0.563-1.255-1.255v-49.13l-0.157-0.283
		c-0.467-0.842-0.713-1.794-0.713-2.754v-0.177c0-0.645,0.107-1.278,0.318-1.88l0.418-1.194l-1.198-0.406
		c-2.314-0.785-3.869-2.953-3.869-5.393v-0.179c0-2.434,1.554-4.598,3.867-5.383l1.192-0.405l-0.411-1.19
		c-0.211-0.609-0.317-1.233-0.317-1.855v-0.178c0-3.137,2.552-5.69,5.69-5.69h5.641l-0.465-1.602
		c-0.148-0.51-0.223-1.041-0.223-1.58v-0.18c0-3.137,2.552-5.69,5.69-5.69H55.63c0.109-0.002,0.339-0.006,0.691-0.006
		c1.412,0,5.133,0.061,9.17,0.621c6.375,0.885,10.518,2.515,12.668,4.984l0.374,0.43h9.598V28.68c0-0.691,0.563-1.254,1.254-1.254
		h48.564l0.397,0.042l0.441-0.19c0.844-0.473,1.8-0.723,2.765-0.723h0.178c0.645,0,1.277,0.107,1.877,0.319l1.196,0.422l0.407-1.201
		c0.785-2.315,2.953-3.871,5.393-3.871h0.179c2.434,0,4.598,1.554,5.384,3.867l0.406,1.193l1.19-0.412
		c0.607-0.21,1.231-0.317,1.853-0.317h0.179c3.137,0,5.69,2.553,5.69,5.69v5.64l1.602-0.465c0.51-0.148,1.042-0.223,1.58-0.223
		h0.179c3.137,0,5.69,2.553,5.69,5.691v12.743c0.004,0.218,0.089,4.788-0.615,9.86c-0.885,6.374-2.515,10.517-4.985,12.666
		l-0.431,0.374v9.6h2.814c0.691,0,1.254,0.563,1.254,1.254v17.313c0,0.691-0.563,1.254-1.254,1.254
		c-0.691,0-1.254-0.563-1.254-1.254v-5.042h-33.973v25.534l1.794-0.859c0.981-0.47,1.948-1.056,2.956-1.79
		c2.923-2.133,5.604-3.215,7.969-3.215c2.803,0,4.169,1.546,4.226,1.611c1.391,1.718,1.893,3.636,1.474,5.572
		c-0.368,1.705-1.455,3.457-3.231,5.206l-2.179,2.145h18.655c0.295,0,0.584,0.031,0.868,0.075l1.441,0.219v-20.931
		c0-0.691,0.563-1.254,1.254-1.254c0.691,0,1.254,0.563,1.254,1.254v23.235l0.156,0.339c0.468,0.839,0.715,1.791,0.715,2.754v0.179
		c0,0.647-0.107,1.278-0.317,1.876l-0.423,1.197l1.202,0.407c2.315,0.784,3.87,2.951,3.87,5.393v0.179
		c0,2.435-1.554,4.599-3.868,5.384l-1.194,0.405l0.413,1.191c0.21,0.607,0.317,1.231,0.317,1.853v0.179
		c0,3.137-2.553,5.69-5.69,5.69h-5.639l0.466,1.603c0.148,0.509,0.223,1.041,0.223,1.579v0.18c0,3.137-2.553,5.69-5.69,5.69h-12.745
		c-0.108,0.002-0.334,0.006-0.678,0.006c-1.414,0-5.141-0.061-9.182-0.623c-6.375-0.885-10.518-2.515-12.665-4.984l-0.374-0.431
		h-9.598v2.814c0,0.691-0.563,1.254-1.254,1.254H78.673c-0.691,0-1.254-0.563-1.254-1.254c0-0.691,0.563-1.254,1.254-1.254h19.671
		v-33.973H72.808l0.862,1.795c0.472,0.984,1.058,1.95,1.79,2.955c6.01,8.237,1.783,12.04,1.6,12.198
		c-1.334,1.08-2.75,1.617-4.232,1.617c-0.441,0-0.891-0.049-1.337-0.145c-1.705-0.368-3.457-1.455-5.206-3.232L64.14,149.1v18.655
		c0,0.296-0.031,0.584-0.075,0.868l-0.219,1.441h7.029c0.691,0,1.253,0.563,1.253,1.254c0,0.691-0.562,1.254-1.253,1.254h-9.39
		l-0.284,0.158c-0.839,0.467-1.79,0.713-2.751,0.713h-0.18c-0.647,0-1.279-0.107-1.877-0.318l-1.197-0.421l-0.407,1.201
		c-0.784,2.315-2.951,3.871-5.392,3.871H49.218z M44.783,145.056c0.691,0,1.254,0.563,1.254,1.254v15.626l0.019,0.108l0.02,0.211
		v5.501c0,0.2-0.011,0.4-0.032,0.595l-0.007,0.134v3.601c0,1.754,1.428,3.181,3.182,3.181h0.179c1.755,0,3.183-1.427,3.183-3.181
		V146.31c0-0.691,0.562-1.254,1.253-1.254c0.691,0,1.254,0.563,1.254,1.254l-0.003,21.4c0.003,1.799,1.431,3.226,3.185,3.226h0.18
		c1.754,0,3.182-1.427,3.182-3.181l0.002-23.318c-0.037-0.508,0.232-0.984,0.688-1.213c0.177-0.089,0.366-0.134,0.562-0.134
		c0.478,0,0.907,0.264,1.121,0.69c1.286,2.545,4.616,7.549,8.018,8.28c0.281,0.061,0.546,0.091,0.807,0.091
		c0.842,0,1.68-0.314,2.492-0.935l0.123-0.094L75.542,151c1.066-1.338,1.072-4.322-2.109-8.68c-2.151-2.948-2.931-5.345-3.358-7.122
		l-0.033-0.143c-0.181-0.77-0.315-1.506-0.444-2.217c-0.693-3.799-1.291-7.079-8.703-12.692c-0.315-0.239-0.497-0.604-0.497-1
		v-7.276H34.004v10.294c0,0.441-0.236,0.856-0.617,1.082c-4.746,2.808-5.518,16.164-5.414,21.073v12.794
		c0,1.754,1.428,3.182,3.182,3.182h0.179c1.754,0,3.182-1.428,3.182-3.182V146.31c0-0.691,0.563-1.254,1.254-1.254
		c0.691,0,1.254,0.563,1.254,1.254v21.445c0,1.754,1.428,3.181,3.182,3.181h0.179c1.504,0,2.815-1.069,3.117-2.542l0.026-0.125
		v-3.85l0.021-0.216l0.018-0.105v-0.212l-0.018-0.166l-0.021-0.219V146.31C43.529,145.619,44.091,145.056,44.783,145.056z
		 M111.869,165.995h10.295c0.44,0,0.854,0.236,1.079,0.615c0.217,0.365,0.508,0.722,0.868,1.063l0.358,0.339l0.494,0.004
		c0.263,0.002,0.51,0.143,0.642,0.368c0.072,0.124,0.157,0.249,0.245,0.373l0.184,0.256l0.283,0.139
		c4.338,2.131,11.829,2.887,16.925,2.887c0.366,0,0.725-0.004,1.075-0.011l12.795-0.002c1.754,0,3.182-1.428,3.182-3.182v-0.179
		c0-1.754-1.428-3.182-3.182-3.182H146.31c-0.692,0-1.255-0.563-1.255-1.254c0-0.691,0.563-1.254,1.255-1.254h21.444
		c1.755,0,3.183-1.427,3.183-3.181v-0.181c0-1.505-1.069-2.815-2.541-3.116l-0.124-0.025h-3.852l-0.215-0.022l-0.106-0.019h-0.217
		l-0.163,0.018l-0.215,0.023H146.31c-0.691,0-1.254-0.563-1.254-1.255c0-0.691,0.563-1.254,1.254-1.254h15.625l0.108-0.019
		l0.212-0.02h5.501c0.202,0,0.401,0.011,0.598,0.032l0.133,0.007h3.599c1.754,0,3.181-1.427,3.181-3.181v-0.18
		c0-1.755-1.428-3.183-3.182-3.183H146.31c-0.692,0-1.255-0.562-1.255-1.253c0-0.692,0.563-1.256,1.255-1.256l21.487-0.001
		c1.713,0,3.139-1.426,3.139-3.18v-0.179c0-1.754-1.428-3.182-3.183-3.182l-23.328-0.003c-0.564,0-0.99-0.264-1.203-0.687
		c-0.31-0.618-0.06-1.374,0.558-1.685c2.545-1.286,7.548-4.615,8.278-8.018c0.249-1.151-0.027-2.23-0.844-3.298l-0.093-0.122
		l-0.119-0.095c-0.524-0.42-1.265-0.641-2.143-0.641c-1.266,0-3.427,0.477-6.54,2.748c-3.854,2.811-6.715,3.333-9.482,3.837
		c-3.798,0.692-7.077,1.291-12.692,8.702c-0.236,0.311-0.61,0.497-1.001,0.497h-7.276V165.995z M100.853,170.064h8.507v-33.973
		h-8.507V170.064z M62.905,118.522l0.473,0.376c7.279,5.782,7.962,9.526,8.684,13.489l0.188,1.028l1.077,0.168h37.287
		c0.335,0,0.651,0.13,0.888,0.367c0.237,0.237,0.366,0.551,0.366,0.886v2.257h6.652l0.376-0.473
		c5.782-7.28,9.526-7.963,13.489-8.684l1.028-0.187l0.168-1.075V89.383c0-0.691,0.563-1.254,1.254-1.254h2.257v-6.652l-0.473-0.376
		c-7.28-5.783-7.962-9.526-8.684-13.489l-0.187-1.028l-1.077-0.167H89.384c-0.692,0-1.255-0.563-1.255-1.254v-2.257h-6.651
		l-0.376,0.473c-5.781,7.278-9.524,7.961-13.487,8.685l-1.198,0.2v38.352c0,0.691-0.563,1.254-1.254,1.254h-2.257V118.522z
		 M29.935,109.361h33.973v-8.508H29.935V109.361z M136.092,99.147h33.973v-8.508h-33.973V99.147z M29.935,98.344h33.973V72.807
		l-1.795,0.863c-0.985,0.473-1.951,1.058-2.954,1.79c-2.923,2.133-5.604,3.215-7.969,3.215c-2.803,0-4.17-1.546-4.226-1.612
		c-1.39-1.718-1.892-3.635-1.474-5.571c0.368-1.706,1.455-3.457,3.23-5.205l2.179-2.145H32.244c-0.297,0-0.585-0.032-0.87-0.075
		l-1.439-0.217V98.344z M127.169,47.85c-0.844,0-1.682,0.314-2.493,0.935l-0.122,0.093l-0.095,0.119
		c-1.07,1.336-1.078,4.319,2.107,8.683c2.807,3.848,3.33,6.707,3.835,9.474c0.695,3.809,1.293,7.088,8.703,12.701
		c0.311,0.236,0.497,0.61,0.497,1v7.276h26.394V77.836c0-0.441,0.236-0.855,0.616-1.08c4.758-2.814,5.522-16.166,5.415-21.073
		V42.886c0-1.754-1.428-3.182-3.182-3.182h-0.179c-1.755,0-3.183,1.428-3.183,3.182V53.69c0,0.691-0.562,1.254-1.253,1.254
		c-0.691,0-1.254-0.563-1.254-1.254V32.246c0-1.754-1.428-3.182-3.182-3.182h-0.18c-1.505,0-2.815,1.069-3.116,2.543l-0.025,0.124
		v3.851l-0.021,0.218l-0.018,0.105v0.212l0.018,0.165l0.021,0.217V53.69c0,0.691-0.563,1.254-1.254,1.254
		c-0.692,0-1.255-0.563-1.255-1.254V38.063l-0.019-0.108l-0.02-0.21v-5.5c0-0.204,0.012-0.405,0.032-0.603l0.007-0.127v-3.601
		c0-1.754-1.427-3.181-3.181-3.181h-0.179c-1.754,0-3.182,1.427-3.182,3.181V53.69c0,0.691-0.563,1.254-1.254,1.254
		c-0.691,0-1.254-0.563-1.254-1.254l0.003-21.401c-0.003-1.797-1.431-3.224-3.186-3.224h-0.179c-1.754,0-3.182,1.427-3.182,3.181
		l-0.003,23.315c0.038,0.51-0.232,0.986-0.688,1.215c-0.178,0.089-0.367,0.135-0.562,0.135c-0.478,0-0.909-0.265-1.125-0.692
		c-1.285-2.544-4.615-7.547-8.016-8.277C127.693,47.879,127.43,47.85,127.169,47.85z M55.653,61.633
		c0.478,0,0.908,0.265,1.122,0.691c0.31,0.617,0.06,1.373-0.557,1.683c-2.545,1.286-7.55,4.617-8.28,8.017
		c-0.247,1.153,0.029,2.232,0.845,3.298l0.094,0.122l0.12,0.095c0.524,0.419,1.265,0.64,2.142,0.64c1.266,0,3.427-0.477,6.539-2.748
		c3.852-2.811,6.715-3.333,9.483-3.837c3.799-0.693,7.079-1.291,12.691-8.701c0.236-0.311,0.61-0.497,1.001-0.497h7.276V34.003
		H77.836c-0.441,0-0.855-0.236-1.08-0.616c-2.535-4.283-13.751-5.426-19.979-5.426c-0.373,0-0.739,0.004-1.094,0.012H42.886
		c-1.754,0-3.18,1.428-3.18,3.182v0.179c0,1.754,1.427,3.182,3.18,3.182H53.69c0.691,0,1.254,0.563,1.254,1.254
		c0,0.691-0.563,1.254-1.254,1.254H32.246c-1.754,0-3.182,1.428-3.182,3.182v0.178c0,1.502,1.067,2.813,2.539,3.117l0.125,0.026
		h3.852l0.222,0.021l0.105,0.018h0.211l0.161-0.018l0.219-0.021H53.69c0.691,0,1.254,0.563,1.254,1.254
		c0,0.691-0.563,1.254-1.254,1.254H38.072l-0.103,0.017l-0.224,0.024h-5.5c-0.202,0-0.401-0.013-0.598-0.034l-0.133-0.007h-3.599
		c-1.754,0-3.181,1.428-3.181,3.182v0.181c0,1.754,1.427,3.182,3.181,3.182H53.69c0.691,0,1.254,0.563,1.254,1.255
		c0,0.691-0.563,1.254-1.254,1.254l-21.5,0.001c-1.702,0-3.128,1.427-3.128,3.181v0.178c0,1.754,1.428,3.182,3.182,3.182h23.084
		L55.653,61.633z M101.657,63.908h25.535l-0.86-1.794c-0.471-0.982-1.057-1.95-1.79-2.956c-6.011-8.236-1.784-12.039-1.601-12.197
		c1.335-1.081,2.751-1.618,4.233-1.618c0.441,0,0.891,0.049,1.337,0.146c1.71,0.368,3.46,1.455,5.204,3.229l2.146,2.183V32.245
		c0-0.297,0.032-0.585,0.075-0.868l0.22-1.442h-34.498V63.908z M90.638,63.908h8.51V29.935h-8.51V63.908z"/>
	<path style="fill:#B3B3B3;" d="M49.218,177.776v-0.375c-2.273,0-4.294-1.452-5.029-3.614l-0.526-1.549l-1.547,0.534l0,0
		c-0.57,0.197-1.152,0.296-1.731,0.296h-0.179c-1.466,0-2.793-0.595-3.756-1.558c-0.963-0.964-1.559-2.29-1.559-3.756v-6.133
		l-2.078,0.598c-0.483,0.139-0.981,0.209-1.479,0.209h-0.179c-1.466,0-2.793-0.596-3.756-1.559
		c-0.963-0.964-1.559-2.291-1.559-3.757v-12.748l0-0.004c-0.001-0.043-0.005-0.274-0.005-0.659c0-1.464,0.063-5.152,0.618-9.142
		c0.876-6.339,2.508-10.399,4.859-12.434l0.43-0.374l0.129-0.112v-10.144H28.68c-0.484-0.001-0.879-0.396-0.88-0.88V61.388
		l-0.204-0.368c-0.436-0.786-0.666-1.676-0.666-2.572v-0.177c0-0.604,0.1-1.194,0.297-1.756l0.544-1.552l-1.557-0.528l0,0
		c-2.162-0.734-3.615-2.758-3.615-5.038v-0.179c0-2.273,1.451-4.294,3.613-5.028l1.549-0.526l-0.534-1.547l0,0
		c-0.198-0.571-0.297-1.153-0.297-1.732v-0.178c0-1.466,0.595-2.793,1.558-3.756c0.964-0.963,2.29-1.559,3.756-1.559h6.14
		l-0.604-2.082c-0.138-0.476-0.208-0.972-0.208-1.476v-0.18c0-1.466,0.595-2.793,1.558-3.756c0.964-0.963,2.29-1.559,3.756-1.559
		h12.746l0.003,0c0.108-0.002,0.335-0.005,0.684-0.005c1.401,0,5.108,0.061,9.118,0.618c6.339,0.876,10.4,2.508,12.437,4.859
		l0.374,0.43l0.112,0.129h10.143V28.68c0.001-0.483,0.396-0.878,0.879-0.879h48.544l0.377,0.04l0.098,0.01l0.531-0.229l0.018-0.008
		l0.017-0.01c0.787-0.441,1.681-0.675,2.582-0.675h0.178c0.604,0,1.193,0.1,1.753,0.297l1.554,0.548l0.529-1.56l0,0
		c0.734-2.164,2.758-3.616,5.038-3.616h0.179c2.273,0,4.294,1.451,5.029,3.613l0.527,1.55l1.547-0.536
		c0.569-0.197,1.151-0.296,1.73-0.296h0.179c1.466,0,2.793,0.595,3.756,1.559c0.963,0.964,1.559,2.29,1.559,3.756v6.139l2.082-0.604
		c0.476-0.138,0.972-0.208,1.476-0.208h0.179c1.466,0,2.793,0.596,3.756,1.559c0.963,0.964,1.559,2.291,1.559,3.757v12.747l0,0.003
		c0.001,0.044,0.005,0.275,0.005,0.66c0,1.464-0.063,5.152-0.617,9.141c-0.875,6.338-2.508,10.399-4.86,12.435l-0.431,0.374
		l-0.129,0.112v10.145h3.189c0.483,0.001,0.878,0.396,0.879,0.879v17.313c-0.001,0.483-0.396,0.878-0.879,0.879
		c-0.483-0.001-0.878-0.396-0.879-0.879v-5.417h-34.723v26.504l2.331-1.117c1.004-0.481,1.992-1.08,3.015-1.826
		c2.885-2.107,5.5-3.145,7.748-3.143c2.656,0,3.922,1.461,3.943,1.482l0.283-0.246l-0.291,0.236
		c1.028,1.272,1.533,2.628,1.534,4.015c0,0.411-0.045,0.825-0.135,1.242c-0.345,1.607-1.384,3.302-3.128,5.018l-2.831,2.787h19.57
		c0.268,0,0.538,0.029,0.811,0.07l1.873,0.285v-21.367c0.001-0.483,0.396-0.878,0.879-0.879c0.483,0.001,0.878,0.396,0.879,0.879
		v23.317l0.19,0.414l0.006,0.013l0.007,0.013c0.437,0.782,0.668,1.673,0.668,2.571v0.179c0,0.606-0.1,1.194-0.296,1.751
		l-0.549,1.555l1.562,0.529c2.163,0.732,3.615,2.756,3.616,5.038v0.179c0,2.274-1.451,4.295-3.613,5.029l-1.551,0.526l0.537,1.548
		c0.197,0.569,0.296,1.151,0.296,1.73v0.179c0,1.466-0.595,2.793-1.559,3.756c-0.964,0.963-2.29,1.559-3.756,1.559h-6.138
		l0.605,2.082c0.138,0.475,0.208,0.971,0.208,1.475v0.18c0,1.466-0.595,2.792-1.559,3.756c-0.964,0.963-2.29,1.558-3.756,1.558
		h-12.749l-0.003,0c-0.109,0.002-0.33,0.006-0.672,0.006c-1.403,0-5.116-0.061-9.13-0.619c-6.339-0.876-10.4-2.508-12.434-4.858
		l-0.374-0.431l-0.112-0.129h-10.144v3.189c-0.001,0.483-0.396,0.878-0.879,0.879H78.673c-0.483-0.001-0.878-0.396-0.879-0.879
		c0.001-0.483,0.396-0.878,0.879-0.879h20.046v-34.723H72.212l1.12,2.332c0.483,1.006,1.081,1.993,1.825,3.013
		c2.442,3.349,3.142,5.91,3.142,7.755c0,2.63-1.423,3.882-1.484,3.937l0.245,0.284l-0.236-0.291
		c-1.282,1.036-2.606,1.532-3.996,1.534c-0.413,0-0.837-0.046-1.258-0.137c-1.607-0.346-3.302-1.385-5.017-3.128l-2.787-2.831v19.57
		c0,0.27-0.029,0.538-0.07,0.811l-0.285,1.873h7.465c0.483,0.001,0.878,0.395,0.878,0.879c-0.001,0.484-0.395,0.878-0.878,0.879
		h-9.488l-0.369,0.205c-0.783,0.436-1.672,0.666-2.569,0.666h-0.18c-0.606,0-1.195-0.1-1.753-0.297l-1.555-0.548l-0.529,1.561
		c-0.732,2.163-2.757,3.616-5.036,3.616h-0.18V177.776v0.375h0.18c2.602,0,4.912-1.658,5.747-4.126l0.285-0.842l0.838,0.295
		c0.639,0.225,1.313,0.339,2.002,0.339h0.18c1.025,0,2.038-0.263,2.933-0.761l0.199-0.111l9.293,0
		c0.899-0.001,1.628-0.73,1.628-1.629c-0.001-0.899-0.729-1.628-1.628-1.629h-6.593l0.153-1.01c0.045-0.295,0.079-0.602,0.079-0.924
		v-17.739l1.503,1.527c1.782,1.81,3.59,2.944,5.394,3.335c0.471,0.101,0.947,0.153,1.416,0.153c1.575,0.002,3.083-0.577,4.468-1.701
		l0.005-0.004l0.004-0.004c0.154-0.13,1.744-1.585,1.744-4.505c0-2.041-0.778-4.761-3.286-8.197
		c-0.721-0.989-1.293-1.935-1.755-2.896l-0.604-1.257h24.565v33.223H78.673c-0.899,0.001-1.628,0.73-1.629,1.629
		c0.001,0.899,0.73,1.628,1.629,1.629h31.944c0.899-0.001,1.628-0.73,1.629-1.629v-2.439h9.052l0.262,0.302
		c2.261,2.586,6.487,4.214,12.897,5.109c4.068,0.566,7.808,0.626,9.233,0.626c0.347,0,0.577-0.004,0.685-0.006l-0.006-0.375v0.375
		h12.745c3.345-0.001,6.064-2.719,6.065-6.064v-0.18c0-0.574-0.08-1.141-0.238-1.684l-0.326-1.123l5.139,0
		c3.345-0.001,6.064-2.72,6.065-6.065v-0.179c0-0.665-0.114-1.33-0.338-1.976l-0.289-0.834l0.837-0.284
		c2.465-0.837,4.122-3.143,4.122-5.739v-0.179c0-2.603-1.658-4.913-4.125-5.748l-0.842-0.285l0.296-0.839
		c0.225-0.638,0.339-1.312,0.339-2v-0.179c0-1.027-0.263-2.042-0.763-2.937l-0.327,0.183l0.341-0.157l-0.122-0.264v-23.152
		c-0.001-0.899-0.73-1.628-1.629-1.629c-0.899,0.001-1.628,0.73-1.629,1.629v20.495l-1.01-0.153
		c-0.295-0.045-0.603-0.079-0.924-0.079h-17.739l1.527-1.503c1.81-1.782,2.944-3.59,3.335-5.394c0.101-0.467,0.151-0.935,0.151-1.4
		c0.001-1.574-0.582-3.107-1.701-4.487l-0.004-0.005l-0.004-0.005c-0.092-0.109-1.56-1.74-4.509-1.74
		c-2.482,0.002-5.229,1.127-8.19,3.287c-0.992,0.723-1.939,1.296-2.897,1.755l-1.257,0.602v-24.564h33.223l0,4.667
		c0.001,0.899,0.73,1.628,1.629,1.629c0.899-0.001,1.628-0.73,1.629-1.629V89.385c-0.001-0.899-0.73-1.628-1.629-1.629h-2.439
		v-9.054l0.302-0.262c2.587-2.262,4.216-6.488,5.11-12.898c0.561-4.043,0.624-7.758,0.624-9.244c0-0.391-0.004-0.627-0.005-0.675
		l-0.375,0.007h0.375V42.888c-0.001-3.346-2.72-6.066-6.065-6.066h-0.179c-0.573,0-1.14,0.08-1.685,0.238l-1.123,0.326l0-5.141
		c-0.001-3.345-2.72-6.064-6.065-6.065h-0.179c-0.665,0-1.33,0.114-1.976,0.338l-0.834,0.289l-0.284-0.836
		c-0.838-2.464-3.144-4.121-5.739-4.122h-0.179c-2.602,0-4.912,1.658-5.749,4.125l-0.285,0.841l-0.838-0.296
		c-0.641-0.226-1.315-0.34-2.002-0.34h-0.178c-1.03,0-2.049,0.267-2.948,0.771l0.183,0.327l-0.149-0.344l-0.351,0.151l-0.299-0.032
		l-0.02-0.002H89.384c-0.899,0.001-1.628,0.73-1.629,1.629v2.439h-9.052l-0.262-0.301c-2.263-2.586-6.489-4.215-12.899-5.109
		c-4.064-0.565-7.798-0.625-9.221-0.625c-0.354,0-0.587,0.004-0.697,0.006l0.006,0.375v-0.375H42.886
		c-3.345,0.001-6.064,2.72-6.065,6.065v0.18c0,0.574,0.08,1.14,0.238,1.685l0.326,1.123l-5.141,0
		c-3.345,0.001-6.064,2.72-6.065,6.065v0.178c0,0.664,0.114,1.33,0.338,1.977l0,0l0.288,0.834l-0.835,0.284
		c-2.465,0.837-4.122,3.143-4.122,5.738v0.179c0,2.602,1.658,4.912,4.124,5.749l0,0l0.84,0.285l-0.293,0.837
		c-0.225,0.643-0.339,1.318-0.339,2.004v0.177c0,1.025,0.263,2.038,0.76,2.936l0.11,0.198v49.032c0.001,0.9,0.73,1.629,1.63,1.63
		h2.439v9.053l-0.301,0.262c-2.586,2.261-4.214,6.487-5.109,12.897c-0.562,4.044-0.625,7.76-0.625,9.245
		c0,0.39,0.004,0.627,0.005,0.674l0.375-0.007h-0.375v12.744c0.001,3.346,2.72,6.066,6.065,6.066h0.179
		c0.569,0,1.136-0.08,1.687-0.238l1.12-0.322v5.136c0.001,3.345,2.72,6.064,6.065,6.064h0.179c0.664,0,1.33-0.114,1.976-0.337l0,0
		l0.834-0.288l0.284,0.835c0.838,2.465,3.144,4.123,5.739,4.123V177.776z M44.783,145.056v0.375
		c0.483,0.001,0.878,0.396,0.879,0.879v15.659l0.022,0.125l0.017,0.178v5.483c0,0.186-0.01,0.373-0.03,0.555l-0.001,0.01
		l-0.008,0.144l-0.001,0.01v3.611c0.001,1.962,1.595,3.555,3.557,3.556h0.179c1.963-0.001,3.557-1.594,3.558-3.556V146.31
		c0.001-0.484,0.395-0.878,0.878-0.879c0.483,0.001,0.878,0.396,0.879,0.879l-0.003,21.4l0,0.001
		c0.002,2.001,1.597,3.601,3.56,3.601h0.18c1.962-0.001,3.556-1.594,3.557-3.556l0.002-23.332l-0.001-0.014l-0.002-0.066
		c0.001-0.332,0.184-0.633,0.484-0.785l0,0c0.127-0.063,0.256-0.094,0.393-0.094c0.339,0.001,0.634,0.183,0.786,0.483l0,0.001
		c0.657,1.299,1.821,3.203,3.265,4.895c1.447,1.687,3.161,3.178,5.009,3.583c0.304,0.065,0.596,0.099,0.886,0.099
		c0.937,0.001,1.859-0.353,2.72-1.012l0.004-0.003l0.118-0.09l0.038-0.029l0.125-0.158l0.003-0.004l-0.004,0.005
		c0.454-0.571,0.722-1.373,0.722-2.362c-0.003-1.705-0.78-3.974-2.821-6.773c-2.118-2.907-2.875-5.239-3.297-6.989l0.001,0.003
		l-0.033-0.143l0-0.001l0-0.001c-0.178-0.758-0.311-1.487-0.44-2.198c-0.346-1.896-0.679-3.732-1.877-5.787
		c-1.197-2.056-3.24-4.313-6.969-7.136l0,0c-0.223-0.17-0.348-0.421-0.348-0.701v-7.651H33.629v10.669
		c0.001,0.307-0.167,0.602-0.433,0.759l0,0c-1.226,0.729-2.155,2.05-2.892,3.68c-2.199,4.891-2.71,12.726-2.714,16.851
		c0,0.313,0.003,0.605,0.009,0.873l0.375-0.008h-0.375v12.794c0.001,1.962,1.595,3.556,3.557,3.557h0.179
		c1.962-0.001,3.556-1.595,3.557-3.557V146.31c0.001-0.483,0.396-0.878,0.879-0.879c0.483,0.001,0.878,0.396,0.879,0.879v21.445
		c0.001,1.962,1.595,3.555,3.557,3.556h0.179c1.684-0.001,3.145-1.193,3.485-2.841l0.026-0.125l0.008-0.037v-3.87l0.018-0.184
		l0.016-0.091l0.006-0.032v-0.245v-0.02l-0.02-0.186l0,0.003l-0.02-0.201V146.31c0.001-0.483,0.396-0.878,0.879-0.879V145.056
		v-0.375c-0.899,0.001-1.628,0.73-1.629,1.629v17.21l0.023,0.237l0,0.001l0.016,0.148v0.16l-0.013,0.073l-0.002,0.014l-0.022,0.23
		l-0.002,0.018v3.83l-0.018,0.087c-0.265,1.297-1.426,2.243-2.75,2.242h-0.179c-1.547-0.003-2.804-1.26-2.807-2.806V146.31
		c-0.001-0.899-0.73-1.628-1.629-1.629c-0.899,0.001-1.628,0.73-1.629,1.629v10.802c-0.003,1.547-1.261,2.804-2.807,2.807h-0.179
		c-1.547-0.003-2.804-1.261-2.807-2.807v-12.798l0-0.004c-0.006-0.262-0.009-0.549-0.009-0.857c0-2.706,0.233-7.079,1.021-11.08
		c0.393-2,0.926-3.908,1.627-5.462c0.7-1.556,1.571-2.743,2.591-3.343l0,0c0.495-0.295,0.799-0.829,0.8-1.404v-9.919h25.644l0,6.901
		c-0.001,0.511,0.238,0.991,0.645,1.299l0,0c3.683,2.789,5.646,4.979,6.774,6.916c1.127,1.938,1.44,3.642,1.787,5.544
		c0.129,0.711,0.264,1.453,0.448,2.235l0-0.001l0.033,0.143l0,0.001l0.001,0.003c0.433,1.806,1.237,4.266,3.42,7.256
		c1.983,2.715,2.679,4.86,2.677,6.331c0,0.856-0.23,1.482-0.558,1.894l0,0.001l-0.067,0.084l-0.086,0.065l-0.004,0.003l0.004-0.003
		c-0.764,0.583-1.518,0.858-2.264,0.858c-0.233,0-0.469-0.026-0.729-0.082c-1.555-0.326-3.207-1.703-4.596-3.337
		c-1.393-1.63-2.537-3.5-3.166-4.746l0,0.001c-0.276-0.551-0.839-0.898-1.456-0.897c-0.253,0-0.503,0.06-0.73,0.174l0,0
		c-0.554,0.278-0.898,0.842-0.898,1.455l0.004,0.121l0.374-0.027l-0.375,0l-0.002,23.318c-0.003,1.546-1.26,2.803-2.807,2.806h-0.18
		c-1.546,0-2.806-1.255-2.81-2.852l0,0.001l0.003-21.4c-0.001-0.899-0.73-1.628-1.629-1.629c-0.899,0.001-1.628,0.73-1.628,1.629
		v25.776c-0.003,1.546-1.26,2.803-2.808,2.806h-0.179c-1.547-0.003-2.804-1.26-2.807-2.806v-3.591l0.007-0.124l-0.374-0.021
		l0.373,0.04c0.022-0.208,0.034-0.421,0.034-0.635v-5.518l-0.022-0.229l-0.001-0.015l-0.016-0.09l0-15.593
		c-0.001-0.899-0.73-1.628-1.629-1.629V145.056z M111.869,165.995v0.375h10.295c0.306-0.001,0.6,0.167,0.757,0.432
		c0.237,0.4,0.552,0.783,0.933,1.144l0.358,0.339l0.107,0.102l0.642,0.005c0.131,0,0.259,0.074,0.322,0.183l-0.001-0.001
		c0.081,0.138,0.171,0.272,0.263,0.401l0.184,0.257l0.055,0.077l0.368,0.18c4.452,2.179,11.954,2.92,17.09,2.926
		c0.369,0,0.731-0.004,1.083-0.011l-0.008-0.375l0,0.375l12.795-0.002c1.962-0.001,3.556-1.595,3.557-3.557v-0.179
		c-0.001-1.962-1.595-3.556-3.557-3.557H146.31c-0.484-0.001-0.879-0.396-0.88-0.879c0.001-0.483,0.396-0.878,0.88-0.879h21.444
		c1.963-0.001,3.557-1.594,3.558-3.556v-0.181c-0.001-1.684-1.192-3.145-2.841-3.483l-0.125-0.025l-0.037-0.007h-3.87l-0.183-0.019
		l-0.093-0.016l-0.033-0.006h-0.25h-0.021l-0.184,0.021l0.003,0l-0.196,0.021l-17.172,0c-0.483-0.001-0.878-0.396-0.879-0.88
		c0.001-0.483,0.396-0.878,0.879-0.879h15.658l0.125-0.022l0.18-0.017h5.483c0.189,0,0.373,0.01,0.558,0.03l0.01,0.001l0.144,0.007
		l0.009,0h3.609c1.962-0.001,3.555-1.594,3.556-3.556v-0.18c-0.001-1.963-1.595-3.557-3.557-3.558H146.31
		c-0.484-0.001-0.879-0.396-0.88-0.878c0.001-0.485,0.396-0.88,0.88-0.881l21.487-0.001c1.925-0.003,3.512-1.594,3.514-3.555v-0.179
		c-0.001-1.962-1.595-3.556-3.558-3.557l-23.328-0.003c-0.448-0.007-0.715-0.187-0.868-0.48c-0.063-0.126-0.093-0.26-0.093-0.392
		c0-0.324,0.178-0.635,0.484-0.789l0.001,0c1.299-0.657,3.203-1.821,4.894-3.265c1.686-1.447,3.177-3.161,3.581-5.009l0.003-0.012
		l-0.003,0.012c0.064-0.296,0.097-0.591,0.097-0.884c0.001-0.948-0.348-1.859-1.01-2.721l-0.093-0.121l-0.028-0.036l-0.155-0.124
		c-0.611-0.488-1.438-0.723-2.377-0.723c-1.362,0-3.604,0.515-6.761,2.82c-3.803,2.769-6.559,3.263-9.328,3.771
		c-1.896,0.346-3.731,0.678-5.786,1.876c-2.056,1.197-4.313,3.24-7.138,6.968c-0.163,0.216-0.43,0.349-0.702,0.348h-7.651v27.144
		h0.375V165.995h0.375v-26.019h6.901c0.51-0.001,0.991-0.239,1.3-0.645c2.79-3.683,4.98-5.645,6.917-6.773
		c1.938-1.127,3.641-1.44,5.543-1.787c2.765-0.501,5.731-1.049,9.635-3.903c3.068-2.238,5.15-2.675,6.319-2.676
		c0.816,0,1.471,0.207,1.908,0.559l0.084,0.067l0.065,0.085c0.586,0.769,0.854,1.503,0.855,2.266c0,0.237-0.026,0.478-0.08,0.726
		l0,0.001c-0.325,1.554-1.701,3.206-3.335,4.596c-1.629,1.393-3.499,2.537-4.745,3.166l0.001,0
		c-0.569,0.287-0.898,0.863-0.897,1.459c0,0.245,0.056,0.496,0.173,0.729c0.272,0.554,0.858,0.901,1.539,0.894l23.328,0.003
		c1.547,0.003,2.805,1.261,2.808,2.807v0.179c0,0.774-0.314,1.474-0.819,1.983c-0.505,0.509-1.195,0.821-1.946,0.821l-21.487,0.001
		c-0.9,0.001-1.629,0.731-1.63,1.631c0.001,0.9,0.731,1.628,1.63,1.628h25.774c1.546,0.003,2.804,1.261,2.807,2.808v0.18
		c-0.003,1.546-1.26,2.803-2.806,2.806h-3.59l-0.123-0.006l-0.019,0.375l0.04-0.373c-0.211-0.023-0.423-0.035-0.639-0.035h-5.518
		l-0.23,0.022l-0.015,0.001l-0.09,0.016l-15.592,0c-0.899,0.001-1.628,0.73-1.629,1.629c0.001,0.9,0.73,1.629,1.629,1.63h17.211
		l0.235-0.025l0.145-0.016h0.163l0.074,0.013l0.014,0.002l0.229,0.023l0.019,0.002h3.834l0.087,0.018l-0.001,0
		c1.296,0.264,2.242,1.423,2.241,2.749v0.181c-0.003,1.546-1.26,2.803-2.808,2.806H146.31c-0.9,0.001-1.629,0.73-1.63,1.629
		c0.001,0.899,0.731,1.628,1.63,1.629h10.802c1.547,0.003,2.804,1.261,2.807,2.807v0.179c-0.003,1.547-1.261,2.804-2.807,2.807
		l-12.798,0.002l-0.005,0c-0.347,0.007-0.703,0.011-1.067,0.011c-5.056,0.005-12.537-0.765-16.759-2.849l-0.199-0.097l-0.129-0.179
		c-0.084-0.117-0.162-0.234-0.226-0.343l-0.001-0.001c-0.202-0.341-0.567-0.549-0.963-0.552l-0.346-0.003l-0.251-0.238
		c-0.338-0.32-0.608-0.651-0.803-0.982c-0.294-0.494-0.827-0.798-1.402-0.799h-10.295V165.995h0.375H111.869z M100.853,170.064
		v0.375h8.882v-34.723h-9.257v34.723h0.375V170.064h0.375v-33.598h7.757v33.223l-8.132,0V170.064h0.375H100.853z M62.905,118.522
		l-0.233,0.294l0.473,0.376c3.614,2.871,5.565,5.214,6.705,7.312c1.14,2.098,1.482,3.967,1.844,5.951l0.188,1.028l0.048,0.262
		l1.369,0.213h37.317c0.238,0.001,0.455,0.09,0.622,0.257c0.167,0.168,0.256,0.383,0.257,0.621v2.632h7.208l0.489-0.615
		c2.871-3.615,5.214-5.565,7.312-6.705c2.098-1.14,3.967-1.482,5.951-1.843l1.028-0.187l0.262-0.048l0.213-1.368V89.383
		c0.001-0.483,0.396-0.878,0.879-0.879h2.632v-7.208l-0.615-0.489c-3.615-2.871-5.565-5.215-6.705-7.312
		c-1.14-2.098-1.482-3.967-1.843-5.951l-0.187-1.028l-0.048-0.263l-1.369-0.212H89.384c-0.484-0.001-0.879-0.396-0.88-0.879v-2.632
		h-7.207l-0.489,0.615c-2.871,3.613-5.214,5.564-7.311,6.704c-2.098,1.14-3.966,1.483-5.95,1.845l0.067,0.369l-0.062-0.37
		l-1.511,0.252v38.669c-0.001,0.483-0.396,0.878-0.879,0.879H62.53v7.208l0.142,0.113L62.905,118.522h0.375v-6.277l1.882,0
		c0.899-0.001,1.628-0.73,1.629-1.629V72.582l0.884-0.148l0.003-0.001l0.003,0c1.979-0.361,3.963-0.722,6.173-1.924
		c2.21-1.202,4.629-3.232,7.54-6.896l0.264-0.332h6.095v1.882c0.001,0.899,0.731,1.628,1.63,1.629h37.259l0.785,0.122l0.139,0.766
		c0.361,1.979,0.72,3.964,1.922,6.174c1.201,2.211,3.232,4.63,6.897,7.541l0.332,0.264v6.096h-1.882
		c-0.899,0.001-1.628,0.73-1.629,1.629v37.26l-0.122,0.783l-0.766,0.139c-1.979,0.361-3.964,0.72-6.174,1.922
		c-2.211,1.202-4.63,3.232-7.541,6.898l-0.264,0.332h-6.096l0-1.882c0.001-0.432-0.17-0.845-0.476-1.151
		c-0.306-0.307-0.72-0.477-1.153-0.477H73.357l-0.785-0.122l-0.14-0.766c-0.361-1.98-0.721-3.964-1.923-6.175
		c-1.202-2.211-3.232-4.63-6.897-7.541l-0.473-0.376L62.905,118.522h0.375H62.905z M29.935,109.361v0.375h34.348v-9.258H29.56v9.258
		h0.375V109.361h0.375v-8.133h33.223v7.758l-33.598,0V109.361h0.375H29.935z M136.092,99.147v0.375h34.348v-9.258h-34.723v9.258
		h0.375V99.147h0.375v-8.133h33.223v7.758l-33.598,0V99.147h0.375H136.092z M29.935,98.344v0.375h34.348V72.211l-2.333,1.121
		c-1.008,0.484-1.994,1.082-3.013,1.825c-2.885,2.107-5.501,3.145-7.748,3.143c-2.655,0.001-3.925-1.464-3.941-1.481l-0.285,0.243
		l0.292-0.236c-1.028-1.272-1.532-2.629-1.533-4.016c0-0.41,0.044-0.824,0.134-1.24c0.346-1.607,1.385-3.302,3.127-5.017
		l2.831-2.787H32.244c-0.27,0-0.539-0.029-0.814-0.07l-1.87-0.282v35.306h0.375V98.344h0.375v-34.06l1.008,0.152
		c0.294,0.044,0.602,0.079,0.926,0.079h17.738l-1.527,1.503c-1.808,1.782-2.943,3.588-3.334,5.393
		c-0.101,0.466-0.151,0.934-0.151,1.398c-0.001,1.574,0.582,3.108,1.7,4.488l0.003,0.004l0.003,0.004
		c0.096,0.116,1.561,1.743,4.512,1.744c2.482-0.002,5.229-1.127,8.19-3.287c0.988-0.72,1.933-1.293,2.895-1.755l1.258-0.604v24.566
		l-33.598,0V98.344h0.375H29.935z M127.169,47.85v-0.375c-0.939-0.001-1.861,0.353-2.721,1.012l0,0l-0.122,0.093l-0.036,0.028
		l-0.124,0.155c-0.457,0.571-0.726,1.374-0.726,2.365c0.003,1.704,0.781,3.973,2.823,6.773c2.764,3.797,3.26,6.552,3.769,9.32
		c0.347,1.901,0.68,3.739,1.878,5.795c1.197,2.057,3.24,4.314,6.968,7.137c0.217,0.163,0.35,0.43,0.349,0.701v7.651h27.144V77.836
		c-0.001-0.307,0.167-0.602,0.432-0.758c1.225-0.729,2.155-2.047,2.893-3.673c2.2-4.879,2.71-12.69,2.715-16.826
		c0-0.326-0.003-0.629-0.009-0.906l-0.375,0.008h0.375V42.886c-0.001-1.962-1.595-3.556-3.557-3.557h-0.179
		c-1.963,0.001-3.557,1.595-3.558,3.557V53.69c-0.001,0.484-0.395,0.878-0.878,0.879c-0.483-0.001-0.878-0.396-0.879-0.879V32.246
		c-0.001-1.962-1.595-3.556-3.557-3.557h-0.18c-1.684,0.001-3.145,1.193-3.483,2.843l0,0l-0.025,0.124l-0.007,0.037v3.871
		l-0.018,0.187l-0.016,0.092l-0.005,0.031v0.243v0.02l0.02,0.185l0-0.003l0.02,0.199V53.69c-0.001,0.483-0.396,0.878-0.879,0.879
		c-0.484-0.001-0.879-0.396-0.88-0.879V38.03l-0.022-0.126l-0.017-0.178v-5.482c0-0.189,0.011-0.377,0.03-0.564l0.001-0.009
		l0.007-0.136l0.001-0.01v-3.611c-0.001-1.962-1.594-3.555-3.556-3.556h-0.179c-1.962,0.001-3.556,1.594-3.557,3.556V53.69
		c-0.001,0.483-0.396,0.878-0.879,0.879c-0.483-0.001-0.878-0.396-0.879-0.879l0.003-21.401l0-0.001
		c-0.002-1.999-1.597-3.599-3.561-3.599h-0.179c-1.962,0.001-3.556,1.594-3.557,3.556l-0.003,23.329l0.001,0.014l0.002,0.067
		c-0.001,0.333-0.184,0.634-0.485,0.785c-0.128,0.064-0.257,0.094-0.394,0.095c-0.339-0.001-0.636-0.184-0.79-0.487
		c-0.657-1.299-1.82-3.202-3.264-4.893c-1.447-1.686-3.161-3.177-5.008-3.581c-0.303-0.065-0.595-0.098-0.884-0.098V47.85v0.375
		c0.233,0,0.469,0.026,0.727,0.081c1.554,0.325,3.206,1.701,4.596,3.335c1.393,1.629,2.537,3.499,3.165,4.744
		c0.278,0.552,0.841,0.899,1.46,0.898c0.253,0,0.503-0.06,0.73-0.174c0.553-0.278,0.898-0.842,0.898-1.455l-0.005-0.122
		l-0.374,0.028l0.375,0l0.003-23.315c0.003-1.546,1.26-2.803,2.807-2.806h0.179c1.546,0,2.807,1.256,2.811,2.85l0-0.001
		l-0.003,21.401c0.001,0.899,0.73,1.628,1.629,1.629c0.899-0.001,1.628-0.73,1.629-1.629V27.914c0.003-1.546,1.26-2.803,2.807-2.806
		h0.179c1.546,0.003,2.803,1.26,2.806,2.806v3.591l-0.006,0.118l0.374,0.02l-0.373-0.038c-0.021,0.208-0.034,0.421-0.034,0.641
		v5.518l0.022,0.227l0.001,0.014l0.016,0.091l0,15.594c0.001,0.899,0.731,1.628,1.63,1.629c0.899-0.001,1.628-0.73,1.629-1.629
		V36.48l-0.023-0.235l0-0.001l-0.016-0.147v-0.16l0.012-0.073l0.002-0.013l0.023-0.231l0.002-0.018v-3.832l0.018-0.087l0.002-0.008
		l-0.002,0.009c0.264-1.298,1.423-2.244,2.749-2.243h0.18c1.546,0.003,2.804,1.261,2.807,2.807V53.69
		c0.001,0.899,0.73,1.628,1.629,1.629c0.899-0.001,1.628-0.73,1.628-1.629V42.886c0.003-1.546,1.261-2.804,2.808-2.807h0.179
		c1.547,0.003,2.804,1.261,2.807,2.807v12.8l0,0.004c0.006,0.271,0.009,0.569,0.009,0.89c0,2.713-0.233,7.078-1.02,11.069
		c-0.393,1.995-0.926,3.898-1.628,5.447c-0.7,1.552-1.572,2.737-2.592,3.336c-0.495,0.294-0.799,0.828-0.8,1.403v9.919h-25.644
		v-6.901c-0.001-0.51-0.24-0.991-0.646-1.299c-3.682-2.789-5.644-4.978-6.772-6.917c-1.127-1.939-1.44-3.645-1.789-5.552
		c-0.502-2.765-1.051-5.729-3.901-9.627c-1.985-2.716-2.681-4.86-2.678-6.331c0-0.858,0.231-1.484,0.561-1.896l0.067-0.084
		l0.085-0.065l0.009-0.007l-0.008,0.006c0.762-0.582,1.516-0.857,2.265-0.857V47.85z M55.653,61.633v0.375
		c0.339,0.001,0.635,0.184,0.787,0.484c0.064,0.127,0.093,0.26,0.093,0.392c0,0.323-0.178,0.635-0.484,0.788l0,0
		c-1.299,0.657-3.204,1.821-4.895,3.265c-1.687,1.447-3.178,3.161-3.582,5.008c-0.063,0.295-0.096,0.589-0.096,0.881
		c-0.001,0.95,0.348,1.862,1.009,2.724l0.094,0.122l0.028,0.037l0.156,0.124l-0.001,0c0.611,0.487,1.438,0.722,2.376,0.723
		c1.362,0,3.603-0.515,6.76-2.82c3.802-2.768,6.559-3.263,9.329-3.771c1.897-0.346,3.732-0.679,5.787-1.877
		c2.055-1.197,4.312-3.239,7.136-6.967c0.163-0.217,0.431-0.35,0.702-0.349h7.651V33.628H77.836
		c-0.307,0.001-0.602-0.167-0.758-0.432l0,0c-0.695-1.169-1.936-2.074-3.478-2.803c-4.627-2.173-12.115-2.803-16.824-2.807
		c-0.376,0-0.744,0.004-1.102,0.012l0.008,0.375v-0.375H42.886c-1.962,0.001-3.555,1.595-3.555,3.557v0.179
		c0.001,1.962,1.593,3.556,3.555,3.557H53.69c0.483,0.001,0.878,0.396,0.879,0.879c-0.001,0.483-0.396,0.878-0.879,0.879H32.246
		c-1.962,0.001-3.556,1.595-3.557,3.557v0.178c0.001,1.682,1.191,3.143,2.838,3.485l0.001,0l0.125,0.026l0.037,0.008h3.872
		l0.191,0.018l0.091,0.015l0.031,0.005h0.243h0.021l0.18-0.02l0.198-0.019H53.69c0.483,0.001,0.878,0.396,0.879,0.879
		c-0.001,0.483-0.396,0.878-0.879,0.879H38.041l-0.123,0.02l-0.193,0.021l-5.481,0c-0.186,0-0.372-0.012-0.558-0.032l-0.009-0.001
		l-0.143-0.008l-0.01-0.001h-3.61c-1.962,0.001-3.555,1.595-3.556,3.557v0.181c0.001,1.962,1.594,3.556,3.556,3.557H53.69
		c0.483,0.001,0.878,0.395,0.879,0.88c-0.001,0.483-0.396,0.878-0.879,0.879l-21.5,0.001c-1.916,0.003-3.5,1.596-3.503,3.556v0.178
		c0.001,1.962,1.595,3.556,3.557,3.557h23.084h-0.001l0.325,0.001h0.001V61.633l0.001-0.375l-0.325-0.001H32.244
		c-1.547-0.003-2.804-1.261-2.807-2.807v-0.178c0-0.774,0.314-1.475,0.817-1.985c0.504-0.509,1.19-0.821,1.935-0.821l21.5-0.001
		c0.899-0.001,1.628-0.73,1.629-1.629c-0.001-0.9-0.73-1.63-1.629-1.63H27.914c-1.546-0.003-2.803-1.26-2.806-2.807v-0.181
		c0.003-1.547,1.26-2.804,2.806-2.807h3.589l0.123,0.007l0.021-0.374l-0.039,0.373c0.207,0.022,0.419,0.036,0.637,0.036h5.52
		l0.244-0.026l0.011-0.001l0.083-0.014H53.69c0.899-0.001,1.628-0.73,1.629-1.629c-0.001-0.899-0.73-1.628-1.629-1.629H36.48
		l-0.237,0.023l-0.002,0l-0.143,0.016h-0.159l-0.073-0.012l-0.013-0.002l-0.235-0.023l-0.018-0.002h-3.832l-0.088-0.018l0.001,0
		c-1.295-0.266-2.241-1.427-2.239-2.75v-0.178c0.003-1.547,1.261-2.804,2.807-2.807H53.69c0.899-0.001,1.628-0.73,1.629-1.629
		c-0.001-0.899-0.73-1.628-1.629-1.629H42.886c-1.546-0.003-2.802-1.26-2.805-2.807v-0.179c0.003-1.547,1.26-2.804,2.805-2.807h12.8
		l0.004,0c0.353-0.007,0.716-0.012,1.087-0.012c3.091,0,7.436,0.285,11.297,1.099c1.931,0.406,3.741,0.945,5.207,1.637
		c1.468,0.69,2.58,1.535,3.152,2.507l0,0c0.294,0.495,0.828,0.799,1.403,0.8h9.919v25.644l-6.901,0
		c-0.51,0.001-0.991,0.24-1.3,0.646c-2.789,3.682-4.978,5.644-6.915,6.772c-1.937,1.127-3.641,1.44-5.544,1.787
		c-2.766,0.502-5.734,1.05-9.636,3.903c-3.068,2.238-5.149,2.675-6.318,2.676c-0.816,0-1.47-0.207-1.908-0.558l-0.001,0
		l-0.084-0.067l-0.065-0.086c-0.586-0.769-0.854-1.503-0.855-2.268c0-0.236,0.026-0.476,0.079-0.723
		c0.325-1.553,1.701-3.205,3.336-4.595c1.63-1.393,3.5-2.537,4.746-3.166l0,0c0.568-0.287,0.896-0.862,0.896-1.458
		c0-0.245-0.056-0.496-0.173-0.729c-0.276-0.552-0.84-0.898-1.458-0.897h0.001L55.653,61.633z M101.657,63.908v0.375h26.13
		l-1.118-2.331c-0.482-1.005-1.081-1.993-1.826-3.015c-2.443-3.349-3.142-5.91-3.143-7.755c0-2.63,1.423-3.882,1.484-3.937
		l-0.245-0.284l0.236,0.291c1.284-1.037,2.608-1.533,3.997-1.534c0.413,0,0.837,0.046,1.257,0.137
		c1.612,0.346,3.306,1.384,5.016,3.126l2.789,2.837V32.245c0-0.27,0.029-0.538,0.071-0.811l0,0l0.285-1.873h-35.309v34.723h0.375
		V63.908h0.375V30.31l33.687,0l-0.154,1.01l0,0c-0.045,0.294-0.08,0.601-0.08,0.925v17.74l-1.504-1.53
		c-1.778-1.808-3.585-2.942-5.393-3.333c-0.471-0.102-0.947-0.154-1.416-0.154c-1.574-0.002-3.082,0.577-4.469,1.701l-0.005,0.004
		l-0.005,0.004c-0.154,0.13-1.743,1.585-1.743,4.504c0,2.041,0.778,4.761,3.287,8.197c0.722,0.991,1.295,1.937,1.755,2.897
		l0.603,1.257l-24.939,0V63.908h0.375H101.657z M90.638,63.908v0.375h8.884V29.56h-9.259v34.723h0.375V63.908h0.375V30.31h7.76
		v33.223h-8.134V63.908h0.375H90.638z"/>
	<path style="fill:#B3B3B3;" d="M89.591,164.889c-0.691,0-1.254-0.563-1.254-1.254s0.563-1.253,1.254-1.253h1.726
		c0.691,0,1.254,0.562,1.254,1.253s-0.563,1.254-1.254,1.254H89.591z"/>
	<path style="fill:#B3B3B3;" d="M89.591,164.889v-0.375c-0.483-0.001-0.878-0.396-0.879-0.879c0.001-0.483,0.395-0.878,0.879-0.878
		h1.726c0.484,0.001,0.878,0.395,0.879,0.878c-0.001,0.483-0.396,0.878-0.879,0.879h-1.726V164.889v0.375h1.726
		c0.899-0.001,1.628-0.73,1.629-1.629c-0.001-0.899-0.73-1.628-1.629-1.628h-1.726c-0.899,0.001-1.628,0.729-1.629,1.628
		c0.001,0.899,0.73,1.628,1.629,1.629V164.889z"/>
	<path style="fill:#B3B3B3;" d="M81.049,164.889c-0.691,0-1.253-0.563-1.253-1.254s0.562-1.253,1.253-1.253h1.726
		c0.691,0,1.254,0.562,1.254,1.253s-0.563,1.254-1.254,1.254H81.049z"/>
	<path style="fill:#B3B3B3;" d="M81.049,164.889v-0.375c-0.483-0.001-0.878-0.395-0.878-0.879c0.001-0.483,0.395-0.878,0.878-0.878
		h1.726c0.484,0.001,0.878,0.395,0.879,0.878c-0.001,0.483-0.396,0.878-0.879,0.879h-1.726V164.889v0.375h1.726
		c0.899-0.001,1.628-0.73,1.629-1.629c-0.001-0.899-0.73-1.628-1.629-1.628h-1.726c-0.899,0.001-1.628,0.729-1.628,1.628
		c0.001,0.899,0.729,1.628,1.628,1.629V164.889z"/>
	<path style="fill:#B3B3B3;" d="M108.684,37.618c-0.691,0-1.254-0.563-1.254-1.255c0-0.691,0.563-1.254,1.254-1.254h1.726
		c0.691,0,1.254,0.563,1.254,1.254c0,0.692-0.563,1.255-1.254,1.255H108.684z"/>
	<path style="fill:#B3B3B3;" d="M108.684,37.618v-0.375c-0.483-0.001-0.878-0.396-0.879-0.88c0.001-0.483,0.396-0.878,0.879-0.879
		h1.726c0.483,0.001,0.878,0.396,0.879,0.879c-0.001,0.484-0.396,0.879-0.879,0.88h-1.726V37.618v0.375h1.726
		c0.899-0.001,1.628-0.731,1.629-1.63c-0.001-0.899-0.73-1.628-1.629-1.629h-1.726c-0.899,0.001-1.628,0.73-1.629,1.629
		c0.001,0.9,0.73,1.629,1.629,1.63V37.618z"/>
	<path style="fill:#B3B3B3;" d="M117.225,37.618c-0.691,0-1.254-0.563-1.254-1.255c0-0.691,0.563-1.254,1.254-1.254h1.726
		c0.691,0,1.254,0.563,1.254,1.254c0,0.692-0.563,1.255-1.254,1.255H117.225z"/>
	<path style="fill:#B3B3B3;" d="M117.225,37.618v-0.375c-0.483-0.001-0.878-0.396-0.879-0.88c0.001-0.483,0.396-0.878,0.879-0.879
		h1.726c0.483,0.001,0.878,0.396,0.879,0.879c-0.001,0.484-0.396,0.879-0.879,0.88h-1.726V37.618v0.375h1.726
		c0.899-0.001,1.628-0.731,1.629-1.63c-0.001-0.899-0.73-1.628-1.629-1.629h-1.726c-0.899,0.001-1.628,0.73-1.629,1.629
		c0.001,0.9,0.73,1.629,1.629,1.63V37.618z"/>
</g>
</svg>
