<?xml version="1.0" encoding="iso-8859-1"?>
<!-- Generator: Adobe Illustrator 18.0.0, SVG Export Plug-In . SVG Version: 6.00 Build 0)  -->
<!DOCTYPE svg PUBLIC "-//W3C//DTD SVG 1.1//EN" "http://www.w3.org/Graphics/SVG/1.1/DTD/svg11.dtd">
<svg version="1.1" id="Layer_1" xmlns="http://www.w3.org/2000/svg" xmlns:xlink="http://www.w3.org/1999/xlink" x="0px" y="0px"
	 viewBox="0 0 200 200" style="enable-background:new 0 0 200 200;" xml:space="preserve">
<rect x="234.125" y="71.041" style="fill:#F15A24;" width="3.773" height="3.773"/>
<g>
	<g>
		<path style="fill:#B3B3B3;" d="M45.103,176.253c-0.987,0-1.789-0.803-1.789-1.79V20.497c0-0.987,0.802-1.79,1.789-1.79h109.793
			c0.479,0,0.929,0.187,1.267,0.525c0.333,0.334,0.523,0.796,0.523,1.268l-0.274,153.965c-0.002,0.985-0.805,1.787-1.79,1.787
			H45.103z M46.893,172.673h105.942l0.267-150.386H46.893V172.673z"/>
	</g>
	<path style="fill:#B3B3B3;" d="M133.739,165.431c-0.481,0-0.933-0.188-1.271-0.53l-15.07-15.203l-0.652,0.053
		c-0.412,0.034-0.828,0.056-1.248,0.056c-0.426,0-0.847-0.023-1.263-0.057l-0.649-0.054l-15.171,15.21
		c-0.338,0.339-0.789,0.525-1.268,0.525c-0.201,0-0.398-0.034-0.586-0.099c-0.646-0.225-1.113-0.809-1.191-1.488l-0.926-8.063
		l-8.062-0.926c-0.678-0.077-1.261-0.543-1.487-1.187c-0.224-0.643-0.059-1.372,0.422-1.854l15.204-15.243l-0.05-0.644
		c-0.031-0.396-0.053-0.797-0.053-1.202c0-8.315,6.765-15.08,15.08-15.08c8.315,0,15.079,6.765,15.079,15.08
		c0,0.409-0.021,0.813-0.053,1.214l-0.051,0.643l15.1,15.234c0.479,0.483,0.643,1.211,0.418,1.852
		c-0.226,0.643-0.809,1.108-1.485,1.186l-8.062,0.926l-0.926,8.063c-0.077,0.68-0.545,1.264-1.191,1.487
		C134.135,165.399,133.939,165.431,133.739,165.431z M90.464,151.723l5.799,0.665c0.831,0.095,1.479,0.743,1.574,1.574l0.665,5.787
		l11.03-11.057l-1.577-0.916c-2.291-1.33-4.202-3.247-5.525-5.541l-0.916-1.588L90.464,151.723z M128.557,142.254
		c-1.328,2.293-3.241,4.206-5.534,5.533l-1.575,0.912l10.938,11.035l0.663-5.772c0.095-0.831,0.742-1.479,1.574-1.574l5.813-0.667
		l-10.96-11.057L128.557,142.254z M115.498,123.227c-6.341,0-11.5,5.159-11.5,11.501c0,6.341,5.159,11.5,11.5,11.5
		c6.341,0,11.5-5.159,11.5-11.5C126.998,128.386,121.838,123.227,115.498,123.227z"/>
	<path style="fill:#B3B3B3;" d="M61.029,132.491c-0.987,0-1.789-0.803-1.789-1.79s0.802-1.789,1.789-1.789h24.596
		c0.987,0,1.79,0.802,1.79,1.789s-0.803,1.79-1.79,1.79H61.029z"/>
	<path style="fill:#B3B3B3;" d="M87.063,41.453c-0.987,0-1.79-0.802-1.79-1.789c0-0.987,0.803-1.79,1.79-1.79h25.874
		c0.987,0,1.79,0.803,1.79,1.79c0,0.987-0.803,1.789-1.79,1.789H87.063z"/>
	<path style="fill:#B3B3B3;" d="M62.466,54.869c-0.987,0-1.789-0.803-1.789-1.79c0-0.987,0.802-1.789,1.789-1.789h75.067
		c0.987,0,1.789,0.802,1.789,1.789c0,0.987-0.802,1.79-1.789,1.79H62.466z"/>
	<path style="fill:#B3B3B3;" d="M89.778,76.91c-0.987,0-1.79-0.802-1.79-1.789c0-0.988,0.803-1.791,1.79-1.791h33.7
		c0.987,0,1.789,0.803,1.789,1.791c0,0.987-0.802,1.789-1.789,1.789H89.778z"/>
	<path style="fill:#B3B3B3;" d="M76.522,76.91c-0.987,0-1.79-0.802-1.79-1.789c0-0.988,0.803-1.791,1.79-1.791h1.756
		c0.987,0,1.79,0.803,1.79,1.791c0,0.987-0.803,1.789-1.79,1.789H76.522z"/>
	<path style="fill:#B3B3B3;" d="M89.778,89.368c-0.987,0-1.79-0.803-1.79-1.79c0-0.987,0.803-1.79,1.79-1.79h33.7
		c0.987,0,1.789,0.803,1.789,1.79c0,0.987-0.802,1.79-1.789,1.79H89.778z"/>
	<path style="fill:#B3B3B3;" d="M76.522,89.368c-0.987,0-1.79-0.803-1.79-1.79c0-0.987,0.803-1.79,1.79-1.79h1.756
		c0.987,0,1.79,0.803,1.79,1.79c0,0.987-0.803,1.79-1.79,1.79H76.522z"/>
	<path style="fill:#B3B3B3;" d="M89.778,102.145c-0.987,0-1.79-0.803-1.79-1.79s0.803-1.79,1.79-1.79h33.7
		c0.987,0,1.789,0.803,1.789,1.79s-0.802,1.79-1.789,1.79H89.778z"/>
	<path style="fill:#B3B3B3;" d="M76.522,102.145c-0.987,0-1.79-0.803-1.79-1.79s0.803-1.79,1.79-1.79h1.756
		c0.987,0,1.79,0.803,1.79,1.79s-0.803,1.79-1.79,1.79H76.522z"/>
</g>
</svg>
