<?xml version="1.0" encoding="iso-8859-1"?>
<!-- Generator: Adobe Illustrator 18.0.0, SVG Export Plug-In . SVG Version: 6.00 Build 0)  -->
<!DOCTYPE svg PUBLIC "-//W3C//DTD SVG 1.1//EN" "http://www.w3.org/Graphics/SVG/1.1/DTD/svg11.dtd">
<svg version="1.1" id="Layer_1" xmlns="http://www.w3.org/2000/svg" xmlns:xlink="http://www.w3.org/1999/xlink" x="0px" y="0px"
	 viewBox="0 0 200 200" style="enable-background:new 0 0 200 200;" xml:space="preserve">
<rect x="234.125" y="71.041" style="fill:#F15A24;" width="3.773" height="3.773"/>
<g>
	<path style="fill:#B3B3B3;" d="M127.917,185.581c-7.329,0-13.292-5.963-13.292-13.293c0-4.134,1.976-8.101,5.286-10.61l0.495-0.375
		v-3.963H62.485c-0.828,0-1.501-0.674-1.501-1.503c0-0.828,0.673-1.501,1.501-1.501h36.013v-18.905h-3.966l-0.375,0.495
		c-2.509,3.311-6.475,5.288-10.609,5.288c-7.33,0-13.293-5.963-13.293-13.294s5.963-13.295,13.293-13.295
		c4.133,0,8.098,1.977,10.609,5.288l0.375,0.495h3.966v-18.906H78.091c-0.829,0-1.503-0.673-1.503-1.501v-6.306
		c0-0.527,0.282-1.022,0.736-1.293c3.113-1.847,5.047-5.24,5.047-8.853c0-5.674-4.616-10.289-10.291-10.289
		c-5.674,0-10.289,4.615-10.289,10.289c0,3.612,1.935,7.005,5.049,8.854c0.453,0.269,0.735,0.764,0.735,1.292V100
		c0,0.828-0.674,1.501-1.503,1.501H45.665v20.409c0,0.828-0.674,1.501-1.503,1.501h-6.305c-0.528,0-1.023-0.281-1.292-0.734
		c-1.846-3.113-5.239-5.047-8.853-5.047c-5.674,0-10.289,4.616-10.289,10.289s4.616,10.289,10.289,10.289
		c3.612,0,7.004-1.934,8.853-5.047c0.269-0.454,0.764-0.735,1.292-0.735h6.306c0.828,0,1.501,0.674,1.501,1.501v20.408h8.257
		c0.828,0,1.501,0.673,1.501,1.501c0,0.829-0.673,1.503-1.501,1.503h-9.758c-0.829,0-1.503-0.674-1.503-1.503v-20.406h-3.966
		l-0.375,0.495c-2.509,3.311-6.475,5.288-10.609,5.288c-7.33,0-13.293-5.963-13.293-13.294c0-7.33,5.963-13.293,13.293-13.293
		c4.133,0,8.099,1.976,10.609,5.287l0.375,0.495h3.965V44.165c0-0.829,0.674-1.503,1.503-1.503h20.407v-3.966l-0.495-0.375
		c-3.312-2.509-5.288-6.474-5.288-10.609c0-7.33,5.964-13.293,13.295-13.293c7.33,0,13.293,5.963,13.293,13.293
		c0,4.136-1.976,8.101-5.287,10.608l-0.495,0.375v3.966h57.86c0.828,0,1.501,0.673,1.501,1.501c0,0.829-0.673,1.503-1.501,1.503
		h-35.953v18.906h3.966l0.375-0.495c2.51-3.312,6.476-5.288,10.609-5.288c7.329,0,13.292,5.963,13.292,13.293
		c0,7.331-5.963,13.294-13.292,13.294c-4.134,0-8.1-1.977-10.609-5.288l-0.375-0.495h-3.964v18.905h20.407
		c0.828,0,1.501,0.674,1.501,1.503v6.307c0,0.527-0.281,1.021-0.734,1.289c-3.114,1.849-5.048,5.243-5.048,8.856
		c0,5.672,4.615,10.288,10.289,10.288s10.289-4.615,10.289-10.288c0-3.614-1.934-7.007-5.047-8.856
		c-0.453-0.269-0.735-0.763-0.735-1.29V100c0-0.829,0.673-1.503,1.501-1.503h20.409V78.091c0-0.829,0.673-1.503,1.501-1.503h6.305
		c0.528,0,1.023,0.281,1.291,0.734c1.849,3.115,5.241,5.05,8.855,5.05c5.674,0,10.291-4.616,10.291-10.291
		c0-5.674-4.616-10.289-10.291-10.289c-3.613,0-7.006,1.935-8.854,5.049c-0.269,0.453-0.764,0.734-1.292,0.734h-6.305
		c-0.828,0-1.501-0.674-1.501-1.503V45.665h-7.708c-0.828,0-1.501-0.674-1.501-1.503c0-0.828,0.673-1.501,1.501-1.501h9.209
		c0.829,0,1.503,0.673,1.503,1.501v20.409h3.964l0.375-0.495c2.511-3.312,6.477-5.288,10.61-5.288
		c7.33,0,13.293,5.963,13.293,13.293c0,7.331-5.963,13.294-13.293,13.294c-4.135,0-8.101-1.977-10.61-5.288l-0.375-0.495h-3.965
		v76.243c0,0.829-0.674,1.503-1.503,1.503h-20.407v3.966l0.495,0.375c3.312,2.509,5.288,6.475,5.288,10.609
		C141.212,179.618,135.248,185.581,127.917,185.581z M100,132.425c0.829,0,1.503,0.674,1.503,1.501v20.408h20.407
		c0.828,0,1.501,0.673,1.501,1.501v6.307c0,0.527-0.282,1.022-0.735,1.292c-3.112,1.846-5.046,5.238-5.046,8.853
		c0,5.674,4.615,10.289,10.289,10.289c5.675,0,10.291-4.615,10.291-10.289c0-3.612-1.935-7.005-5.049-8.854
		c-0.453-0.269-0.735-0.765-0.735-1.291v-6.307c0-0.828,0.674-1.501,1.503-1.501h20.407v-52.834h-18.906v3.966l0.495,0.375
		c3.31,2.509,5.287,6.476,5.287,10.61c0,7.329-5.963,13.292-13.293,13.292c-7.329,0-13.292-5.963-13.292-13.292
		c0-4.134,1.976-8.101,5.286-10.61l0.495-0.375v-3.966h-18.904v20.407c0,0.829-0.674,1.503-1.503,1.503h-6.306
		c-0.527,0-1.023-0.282-1.293-0.735c-1.849-3.113-5.241-5.048-8.852-5.048c-5.674,0-10.291,4.616-10.291,10.291
		c0,5.674,4.616,10.291,10.291,10.291c3.611,0,7.003-1.934,8.852-5.048c0.269-0.454,0.764-0.735,1.292-0.735H100z M72.082,70.255
		c7.33,0,13.293,5.963,13.293,13.292c0,4.134-1.977,8.1-5.288,10.609l-0.495,0.375v3.966h18.906V78.091
		c0-0.829,0.674-1.503,1.503-1.503h6.306c0.526,0,1.02,0.282,1.29,0.736c1.85,3.114,5.242,5.048,8.855,5.048
		c5.674,0,10.289-4.616,10.289-10.29c0-5.674-4.615-10.291-10.289-10.291c-3.612,0-7.005,1.935-8.854,5.049
		c-0.269,0.453-0.763,0.735-1.29,0.735H100c-0.829,0-1.503-0.674-1.503-1.503V45.665H78.091c-0.829,0-1.503-0.673-1.503-1.501
		v-6.306c0-0.527,0.283-1.022,0.737-1.293c3.112-1.848,5.046-5.241,5.046-8.853c0-5.674-4.616-10.289-10.289-10.289
		c-5.674,0-10.291,4.615-10.291,10.289c0,3.611,1.934,7.004,5.048,8.855c0.454,0.27,0.735,0.764,0.735,1.291v6.305
		c0,0.829-0.674,1.503-1.503,1.503H45.665v52.832h18.905v-3.964l-0.495-0.375c-3.312-2.51-5.288-6.477-5.288-10.61
		C58.787,76.218,64.751,70.255,72.082,70.255z"/>
	<path style="fill:#B3B3B3;" d="M127.917,185.581v-0.397c-3.556,0-6.778-1.446-9.114-3.782c-2.336-2.337-3.781-5.558-3.781-9.115
		c-0.001-4.008,1.919-7.861,5.129-10.295l0.495-0.375l0.157-0.119v-4.557H62.485c-0.607-0.001-1.103-0.497-1.104-1.107
		c0.001-0.608,0.496-1.103,1.104-1.104h36.409v-19.698h-4.56l-0.494,0.652c-2.433,3.211-6.285,5.131-10.293,5.131
		c-3.556,0-6.778-1.446-9.115-3.782c-2.336-2.337-3.781-5.559-3.782-9.116c0-3.557,1.446-6.779,3.782-9.116
		c2.337-2.336,5.558-3.782,9.115-3.782c4.006-0.001,7.859,1.919,10.293,5.131l0.375,0.495l0.119,0.157h4.559v-19.699H78.091
		c-0.609-0.001-1.105-0.497-1.106-1.104v-6.306c-0.001-0.385,0.209-0.754,0.542-0.952c3.233-1.92,5.24-5.439,5.241-9.194
		c-0.001-5.893-4.793-10.685-10.688-10.685c-5.893,0.001-10.685,4.792-10.685,10.685c0.001,3.754,2.008,7.273,5.243,9.195
		c0.332,0.196,0.542,0.564,0.541,0.951V100c-0.001,0.607-0.497,1.103-1.107,1.104H45.269v20.805
		c-0.001,0.608-0.497,1.103-1.106,1.104h-6.305c-0.387,0.001-0.755-0.209-0.951-0.54c-1.919-3.234-5.438-5.24-9.194-5.241
		c-5.893,0.001-10.685,4.793-10.686,10.686c0.001,5.893,4.793,10.685,10.686,10.686c3.754-0.001,7.272-2.007,9.194-5.241
		c0.196-0.333,0.565-0.542,0.951-0.541h6.306c0.608,0.001,1.104,0.497,1.105,1.105v20.804h8.654
		c0.608,0.001,1.103,0.496,1.104,1.104c-0.001,0.61-0.497,1.106-1.104,1.107h-9.758c-0.609-0.001-1.105-0.497-1.106-1.107v-20.803
		h-4.56l-0.494,0.652c-2.433,3.211-6.285,5.131-10.292,5.131c-3.556,0-6.778-1.446-9.115-3.782
		c-2.336-2.337-3.781-5.559-3.782-9.116c0-3.556,1.446-6.778,3.782-9.115c2.337-2.336,5.558-3.781,9.115-3.782
		c4.006-0.001,7.859,1.919,10.293,5.13l0.375,0.495l0.119,0.157h4.559V44.165c0.001-0.609,0.497-1.105,1.106-1.106h20.803v-4.56
		l-0.652-0.494c-3.212-2.433-5.132-6.285-5.131-10.292c0-3.556,1.446-6.778,3.782-9.115c2.337-2.336,5.559-3.781,9.116-3.782
		c3.556,0,6.778,1.446,9.115,3.782c2.336,2.337,3.781,5.558,3.782,9.115c0.001,4.009-1.919,7.862-5.129,10.292l0,0l-0.495,0.375
		l-0.157,0.119v4.56h58.257c0.608,0.001,1.103,0.496,1.104,1.104c-0.001,0.609-0.497,1.105-1.104,1.106h-36.349v19.699h4.56
		l0.494-0.652c2.433-3.212,6.287-5.132,10.293-5.131c3.556,0,6.778,1.446,9.114,3.782c2.336,2.337,3.781,5.558,3.781,9.115
		c0,3.557-1.446,6.779-3.781,9.116c-2.337,2.336-5.558,3.782-9.114,3.782c-4.007,0.001-7.86-1.919-10.293-5.131l-0.375-0.495
		l-0.119-0.157h-4.558v19.698h20.803c0.608,0.001,1.103,0.497,1.104,1.106v6.307c0.001,0.385-0.209,0.753-0.539,0.948
		c-3.235,1.922-5.242,5.442-5.242,9.198c0.001,5.892,4.792,10.683,10.685,10.684c5.893-0.001,10.685-4.792,10.686-10.684
		c-0.001-3.756-2.007-7.275-5.241-9.197c-0.332-0.196-0.542-0.564-0.541-0.949V100c0.001-0.609,0.497-1.105,1.104-1.106h20.805
		V78.091c0.001-0.609,0.497-1.105,1.104-1.106h6.305c0.387-0.001,0.755,0.209,0.95,0.54c1.921,3.236,5.44,5.243,9.196,5.244
		c5.894-0.001,10.686-4.793,10.687-10.688c-0.001-5.893-4.793-10.685-10.687-10.686c-3.755,0.001-7.274,2.008-9.195,5.243
		c-0.195,0.331-0.564,0.541-0.951,0.54h-6.305c-0.608-0.001-1.103-0.497-1.104-1.106V45.269h-8.104
		c-0.608-0.001-1.103-0.497-1.104-1.106c0.001-0.608,0.496-1.103,1.104-1.104h9.209c0.609,0.001,1.105,0.497,1.106,1.104v20.805
		h4.558l0.494-0.652c2.435-3.212,6.288-5.132,10.295-5.132c3.556,0,6.778,1.446,9.115,3.782c2.336,2.337,3.781,5.558,3.782,9.115
		c0,3.557-1.446,6.779-3.782,9.116c-2.337,2.336-5.558,3.782-9.115,3.782c-4.008,0.001-7.862-1.919-10.294-5.131l-0.375-0.495
		l-0.119-0.157h-4.558v76.64c-0.001,0.609-0.497,1.106-1.106,1.107h-20.803v4.56l0.652,0.494c3.212,2.433,5.132,6.285,5.131,10.293
		c0,3.556-1.446,6.778-3.782,9.115c-2.337,2.336-5.559,3.781-9.116,3.782V185.581v0.396c7.55-0.001,13.69-6.14,13.691-13.689
		c-0.001-4.26-2.034-8.339-5.446-10.925l-0.338-0.256v-3.372h20.01c1.049-0.001,1.898-0.851,1.899-1.9V79.989h3.371l0.256,0.338
		c2.585,3.411,6.665,5.444,10.927,5.445c7.55-0.001,13.689-6.14,13.689-13.691c-0.001-7.55-6.14-13.689-13.689-13.689
		c-4.26,0.001-8.339,2.034-10.926,5.445l-0.256,0.338h-3.371l0-20.012c-0.001-1.048-0.851-1.897-1.899-1.897h-9.209
		c-1.047,0.001-1.897,0.85-1.897,1.897c0.001,1.048,0.85,1.898,1.897,1.899h7.311l0,20.01c0.001,1.048,0.85,1.898,1.897,1.899h6.305
		c0.67-0.001,1.291-0.354,1.633-0.928c1.775-2.993,5.042-4.856,8.513-4.855c2.728,0,5.2,1.109,6.993,2.901
		c1.792,1.793,2.901,4.264,2.901,6.992c0,2.729-1.109,5.2-2.901,6.993c-1.793,1.793-4.264,2.901-6.993,2.901
		c-3.471,0.001-6.738-1.862-8.514-4.856c-0.342-0.575-0.963-0.928-1.632-0.928h-6.305c-1.048,0.001-1.897,0.851-1.897,1.899v20.01
		h-20.012c-1.048,0.001-1.897,0.851-1.897,1.899v6.307c0.001,0.668,0.354,1.289,0.929,1.631c2.991,1.776,4.853,5.043,4.852,8.515
		c0,2.727-1.109,5.198-2.901,6.991c-1.793,1.792-4.264,2.9-6.992,2.901c-2.728,0-5.199-1.109-6.992-2.901
		c-1.792-1.793-2.901-4.263-2.901-6.991c-0.001-3.472,1.861-6.739,4.854-8.515c0.574-0.341,0.927-0.962,0.928-1.63V100
		c-0.001-1.048-0.85-1.898-1.897-1.899h-20.01V79.989h3.37l0.256,0.338c2.586,3.411,6.665,5.444,10.925,5.445
		c7.549-0.001,13.688-6.14,13.689-13.691c-0.001-7.55-6.14-13.689-13.689-13.689c-4.26,0.001-8.339,2.034-10.925,5.445l-0.256,0.338
		h-3.372V46.062l35.556,0c1.048-0.001,1.897-0.851,1.897-1.899c-0.001-1.047-0.85-1.897-1.897-1.897H79.99v-3.373l0.338-0.256l0,0
		c3.41-2.583,5.443-6.662,5.444-10.924c-0.001-7.55-6.14-13.689-13.689-13.689c-7.55,0.001-13.69,6.14-13.691,13.689
		c0.001,4.261,2.035,8.339,5.445,10.925l0.338,0.256v3.373h-20.01c-1.048,0.001-1.899,0.851-1.899,1.899v75.846l-3.372,0
		l-0.256-0.338c-2.586-3.41-6.665-5.443-10.925-5.444c-7.55,0.001-13.689,6.14-13.689,13.689c0.001,7.55,6.14,13.69,13.689,13.691
		c4.26-0.001,8.339-2.034,10.925-5.445l0.256-0.338h3.372v20.01c0.001,1.048,0.85,1.899,1.899,1.9h9.758
		c1.048-0.001,1.897-0.852,1.897-1.9c-0.001-1.047-0.85-1.897-1.897-1.897h-7.861l0-20.011c-0.001-1.047-0.85-1.897-1.898-1.898
		h-6.306c-0.669,0.001-1.291,0.354-1.633,0.93c-1.776,2.991-5.042,4.853-8.512,4.852c-2.728,0-5.199-1.109-6.992-2.901
		c-1.792-1.793-2.901-4.264-2.901-6.992c0-2.728,1.109-5.199,2.901-6.992c1.793-1.792,4.264-2.901,6.992-2.901
		c3.472-0.001,6.739,1.861,8.512,4.853c0.343,0.575,0.964,0.928,1.633,0.928h6.305c1.048-0.001,1.898-0.85,1.899-1.897v-20.012
		h20.01c1.048-0.001,1.899-0.849,1.9-1.897v-6.306c-0.001-0.669-0.354-1.291-0.929-1.633c-2.993-1.776-4.855-5.043-4.854-8.513
		c0-2.728,1.109-5.199,2.901-6.992c1.793-1.792,4.263-2.901,6.992-2.901c2.729,0,5.2,1.109,6.993,2.901
		c1.793,1.793,2.901,4.263,2.901,6.992c0.001,3.471-1.862,6.738-4.853,8.512c-0.575,0.343-0.929,0.964-0.93,1.634V100
		c0.001,1.048,0.851,1.897,1.899,1.897h20.01v18.113h-3.372l-0.256-0.338c-2.586-3.411-6.665-5.445-10.925-5.445
		c-7.55,0.001-13.689,6.141-13.689,13.691c0.001,7.55,6.14,13.69,13.689,13.691c4.26-0.001,8.339-2.034,10.925-5.445l0.256-0.338
		h3.373v18.112H62.485c-1.047,0.001-1.897,0.85-1.897,1.897c0.001,1.048,0.849,1.899,1.897,1.9h57.525v3.37l-0.338,0.256
		c-3.409,2.586-5.442,6.665-5.443,10.926c0.001,7.55,6.14,13.689,13.689,13.689V185.581z M100,132.425v0.397
		c0.609,0.001,1.105,0.497,1.106,1.105v20.804h20.803c0.608,0.001,1.103,0.496,1.104,1.104v6.307
		c0.001,0.385-0.209,0.755-0.542,0.951c-3.233,1.918-5.239,5.437-5.24,9.194c0.001,5.893,4.792,10.685,10.685,10.685
		c5.894-0.001,10.687-4.792,10.688-10.685c-0.001-3.754-2.008-7.273-5.243-9.195c-0.331-0.196-0.542-0.566-0.541-0.951v-6.307
		c0.001-0.608,0.497-1.103,1.106-1.104h20.803v-53.627h-19.699v4.56l0.652,0.494c3.211,2.433,5.13,6.286,5.129,10.294
		c0,3.556-1.446,6.778-3.782,9.114c-2.337,2.336-5.558,3.781-9.115,3.781c-3.556,0-6.778-1.446-9.114-3.781
		c-2.336-2.337-3.781-5.558-3.781-9.114c-0.001-4.008,1.919-7.862,5.129-10.294l0.495-0.375l0.157-0.119v-4.559h-19.697v20.803
		c-0.001,0.609-0.497,1.105-1.106,1.106h-6.306c-0.386,0.001-0.755-0.209-0.952-0.542c-1.921-3.234-5.439-5.241-9.192-5.242
		c-5.894,0.001-10.686,4.793-10.687,10.688c0.001,5.894,4.793,10.686,10.687,10.687c3.753-0.001,7.271-2.007,9.193-5.242
		c0.196-0.333,0.564-0.542,0.951-0.541H100V132.425v-0.397h-6.306c-0.669,0.001-1.291,0.354-1.633,0.93
		c-1.776,2.993-5.042,4.854-8.511,4.854c-2.728,0-5.2-1.109-6.993-2.901c-1.792-1.793-2.901-4.264-2.901-6.993
		c0-2.729,1.109-5.2,2.901-6.993c1.793-1.793,4.264-2.901,6.993-2.901c3.469-0.001,6.735,1.862,8.511,4.854
		c0.343,0.575,0.965,0.929,1.634,0.93H100c1.048-0.001,1.898-0.851,1.899-1.899v-20.01h18.11v3.372l-0.338,0.256
		c-3.409,2.585-5.442,6.665-5.443,10.926c0.001,7.549,6.14,13.688,13.689,13.689c7.55-0.001,13.689-6.14,13.689-13.689
		c-0.001-4.262-2.034-8.341-5.444-10.926l-0.338-0.256v-3.373h18.113v52.041h-20.01c-1.048,0.001-1.898,0.85-1.899,1.897v6.307
		c0.001,0.669,0.354,1.29,0.929,1.632c2.993,1.777,4.855,5.043,4.855,8.513c0,2.728-1.109,5.199-2.901,6.992
		c-1.793,1.792-4.265,2.901-6.993,2.901c-2.728,0-5.199-1.109-6.992-2.901c-1.792-1.793-2.901-4.263-2.901-6.992
		c-0.001-3.473,1.861-6.74,4.852-8.512c0.575-0.343,0.929-0.964,0.93-1.633v-6.307c-0.001-1.047-0.85-1.897-1.897-1.897h-20.01
		v-20.011c-0.001-1.048-0.851-1.897-1.899-1.898V132.425z M72.082,70.255v0.397c3.556,0,6.778,1.446,9.115,3.781
		c2.336,2.337,3.781,5.558,3.782,9.114c0.001,4.008-1.919,7.86-5.131,10.293l-0.495,0.375l-0.157,0.119v4.56h19.699V78.091
		c0.001-0.609,0.497-1.105,1.106-1.106h6.306c0.384-0.001,0.752,0.209,0.949,0.542l0.005,0.009l-0.005-0.009
		c1.923,3.235,5.441,5.241,9.195,5.242c5.893-0.001,10.685-4.793,10.685-10.687c-0.001-5.894-4.792-10.686-10.685-10.687
		c-3.754,0.001-7.273,2.008-9.195,5.243l0,0c-0.196,0.332-0.563,0.541-0.949,0.54H100c-0.609-0.001-1.105-0.497-1.106-1.106V45.269
		H78.091c-0.609-0.001-1.105-0.497-1.106-1.104v-6.306c-0.001-0.384,0.21-0.754,0.543-0.952l0,0c3.233-1.921,5.239-5.44,5.24-9.194
		c-0.001-5.893-4.793-10.685-10.686-10.685c-5.894,0.001-10.686,4.792-10.687,10.685c0.001,3.753,2.007,7.272,5.242,9.196
		c0.333,0.197,0.542,0.564,0.542,0.95v6.305c-0.001,0.609-0.497,1.105-1.107,1.106H45.269v53.625h19.698v-4.558l-0.652-0.494
		c-3.212-2.434-5.132-6.287-5.132-10.295c0-3.556,1.446-6.778,3.782-9.114c2.337-2.336,5.559-3.781,9.116-3.781V70.255v-0.397
		c-7.55,0.001-13.69,6.14-13.691,13.689c0.001,4.26,2.034,8.34,5.445,10.926l0.338,0.256v3.371H46.062V46.062h20.01
		c1.048-0.001,1.899-0.85,1.9-1.899v-6.305c-0.001-0.669-0.354-1.289-0.929-1.632c-2.993-1.778-4.855-5.045-4.854-8.514
		c0-2.728,1.109-5.199,2.901-6.992c1.793-1.792,4.264-2.901,6.993-2.901c2.728,0,5.199,1.109,6.992,2.901
		c1.792,1.793,2.901,4.263,2.901,6.992c0.001,3.47-1.861,6.737-4.852,8.512l0,0c-0.575,0.343-0.93,0.964-0.931,1.633v6.306
		c0.001,1.048,0.851,1.897,1.899,1.897h20.01v20.01c0.001,1.048,0.851,1.898,1.899,1.899h6.306c0.669-0.001,1.29-0.354,1.631-0.929
		l0,0c1.777-2.993,5.043-4.855,8.513-4.855c2.728,0,5.199,1.109,6.992,2.901c1.792,1.793,2.901,4.264,2.901,6.993
		c0,2.728-1.109,5.2-2.901,6.992c-1.793,1.792-4.263,2.901-6.992,2.901c-3.47,0.001-6.737-1.861-8.514-4.854l0,0
		c-0.342-0.575-0.962-0.93-1.631-0.93H100c-1.048,0.001-1.899,0.851-1.899,1.899v20.01H79.988v-3.373l0.338-0.256
		c3.411-2.585,5.445-6.664,5.446-10.925c-0.001-7.549-6.14-13.688-13.689-13.689V70.255z"/>
</g>
</svg>
