<?xml version="1.0" encoding="iso-8859-1"?>
<!-- Generator: Adobe Illustrator 18.0.0, SVG Export Plug-In . SVG Version: 6.00 Build 0)  -->
<!DOCTYPE svg PUBLIC "-//W3C//DTD SVG 1.1//EN" "http://www.w3.org/Graphics/SVG/1.1/DTD/svg11.dtd">
<svg version="1.1" id="Layer_1" xmlns="http://www.w3.org/2000/svg" xmlns:xlink="http://www.w3.org/1999/xlink" x="0px" y="0px"
	 viewBox="0 0 200 200" style="enable-background:new 0 0 200 200;" xml:space="preserve">
<rect x="234.125" y="71.041" style="fill:#F15A24;" width="3.773" height="3.773"/>
<g>
	<path style="fill:#B3B3B3;" d="M143.526,177.174c-8.355,0-16.524-3.376-22.412-9.262c-0.302-0.302-0.604-0.617-0.898-0.936
		c-0.511-0.555-0.477-1.423,0.078-1.935c0.253-0.234,0.583-0.362,0.928-0.362c0.388,0,0.746,0.156,1.009,0.441
		c0.268,0.29,0.545,0.578,0.819,0.853c5.38,5.379,12.841,8.463,20.472,8.463c2.146,0,4.293-0.24,6.382-0.713l1.919-0.434
		l-15.623-15.62c-0.307-0.308-0.45-0.749-0.383-1.18l2.845-18.208c0.092-0.584,0.545-1.042,1.126-1.139l18.469-3.105l0.228-0.019
		c0.366,0,0.71,0.142,0.969,0.4l13.042,13.044l-0.077-2.727c-0.211-7.444-3.214-14.429-8.455-19.671
		c-5.468-5.468-12.717-8.479-20.414-8.479c-2.997,0-5.976,0.466-8.854,1.384c-0.102,0.032-0.217,0.052-0.338,0.058l-0.148,0.007
		l-0.14,0.047c-7.398,2.477-13.542,7.966-16.858,15.059l-0.081,0.172l-0.017,0.189c-0.014,0.149-0.049,0.289-0.105,0.415
		c-3.464,7.919-3.168,17.221,0.79,24.884c0.168,0.325,0.2,0.696,0.088,1.045c-0.111,0.349-0.351,0.633-0.676,0.801
		c-0.196,0.101-0.407,0.152-0.626,0.152c-0.516,0-0.984-0.284-1.22-0.741c-3.463-6.704-4.422-14.423-2.702-21.735l0.035-0.15
		l-0.008-0.154c-0.007-0.14,0.006-0.278,0.039-0.408c0.276-1.106,0.631-2.24,1.055-3.373l0.245-0.654L65.449,85.004l-0.603,0.159
		c-2.6,0.687-5.292,1.036-8.003,1.036l-0.261-0.026l-0.099-0.019h-0.101c-8.399-0.016-16.312-3.312-22.282-9.281
		c-7.157-7.157-10.475-17.405-8.874-27.414c0.082-0.512,0.437-0.928,0.928-1.086c0.139-0.045,0.281-0.068,0.424-0.068
		c0.365,0,0.709,0.142,0.968,0.402l14.44,14.439l16.797-2.824l2.587-16.545L44.738,27.143c-0.331-0.33-0.469-0.799-0.371-1.255
		c0.097-0.457,0.416-0.827,0.852-0.993c3.609-1.373,7.396-2.07,11.257-2.07c8.356,0,16.524,3.376,22.41,9.262
		c0.828,0.83,1.617,1.71,2.343,2.616c0.229,0.286,0.333,0.643,0.292,1.007c-0.04,0.363-0.219,0.689-0.504,0.917
		c-0.247,0.198-0.542,0.302-0.854,0.302c-0.419,0-0.809-0.188-1.072-0.514c-0.67-0.835-1.391-1.639-2.144-2.392
		c-5.375-5.377-12.836-8.461-20.469-8.461c-2.145,0-4.293,0.24-6.382,0.713l-1.919,0.434L63.8,42.332
		c0.308,0.309,0.452,0.75,0.385,1.181L61.339,61.72c-0.091,0.583-0.544,1.041-1.127,1.14l-18.468,3.106l-0.224,0.019
		c-0.367,0-0.711-0.142-0.969-0.401L27.505,52.538l0.077,2.726c0.211,7.446,3.214,14.432,8.455,19.672
		c5.467,5.468,12.717,8.479,20.414,8.479c2.996,0,5.974-0.465,8.852-1.382c0.126-0.04,0.265-0.06,0.416-0.06h0.181l0.205-0.059
		c7.32-2.51,13.401-7.979,16.682-15.004l0.084-0.18l0.015-0.198c0.013-0.165,0.048-0.316,0.106-0.448
		c3.266-7.466,3.231-16.007-0.094-23.436c-0.308-0.689,0.003-1.5,0.692-1.809c0.178-0.08,0.365-0.12,0.557-0.12
		c0.54,0,1.031,0.318,1.252,0.811c1.81,4.045,2.737,8.357,2.754,12.814l0.001,0.108l0.021,0.105l0.029,0.282
		c0,3.76-0.663,7.442-1.97,10.943l-0.244,0.653l48.669,48.672l0.606-0.164c2.71-0.73,5.499-1.101,8.288-1.101
		c8.422,0,16.358,3.297,22.345,9.283c7.156,7.157,10.474,17.405,8.874,27.415c-0.083,0.51-0.439,0.926-0.93,1.085
		c-0.139,0.046-0.281,0.068-0.425,0.068c-0.365,0-0.709-0.142-0.968-0.401l-14.438-14.44l-16.799,2.826l-2.587,16.545l16.634,16.633
		c0.33,0.33,0.468,0.799,0.371,1.255c-0.098,0.456-0.417,0.827-0.852,0.993C151.174,176.478,147.388,177.174,143.526,177.174z
		 M84.093,70.35c-3.258,5.701-8.336,10.335-14.3,13.049l-1.424,0.648l46.854,46.857l0.706-1.23c3.272-5.702,8.358-10.33,14.32-13.03
		l1.428-0.647L84.798,69.117L84.093,70.35z"/>
	<path style="fill:#B3B3B3;" d="M143.526,177.174v-0.375c-8.254,0.001-16.332-3.338-22.147-9.152
		c-0.298-0.298-0.597-0.609-0.888-0.925c-0.176-0.191-0.262-0.431-0.263-0.674c0-0.27,0.107-0.535,0.319-0.731
		c0.184-0.17,0.422-0.263,0.674-0.263c0.287,0.001,0.539,0.111,0.733,0.32c0.271,0.294,0.552,0.585,0.829,0.863
		c5.452,5.45,13.004,8.572,20.736,8.573h0.001v-0.352l-0.015,0.351l0.015,0v-0.352l-0.015,0.351l0.008,0h0.008
		c2.174,0,4.348-0.243,6.465-0.722l2.582-0.584l-16.104-16.101c-0.185-0.185-0.29-0.442-0.289-0.704l0.012-0.153l2.845-18.208
		c0.067-0.425,0.396-0.757,0.817-0.827l18.454-3.102l0.213-0.018l-0.031-0.374v0.375c0.269,0.001,0.514,0.102,0.704,0.291
		l13.709,13.711l-0.104-3.67c-0.214-7.538-3.256-14.617-8.565-19.925c-5.536-5.537-12.884-8.59-20.679-8.589
		c-3.036,0-6.054,0.472-8.968,1.401l0.002-0.001c-0.068,0.021-0.154,0.037-0.246,0.042l-0.147,0.007l-0.052,0.003l-0.189,0.064
		c-7.496,2.51-13.718,8.069-17.078,15.255l-0.08,0.171l-0.028,0.06l-0.023,0.254l0-0.001c-0.01,0.112-0.036,0.211-0.075,0.298
		l0,0.001c-1.627,3.719-2.434,7.737-2.434,11.751c0,4.647,1.083,9.289,3.234,13.456c0.075,0.145,0.112,0.299,0.112,0.455
		c0,0.101-0.016,0.203-0.048,0.303c-0.082,0.255-0.253,0.458-0.491,0.582l0.001-0.001c-0.145,0.074-0.294,0.11-0.455,0.111
		c-0.378-0.001-0.714-0.205-0.887-0.538c-2.312-4.476-3.494-9.409-3.494-14.367c0-2.381,0.273-4.767,0.824-7.111l0-0.001l0.035-0.15
		l0.012-0.052l-0.011-0.207l0,0.001l-0.001-0.055l0.029-0.243c0.273-1.092,0.624-2.213,1.043-3.333l0.245-0.654l0.085-0.226
		L65.562,84.586l-0.811,0.215c-2.568,0.679-5.228,1.023-7.907,1.023v0.375l0.037-0.373l-0.244-0.024l-0.082-0.016l-0.035-0.007
		h-0.136h0.001c-8.301-0.017-16.116-3.271-22.017-9.171c-5.9-5.899-9.16-13.927-9.16-22.168c0-1.637,0.129-3.282,0.391-4.921
		c0.061-0.375,0.315-0.672,0.673-0.789c0.104-0.033,0.206-0.05,0.309-0.05c0.268,0.001,0.511,0.102,0.702,0.292l14.577,14.576
		l17.254-2.901l2.658-17.001L45.004,26.878c-0.19-0.191-0.292-0.44-0.292-0.7l0.023-0.211l0-0.001c0.072-0.333,0.3-0.599,0.618-0.72
		c3.567-1.358,7.308-2.046,11.124-2.046c8.255-0.001,16.331,3.338,22.145,9.152l0,0c0.819,0.82,1.599,1.69,2.316,2.586
		c0.144,0.18,0.218,0.393,0.219,0.619L81.15,35.67l0,0c-0.03,0.267-0.158,0.498-0.366,0.666c-0.184,0.146-0.391,0.219-0.62,0.22
		c-0.307-0.001-0.587-0.135-0.779-0.374c-0.678-0.846-1.409-1.66-2.172-2.422c-5.448-5.448-13-8.57-20.734-8.571
		c-2.173,0-4.348,0.243-6.465,0.722l-2.582,0.584l16.103,16.103l0,0c0.187,0.187,0.292,0.445,0.291,0.706l-0.012,0.152
		l-2.845,18.207c-0.066,0.424-0.395,0.756-0.819,0.829l-18.452,3.103l-0.208,0.017l0.031,0.374v-0.375
		c-0.27-0.001-0.515-0.102-0.704-0.291L27.104,51.606l0.104,3.669c0.213,7.54,3.256,14.619,8.565,19.927
		c5.535,5.537,12.883,8.589,20.677,8.589v-0.31l-0.01,0.309l0.01,0v-0.31l-0.01,0.309l0.006,0h0.006c3.035,0,6.052-0.471,8.966-1.4
		c0.084-0.027,0.185-0.043,0.302-0.043h0.181h0.053l0.256-0.073l0.009-0.003l0.009-0.003c7.418-2.544,13.575-8.082,16.9-15.2
		l0.084-0.18l0.029-0.062l0.02-0.266l0,0.001c0.01-0.13,0.037-0.238,0.076-0.325l0.002-0.005l-0.002,0.004
		c1.638-3.745,2.456-7.757,2.456-11.766c0-4.088-0.851-8.174-2.551-11.974c-0.059-0.132-0.086-0.268-0.086-0.403
		c0-0.381,0.22-0.746,0.589-0.911c0.132-0.059,0.265-0.087,0.404-0.088c0.391,0,0.749,0.232,0.909,0.589
		c1.789,3.998,2.704,8.256,2.722,12.662l0.001,0.108l0,0.037l0.025,0.122l0.027,0.264l0.373-0.038H87.83
		c0,3.716-0.655,7.352-1.946,10.812l-0.244,0.653l-0.084,0.226l48.993,48.996l0.816-0.22c2.679-0.722,5.434-1.088,8.19-1.088
		c8.324,0.001,16.161,3.256,22.08,9.173c5.899,5.9,9.16,13.929,9.159,22.172c0,1.636-0.128,3.281-0.39,4.919l-0.001,0.009
		l0.002-0.01c-0.061,0.373-0.317,0.672-0.675,0.788l-0.005,0.001l0.003-0.001c-0.102,0.033-0.203,0.049-0.308,0.049
		c-0.268-0.001-0.513-0.102-0.703-0.291l-14.575-14.577l-17.256,2.903l-2.658,17.001l16.769,16.768
		c0.19,0.19,0.291,0.441,0.292,0.701l-0.022,0.21c-0.072,0.332-0.301,0.6-0.619,0.721c-3.564,1.357-7.305,2.045-11.121,2.045
		V177.174v0.375c3.907,0,7.74-0.704,11.388-2.094c0.553-0.21,0.962-0.686,1.085-1.265c0.026-0.122,0.039-0.245,0.039-0.367
		c0-0.457-0.18-0.901-0.511-1.231l-16.5-16.498l2.516-16.09l16.341-2.749l14.301,14.303c0.327,0.328,0.77,0.511,1.233,0.511
		c0.182,0,0.365-0.029,0.541-0.086l-0.001,0c0.625-0.201,1.081-0.735,1.185-1.382l0-0.001c0.268-1.678,0.399-3.362,0.399-5.037
		c0-8.441-3.337-16.659-9.379-22.702c-6.055-6.055-14.09-9.393-22.61-9.393c-2.822,0-5.643,0.375-8.385,1.114l-0.397,0.107
		L86.427,66.341l0.159-0.427c1.323-3.543,1.994-7.27,1.994-11.074V54.82L88.55,54.52l-0.002-0.018l-0.018-0.087l0-0.071v0
		c-0.018-4.508-0.956-8.874-2.787-12.966c-0.282-0.628-0.906-1.033-1.594-1.033c-0.244,0-0.486,0.052-0.711,0.153
		c-0.648,0.291-1.033,0.928-1.032,1.595c0,0.237,0.049,0.479,0.152,0.709c1.657,3.702,2.486,7.683,2.486,11.667
		c0,3.908-0.797,7.817-2.393,11.465l0.001-0.001c-0.078,0.177-0.122,0.369-0.137,0.57l0,0.001l-0.01,0.129l-0.055,0.118
		c-3.237,6.931-9.241,12.332-16.464,14.808l0.122,0.355l-0.103-0.36l-0.154,0.044l-0.128,0c-0.184,0-0.362,0.025-0.53,0.078
		c-2.841,0.905-5.78,1.364-8.738,1.364v0.375l0.012-0.375l-0.014,0c-7.598-0.001-14.748-2.971-20.147-8.369
		c-5.174-5.173-8.137-12.066-8.346-19.418l-0.051-1.784l12.379,12.379c0.327,0.328,0.77,0.511,1.234,0.511h0.016l0.239-0.02
		l0.016-0.001l18.483-3.108l0.001,0c0.741-0.126,1.319-0.71,1.434-1.452l2.846-18.207l0.021-0.268c0-0.46-0.181-0.905-0.51-1.236
		l0,0L48.924,26.926l1.255-0.284c2.062-0.467,4.182-0.704,6.3-0.704c7.532-0.001,14.901,3.046,20.204,8.351
		c0.744,0.743,1.456,1.537,2.117,2.361c0.332,0.415,0.833,0.655,1.364,0.655c0.396,0.001,0.779-0.134,1.089-0.384
		c0.361-0.289,0.592-0.708,0.642-1.169l0,0l0.011-0.194c0-0.394-0.134-0.778-0.383-1.088c-0.735-0.917-1.533-1.807-2.371-2.647l0,0
		c-5.959-5.957-14.218-9.371-22.675-9.372c-3.906,0-7.74,0.705-11.39,2.095c-0.554,0.209-0.962,0.685-1.085,1.265l0-0.001
		c-0.026,0.123-0.039,0.246-0.039,0.369c0,0.457,0.181,0.9,0.512,1.23l16.498,16.498l-2.516,16.09l-16.34,2.747L27.812,48.442
		c-0.327-0.329-0.77-0.513-1.233-0.512c-0.183,0-0.365,0.029-0.54,0.086c-0.624,0.2-1.081,0.735-1.183,1.384
		c-0.268,1.678-0.4,3.363-0.4,5.039c0,8.439,3.337,16.656,9.38,22.699c6.037,6.038,14.049,9.375,22.546,9.391h0.066l0.064,0.012
		l0.017,0.003l0.278,0.028l0.018,0.002h0.019c2.743,0,5.467-0.353,8.098-1.048l0.394-0.104l48.255,48.254l-0.16,0.428
		c-0.428,1.145-0.788,2.292-1.068,3.413c-0.035,0.139-0.052,0.282-0.052,0.426l0.002,0.092l0,0.001l0.005,0.101l-0.023,0.098
		l0-0.001c-0.565,2.401-0.844,4.845-0.844,7.283c0,5.077,1.211,10.128,3.578,14.711c0.299,0.582,0.898,0.945,1.553,0.944
		c0.278,0,0.55-0.066,0.797-0.193l0.001-0.001c0.411-0.213,0.721-0.579,0.861-1.021c0.055-0.173,0.083-0.352,0.083-0.531
		c0-0.276-0.066-0.55-0.196-0.8c-2.095-4.056-3.151-8.581-3.151-13.112c0-3.913,0.788-7.829,2.371-11.45l0,0.001
		c0.073-0.166,0.118-0.345,0.135-0.532l0.011-0.124l0.052-0.112c3.272-7,9.339-12.419,16.638-14.862l0.092-0.031l0.096-0.005
		c0.151-0.008,0.296-0.033,0.432-0.075l0.002-0.001c2.841-0.906,5.782-1.366,8.74-1.366c7.598,0.001,14.749,2.971,20.149,8.369
		c5.174,5.174,8.137,12.067,8.346,19.416l0.051,1.784l-12.375-12.377c-0.328-0.328-0.771-0.511-1.235-0.51h-0.016l-0.244,0.02
		l-0.015,0.001l-18.485,3.107c-0.74,0.124-1.317,0.709-1.434,1.451l-2.845,18.209l-0.021,0.269c0,0.459,0.18,0.904,0.509,1.234
		l15.142,15.14l-1.255,0.284c-2.062,0.467-4.181,0.704-6.299,0.704v0.375l0.016-0.375l-0.018,0
		c-7.53,0.001-14.898-3.046-20.205-8.353c-0.27-0.271-0.544-0.556-0.809-0.842c-0.331-0.36-0.795-0.562-1.284-0.561
		c-0.438,0-0.86,0.164-1.182,0.462c-0.372,0.343-0.561,0.814-0.56,1.283c0,0.422,0.153,0.848,0.461,1.182
		c0.298,0.323,0.603,0.641,0.909,0.947c5.961,5.957,14.221,9.371,22.678,9.372V177.174z M84.093,70.35l-0.326-0.186
		c-3.217,5.631-8.239,10.213-14.129,12.894l-1.917,0.872l47.583,47.586l0.949-1.655c3.232-5.633,8.261-10.209,14.15-12.875
		l1.922-0.871l-47.61-47.609l-0.948,1.659L84.093,70.35l0.326,0.186l0.461-0.807l46.149,46.149l-0.935,0.424
		c-6.036,2.734-11.178,7.414-14.491,13.185l-0.462,0.805L69.017,84.164l0.932-0.424c6.037-2.748,11.172-7.434,14.47-13.204
		L84.093,70.35z"/>
	<path style="fill:#B3B3B3;" d="M112.21,119.609c-0.368,0-0.714-0.145-0.974-0.407L80.88,88.494c-0.257-0.26-0.397-0.604-0.395-0.97
		c0.002-0.366,0.147-0.709,0.407-0.966c0.258-0.256,0.6-0.396,0.962-0.396c0.369,0,0.716,0.145,0.975,0.407l30.354,30.708
		c0.258,0.26,0.399,0.604,0.397,0.97c-0.002,0.367-0.146,0.71-0.407,0.967C112.916,119.469,112.574,119.609,112.21,119.609z"/>
	<path style="fill:#B3B3B3;" d="M112.21,119.609v-0.375c-0.27-0.001-0.516-0.103-0.708-0.296L81.147,88.231
		c-0.187-0.19-0.286-0.433-0.287-0.698h-0.014l0.014,0l0,0h-0.014l0.014,0l0-0.002l0-0.004c0.002-0.268,0.105-0.512,0.296-0.702
		c0.19-0.187,0.433-0.287,0.698-0.288c0.271,0.001,0.517,0.104,0.708,0.296l30.354,30.708c0.188,0.19,0.288,0.433,0.288,0.698v0.01
		l0.375-0.002l-0.375-0.002c-0.002,0.269-0.105,0.513-0.295,0.702l-0.005,0.005l0.004-0.004c-0.188,0.186-0.432,0.286-0.699,0.287
		V119.609v0.375c0.46,0.001,0.901-0.18,1.227-0.504l-0.001,0.001c0.331-0.325,0.517-0.768,0.519-1.232l0-0.004l0-0.001v-0.006
		c0.001-0.46-0.181-0.899-0.505-1.226L83.096,86.306c-0.328-0.333-0.775-0.519-1.242-0.519c-0.459-0.001-0.899,0.18-1.226,0.505
		c-0.329,0.325-0.516,0.766-0.519,1.231l0.375,0.002l-0.375-0.008l0,0.017c-0.001,0.459,0.18,0.899,0.503,1.225l30.356,30.709
		c0.329,0.332,0.774,0.519,1.241,0.518V119.609z"/>
	<path style="fill:#B3B3B3;" d="M118.239,113.921c-0.367,0-0.711-0.144-0.971-0.406L86.69,82.687
		c-0.257-0.26-0.398-0.603-0.397-0.969s0.145-0.709,0.405-0.966c0.258-0.256,0.601-0.397,0.964-0.397
		c0.368,0,0.714,0.144,0.973,0.406l30.578,30.828c0.531,0.536,0.527,1.405-0.01,1.937
		C118.946,113.78,118.604,113.921,118.239,113.921z"/>
	<path style="fill:#B3B3B3;" d="M118.239,113.921v-0.375c-0.268-0.001-0.513-0.103-0.705-0.295L86.956,82.423
		c-0.187-0.19-0.287-0.432-0.288-0.699h-0.173l0.173,0.005l0-0.005h-0.173l0.173,0.005l0-0.005l0-0.005
		c0.002-0.269,0.104-0.513,0.294-0.701c0.19-0.188,0.434-0.288,0.7-0.289c0.27,0.001,0.516,0.103,0.707,0.295l30.578,30.828
		c0.192,0.194,0.287,0.444,0.287,0.699c0,0.258-0.098,0.512-0.294,0.707l-0.001,0.001c-0.189,0.187-0.432,0.287-0.699,0.288V113.921
		v0.375c0.461,0.001,0.902-0.181,1.229-0.507l-0.001,0.001c0.343-0.34,0.517-0.792,0.516-1.24c0-0.442-0.168-0.888-0.504-1.227
		L88.901,80.496c-0.328-0.332-0.773-0.517-1.239-0.517c-0.461-0.001-0.901,0.181-1.228,0.506c-0.329,0.325-0.514,0.768-0.516,1.231
		l0.375,0.002l-0.375-0.011l0,0.017c-0.001,0.461,0.181,0.901,0.506,1.227l30.578,30.828c0.328,0.332,0.773,0.518,1.238,0.517
		V113.921z"/>
	<path style="fill:#B3B3B3;" d="M48.606,165.138c-0.488,0-0.942-0.262-1.187-0.685l-13.224-22.905
		c-0.245-0.423-0.245-0.948-0.001-1.371l13.225-22.906c0.244-0.422,0.699-0.685,1.186-0.685h26.449c0.488,0,0.942,0.262,1.185,0.684
		l13.227,22.907c0.243,0.423,0.244,0.949-0.001,1.372L76.24,164.453c-0.243,0.423-0.697,0.684-1.185,0.684H48.606z M36.962,140.862
		l12.435,21.537h24.867L86.7,140.862l-12.436-21.537H49.397L36.962,140.862z"/>
	<path style="fill:#B3B3B3;" d="M48.606,165.138v-0.375c-0.353,0-0.686-0.191-0.862-0.497L34.52,141.36
		c-0.089-0.153-0.133-0.325-0.133-0.498c0-0.172,0.044-0.344,0.133-0.498l13.225-22.906c0.176-0.306,0.509-0.498,0.861-0.497h26.449
		c0.353-0.001,0.686,0.192,0.86,0.496l13.227,22.908c0.088,0.152,0.132,0.325,0.132,0.498c0,0.173-0.044,0.346-0.133,0.499
		l-13.226,22.904c-0.176,0.306-0.507,0.497-0.861,0.497H48.606V165.138v0.375h26.449c0.623,0,1.199-0.332,1.511-0.872l13.226-22.904
		c0.156-0.27,0.233-0.572,0.233-0.874c0-0.301-0.077-0.603-0.232-0.873l-13.227-22.908c-0.311-0.539-0.887-0.871-1.51-0.871H48.606
		c-0.623,0.001-1.199,0.334-1.511,0.872L33.87,139.989c-0.156,0.27-0.233,0.571-0.233,0.873c0,0.302,0.078,0.604,0.234,0.874
		l13.224,22.905c0.312,0.539,0.889,0.872,1.511,0.872V165.138z M36.962,140.862l-0.325,0.188l12.543,21.725h25.301l12.652-21.912
		L74.481,118.95h-25.3l-12.652,21.912l0.108,0.188L36.962,140.862l0.325,0.188l12.327-21.35h24.434l12.219,21.162l-12.219,21.162
		H49.613l-12.327-21.35L36.962,140.862l0.325,0.188L36.962,140.862z"/>
	<path style="fill:#B3B3B3;" d="M61.831,153.696c-0.271,0-0.55-0.012-0.878-0.033l-0.122-0.01c-0.656-0.055-1.228-0.141-1.795-0.266
		l-0.205-0.048c-0.316-0.075-0.572-0.145-0.815-0.219c-0.256-0.082-0.499-0.167-0.786-0.278l-0.209-0.082
		c-0.331-0.133-0.597-0.394-0.741-0.73c-0.143-0.336-0.147-0.708-0.01-1.047c0.21-0.522,0.709-0.86,1.27-0.86
		c0.175,0,0.347,0.034,0.512,0.1l0.158,0.062c0.246,0.094,0.443,0.164,0.619,0.218c0.192,0.06,0.391,0.113,0.64,0.174l0.152,0.035
		c0.449,0.1,0.898,0.168,1.348,0.207l0.166,0.012c0.275,0.019,0.485,0.028,0.696,0.028c0.21,0,0.422-0.008,0.692-0.027l0.163-0.012
		c0.459-0.039,0.907-0.108,1.344-0.204l0.161-0.039c0.219-0.052,0.4-0.1,0.558-0.148l0.034-0.006l0.113-0.041
		c0.112-0.032,0.309-0.102,0.556-0.197l0.147-0.057c0.241-0.099,0.427-0.179,0.593-0.258l0.078-0.038
		c0.153-0.076,0.319-0.163,0.515-0.275l0.12-0.069c3.1-1.815,5.019-5.157,5.019-8.726c0-5.567-4.528-10.095-10.094-10.095
		c-5.567,0-10.096,4.528-10.096,10.095c0,1.675,0.42,3.335,1.214,4.798c0.359,0.664,0.112,1.497-0.551,1.856
		c-0.204,0.111-0.424,0.167-0.653,0.167c-0.504,0-0.966-0.275-1.206-0.718c-1.009-1.864-1.542-3.975-1.542-6.103
		c0-7.076,5.757-12.833,12.833-12.833c3.422,0,6.644,1.336,9.072,3.763c2.427,2.427,3.763,5.648,3.763,9.069
		c0,4.537-2.436,8.782-6.356,11.079l-0.188,0.108c-0.251,0.141-0.488,0.266-0.712,0.375l-0.019,0.01l0.002-0.002
		c-0.226,0.108-0.472,0.216-0.754,0.329l-0.207,0.082c-0.284,0.111-0.528,0.196-0.76,0.268c-0.272,0.085-0.529,0.155-0.839,0.229
		l-0.202,0.046c-0.57,0.126-1.141,0.213-1.704,0.26l-0.128,0.01C62.381,153.685,62.102,153.696,61.831,153.696z"/>
	<path style="fill:#B3B3B3;" d="M61.831,153.696v-0.375c-0.26,0-0.531-0.011-0.853-0.033l-0.025,0.374l0.029-0.374l-0.122-0.01
		l-0.004,0l0.006,0c-0.642-0.053-1.195-0.138-1.745-0.259l-0.081,0.366l0.085-0.365l-0.205-0.048l-0.002,0l0.004,0.001
		c-0.309-0.074-0.557-0.141-0.793-0.213l-0.109,0.359l0.114-0.357c-0.249-0.08-0.484-0.162-0.765-0.27l0.002,0.001l-0.209-0.082
		l0.003,0.001c-0.238-0.096-0.43-0.283-0.535-0.53c-0.054-0.126-0.08-0.257-0.08-0.389c0-0.125,0.024-0.25,0.073-0.371
		c0.155-0.382,0.513-0.624,0.922-0.625c0.126,0,0.25,0.024,0.372,0.073l0.001,0l0.159,0.063l0.003,0.001l0.001,0
		c0.25,0.095,0.454,0.168,0.643,0.226l-0.002-0.001c0.202,0.063,0.41,0.119,0.663,0.18l0.002,0.001l0.153,0.036l0.003,0.001l0.001,0
		c0.465,0.103,0.931,0.174,1.397,0.214l0.002,0l0.169,0.012l0.002,0c0.281,0.019,0.501,0.028,0.722,0.028
		c0.221,0,0.442-0.009,0.718-0.028l0.003,0l0.162-0.012l0.004,0c0.475-0.041,0.94-0.112,1.393-0.212l0.002,0l0.166-0.04l-0.001,0
		c0.224-0.053,0.413-0.103,0.58-0.154l-0.108-0.359l0.069,0.369l0.034-0.006l0.03-0.006l0.142-0.051l-0.127-0.353L65,150.842
		c0.137-0.039,0.335-0.111,0.587-0.207l0.002-0.001l0.147-0.057l0.003-0.001l0.003-0.001c0.244-0.1,0.437-0.183,0.613-0.267
		l0.081-0.04l0.002-0.001c0.158-0.079,0.332-0.17,0.534-0.285l0.121-0.069l0.002-0.001l0.001-0.001
		c3.215-1.883,5.204-5.345,5.205-9.049c-0.001-5.774-4.695-10.469-10.469-10.47c-5.775,0.001-10.47,4.695-10.471,10.47
		c0,1.738,0.435,3.458,1.259,4.977c0.081,0.15,0.119,0.311,0.119,0.471c0,0.355-0.189,0.697-0.52,0.876
		c-0.153,0.082-0.307,0.121-0.474,0.122c-0.367,0-0.701-0.199-0.877-0.522c-0.978-1.808-1.497-3.858-1.496-5.924
		c0-3.435,1.396-6.548,3.653-8.805c2.257-2.257,5.369-3.653,8.805-3.653c3.324,0.001,6.447,1.296,8.806,3.654
		c2.357,2.358,3.652,5.479,3.653,8.802l0.001,0.025l0.374-0.023h-0.375c0.001,4.402-2.366,8.527-6.171,10.755l0.002-0.001
		l-0.188,0.108l0.003-0.002c-0.245,0.138-0.475,0.259-0.692,0.365l-0.003,0.002l-0.022,0.011l0.171,0.334l0.225,0.3l0.002-0.002
		l-0.386-0.639c-0.218,0.104-0.458,0.209-0.733,0.32l0.003-0.001l-0.207,0.082l0.001-0.001c-0.278,0.108-0.512,0.19-0.735,0.259
		l-0.001,0c-0.263,0.082-0.51,0.149-0.814,0.223l0.088,0.365l-0.083-0.366l-0.202,0.046l0.002-0.001
		c-0.554,0.122-1.109,0.207-1.654,0.253l0.002,0l-0.128,0.01l0.004,0c-0.413,0.028-0.681,0.039-0.941,0.039V153.696v0.375
		c0.282,0,0.571-0.012,0.992-0.041l0.132-0.01l0.002,0c0.58-0.049,1.168-0.138,1.754-0.268l0.002-0.001l0.202-0.046l0.003-0.001
		l0.002,0c0.315-0.076,0.581-0.148,0.863-0.236l-0.001,0c0.242-0.075,0.494-0.163,0.785-0.277l0.209-0.082l0.003-0.001
		c0.288-0.116,0.542-0.228,0.775-0.339l-0.161-0.339l-0.225-0.3l-0.002,0.002l0.396,0.634l0.019-0.01l-0.171-0.334l0.164,0.337
		c0.231-0.113,0.475-0.241,0.732-0.385l0.191-0.11l0.002-0.001l0,0c4.036-2.365,6.541-6.731,6.542-11.402v-0.012l-0.001-0.011
		l-0.355,0.022l0.356-0.002l-0.001-0.02l-0.355,0.022l0.356-0.002l-0.193,0.001l0.193,0v-0.001l-0.193,0.001l0.193,0
		c0.001-3.519-1.377-6.838-3.873-9.333c-2.496-2.496-5.816-3.874-9.337-3.873c-7.284,0.001-13.207,5.924-13.208,13.208
		c0,2.191,0.549,4.362,1.587,6.282c0.306,0.564,0.895,0.914,1.536,0.914c0.29,0,0.575-0.073,0.831-0.212
		c0.582-0.316,0.913-0.917,0.913-1.536c0-0.28-0.068-0.566-0.21-0.828c-0.764-1.408-1.169-3.007-1.168-4.62
		c0-2.681,1.089-5.108,2.85-6.87c1.762-1.761,4.19-2.85,6.87-2.85c2.68,0,5.108,1.089,6.869,2.85c1.761,1.761,2.85,4.189,2.85,6.87
		c0.001,3.434-1.849,6.655-4.834,8.402l0.003-0.002l-0.12,0.069l0.001-0.001c-0.191,0.108-0.35,0.192-0.497,0.265l-0.076,0.037
		l0.003-0.001c-0.156,0.075-0.335,0.152-0.573,0.249l0.142,0.347l-0.136-0.35l-0.147,0.057l0.002-0.001
		c-0.241,0.092-0.438,0.162-0.524,0.186l-0.012,0.004l-0.097,0.035l-0.004,0.001l-0.02,0.004l-0.019,0.006
		c-0.15,0.045-0.324,0.091-0.537,0.142l-0.001,0l-0.161,0.039l0.088,0.365l-0.081-0.366c-0.421,0.093-0.853,0.159-1.296,0.197
		l0.032,0.374l-0.028-0.374l-0.163,0.012l0.002,0c-0.265,0.018-0.467,0.026-0.667,0.026c-0.201,0-0.4-0.008-0.67-0.027l0.002,0
		l-0.166-0.012l-0.027,0.374l0.032-0.374c-0.433-0.037-0.866-0.103-1.298-0.199l-0.081,0.366l0.085-0.365l-0.152-0.035l0.003,0.001
		c-0.244-0.059-0.435-0.111-0.617-0.167l-0.002-0.001c-0.163-0.049-0.352-0.117-0.595-0.209l-0.133,0.35l0.137-0.349l-0.158-0.062
		l0.003,0.001c-0.207-0.083-0.428-0.127-0.652-0.127c-0.713-0.001-1.353,0.432-1.618,1.095c-0.084,0.209-0.127,0.43-0.127,0.651
		c0,0.232,0.047,0.464,0.14,0.682c0.182,0.427,0.522,0.761,0.946,0.932l0.003,0.001l0.209,0.082l0.002,0.001
		c0.293,0.113,0.545,0.201,0.807,0.285l0.002,0l0.003,0.001c0.251,0.076,0.516,0.149,0.838,0.225l0.002,0l0.205,0.048l0.002,0
		l0.002,0.001c0.583,0.129,1.174,0.218,1.845,0.274l0.004,0l0.119,0.009l0.002,0l0.003,0c0.333,0.022,0.621,0.034,0.903,0.034
		V153.696z"/>
	<path style="fill:#B3B3B3;" d="M124.965,83.327c-0.488,0-0.942-0.262-1.187-0.685l-13.224-22.905
		c-0.245-0.423-0.245-0.948-0.001-1.37l13.225-22.907c0.244-0.422,0.699-0.684,1.186-0.684h26.45c0.487,0,0.942,0.263,1.186,0.685
		l13.224,22.906c0.245,0.423,0.245,0.948,0.001,1.37l-13.225,22.906c-0.244,0.422-0.698,0.684-1.185,0.684H124.965z M113.32,59.052
		l12.435,21.537h24.868l12.435-21.537l-12.435-21.538h-24.868L113.32,59.052z"/>
	<path style="fill:#B3B3B3;" d="M124.965,83.327v-0.375c-0.353,0-0.686-0.191-0.862-0.497L110.879,59.55l0,0
		c-0.089-0.153-0.133-0.325-0.133-0.498c0-0.172,0.044-0.344,0.133-0.497l13.225-22.907l0,0c0.176-0.305,0.51-0.498,0.861-0.497
		h26.45c0.352-0.001,0.685,0.192,0.861,0.498l13.224,22.905l0,0c0.089,0.153,0.133,0.325,0.133,0.498
		c0,0.172-0.044,0.344-0.133,0.497l-13.225,22.906c-0.176,0.306-0.508,0.497-0.861,0.497h-26.45V83.327v0.375h26.45
		c0.623,0,1.199-0.333,1.51-0.872l13.225-22.906c0.156-0.269,0.233-0.571,0.233-0.872c0-0.301-0.078-0.603-0.234-0.873
		l-13.224-22.905c-0.312-0.539-0.888-0.872-1.511-0.873h-26.45c-0.623,0.001-1.198,0.334-1.51,0.871l-13.226,22.907
		c-0.156,0.269-0.233,0.571-0.233,0.872c0,0.301,0.078,0.604,0.234,0.873l0,0l13.224,22.905c0.312,0.539,0.889,0.872,1.511,0.872
		V83.327z M113.32,59.052l-0.325,0.188l12.543,21.725h25.301l12.652-21.912L150.84,37.139h-25.301l-12.652,21.913l0.108,0.188
		L113.32,59.052l0.325,0.188l12.327-21.35h24.435l12.219,21.163l-12.219,21.162h-24.435l-12.327-21.35L113.32,59.052l0.325,0.188
		L113.32,59.052z"/>
	<path style="fill:#B3B3B3;" d="M138.19,71.884c-0.27,0-0.55-0.01-0.878-0.031l-0.225-0.017c-0.556-0.047-1.128-0.135-1.692-0.258
		l-0.2-0.046c-0.315-0.077-0.573-0.146-0.816-0.221c-0.257-0.081-0.502-0.166-0.79-0.277l-0.209-0.082
		c-0.331-0.133-0.598-0.394-0.741-0.73c-0.144-0.337-0.147-0.709-0.011-1.049c0.21-0.521,0.709-0.858,1.271-0.858
		c0.174,0,0.346,0.033,0.51,0.1l0.155,0.061c0.251,0.095,0.447,0.165,0.621,0.219c0.195,0.06,0.394,0.114,0.644,0.174l0.151,0.035
		c0.461,0.101,0.911,0.17,1.349,0.205l0.161,0.013c0.279,0.019,0.489,0.028,0.7,0.028s0.422-0.008,0.692-0.027l0.166-0.013
		c0.453-0.038,0.903-0.105,1.342-0.203l0.16-0.038c0.247-0.058,0.448-0.112,0.621-0.166c0.197-0.06,0.394-0.13,0.64-0.225
		l0.151-0.059c0.215-0.087,0.388-0.162,0.543-0.235l0.049-0.023l0.017-0.009c0.167-0.081,0.347-0.176,0.567-0.299l0.132-0.077
		c3.093-1.812,5.013-5.153,5.013-8.721c0-5.567-4.528-10.095-10.094-10.095c-5.567,0-10.096,4.528-10.096,10.095
		c0,1.674,0.42,3.333,1.213,4.798c0.36,0.663,0.112,1.496-0.552,1.857c-0.203,0.11-0.422,0.166-0.651,0.166
		c-0.504,0-0.966-0.275-1.207-0.718c-1.009-1.863-1.542-3.974-1.542-6.103c0-7.076,5.757-12.833,12.833-12.833
		c7.078,0,12.836,5.757,12.836,12.833c0,4.536-2.436,8.781-6.358,11.079l-0.172,0.099c-0.246,0.139-0.465,0.255-0.673,0.358
		l-0.09,0.032l-0.057,0.039c-0.206,0.097-0.429,0.194-0.682,0.296l-0.197,0.077c-0.293,0.113-0.537,0.199-0.77,0.272
		c-0.269,0.083-0.527,0.153-0.839,0.228l-0.202,0.046c-0.564,0.125-1.135,0.212-1.701,0.26l-0.229,0.018
		C138.741,71.875,138.461,71.884,138.19,71.884z"/>
	<path style="fill:#B3B3B3;" d="M138.19,71.884v-0.375c-0.261,0-0.532-0.009-0.854-0.03l-0.025,0.374l0.029-0.374l-0.225-0.017
		l0.003,0c-0.538-0.046-1.095-0.131-1.643-0.251l0.004,0.001l-0.2-0.046l-0.084,0.365l0.089-0.364
		c-0.311-0.076-0.561-0.143-0.794-0.215c-0.25-0.078-0.485-0.16-0.766-0.269l0.002,0.001l-0.209-0.082l0.002,0.001
		c-0.238-0.096-0.43-0.283-0.535-0.529l0,0c-0.054-0.127-0.08-0.258-0.08-0.39c0-0.125,0.024-0.25,0.073-0.372
		c0.154-0.38,0.512-0.622,0.923-0.623c0.126,0,0.249,0.024,0.37,0.072l0.002,0.001l0.157,0.062l0.002,0.001l0.002,0.001
		c0.254,0.097,0.458,0.17,0.645,0.227c0.203,0.063,0.411,0.119,0.666,0.18l0.001,0l0.153,0.035l0.002,0l0.002,0
		c0.477,0.105,0.943,0.176,1.399,0.212l0.162,0.013l0.003,0l0.001,0c0.284,0.019,0.504,0.028,0.725,0.028
		c0.221,0,0.443-0.009,0.718-0.028l0.003,0l0.166-0.013l0.002,0c0.47-0.039,0.936-0.109,1.392-0.211l0.002,0l0.163-0.039
		c0.252-0.06,0.461-0.116,0.646-0.173l-0.001,0c0.208-0.064,0.414-0.137,0.664-0.233l0.002-0.001l0.152-0.06l0.002-0.001
		l0.002-0.001c0.218-0.088,0.399-0.166,0.562-0.243l-0.001,0l0.049-0.023l0.007-0.003l0.024-0.012l-0.172-0.333l0.164,0.337
		c0.175-0.085,0.363-0.184,0.586-0.309l0.001-0.001l0.136-0.079l0.001-0.001c3.208-1.88,5.198-5.341,5.198-9.044
		c-0.001-5.774-4.696-10.469-10.469-10.47c-5.775,0.001-10.47,4.695-10.471,10.47c0,1.737,0.435,3.456,1.258,4.977
		c0.082,0.151,0.12,0.311,0.12,0.471c0,0.354-0.189,0.698-0.521,0.878c-0.15,0.081-0.304,0.12-0.472,0.12
		c-0.367,0-0.702-0.2-0.877-0.522l0,0c-0.979-1.808-1.497-3.858-1.497-5.924c0-3.435,1.396-6.548,3.653-8.805
		c2.257-2.257,5.369-3.653,8.805-3.653c3.436,0,6.549,1.396,8.807,3.653c2.257,2.257,3.654,5.369,3.654,8.805
		c0.001,4.401-2.366,8.526-6.172,10.755l0.003-0.002l-0.172,0.099l0.002-0.001c-0.241,0.136-0.454,0.249-0.654,0.348l0.166,0.336
		l-0.125-0.354l-0.09,0.032l-0.047,0.017l-0.098,0.068l0.213,0.308l-0.161-0.339c-0.197,0.093-0.414,0.187-0.662,0.287l0.141,0.348
		l-0.136-0.349l-0.197,0.077c-0.286,0.111-0.521,0.193-0.746,0.263l0.002-0.001c-0.261,0.081-0.51,0.148-0.817,0.222l0.088,0.364
		l-0.082-0.366l-0.202,0.046l0.001,0c-0.548,0.121-1.102,0.206-1.652,0.253l0.002,0l-0.229,0.018l0.029,0.374l-0.025-0.374
		c-0.307,0.02-0.579,0.029-0.84,0.029V71.884v0.375c0.28,0,0.569-0.01,0.89-0.031l0.002,0l0.232-0.018l0.002,0l0,0
		c0.584-0.049,1.171-0.139,1.751-0.268l0.003-0.001l0.201-0.045l0.004-0.001l0.003-0.001c0.317-0.077,0.584-0.149,0.861-0.234
		l0.002-0.001c0.241-0.076,0.493-0.164,0.793-0.28l0.198-0.077l0.001-0.001l0.003-0.001c0.257-0.104,0.488-0.203,0.702-0.305
		l0.028-0.013l0.04-0.028l0.043-0.015l0.021-0.007l0.02-0.01c0.215-0.106,0.441-0.226,0.691-0.367l0.003-0.001l0.171-0.098
		l0.002-0.001l0.001-0.001c4.037-2.366,6.543-6.732,6.543-11.402c-0.001-7.284-5.926-13.207-13.211-13.208
		c-7.284,0.001-13.207,5.924-13.208,13.208c0,2.191,0.549,4.362,1.587,6.281l0.003,0.006l-0.003-0.006
		c0.306,0.563,0.895,0.914,1.536,0.914c0.29,0,0.574-0.072,0.83-0.211c0.582-0.316,0.913-0.918,0.913-1.537
		c0-0.28-0.068-0.566-0.21-0.828c-0.763-1.409-1.168-3.007-1.168-4.619c0-2.681,1.089-5.108,2.85-6.87
		c1.762-1.761,4.19-2.85,6.87-2.85c2.68,0,5.108,1.089,6.869,2.85c1.761,1.761,2.85,4.189,2.85,6.87
		c0.001,3.433-1.849,6.653-4.828,8.397l-0.131,0.076l0.188,0.324l-0.183-0.327c-0.215,0.12-0.389,0.212-0.547,0.289l-0.004,0.002
		l-0.015,0.008l-0.042,0.02l-0.001,0c-0.147,0.069-0.314,0.141-0.524,0.226l0.141,0.348l-0.137-0.349l-0.151,0.059l0.003-0.001
		c-0.242,0.093-0.43,0.159-0.616,0.216l-0.001,0c-0.163,0.051-0.355,0.103-0.596,0.159l-0.161,0.038l0.087,0.365l-0.082-0.366
		c-0.421,0.094-0.855,0.159-1.291,0.196l0.002,0l-0.166,0.013l0.003,0c-0.265,0.018-0.466,0.026-0.667,0.026
		c-0.201,0-0.401-0.008-0.674-0.027l-0.026,0.374l0.029-0.374l-0.161-0.013c-0.419-0.034-0.852-0.1-1.298-0.197l-0.08,0.366
		l0.085-0.365l-0.151-0.035l0.003,0.001c-0.244-0.058-0.433-0.11-0.62-0.168c-0.163-0.05-0.352-0.117-0.599-0.211l-0.133,0.35
		l0.137-0.349l-0.155-0.061l0.003,0.001c-0.208-0.084-0.428-0.127-0.65-0.127c-0.714-0.001-1.354,0.431-1.619,1.093
		c-0.084,0.209-0.127,0.431-0.127,0.652c0,0.233,0.047,0.465,0.14,0.684l0,0c0.181,0.427,0.522,0.762,0.946,0.932l0.001,0
		l0.21,0.083l0.002,0.001l0,0c0.294,0.114,0.548,0.202,0.813,0.285c0.254,0.079,0.521,0.15,0.839,0.228l0.003,0.001l0.202,0.047
		l0.002,0l0.002,0c0.58,0.127,1.168,0.217,1.741,0.266l0.228,0.018l0.002,0l0.003,0c0.335,0.022,0.624,0.032,0.903,0.032V71.884z"/>
</g>
</svg>
