<?xml version="1.0" encoding="iso-8859-1"?>
<!-- Generator: Adobe Illustrator 18.0.0, SVG Export Plug-In . SVG Version: 6.00 Build 0)  -->
<!DOCTYPE svg PUBLIC "-//W3C//DTD SVG 1.1//EN" "http://www.w3.org/Graphics/SVG/1.1/DTD/svg11.dtd">
<svg version="1.1" id="Layer_1" xmlns="http://www.w3.org/2000/svg" xmlns:xlink="http://www.w3.org/1999/xlink" x="0px" y="0px"
	 viewBox="0 0 200 200" style="enable-background:new 0 0 200 200;" xml:space="preserve">
<rect x="234.125" y="71.041" style="fill:#F15A24;" width="3.773" height="3.773"/>
<g>
	<path style="fill:#B3B3B3;" d="M25.427,174.894c-0.712,0-1.292-0.579-1.292-1.292c0-0.712,0.579-1.292,1.292-1.292h149.145
		c0.712,0,1.292,0.579,1.292,1.292c0,0.712-0.58,1.292-1.292,1.292H25.427z"/>
	<path style="fill:#B3B3B3;" d="M25.427,174.894v-0.356c-0.515-0.001-0.934-0.42-0.935-0.935c0.001-0.515,0.42-0.934,0.935-0.935
		h149.145c0.515,0.001,0.935,0.42,0.936,0.935c-0.001,0.515-0.421,0.934-0.936,0.935H25.427L25.427,174.894v0.356h149.145
		c0.91-0.001,1.648-0.738,1.648-1.648c-0.001-0.91-0.739-1.647-1.648-1.648H25.427c-0.91,0.001-1.647,0.738-1.648,1.648
		c0.001,0.91,0.738,1.647,1.648,1.648V174.894z"/>
	<path style="fill:#B3B3B3;" d="M64.305,174.894c-0.712,0-1.292-0.579-1.292-1.292V65.313c0-0.712,0.579-1.292,1.292-1.292h52.788
		c0.712,0,1.292,0.579,1.292,1.292v108.289c0,0.712-0.579,1.292-1.292,1.292H64.305z M65.597,172.311h50.205V66.605H65.597V172.311z
		"/>
	<path style="fill:#B3B3B3;" d="M64.305,174.894v-0.356c-0.515-0.001-0.934-0.42-0.935-0.935V65.313
		c0.001-0.515,0.42-0.934,0.935-0.935h52.788c0.515,0.001,0.934,0.42,0.935,0.935v108.289c-0.001,0.515-0.42,0.934-0.935,0.935
		H64.305V174.894v0.356h52.788c0.91-0.001,1.647-0.738,1.648-1.648V65.313c-0.001-0.91-0.738-1.647-1.648-1.648H64.305
		c-0.91,0.001-1.647,0.738-1.648,1.648v108.289c0.001,0.91,0.738,1.647,1.648,1.648V174.894z M65.597,172.311v0.356h50.561V66.248
		H65.241v106.419h0.356V172.311h0.356V66.961h49.492v104.994l-49.849,0V172.311h0.356H65.597z"/>
	<path style="fill:#B3B3B3;" d="M74.461,66.605c-0.712,0-1.292-0.579-1.292-1.292V45.777c0-0.712,0.579-1.292,1.292-1.292h32.476
		c0.712,0,1.292,0.579,1.292,1.292v19.536c0,0.712-0.579,1.292-1.292,1.292H74.461z M75.753,64.022h29.893V47.069H75.753V64.022z"/>
	<path style="fill:#B3B3B3;" d="M74.461,66.605v-0.356c-0.515-0.001-0.934-0.42-0.935-0.935V45.777
		c0.001-0.515,0.42-0.934,0.935-0.935h32.476c0.515,0.001,0.934,0.42,0.935,0.935v19.536c-0.001,0.515-0.42,0.934-0.935,0.935
		H74.461V66.605v0.356h32.476c0.91-0.001,1.647-0.738,1.648-1.648V45.777c-0.001-0.91-0.738-1.647-1.648-1.648H74.461
		c-0.91,0.001-1.647,0.738-1.648,1.648v19.536c0.001,0.91,0.738,1.647,1.648,1.648V66.605z M75.753,64.022v0.356h30.249V46.713
		H75.397v17.665h0.356V64.022h0.356V47.425h29.18v16.24H75.753V64.022h0.356H75.753z"/>
	<path style="fill:#B3B3B3;" d="M84.493,47.069c-0.712,0-1.292-0.579-1.292-1.292V26.241c0-0.712,0.58-1.292,1.292-1.292h12.414
		c0.712,0,1.292,0.579,1.292,1.292v19.536c0,0.712-0.579,1.292-1.292,1.292H84.493z M85.784,44.486h9.831V27.533h-9.831V44.486z"/>
	<path style="fill:#B3B3B3;" d="M84.493,47.069v-0.356c-0.515-0.001-0.935-0.42-0.936-0.935V26.241
		c0.001-0.515,0.421-0.934,0.936-0.935h12.414c0.515,0.001,0.934,0.42,0.935,0.935v19.536c-0.001,0.515-0.42,0.934-0.935,0.935
		H84.493V47.069v0.356h12.414c0.91-0.001,1.647-0.738,1.648-1.648V26.241c-0.001-0.91-0.738-1.647-1.648-1.648H84.493
		c-0.91,0.001-1.648,0.738-1.648,1.648v19.536c0.001,0.91,0.739,1.647,1.648,1.648V47.069z M85.784,44.486v0.356h10.187V27.177
		H85.428v17.665h0.356V44.486h0.356V27.889h9.118v16.24l-9.474,0V44.486h0.356H85.784z"/>
	<path style="fill:#B3B3B3;" d="M79.287,174.894c-0.712,0-1.292-0.579-1.292-1.292v-30.767c0-0.712,0.579-1.292,1.292-1.292h22.826
		c0.712,0,1.292,0.579,1.292,1.292v30.767c0,0.712-0.579,1.292-1.292,1.292H79.287z M80.578,172.311h20.242v-28.184H80.578V172.311z
		"/>
	<path style="fill:#B3B3B3;" d="M79.287,174.894v-0.356c-0.515-0.001-0.934-0.42-0.935-0.935v-30.767
		c0.001-0.515,0.42-0.934,0.935-0.935h22.826c0.515,0.001,0.934,0.42,0.935,0.935v30.767c-0.001,0.515-0.42,0.934-0.935,0.935
		H79.287V174.894v0.356h22.826c0.91-0.001,1.647-0.738,1.648-1.648v-30.767c-0.001-0.91-0.738-1.647-1.648-1.648H79.287
		c-0.91,0.001-1.647,0.738-1.648,1.648v30.767c0.001,0.91,0.738,1.647,1.648,1.648V174.894z M80.578,172.311v0.356h20.599v-28.896
		H80.222v28.896h0.356V172.311h0.356v-27.827h19.53v27.471l-19.886,0V172.311h0.356H80.578z"/>
	<path style="fill:#B3B3B3;" d="M117.093,174.894c-0.712,0-1.292-0.579-1.292-1.292V65.537c0-0.712,0.579-1.292,1.292-1.292h46.946
		c0.712,0,1.292,0.579,1.292,1.292v108.065c0,0.712-0.579,1.292-1.292,1.292H117.093z M118.385,172.311h44.363V66.829h-44.363
		V172.311z"/>
	<path style="fill:#B3B3B3;" d="M117.093,174.894v-0.356c-0.515-0.001-0.934-0.42-0.935-0.935V65.537
		c0.001-0.515,0.42-0.934,0.935-0.935h46.946c0.515,0.001,0.934,0.42,0.935,0.935v108.065c-0.001,0.515-0.42,0.934-0.935,0.935
		h-46.946V174.894v0.356h46.946c0.91-0.001,1.647-0.738,1.648-1.648V65.537c-0.001-0.91-0.738-1.647-1.648-1.648h-46.946
		c-0.91,0.001-1.647,0.738-1.648,1.648v108.065c0.001,0.91,0.738,1.647,1.648,1.648V174.894z M118.385,172.311v0.356h44.719V66.473
		h-45.076v106.195h0.356V172.311h0.356V67.185h43.65v104.769l-44.007,0V172.311h0.356H118.385z"/>
	<path style="fill:#B3B3B3;" d="M74.46,91.339c-0.712,0-1.292-0.579-1.292-1.292V79.188c0-0.712,0.579-1.292,1.292-1.292h10.86
		c0.712,0,1.292,0.579,1.292,1.292v10.859c0,0.712-0.579,1.292-1.292,1.292H74.46z M75.752,88.756h8.276v-8.276h-8.276V88.756z"/>
	<path style="fill:#B3B3B3;" d="M74.46,91.339v-0.356c-0.515-0.001-0.934-0.42-0.935-0.935V79.188
		c0.001-0.515,0.42-0.934,0.935-0.935h10.86c0.515,0.001,0.934,0.42,0.935,0.935v10.859c-0.001,0.515-0.42,0.934-0.935,0.935H74.46
		V91.339v0.356h10.86c0.91-0.001,1.647-0.738,1.648-1.648V79.188c-0.001-0.91-0.738-1.647-1.648-1.648H74.46
		c-0.91,0.001-1.647,0.738-1.648,1.648v10.859c0.001,0.91,0.738,1.647,1.648,1.648V91.339z M75.752,88.756v0.356h8.633v-8.989
		h-8.989v8.989h0.356V88.756h0.356v-7.92h7.564v7.564l-7.92,0V88.756h0.356H75.752z"/>
	<path style="fill:#B3B3B3;" d="M45.101,87.478c-0.712,0-1.291-0.579-1.291-1.292V75.327c0-0.712,0.579-1.292,1.291-1.292H55.96
		c0.712,0,1.292,0.579,1.292,1.292v10.859c0,0.712-0.579,1.292-1.292,1.292H45.101z M46.393,84.895h8.276v-8.276h-8.276V84.895z"/>
	<path style="fill:#B3B3B3;" d="M45.101,87.478v-0.356c-0.514-0.001-0.934-0.42-0.935-0.935V75.327
		c0.001-0.515,0.42-0.934,0.935-0.935H55.96c0.515,0.001,0.934,0.42,0.935,0.935v10.859c-0.001,0.515-0.42,0.934-0.935,0.935H45.101
		V87.478v0.356H55.96c0.91-0.001,1.647-0.738,1.648-1.648V75.327c-0.001-0.91-0.738-1.647-1.648-1.648H45.101
		c-0.909,0.001-1.647,0.738-1.647,1.648v10.859c0.001,0.91,0.738,1.647,1.647,1.648V87.478z M46.393,84.895v0.356h8.632v-8.989
		h-8.989v8.989h0.356V84.895h0.356v-7.92h7.563v7.564h-7.92V84.895h0.356H46.393z"/>
	<path style="fill:#B3B3B3;" d="M45.101,109.599c-0.712,0-1.291-0.579-1.291-1.292V97.448c0-0.712,0.579-1.292,1.291-1.292H55.96
		c0.712,0,1.292,0.579,1.292,1.292v10.859c0,0.712-0.579,1.292-1.292,1.292H45.101z M46.393,107.016h8.276V98.74h-8.276V107.016z"/>
	<path style="fill:#B3B3B3;" d="M45.101,109.599v-0.356c-0.514-0.001-0.934-0.42-0.935-0.935V97.448
		c0.001-0.515,0.42-0.934,0.935-0.935H55.96c0.515,0.001,0.934,0.42,0.935,0.935v10.859c-0.001,0.515-0.42,0.934-0.935,0.935H45.101
		V109.599v0.356H55.96c0.91-0.001,1.647-0.738,1.648-1.648V97.448c-0.001-0.91-0.738-1.647-1.648-1.648H45.101
		c-0.909,0.001-1.647,0.738-1.647,1.648v10.859c0.001,0.91,0.738,1.647,1.647,1.648V109.599z M46.393,107.016v0.356h8.632v-8.989
		h-8.989v8.989h0.356V107.016h0.356v-7.92h7.563v7.563h-7.92V107.016h0.356H46.393z"/>
	<path style="fill:#B3B3B3;" d="M45.101,131.721c-0.712,0-1.291-0.579-1.291-1.292v-10.86c0-0.712,0.579-1.292,1.291-1.292H55.96
		c0.712,0,1.292,0.579,1.292,1.292v10.86c0,0.712-0.579,1.292-1.292,1.292H45.101z M46.393,129.138h8.276v-8.276h-8.276V129.138z"/>
	<path style="fill:#B3B3B3;" d="M45.101,131.721v-0.356c-0.514-0.001-0.934-0.42-0.935-0.935v-10.86
		c0.001-0.515,0.42-0.934,0.935-0.935H55.96c0.515,0.001,0.934,0.42,0.935,0.935v10.86c-0.001,0.515-0.42,0.934-0.935,0.935H45.101
		V131.721v0.356H55.96c0.91-0.001,1.647-0.738,1.648-1.648v-10.86c-0.001-0.91-0.738-1.647-1.648-1.648H45.101
		c-0.909,0.001-1.647,0.738-1.647,1.648v10.86c0.001,0.91,0.738,1.647,1.647,1.648V131.721z M46.393,129.138v0.356h8.632v-8.989
		h-8.989v8.989h0.356V129.138h0.356v-7.92h7.563v7.564h-7.92V129.138h0.356H46.393z"/>
	<path style="fill:#B3B3B3;" d="M45.101,153.842c-0.712,0-1.291-0.579-1.291-1.292v-10.859c0-0.712,0.579-1.292,1.291-1.292H55.96
		c0.712,0,1.292,0.58,1.292,1.292v10.859c0,0.712-0.579,1.292-1.292,1.292H45.101z M46.393,151.259h8.276v-8.276h-8.276V151.259z"/>
	<path style="fill:#B3B3B3;" d="M45.101,153.842v-0.356c-0.514-0.001-0.934-0.42-0.935-0.935v-10.859
		c0.001-0.515,0.421-0.935,0.935-0.936H55.96c0.515,0.001,0.934,0.421,0.935,0.936v10.859c-0.001,0.515-0.42,0.934-0.935,0.935
		H45.101V153.842v0.356H55.96c0.91-0.001,1.647-0.738,1.648-1.648v-10.859c-0.001-0.91-0.738-1.648-1.648-1.648H45.101
		c-0.91,0.001-1.647,0.739-1.647,1.648v10.859c0.001,0.91,0.738,1.647,1.647,1.648V153.842z M46.393,151.259v0.356h8.632v-8.989
		h-8.989v8.989h0.356V151.259h0.356v-7.92h7.563v7.563h-7.92V151.259h0.356H46.393z"/>
	<path style="fill:#B3B3B3;" d="M125.439,87.478c-0.712,0-1.292-0.579-1.292-1.292V75.327c0-0.712,0.579-1.292,1.292-1.292h10.859
		c0.712,0,1.292,0.579,1.292,1.292v10.859c0,0.712-0.579,1.292-1.292,1.292H125.439z M126.73,84.895h8.276v-8.276h-8.276V84.895z"/>
	<path style="fill:#B3B3B3;" d="M125.439,87.478v-0.356c-0.515-0.001-0.934-0.42-0.935-0.935V75.327
		c0.001-0.515,0.42-0.934,0.935-0.935h10.859c0.515,0.001,0.934,0.42,0.935,0.935v10.859c-0.001,0.515-0.42,0.934-0.935,0.935
		h-10.859V87.478v0.356h10.859c0.91-0.001,1.647-0.738,1.648-1.648V75.327c-0.001-0.91-0.738-1.647-1.648-1.648h-10.859
		c-0.91,0.001-1.647,0.738-1.648,1.648v10.859c0.001,0.91,0.738,1.647,1.648,1.648V87.478z M126.73,84.895v0.356h8.633v-8.989
		h-8.989v8.989h0.356V84.895h0.356v-7.92h7.564v7.564l-7.92,0V84.895h0.356H126.73z"/>
	<path style="fill:#B3B3B3;" d="M125.439,109.599c-0.712,0-1.292-0.579-1.292-1.292V97.448c0-0.712,0.579-1.292,1.292-1.292h10.859
		c0.712,0,1.292,0.579,1.292,1.292v10.859c0,0.712-0.579,1.292-1.292,1.292H125.439z M126.73,107.016h8.276V98.74h-8.276V107.016z"
		/>
	<path style="fill:#B3B3B3;" d="M125.439,109.599v-0.356c-0.515-0.001-0.934-0.42-0.935-0.935V97.448
		c0.001-0.515,0.42-0.934,0.935-0.935h10.859c0.515,0.001,0.934,0.42,0.935,0.935v10.859c-0.001,0.515-0.42,0.934-0.935,0.935
		h-10.859V109.599v0.356h10.859c0.91-0.001,1.647-0.738,1.648-1.648V97.448c-0.001-0.91-0.738-1.647-1.648-1.648h-10.859
		c-0.91,0.001-1.647,0.738-1.648,1.648v10.859c0.001,0.91,0.738,1.647,1.648,1.648V109.599z M126.73,107.016v0.356h8.633v-8.989
		h-8.989v8.989h0.356V107.016h0.356v-7.92h7.564v7.563l-7.92,0V107.016h0.356H126.73z"/>
	<path style="fill:#B3B3B3;" d="M125.439,131.721c-0.712,0-1.292-0.579-1.292-1.292v-10.86c0-0.712,0.579-1.292,1.292-1.292h10.859
		c0.712,0,1.292,0.579,1.292,1.292v10.86c0,0.712-0.579,1.292-1.292,1.292H125.439z M126.73,129.138h8.276v-8.276h-8.276V129.138z"
		/>
	<path style="fill:#B3B3B3;" d="M125.439,131.721v-0.356c-0.515-0.001-0.934-0.42-0.935-0.935v-10.86
		c0.001-0.515,0.42-0.934,0.935-0.935h10.859c0.515,0.001,0.934,0.42,0.935,0.935v10.86c-0.001,0.515-0.42,0.934-0.935,0.935
		h-10.859V131.721v0.356h10.859c0.91-0.001,1.647-0.738,1.648-1.648v-10.86c-0.001-0.91-0.738-1.647-1.648-1.648h-10.859
		c-0.91,0.001-1.647,0.738-1.648,1.648v10.86c0.001,0.91,0.738,1.647,1.648,1.648V131.721z M126.73,129.138v0.356h8.633v-8.989
		h-8.989v8.989h0.356V129.138h0.356v-7.92h7.564v7.564h-7.92V129.138h0.356H126.73z"/>
	<path style="fill:#B3B3B3;" d="M125.439,153.842c-0.712,0-1.292-0.579-1.292-1.292v-10.859c0-0.712,0.579-1.292,1.292-1.292h10.859
		c0.712,0,1.292,0.58,1.292,1.292v10.859c0,0.712-0.579,1.292-1.292,1.292H125.439z M126.73,151.259h8.276v-8.276h-8.276V151.259z"
		/>
	<path style="fill:#B3B3B3;" d="M125.439,153.842v-0.356c-0.515-0.001-0.934-0.42-0.935-0.935v-10.859
		c0.001-0.515,0.42-0.935,0.935-0.936h10.859c0.515,0.001,0.934,0.421,0.935,0.936v10.859c-0.001,0.515-0.42,0.934-0.935,0.935
		h-10.859V153.842v0.356h10.859c0.91-0.001,1.647-0.738,1.648-1.648v-10.859c-0.001-0.91-0.738-1.648-1.648-1.648h-10.859
		c-0.91,0.001-1.647,0.739-1.648,1.648v10.859c0.001,0.91,0.738,1.647,1.648,1.648V153.842z M126.73,151.259v0.356h8.633v-8.989
		h-8.989v8.989h0.356V151.259h0.356v-7.92h7.564v7.563l-7.92,0V151.259h0.356H126.73z"/>
	<path style="fill:#B3B3B3;" d="M145.024,87.478c-0.712,0-1.292-0.579-1.292-1.292V75.327c0-0.712,0.579-1.292,1.292-1.292h10.859
		c0.712,0,1.292,0.579,1.292,1.292v10.859c0,0.712-0.579,1.292-1.292,1.292H145.024z M146.315,84.895h8.276v-8.276h-8.276V84.895z"
		/>
	<path style="fill:#B3B3B3;" d="M145.024,87.478v-0.356c-0.515-0.001-0.934-0.42-0.935-0.935V75.327
		c0.001-0.515,0.42-0.934,0.935-0.935h10.859c0.515,0.001,0.934,0.42,0.935,0.935v10.859c-0.001,0.515-0.42,0.934-0.935,0.935
		h-10.859V87.478v0.356h10.859c0.91-0.001,1.647-0.738,1.648-1.648V75.327c-0.001-0.91-0.738-1.647-1.648-1.648h-10.859
		c-0.91,0.001-1.647,0.738-1.648,1.648v10.859c0.001,0.91,0.738,1.647,1.648,1.648V87.478z M146.315,84.895v0.356h8.633v-8.989
		h-8.989v8.989h0.356V84.895h0.356v-7.92h7.564v7.564l-7.92,0V84.895h0.356H146.315z"/>
	<path style="fill:#B3B3B3;" d="M145.024,109.599c-0.712,0-1.292-0.579-1.292-1.292V97.448c0-0.712,0.579-1.292,1.292-1.292h10.859
		c0.712,0,1.292,0.579,1.292,1.292v10.859c0,0.712-0.579,1.292-1.292,1.292H145.024z M146.315,107.016h8.276V98.74h-8.276V107.016z"
		/>
	<path style="fill:#B3B3B3;" d="M145.024,109.599v-0.356c-0.515-0.001-0.934-0.42-0.935-0.935V97.448
		c0.001-0.515,0.42-0.934,0.935-0.935h10.859c0.515,0.001,0.934,0.42,0.935,0.935v10.859c-0.001,0.515-0.42,0.934-0.935,0.935
		h-10.859V109.599v0.356h10.859c0.91-0.001,1.647-0.738,1.648-1.648V97.448c-0.001-0.91-0.738-1.647-1.648-1.648h-10.859
		c-0.91,0.001-1.647,0.738-1.648,1.648v10.859c0.001,0.91,0.738,1.647,1.648,1.648V109.599z M146.315,107.016v0.356h8.633v-8.989
		h-8.989v8.989h0.356V107.016h0.356v-7.92h7.564v7.563l-7.92,0V107.016h0.356H146.315z"/>
	<path style="fill:#B3B3B3;" d="M145.024,131.721c-0.712,0-1.292-0.579-1.292-1.292v-10.86c0-0.712,0.579-1.292,1.292-1.292h10.859
		c0.712,0,1.292,0.579,1.292,1.292v10.86c0,0.712-0.579,1.292-1.292,1.292H145.024z M146.315,129.138h8.276v-8.276h-8.276V129.138z"
		/>
	<path style="fill:#B3B3B3;" d="M145.024,131.721v-0.356c-0.515-0.001-0.934-0.42-0.935-0.935v-10.86
		c0.001-0.515,0.42-0.934,0.935-0.935h10.859c0.515,0.001,0.934,0.42,0.935,0.935v10.86c-0.001,0.515-0.42,0.934-0.935,0.935
		h-10.859V131.721v0.356h10.859c0.91-0.001,1.647-0.738,1.648-1.648v-10.86c-0.001-0.91-0.738-1.647-1.648-1.648h-10.859
		c-0.91,0.001-1.647,0.738-1.648,1.648v10.86c0.001,0.91,0.738,1.647,1.648,1.648V131.721z M146.315,129.138v0.356h8.633v-8.989
		h-8.989v8.989h0.356V129.138h0.356v-7.92h7.564v7.564h-7.92V129.138h0.356H146.315z"/>
	<path style="fill:#B3B3B3;" d="M145.024,153.842c-0.712,0-1.292-0.579-1.292-1.292v-10.859c0-0.712,0.579-1.292,1.292-1.292h10.859
		c0.712,0,1.292,0.58,1.292,1.292v10.859c0,0.712-0.579,1.292-1.292,1.292H145.024z M146.315,151.259h8.276v-8.276h-8.276V151.259z"
		/>
	<path style="fill:#B3B3B3;" d="M145.024,153.842v-0.356c-0.515-0.001-0.934-0.42-0.935-0.935v-10.859
		c0.001-0.515,0.42-0.935,0.935-0.936h10.859c0.515,0.001,0.934,0.421,0.935,0.936v10.859c-0.001,0.515-0.42,0.934-0.935,0.935
		h-10.859V153.842v0.356h10.859c0.91-0.001,1.647-0.738,1.648-1.648v-10.859c-0.001-0.91-0.738-1.648-1.648-1.648h-10.859
		c-0.91,0.001-1.647,0.739-1.648,1.648v10.859c0.001,0.91,0.738,1.647,1.648,1.648V153.842z M146.315,151.259v0.356h8.633v-8.989
		h-8.989v8.989h0.356V151.259h0.356v-7.92h7.564v7.563l-7.92,0V151.259h0.356H146.315z"/>
	<path style="fill:#B3B3B3;" d="M96.078,91.339c-0.712,0-1.292-0.579-1.292-1.292V79.188c0-0.712,0.579-1.292,1.292-1.292h10.86
		c0.712,0,1.292,0.579,1.292,1.292v10.859c0,0.712-0.579,1.292-1.292,1.292H96.078z M97.369,88.756h8.276v-8.276h-8.276V88.756z"/>
	<path style="fill:#B3B3B3;" d="M96.078,91.339v-0.356c-0.515-0.001-0.934-0.42-0.935-0.935V79.188
		c0.001-0.515,0.42-0.934,0.935-0.935h10.86c0.515,0.001,0.934,0.42,0.935,0.935v10.859c-0.001,0.515-0.42,0.934-0.935,0.935h-10.86
		V91.339v0.356h10.86c0.91-0.001,1.647-0.738,1.648-1.648V79.188c-0.001-0.91-0.738-1.647-1.648-1.648h-10.86
		c-0.91,0.001-1.647,0.738-1.648,1.648v10.859c0.001,0.91,0.738,1.647,1.648,1.648V91.339z M97.369,88.756v0.356h8.633v-8.989
		h-8.989v8.989h0.356V88.756h0.356v-7.92h7.564v7.564l-7.92,0V88.756h0.356H97.369z"/>
	<path style="fill:#B3B3B3;" d="M74.46,113.46c-0.712,0-1.292-0.58-1.292-1.292v-10.859c0-0.712,0.579-1.292,1.292-1.292h10.86
		c0.712,0,1.292,0.579,1.292,1.292v10.859c0,0.712-0.579,1.292-1.292,1.292H74.46z M75.752,110.877h8.276v-8.276h-8.276V110.877z"/>
	<path style="fill:#B3B3B3;" d="M74.46,113.46v-0.356c-0.515-0.001-0.934-0.421-0.935-0.936v-10.859
		c0.001-0.515,0.42-0.934,0.935-0.935h10.86c0.515,0.001,0.934,0.42,0.935,0.935v10.859c-0.001,0.515-0.42,0.935-0.935,0.936H74.46
		V113.46v0.356h10.86c0.91-0.001,1.647-0.739,1.648-1.648v-10.859c-0.001-0.91-0.738-1.647-1.648-1.648H74.46
		c-0.91,0.001-1.647,0.738-1.648,1.648v10.859c0.001,0.91,0.738,1.648,1.648,1.648V113.46z M75.752,110.877v0.356h8.633v-8.989
		h-8.989v8.989h0.356V110.877h0.356v-7.92h7.564v7.563l-7.92,0V110.877h0.356H75.752z"/>
	<path style="fill:#B3B3B3;" d="M96.078,113.46c-0.712,0-1.292-0.58-1.292-1.292v-10.859c0-0.712,0.579-1.292,1.292-1.292h10.86
		c0.712,0,1.292,0.579,1.292,1.292v10.859c0,0.712-0.579,1.292-1.292,1.292H96.078z M97.369,110.877h8.276v-8.276h-8.276V110.877z"
		/>
	<path style="fill:#B3B3B3;" d="M96.078,113.46v-0.356c-0.515-0.001-0.934-0.421-0.935-0.936v-10.859
		c0.001-0.515,0.42-0.934,0.935-0.935h10.86c0.515,0.001,0.934,0.42,0.935,0.935v10.859c-0.001,0.515-0.42,0.935-0.935,0.936h-10.86
		V113.46v0.356h10.86c0.91-0.001,1.647-0.739,1.648-1.648v-10.859c-0.001-0.91-0.738-1.647-1.648-1.648h-10.86
		c-0.91,0.001-1.647,0.738-1.648,1.648v10.859c0.001,0.91,0.738,1.648,1.648,1.648V113.46z M97.369,110.877v0.356h8.633v-8.989
		h-8.989v8.989h0.356V110.877h0.356v-7.92h7.564v7.563l-7.92,0V110.877h0.356H97.369z"/>
	<path style="fill:#B3B3B3;" d="M36.754,174.894c-0.712,0-1.292-0.579-1.292-1.292V65.537c0-0.712,0.579-1.292,1.292-1.292h27.551
		c0.712,0,1.292,0.579,1.292,1.292v108.065c0,0.712-0.58,1.292-1.292,1.292H36.754z M38.046,172.311h24.968V66.829H38.046V172.311z"
		/>
	<path style="fill:#B3B3B3;" d="M36.754,174.894v-0.356c-0.515-0.001-0.934-0.42-0.935-0.935V65.537
		c0.001-0.515,0.42-0.934,0.935-0.935h27.551c0.515,0.001,0.935,0.42,0.936,0.935v108.065c-0.001,0.515-0.421,0.934-0.936,0.935
		H36.754V174.894v0.356h27.551c0.91-0.001,1.648-0.738,1.648-1.648V65.537c-0.001-0.91-0.739-1.647-1.648-1.648H36.754
		c-0.91,0.001-1.647,0.738-1.648,1.648v108.065c0.001,0.91,0.738,1.647,1.648,1.648V174.894z M38.046,172.311v0.356H63.37V66.473
		h-25.68v106.195h0.356V172.311h0.356V67.185h24.255v104.769l-24.611,0V172.311h0.356H38.046z"/>
	<path style="fill:#B3B3B3;" d="M74.46,135.579c-0.712,0-1.292-0.579-1.292-1.292v-10.859c0-0.712,0.579-1.292,1.292-1.292h10.86
		c0.712,0,1.292,0.579,1.292,1.292v10.859c0,0.712-0.579,1.292-1.292,1.292H74.46z M75.752,132.996h8.276v-8.276h-8.276V132.996z"/>
	<path style="fill:#B3B3B3;" d="M74.46,135.579v-0.356c-0.515-0.001-0.934-0.42-0.935-0.935v-10.859
		c0.001-0.515,0.42-0.934,0.935-0.935h10.86c0.515,0.001,0.934,0.42,0.935,0.935v10.859c-0.001,0.515-0.42,0.934-0.935,0.935H74.46
		V135.579v0.356h10.86c0.91-0.001,1.647-0.738,1.648-1.648v-10.859c-0.001-0.91-0.738-1.647-1.648-1.648H74.46
		c-0.91,0.001-1.647,0.738-1.648,1.648v10.859c0.001,0.91,0.738,1.647,1.648,1.648V135.579z M75.752,132.996v0.356h8.633v-8.989
		h-8.989v8.989h0.356V132.996h0.356v-7.92h7.564v7.563l-7.92,0V132.996h0.356H75.752z"/>
	<path style="fill:#B3B3B3;" d="M96.078,135.579c-0.712,0-1.292-0.579-1.292-1.292v-10.859c0-0.712,0.579-1.292,1.292-1.292h10.86
		c0.712,0,1.292,0.579,1.292,1.292v10.859c0,0.712-0.579,1.292-1.292,1.292H96.078z M97.369,132.996h8.276v-8.276h-8.276V132.996z"
		/>
	<path style="fill:#B3B3B3;" d="M96.078,135.579v-0.356c-0.515-0.001-0.934-0.42-0.935-0.935v-10.859
		c0.001-0.515,0.42-0.934,0.935-0.935h10.86c0.515,0.001,0.934,0.42,0.935,0.935v10.859c-0.001,0.515-0.42,0.934-0.935,0.935h-10.86
		V135.579v0.356h10.86c0.91-0.001,1.647-0.738,1.648-1.648v-10.859c-0.001-0.91-0.738-1.647-1.648-1.648h-10.86
		c-0.91,0.001-1.647,0.738-1.648,1.648v10.859c0.001,0.91,0.738,1.647,1.648,1.648V135.579z M97.369,132.996v0.356h8.633v-8.989
		h-8.989v8.989h0.356V132.996h0.356v-7.92h7.564v7.563l-7.92,0V132.996h0.356H97.369z"/>
</g>
</svg>
