<?xml version="1.0" encoding="iso-8859-1"?>
<!-- Generator: Adobe Illustrator 18.0.0, SVG Export Plug-In . SVG Version: 6.00 Build 0)  -->
<!DOCTYPE svg PUBLIC "-//W3C//DTD SVG 1.1//EN" "http://www.w3.org/Graphics/SVG/1.1/DTD/svg11.dtd">
<svg version="1.1" id="Layer_1" xmlns="http://www.w3.org/2000/svg" xmlns:xlink="http://www.w3.org/1999/xlink" x="0px" y="0px"
	 viewBox="0 0 200 200" style="enable-background:new 0 0 200 200;" xml:space="preserve">
<rect x="234.125" y="71.041" style="fill:#F15A24;" width="3.773" height="3.773"/>
<g>
	<polygon style="fill:#B3B3B3;" points="155.144,83.46 155.144,83.46 155.144,83.46 	"/>
	<polygon style="fill:#B3B3B3;" points="44.849,83.459 44.849,83.459 44.849,83.459 	"/>
	<path style="fill:#B3B3B3;" d="M138,42.689V43h0.102h0h-0.004H138v-0.309c-3,0.045-6.443,0.738-9.246,1.954
		c-1.98-4.998-5.946-9.204-10.67-12.276l-0.03,0c-5.333-3.457-11.763-5.512-17.951-5.518h-0.008
		c-6.188,0.006-12.642,2.06-18.015,5.515l-0.002,0c-4.76,3.07-8.706,7.435-10.696,12.44C68.476,43.546,65.272,43,61.925,43h-0.001
		C48.724,43,38,53.378,38,66.573v0.005c0,6.567,2.476,12.552,6.751,16.881C48.654,87.42,54,89.99,60,90.401v83.414
		c0,0.458,0.273,1.126,0.597,1.451c0.325,0.324,0.856,0.733,1.315,0.733h76.165c0.46,0,0.995-0.407,1.321-0.733
		c0.326-0.325,0.603-0.991,0.603-1.451v-25.325c0-0.001,0-0.001,0-0.002s0-0.001,0-0.002V90.401c6-0.412,11.343-2.981,15.249-6.942
		C159.526,79.132,162,73.148,162,66.582l0,0v-0.005v-0.004C162,53.495,151,42.874,138,42.689z M152.679,81.025
		c-3.648,3.688-8.727,5.973-14.603,5.977c-0.458,0.001-1.072,0.183-1.397,0.507c-0.324,0.325-0.679,0.767-0.679,1.225V147h-15
		v-23.838c0-0.957-1.043-1.732-2-1.733c-0.957,0-2,0.776-2,1.733V147h-15v-30.169c0-0.957-1.043-1.732-2-1.733
		c-0.957,0-2,0.775-2,1.733V147H83v-23.838c0-0.957-1.043-1.732-2-1.733c-0.957,0-2,0.776-2,1.733V147H64V88.734
		c0-0.459-0.362-0.9-0.685-1.225c-0.325-0.324-0.856-0.507-1.314-0.507c-5.876-0.004-10.996-2.288-14.64-5.976
		c-3.64-3.691-5.853-8.784-5.855-14.452c0.001-5.645,2.275-10.741,5.977-14.444l-0.006,0c3.705-3.7,8.801-5.984,14.45-5.985
		c3.479,0,6.767,0.878,9.637,2.426l-0.001,0c0.256,0.138,0.539,0.208,0.823,0.208c0.229,0,0.459-0.045,0.675-0.137
		c0.484-0.205,0.849-0.619,0.992-1.125l0-0.001c1.341-4.787,5.061-9.127,9.898-12.238l0-0.158C88.77,32.01,94.661,30,100.065,30
		h0.021h0.001h0h0.021c5.404,0,11.251,2.009,16.029,5.117l0,0.079c4.796,3.109,8.479,7.486,9.823,12.281l0,0.02
		c0.143,0.506,0.508,0.93,0.992,1.135c0.216,0.091,0.446,0.142,0.675,0.142c0.284,0,0.567-0.067,0.823-0.206
		c2.872-1.549,6.145-2.424,9.651-2.425c5.642,0.001,10.734,2.284,14.435,5.985c3.698,3.703,5.979,8.799,5.981,14.445
		C158.515,72.24,156.322,77.333,152.679,81.025z M64,150h72v22H64V150z"/>
</g>
</svg>
