<?xml version="1.0" encoding="iso-8859-1"?>
<!-- Generator: Adobe Illustrator 18.0.0, SVG Export Plug-In . SVG Version: 6.00 Build 0)  -->
<!DOCTYPE svg PUBLIC "-//W3C//DTD SVG 1.1//EN" "http://www.w3.org/Graphics/SVG/1.1/DTD/svg11.dtd">
<svg version="1.1" id="Layer_1" xmlns="http://www.w3.org/2000/svg" xmlns:xlink="http://www.w3.org/1999/xlink" x="0px" y="0px"
	 viewBox="0 0 200 200" style="enable-background:new 0 0 200 200;" xml:space="preserve">
<rect x="234.125" y="71.041" style="fill:#F15A24;" width="3.773" height="3.773"/>
<g>
	<path style="fill:#B3B3B3;" d="M174.574,169.998L14.41,169.996c-1.165,0-2.112-0.948-2.112-2.112c0-1.165,0.948-2.113,2.112-2.113
		h6.289l2.277-2.277v-13.556c0-18.513,7.259-35.968,20.44-49.148C54.807,89.398,69.19,82.471,85.009,80.757l2.032-2.264v-6.706
		c0-7.053,5.737-12.79,12.79-12.79c7.052,0,12.789,5.738,12.789,12.79V78.5l2.03,2.264c2.627,0.286,5.27,0.73,7.858,1.32
		c1.135,0.258,1.847,1.394,1.589,2.53c-0.217,0.95-1.081,1.642-2.053,1.642c-0.158,0-0.317-0.018-0.474-0.054
		c-4.731-1.077-9.597-1.624-14.468-1.624H92.559c-36.039,0-65.359,29.32-65.359,65.36v13.556l2.277,2.277h140.707l2.277-2.277
		v-13.556c0-17.816-7.111-34.497-20.024-46.969c-0.407-0.392-0.635-0.919-0.645-1.483c-0.009-0.564,0.201-1.098,0.594-1.504
		c0.402-0.417,0.941-0.646,1.519-0.646c0.55,0,1.071,0.211,1.466,0.593c13.747,13.276,21.317,31.036,21.317,50.008v13.556
		l2.277,2.277h5.787c1.166,0,2.114,0.948,2.114,2.113c0,1.165-0.948,2.112-2.112,2.112H174.69L174.558,170L174.574,169.998z
		 M99.831,63.222c-4.723,0-8.565,3.842-8.565,8.565v6.288l2.277,2.277h12.576l2.277-2.277v-6.288
		C108.396,67.065,104.553,63.222,99.831,63.222z M42.047,151.627c-0.588-0.041-1.102-0.296-1.472-0.722
		c-0.371-0.426-0.553-0.97-0.514-1.533c2.027-29.219,25.793-52.106,54.106-52.106c1.165,0,2.112,0.948,2.112,2.112
		c0,1.165-0.948,2.113-2.112,2.113c-26.102,0-48.018,21.16-49.892,48.173c-0.077,1.102-1.001,1.966-2.103,1.966L42.047,151.627z
		 M137.629,102.863c-1.165,0-2.112-0.948-2.112-2.112v-8.715c0-5.97,4.857-10.827,10.827-10.827h30.53
		c3.642,0,6.605-2.962,6.605-6.602c0-3.64-2.963-6.602-6.605-6.602h-39.602c-5.97,0-10.827-4.856-10.827-10.824
		c0-5.97,4.857-10.827,10.827-10.827h16.359c3.641,0,6.602-2.962,6.602-6.602c0-1.165,0.948-2.112,2.112-2.112
		c1.165,0,2.112,0.948,2.112,2.112c0,5.97-4.857,10.827-10.827,10.827h-16.359c-3.641,0-6.602,2.962-6.602,6.602
		c0,3.639,2.962,6.6,6.602,6.6h39.602c5.971,0,10.829,4.857,10.829,10.827c0,5.97-4.858,10.827-10.829,10.827h-30.53
		c-3.641,0-6.602,2.962-6.602,6.602v8.715C139.741,101.916,138.793,102.863,137.629,102.863z"/>
</g>
</svg>
