<?xml version="1.0" encoding="iso-8859-1"?>
<!-- Generator: Adobe Illustrator 18.0.0, SVG Export Plug-In . SVG Version: 6.00 Build 0)  -->
<!DOCTYPE svg PUBLIC "-//W3C//DTD SVG 1.1//EN" "http://www.w3.org/Graphics/SVG/1.1/DTD/svg11.dtd">
<svg version="1.1" id="Layer_1" xmlns="http://www.w3.org/2000/svg" xmlns:xlink="http://www.w3.org/1999/xlink" x="0px" y="0px"
	 viewBox="0 0 200 200" style="enable-background:new 0 0 200 200;" xml:space="preserve">
<rect x="234.125" y="71.041" style="fill:#F15A24;" width="3.773" height="3.773"/>
<g>
	<path style="fill:#B3B3B3;" d="M69.522,173.996c-0.62,0-1.204-0.329-1.524-0.859l-12.907-21.336H23.753
		c-0.983,0-1.783-0.8-1.783-1.783s0.8-1.783,1.783-1.783h12.834l-0.251-2.372c-0.049-0.467-0.074-0.944-0.074-1.417
		c0-4.344,2.099-8.428,5.614-10.925l1.136-0.806l-0.275-1.366c-0.173-0.862-0.261-1.754-0.261-2.65c0-3.367,1.259-6.591,3.547-9.077
		l0.941-1.024l-4.169-9.684h-1.412c-7.313,0-14.483-5.281-17.868-13.142c-3.898-9.052-1.849-19.093,4.872-23.874
		c0.207-0.147,0.443-0.248,0.695-0.299c0.925-0.182,1.883-0.276,2.843-0.276c7.288,0,14.459,5.282,17.844,13.143
		c3.391,7.871,2.294,16.715-2.728,22.009l-0.974,1.026l3.882,9.01l1.855-0.594c1.318-0.422,2.694-0.637,4.089-0.637
		c6.517,0,12.073,4.652,13.211,11.063l0.314,1.771h1.933c7.398,0,13.418,6.019,13.418,13.418c0,1.328-0.199,2.649-0.592,3.925
		l-0.855,2.777h52.133l0.584-1.218c1.681-3.505,2.839-7.24,3.441-11.102l11-70.51l-17.011-2.657l-10.333,28.509
		c-0.255,0.704-0.93,1.176-1.68,1.176l-0.276-0.021l-15.193-2.371c-2.009-0.313-4.06-0.473-6.096-0.473
		c-13.42,0-25.922,6.658-33.444,17.81c-0.332,0.492-0.885,0.786-1.48,0.786c-0.354,0-0.698-0.106-0.994-0.306
		c-0.396-0.267-0.663-0.67-0.754-1.137c-0.091-0.468,0.006-0.943,0.272-1.339c8.184-12.133,21.796-19.378,36.41-19.378
		c2.216,0,4.448,0.173,6.635,0.514l13.747,2.144l15.547-42.905l-1.08-0.967c-2.704-2.421-4.04-6.135-3.486-9.692
		c0.442-2.835,1.963-5.33,4.283-7.025c1.856-1.355,4.039-2.071,6.312-2.071c0.559,0,1.126,0.045,1.684,0.131
		c1.748,0.272,3.413,0.977,4.818,2.037l0.917,0.693l1.086-0.38c1.142-0.4,2.333-0.602,3.543-0.602c0.555,0,1.117,0.043,1.668,0.13
		c2.833,0.442,5.327,1.964,7.022,4.286c1.695,2.322,2.386,5.161,1.944,7.993c-0.587,3.774-3.177,6.982-6.758,8.373l-1.152,0.448
		l-13.629,87.351c-0.473,3.034-1.265,6.014-2.354,8.857l-1.116,2.914h25.392l0.606-1.138c0.962-1.808,1.45-3.777,1.45-5.851
		c0-6.878-5.596-12.474-12.474-12.474c-0.983,0-1.783-0.8-1.783-1.783c0-0.983,0.8-1.783,1.783-1.783
		c8.844,0,16.04,7.196,16.04,16.04c0,1.459-0.192,2.898-0.57,4.276l-0.745,2.714h7.438c0.983,0,1.783,0.8,1.783,1.783
		s-0.8,1.783-1.783,1.783h-31.34l-12.906,21.335c-0.321,0.531-0.904,0.86-1.524,0.86H69.522z M70.528,170.431h59.363l11.269-18.629
		H59.259L70.528,170.431z M55.892,118.848c-1.922,0-3.787,0.557-5.394,1.613l-0.098,0.064l-0.09,0.074l-0.198,0.141l-0.105,0.063
		l-0.097,0.074c-2.459,1.884-3.869,4.737-3.869,7.824c0,1.461,0.313,2.868,0.93,4.182c0.209,0.443,0.225,0.957,0.046,1.411
		c-0.18,0.456-0.543,0.821-0.999,1.004c-3.761,1.506-6.191,5.097-6.191,9.149c0,0.711,0.074,1.416,0.221,2.096l0.366,1.693h38.239
		l0.643-0.872c1.247-1.69,1.906-3.706,1.906-5.83c0-5.432-4.42-9.852-9.852-9.852c-1.157,0-2.29,0.199-3.369,0.593
		c-0.193,0.07-0.399,0.106-0.607,0.106c-0.416,0-0.821-0.146-1.141-0.41c-0.484-0.402-0.722-1.04-0.62-1.662
		c0.087-0.521,0.132-1.064,0.132-1.606C65.746,123.269,61.326,118.848,55.892,118.848z M31.922,74.892
		c-0.371,0-0.739,0.018-1.107,0.054l-0.681,0.067l-0.516,0.449c-4.625,4.02-5.815,11.968-2.83,18.9
		c2.049,4.761,5.849,8.561,10.165,10.164l4.701,1.746L34.868,90.51c-0.389-0.903,0.03-1.954,0.933-2.343
		c0.224-0.096,0.461-0.145,0.701-0.145c0.714,0,1.358,0.423,1.64,1.078l6.784,15.758l1.964-4.61
		c1.803-4.233,1.656-9.605-0.396-14.369C43.665,79.307,37.809,74.892,31.922,74.892z M141.881,29.572
		c-1.528,0-2.991,0.478-4.23,1.382c-1.551,1.133-2.568,2.8-2.864,4.696c-0.487,3.129,1.168,6.256,4.027,7.604
		c0.834,0.395,1.227,1.35,0.913,2.218l-5.022,13.86l16.325,2.549l2.282-14.626c0.121-0.779,0.751-1.392,1.531-1.492
		c3.148-0.408,5.687-2.883,6.176-6.02c0.295-1.894-0.166-3.791-1.299-5.343c-1.133-1.552-2.8-2.569-4.695-2.864
		c-0.366-0.057-0.74-0.086-1.111-0.086c-1.429,0-2.812,0.422-4.002,1.221c-0.296,0.2-0.638,0.304-0.991,0.304
		c-0.551,0-1.061-0.247-1.402-0.677c-1.128-1.424-2.735-2.361-4.524-2.639C142.625,29.601,142.251,29.572,141.881,29.572z
		 M114.206,138.304c-0.475,0-0.923-0.187-1.263-0.524c-0.335-0.335-0.52-0.783-0.52-1.259c0-0.476,0.185-0.924,0.522-1.261
		l13.611-13.613c0.335-0.335,0.784-0.521,1.26-0.521c0.477,0,0.926,0.185,1.263,0.522c0.693,0.694,0.693,1.827-0.002,2.523
		l-13.611,13.611C115.129,138.118,114.681,138.304,114.206,138.304z M95.805,131.18c-0.476,0-0.923-0.185-1.26-0.522
		c-0.694-0.696-0.695-1.826-0.001-2.521l21.793-21.793c0.337-0.337,0.785-0.522,1.261-0.522c0.476,0,0.923,0.185,1.259,0.521
		c0.338,0.338,0.524,0.786,0.524,1.262s-0.186,0.923-0.523,1.26l-21.79,21.793C96.731,130.994,96.282,131.18,95.805,131.18z
		 M81.916,118.966c-0.477,0-0.926-0.185-1.263-0.522c-0.695-0.695-0.695-1.826,0-2.521l13.613-13.612
		c0.336-0.336,0.784-0.521,1.261-0.521c0.476,0,0.924,0.185,1.26,0.522c0.336,0.336,0.522,0.784,0.522,1.26
		c0,0.477-0.186,0.924-0.523,1.261l-13.61,13.611C82.84,118.78,82.393,118.966,81.916,118.966z M66.585,79.873
		c-0.983,0-1.783-0.8-1.783-1.783v-6.338c0-4.477,3.642-8.119,8.117-8.119h25.236c2.511,0,4.553-2.043,4.553-4.554
		c0-2.511-2.043-4.553-4.553-4.553H53.579c-4.477,0-8.119-3.642-8.119-8.119c0-4.477,3.642-8.119,8.119-8.119h27.674
		c2.511,0,4.554-2.043,4.554-4.553c0-0.983,0.8-1.783,1.783-1.783c0.983,0,1.783,0.8,1.783,1.783c0,4.477-3.642,8.119-8.119,8.119
		H53.579c-2.511,0-4.553,2.043-4.553,4.554c0,2.511,2.043,4.553,4.553,4.553h44.576c4.477,0,8.119,3.642,8.119,8.119
		c0,4.477-3.642,8.119-8.119,8.119H72.919c-2.51,0-4.552,2.043-4.552,4.553v6.338C68.368,79.073,67.568,79.873,66.585,79.873z"/>
</g>
</svg>
