<?xml version="1.0" encoding="iso-8859-1"?>
<!-- Generator: Adobe Illustrator 18.0.0, SVG Export Plug-In . SVG Version: 6.00 Build 0)  -->
<!DOCTYPE svg PUBLIC "-//W3C//DTD SVG 1.1//EN" "http://www.w3.org/Graphics/SVG/1.1/DTD/svg11.dtd">
<svg version="1.1" id="Layer_1" xmlns="http://www.w3.org/2000/svg" xmlns:xlink="http://www.w3.org/1999/xlink" x="0px" y="0px"
	 viewBox="0 0 200 200" style="enable-background:new 0 0 200 200;" xml:space="preserve">
<rect x="234.125" y="71.041" style="fill:#F15A24;" width="3.773" height="3.773"/>
<g>
	<g>
		<path style="fill:#B3B3B3;" d="M87.23,75.299v82.61c0,8.959-7.288,16.248-16.246,16.248c-4.53,0-8.744-1.841-11.866-5.185
			l-0.837-0.896l-0.316,1.185c-0.768,2.883-3.37,4.896-6.328,4.896H32.294c-3.625,0-6.575-2.95-6.575-6.575V80.531
			c0-3.625,2.949-6.575,6.575-6.575h19.344c0.708,0,1.425,0.132,2.192,0.405l0.906,0.322V25.595h3.496
			c0.354,6.727,5.938,12.09,12.751,12.09s12.397-5.364,12.752-12.09h3.494v38.372l1.273-2.296c2.261-4.078,6.001-6.948,10.532-8.08
			c1.344-0.335,2.717-0.505,4.08-0.505c3.1,0,6.145,0.883,8.807,2.554c3.875,2.428,6.522,6.231,7.453,10.707l17.574,84.361V61.187
			c0-3.625,2.95-6.575,6.577-6.575h24.181c3.625,0,6.575,2.949,6.575,6.575v106.395c0,3.626-2.95,6.575-6.575,6.575h-24.181
			c-2.667,0-5.051-1.599-6.073-4.073l-0.206-0.499l-28.929,4.82L87.23,75.299z M143.526,58.09c-1.708,0-3.098,1.389-3.098,3.097
			v106.216l0.305,1.467l0.039,0.079c0.533,1.067,1.589,1.73,2.753,1.73h24.181c1.708,0,3.096-1.389,3.096-3.097V61.187
			c0-1.708-1.389-3.097-3.096-3.097H143.526z M58.215,157.909c0,7.041,5.728,12.769,12.769,12.769s12.769-5.728,12.769-12.769
			V35.088l-1.164,1.189c-3.086,3.151-7.207,4.887-11.605,4.887c-4.4,0-8.521-1.735-11.605-4.886l-1.164-1.19V157.909z
			 M32.294,77.435c-1.707,0-3.096,1.389-3.096,3.096v87.051c0,1.708,1.389,3.097,3.096,3.097h19.344
			c1.708,0,3.098-1.389,3.098-3.097V80.531c0-1.707-1.39-3.096-3.098-3.096H32.294z M103.105,56.564c-1.081,0-2.166,0.134-3.226,0.4
			c-6.917,1.729-11.174,8.547-9.691,15.522l20.838,97.942l25.591-4.265L115.97,67.056c-0.739-3.542-2.833-6.55-5.896-8.471
			C107.969,57.263,105.559,56.564,103.105,56.564z"/>
	</g>
	<g>
		<path style="fill:#B3B3B3;" d="M146.622,91.942V69.12h17.986v22.822H146.622z M150.101,88.464h11.029V72.598h-11.029V88.464z"/>
	</g>
	<g>
		<rect x="153.876" y="161.006" style="fill:#B3B3B3;" width="3.478" height="3.478"/>
	</g>
	<g>
		<rect x="153.876" y="98.137" style="fill:#B3B3B3;" width="3.478" height="56.676"/>
	</g>
	<g>
		<path style="fill:#B3B3B3;" d="M41.967,96.779c-3.625,0-6.575-2.949-6.575-6.575c0-3.626,2.949-6.575,6.575-6.575
			c3.625,0,6.575,2.95,6.575,6.575C48.541,93.829,45.592,96.779,41.967,96.779z M41.967,87.106c-1.708,0-3.098,1.39-3.098,3.098
			c0,1.707,1.39,3.096,3.098,3.096c1.707,0,3.096-1.389,3.096-3.096C45.063,88.496,43.674,87.106,41.967,87.106z"/>
	</g>
	<g>
		<path style="fill:#B3B3B3;" d="M35.392,164.484v-61.511h13.149v61.511H35.392z M38.868,161.006h6.195v-54.554h-6.195V161.006z"/>
	</g>
	<g>
		<rect x="64.407" y="47.358" style="fill:#B3B3B3;" width="3.478" height="105.036"/>
	</g>
	<g>
		<rect x="64.407" y="158.588" style="fill:#B3B3B3;" width="3.478" height="3.478"/>
	</g>
	<g>
		<rect x="74.08" y="47.358" style="fill:#B3B3B3;" width="3.478" height="54.257"/>
	</g>
	<g>
		<rect x="74.08" y="107.809" style="fill:#B3B3B3;" width="3.478" height="54.257"/>
	</g>
	<g>
		
			<rect x="111.563" y="67.875" transform="matrix(-0.9744 0.225 -0.225 -0.9744 249.7022 202.715)" style="fill:#B3B3B3;" width="3.478" height="95.416"/>
	</g>
</g>
</svg>
