<?xml version="1.0" encoding="iso-8859-1"?>
<!-- Generator: Adobe Illustrator 18.0.0, SVG Export Plug-In . SVG Version: 6.00 Build 0)  -->
<!DOCTYPE svg PUBLIC "-//W3C//DTD SVG 1.1//EN" "http://www.w3.org/Graphics/SVG/1.1/DTD/svg11.dtd">
<svg version="1.1" id="Layer_1" xmlns="http://www.w3.org/2000/svg" xmlns:xlink="http://www.w3.org/1999/xlink" x="0px" y="0px"
	 viewBox="0 0 200 200" style="enable-background:new 0 0 200 200;" xml:space="preserve">
<rect x="234.125" y="71.041" style="fill:#F15A24;" width="3.773" height="3.773"/>
<g>
	<g>
		<path style="fill:#B3B3B3;" d="M84.262,88.524c-0.904,0-1.639-0.735-1.639-1.639v-2.622c0-0.904,0.735-1.639,1.639-1.639
			c0.904,0,1.639,0.735,1.639,1.639v2.622C85.902,87.788,85.166,88.524,84.262,88.524z"/>
	</g>
	<g>
		<path style="fill:#B3B3B3;" d="M115.74,88.524c-0.904,0-1.639-0.735-1.639-1.639v-2.622c0-0.904,0.735-1.639,1.639-1.639
			s1.639,0.735,1.639,1.639v2.622C117.379,87.788,116.644,88.524,115.74,88.524z"/>
	</g>
	<g>
		<path style="fill:#B3B3B3;" d="M100,106.886c-3.421,0-6.615-0.8-8.763-2.196c-0.367-0.238-0.619-0.605-0.71-1.033
			s-0.01-0.866,0.229-1.233c0.304-0.468,0.818-0.748,1.377-0.748c0.316,0,0.624,0.092,0.892,0.265
			c1.604,1.043,4.212,1.666,6.975,1.666c2.764,0,5.372-0.623,6.977-1.666c0.267-0.173,0.574-0.265,0.89-0.265
			c0.558,0,1.073,0.279,1.376,0.747c0.492,0.758,0.276,1.775-0.481,2.267C106.617,106.086,103.423,106.886,100,106.886z"/>
	</g>
	<g>
		<path style="fill:#B3B3B3;" d="M47.538,175.086c-5.243,0-9.508-4.265-9.508-9.508v-19.401c0-6.36,4.055-11.985,10.089-13.998
			l29.257-9.751v-10.046l-0.856-0.504c-5.944-3.513-9.638-10.231-9.638-17.531V62.091l-0.354-0.244
			c-4.706-3.254-7.515-8.602-7.515-14.308c0-9.582,7.796-17.377,17.379-17.377c2.365,0,4.669,0.476,6.85,1.414l0.506,0.218
			l0.393-0.385c2.877-2.825,6.462-4.834,10.366-5.811l0.053-0.014c0.35-0.087,0.695-0.165,1.026-0.23l0.067-0.013
			c0.318-0.063,0.622-0.115,0.928-0.162l0.188-0.028c0.329-0.048,0.662-0.09,0.996-0.124l0.095-0.007
			c0.299-0.028,0.596-0.05,0.895-0.067c0.099-0.005,0.172-0.009,0.245-0.012c0.339-0.016,0.669-0.025,1.001-0.025
			c0.333,0,0.664,0.011,0.995,0.025c0.079,0.003,0.149,0.007,0.22,0.011c0.328,0.019,0.624,0.039,0.919,0.068l0.077,0.006
			c0.359,0.036,0.691,0.078,1.02,0.125l0.197,0.029c0.297,0.045,0.601,0.098,0.901,0.156l0.085,0.017
			c0.345,0.068,0.687,0.146,1.026,0.229l0.048,0.013c0.33,0.083,0.649,0.172,0.967,0.266l0.058,0.018
			c3.501,1.054,6.732,2.966,9.343,5.53l0.393,0.385l0.506-0.218c2.18-0.938,4.486-1.414,6.852-1.414
			c9.582,0,17.377,7.795,17.377,17.377c0,5.704-2.81,11.053-7.516,14.308l-0.353,0.245v32.256c0,7.301-3.693,14.019-9.639,17.531
			l-0.854,0.503v10.046l29.259,9.751c6.034,2.012,10.088,7.638,10.088,13.998v19.401c0,5.243-4.265,9.508-9.508,9.508H47.538z
			 M139.347,161.316c0.904,0,1.639,0.735,1.639,1.639v8.852h11.476c3.435,0,6.23-2.795,6.23-6.229v-19.401
			c0-4.948-3.153-9.322-7.847-10.886l-28.331-9.443l-0.167,0.933c-0.749,4.175-3.064,7.691-6.694,10.167l-0.77,0.525l0.619,0.697
			c3.627,4.08,5.26,9.141,4.478,13.883c-0.115,0.693-0.658,1.236-1.351,1.35c-0.758,0.126-1.542,0.189-2.329,0.189
			c-4.411,0-8.941-2.001-12.43-5.49c-1.234-1.234-2.293-2.609-3.149-4.089l-0.71-1.227l-0.71,1.227
			c-0.856,1.48-1.915,2.855-3.149,4.089c-3.489,3.489-8.02,5.49-12.432,5.49c-0.785,0-1.568-0.064-2.327-0.189
			c-0.693-0.114-1.237-0.657-1.352-1.351c-0.78-4.737,0.85-9.793,4.473-13.872l0.619-0.697l-0.771-0.525
			c-3.638-2.476-5.959-5.995-6.71-10.176l-0.168-0.932l-28.33,9.443c-4.693,1.564-7.847,5.939-7.847,10.886v19.401
			c0,3.435,2.795,6.229,6.23,6.229h11.476v-8.852c0-0.904,0.735-1.639,1.639-1.639c0.904,0,1.639,0.735,1.639,1.639v8.852h18.609
			l-0.435-1.117c-0.311-0.797-0.468-1.635-0.468-2.488c0-3.797,3.089-6.886,6.886-6.886s6.886,3.089,6.886,6.886
			c0,0.853-0.157,1.69-0.468,2.488l-0.434,1.117h14.264l-0.435-1.117c-0.311-0.797-0.468-1.635-0.468-2.488
			c0-3.797,3.089-6.886,6.886-6.886s6.886,3.089,6.886,6.886c0,0.853-0.157,1.69-0.468,2.488l-0.434,1.117h18.608v-8.852
			C137.707,162.051,138.443,161.316,139.347,161.316z M113.116,164.595c-1.989,0-3.607,1.618-3.607,3.607
			c0,1.988,1.618,3.605,3.607,3.605c1.989,0,3.607-1.617,3.607-3.605C116.723,166.213,115.104,164.595,113.116,164.595z
			 M86.885,164.595c-1.989,0-3.607,1.618-3.607,3.607c0,1.988,1.618,3.605,3.607,3.605c1.989,0,3.607-1.617,3.607-3.605
			C90.492,166.213,88.873,164.595,86.885,164.595z M101.666,135.929c0.092,3.479,1.74,7.07,4.522,9.851
			c2.783,2.783,6.374,4.432,9.854,4.523l0.864,0.023l-0.023-0.864c-0.093-3.479-1.742-7.069-4.524-9.851
			c-2.781-2.783-6.372-4.431-9.852-4.522l-0.864-0.023L101.666,135.929z M97.516,135.088c-3.479,0.092-7.069,1.74-9.851,4.522
			c-2.783,2.783-4.431,6.374-4.523,9.852l-0.023,0.864l0.864-0.023c3.479-0.091,7.07-1.74,9.852-4.523
			c2.782-2.782,4.431-6.373,4.522-9.851l0.023-0.864L97.516,135.088z M80.738,125.166c0.437,4.198,2.723,7.582,6.612,9.784
			l0.444,0.252l0.422-0.288c2.418-1.653,5.118-2.692,7.808-3.005l3.987-0.465l3.978,0.464c2.693,0.314,5.393,1.352,7.807,3.001
			l0.422,0.289l0.445-0.253c3.882-2.202,6.164-5.583,6.601-9.776l0.23-2.213l-1.611,1.535c-0.661,0.63-1.37,1.209-2.109,1.722
			c-3.153,2.194-7.116,3.562-11.779,4.067l-3.991,0.432l-3.988-0.431c-4.669-0.505-8.636-1.873-11.791-4.068
			c-0.742-0.515-1.45-1.095-2.106-1.722l-1.613-1.543L80.738,125.166z M80.984,116.121c1.853,8.18,11.038,11.095,19.016,11.095
			s17.162-2.915,19.016-11.095l0.42-1.854l-9.509,5.618c-3.033,1.792-6.465,2.739-9.926,2.739c-3.462,0-6.895-0.947-9.927-2.739
			l-9.51-5.618L80.984,116.121z M70.162,94.347c0,6.146,3.076,11.782,8.028,14.708l13.553,8.008
			c2.528,1.493,5.382,2.282,8.256,2.282c2.877,0,5.733-0.789,8.26-2.282l13.551-8.008c4.952-2.926,8.028-8.562,8.028-14.708V75.408
			H70.162V94.347z M70.162,72.13h59.676v-9.837H70.162V72.13z M76.393,33.44c-7.775,0-14.1,6.324-14.1,14.098
			c0,4.428,2.13,8.658,5.698,11.317l0.26,0.193l0.305-0.034h62.892l0.296,0.031l0.267-0.191c3.567-2.657,5.697-6.888,5.697-11.317
			c0-7.774-6.324-14.098-14.098-14.098c-1.383,0-2.774,0.212-4.132,0.63l-1.032,0.318l0.583,0.909
			c0.287,0.446,0.537,0.864,0.765,1.276c0.214,0.384,0.264,0.827,0.144,1.248c-0.12,0.421-0.398,0.769-0.781,0.982
			c-0.244,0.136-0.518,0.207-0.794,0.207c-0.596,0-1.146-0.323-1.435-0.844c-0.597-1.076-1.308-2.108-2.113-3.066l-0.03-0.035
			l-0.033-0.032c-0.041-0.039-0.081-0.08-0.119-0.123c-2.75-3.185-6.369-5.35-10.464-6.259l-0.077-0.016
			c-0.305-0.066-0.629-0.13-0.955-0.183l-0.049-0.007c-0.313-0.051-0.621-0.093-0.932-0.127l-0.101-0.013
			c-0.306-0.032-0.615-0.057-0.922-0.075l-0.187-0.01c-0.316-0.015-0.628-0.025-0.944-0.025c-0.314,0-0.629,0.01-0.941,0.025
			l-0.188,0.01c-0.311,0.018-0.621,0.042-0.928,0.075c-0.034,0.003-0.076,0.009-0.12,0.015c-0.287,0.031-0.596,0.073-0.904,0.123
			l-0.068,0.011c-0.325,0.053-0.646,0.114-0.964,0.185l-0.045,0.009c-4.102,0.911-7.722,3.076-10.476,6.263
			c-0.039,0.045-0.079,0.085-0.119,0.123l-0.033,0.032l-0.029,0.035c-0.803,0.955-1.514,1.987-2.113,3.068
			c-0.289,0.52-0.84,0.844-1.437,0.844c-0.279,0-0.546-0.069-0.792-0.206c-0.383-0.212-0.66-0.561-0.781-0.982
			c-0.121-0.421-0.07-0.864,0.143-1.247c0.245-0.44,0.503-0.872,0.766-1.281l0.586-0.909l-1.034-0.318
			C79.165,33.652,77.776,33.44,76.393,33.44z"/>
	</g>
</g>
</svg>
