<?xml version="1.0" encoding="iso-8859-1"?>
<!-- Generator: Adobe Illustrator 18.0.0, SVG Export Plug-In . SVG Version: 6.00 Build 0)  -->
<!DOCTYPE svg PUBLIC "-//W3C//DTD SVG 1.1//EN" "http://www.w3.org/Graphics/SVG/1.1/DTD/svg11.dtd">
<svg version="1.1" id="Layer_1" xmlns="http://www.w3.org/2000/svg" xmlns:xlink="http://www.w3.org/1999/xlink" x="0px" y="0px"
	 viewBox="0 0 200 200" style="enable-background:new 0 0 200 200;" xml:space="preserve">
<rect x="234.125" y="71.041" style="fill:#F15A24;" width="3.773" height="3.773"/>
<g>
	<g>
		<path style="fill:#B3B3B3;" d="M70.348,169.278c-1,0-1.814-0.814-1.814-1.814v-7.966c0-1,0.814-1.814,1.814-1.814
			s1.814,0.814,1.814,1.814v7.966C72.162,168.464,71.348,169.278,70.348,169.278z"/>
	</g>
	<g>
		<path style="fill:#B3B3B3;" d="M129.652,171.933c-1,0-1.814-0.814-1.814-1.814v-10.622c0-1,0.814-1.814,1.814-1.814
			c1,0,1.814,0.814,1.814,1.814v10.622C131.466,171.119,130.652,171.933,129.652,171.933z"/>
	</g>
	<g>
		<path style="fill:#B3B3B3;" d="M26.533,67.486c-1,0-1.814-0.814-1.814-1.814s0.814-1.814,1.814-1.814h36.734
			c1,0,1.814,0.814,1.814,1.814s-0.814,1.814-1.814,1.814H26.533z"/>
	</g>
	<g>
		<path style="fill:#B3B3B3;" d="M26.533,56.864c-1,0-1.814-0.814-1.814-1.814s0.814-1.814,1.814-1.814h36.734
			c1,0,1.814,0.814,1.814,1.814s-0.814,1.814-1.814,1.814H26.533z"/>
	</g>
	<g>
		<path style="fill:#B3B3B3;" d="M40.695,140.068c-1,0-1.814-0.814-1.814-1.814V97.538c0-1,0.814-1.814,1.814-1.814h89.621
			c1,0,1.814,0.814,1.814,1.814s-0.814,1.814-1.814,1.814H42.509v37.089h114.982V99.352h-16.553c-1,0-1.814-0.814-1.814-1.814
			s0.814-1.814,1.814-1.814h18.367c1,0,1.814,0.814,1.814,1.814v40.717c0,1-0.814,1.814-1.814,1.814H40.695z"/>
	</g>
	<g>
		<g>
			<path style="fill:#B3B3B3;" d="M74.747,67.486c-0.049,0-0.098-0.002-0.148-0.006c-0.483-0.039-0.921-0.264-1.235-0.633
				c-0.314-0.369-0.465-0.838-0.426-1.32l1.829-22.695c0.544-6.758,6.504-12.256,13.284-12.256h23.899
				c6.78,0,12.739,5.498,13.284,12.256l1.829,22.694c0.039,0.483-0.112,0.952-0.426,1.321s-0.753,0.594-1.235,0.633
				c-0.055,0.005-0.103,0.006-0.149,0.006c-0.937,0-1.73-0.732-1.805-1.666l-1.831-22.695c-0.39-4.835-4.817-8.92-9.667-8.92H88.051
				c-4.851,0-9.278,4.085-9.668,8.92l-1.831,22.694C76.477,66.754,75.684,67.486,74.747,67.486
				C74.747,67.486,74.747,67.486,74.747,67.486z"/>
		</g>
		<g>
			<path style="fill:#B3B3B3;" d="M169.927,171.933c-1,0-1.814-0.814-1.814-1.814V150.69H31.887v19.429c0,1-0.814,1.814-1.814,1.814
				c-1,0-1.814-0.814-1.814-1.814V88.73h-8.808c-1,0-1.814-0.814-1.814-1.814V76.294c0-1,0.814-1.814,1.814-1.814h123.877V55.05
				c0-1,0.814-1.814,1.814-1.814h5.267v-8.808c0-1,0.814-1.814,1.814-1.814c1,0,1.814,0.814,1.814,1.814v8.808h5.267
				c1,0,1.814,0.814,1.814,1.814v19.43h19.429c1,0,1.814,0.814,1.814,1.814v10.622c0,1-0.814,1.814-1.814,1.814h-8.808v81.39
				C171.741,171.119,170.927,171.933,169.927,171.933z M31.887,147.062h136.225V88.73H31.887V147.062z M21.265,85.102h157.469
				v-6.994H21.265V85.102z M146.956,74.48h10.534V56.864h-10.534V74.48z"/>
		</g>
	</g>
</g>
</svg>
