<?xml version="1.0" encoding="iso-8859-1"?>
<!-- Generator: Adobe Illustrator 18.0.0, SVG Export Plug-In . SVG Version: 6.00 Build 0)  -->
<!DOCTYPE svg PUBLIC "-//W3C//DTD SVG 1.1//EN" "http://www.w3.org/Graphics/SVG/1.1/DTD/svg11.dtd">
<svg version="1.1" id="Layer_1" xmlns="http://www.w3.org/2000/svg" xmlns:xlink="http://www.w3.org/1999/xlink" x="0px" y="0px"
	 viewBox="0 0 200 200" style="enable-background:new 0 0 200 200;" xml:space="preserve">
<rect x="234.125" y="71.041" style="fill:#F15A24;" width="3.773" height="3.773"/>
<g>
	<g>
		<g>
			<g>
				<path style="fill:#B3B3B3;" d="M148.02,176.008c-2.596,0-5.013-1.036-6.804-2.918c-1.79-1.884-2.705-4.349-2.574-6.942
					l2.182-43.647l-4.686-1.171c-3.459-0.864-5.687-4.177-5.182-7.707l11.908-83.361c0.51-3.576,3.619-6.272,7.232-6.272
					c4.039,0,7.317,3.277,7.317,7.305v135.322C157.412,171.795,153.199,176.008,148.02,176.008z M150.095,27.231
					c-2.011,0-3.741,1.5-4.024,3.49l-11.908,83.362c-0.27,1.88,0.917,3.645,2.76,4.105l5.977,1.493
					c0.748,0.187,1.263,0.882,1.225,1.653l-2.249,44.975c-0.085,1.701,0.514,3.316,1.687,4.547c1.172,1.232,2.754,1.911,4.456,1.911
					c3.392,0,6.152-2.759,6.152-6.15V31.296c0-2.241-1.824-4.065-4.065-4.065H150.095z"/>
			</g>
		</g>
		<g>
			<path style="fill:#B3B3B3;" d="M105.313,176.009c-2.553,0-4.938-1.008-6.718-2.839c-1.78-1.83-2.721-4.243-2.65-6.794
				l2.348-79.422c0.039-1.28-0.575-2.47-1.642-3.182l-3.01-2.006c-2.02-1.347-3.2-3.691-3.079-6.116l2.505-50.122
				c0.044-0.862,0.753-1.539,1.615-1.539l0.084,0.002c0.433,0.021,0.831,0.21,1.121,0.531c0.291,0.321,0.438,0.736,0.416,1.167
				l-2.171,43.464h9.561V25.611c0-0.893,0.727-1.62,1.62-1.62c0.893,0,1.62,0.727,1.62,1.62v43.545h9.563l-2.173-43.464
				c-0.022-0.433,0.126-0.848,0.416-1.169c0.29-0.321,0.688-0.509,1.12-0.53l0.08-0.002c0.865,0,1.577,0.675,1.619,1.538
				l2.506,50.123c0.121,2.425-1.059,4.768-3.079,6.116l-3.009,2.005c-1.067,0.714-1.68,1.904-1.642,3.183l2.348,79.418
				c0.071,2.552-0.87,4.966-2.65,6.797C110.251,175.001,107.865,176.009,105.313,176.009z M93.8,75.813
				c-0.066,1.292,0.562,2.54,1.638,3.258l3.01,2.006c2.003,1.336,3.157,3.569,3.085,5.974l-2.348,79.419
				c-0.045,1.67,0.57,3.247,1.733,4.442c1.167,1.197,2.728,1.856,4.396,1.856c1.67,0,3.231-0.659,4.396-1.855
				c1.164-1.197,1.78-2.775,1.735-4.445l-2.35-79.415c-0.07-2.406,1.083-4.64,3.084-5.975l3.009-2.006
				c1.078-0.716,1.706-1.965,1.64-3.259l-0.169-3.416h-22.69L93.8,75.813z"/>
		</g>
		<g>
			<path style="fill:#B3B3B3;" d="M62.806,176.008c-2.553,0-4.942-1.006-6.726-2.833c-1.784-1.828-2.733-4.241-2.67-6.794
				l2.034-83.343c0.054-2.283-1.125-4.385-3.156-5.624c-6.074-3.706-9.7-10.16-9.7-17.266c0-5.307,1.022-14.175,3.904-21.699
				c4.576-11.95,11.397-14.458,16.314-14.458c4.915,0,11.736,2.508,16.314,14.458c2.882,7.524,3.904,16.392,3.904,21.699
				c0,7.105-3.627,13.559-9.701,17.266c-2.029,1.239-3.209,3.341-3.154,5.623l2.033,83.344c0.062,2.553-0.886,4.966-2.67,6.794
				C67.748,175.002,65.359,176.008,62.806,176.008z M62.806,27.231c-12.828,0-16.978,22.177-16.978,32.917
				c0,5.967,3.046,11.387,8.147,14.499c2.986,1.821,4.789,5.067,4.706,8.47l-2.032,83.343c-0.041,1.672,0.58,3.253,1.749,4.451
				c1.169,1.197,2.734,1.856,4.408,1.856c1.672,0,3.237-0.659,4.406-1.856c1.17-1.198,1.791-2.779,1.749-4.452l-2.032-83.342
				c-0.083-3.403,1.72-6.648,4.705-8.47c5.103-3.112,8.149-8.532,8.147-14.499C79.782,49.408,75.632,27.231,62.806,27.231z"/>
		</g>
	</g>
</g>
</svg>
