<?xml version="1.0" encoding="iso-8859-1"?>
<!-- Generator: Adobe Illustrator 18.0.0, SVG Export Plug-In . SVG Version: 6.00 Build 0)  -->
<!DOCTYPE svg PUBLIC "-//W3C//DTD SVG 1.1//EN" "http://www.w3.org/Graphics/SVG/1.1/DTD/svg11.dtd">
<svg version="1.1" id="Layer_1" xmlns="http://www.w3.org/2000/svg" xmlns:xlink="http://www.w3.org/1999/xlink" x="0px" y="0px"
	 viewBox="0 0 200 200" style="enable-background:new 0 0 200 200;" xml:space="preserve">
<rect x="234.125" y="71.041" style="fill:#F15A24;" width="3.773" height="3.773"/>
<g>
	<g>
		<circle style="fill:#B3B3B3;" cx="144.995" cy="91.99" r="1.669"/>
	</g>
	<g>
		<path style="fill:#B3B3B3;" d="M73.271,175.16c-0.92,0-1.669-0.749-1.669-1.67c0-0.92,0.749-1.669,1.669-1.669h2.023l2.454-7.455
			c1.912-5.804,8.197-10.351,14.308-10.351h8.022v-8.022c0-0.92,0.749-1.669,1.669-1.669h9.691c0.92,0,1.669,0.749,1.669,1.669
			v8.022h35.061V104.6l-0.886,0.158c-0.766,0.137-1.536,0.206-2.29,0.206c-0.754,0-1.525-0.069-2.29-0.206l-0.886-0.158v41.393
			c0,0.92-0.749,1.67-1.669,1.67s-1.669-0.749-1.669-1.67v-42.78l-0.353-0.221c-3.824-2.398-6.108-6.511-6.108-11.002
			c0-0.972,0.113-1.956,0.337-2.923l0.094-0.407l-30.247-30.247c-0.651-0.651-0.651-1.71,0-2.36c0.315-0.316,0.735-0.489,1.18-0.489
			c0.446,0,0.865,0.174,1.18,0.489l29.27,29.27l0.515-0.736c0.888-1.27,1.978-2.359,3.241-3.24l0.738-0.514l-34.948-34.946
			L91.101,58.162l0.196,0.467c4.395,10.453,3.746,22.652-1.736,32.63l-0.024,0.043l-0.018,0.046c-0.044,0.113-0.108,0.23-0.19,0.345
			l-0.022,0.031l-0.019,0.033c-1.654,2.908-3.69,5.579-6.05,7.939c-0.315,0.315-0.735,0.489-1.182,0.489
			c-0.446,0-0.865-0.174-1.181-0.489L30.196,49.011c-0.315-0.315-0.489-0.734-0.489-1.179c0-0.446,0.174-0.866,0.489-1.181
			c2.36-2.36,5.035-4.398,7.95-6.056l0.03-0.017l0.029-0.02c0.116-0.081,0.227-0.143,0.341-0.189l0.041-0.017l0.039-0.021
			c5.54-3.045,11.817-4.654,18.15-4.654c5.009,0,9.882,0.981,14.484,2.916l0.467,0.196l13.457-13.458
			c0.311-0.311,0.741-0.489,1.181-0.489c0.44,0,0.871,0.178,1.181,0.489l7.375,7.377l0.524-0.401
			c3.041-2.328,6.683-3.559,10.533-3.559c4.641,0,9.005,1.808,12.288,5.09c3.798,3.796,5.607,9.034,4.965,14.371
			c-0.101,0.838-0.812,1.471-1.654,1.471c-0.065,0-0.131-0.003-0.196-0.011c-0.449-0.054-0.844-0.276-1.12-0.627
			c-0.276-0.351-0.398-0.788-0.345-1.23c0.518-4.312-0.943-8.544-4.01-11.613c-2.653-2.652-6.178-4.112-9.927-4.112
			c-2.862,0-5.611,0.854-7.95,2.47l-0.744,0.514l44.377,44.377l0.407-0.094c0.963-0.223,1.946-0.336,2.923-0.336
			c7.155,0,12.975,5.821,12.975,12.975c0,4.493-2.283,8.605-6.107,11l-0.354,0.221v50.899l0.62,0.111
			c5.431,0.976,10.374,5.147,12.019,10.144l2.454,7.455h2.023c0.92,0,1.669,0.749,1.669,1.669c0,0.92-0.749,1.67-1.669,1.67H73.271z
			 M92.057,157.353c-4.599,0-9.699,3.69-11.137,8.058l-2.111,6.41h84.278l-2.111-6.411c-1.438-4.367-6.538-8.057-11.137-8.057
			H92.057z M103.417,154.015h6.352v-6.352h-6.352V154.015z M144.995,82.354c-5.314,0-9.637,4.323-9.637,9.637
			c0,5.314,4.323,9.637,9.637,9.637c5.314,0,9.637-4.323,9.637-9.637C154.632,86.677,150.308,82.354,144.995,82.354z M38.394,44.336
			c-1.407,0.891-2.76,1.896-4.022,2.988l-0.613,0.53L82.036,96.13l0.53-0.612c1.083-1.251,2.088-2.604,2.988-4.02l0.324-0.51
			L38.903,44.013L38.394,44.336z M56.767,39.012c-4.78,0-9.422,0.973-13.798,2.891l-1.01,0.443l45.584,45.586l0.443-1.01
			c3.994-9.108,3.85-19.46-0.394-28.404c-0.301-0.636-0.169-1.397,0.329-1.895l13.099-13.099L86.366,28.872L73.268,41.969
			c-0.316,0.316-0.735,0.489-1.181,0.489c-0.249,0-0.49-0.054-0.716-0.161C66.778,40.118,61.864,39.012,56.767,39.012z"/>
	</g>
</g>
</svg>
