<?xml version="1.0" encoding="iso-8859-1"?>
<!-- Generator: Adobe Illustrator 18.0.0, SVG Export Plug-In . SVG Version: 6.00 Build 0)  -->
<!DOCTYPE svg PUBLIC "-//W3C//DTD SVG 1.1//EN" "http://www.w3.org/Graphics/SVG/1.1/DTD/svg11.dtd">
<svg version="1.1" id="Layer_1" xmlns="http://www.w3.org/2000/svg" xmlns:xlink="http://www.w3.org/1999/xlink" x="0px" y="0px"
	 viewBox="0 0 200 200" style="enable-background:new 0 0 200 200;" xml:space="preserve">
<rect x="234.125" y="71.041" style="fill:#F15A24;" width="3.773" height="3.773"/>
<g>
	<g>
		<path style="fill:#B3B3B3;" d="M26.576,175.118c-0.934,0-1.694-0.76-1.694-1.694v-69.39c0-0.934,0.76-1.694,1.694-1.694h33.807
			V84.346c0-0.063,0.005-0.126,0.012-0.188l0.007-0.04c0.007-0.045,0.012-0.09,0.022-0.132l0.009-0.034
			c0.016-0.063,0.027-0.104,0.04-0.144l0.023-0.062c0.012-0.034,0.026-0.068,0.041-0.1l0.042-0.09
			c0.007-0.013,0.091-0.152,0.091-0.152c0.011-0.016,0.067-0.089,0.067-0.089l0.015-0.021c0.047-0.059,0.086-0.104,0.128-0.146
			c0.052-0.05,0.09-0.083,0.13-0.115l0.037-0.031l37.258-29.489V26.576c0-0.934,0.76-1.694,1.694-1.694h25.98
			c0.934,0,1.694,0.76,1.694,1.694v13.877c0,0.934-0.76,1.694-1.694,1.694h-16.298c-0.934,0-1.694-0.76-1.694-1.694
			c0-0.934,0.76-1.694,1.694-1.694h14.603V28.27h-22.591v25.242l37.295,29.52c0.041,0.032,0.078,0.065,0.115,0.101l0.03,0.028
			c0.037,0.038,0.071,0.078,0.105,0.119l0.031,0.04c0.027,0.035,0.051,0.066,0.072,0.1l0.039,0.065
			c0.014,0.024,0.037,0.062,0.056,0.101l0.022,0.048c0.017,0.036,0.032,0.073,0.046,0.11l0.022,0.057
			c0.015,0.044,0.026,0.088,0.038,0.132l0.016,0.062c0.006,0.029,0.012,0.072,0.018,0.116l0.008,0.053
			c0.007,0.063,0.011,0.121,0.011,0.18v17.993h33.807c0.934,0,1.694,0.76,1.694,1.694v69.39c0,0.934-0.76,1.694-1.694,1.694H26.576z
			 M121.785,127.083c0.934,0,1.694,0.76,1.694,1.694v42.952h48.25v-53.091h-32.113v45.103c0,0.934-0.76,1.695-1.694,1.695
			c-0.934,0-1.694-0.76-1.694-1.695V86.041h-17.67c-0.934,0-1.694-0.76-1.694-1.695c0-0.934,0.76-1.694,1.694-1.694h14.493
			L100,56.493L66.949,82.652h41.926c0.934,0,1.694,0.76,1.694,1.694c0,0.934-0.76,1.695-1.694,1.695H63.772v77.701
			c0,0.934-0.76,1.695-1.694,1.695c-0.934,0-1.694-0.76-1.694-1.695v-45.103H28.27v53.091h48.25v-42.952
			c0-0.934,0.76-1.694,1.694-1.694H121.785z M79.909,171.729h40.182v-6.293H79.909V171.729z M101.694,162.047h18.396v-31.575
			h-18.396V162.047z M79.909,162.047h18.396v-31.575H79.909V162.047z M139.617,115.25h32.113v-9.521h-32.113V115.25z M28.27,115.25
			h32.113v-9.521H28.27V115.25z"/>
	</g>
	<g>
		<path style="fill:#B3B3B3;" d="M38.409,140.154c-0.934,0-1.694-0.76-1.694-1.694v-9.683c0-0.934,0.76-1.694,1.694-1.694
			c0.934,0,1.694,0.76,1.694,1.694v9.683C40.104,139.394,39.344,140.154,38.409,140.154z"/>
	</g>
	<g>
		<path style="fill:#B3B3B3;" d="M50.244,140.154c-0.934,0-1.694-0.76-1.694-1.694v-9.683c0-0.934,0.76-1.694,1.694-1.694
			s1.694,0.76,1.694,1.694v9.683C51.939,139.394,51.179,140.154,50.244,140.154z"/>
	</g>
	<g>
		<path style="fill:#B3B3B3;" d="M161.591,140.154c-0.934,0-1.694-0.76-1.694-1.694v-9.683c0-0.934,0.76-1.694,1.694-1.694
			c0.934,0,1.694,0.76,1.694,1.694v9.683C163.285,139.394,162.525,140.154,161.591,140.154z"/>
	</g>
	<g>
		<path style="fill:#B3B3B3;" d="M149.755,140.154c-0.934,0-1.694-0.76-1.694-1.694v-9.683c0-0.934,0.76-1.694,1.694-1.694
			c0.934,0,1.694,0.76,1.694,1.694v9.683C151.45,139.394,150.69,140.154,149.755,140.154z"/>
	</g>
	<g>
		<path style="fill:#B3B3B3;" d="M100,117.562c-6.065,0-11-4.935-11-11c0-6.066,4.935-11,11-11c6.065,0,11,4.935,11,11
			C111,112.627,106.065,117.562,100,117.562z M100,98.951c-4.197,0-7.611,3.414-7.611,7.611c0,4.197,3.414,7.611,7.611,7.611
			s7.611-3.414,7.611-7.611C107.611,102.365,104.197,98.951,100,98.951z"/>
	</g>
</g>
</svg>
