<?xml version="1.0" encoding="iso-8859-1"?>
<!-- Generator: Adobe Illustrator 18.0.0, SVG Export Plug-In . SVG Version: 6.00 Build 0)  -->
<!DOCTYPE svg PUBLIC "-//W3C//DTD SVG 1.1//EN" "http://www.w3.org/Graphics/SVG/1.1/DTD/svg11.dtd">
<svg version="1.1" id="Layer_1" xmlns="http://www.w3.org/2000/svg" xmlns:xlink="http://www.w3.org/1999/xlink" x="0px" y="0px"
	 viewBox="0 0 200 200" style="enable-background:new 0 0 200 200;" xml:space="preserve">
<rect x="234.125" y="71.041" style="fill:#F15A24;" width="3.773" height="3.773"/>
<g>
	<g>
		<path style="fill:#B3B3B3;" d="M43.522,49.318c-3.064,0-6.028-1.112-8.345-3.131c-0.719-0.627-0.794-1.724-0.168-2.444
			c0.329-0.376,0.805-0.593,1.306-0.593c0.417,0,0.82,0.151,1.135,0.426c1.687,1.47,3.843,2.28,6.072,2.28
			c0.67,0,1.343-0.074,2.001-0.219c0.126-0.028,0.253-0.042,0.38-0.042c0.803,0,1.512,0.57,1.687,1.354
			c0.101,0.452,0.02,0.915-0.228,1.305c-0.248,0.39-0.633,0.66-1.084,0.761C45.378,49.217,44.452,49.318,43.522,49.318z"/>
	</g>
	<g>
		<path style="fill:#B3B3B3;" d="M173.116,174.919c-3.609,0-5.443-1.593-7.061-2.998c-1.383-1.201-2.475-2.15-4.791-2.15
			c-2.315,0-3.407,0.948-4.79,2.149c-1.619,1.406-3.453,2.999-7.062,2.999c-3.606,0-5.439-1.592-7.056-2.996
			c-1.383-1.203-2.474-2.152-4.793-2.152c-2.316,0-3.408,0.949-4.791,2.15c-1.617,1.405-3.449,2.998-7.06,2.998
			c-0.954,0-1.731-0.776-1.731-1.731V77.187l-1.016,0.57c-7.002,3.931-14.968,6.009-23.038,6.009
			c-8.071,0-16.039-2.078-23.042-6.009l-1.016-0.57v96.001c0,0.954-0.776,1.731-1.731,1.731c-3.61,0-5.441-1.593-7.058-2.998
			c-1.381-1.201-2.472-2.15-4.791-2.15c-2.316,0-3.408,0.949-4.791,2.15c-1.617,1.405-3.449,2.998-7.058,2.998
			c-3.61,0-5.443-1.593-7.06-2.998c-1.383-1.201-2.475-2.15-4.791-2.15c-2.316,0-3.407,0.948-4.788,2.147
			c-1.621,1.408-3.455,3.001-7.064,3.001c-0.954,0-1.731-0.776-1.731-1.731V26.812c0-0.954,0.776-1.731,1.731-1.731h146.376
			c0.95,0,1.726,0.774,1.731,1.725l0.144,34.903c0.001,0.198-0.034,0.397-0.104,0.593l-0.04,0.112v110.774
			C174.847,174.143,174.07,174.919,173.116,174.919z M161.264,74.501c0.954,0,1.731,0.776,1.731,1.731v90.203l0.531,0.121
			c2.21,0.503,3.586,1.698,4.799,2.752c0.717,0.622,1.33,1.155,2.062,1.538l0.998,0.523V64.881l-0.982,0.482
			c-4.404,2.161-9.137,3.257-14.069,3.257c-6.057,0-11.945-1.694-17.027-4.899l-0.546-0.345l-0.374,0.527
			c-2.947,4.153-6.535,7.788-10.663,10.805l-0.28,0.204v96.455l0.998-0.523c0.732-0.383,1.344-0.915,2.054-1.532
			c1.222-1.061,2.598-2.256,4.807-2.759l0.531-0.121V76.78c0-0.954,0.776-1.731,1.731-1.731c0.954,0,1.731,0.776,1.731,1.731v89.655
			l0.531,0.121c2.208,0.502,3.585,1.699,4.8,2.754c0.712,0.618,1.325,1.151,2.056,1.534l0.999,0.524v-17.482
			c0-0.954,0.776-1.731,1.731-1.731c0.954,0,1.731,0.776,1.731,1.731v17.48l0.998-0.521c0.732-0.382,1.344-0.913,2.053-1.527
			c1.225-1.064,2.601-2.259,4.809-2.761l0.531-0.121V76.232C159.533,75.278,160.31,74.501,161.264,74.501z M50.443,74.215
			c0.954,0,1.731,0.776,1.731,1.731v95.422l0.999-0.524c0.74-0.388,1.351-0.92,2.059-1.536c1.216-1.054,2.594-2.25,4.799-2.752
			l0.531-0.121V76.78c0-0.954,0.776-1.731,1.731-1.731s1.731,0.776,1.731,1.731v89.655l0.531,0.121
			c2.207,0.502,3.584,1.698,4.798,2.752c0.714,0.62,1.328,1.153,2.06,1.536l0.998,0.523V74.913l-0.28-0.204
			c-4.128-3.017-7.715-6.652-10.661-10.804l-0.374-0.527l-0.546,0.344c-5.083,3.204-10.97,4.898-17.025,4.898
			c-4.911,0-9.644-1.118-14.067-3.323l-0.986-0.492v106.561l0.998-0.521c0.73-0.381,1.34-0.911,2.046-1.524
			c1.23-1.068,2.605-2.263,4.816-2.766l0.531-0.121v-61.249c0-0.954,0.776-1.731,1.731-1.731s1.731,0.776,1.731,1.731v61.247
			l0.53,0.121c2.21,0.504,3.586,1.7,4.8,2.754c0.711,0.617,1.324,1.15,2.061,1.536l0.998,0.523V75.946
			C48.713,74.992,49.489,74.215,50.443,74.215z M56.876,29.109c-0.429,2.484-0.646,5.007-0.646,7.499
			c0,8.319,2.347,16.411,6.789,23.399c3.141,4.95,7.186,9.165,12.023,12.527c0.058,0.038,0.096,0.065,0.132,0.091
			c7.307,5.028,15.863,7.681,24.754,7.681c8.886,0,17.439-2.652,24.736-7.669l0.028-0.021c0.03-0.023,0.061-0.044,0.093-0.064
			l0.029-0.019c4.829-3.357,8.874-7.571,12.023-12.524c4.439-6.989,6.785-15.08,6.785-23.401c0-2.504-0.217-5.028-0.645-7.499
			l-0.098-0.566H56.974L56.876,29.109z M146.522,29.329c0.373,2.414,0.562,4.863,0.562,7.279c0,8.161-2.125,16.211-6.145,23.28
			l-0.323,0.567l0.552,0.348c4.527,2.85,9.771,4.357,15.165,4.357c5.263,0,10.403-1.443,14.866-4.173l0.328-0.2l-0.033-7.699
			l-1.105,0.893c-3.98,3.218-8.971,4.99-14.056,4.99c-1.867,0-3.722-0.231-5.515-0.687c-0.924-0.236-1.485-1.181-1.249-2.105
			c0.196-0.767,0.886-1.303,1.677-1.303c0.143,0,0.287,0.018,0.428,0.054c1.513,0.385,3.08,0.58,4.659,0.58
			c5.824,0,11.431-2.777,14.997-7.429l0.142-0.185l-0.079-19.352H146.4L146.522,29.329z M28.47,60.783l0.325,0.2
			c4.501,2.771,9.456,4.176,14.727,4.176c5.393,0,10.637-1.506,15.165-4.355l0.552-0.347l-0.322-0.567
			c-4.023-7.075-6.149-15.126-6.149-23.282c0-2.413,0.19-4.862,0.565-7.278l0.122-0.787H28.47v19.47l0.144,0.185
			c3.568,4.578,9.141,7.311,14.908,7.311c1.581,0,3.147-0.195,4.655-0.58c0.141-0.036,0.286-0.054,0.43-0.054
			c0.791,0,1.48,0.536,1.676,1.303c0.235,0.925-0.325,1.87-1.25,2.106c-1.788,0.456-3.642,0.687-5.511,0.687
			c-5.029,0-9.982-1.741-13.944-4.902l-1.107-0.883V60.783z"/>
	</g>
	<g>
		<path style="fill:#B3B3B3;" d="M156.333,49.318c-0.929,0-1.856-0.102-2.754-0.302c-0.452-0.101-0.837-0.371-1.085-0.761
			c-0.248-0.39-0.329-0.853-0.228-1.304c0.175-0.785,0.884-1.355,1.688-1.355c0.126,0,0.253,0.014,0.378,0.042
			c0.65,0.145,1.324,0.219,2.002,0.219c2.23,0,4.387-0.809,6.072-2.279c0.315-0.275,0.718-0.426,1.136-0.426
			c0.501,0,0.977,0.216,1.306,0.593c0.626,0.72,0.551,1.816-0.168,2.443C162.361,48.206,159.398,49.318,156.333,49.318z"/>
	</g>
	<g>
		<path style="fill:#B3B3B3;" d="M38.592,97.265c-0.954,0-1.731-0.776-1.731-1.731V76.232c0-0.954,0.776-1.731,1.731-1.731
			s1.731,0.776,1.731,1.731v19.302C40.322,96.489,39.546,97.265,38.592,97.265z"/>
	</g>
	<g>
		<path style="fill:#B3B3B3;" d="M149.412,145.965c-0.954,0-1.731-0.776-1.731-1.731V75.946c0-0.954,0.776-1.731,1.731-1.731
			c0.954,0,1.731,0.776,1.731,1.731v68.289C151.143,145.189,150.367,145.965,149.412,145.965z"/>
	</g>
	<g>
		<path style="fill:#B3B3B3;" d="M78.371,53.074c-0.572,0-1.107-0.282-1.431-0.753c-3.185-4.647-4.869-10.081-4.869-15.714
			c0-0.954,0.776-1.731,1.731-1.731s1.731,0.776,1.731,1.731c0,4.932,1.474,9.689,4.263,13.757c0.54,0.787,0.338,1.867-0.449,2.407
			C79.058,52.969,78.72,53.074,78.371,53.074z"/>
	</g>
	<g>
		<path style="fill:#B3B3B3;" d="M99.928,64.464c-5.635,0-11.069-1.684-15.714-4.869c-0.382-0.262-0.639-0.656-0.723-1.111
			c-0.085-0.454,0.013-0.915,0.274-1.296c0.323-0.47,0.858-0.751,1.43-0.751c0.349,0,0.687,0.105,0.977,0.303
			c4.066,2.789,8.823,4.263,13.756,4.263c13.45,0,24.392-10.944,24.392-24.395c0-0.954,0.776-1.731,1.731-1.731
			s1.731,0.776,1.731,1.731C127.781,51.968,115.286,64.464,99.928,64.464z"/>
	</g>
	<g>
		<path style="fill:#B3B3B3;" d="M95.105,73.789c-0.083,0-0.159-0.005-0.231-0.015C76.37,71.268,62.42,55.29,62.42,36.607
			c0-0.954,0.776-1.731,1.731-1.731c0.954,0,1.731,0.776,1.731,1.731c0,16.958,12.662,31.461,29.453,33.736
			c0.458,0.062,0.865,0.299,1.145,0.667c0.28,0.368,0.4,0.822,0.338,1.28C96.702,73.145,95.966,73.789,95.105,73.789z"/>
	</g>
	<g>
		<path style="fill:#B3B3B3;" d="M128.393,59.981c-0.38,0-0.742-0.123-1.047-0.355c-0.368-0.28-0.604-0.687-0.666-1.145
			c-0.062-0.458,0.058-0.912,0.338-1.28c4.549-5.971,6.954-13.092,6.954-20.594c0-0.954,0.776-1.731,1.731-1.731
			c0.954,0,1.731,0.776,1.731,1.731c0,8.268-2.649,16.114-7.662,22.69C129.44,59.732,128.937,59.981,128.393,59.981z"/>
	</g>
	<g>
		<path style="fill:#B3B3B3;" d="M104.75,73.789c-0.861,0-1.596-0.644-1.712-1.498c-0.062-0.458,0.058-0.913,0.338-1.281
			c0.28-0.368,0.687-0.605,1.145-0.667c5.792-0.784,11.325-3.081,15.999-6.645c0.304-0.231,0.667-0.354,1.048-0.354
			c0.546,0,1.048,0.248,1.378,0.681c0.281,0.368,0.401,0.823,0.34,1.281c-0.062,0.458-0.298,0.865-0.666,1.145
			c-5.149,3.925-11.246,6.457-17.635,7.322C104.909,73.784,104.834,73.789,104.75,73.789z"/>
	</g>
</g>
</svg>
